<?xml version="1.0" encoding="utf-8"?>
<!-- Generated by IcoMoon.io -->
<!DOCTYPE svg PUBLIC "-//W3C//DTD SVG 1.1//EN" "http://www.w3.org/Graphics/SVG/1.1/DTD/svg11.dtd">
<svg version="1.1" xmlns="http://www.w3.org/2000/svg" xmlns:xlink="http://www.w3.org/1999/xlink" width="24" height="24" viewBox="0 0 24 24">
<path fill="rgb(255, 64, 129)" d="M8.044 12.444h3.067l-1.556-5.067-1.511 5.067zM18.578 0h-13.156c-2.978 0-5.422 2.444-5.422 5.422v13.156c0 2.978 2.444 5.422 5.422 5.422h13.156c2.978 0 5.422-2.444 5.422-5.422v-13.156c0-2.978-2.444-5.422-5.422-5.422v0zM12.622 17.778l-1.244-4h-3.689l-1.156 4h-1.378l3.644-12.444h1.467l3.778 12.444h-1.422zM16.978 17.778h-1.289v-8.889h1.289v8.889zM16.889 6.4c-0.133 0.133-0.311 0.222-0.489 0.222s-0.356-0.089-0.533-0.222c-0.133-0.133-0.222-0.311-0.222-0.489s0.089-0.356 0.222-0.489c0.133-0.133 0.311-0.222 0.533-0.222 0.178 0 0.356 0.089 0.489 0.222s0.222 0.311 0.222 0.533c0 0.222-0.089 0.311-0.222 0.444v0.001z"></path>
</svg>
