<?xml version="1.0" encoding="utf-8"?>
<!-- Generated by IcoMoon.io -->
<!DOCTYPE svg PUBLIC "-//W3C//DTD SVG 1.1//EN" "http://www.w3.org/Graphics/SVG/1.1/DTD/svg11.dtd">
<svg version="1.1" xmlns="http://www.w3.org/2000/svg" xmlns:xlink="http://www.w3.org/1999/xlink" width="24" height="24" viewBox="0 0 24 24">
<path fill="rgb(255, 64, 129)" d="M18.578 0h-13.156c-2.978 0-5.422 2.444-5.422 5.422v13.156c0 2.978 2.444 5.422 5.422 5.422h13.156c2.978 0 5.422-2.444 5.422-5.422v-13.156c0-2.978-2.444-5.422-5.422-5.422v0zM23.111 18.578c0 2.489-2.044 4.533-4.533 4.533h-13.156c-2.489 0-4.533-2.044-4.533-4.533v-13.156c0-2.489 2.044-4.533 4.533-4.533h13.156c2.489 0 4.533 2.044 4.533 4.533v13.156zM8.8 5.333l-3.644 12.444h1.378l1.156-4h3.689l1.244 4h1.422l-3.778-12.444h-1.467zM8.044 12.444l1.511-5.067 1.556 5.067h-3.067zM15.733 8.889h1.289v8.889h-1.289v-8.889zM16.4 5.156c-0.178 0-0.356 0.089-0.533 0.222-0.133 0.133-0.222 0.311-0.222 0.489s0.089 0.356 0.222 0.489c0.133 0.133 0.311 0.222 0.533 0.222 0.178 0 0.356-0.089 0.489-0.222s0.222-0.311 0.222-0.533c0-0.222-0.089-0.356-0.222-0.533-0.133-0.044-0.311-0.133-0.489-0.133v-0.001z"></path>
</svg>
