<?xml version="1.0" encoding="utf-8"?>
<!-- Generated by IcoMoon.io -->
<!DOCTYPE svg PUBLIC "-//W3C//DTD SVG 1.1//EN" "http://www.w3.org/Graphics/SVG/1.1/DTD/svg11.dtd">
<svg version="1.1" xmlns="http://www.w3.org/2000/svg" xmlns:xlink="http://www.w3.org/1999/xlink" width="24" height="24" viewBox="0 0 24 24">
<path fill="rgb(255, 64, 129)" d="M12 0c-6.617 0-12 5.383-12 12s5.383 12 12 12c2.447 0 4.792-0.722 6.783-2.088 0.456-0.313 0.571-0.934 0.258-1.39-0.312-0.456-0.935-0.571-1.39-0.259-1.655 1.136-3.609 1.737-5.651 1.737-5.514 0-10-4.485-10-10 0-5.514 4.486-10 10-10s10 4.486 10 10v0.957c0 1.294-1.053 2.348-2.348 2.348s-2.348-1.054-2.348-2.348v-0.957c0-2.925-2.379-5.305-5.304-5.305s-5.305 2.38-5.305 5.305c0 2.925 2.38 5.305 5.305 5.305 1.629 0 3.088-0.74 4.062-1.9 0.784 1.146 2.1 1.9 3.59 1.9 2.397 0 4.348-1.951 4.348-4.348v-0.957c0-6.617-5.383-12-12-12v0zM12 15.305c-1.822 0-3.305-1.482-3.305-3.305s1.483-3.305 3.305-3.305c1.822 0 3.304 1.482 3.304 3.305s-1.482 3.305-3.304 3.305v0z"></path>
</svg>
