<?xml version="1.0" encoding="utf-8"?>
<!-- Generated by IcoMoon.io -->
<!DOCTYPE svg PUBLIC "-//W3C//DTD SVG 1.1//EN" "http://www.w3.org/Graphics/SVG/1.1/DTD/svg11.dtd">
<svg version="1.1" xmlns="http://www.w3.org/2000/svg" xmlns:xlink="http://www.w3.org/1999/xlink" width="24" height="24" viewBox="0 0 24 24">
<path fill="rgb(255, 64, 129)" d="M12 0c-6.617 0-12 5.383-12 12s5.383 12 12 12c2.448 0 4.793-0.722 6.783-2.088 0.228-0.156 0.286-0.467 0.129-0.695-0.155-0.229-0.466-0.286-0.695-0.129-1.822 1.251-3.972 1.912-6.217 1.912-6.065 0-11-4.934-11-11 0-6.065 4.935-11 11-11s11 4.935 11 11v1c0 1.654-1.346 3-3 3s-3-1.346-3-3v-1c0-2.757-2.243-5-5-5s-5 2.243-5 5c0 2.757 2.243 5 5 5 1.839 0 3.432-1.009 4.3-2.492 0.597 1.459 2.028 2.492 3.7 2.492 2.206 0 4-1.794 4-4v-1c0-6.617-5.383-12-12-12v0zM12 16c-2.206 0-4-1.794-4-4s1.794-4 4-4c2.206 0 4 1.794 4 4s-1.794 4-4 4v0z"></path>
</svg>
