<?xml version="1.0" encoding="utf-8"?>
<!-- Generated by IcoMoon.io -->
<!DOCTYPE svg PUBLIC "-//W3C//DTD SVG 1.1//EN" "http://www.w3.org/Graphics/SVG/1.1/DTD/svg11.dtd">
<svg version="1.1" xmlns="http://www.w3.org/2000/svg" xmlns:xlink="http://www.w3.org/1999/xlink" width="24" height="24" viewBox="0 0 24 24">
<path fill="rgb(255, 64, 129)" d="M12.007 0c-6.617 0-12 5.383-12 12s5.383 12 12 12c6.617 0 12-5.383 12-12s-5.383-12-12-12v0zM12.007 23c-6.065 0-11-4.935-11-11s4.935-11 11-11c6.065 0 11 4.935 11 11s-4.935 11-11 11v0zM7.507 9.5c-0.276 0-0.5 0.224-0.5 0.5v2.5l-2.1-2.8c-0.13-0.172-0.354-0.243-0.559-0.174-0.203 0.068-0.341 0.259-0.341 0.474v4c0 0.276 0.224 0.5 0.5 0.5s0.5-0.224 0.5-0.5v-2.5l2.1 2.8c0.097 0.128 0.246 0.2 0.4 0.2 0.053 0 0.106-0.008 0.158-0.026 0.204-0.068 0.342-0.259 0.342-0.474v-4c0-0.276-0.224-0.5-0.5-0.5v0zM12.007 13.5h-2v-1h1.5c0.276 0 0.5-0.224 0.5-0.5s-0.224-0.5-0.5-0.5h-1.5v-1h1.91c0.276 0 0.5-0.224 0.5-0.5s-0.224-0.5-0.5-0.5h-2.41c-0.276 0-0.5 0.224-0.5 0.5v4c0 0.276 0.224 0.5 0.5 0.5h2.5c0.276 0 0.5-0.224 0.5-0.5s-0.224-0.5-0.5-0.5v0zM19.683 9.532c-0.258-0.096-0.547 0.033-0.644 0.292l-1.032 2.752-1.032-2.752c-0.146-0.39-0.789-0.39-0.936 0l-1.032 2.752-1.032-2.752c-0.098-0.259-0.388-0.388-0.644-0.292-0.259 0.097-0.39 0.385-0.292 0.644l1.5 4c0.146 0.39 0.789 0.39 0.936 0l1.032-2.752 1.032 2.752c0.073 0.195 0.26 0.324 0.468 0.324s0.395-0.129 0.468-0.324l1.5-4c0.097-0.259-0.034-0.547-0.292-0.644v0z"></path>
</svg>
