<?xml version="1.0" encoding="utf-8"?>
<!-- Generated by IcoMoon.io -->
<!DOCTYPE svg PUBLIC "-//W3C//DTD SVG 1.1//EN" "http://www.w3.org/Graphics/SVG/1.1/DTD/svg11.dtd">
<svg version="1.1" xmlns="http://www.w3.org/2000/svg" xmlns:xlink="http://www.w3.org/1999/xlink" width="24" height="24" viewBox="0 0 24 24">
<path fill="rgb(255, 64, 129)" d="M12 0c-6.6 0-12 5.4-12 12s5.4 12 12 12c6.6 0 12-5.4 12-12s-5.4-12-12-12v0zM17.769 12.923h-4.846v5.077c0 0.508-0.415 0.923-0.923 0.923s-0.923-0.415-0.923-0.923v-5.077h-4.846c-0.508 0-0.923-0.415-0.923-0.923s0.415-0.923 0.923-0.923h4.846v-4.615c0-0.508 0.415-0.923 0.923-0.923s0.923 0.415 0.923 0.923v4.615h4.846c0.508 0 0.923 0.415 0.923 0.923s-0.415 0.923-0.923 0.923v0z"></path>
</svg>
