<?xml version="1.0" encoding="utf-8"?>
<!-- Generated by IcoMoon.io -->
<!DOCTYPE svg PUBLIC "-//W3C//DTD SVG 1.1//EN" "http://www.w3.org/Graphics/SVG/1.1/DTD/svg11.dtd">
<svg version="1.1" xmlns="http://www.w3.org/2000/svg" xmlns:xlink="http://www.w3.org/1999/xlink" width="24" height="24" viewBox="0 0 24 24">
<path fill="rgb(255, 64, 129)" d="M20.481 3.497c-4.708-4.662-12.323-4.662-16.985 0s-4.662 12.277 0 16.985c4.662 4.708 12.277 4.662 16.985 0s4.662-12.323 0-16.985v0zM15.405 16.697l-3.415-3.415-3.6 3.6c-0.369 0.369-0.923 0.369-1.292 0s-0.369-0.923 0-1.292l3.6-3.6-3.415-3.415c-0.369-0.369-0.369-0.923 0-1.292s0.923-0.369 1.292 0l3.415 3.415 3.277-3.277c0.369-0.369 0.923-0.369 1.292 0s0.369 0.923 0 1.292l-3.277 3.277 3.415 3.415c0.369 0.369 0.369 0.923 0 1.292-0.323 0.369-0.923 0.369-1.292 0v0z"></path>
</svg>
