<?xml version="1.0" encoding="utf-8"?>
<!-- Generated by IcoMoon.io -->
<!DOCTYPE svg PUBLIC "-//W3C//DTD SVG 1.1//EN" "http://www.w3.org/Graphics/SVG/1.1/DTD/svg11.dtd">
<svg version="1.1" xmlns="http://www.w3.org/2000/svg" xmlns:xlink="http://www.w3.org/1999/xlink" width="24" height="24" viewBox="0 0 24 24">
<path fill="rgb(255, 64, 129)" d="M18.24 11.68l-8.8-6c-0.12-0.080-0.28-0.080-0.4-0.040-0.16 0.080-0.24 0.2-0.24 0.36v12c0 0.16 0.080 0.28 0.2 0.36 0.080 0.040 0.12 0.040 0.2 0.040s0.16-0.040 0.24-0.080l8.8-6c0.12-0.080 0.16-0.2 0.16-0.32s-0.080-0.24-0.16-0.32v0zM9.6 17.24v-10.48l7.68 5.24-7.68 5.24zM12 0c-6.6 0-12 5.4-12 12s5.4 12 12 12c6.6 0 12-5.4 12-12s-5.4-12-12-12v0zM12 23.2c-6.16 0-11.2-5.040-11.2-11.2s5.040-11.2 11.2-11.2c6.16 0 11.2 5.040 11.2 11.2s-5.040 11.2-11.2 11.2v0z"></path>
</svg>
