<?xml version="1.0" encoding="utf-8"?>
<!-- Generated by IcoMoon.io -->
<!DOCTYPE svg PUBLIC "-//W3C//DTD SVG 1.1//EN" "http://www.w3.org/Graphics/SVG/1.1/DTD/svg11.dtd">
<svg version="1.1" xmlns="http://www.w3.org/2000/svg" xmlns:xlink="http://www.w3.org/1999/xlink" width="24" height="24" viewBox="0 0 24 24">
<path fill="rgb(255, 64, 129)" d="M12 0c-6.6 0-12 5.4-12 12s5.4 12 12 12c6.6 0 12-5.4 12-12s-5.4-12-12-12v0zM18.692 7.985l-7.385 8.308c-0.185 0.231-0.415 0.323-0.692 0.323-0.185 0-0.415-0.046-0.554-0.185l-4.615-3.692c-0.415-0.323-0.462-0.877-0.138-1.292s0.877-0.462 1.292-0.138l3.923 3.138 6.785-7.662c0.323-0.369 0.923-0.415 1.292-0.092 0.415 0.323 0.415 0.923 0.092 1.292v0z"></path>
</svg>
