<?xml version="1.0" encoding="utf-8"?>
<!-- Generated by IcoMoon.io -->
<!DOCTYPE svg PUBLIC "-//W3C//DTD SVG 1.1//EN" "http://www.w3.org/Graphics/SVG/1.1/DTD/svg11.dtd">
<svg version="1.1" xmlns="http://www.w3.org/2000/svg" xmlns:xlink="http://www.w3.org/1999/xlink" width="24" height="24" viewBox="0 0 24 24">
<path fill="rgb(255, 64, 129)" d="M12 0c-6.617 0-12 5.383-12 12s5.383 12 12 12c6.617 0 12-5.384 12-12s-5.383-12-12-12v0zM19 15.5c0 0.182-0.099 0.349-0.257 0.437-0.16 0.088-0.354 0.083-0.508-0.013l-3.235-2.023v2.598c0 0.276-0.224 0.5-0.5 0.5h-9c-0.276 0-0.5-0.224-0.5-0.5v-9c0-0.276 0.224-0.5 0.5-0.5h9c0.276 0 0.5 0.224 0.5 0.5v2.599l3.235-2.022c0.154-0.097 0.348-0.102 0.508-0.013 0.158 0.087 0.257 0.254 0.257 0.437v7z"></path>
</svg>
