<?xml version="1.0" encoding="utf-8"?>
<!-- Generated by IcoMoon.io -->
<!DOCTYPE svg PUBLIC "-//W3C//DTD SVG 1.1//EN" "http://www.w3.org/Graphics/SVG/1.1/DTD/svg11.dtd">
<svg version="1.1" xmlns="http://www.w3.org/2000/svg" xmlns:xlink="http://www.w3.org/1999/xlink" width="24" height="24" viewBox="0 0 24 24">
<path fill="rgb(255, 64, 129)" d="M12 0c-6.6 0-12 5.4-12 12s5.4 12 12 12c6.6 0 12-5.4 12-12s-5.4-12-12-12v0zM12 23.077c-6.092 0-11.077-4.985-11.077-11.077s4.985-11.077 11.077-11.077c6.092 0 11.077 4.985 11.077 11.077s-4.985 11.077-11.077 11.077v0zM12 17.077c-0.277 0-0.462 0.185-0.462 0.462v0.923c0 0.277 0.185 0.462 0.462 0.462s0.462-0.185 0.462-0.462v-0.923c0-0.277-0.185-0.462-0.462-0.462v0zM12.046 4.154h-0.046c-0.969 0-1.892 0.369-2.585 1.062-0.738 0.692-1.108 1.615-1.108 2.631 0 0.277 0.185 0.462 0.462 0.462s0.462-0.185 0.462-0.462c0-0.738 0.277-1.431 0.831-1.985 0.554-0.508 1.246-0.831 1.985-0.785 1.477 0 2.723 1.292 2.723 2.723 0 0.969-0.462 1.846-1.292 2.354-1.246 0.785-1.938 2.169-1.938 3.738v1.338c0 0.277 0.185 0.462 0.462 0.462s0.462-0.185 0.462-0.462v-1.292c0-1.2 0.6-2.354 1.523-2.954 1.062-0.692 1.708-1.892 1.708-3.138-0.046-2.031-1.662-3.646-3.646-3.692h-0.003z"></path>
</svg>
