<?xml version="1.0" encoding="utf-8"?>
<!-- Generated by IcoMoon.io -->
<!DOCTYPE svg PUBLIC "-//W3C//DTD SVG 1.1//EN" "http://www.w3.org/Graphics/SVG/1.1/DTD/svg11.dtd">
<svg version="1.1" xmlns="http://www.w3.org/2000/svg" xmlns:xlink="http://www.w3.org/1999/xlink" width="24" height="24" viewBox="0 0 24 24">
<path fill="rgb(255, 64, 129)" d="M18.742 8.062c-0.158-0.089-0.353-0.083-0.507 0.014l-3.235 2.022v-2.598c0-0.276-0.224-0.5-0.5-0.5h-9c-0.276 0-0.5 0.224-0.5 0.5v9c0 0.276 0.224 0.5 0.5 0.5h9c0.276 0 0.5-0.224 0.5-0.5v-2.598l3.235 2.021c0.154 0.097 0.349 0.102 0.507 0.014 0.159-0.087 0.258-0.255 0.258-0.437v-7c0-0.182-0.099-0.35-0.258-0.438v0zM18 14.598l-3.235-2.021c-0.155-0.098-0.35-0.103-0.507-0.014-0.159 0.087-0.258 0.255-0.258 0.437v3h-8v-8h8v3c0 0.182 0.099 0.35 0.258 0.438 0.158 0.088 0.353 0.083 0.507-0.014l3.235-2.022v5.196zM12 0c-6.617 0-12 5.383-12 12s5.383 12 12 12c6.617 0 12-5.383 12-12s-5.383-12-12-12v0zM12 23c-6.065 0-11-4.935-11-11s4.935-11 11-11c6.065 0 11 4.935 11 11s-4.935 11-11 11v0z"></path>
</svg>
