<?xml version="1.0" encoding="utf-8"?>
<!-- Generated by IcoMoon.io -->
<!DOCTYPE svg PUBLIC "-//W3C//DTD SVG 1.1//EN" "http://www.w3.org/Graphics/SVG/1.1/DTD/svg11.dtd">
<svg version="1.1" xmlns="http://www.w3.org/2000/svg" xmlns:xlink="http://www.w3.org/1999/xlink" width="24" height="24" viewBox="0 0 24 24">
<path fill="rgb(255, 64, 129)" d="M12 0c-6.617 0-12 5.383-12 12s5.383 12 12 12c6.617 0 12-5.383 12-12s-5.383-12-12-12v0zM12 22.957c-6.042 0-10.957-4.915-10.957-10.957s4.915-10.957 10.957-10.957c6.042 0 10.957 4.915 10.957 10.957s-4.915 10.957-10.957 10.957v0zM15.13 18.783h-2.609v-8.87c0-0.288-0.234-0.522-0.522-0.522h-2.087c-0.288 0-0.522 0.234-0.522 0.522s0.234 0.522 0.522 0.522h1.565v8.348h-2.609c-0.288 0-0.522 0.234-0.522 0.522s0.234 0.522 0.522 0.522h6.261c0.288 0 0.522-0.234 0.522-0.522s-0.234-0.522-0.522-0.522v0zM12.522 5.739c0 0.576-0.467 1.043-1.043 1.043s-1.043-0.467-1.043-1.043c0-0.576 0.467-1.043 1.043-1.043s1.043 0.467 1.043 1.043v0z"></path>
</svg>
