<?xml version="1.0" encoding="utf-8"?>
<!-- Generated by IcoMoon.io -->
<!DOCTYPE svg PUBLIC "-//W3C//DTD SVG 1.1//EN" "http://www.w3.org/Graphics/SVG/1.1/DTD/svg11.dtd">
<svg version="1.1" xmlns="http://www.w3.org/2000/svg" xmlns:xlink="http://www.w3.org/1999/xlink" width="24" height="24" viewBox="0 0 24 24">
<path fill="rgb(255, 64, 129)" d="M12 0c-6.617 0-12 5.383-12 12s5.383 12 12 12c6.616 0 12-5.384 12-12s-5.384-12-12-12v0zM12.294 18.404c-0.088 0.064-0.192 0.096-0.294 0.096-0.104 0-0.207-0.032-0.295-0.096-0.232-0.169-5.705-4.186-5.705-7.367 0-2.214 1.639-3.537 3.223-3.537 0.951 0 2.070 0.492 2.777 1.784 0.705-1.292 1.825-1.784 2.776-1.784 1.585 0 3.224 1.323 3.224 3.537 0 3.181-5.474 7.198-5.706 7.367v0z"></path>
</svg>
