<?xml version="1.0" encoding="utf-8"?>
<!-- Generated by IcoMoon.io -->
<!DOCTYPE svg PUBLIC "-//W3C//DTD SVG 1.1//EN" "http://www.w3.org/Graphics/SVG/1.1/DTD/svg11.dtd">
<svg version="1.1" xmlns="http://www.w3.org/2000/svg" xmlns:xlink="http://www.w3.org/1999/xlink" width="24" height="24" viewBox="0 0 24 24">
<path fill="rgb(255, 64, 129)" d="M12 9c-1.654 0-3 1.346-3 3s1.346 3 3 3c1.654 0 3-1.346 3-3s-1.346-3-3-3v0zM12 14c-1.103 0-2-0.897-2-2s0.897-2 2-2c1.103 0 2 0.897 2 2s-0.897 2-2 2v0zM18 8h-2.293l-1.854-1.854c-0.093-0.093-0.22-0.146-0.353-0.146h-3c-0.133 0-0.26 0.053-0.354 0.146l-1.853 1.854h-2.293c-1.103 0-2 0.897-2 2v5c0 1.103 0.897 2 2 2h12c1.103 0 2-0.897 2-2v-5c0-1.103-0.897-2-2-2v0zM19 15c0 0.551-0.449 1-1 1h-12c-0.551 0-1-0.449-1-1v-5c0-0.551 0.449-1 1-1h2.5c0.065 0 0.13-0.013 0.191-0.039 0.062-0.025 0.117-0.062 0.163-0.108l1.853-1.853h2.586l1.853 1.853c0.046 0.046 0.102 0.083 0.163 0.108s0.126 0.039 0.191 0.039h2.5c0.551 0 1 0.449 1 1v5zM18 10c0 0.276-0.224 0.5-0.5 0.5s-0.5-0.224-0.5-0.5c0-0.276 0.224-0.5 0.5-0.5s0.5 0.224 0.5 0.5v0zM12 0c-6.617 0-12 5.383-12 12s5.383 12 12 12c6.617 0 12-5.383 12-12s-5.383-12-12-12v0zM12 23c-6.065 0-11-4.935-11-11s4.935-11 11-11c6.065 0 11 4.935 11 11s-4.935 11-11 11v0z"></path>
</svg>
