<?xml version="1.0" encoding="utf-8"?>
<!-- Generated by IcoMoon.io -->
<!DOCTYPE svg PUBLIC "-//W3C//DTD SVG 1.1//EN" "http://www.w3.org/Graphics/SVG/1.1/DTD/svg11.dtd">
<svg version="1.1" xmlns="http://www.w3.org/2000/svg" xmlns:xlink="http://www.w3.org/1999/xlink" width="24" height="24" viewBox="0 0 24 24">
<path fill="rgb(255, 64, 129)" d="M12 0c-6.617 0-12 5.383-12 12s5.383 12 12 12c6.617 0 12-5.383 12-12s-5.383-12-12-12v0zM7 11.986c0.276 0 0.5 0.224 0.5 0.5 0 0.277-0.224 0.5-0.5 0.5h-2v1.5c0 0.277-0.224 0.5-0.5 0.5s-0.5-0.223-0.5-0.5v-4c0-0.276 0.224-0.5 0.5-0.5h2.5c0.276 0 0.5 0.224 0.5 0.5 0 0.277-0.224 0.5-0.5 0.5h-2v1h2zM12 12.486c0 0.277-0.224 0.5-0.5 0.5h-0.619l1 1.176c0.179 0.21 0.153 0.526-0.057 0.705-0.095 0.080-0.209 0.119-0.324 0.119-0.142 0-0.282-0.059-0.381-0.176l-1.551-1.824h-0.568v1.5c0 0.277-0.224 0.5-0.5 0.5s-0.5-0.223-0.5-0.5v-4c0-0.276 0.224-0.5 0.5-0.5h3c0.276 0 0.5 0.224 0.5 0.5v2zM16 11.986c0.276 0 0.5 0.224 0.5 0.5 0 0.277-0.224 0.5-0.5 0.5h-2v1h2c0.276 0 0.5 0.224 0.5 0.5 0 0.277-0.224 0.5-0.5 0.5h-2.5c-0.276 0-0.5-0.223-0.5-0.5v-4c0-0.276 0.224-0.5 0.5-0.5h2.5c0.276 0 0.5 0.224 0.5 0.5 0 0.277-0.224 0.5-0.5 0.5h-2v1h2zM20 13.986c0.276 0 0.5 0.224 0.5 0.5 0 0.277-0.224 0.5-0.5 0.5h-2.5c-0.276 0-0.5-0.223-0.5-0.5v-4c0-0.276 0.224-0.5 0.5-0.5h2.5c0.276 0 0.5 0.224 0.5 0.5 0 0.277-0.224 0.5-0.5 0.5h-2v1h2c0.276 0 0.5 0.224 0.5 0.5 0 0.277-0.224 0.5-0.5 0.5h-2v1h2zM9 10.986h2v1h-2v-1z"></path>
</svg>
