<?xml version="1.0" encoding="utf-8"?>
<!-- Generated by IcoMoon.io -->
<!DOCTYPE svg PUBLIC "-//W3C//DTD SVG 1.1//EN" "http://www.w3.org/Graphics/SVG/1.1/DTD/svg11.dtd">
<svg version="1.1" xmlns="http://www.w3.org/2000/svg" xmlns:xlink="http://www.w3.org/1999/xlink" width="24" height="24" viewBox="0 0 24 24">
<path fill="rgb(255, 64, 129)" d="M12 0c-6.618 0-12 5.382-12 12s5.382 12 12 12c6.617 0 12-5.382 12-12s-5.383-12-12-12v0zM11.478 5.217c0.575 0 1.043 0.467 1.043 1.043 0 0.577-0.469 1.043-1.043 1.043-0.577 0-1.043-0.466-1.043-1.043 0-0.576 0.466-1.043 1.043-1.043v0zM15.13 19.826h-6.261c-0.288 0-0.522-0.234-0.522-0.522s0.234-0.522 0.522-0.522h2.608v-8.348h-1.564c-0.288 0-0.522-0.234-0.522-0.522s0.234-0.522 0.522-0.522h2.087c0.287 0 0.522 0.234 0.521 0.522v8.87h2.61c0.287 0 0.522 0.234 0.522 0.522s-0.235 0.522-0.522 0.522v0z"></path>
</svg>
