<?xml version="1.0" encoding="utf-8"?>
<!-- Generated by IcoMoon.io -->
<!DOCTYPE svg PUBLIC "-//W3C//DTD SVG 1.1//EN" "http://www.w3.org/Graphics/SVG/1.1/DTD/svg11.dtd">
<svg version="1.1" xmlns="http://www.w3.org/2000/svg" xmlns:xlink="http://www.w3.org/1999/xlink" width="24" height="24" viewBox="0 0 24 24">
<path fill="rgb(255, 64, 129)" d="M12 0c-6.6 0-12 5.4-12 12s5.4 12 12 12c6.6 0 12-5.4 12-12s-5.4-12-12-12v0zM18.24 12.32l-8.8 6c-0.080 0.040-0.16 0.080-0.24 0.080s-0.12 0-0.2-0.040c-0.12-0.080-0.2-0.2-0.2-0.36v-12c0-0.16 0.080-0.28 0.2-0.36s0.28-0.080 0.4 0.040l8.8 6c0.12 0.080 0.16 0.2 0.16 0.32s-0.040 0.24-0.12 0.32v0z"></path>
</svg>
