<?xml version="1.0" encoding="utf-8"?>
<!-- Generated by IcoMoon.io -->
<!DOCTYPE svg PUBLIC "-//W3C//DTD SVG 1.1//EN" "http://www.w3.org/Graphics/SVG/1.1/DTD/svg11.dtd">
<svg version="1.1" xmlns="http://www.w3.org/2000/svg" xmlns:xlink="http://www.w3.org/1999/xlink" width="24" height="24" viewBox="0 0 24 24">
<path fill="rgb(255, 64, 129)" d="M19 9h-4.675l-1.868-4.203c-0.16-0.361-0.754-0.361-0.914 0l-1.868 4.203h-4.675c-0.202 0-0.385 0.122-0.462 0.309s-0.034 0.401 0.108 0.545l3.795 3.795-1.424 5.22c-0.057 0.208 0.026 0.428 0.205 0.547 0.178 0.119 0.414 0.112 0.584-0.021l4.194-3.262 4.193 3.261c0.090 0.070 0.198 0.105 0.307 0.105 0.097 0 0.193-0.028 0.277-0.084 0.179-0.119 0.262-0.34 0.205-0.547l-1.424-5.22 3.795-3.795c0.143-0.143 0.186-0.358 0.108-0.545s-0.259-0.308-0.461-0.308v0 0zM12 0c-6.617 0-12 5.383-12 12s5.383 12 12 12c6.617 0 12-5.383 12-12s-5.383-12-12-12v0zM12 23c-6.065 0-11-4.935-11-11s4.935-11 11-11c6.065 0 11 4.935 11 11s-4.935 11-11 11v0 0z"></path>
</svg>
