<?xml version="1.0" encoding="utf-8"?>
<!-- Generated by IcoMoon.io -->
<!DOCTYPE svg PUBLIC "-//W3C//DTD SVG 1.1//EN" "http://www.w3.org/Graphics/SVG/1.1/DTD/svg11.dtd">
<svg version="1.1" xmlns="http://www.w3.org/2000/svg" xmlns:xlink="http://www.w3.org/1999/xlink" width="24" height="24" viewBox="0 0 24 24">
<path fill="rgb(255, 64, 129)" d="M12 0c-6.617 0-12 5.383-12 12s5.383 12 12 12c6.617 0 12-5.383 12-12s-5.383-12-12-12v0zM12 23c-6.065 0-11-4.935-11-11s4.935-11 11-11c6.065 0 11 4.935 11 11s-4.935 11-11 11v0zM14.777 7.5c-0.951 0-2.071 0.492-2.777 1.785-0.706-1.293-1.826-1.785-2.777-1.785-1.584 0-3.223 1.323-3.223 3.537 0 3.181 5.473 7.198 5.706 7.367 0.088 0.064 0.19 0.096 0.294 0.096s0.206-0.032 0.294-0.096c0.233-0.169 5.706-4.186 5.706-7.367 0-2.214-1.639-3.537-3.223-3.537v0zM12 17.376c-1.63-1.246-5-4.252-5-6.339 0-1.588 1.13-2.537 2.223-2.537 1.087 0 1.943 0.865 2.291 2.313 0.109 0.45 0.863 0.45 0.973 0 0.347-1.448 1.203-2.313 2.29-2.313 1.093 0 2.223 0.949 2.223 2.537 0 2.084-3.37 5.092-5 6.339v0z"></path>
</svg>
