<?xml version="1.0" encoding="utf-8"?>
<!-- Generated by IcoMoon.io -->
<!DOCTYPE svg PUBLIC "-//W3C//DTD SVG 1.1//EN" "http://www.w3.org/Graphics/SVG/1.1/DTD/svg11.dtd">
<svg version="1.1" xmlns="http://www.w3.org/2000/svg" xmlns:xlink="http://www.w3.org/1999/xlink" width="24" height="24" viewBox="0 0 24 24">
<path fill="rgb(255, 64, 129)" d="M12 0c-6.617 0-12 5.385-12 12 0 6.617 5.383 12 12 12s12-5.383 12-12c0-6.615-5.384-12-12-12v0zM8 13.5c0 0.216-0.139 0.407-0.342 0.475-0.052 0.017-0.105 0.025-0.158 0.025-0.154 0-0.305-0.071-0.4-0.2l-2.1-2.8v2.5c0 0.276-0.225 0.5-0.5 0.5-0.276 0-0.5-0.224-0.5-0.5v-4c0-0.215 0.137-0.406 0.342-0.474 0.204-0.069 0.429 0.002 0.557 0.174l2.101 2.8v-2.5c0-0.276 0.224-0.5 0.5-0.5 0.275 0 0.5 0.224 0.5 0.5v4zM12 14h-2.5c-0.276 0-0.5-0.224-0.5-0.5v-4c0-0.276 0.224-0.5 0.5-0.5h2.41c0.275 0 0.5 0.224 0.5 0.5s-0.225 0.5-0.5 0.5h-1.91v1h1.5c0.275 0 0.5 0.224 0.5 0.5s-0.225 0.5-0.5 0.5h-1.5v1h2c0.275 0 0.5 0.224 0.5 0.5s-0.225 0.5-0.5 0.5v0zM19.968 9.677l-1.5 4c-0.073 0.194-0.26 0.323-0.468 0.323s-0.396-0.129-0.469-0.323l-1.031-2.753-1.032 2.752c-0.074 0.195-0.26 0.324-0.468 0.324s-0.396-0.129-0.469-0.323l-1.5-4c-0.097-0.26 0.034-0.548 0.293-0.645 0.259-0.096 0.547 0.034 0.644 0.292l1.032 2.752 1.031-2.752c0.073-0.194 0.26-0.324 0.469-0.324 0.208 0 0.395 0.13 0.468 0.324l1.032 2.752 1.031-2.752c0.098-0.258 0.385-0.388 0.645-0.292 0.258 0.097 0.389 0.385 0.292 0.645v0z"></path>
</svg>
