<?xml version="1.0" encoding="utf-8"?>
<!-- Generated by IcoMoon.io -->
<!DOCTYPE svg PUBLIC "-//W3C//DTD SVG 1.1//EN" "http://www.w3.org/Graphics/SVG/1.1/DTD/svg11.dtd">
<svg version="1.1" xmlns="http://www.w3.org/2000/svg" xmlns:xlink="http://www.w3.org/1999/xlink" width="24" height="24" viewBox="0 0 24 24">
<path fill="rgb(255, 64, 129)" d="M12 0c-6.6 0-12 5.4-12 12s5.4 12 12 12c6.6 0 12-5.4 12-12s-5.4-12-12-12v0zM12 23.077c-6.092 0-11.077-4.985-11.077-11.077s4.985-11.077 11.077-11.077c6.092 0 11.077 4.985 11.077 11.077s-4.985 11.077-11.077 11.077v0zM16.477 7.523c-0.185-0.185-0.462-0.185-0.646 0l-3.831 3.831-3.831-3.831c-0.185-0.185-0.462-0.185-0.646 0s-0.185 0.462 0 0.646l3.831 3.831-3.831 3.831c-0.185 0.185-0.185 0.462 0 0.646 0.092 0.092 0.231 0.138 0.323 0.138s0.231-0.046 0.323-0.138l3.831-3.831 3.831 3.831c0.092 0.092 0.231 0.138 0.323 0.138s0.231-0.046 0.323-0.138c0.185-0.185 0.185-0.462 0-0.646l-3.831-3.831 3.831-3.831c0.185-0.185 0.185-0.462 0-0.646v0z"></path>
</svg>
