<?xml version="1.0" encoding="utf-8"?>
<!-- Generated by IcoMoon.io -->
<!DOCTYPE svg PUBLIC "-//W3C//DTD SVG 1.1//EN" "http://www.w3.org/Graphics/SVG/1.1/DTD/svg11.dtd">
<svg version="1.1" xmlns="http://www.w3.org/2000/svg" xmlns:xlink="http://www.w3.org/1999/xlink" width="24" height="24" viewBox="0 0 24 24">
<path fill="rgb(255, 64, 129)" d="M12 0c-6.617 0-12 5.383-12 12s5.383 12 12 12c6.617 0 12-5.383 12-12s-5.383-12-12-12v0zM12 23c-6.065 0-11-4.935-11-11s4.935-11 11-11c6.065 0 11 4.935 11 11s-4.935 11-11 11v0zM8.5 9c-0.276 0-0.5 0.224-0.5 0.5v1.5h-2v-1.5c0-0.276-0.224-0.5-0.5-0.5s-0.5 0.224-0.5 0.5v5c0 0.276 0.224 0.5 0.5 0.5s0.5-0.224 0.5-0.5v-2.5h2v2.5c0 0.276 0.224 0.5 0.5 0.5s0.5-0.224 0.5-0.5v-5c0-0.276-0.224-0.5-0.5-0.5v0zM19.5 9h-4c-0.276 0-0.5 0.224-0.5 0.5s0.224 0.5 0.5 0.5h1.5v4.5c0 0.276 0.224 0.5 0.5 0.5s0.5-0.224 0.5-0.5v-4.5h1.5c0.276 0 0.5-0.224 0.5-0.5s-0.224-0.5-0.5-0.5v0zM13.5 9h-3c-0.276 0-0.5 0.224-0.5 0.5v5c0 0.276 0.224 0.5 0.5 0.5h3c0.276 0 0.5-0.224 0.5-0.5v-5c0-0.276-0.224-0.5-0.5-0.5v0zM13 14h-2v-4h2v4z"></path>
</svg>
