<?xml version="1.0" encoding="utf-8"?>
<!-- Generated by IcoMoon.io -->
<!DOCTYPE svg PUBLIC "-//W3C//DTD SVG 1.1//EN" "http://www.w3.org/Graphics/SVG/1.1/DTD/svg11.dtd">
<svg version="1.1" xmlns="http://www.w3.org/2000/svg" xmlns:xlink="http://www.w3.org/1999/xlink" width="24" height="24" viewBox="0 0 24 24">
<path fill="rgb(255, 64, 129)" d="M12 0c-6.617 0-12 5.383-12 12s5.383 12 12 12c6.616 0 12-5.383 12-12s-5.384-12-12-12v0zM19.329 9.876l-3.765 3.294 1.418 5.198c0.057 0.208-0.026 0.428-0.205 0.548-0.085 0.056-0.181 0.084-0.277 0.084-0.109 0-0.218-0.036-0.308-0.105l-4.192-3.261-4.193 3.261c-0.17 0.132-0.405 0.141-0.584 0.021-0.18-0.12-0.262-0.34-0.205-0.548l1.417-5.198-3.765-3.294c-0.156-0.137-0.211-0.357-0.139-0.552 0.075-0.195 0.26-0.324 0.469-0.324h4.661l1.874-4.686c0.076-0.19 0.26-0.314 0.465-0.314 0.204 0 0.388 0.124 0.464 0.314l1.874 4.686h4.662c0.208 0 0.395 0.129 0.468 0.324s0.017 0.415-0.139 0.552v0z"></path>
</svg>
