<?xml version="1.0" encoding="utf-8"?>
<!-- Generated by IcoMoon.io -->
<!DOCTYPE svg PUBLIC "-//W3C//DTD SVG 1.1//EN" "http://www.w3.org/Graphics/SVG/1.1/DTD/svg11.dtd">
<svg version="1.1" xmlns="http://www.w3.org/2000/svg" xmlns:xlink="http://www.w3.org/1999/xlink" width="24" height="24" viewBox="0 0 24 24">
<path fill="rgb(255, 64, 129)" d="M12 0c-6.6 0-12 5.4-12 12s5.4 12 12 12c6.6 0 12-5.4 12-12s-5.4-12-12-12v0zM12 23.077c-6.092 0-11.077-4.985-11.077-11.077s4.985-11.077 11.077-11.077c6.092 0 11.077 4.985 11.077 11.077s-4.985 11.077-11.077 11.077v0zM12 4.615c-0.277 0-0.462 0.185-0.462 0.462v10.154c0 0.277 0.185 0.462 0.462 0.462s0.462-0.185 0.462-0.462v-10.154c0-0.277-0.185-0.462-0.462-0.462v0zM12 17.077c-0.277 0-0.462 0.185-0.462 0.462v0.923c0 0.277 0.185 0.462 0.462 0.462s0.462-0.185 0.462-0.462v-0.923c0-0.277-0.185-0.462-0.462-0.462v0z"></path>
</svg>
