<?xml version="1.0" encoding="utf-8"?>
<!-- Generated by IcoMoon.io -->
<!DOCTYPE svg PUBLIC "-//W3C//DTD SVG 1.1//EN" "http://www.w3.org/Graphics/SVG/1.1/DTD/svg11.dtd">
<svg version="1.1" xmlns="http://www.w3.org/2000/svg" xmlns:xlink="http://www.w3.org/1999/xlink" width="24" height="24" viewBox="0 0 24 24">
<path fill="rgb(255, 64, 129)" d="M12 0c-6.6 0-12 5.4-12 12s5.4 12 12 12c6.6 0 12-5.4 12-12s-5.4-12-12-12v0zM12.923 18.923c0 0.508-0.415 0.923-0.923 0.923s-0.923-0.415-0.923-0.923v-0.923c0-0.508 0.415-0.923 0.923-0.923s0.923 0.415 0.923 0.923v0.923zM14.262 11.354c-0.831 0.508-1.338 1.523-1.338 2.585v1.292c0 0.508-0.415 0.923-0.923 0.923s-0.923-0.415-0.923-0.923v-1.292c0-1.708 0.831-3.277 2.169-4.154 0.692-0.415 1.062-1.154 1.062-1.985 0-1.2-1.062-2.262-2.262-2.262-0.646-0.046-1.2 0.231-1.662 0.646s-0.692 1.015-0.692 1.662c0 0.508-0.415 0.923-0.923 0.923s-0.923-0.415-0.923-0.923c0-1.108 0.462-2.169 1.246-2.954s1.8-1.2 2.908-1.2h0.046c2.215 0.046 4.062 1.846 4.108 4.108 0 1.431-0.692 2.769-1.892 3.554h-0.001z"></path>
</svg>
