<?xml version="1.0" encoding="utf-8"?>
<!-- Generated by IcoMoon.io -->
<!DOCTYPE svg PUBLIC "-//W3C//DTD SVG 1.1//EN" "http://www.w3.org/Graphics/SVG/1.1/DTD/svg11.dtd">
<svg version="1.1" xmlns="http://www.w3.org/2000/svg" xmlns:xlink="http://www.w3.org/1999/xlink" width="24" height="24" viewBox="0 0 24 24">
<path fill="rgb(255, 64, 129)" d="M12 0c-6.617 0-12 5.383-12 12s5.383 12 12 12c6.617 0 12-5.383 12-12s-5.383-12-12-12v0zM12 23c-6.065 0-11-4.935-11-11s4.935-11 11-11c6.065 0 11 4.935 11 11s-4.935 11-11 11v0zM17.089 9h-3.764l3.25-5.236c0.096-0.154 0.101-0.348 0.012-0.507s-0.255-0.257-0.437-0.257h-4.54c-0.183 0-0.352 0.1-0.439 0.261l-4.889 9c-0.084 0.155-0.081 0.343 0.010 0.494 0.090 0.152 0.253 0.245 0.43 0.245h2.982l-2.86 7.012c-0.092 0.225-0.009 0.482 0.196 0.611 0.082 0.052 0.175 0.078 0.267 0.078 0.136 0 0.271-0.056 0.369-0.163l9.782-10.701c0.134-0.146 0.168-0.358 0.088-0.539s-0.259-0.298-0.457-0.298v0zM8.827 17.797l2.083-5.108c0.063-0.154 0.045-0.33-0.048-0.468s-0.248-0.221-0.415-0.221h-2.885l4.345-8h3.344l-3.25 5.236c-0.096 0.154-0.101 0.348-0.012 0.507s0.255 0.257 0.437 0.257h3.529l-7.128 7.797z"></path>
</svg>
