<?xml version="1.0" encoding="utf-8"?>
<!-- Generated by IcoMoon.io -->
<!DOCTYPE svg PUBLIC "-//W3C//DTD SVG 1.1//EN" "http://www.w3.org/Graphics/SVG/1.1/DTD/svg11.dtd">
<svg version="1.1" xmlns="http://www.w3.org/2000/svg" xmlns:xlink="http://www.w3.org/1999/xlink" width="24" height="24" viewBox="0 0 24 24">
<path fill="rgb(255, 64, 129)" d="M12 0c-6.617 0-12 5.384-12 12s5.383 12 12 12c6.617 0 12-5.383 12-12s-5.383-12-12-12v0zM19 15c0 0.552-0.449 1-1 1h-12c-0.551 0-1-0.448-1-1v-5c0-0.551 0.449-1 1-1h2.5c0.132 0 0.26-0.053 0.354-0.146l1.853-1.854h2.586l1.854 1.854c0.093 0.093 0.221 0.146 0.353 0.146h2.5c0.551 0 1 0.449 1 1v5zM12 9c-1.654 0-3 1.346-3 3s1.346 3 3 3c1.654 0 3-1.346 3-3s-1.346-3-3-3v0zM12 14c-1.103 0-2-0.896-2-2 0-1.102 0.897-2 2-2s2 0.898 2 2c0 1.104-0.897 2-2 2v0zM18 10c0 0.276-0.224 0.5-0.5 0.5s-0.5-0.224-0.5-0.5c0-0.276 0.224-0.5 0.5-0.5s0.5 0.224 0.5 0.5v0z"></path>
</svg>
