<?xml version="1.0" encoding="utf-8"?>
<!-- Generated by IcoMoon.io -->
<!DOCTYPE svg PUBLIC "-//W3C//DTD SVG 1.1//EN" "http://www.w3.org/Graphics/SVG/1.1/DTD/svg11.dtd">
<svg version="1.1" xmlns="http://www.w3.org/2000/svg" xmlns:xlink="http://www.w3.org/1999/xlink" width="24" height="24" viewBox="0 0 24 24">
<path fill="rgb(255, 64, 129)" d="M12 0c-6.6 0-12 5.4-12 12s5.4 12 12 12c6.6 0 12-5.4 12-12s-5.4-12-12-12v0zM12 23.077c-6.092 0-11.077-4.985-11.077-11.077s4.985-11.077 11.077-11.077c6.092 0 11.077 4.985 11.077 11.077s-4.985 11.077-11.077 11.077v0zM17.677 7.062l-7.108 7.985-4.292-3.415c-0.185-0.138-0.508-0.138-0.646 0.092-0.138 0.185-0.138 0.508 0.092 0.646l4.615 3.692c0.092 0.046 0.185 0.092 0.277 0.092 0.138 0 0.277-0.046 0.323-0.138l7.385-8.308c0.185-0.185 0.138-0.462-0.046-0.646-0.138-0.185-0.462-0.185-0.6 0v0z"></path>
</svg>
