<?xml version="1.0" encoding="utf-8"?>
<!-- Generated by IcoMoon.io -->
<!DOCTYPE svg PUBLIC "-//W3C//DTD SVG 1.1//EN" "http://www.w3.org/Graphics/SVG/1.1/DTD/svg11.dtd">
<svg version="1.1" xmlns="http://www.w3.org/2000/svg" xmlns:xlink="http://www.w3.org/1999/xlink" width="24" height="24" viewBox="0 0 24 24">
<path fill="rgb(255, 64, 129)" d="M19.584 8.141c-0.23-3.456-3.072-6.221-6.49-6.221-2.074 0-4.109 1.037-5.338 2.688-0.038 0-0.077-0.038-0.077-0.038l-0.23-0.115-0.461-0.154c-0.077-0.038-0.192-0.038-0.269-0.038h-0.115c-0.192-0.038-0.346-0.038-0.461-0.038-1.92 0-3.456 1.536-3.456 3.456v0.154c-1.613 0.883-2.688 2.688-2.688 4.531 0 2.688 2.227 4.915 4.915 4.915h1.997c0.23 0 0.384-0.154 0.384-0.384s-0.154-0.384-0.384-0.384h-1.997c-2.266 0-4.147-1.882-4.147-4.147 0-1.613 1.037-3.264 2.458-3.955l0.23-0.115v-0.653c0-1.498 1.19-2.688 2.688-2.688 0.115 0 0.23 0 0.346 0.038h0.077c0.115 0 0.192 0.038 0.307 0.077h0.038c0.115 0.038 0.23 0.077 0.307 0.115l0.077 0.038c0.077 0.038 0.192 0.077 0.269 0.154 0.73 0.461 1.229 1.306 1.229 2.266 0 0.23 0.154 0.384 0.384 0.384s0.384-0.154 0.384-0.384c0-1.075-0.461-1.997-1.229-2.65 1.152-1.382 2.957-2.304 4.762-2.304 2.957 0 5.453 2.342 5.683 5.338-0.384-0.038-0.998-0.038-1.574 0.038-0.192 0.038-0.346 0.23-0.307 0.422s0.192 0.307 0.384 0.307h0.077c0.845-0.115 1.728 0 1.805 0 1.805 0.346 3.149 1.997 3.149 3.84 0 2.112-1.728 3.84-3.84 3.84h-1.536c-0.23 0-0.384 0.154-0.384 0.384s0.154 0.384 0.384 0.384h1.536c2.534 0 4.608-2.074 4.608-4.608-0.038-2.074-1.498-3.955-3.494-4.493v0zM14.707 17.779l-2.419 2.419v-7.91c0-0.23-0.154-0.384-0.384-0.384s-0.384 0.154-0.384 0.384v7.91l-2.419-2.419c-0.154-0.154-0.384-0.154-0.538 0s-0.154 0.384 0 0.538l3.072 3.072c0.038 0.038 0.077 0.077 0.115 0.077 0.038 0.038 0.115 0.038 0.154 0.038s0.115 0 0.154-0.038l0.115-0.077 3.072-3.072c0.154-0.154 0.154-0.384 0-0.538s-0.384-0.154-0.538 0v0z"></path>
</svg>
