<?xml version="1.0" encoding="utf-8"?>
<!-- Generated by IcoMoon.io -->
<!DOCTYPE svg PUBLIC "-//W3C//DTD SVG 1.1//EN" "http://www.w3.org/Graphics/SVG/1.1/DTD/svg11.dtd">
<svg version="1.1" xmlns="http://www.w3.org/2000/svg" xmlns:xlink="http://www.w3.org/1999/xlink" width="24" height="24" viewBox="0 0 24 24">
<path fill="rgb(255, 64, 129)" d="M0 16.5v1.911c0 1.151 0.897 2.089 2 2.089h9v1h-6c-0.276 0-0.5 0.224-0.5 0.5s0.224 0.5 0.5 0.5h14c0.276 0 0.5-0.224 0.5-0.5s-0.224-0.5-0.5-0.5h-7v-1h10c1.103 0 2-0.938 2-2.089v-1.911h-24zM12 19.5c-0.552 0-1-0.449-1-1s0.448-1 1-1c0.552 0 1 0.449 1 1s-0.448 1-1 1v0zM22 1.5h-20c-1.103 0-2 0.937-2 2.089v11.911h24v-11.911c0-1.152-0.897-2.089-2-2.089v0zM6.378 11.494c0 0.276-0.224 0.5-0.5 0.5s-0.5-0.224-0.5-0.5v-2h-1.391v2c0 0.276-0.224 0.5-0.5 0.5s-0.5-0.224-0.5-0.5v-5c0-0.276 0.224-0.5 0.5-0.5s0.5 0.224 0.5 0.5v2h1.391v-2c0-0.276 0.224-0.5 0.5-0.5s0.5 0.224 0.5 0.5v5zM10.491 6.994h-0.694v4.5c0 0.276-0.224 0.5-0.5 0.5s-0.5-0.224-0.5-0.5v-4.5h-0.697c-0.276 0-0.5-0.224-0.5-0.5s0.224-0.5 0.5-0.5h2.392c0.276 0 0.5 0.224 0.5 0.5-0.001 0.277-0.224 0.5-0.501 0.5v0zM16.355 11.494c0 0.276-0.224 0.5-0.5 0.5s-0.5-0.224-0.5-0.5v-3.284l-0.671 1.053c-0.092 0.144-0.251 0.231-0.422 0.231s-0.33-0.087-0.422-0.231l-0.67-1.052v3.283c0 0.276-0.224 0.5-0.5 0.5s-0.5-0.224-0.5-0.5v-5c0-0.223 0.146-0.418 0.36-0.48 0.209-0.063 0.441 0.023 0.562 0.211l1.17 1.838 1.171-1.838c0.119-0.188 0.351-0.274 0.561-0.211 0.214 0.062 0.36 0.257 0.36 0.48v5h0.001zM20.513 11.994h-2.391c-0.276 0-0.5-0.224-0.5-0.5v-5c0-0.276 0.224-0.5 0.5-0.5s0.5 0.224 0.5 0.5v4.5h1.891c0.276 0 0.5 0.224 0.5 0.5 0 0.277-0.224 0.5-0.5 0.5v0z"></path>
</svg>
