<?xml version="1.0" encoding="utf-8"?>
<!-- Generated by IcoMoon.io -->
<!DOCTYPE svg PUBLIC "-//W3C//DTD SVG 1.1//EN" "http://www.w3.org/Graphics/SVG/1.1/DTD/svg11.dtd">
<svg version="1.1" xmlns="http://www.w3.org/2000/svg" xmlns:xlink="http://www.w3.org/1999/xlink" width="24" height="24" viewBox="0 0 24 24">
<path fill="rgb(255, 64, 129)" d="M0 16.5v1.911c0 1.151 0.897 2.089 2 2.089h9v1h-6c-0.276 0-0.5 0.224-0.5 0.5s0.224 0.5 0.5 0.5h14c0.276 0 0.5-0.224 0.5-0.5s-0.224-0.5-0.5-0.5h-7v-1h10c1.103 0 2-0.938 2-2.089v-1.911h-24zM12 19.5c-0.552 0-1-0.449-1-1s0.448-1 1-1c0.552 0 1 0.449 1 1s-0.448 1-1 1v0zM22 1.5h-20c-1.103 0-2 0.937-2 2.089v11.911h24v-11.911c0-1.152-0.897-2.089-2-2.089v0zM7.536 11.201c0.304 0 0.642-0.065 0.808-0.846 0.059-0.27 0.328-0.443 0.594-0.384 0.269 0.058 0.442 0.323 0.385 0.593-0.289 1.354-1.131 1.637-1.786 1.637-1.91 0-1.91-2.207-1.91-3.15 0-0.942 0-3.15 1.91-3.15 0.655 0 1.498 0.285 1.786 1.64 0.057 0.269-0.116 0.534-0.385 0.592-0.266 0.056-0.537-0.114-0.594-0.385-0.166-0.781-0.504-0.848-0.808-0.848-0.461 0-0.91 0.166-0.91 2.15s0.449 2.151 0.91 2.151v0zM12.17 12.201c-0.918 0-1.682-0.752-1.738-1.711-0.017-0.275 0.193-0.513 0.47-0.528 0.277-0.007 0.513 0.193 0.528 0.469 0.025 0.433 0.351 0.77 0.74 0.77 0.409 0 0.741-0.37 0.741-0.824 0-0.51-0.322-0.698-0.806-0.826l-0.119-0.032c-1.286-0.333-1.556-1.159-1.556-1.792 0-1.007 0.781-1.826 1.741-1.826 0.918 0 1.682 0.752 1.738 1.712 0.017 0.275-0.193 0.513-0.47 0.528-0.272 0.016-0.512-0.193-0.528-0.469-0.024-0.433-0.35-0.772-0.739-0.772-0.409 0-0.741 0.37-0.741 0.826 0 0.51 0.323 0.699 0.808 0.824l0.121 0.033c1.282 0.336 1.552 1.16 1.552 1.793-0.001 1.007-0.782 1.825-1.742 1.825v0zM16.634 12.201c-0.918 0-1.682-0.752-1.738-1.711-0.017-0.275 0.193-0.513 0.47-0.528 0.269-0.007 0.512 0.193 0.528 0.469 0.025 0.433 0.351 0.77 0.74 0.77 0.409 0 0.741-0.37 0.741-0.824 0-0.51-0.322-0.698-0.806-0.826l-0.119-0.032c-1.286-0.333-1.556-1.159-1.556-1.792 0-1.007 0.781-1.826 1.741-1.826 0.918 0 1.682 0.752 1.738 1.712 0.017 0.275-0.193 0.513-0.47 0.528-0.269 0.016-0.512-0.193-0.528-0.469-0.024-0.433-0.35-0.772-0.739-0.772-0.409 0-0.741 0.37-0.741 0.826 0 0.51 0.323 0.699 0.808 0.824l0.121 0.033c1.282 0.336 1.552 1.16 1.552 1.793-0.001 1.007-0.782 1.825-1.742 1.825v0z"></path>
</svg>
