<?xml version="1.0" encoding="utf-8"?>
<!-- Generated by IcoMoon.io -->
<!DOCTYPE svg PUBLIC "-//W3C//DTD SVG 1.1//EN" "http://www.w3.org/Graphics/SVG/1.1/DTD/svg11.dtd">
<svg version="1.1" xmlns="http://www.w3.org/2000/svg" xmlns:xlink="http://www.w3.org/1999/xlink" width="24" height="24" viewBox="0 0 24 24">
<path fill="rgb(255, 64, 129)" d="M0 16.5v1.911c0 1.151 0.897 2.089 2 2.089h9v1h-6c-0.276 0-0.5 0.224-0.5 0.5s0.224 0.5 0.5 0.5h14c0.276 0 0.5-0.224 0.5-0.5s-0.224-0.5-0.5-0.5h-7v-1h10c1.103 0 2-0.938 2-2.089v-1.911h-24zM12 19.5c-0.552 0-1-0.449-1-1s0.448-1 1-1c0.552 0 1 0.449 1 1s-0.448 1-1 1v0zM15.267 10.182c-0.145 0-0.415 0-0.415 1.291 0 1.29 0.27 1.29 0.415 1.29s0.414 0 0.414-1.29c0-1.291-0.27-1.291-0.414-1.291v0zM8.315 10.182c-0.146 0-0.415 0-0.415 1.291 0 1.29 0.269 1.29 0.415 1.29s0.415 0 0.415-1.29c0.001-1.291-0.269-1.291-0.415-1.291v0zM4.84 5.263c-0.144 0-0.414 0-0.414 1.29 0 1.291 0.27 1.291 0.414 1.291 0.146 0 0.415 0 0.415-1.291 0-1.29-0.27-1.29-0.415-1.29v0zM22 1.5h-20c-1.103 0-2 0.937-2 2.089v11.911h24v-11.911c0-1.152-0.897-2.089-2-2.089v0zM14.712 4.837l0.419-0.398c0.144-0.138 0.358-0.176 0.542-0.097s0.303 0.26 0.303 0.459v3.504c0 0.276-0.224 0.5-0.5 0.5s-0.5-0.224-0.5-0.5v-2.612c-0.104-0.018-0.203-0.067-0.281-0.149-0.191-0.2-0.183-0.517 0.017-0.707v0zM7.761 4.837l0.419-0.399c0.144-0.138 0.358-0.176 0.542-0.097s0.303 0.26 0.303 0.459v3.504c0 0.276-0.224 0.5-0.5 0.5s-0.5-0.224-0.5-0.5v-2.611c-0.104-0.017-0.204-0.067-0.282-0.149-0.19-0.2-0.182-0.517 0.018-0.707v0zM5.551 13.226c0 0.276-0.224 0.5-0.5 0.5s-0.5-0.224-0.5-0.5v-2.612c-0.103-0.017-0.203-0.066-0.281-0.149-0.191-0.199-0.184-0.516 0.016-0.707l0.42-0.4c0.146-0.139 0.357-0.178 0.541-0.098 0.185 0.078 0.304 0.259 0.304 0.459v3.507zM4.84 8.844c-1.414 0-1.414-1.664-1.414-2.291 0-0.626 0-2.29 1.414-2.29s1.415 1.664 1.415 2.29c0 0.627 0 2.291-1.415 2.291v0zM8.315 13.763c-1.415 0-1.415-1.663-1.415-2.29 0-0.626 0-2.291 1.415-2.291s1.415 1.665 1.415 2.291c0.001 0.627 0.001 2.29-1.415 2.29v0zM12.5 13.226c0 0.276-0.224 0.5-0.5 0.5s-0.5-0.224-0.5-0.5v-2.612c-0.102-0.018-0.201-0.066-0.279-0.148-0.19-0.199-0.184-0.517 0.016-0.707l0.418-0.4c0.144-0.14 0.357-0.177 0.542-0.1 0.185 0.079 0.304 0.26 0.304 0.46v3.507h-0.001zM11.791 8.844c-1.415 0-1.415-1.664-1.415-2.291 0-0.626 0-2.29 1.415-2.29s1.415 1.664 1.415 2.29c0 0.627 0 2.291-1.415 2.291v0zM15.267 13.763c-1.415 0-1.415-1.663-1.415-2.29 0-0.626 0-2.291 1.415-2.291s1.414 1.665 1.414 2.291c0 0.627 0 2.29-1.414 2.29v0zM19.451 13.226c0 0.276-0.224 0.5-0.5 0.5s-0.5-0.224-0.5-0.5v-2.612c-0.104-0.017-0.203-0.066-0.281-0.149-0.191-0.199-0.184-0.516 0.016-0.707l0.42-0.4c0.147-0.139 0.357-0.178 0.542-0.098 0.185 0.078 0.304 0.259 0.304 0.459v3.507h-0.001zM19.451 8.305c0 0.276-0.224 0.5-0.5 0.5s-0.5-0.224-0.5-0.5v-2.612c-0.104-0.018-0.204-0.067-0.282-0.149-0.19-0.2-0.183-0.517 0.019-0.708l0.42-0.398c0.145-0.137 0.357-0.175 0.541-0.096 0.184 0.078 0.303 0.26 0.303 0.459v3.504h-0.001zM11.791 5.263c-0.146 0-0.415 0-0.415 1.29 0 1.291 0.269 1.291 0.415 1.291 0.145 0 0.415 0 0.415-1.291 0-1.29-0.27-1.29-0.415-1.29v0z"></path>
</svg>
