<?xml version="1.0" encoding="utf-8"?>
<!-- Generated by IcoMoon.io -->
<!DOCTYPE svg PUBLIC "-//W3C//DTD SVG 1.1//EN" "http://www.w3.org/Graphics/SVG/1.1/DTD/svg11.dtd">
<svg version="1.1" xmlns="http://www.w3.org/2000/svg" xmlns:xlink="http://www.w3.org/1999/xlink" width="24" height="24" viewBox="0 0 24 24">
<path fill="rgb(255, 64, 129)" d="M8.024 5.692v2.612c0 0.276 0.224 0.5 0.5 0.5s0.5-0.224 0.5-0.5v-3.503c0-0.2-0.119-0.381-0.303-0.46-0.183-0.077-0.397-0.040-0.541 0.097l-0.419 0.399c-0.2 0.19-0.208 0.507-0.018 0.707 0.078 0.082 0.178 0.132 0.281 0.148v0zM5.248 9.259c-0.185-0.076-0.397-0.039-0.542 0.097l-0.42 0.4c-0.2 0.191-0.208 0.508-0.018 0.707 0.079 0.082 0.179 0.132 0.282 0.148v2.613c0 0.276 0.224 0.5 0.5 0.5s0.5-0.224 0.5-0.5v-3.507c0.001-0.198-0.118-0.379-0.302-0.458v0zM18.451 5.692v2.612c0 0.276 0.224 0.5 0.5 0.5s0.5-0.224 0.5-0.5v-3.503c0-0.2-0.119-0.381-0.303-0.459-0.184-0.079-0.396-0.041-0.541 0.097l-0.42 0.398c-0.201 0.189-0.209 0.506-0.019 0.706 0.079 0.083 0.179 0.133 0.283 0.149v0zM18.451 10.612v2.613c0 0.276 0.224 0.5 0.5 0.5s0.5-0.224 0.5-0.5v-3.507c0-0.2-0.119-0.381-0.303-0.46-0.184-0.076-0.397-0.039-0.542 0.098l-0.42 0.4c-0.2 0.191-0.208 0.508-0.018 0.707 0.080 0.083 0.18 0.133 0.283 0.149v0zM14.976 5.692v2.612c0 0.276 0.224 0.5 0.5 0.5s0.5-0.224 0.5-0.5v-3.503c0-0.2-0.119-0.381-0.303-0.46-0.184-0.077-0.397-0.040-0.542 0.098l-0.419 0.398c-0.2 0.19-0.208 0.507-0.018 0.707 0.078 0.082 0.178 0.132 0.282 0.148v0zM12.196 9.259c-0.185-0.079-0.397-0.040-0.542 0.099l-0.418 0.4c-0.199 0.191-0.206 0.508-0.016 0.707 0.078 0.081 0.177 0.131 0.279 0.147v2.613c0 0.276 0.224 0.5 0.5 0.5s0.5-0.224 0.5-0.5v-3.507c0.001-0.199-0.118-0.38-0.303-0.459v0zM4.84 8.844c1.415 0 1.415-1.664 1.415-2.291 0-0.626 0-2.29-1.415-2.29s-1.414 1.664-1.414 2.29c0 0.627 0 2.291 1.414 2.291v0zM4.84 5.263c0.146 0 0.415 0 0.415 1.29 0 1.291-0.27 1.291-0.415 1.291s-0.414 0-0.414-1.291c0-1.29 0.269-1.29 0.414-1.29v0zM11.791 8.844c1.415 0 1.415-1.664 1.415-2.291 0-0.626 0-2.29-1.415-2.29s-1.415 1.664-1.415 2.29c0 0.627 0 2.291 1.415 2.291v0zM11.791 5.263c0.146 0 0.415 0 0.415 1.29 0 1.291-0.27 1.291-0.415 1.291s-0.415 0-0.415-1.291c0-1.29 0.27-1.29 0.415-1.29v0zM15.267 13.763c1.414 0 1.414-1.664 1.414-2.29s0-2.291-1.414-2.291c-1.415 0-1.415 1.664-1.415 2.291 0 0.626 0 2.29 1.415 2.29v0zM15.267 10.182c0.145 0 0.414 0 0.414 1.291 0 1.29-0.27 1.29-0.414 1.29-0.146 0-0.415 0-0.415-1.29 0-1.291 0.269-1.291 0.415-1.291v0zM8.315 13.763c1.415 0 1.415-1.664 1.415-2.29s0-2.291-1.415-2.291c-1.415 0-1.415 1.664-1.415 2.291 0 0.626 0 2.29 1.415 2.29v0zM8.315 10.182c0.146 0 0.415 0 0.415 1.291 0 1.29-0.27 1.29-0.415 1.29s-0.415 0-0.415-1.29c0-1.291 0.27-1.291 0.415-1.291v0zM22 1.5h-20c-1.103 0-2 0.938-2 2.089v14.822c0 1.151 0.897 2.089 2 2.089h9v1h-6c-0.276 0-0.5 0.224-0.5 0.5s0.224 0.5 0.5 0.5h14c0.276 0 0.5-0.224 0.5-0.5s-0.224-0.5-0.5-0.5h-7v-1h10c1.103 0 2-0.938 2-2.089v-14.822c0-1.151-0.897-2.089-2-2.089v0zM2 2.5h20c0.552 0 1 0.488 1 1.089v11.911h-22v-11.911c0-0.601 0.448-1.089 1-1.089v0zM22 19.5h-20c-0.552 0-1-0.488-1-1.089v-1.911h22v1.911c0 0.601-0.448 1.089-1 1.089v0zM13 18c0 0.552-0.448 1-1 1s-1-0.448-1-1c0-0.552 0.448-1 1-1s1 0.448 1 1v0z"></path>
</svg>
