<?xml version="1.0" encoding="utf-8"?>
<!-- Generated by IcoMoon.io -->
<!DOCTYPE svg PUBLIC "-//W3C//DTD SVG 1.1//EN" "http://www.w3.org/Graphics/SVG/1.1/DTD/svg11.dtd">
<svg version="1.1" xmlns="http://www.w3.org/2000/svg" xmlns:xlink="http://www.w3.org/1999/xlink" width="24" height="24" viewBox="0 0 24 24">
<path fill="rgb(255, 64, 129)" d="M22 1.5h-20c-1.103 0-2 0.938-2 2.089v14.822c0 1.151 0.897 2.089 2 2.089h9v1h-6c-0.276 0-0.5 0.224-0.5 0.5s0.224 0.5 0.5 0.5h14c0.276 0 0.5-0.224 0.5-0.5s-0.224-0.5-0.5-0.5h-7v-1h10c1.103 0 2-0.938 2-2.089v-14.822c0-1.151-0.897-2.089-2-2.089v0zM2 2.5h20c0.552 0 1 0.488 1 1.089v11.911h-22v-11.911c0-0.601 0.448-1.089 1-1.089v0zM22 19.5h-20c-0.552 0-1-0.488-1-1.089v-1.911h22v1.911c0 0.601-0.448 1.089-1 1.089v0zM13 18c0 0.552-0.448 1-1 1s-1-0.448-1-1c0-0.552 0.448-1 1-1s1 0.448 1 1v0zM7.536 12.201c0.655 0 1.497-0.284 1.786-1.636 0.058-0.271-0.115-0.536-0.385-0.594-0.266-0.050-0.535 0.114-0.594 0.385-0.166 0.779-0.504 0.845-0.808 0.845-0.461 0-0.91-0.166-0.91-2.15s0.45-2.151 0.911-2.151c0.304 0 0.642 0.065 0.808 0.848 0.058 0.271 0.328 0.437 0.594 0.385 0.269-0.058 0.442-0.323 0.384-0.594-0.288-1.354-1.131-1.639-1.786-1.639-1.91 0-1.91 2.208-1.91 3.15s0 3.151 1.91 3.151v0zM11.988 9.52l0.125-0.484-0.007 0.516c0.482 0.128 0.805 0.316 0.805 0.826 0 0.454-0.332 0.824-0.741 0.824-0.39 0-0.715-0.338-0.74-0.77-0.016-0.275-0.251-0.495-0.528-0.47-0.276 0.017-0.486 0.253-0.47 0.528 0.057 0.96 0.82 1.711 1.738 1.711 0.96 0 1.741-0.818 1.741-1.824 0-0.632-0.269-1.455-1.55-1.793-0.001 0-0.122-0.032-0.123-0.033-0.484-0.125-0.808-0.313-0.808-0.824 0-0.455 0.332-0.826 0.741-0.826 0.39 0 0.715 0.339 0.74 0.771 0.017 0.275 0.256 0.494 0.528 0.47 0.276-0.017 0.486-0.253 0.47-0.528-0.055-0.962-0.819-1.714-1.737-1.714-0.96 0-1.741 0.819-1.741 1.826 0 0.634 0.27 1.461 1.557 1.794v0zM16.452 9.52l0.125-0.484-0.007 0.516c0.482 0.128 0.805 0.316 0.805 0.826 0 0.454-0.332 0.824-0.741 0.824-0.39 0-0.715-0.338-0.74-0.77-0.017-0.275-0.26-0.495-0.528-0.47-0.276 0.017-0.486 0.253-0.47 0.528 0.057 0.96 0.82 1.711 1.738 1.711 0.96 0 1.741-0.818 1.741-1.824 0-0.632-0.269-1.455-1.55-1.793-0.001 0-0.122-0.032-0.123-0.033-0.484-0.125-0.808-0.313-0.808-0.824 0-0.455 0.332-0.826 0.741-0.826 0.39 0 0.715 0.339 0.74 0.771 0.017 0.275 0.26 0.494 0.528 0.47 0.276-0.017 0.486-0.253 0.47-0.528-0.057-0.96-0.82-1.712-1.738-1.712-0.96 0-1.741 0.819-1.741 1.826 0.001 0.632 0.271 1.459 1.558 1.792v0z"></path>
</svg>
