<?xml version="1.0" encoding="utf-8"?>
<!-- Generated by IcoMoon.io -->
<!DOCTYPE svg PUBLIC "-//W3C//DTD SVG 1.1//EN" "http://www.w3.org/Graphics/SVG/1.1/DTD/svg11.dtd">
<svg version="1.1" xmlns="http://www.w3.org/2000/svg" xmlns:xlink="http://www.w3.org/1999/xlink" width="24" height="24" viewBox="0 0 24 24">
<path fill="rgb(255, 64, 129)" d="M22 1.5h-20c-1.103 0-2 0.938-2 2.089v14.822c0 1.151 0.897 2.089 2 2.089h9v1h-6c-0.276 0-0.5 0.224-0.5 0.5s0.224 0.5 0.5 0.5h14c0.276 0 0.5-0.224 0.5-0.5s-0.224-0.5-0.5-0.5h-7v-1h10c1.103 0 2-0.938 2-2.089v-14.822c0-1.151-0.897-2.089-2-2.089v0zM2 2.5h20c0.552 0 1 0.488 1 1.089v11.911h-22v-11.911c0-0.601 0.448-1.089 1-1.089v0zM22 19.5h-20c-0.552 0-1-0.488-1-1.089v-1.911h22v1.911c0 0.601-0.448 1.089-1 1.089v0zM13 18c0 0.552-0.448 1-1 1s-1-0.448-1-1c0-0.552 0.448-1 1-1s1 0.448 1 1v0zM3.487 11.994c0.276 0 0.5-0.224 0.5-0.5v-2h1.391v2c0 0.276 0.224 0.5 0.5 0.5s0.5-0.224 0.5-0.5v-5c0-0.276-0.224-0.5-0.5-0.5s-0.5 0.224-0.5 0.5v2h-1.391v-2c0-0.276-0.224-0.5-0.5-0.5s-0.5 0.224-0.5 0.5v5c0 0.277 0.224 0.5 0.5 0.5v0zM8.1 6.994h0.697v4.5c0 0.276 0.224 0.5 0.5 0.5s0.5-0.224 0.5-0.5v-4.5h0.694c0.276 0 0.5-0.224 0.5-0.5s-0.224-0.5-0.5-0.5h-2.391c-0.276 0-0.5 0.224-0.5 0.5s0.223 0.5 0.5 0.5v0zM12.671 11.994c0.276 0 0.5-0.224 0.5-0.5v-3.284l0.67 1.053c0.092 0.145 0.251 0.231 0.422 0.231s0.33-0.087 0.422-0.231l0.671-1.054v3.285c0 0.276 0.224 0.5 0.5 0.5s0.5-0.224 0.5-0.5v-5c0-0.223-0.146-0.418-0.36-0.48-0.211-0.061-0.442 0.024-0.562 0.212l-1.171 1.838-1.17-1.838c-0.12-0.188-0.353-0.272-0.562-0.212-0.214 0.062-0.36 0.258-0.36 0.48v5c0 0.277 0.224 0.5 0.5 0.5v0zM18.122 11.994h2.391c0.276 0 0.5-0.224 0.5-0.5s-0.224-0.5-0.5-0.5h-1.891v-4.5c0-0.276-0.224-0.5-0.5-0.5s-0.5 0.224-0.5 0.5v5c0 0.277 0.224 0.5 0.5 0.5v0z"></path>
</svg>
