<?xml version="1.0" encoding="utf-8"?>
<!-- Generated by IcoMoon.io -->
<!DOCTYPE svg PUBLIC "-//W3C//DTD SVG 1.1//EN" "http://www.w3.org/Graphics/SVG/1.1/DTD/svg11.dtd">
<svg version="1.1" xmlns="http://www.w3.org/2000/svg" xmlns:xlink="http://www.w3.org/1999/xlink" width="24" height="24" viewBox="0 0 24 24">
<path fill="rgb(255, 64, 129)" d="M6.057 12.241c0.228 0.018 0.444-0.126 0.515-0.348l0.35-1.097 0.35 1.097c0.066 0.209 0.261 0.349 0.477 0.349 0.013 0 0.025 0 0.038-0.001 0.23-0.018 0.419-0.191 0.456-0.421l0.825-5.187c0.041-0.272-0.144-0.528-0.418-0.571-0.27-0.042-0.529 0.143-0.572 0.416l-0.494 3.107-0.187-0.586c-0.133-0.416-0.82-0.416-0.953 0l-0.187 0.586-0.494-3.108c-0.045-0.274-0.296-0.457-0.574-0.415-0.272 0.044-0.458 0.3-0.415 0.573l0.826 5.187c0.038 0.228 0.226 0.402 0.457 0.419v0zM11.137 12.241c0.228 0.018 0.444-0.126 0.515-0.348l0.35-1.097 0.35 1.097c0.066 0.209 0.261 0.349 0.477 0.349 0.013 0 0.025 0 0.038-0.001 0.23-0.018 0.419-0.191 0.456-0.421l0.824-5.187c0.043-0.272-0.143-0.528-0.416-0.572-0.272-0.041-0.531 0.144-0.574 0.417l-0.493 3.106-0.187-0.585c-0.133-0.416-0.82-0.416-0.953 0l-0.187 0.586-0.495-3.108c-0.045-0.273-0.297-0.457-0.573-0.415-0.272 0.044-0.458 0.3-0.415 0.573l0.826 5.187c0.038 0.228 0.226 0.402 0.457 0.419v0zM16.216 12.241c0.229 0.018 0.444-0.126 0.515-0.348l0.35-1.097 0.35 1.097c0.066 0.209 0.261 0.349 0.477 0.349 0.013 0 0.025 0 0.038-0.001 0.23-0.018 0.419-0.191 0.456-0.421l0.825-5.187c0.043-0.272-0.143-0.528-0.416-0.572-0.271-0.042-0.529 0.144-0.572 0.416l-0.494 3.107-0.187-0.586c-0.133-0.416-0.82-0.416-0.953 0l-0.187 0.586-0.495-3.108c-0.045-0.273-0.297-0.457-0.573-0.415-0.272 0.044-0.458 0.3-0.415 0.573l0.826 5.187c0.036 0.229 0.224 0.403 0.455 0.42v0zM22 1.5h-20c-1.103 0-2 0.938-2 2.089v14.822c0 1.151 0.897 2.089 2 2.089h9v1h-6c-0.276 0-0.5 0.224-0.5 0.5s0.224 0.5 0.5 0.5h14c0.276 0 0.5-0.224 0.5-0.5s-0.224-0.5-0.5-0.5h-7v-1h10c1.103 0 2-0.938 2-2.089v-14.822c0-1.151-0.897-2.089-2-2.089v0zM2 2.5h20c0.552 0 1 0.488 1 1.089v11.911h-22v-11.911c0-0.601 0.448-1.089 1-1.089v0zM22 19.5h-20c-0.552 0-1-0.488-1-1.089v-1.911h22v1.911c0 0.601-0.448 1.089-1 1.089v0zM13 18c0 0.552-0.448 1-1 1s-1-0.448-1-1c0-0.552 0.448-1 1-1s1 0.448 1 1v0z"></path>
</svg>
