<?xml version="1.0" encoding="utf-8"?>
<!-- Generated by IcoMoon.io -->
<!DOCTYPE svg PUBLIC "-//W3C//DTD SVG 1.1//EN" "http://www.w3.org/Graphics/SVG/1.1/DTD/svg11.dtd">
<svg version="1.1" xmlns="http://www.w3.org/2000/svg" xmlns:xlink="http://www.w3.org/1999/xlink" width="24" height="24" viewBox="0 0 24 24">
<path fill="rgb(255, 64, 129)" d="M23.5 1.5h-23c-0.276 0-0.5 0.224-0.5 0.5v16c0 0.276 0.224 0.5 0.5 0.5h6.5v3.5c0 0.202 0.122 0.385 0.309 0.462 0.062 0.026 0.127 0.038 0.191 0.038 0.13 0 0.258-0.051 0.354-0.146l3.853-3.854h11.793c0.276 0 0.5-0.224 0.5-0.5v-16c0-0.276-0.224-0.5-0.5-0.5v0zM23 17.5h-11.5c-0.133 0-0.26 0.053-0.354 0.146l-3.146 3.147v-2.793c0-0.276-0.224-0.5-0.5-0.5h-6.5v-15h22v15zM6 11.5c1.103 0 2-0.897 2-2s-0.897-2-2-2c-1.103 0-2 0.897-2 2s0.897 2 2 2v0zM6 8.5c0.551 0 1 0.449 1 1s-0.449 1-1 1c-0.551 0-1-0.449-1-1s0.449-1 1-1v0zM12 11.5c1.103 0 2-0.897 2-2s-0.897-2-2-2c-1.103 0-2 0.897-2 2s0.897 2 2 2v0zM12 8.5c0.551 0 1 0.449 1 1s-0.449 1-1 1c-0.551 0-1-0.449-1-1s0.449-1 1-1v0zM18 11.5c1.103 0 2-0.897 2-2s-0.897-2-2-2c-1.103 0-2 0.897-2 2s0.897 2 2 2v0zM18 8.5c0.551 0 1 0.449 1 1s-0.449 1-1 1c-0.551 0-1-0.449-1-1s0.449-1 1-1v0z"></path>
</svg>
