<?xml version="1.0" encoding="utf-8"?>
<!-- Generated by IcoMoon.io -->
<!DOCTYPE svg PUBLIC "-//W3C//DTD SVG 1.1//EN" "http://www.w3.org/Graphics/SVG/1.1/DTD/svg11.dtd">
<svg version="1.1" xmlns="http://www.w3.org/2000/svg" xmlns:xlink="http://www.w3.org/1999/xlink" width="24" height="24" viewBox="0 0 24 24">
<path fill="rgb(255, 64, 129)" d="M23.88 0.174c-0.096-0.111-0.233-0.174-0.379-0.174h-23c-0.146 0-0.284 0.063-0.379 0.174s-0.138 0.256-0.116 0.4l3 20c0.028 0.183 0.154 0.336 0.328 0.396l8.5 3c0.054 0.020 0.11 0.030 0.167 0.030 0.056 0 0.112-0.010 0.166-0.029l8.5-3c0.175-0.061 0.301-0.214 0.328-0.396l3-20c0.022-0.145-0.020-0.291-0.115-0.401v0zM17.758 4.929l-8.452 5.071h7.195c0.145 0 0.282 0.063 0.378 0.172 0.095 0.109 0.138 0.256 0.117 0.398l-1 7c-0.028 0.195-0.168 0.356-0.358 0.41l-3.5 1c-0.045 0.014-0.091 0.020-0.137 0.020-0.047 0-0.093-0.006-0.138-0.020l-3.5-1c-0.188-0.053-0.327-0.212-0.356-0.404l-0.462-3c-0.042-0.273 0.146-0.528 0.418-0.57 0.277-0.044 0.528 0.146 0.57 0.418l0.413 2.684 3.055 0.871 3.051-0.871 0.872-6.108h-8.423c-0.225 0-0.422-0.15-0.482-0.367-0.060-0.216 0.032-0.446 0.225-0.562l8.451-5.071h-9.194c-0.276 0-0.5-0.224-0.5-0.5s0.224-0.5 0.5-0.5h11c0.225 0 0.422 0.149 0.481 0.366 0.061 0.217-0.031 0.447-0.224 0.563v0z"></path>
</svg>
