<?xml version="1.0" encoding="utf-8"?>
<!-- Generated by IcoMoon.io -->
<!DOCTYPE svg PUBLIC "-//W3C//DTD SVG 1.1//EN" "http://www.w3.org/Graphics/SVG/1.1/DTD/svg11.dtd">
<svg version="1.1" xmlns="http://www.w3.org/2000/svg" xmlns:xlink="http://www.w3.org/1999/xlink" width="24" height="24" viewBox="0 0 24 24">
<path fill="rgb(255, 64, 129)" d="M23.040 12.449h-13.7l-4.245 3.301c-0.085 0.067-0.19 0.102-0.295 0.102-0.072 0-0.144-0.016-0.211-0.049-0.164-0.081-0.269-0.249-0.269-0.431v-2.923h-3.36c-0.265 0-0.48 0.215-0.48 0.48v6.72c0 0.265 0.215 0.48 0.48 0.48h12.778l4.184 3.719c0.089 0.080 0.204 0.121 0.319 0.121 0.066 0 0.133-0.014 0.197-0.042 0.172-0.077 0.283-0.249 0.283-0.438v-3.36h4.32c0.265 0 0.48-0.215 0.48-0.48v-6.72c0-0.265-0.215-0.48-0.48-0.48zM23.040 0.929h-22.080c-0.265 0-0.48 0.215-0.48 0.48v7.68c0 0.265 0.215 0.48 0.48 0.48h4.32v3.861l4.965-3.861h12.795c0.265 0 0.48-0.215 0.48-0.48v-7.68c0-0.265-0.215-0.48-0.48-0.48z"></path>
</svg>
