<?xml version="1.0" encoding="utf-8"?>
<!-- Generated by IcoMoon.io -->
<!DOCTYPE svg PUBLIC "-//W3C//DTD SVG 1.1//EN" "http://www.w3.org/Graphics/SVG/1.1/DTD/svg11.dtd">
<svg version="1.1" xmlns="http://www.w3.org/2000/svg" xmlns:xlink="http://www.w3.org/1999/xlink" width="24" height="24" viewBox="0 0 24 24">
<path fill="rgb(255, 64, 129)" d="M3 12c0.276 0 0.5 0.224 0.5 0.5s-0.224 0.5-0.5 0.5h-2.5l0.5-0.5v7l-0.5-0.5h13.5c0.122 0 0.241 0.045 0.332 0.126l4.5 4-0.832 0.374v-4c0-0.276 0.224-0.5 0.5-0.5h5l-0.5 0.5v-7l0.5 0.5h-13c-0.276 0-0.5-0.224-0.5-0.5s0.224-0.5 0.5-0.5h13c0.276 0 0.5 0.224 0.5 0.5v7c0 0.276-0.224 0.5-0.5 0.5h-5l0.5-0.5v4c0 0.431-0.51 0.66-0.832 0.374l-4.5-4 0.332 0.126h-13.5c-0.276 0-0.5-0.224-0.5-0.5v-7c0-0.276 0.224-0.5 0.5-0.5h2.5zM23.5 8h-13.5c-0.111 0-0.219 0.037-0.307 0.105l-4.5 3.5 0.807 0.395v-3.5c0-0.276-0.224-0.5-0.5-0.5h-5l0.5 0.5v-8l-0.5 0.5h23l-0.5-0.5v8l0.5-0.5zM23.5 9c0.276 0 0.5-0.224 0.5-0.5v-8c0-0.276-0.224-0.5-0.5-0.5h-23c-0.276 0-0.5 0.224-0.5 0.5v8c0 0.276 0.224 0.5 0.5 0.5h5l-0.5-0.5v3.5c0 0.416 0.479 0.65 0.807 0.395l4.5-3.5-0.307 0.105h13.5z"></path>
</svg>
