<?xml version="1.0" encoding="utf-8"?>
<!-- Generated by IcoMoon.io -->
<!DOCTYPE svg PUBLIC "-//W3C//DTD SVG 1.1//EN" "http://www.w3.org/Graphics/SVG/1.1/DTD/svg11.dtd">
<svg version="1.1" xmlns="http://www.w3.org/2000/svg" xmlns:xlink="http://www.w3.org/1999/xlink" width="24" height="24" viewBox="0 0 24 24">
<path fill="rgb(255, 64, 129)" d="M23.956 7.146c-0.323-3.831-3.092-6.646-6.508-6.646-2.262 0-4.338 1.246-5.538 3.185-1.154-1.985-3.138-3.185-5.354-3.185-3.415 0-6.185 2.815-6.508 6.646-0.046 0.185-0.138 1.062 0.185 2.538 0.508 2.123 1.662 4.015 3.323 5.538l8.354 7.569 8.492-7.569c1.662-1.523 2.815-3.415 3.323-5.538 0.369-1.477 0.277-2.354 0.231-2.538v0zM22.848 9.454c-0.462 1.938-1.523 3.692-3.046 5.077l-7.846 7.062-7.754-7.062c-1.523-1.385-2.585-3.138-3.046-5.077-0.323-1.385-0.185-2.169-0.185-2.169v-0.046c0.277-3.369 2.631-5.815 5.585-5.815 2.169 0 4.062 1.338 4.985 3.462l0.415 1.015 0.415-1.015c0.877-2.077 2.862-3.462 5.077-3.462 2.954 0 5.262 2.446 5.585 5.862 0 0 0.138 0.785-0.185 2.169v-0.001z"></path>
</svg>
