<?xml version="1.0" encoding="utf-8"?>
<!-- Generated by IcoMoon.io -->
<!DOCTYPE svg PUBLIC "-//W3C//DTD SVG 1.1//EN" "http://www.w3.org/Graphics/SVG/1.1/DTD/svg11.dtd">
<svg version="1.1" xmlns="http://www.w3.org/2000/svg" xmlns:xlink="http://www.w3.org/1999/xlink" width="24" height="24" viewBox="0 0 24 24">
<path fill="rgb(255, 64, 129)" d="M23.719 10.932l-3.575-3.288v-5.425h-4.11v1.603l-4.11-3.822-11.795 10.932c-0.164 0.164-0.164 0.411-0.041 0.575 0.164 0.164 0.411 0.164 0.575 0.041l1.397-1.274v13.685h19.726v-13.685l1.356 1.274c0.082 0.082 0.164 0.123 0.288 0.123s0.205-0.041 0.288-0.123c0.164-0.205 0.164-0.452 0-0.616h0.001zM16.856 3.041h2.466v3.822l-2.466-2.301v-1.521zM9.459 23.178v-8.671c0-0.205 0.164-0.37 0.37-0.37h4.151c0.205 0 0.37 0.164 0.37 0.37v8.671h-4.891zM20.966 23.178h-5.753v-8.671c0-0.658-0.534-1.192-1.192-1.192h-4.192c-0.658 0-1.192 0.534-1.192 1.192v8.671h-5.753v-13.644l9.041-8.425 8.219 7.644 0.822 0.781v13.644z"></path>
</svg>
