<?xml version="1.0" encoding="utf-8"?>
<!-- Generated by IcoMoon.io -->
<!DOCTYPE svg PUBLIC "-//W3C//DTD SVG 1.1//EN" "http://www.w3.org/Graphics/SVG/1.1/DTD/svg11.dtd">
<svg version="1.1" xmlns="http://www.w3.org/2000/svg" xmlns:xlink="http://www.w3.org/1999/xlink" width="24" height="24" viewBox="0 0 24 24">
<path fill="rgb(255, 64, 129)" d="M23.019 10.387l-3.788-3.515v-4.374h-3.124v1.484l-4.296-3.983-11.208 10.387c-0.156 0.156-0.156 0.391-0.039 0.546 0.156 0.156 0.391 0.156 0.546 0.039l1.679-1.562v13.785h6.248v-9.411c0-0.429 0.351-0.742 0.742-0.742h3.944c0.429 0 0.742 0.351 0.742 0.742v9.411h6.248v-13.785l1.679 1.562c0.078 0.078 0.156 0.117 0.274 0.117s0.195-0.039 0.274-0.117c0.234-0.195 0.234-0.429 0.078-0.586h0.003z"></path>
</svg>
