<?xml version="1.0" encoding="utf-8"?>
<!-- Generated by IcoMoon.io -->
<!DOCTYPE svg PUBLIC "-//W3C//DTD SVG 1.1//EN" "http://www.w3.org/Graphics/SVG/1.1/DTD/svg11.dtd">
<svg version="1.1" xmlns="http://www.w3.org/2000/svg" xmlns:xlink="http://www.w3.org/1999/xlink" width="24" height="24" viewBox="0 0 24 24">
<path fill="rgb(255, 64, 129)" d="M9.277 0.035c-0.209-0.083-0.447-0.015-0.582 0.164s-0.135 0.425 0 0.603c2.486 3.278 2.625 8.449 0.408 11.429-0.516-0.719-0.845-1.472-1.019-2.331-0.034-0.166-0.149-0.303-0.307-0.365s-0.337-0.041-0.475 0.059c-2.833 2.030-3.975 5.488-2.907 8.809 1.093 3.4 4.114 5.597 7.698 5.597 3.991 0 6.718-2.31 7.48-6.338 1.158-6.103-2.704-14.642-10.296-17.627v0zM12.049 21c-1.451 0-2.691-1.038-2.947-2.469-0.029-0.166 0.026-0.336 0.148-0.451s0.294-0.162 0.459-0.124c0.055 0.013 0.115 0.019 0.179 0.019 0.668 0 1.61-0.682 2.101-1.521 0.216-0.368 0.524-1.080 0.17-1.71-0.087-0.155-0.085-0.345 0.004-0.498 0.089-0.152 0.254-0.246 0.43-0.246 0.554 0 1.055 0.214 1.448 0.62 0.793 0.817 1.040 2.291 1.007 3.395-0.050 1.673-1.369 2.985-2.999 2.985v0z"></path>
</svg>
