<?xml version="1.0" encoding="utf-8"?>
<!-- Generated by IcoMoon.io -->
<!DOCTYPE svg PUBLIC "-//W3C//DTD SVG 1.1//EN" "http://www.w3.org/Graphics/SVG/1.1/DTD/svg11.dtd">
<svg version="1.1" xmlns="http://www.w3.org/2000/svg" xmlns:xlink="http://www.w3.org/1999/xlink" width="24" height="24" viewBox="0 0 24 24">
<path fill="rgb(255, 64, 129)" d="M9.5 0.035c-0.209-0.083-0.446-0.016-0.581 0.163-0.136 0.178-0.136 0.425 0 0.604 2.486 3.279 2.625 8.45 0.407 11.429-0.518-0.72-0.845-1.473-1.019-2.331-0.034-0.166-0.149-0.303-0.307-0.365-0.156-0.062-0.336-0.040-0.474 0.059-2.833 2.030-3.975 5.487-2.908 8.808 1.093 3.4 4.114 5.598 7.699 5.598 3.99 0 6.717-2.31 7.48-6.338 1.157-6.102-2.704-14.642-10.297-17.627v0zM18.815 17.476c-0.666 3.51-3.034 5.524-6.498 5.524-3.142 0-5.79-1.925-6.747-4.904-0.69-2.148-0.497-5.098 1.956-7.23 0.288 0.897 0.754 1.716 1.41 2.488 0.094 0.109 0.229 0.173 0.373 0.176 0.141-0.005 0.281-0.057 0.379-0.165 2.556-2.824 2.87-7.933 0.937-11.713 6.141 3.261 9.194 10.527 8.19 15.824v0zM12.817 14c-0.178 0-0.342 0.094-0.432 0.248s-0.091 0.342-0.004 0.497c0.354 0.631 0.045 1.343-0.171 1.711-0.537 0.918-1.647 1.655-2.279 1.501-0.165-0.038-0.336 0.007-0.458 0.124-0.122 0.116-0.178 0.285-0.148 0.451 0.256 1.43 1.495 2.468 2.946 2.468 1.631 0 2.949-1.311 3-2.985 0.033-1.104-0.213-2.576-1.006-3.394-0.394-0.406-0.895-0.621-1.448-0.621v0zM12.271 20c-0.756 0-1.425-0.422-1.763-1.062 0.94-0.179 1.968-0.956 2.565-1.977 0.327-0.559 0.484-1.12 0.47-1.647 0.002 0.001 0.003 0.002 0.004 0.003 0.475 0.489 0.759 1.536 0.724 2.667s-0.913 2.016-2 2.016v0z"></path>
</svg>
