<?xml version="1.0" encoding="utf-8"?>
<!-- Generated by IcoMoon.io -->
<!DOCTYPE svg PUBLIC "-//W3C//DTD SVG 1.1//EN" "http://www.w3.org/Graphics/SVG/1.1/DTD/svg11.dtd">
<svg version="1.1" xmlns="http://www.w3.org/2000/svg" xmlns:xlink="http://www.w3.org/1999/xlink" width="24" height="24" viewBox="0 0 24 24">
<path fill="rgb(255, 64, 129)" d="M23.879 0.174c-0.095-0.111-0.233-0.174-0.379-0.174h-23c-0.146 0-0.284 0.063-0.379 0.174s-0.137 0.256-0.115 0.4l3 20c0.027 0.183 0.153 0.336 0.328 0.397l8.5 3c0.054 0.019 0.109 0.029 0.166 0.029s0.112-0.010 0.166-0.028l8.5-3c0.175-0.062 0.301-0.214 0.328-0.397l3-20c0.022-0.145-0.020-0.291-0.115-0.401v0zM20.050 20.128l-8.050 2.842-8.050-2.841-2.869-19.129h21.838l-2.869 19.128zM7.5 11h8.424l-0.873 6.108-3.051 0.872-3.055-0.873-0.412-2.684c-0.042-0.272-0.29-0.459-0.57-0.418-0.272 0.042-0.46 0.297-0.418 0.57l0.461 3c0.029 0.193 0.169 0.351 0.356 0.405l3.5 1c0.045 0.014 0.092 0.020 0.138 0.020s0.093-0.006 0.138-0.019l3.5-1c0.189-0.054 0.329-0.215 0.357-0.41l1-7c0.021-0.144-0.022-0.289-0.117-0.398s-0.233-0.173-0.378-0.173h-8.576l-0.834-5h10.41c0.276 0 0.5-0.224 0.5-0.5s-0.224-0.5-0.5-0.5h-11c-0.147 0-0.286 0.064-0.382 0.177-0.095 0.112-0.136 0.26-0.111 0.405l1 6c0.040 0.241 0.249 0.418 0.493 0.418v0z"></path>
</svg>
