<?xml version="1.0" encoding="utf-8"?>
<!-- Generated by IcoMoon.io -->
<!DOCTYPE svg PUBLIC "-//W3C//DTD SVG 1.1//EN" "http://www.w3.org/Graphics/SVG/1.1/DTD/svg11.dtd">
<svg version="1.1" xmlns="http://www.w3.org/2000/svg" xmlns:xlink="http://www.w3.org/1999/xlink" width="24" height="24" viewBox="0 0 24 24">
<path fill="rgb(255, 64, 129)" d="M15.6 8.8c0-2-1.6-3.6-3.6-3.6s-3.6 1.6-3.6 3.6c0 1.12 0.52 2.16 1.4 2.84l-1.080 7.56h6.52l-1.080-7.56c0.92-0.68 1.44-1.72 1.44-2.84v0zM14.32 18.4h-4.64l1-7.12-0.2-0.12c-0.8-0.52-1.24-1.4-1.24-2.32 0-1.56 1.24-2.8 2.8-2.8s2.8 1.24 2.8 2.8c0 0.96-0.48 1.8-1.24 2.32l-0.2 0.12 0.92 7.12zM12 0c-6.6 0-12 5.4-12 12s5.4 12 12 12c6.6 0 12-5.4 12-12s-5.4-12-12-12v0zM12 23.2c-6.16 0-11.2-5.040-11.2-11.2s5.040-11.2 11.2-11.2c6.16 0 11.2 5.040 11.2 11.2s-5.040 11.2-11.2 11.2v0z"></path>
</svg>
