<?xml version="1.0" encoding="utf-8"?>
<!-- Generated by IcoMoon.io -->
<!DOCTYPE svg PUBLIC "-//W3C//DTD SVG 1.1//EN" "http://www.w3.org/Graphics/SVG/1.1/DTD/svg11.dtd">
<svg version="1.1" xmlns="http://www.w3.org/2000/svg" xmlns:xlink="http://www.w3.org/1999/xlink" width="24" height="24" viewBox="0 0 24 24">
<path fill="rgb(255, 64, 129)" d="M3.2 8.5c-1.76 0-3.2 1.44-3.2 3.2s1.44 3.2 3.2 3.2c1.76 0 3.2-1.44 3.2-3.2s-1.44-3.2-3.2-3.2v0zM20.8 8.5c-1.76 0-3.2 1.44-3.2 3.2s1.44 3.2 3.2 3.2c1.76 0 3.2-1.44 3.2-3.2s-1.44-3.2-3.2-3.2v0zM12 8.5c-1.76 0-3.2 1.44-3.2 3.2s1.44 3.2 3.2 3.2c1.76 0 3.2-1.44 3.2-3.2s-1.44-3.2-3.2-3.2v0z"></path>
</svg>
