<?xml version="1.0" encoding="utf-8"?>
<!-- Generated by IcoMoon.io -->
<!DOCTYPE svg PUBLIC "-//W3C//DTD SVG 1.1//EN" "http://www.w3.org/Graphics/SVG/1.1/DTD/svg11.dtd">
<svg version="1.1" xmlns="http://www.w3.org/2000/svg" xmlns:xlink="http://www.w3.org/1999/xlink" width="24" height="24" viewBox="0 0 24 24">
<path fill="rgb(255, 64, 129)" d="M12 0c-6.6 0-12 5.4-12 12s5.4 12 12 12c6.6 0 12-5.4 12-12s-5.4-12-12-12v0zM17.143 17.571h-10.286c-0.471 0-0.857-0.386-0.857-0.857s0.386-0.857 0.857-0.857h10.286c0.471 0 0.857 0.386 0.857 0.857s-0.386 0.857-0.857 0.857v0zM17.143 12.857h-10.286c-0.471 0-0.857-0.386-0.857-0.857s0.386-0.857 0.857-0.857h10.286c0.471 0 0.857 0.386 0.857 0.857s-0.386 0.857-0.857 0.857v0zM17.143 8.143h-10.286c-0.471 0-0.857-0.386-0.857-0.857s0.386-0.857 0.857-0.857h10.286c0.471 0 0.857 0.386 0.857 0.857s-0.386 0.857-0.857 0.857v0z"></path>
</svg>
