<?xml version="1.0" encoding="utf-8"?>
<!-- Generated by IcoMoon.io -->
<!DOCTYPE svg PUBLIC "-//W3C//DTD SVG 1.1//EN" "http://www.w3.org/Graphics/SVG/1.1/DTD/svg11.dtd">
<svg version="1.1" xmlns="http://www.w3.org/2000/svg" xmlns:xlink="http://www.w3.org/1999/xlink" width="24" height="24" viewBox="0 0 24 24">
<path fill="rgb(255, 64, 129)" d="M12 0c-6.6 0-12 5.4-12 12s5.4 12 12 12c6.6 0 12-5.4 12-12s-5.4-12-12-12v0zM12 23.143c-6.129 0-11.143-5.014-11.143-11.143s5.014-11.143 11.143-11.143c6.129 0 11.143 5.014 11.143 11.143s-5.014 11.143-11.143 11.143v0zM17.143 6.857h-10.286c-0.257 0-0.429 0.171-0.429 0.429s0.171 0.429 0.429 0.429h10.286c0.257 0 0.429-0.171 0.429-0.429s-0.171-0.429-0.429-0.429v0zM17.143 11.571h-10.286c-0.257 0-0.429 0.171-0.429 0.429s0.171 0.429 0.429 0.429h10.286c0.257 0 0.429-0.171 0.429-0.429s-0.171-0.429-0.429-0.429v0zM17.143 16.286h-10.286c-0.257 0-0.429 0.171-0.429 0.429s0.171 0.429 0.429 0.429h10.286c0.257 0 0.429-0.171 0.429-0.429s-0.171-0.429-0.429-0.429v0z"></path>
</svg>
