<?xml version="1.0" encoding="utf-8"?>
<!-- Generated by IcoMoon.io -->
<!DOCTYPE svg PUBLIC "-//W3C//DTD SVG 1.1//EN" "http://www.w3.org/Graphics/SVG/1.1/DTD/svg11.dtd">
<svg version="1.1" xmlns="http://www.w3.org/2000/svg" xmlns:xlink="http://www.w3.org/1999/xlink" width="24" height="24" viewBox="0 0 24 24">
<path fill="rgb(255, 64, 129)" d="M11.7 6.4c1.76 0 3.2-1.44 3.2-3.2s-1.44-3.2-3.2-3.2c-1.76 0-3.2 1.44-3.2 3.2s1.44 3.2 3.2 3.2v0zM11.7 0.8c1.32 0 2.4 1.080 2.4 2.4s-1.080 2.4-2.4 2.4c-1.32 0-2.4-1.080-2.4-2.4s1.080-2.4 2.4-2.4v0zM11.7 17.6c-1.76 0-3.2 1.44-3.2 3.2s1.44 3.2 3.2 3.2c1.76 0 3.2-1.44 3.2-3.2s-1.44-3.2-3.2-3.2v0zM11.7 23.2c-1.32 0-2.4-1.080-2.4-2.4s1.080-2.4 2.4-2.4c1.32 0 2.4 1.080 2.4 2.4s-1.080 2.4-2.4 2.4v0zM11.7 8.8c-1.76 0-3.2 1.44-3.2 3.2s1.44 3.2 3.2 3.2c1.76 0 3.2-1.44 3.2-3.2s-1.44-3.2-3.2-3.2v0zM11.7 14.4c-1.32 0-2.4-1.080-2.4-2.4s1.080-2.4 2.4-2.4c1.32 0 2.4 1.080 2.4 2.4s-1.080 2.4-2.4 2.4v0z"></path>
</svg>
