<?xml version="1.0" encoding="utf-8"?>
<!-- Generated by IcoMoon.io -->
<!DOCTYPE svg PUBLIC "-//W3C//DTD SVG 1.1//EN" "http://www.w3.org/Graphics/SVG/1.1/DTD/svg11.dtd">
<svg version="1.1" xmlns="http://www.w3.org/2000/svg" xmlns:xlink="http://www.w3.org/1999/xlink" width="24" height="24" viewBox="0 0 24 24">
<path fill="rgb(255, 64, 129)" d="M13.585 22.284h-0.001c0.317 0 0.634 0 0.951-0.045 0.227-0.045 0.453-0.271 0.408-0.498s-0.272-0.453-0.498-0.408c-0.271 0.045-0.588 0.045-0.86 0.045s-0.453 0.181-0.453 0.453c0 0.272 0.181 0.453 0.453 0.453zM16.257 21.921l-0.001 0.001c0.046 0 0.091 0 0.091 0.045 0.317-0.091 0.634-0.226 0.906-0.317 0.227-0.091 0.363-0.362 0.272-0.589s-0.363-0.363-0.589-0.272l-0.815 0.272c-0.226 0.045-0.362 0.317-0.317 0.543 0.091 0.181 0.272 0.317 0.453 0.317zM18.747 20.834v0.001c0.090 0 0.181 0 0.226-0.091l0.77-0.543c0.182-0.136 0.227-0.452 0.091-0.634s-0.453-0.227-0.634-0.091c-0.227 0.181-0.499 0.362-0.725 0.498-0.181 0.136-0.272 0.408-0.136 0.634 0.091 0.135 0.272 0.226 0.408 0.226zM20.875 19.114v0c0.091 0 0.226-0.045 0.317-0.181 0.226-0.227 0.453-0.499 0.634-0.725 0.135-0.181 0.090-0.499-0.091-0.634s-0.498-0.090-0.634 0.091c-0.181 0.271-0.362 0.453-0.543 0.679-0.181 0.181-0.181 0.453 0 0.634 0.091 0.091 0.226 0.136 0.317 0.136zM22.415 16.94v0c0.181 0 0.317-0.090 0.362-0.181l0.408-0.86c0.136-0.227 0-0.498-0.226-0.589-0.227-0.136-0.498 0-0.589 0.226-0.090 0.272-0.226 0.498-0.362 0.77-0.136 0.181-0.045 0.453 0.181 0.589 0.090 0.045 0.135 0.045 0.226 0.045zM23.321 14.359v0c0.227 0 0.408-0.136 0.453-0.362l0.136-0.951c0-0.226-0.182-0.453-0.408-0.498-0.226 0-0.453 0.182-0.498 0.408l-0.136 0.86c-0.046 0.271 0.136 0.498 0.362 0.543h0.091zM23.547 11.868v0c0.272 0 0.453-0.181 0.453-0.453 0-5.751-4.664-10.415-10.415-10.415s-10.415 4.664-10.415 10.415c0 0.272 0.181 0.453 0.453 0.453s0.453-0.181 0.453-0.453c0-5.252 4.257-9.509 9.509-9.509s9.509 4.256 9.509 9.509c0 0.272 0.181 0.453 0.453 0.453zM3.623 11.868c-0.136 0-0.226-0.045-0.317-0.136l-3.17-3.17c-0.181-0.181-0.181-0.453 0-0.634s0.453-0.181 0.634 0l3.17 3.17c0.181 0.181 0.181 0.453 0 0.634-0.091 0.091-0.181 0.136-0.317 0.136v0zM3.623 11.868c-0.136 0-0.226-0.045-0.317-0.136-0.181-0.181-0.181-0.453 0-0.634l3.17-3.17c0.181-0.181 0.453-0.181 0.634 0s0.181 0.453 0 0.634l-3.17 3.17c-0.091 0.091-0.181 0.136-0.317 0.136v0z"></path>
</svg>
