<?xml version="1.0" encoding="utf-8"?>
<!-- Generated by IcoMoon.io -->
<!DOCTYPE svg PUBLIC "-//W3C//DTD SVG 1.1//EN" "http://www.w3.org/Graphics/SVG/1.1/DTD/svg11.dtd">
<svg version="1.1" xmlns="http://www.w3.org/2000/svg" xmlns:xlink="http://www.w3.org/1999/xlink" width="24" height="24" viewBox="0 0 24 24">
<path fill="rgb(255, 64, 129)" d="M24 12c0-6.633-5.367-12-12-12s-12 5.367-12 12c0 3.491 1.484 6.633 3.884 8.858l0.393 0.349 0.087 0.044c0.218 0.175 0.436 0.349 0.655 0.48l0.218 0.131c0.218 0.175 0.48 0.305 0.698 0.436 0.044 0.044 0.087 0.044 0.175 0.087 0.262 0.131 0.524 0.305 0.829 0.436 0 0 0.044 0 0.044 0.044 0.916 0.436 1.876 0.742 2.924 0.916h0.087l0.96 0.131h0.131c0.262 0.087 0.567 0.087 0.916 0.087 0.305 0 0.655 0 0.96-0.044h0.131l0.96-0.131h0.087c1.004-0.175 1.964-0.48 2.88-0.916 0.044 0 0.087-0.044 0.087-0.044l0.785-0.393 0.175-0.131c0.218-0.131 0.48-0.262 0.698-0.436 0.087-0.044 0.175-0.131 0.218-0.175 0.175-0.131 0.393-0.262 0.567-0.436l0.131-0.087 0.393-0.349c2.4-2.182 3.927-5.367 3.927-8.858v0.001zM0.873 12c0-6.153 4.975-11.127 11.127-11.127s11.127 4.975 11.127 11.127c0 3.316-1.44 6.284-3.753 8.335-0.131-0.087-0.262-0.175-0.393-0.218l-3.709-1.833c-0.349-0.175-0.524-0.48-0.524-0.873v-1.309c0.087-0.087 0.175-0.218 0.262-0.349 0.48-0.655 0.873-1.44 1.135-2.225 0.567-0.262 0.916-0.829 0.916-1.44v-1.527c0-0.393-0.131-0.742-0.393-1.047v-2.095c0.044-0.218 0.087-1.484-0.829-2.575-0.785-0.873-2.095-1.353-3.84-1.353s-3.055 0.48-3.884 1.396c-0.916 1.047-0.829 2.313-0.829 2.575v2.051c-0.262 0.305-0.393 0.655-0.393 1.047v1.527c0 0.48 0.218 0.916 0.567 1.222 0.349 1.396 1.091 2.444 1.353 2.793v1.265c0 0.349-0.175 0.698-0.524 0.873l-3.404 1.833c-0.131 0.044-0.218 0.131-0.349 0.218-2.225-2.051-3.665-5.018-3.665-8.291h0.002zM18.065 21.294l-0.218 0.131c-0.218 0.131-0.436 0.262-0.611 0.349l-0.131 0.087c-0.48 0.262-1.004 0.48-1.527 0.655l-0.873 0.262c-0.262 0.087-0.567 0.131-0.873 0.175s-0.568 0.087-0.873 0.087h-0.131c-0.262 0-0.524 0.044-0.829 0.044-0.262 0-0.567 0-0.829-0.044h-0.131l-0.829-0.087c-0.611-0.087-1.179-0.218-1.746-0.436l-0.873-0.305c-0.262-0.087-0.48-0.218-0.742-0.349l-0.087-0.044-0.655-0.393-0.175-0.131c-0.218-0.131-0.393-0.262-0.567-0.393l-0.044-0.044c-5.221-20.858 0.044 0 0.044-0.044l3.447-1.876c0.611-0.305 0.96-0.96 0.96-1.615v-1.571l-0.087-0.131c-9.585-15.621-0.96-1.135-1.309-2.705l-0.087-0.175-0.175-0.087c-0.218-0.131-0.349-0.349-0.349-0.611v-1.527c0-0.218 0.087-0.393 0.262-0.524l0.131-0.131v-2.487c0-1.374-0.131-1.091 0.611-1.92 0.611-0.698 1.702-1.091 3.185-1.091s2.575 0.349 3.185 1.091c0.742 0.829 0.611 1.92 0.611 1.92v2.487l0.131 0.131c0.175 0.131 0.262 0.349 0.262 0.524v1.527c0 0.305-0.218 0.611-0.524 0.698l-0.218 0.087-0.087 0.218c-0.262 0.785-0.611 1.527-1.091 2.182-0.131 0.175-0.218 0.305-0.305 0.393l-0.087 0.131v1.615c0 0.698 0.393 1.353 1.004 1.658l3.796 1.876c0 0.044-0.044 0.087-0.087 0.087-0.174 0.132-0.304 0.219-0.479 0.306z"></path>
</svg>
