<?xml version="1.0" encoding="utf-8"?>
<!-- Generated by IcoMoon.io -->
<!DOCTYPE svg PUBLIC "-//W3C//DTD SVG 1.1//EN" "http://www.w3.org/Graphics/SVG/1.1/DTD/svg11.dtd">
<svg version="1.1" xmlns="http://www.w3.org/2000/svg" xmlns:xlink="http://www.w3.org/1999/xlink" width="24" height="24" viewBox="0 0 24 24">
<path fill="rgb(255, 64, 129)" d="M8.756 6.578h-2.889v5.867h2.978c0.444 0 0.8-0.089 1.067-0.267 0.311-0.178 0.533-0.356 0.667-0.533s0.222-0.444 0.311-0.8c0.089-0.356 0.133-0.622 0.133-0.8v-0.756c0-1.822-0.756-2.711-2.267-2.711v0zM18.578 0h-13.156c-2.978 0-5.422 2.444-5.422 5.422v13.156c0 2.978 2.444 5.422 5.422 5.422h13.156c2.978 0 5.422-2.444 5.422-5.422v-13.156c0-2.978-2.444-5.422-5.422-5.422v0zM12.267 10.356c-0.044 0.311-0.089 0.667-0.222 1.156-0.133 0.444-0.311 0.844-0.489 1.111-0.222 0.311-0.533 0.533-0.978 0.756s-0.978 0.311-1.556 0.311h-3.111v4.089h-1.289v-12.444h4.267c1.156 0 2.044 0.356 2.578 1.067 0.578 0.711 0.844 1.689 0.844 2.844-0.044 0.444-0.044 0.8-0.044 1.111v-0.001zM19.2 17.289c-0.533 0.489-1.333 0.756-2.356 0.756s-1.822-0.222-2.4-0.711c-0.578-0.489-0.889-1.067-0.889-1.778l1.244-0.044c0.044 0.444 0.267 0.8 0.667 1.022s0.844 0.356 1.333 0.356c0.489 0 0.933-0.133 1.333-0.356 0.356-0.222 0.578-0.578 0.578-0.978s-0.178-0.756-0.489-1.022c-0.311-0.267-0.711-0.444-1.156-0.622-0.444-0.133-0.933-0.311-1.378-0.489-0.489-0.178-0.889-0.444-1.244-0.8-0.444-0.4-0.667-0.933-0.667-1.511s0.222-1.156 0.711-1.689c0.489-0.533 1.244-0.756 2.356-0.756 0.4 0 0.756 0.044 1.067 0.133s0.578 0.178 0.711 0.267l0.222 0.133-0.4 1.111c-0.4-0.311-0.889-0.444-1.511-0.444s-1.067 0.133-1.378 0.356c-0.311 0.222-0.444 0.533-0.444 0.889 0 0.4 0.178 0.711 0.578 0.933s0.8 0.4 1.289 0.578c0.489 0.133 0.933 0.311 1.422 0.533 0.489 0.178 0.844 0.489 1.2 0.889s0.4 0.844 0.4 1.511c0 0.667-0.267 1.244-0.8 1.733h0.001z"></path>
</svg>
