<?xml version="1.0" encoding="utf-8"?>
<!-- Generated by IcoMoon.io -->
<!DOCTYPE svg PUBLIC "-//W3C//DTD SVG 1.1//EN" "http://www.w3.org/Graphics/SVG/1.1/DTD/svg11.dtd">
<svg version="1.1" xmlns="http://www.w3.org/2000/svg" xmlns:xlink="http://www.w3.org/1999/xlink" width="24" height="24" viewBox="0 0 24 24">
<path fill="rgb(255, 64, 129)" d="M18.578 0h-13.156c-2.978 0-5.422 2.444-5.422 5.422v13.156c0 2.978 2.444 5.422 5.422 5.422h13.156c2.978 0 5.422-2.444 5.422-5.422v-13.156c0-2.978-2.444-5.422-5.422-5.422v0zM23.111 18.578c0 2.489-2.044 4.533-4.533 4.533h-13.156c-2.489 0-4.533-2.044-4.533-4.533v-13.156c0-2.489 2.044-4.533 4.533-4.533h13.156c2.489 0 4.533 2.044 4.533 4.533v13.156zM8.844 5.333h-4.267v12.444h1.289v-4.089h3.111c0.622 0 1.111-0.089 1.556-0.311s0.756-0.489 0.978-0.756c0.222-0.311 0.4-0.667 0.489-1.111 0.133-0.444 0.178-0.844 0.222-1.156s0.044-0.667 0.044-1.067c0-1.156-0.267-2.133-0.844-2.844-0.533-0.756-1.422-1.111-2.578-1.111v0.001zM10.978 10.044c0 0.178-0.044 0.444-0.133 0.8s-0.178 0.622-0.311 0.8c-0.133 0.178-0.356 0.356-0.667 0.533s-0.667 0.267-1.067 0.267h-2.978v-5.867h2.889c1.511 0 2.267 0.889 2.267 2.711 0.044 0.311 0.044 0.578 0 0.756v0zM18.311 13.067l-1.422-0.533c-0.489-0.133-0.889-0.356-1.289-0.578s-0.578-0.533-0.578-0.933c0-0.356 0.133-0.667 0.444-0.889s0.756-0.356 1.378-0.356c0.622 0 1.111 0.133 1.511 0.444l0.4-1.111-0.222-0.133c-0.133-0.089-0.4-0.178-0.711-0.267s-0.667-0.133-1.067-0.133c-1.067 0-1.867 0.267-2.356 0.756s-0.711 1.067-0.711 1.689c0 0.622 0.222 1.111 0.667 1.511 0.356 0.356 0.756 0.622 1.244 0.8s0.933 0.311 1.378 0.489c0.444 0.133 0.844 0.356 1.156 0.622s0.489 0.578 0.489 1.022c0 0.444-0.178 0.756-0.578 0.978-0.356 0.222-0.8 0.356-1.333 0.356s-0.978-0.133-1.333-0.356c-0.4-0.222-0.622-0.578-0.667-1.022l-1.244 0.044c0.044 0.711 0.311 1.289 0.889 1.778s1.378 0.711 2.4 0.711c1.022 0 1.822-0.267 2.356-0.756s0.8-1.067 0.8-1.733c0-0.666-0.178-1.2-0.489-1.6s-0.622-0.578-1.111-0.8h-0.001z"></path>
</svg>
