<?xml version="1.0" encoding="utf-8"?>
<!-- Generated by IcoMoon.io -->
<!DOCTYPE svg PUBLIC "-//W3C//DTD SVG 1.1//EN" "http://www.w3.org/Graphics/SVG/1.1/DTD/svg11.dtd">
<svg version="1.1" xmlns="http://www.w3.org/2000/svg" xmlns:xlink="http://www.w3.org/1999/xlink" width="24" height="24" viewBox="0 0 24 24">
<path fill="rgb(255, 64, 129)" d="M12 24c-6.622 0-12-5.378-12-12s5.378-12 12-12c6.622 0 12 5.378 12 12s-5.378 12-12 12v0zM12 0.889c-6.133 0-11.111 4.978-11.111 11.111s4.978 11.111 11.111 11.111c6.133 0 11.111-4.978 11.111-11.111s-4.978-11.111-11.111-11.111v0zM17.333 12.444v0c0.266 0 0.444-0.178 0.444-0.444s-0.177-0.444-0.444-0.444h-11.556c-0.266 0-0.444 0.178-0.444 0.444s0.177 0.444 0.444 0.444h11.556zM13.644 16.756l-0.622-0.622 4.133-4.133-4.133-4.133 0.622-0.622 4.756 4.756-4.756 4.754z"></path>
</svg>
