<?xml version="1.0" encoding="utf-8"?>
<!-- Generated by IcoMoon.io -->
<!DOCTYPE svg PUBLIC "-//W3C//DTD SVG 1.1//EN" "http://www.w3.org/Graphics/SVG/1.1/DTD/svg11.dtd">
<svg version="1.1" xmlns="http://www.w3.org/2000/svg" xmlns:xlink="http://www.w3.org/1999/xlink" width="24" height="24" viewBox="0 0 24 24">
<path fill="rgb(255, 64, 129)" d="M22.958 23.23l-6.702-7.019c1.721-1.721 2.762-4.075 2.762-6.702 0-5.253-4.257-9.509-9.509-9.509s-9.509 4.257-9.509 9.509c0 5.252 4.257 9.509 9.509 9.509 2.309 0 4.392-0.815 6.068-2.174l6.747 7.019c0.091 0.091 0.226 0.136 0.317 0.136s0.226-0.045 0.317-0.136c0.181-0.181 0.181-0.453 0-0.634v0.001zM0.905 9.509c0-4.755 3.849-8.604 8.604-8.604s8.604 3.849 8.604 8.604c0 4.755-3.849 8.604-8.604 8.604s-8.604-3.849-8.604-8.604v0z"></path>
</svg>
