<?xml version="1.0" encoding="utf-8"?>
<!-- Generated by IcoMoon.io -->
<!DOCTYPE svg PUBLIC "-//W3C//DTD SVG 1.1//EN" "http://www.w3.org/Graphics/SVG/1.1/DTD/svg11.dtd">
<svg version="1.1" xmlns="http://www.w3.org/2000/svg" xmlns:xlink="http://www.w3.org/1999/xlink" width="24" height="24" viewBox="0 0 24 24">
<path fill="rgb(255, 64, 129)" d="M22.82 21.853l-5.726-5.937c1.474-1.768 2.274-3.958 2.274-6.232 0-5.347-4.337-9.684-9.684-9.684s-9.684 4.337-9.684 9.684c0 5.347 4.337 9.684 9.684 9.684 2.021 0 3.916-0.589 5.558-1.768l5.726 5.979c0.253 0.253 0.547 0.379 0.926 0.379 0.337 0 0.632-0.126 0.884-0.337 0.505-0.463 0.505-1.263 0.042-1.768v0zM9.683 2.526c3.958 0 7.158 3.2 7.158 7.158s-3.2 7.158-7.158 7.158c-3.958 0-7.158-3.2-7.158-7.158s3.2-7.158 7.158-7.158v0z"></path>
</svg>
