<?xml version="1.0" encoding="utf-8"?>
<!-- Generated by IcoMoon.io -->
<!DOCTYPE svg PUBLIC "-//W3C//DTD SVG 1.1//EN" "http://www.w3.org/Graphics/SVG/1.1/DTD/svg11.dtd">
<svg version="1.1" xmlns="http://www.w3.org/2000/svg" xmlns:xlink="http://www.w3.org/1999/xlink" width="24" height="24" viewBox="0 0 24 24">
<path fill="rgb(255, 64, 129)" d="M24 7.8c0-0.12-0.040-0.2-0.12-0.28l-3.96-6.32c0-0.040-0.040-0.040-0.080-0.080l-0.12-0.080c-0.040-0.040-0.080-0.040-0.12-0.040h-15.2c-0.040 0-0.080 0-0.12 0.040-0.040 0-0.080 0.040-0.12 0.080l-0.080 0.080-4 6.4v0.16l-0.080 0.040v0.16c0.1-8.16 0 0.040 0.040 0.040v0.040l11.6 14.4c0.040 0.040 0.080 0.080 0.12 0.080h0.040c0.080 0.080 0.16 0.080 0.2 0.080s0.080 0 0.12-0.040c0.040 0 0.040-0.040 0.040-0.040 0.040 0 0.040-0.040 0.080-0.080l11.56-14.36c0.16-0.080 0.2-0.16 0.2-0.28v0zM12.84 1.8h6.2l-1.96 5.2-4.24-5.2zM16.36 7.4h-8.72l4.36-5.36 4.36 5.36zM6.88 7.040l-1.92-5.24h6.2l-4.28 5.24zM16.64 8.2l-4.72 12.64-4.6-12.64h9.32zM19.68 2.32l3.2 5.080h-5.080l1.88-5.080zM4.32 2.32l1.84 5.080h-5.040l3.2-5.080zM6.44 8.2l4.36 11.88-9.56-11.88h5.2zM12.96 20.36l4.52-12.16h5.28l-9.8 12.16z"></path>
</svg>
