<?xml version="1.0" encoding="utf-8"?>
<!-- Generated by IcoMoon.io -->
<!DOCTYPE svg PUBLIC "-//W3C//DTD SVG 1.1//EN" "http://www.w3.org/Graphics/SVG/1.1/DTD/svg11.dtd">
<svg version="1.1" xmlns="http://www.w3.org/2000/svg" xmlns:xlink="http://www.w3.org/1999/xlink" width="24" height="24" viewBox="0 0 24 24">
<path fill="rgb(255, 64, 129)" d="M23.791 10.884c-0.199-0.289-4.972-7.053-15.215-4.449-0.451 0.116-0.883 0.241-1.298 0.379l-1.373-2.44c-0.296-0.524-0.96-0.71-1.486-0.416-0.525 0.297-0.711 0.961-0.416 1.487l1.243 2.206c-2.009 1.016-3.467 2.407-4.351 4.155-1.268 2.512-0.994 5.177-0.375 6.698 0.171 0.419 0.577 0.679 1.010 0.679 0.105 0 0.211-0.015 0.315-0.046l9.267-2.801c0.614-0.182 0.985-0.96 0.636-1.58l-3.377-6c0.24-0.073 0.488-0.142 0.742-0.205 6.284-1.598 10.112 0.836 11.822 2.409l-6.473 1.984-1.619-2.807c-0.301-0.523-0.969-0.701-1.49-0.4s-0.701 0.969-0.4 1.491l2.053 3.56c0.254 0.44 0.78 0.647 1.264 0.497l8.939-2.74c0.332-0.101 0.596-0.356 0.71-0.683 0.117-0.328 0.069-0.691-0.128-0.977v0zM2.844 12.79c0.677-1.343 1.841-2.425 3.475-3.233l2.863 5.085-6.902 2.087c-0.182-1.031-0.164-2.494 0.565-3.938v0z"></path>
</svg>
