<?xml version="1.0" encoding="utf-8"?>
<!-- Generated by IcoMoon.io -->
<!DOCTYPE svg PUBLIC "-//W3C//DTD SVG 1.1//EN" "http://www.w3.org/Graphics/SVG/1.1/DTD/svg11.dtd">
<svg version="1.1" xmlns="http://www.w3.org/2000/svg" xmlns:xlink="http://www.w3.org/1999/xlink" width="24" height="24" viewBox="0 0 24 24">
<path fill="rgb(255, 64, 129)" d="M11.999 0c-6.616 0-11.999 5.383-11.999 12 0 5.177 3.298 9.754 8.276 11.406 0.104 0.019 0.199 0.027 0.286 0.027 0.623 0 1.059-0.436 1.059-1.061l0.001-0.286c0.001-0.376 0.004-0.988-0.001-1.714-0.001-0.15-0.069-0.293-0.188-0.387s-0.271-0.132-0.419-0.099c-0.378 0.082-0.734 0.123-1.062 0.123-1.777 0-2.199-1.245-2.228-1.332-0.192-0.487-0.414-0.86-0.626-1.143 0.188 0.198 0.288 0.372 0.293 0.38 0.727 1.244 1.74 1.505 2.463 1.505 0.621 0 1.169-0.187 1.52-0.345 0.156-0.070 0.266-0.216 0.29-0.386 0.076-0.536 0.281-0.984 0.563-1.229 0.15-0.13 0.209-0.336 0.15-0.525-0.059-0.188-0.224-0.327-0.421-0.35-2.371-0.271-4.795-1.1-4.795-5.188 0-1.060 0.354-1.984 1.053-2.748 0.13-0.144 0.167-0.349 0.094-0.527-0.103-0.253-0.389-1.135 0.010-2.373 0.362 0.025 1.179 0.204 2.522 1.115 0.121 0.082 0.272 0.107 0.414 0.068 0.851-0.237 1.801-0.365 2.743-0.37 0.96 0.005 1.885 0.129 2.749 0.37 0.14 0.039 0.293 0.014 0.414-0.068 1.342-0.91 2.156-1.089 2.52-1.115 0.41 1.275 0.085 2.193 0.011 2.375-0.073 0.18-0.036 0.385 0.094 0.527 0.698 0.762 1.052 1.687 1.052 2.748 0 4.094-2.43 4.914-4.806 5.177-0.197 0.022-0.363 0.159-0.423 0.349-0.059 0.189 0 0.396 0.15 0.527 0.185 0.159 0.614 0.65 0.614 1.741v3.184c0 0.622 0.435 1.058 1.058 1.058 0.092 0 0.193-0.009 0.37-0.047 4.905-1.637 8.2-6.212 8.2-11.387 0-6.617-5.384-12-12.001-12v0zM15.549 22.421c-0.043 0.009-0.083 0.013-0.118 0.013l-0.058-0.058v-3.184c0-0.767-0.168-1.334-0.38-1.745 2.285-0.41 4.844-1.643 4.844-6.049 0-1.216-0.375-2.289-1.116-3.195 0.165-0.569 0.345-1.703-0.216-3.118-0.055-0.139-0.17-0.246-0.313-0.292-0.047-0.015-0.182-0.050-0.407-0.050-0.56 0-1.526 0.206-2.993 1.165-0.885-0.226-1.822-0.342-2.794-0.347-0.968 0.005-1.904 0.122-2.788 0.347-1.467-0.959-2.434-1.165-2.994-1.165-0.227 0-0.362 0.035-0.409 0.050-0.143 0.046-0.258 0.153-0.313 0.293-0.559 1.414-0.38 2.548-0.214 3.117-0.741 0.908-1.117 1.982-1.117 3.195 0 4.406 2.56 5.643 4.842 6.060-0.121 0.241-0.215 0.511-0.278 0.801-0.229 0.082-0.54 0.162-0.871 0.162-0.68 0-1.203-0.33-1.594-0.998-0.030-0.055-0.756-1.344-2.205-1.442-0.532 0-0.883 0.188-0.988 0.529-0.166 0.535 0.415 0.933 0.695 1.119 0.024 0.012 0.6 0.319 1.018 1.376 0.024 0.082 0.631 2.006 3.172 2.006 0.216 0 0.439-0.013 0.67-0.042 0.001 0.461 0 0.848-0.001 1.114l-0.060 0.351c-0.034-0.002-0.069-0.005-0.039 0.006-4.501-1.499-7.524-5.694-7.524-10.44 0-6.065 4.935-11 10.999-11 6.066 0 11.001 4.935 11.001 11 0 4.743-3.021 8.938-7.451 10.421v0z"></path>
</svg>
