<?xml version="1.0" encoding="utf-8"?>
<!-- Generated by IcoMoon.io -->
<!DOCTYPE svg PUBLIC "-//W3C//DTD SVG 1.1//EN" "http://www.w3.org/Graphics/SVG/1.1/DTD/svg11.dtd">
<svg version="1.1" xmlns="http://www.w3.org/2000/svg" xmlns:xlink="http://www.w3.org/1999/xlink" width="24" height="24" viewBox="0 0 24 24">
<path fill="rgb(255, 64, 129)" d="M22.984 14.548c0.17-0.783 0.26-1.59 0.26-2.422 0-6.233-5.053-11.286-11.285-11.286-0.658 0-1.302 0.058-1.931 0.165-1.007-0.635-2.201-1.005-3.481-1.005-3.615 0-6.546 2.932-6.546 6.547 0 1.208 0.329 2.338 0.899 3.31-0.15 0.734-0.229 1.492-0.229 2.27 0 6.234 5.054 11.285 11.286 11.285 0.706 0 1.396-0.065 2.065-0.188 0.923 0.495 1.976 0.775 3.095 0.775 3.615 0 6.545-2.93 6.545-6.545 0.002-1.042-0.243-2.030-0.678-2.906v0zM11.927 19.88c-5 0-6.622-2.937-6.622-4.538 0-0.411 0.159-0.771 0.471-1.064 0.309-0.291 0.705-0.438 1.178-0.438 0.388 0 0.723 0.116 0.994 0.345 1.063 0.906 0.746 3.142 3.894 3.142 1.398 0 3.109-0.602 3.109-2.001 0-1.591-2.121-1.913-3.711-2.249-2.908-0.619-5.627-1.588-5.627-4.565 0-3.065 3.067-4.326 6.269-4.326 4.16 0 5.947 2.198 5.947 3.796 0 0.786-0.658 1.574-1.623 1.574-0.416 0-0.744-0.103-0.971-0.303-1.048-0.936-0.824-2.585-3.569-2.585-0.808 0-1.467 0.162-1.954 0.483-0.825 0.539-0.849 1.279-0.475 1.738 0.608 0.75 2.198 1.028 3.143 1.246 3.45 0.74 6.157 1.638 6.157 4.867 0 3.303-3.112 4.878-6.609 4.878v0z"></path>
</svg>
