<?xml version="1.0" encoding="utf-8"?>
<!-- Generated by IcoMoon.io -->
<!DOCTYPE svg PUBLIC "-//W3C//DTD SVG 1.1//EN" "http://www.w3.org/Graphics/SVG/1.1/DTD/svg11.dtd">
<svg version="1.1" xmlns="http://www.w3.org/2000/svg" xmlns:xlink="http://www.w3.org/1999/xlink" width="24" height="24" viewBox="0 0 24 24">
<path fill="rgb(255, 64, 129)" d="M12.461 0c-6.55 0-9.853 4.696-9.853 8.611 0 2.371 0.897 4.482 2.823 5.266 0.316 0.129 0.599 0.004 0.69-0.344 0.065-0.241 0.215-0.851 0.283-1.107 0.092-0.345 0.057-0.465-0.198-0.768-0.555-0.653-0.91-1.502-0.91-2.703 0-3.484 2.607-6.603 6.788-6.603 3.702 0 5.736 2.262 5.736 5.283 0 3.975-1.76 7.329-4.371 7.329-1.442 0-2.521-1.192-2.176-2.656 0.414-1.748 1.218-3.63 1.218-4.892 0-1.128-0.605-2.069-1.859-2.069-1.474 0-2.659 1.525-2.659 3.569 0 1.301 0.44 2.181 0.44 2.181s-1.508 6.392-1.773 7.512c-0.527 2.23-0.079 4.963-0.042 5.238 0.022 0.164 0.234 0.203 0.328 0.081 0.136-0.178 1.892-2.348 2.489-4.513 0.169-0.615 0.969-3.79 0.969-3.79 0.479 0.914 1.879 1.718 3.368 1.718 4.432 0 7.438-4.039 7.438-9.447-0.002-4.088-3.464-7.897-8.729-7.897v0z"></path>
</svg>
