<?xml version="1.0" encoding="utf-8"?>
<!-- Generated by IcoMoon.io -->
<!DOCTYPE svg PUBLIC "-//W3C//DTD SVG 1.1//EN" "http://www.w3.org/Graphics/SVG/1.1/DTD/svg11.dtd">
<svg version="1.1" xmlns="http://www.w3.org/2000/svg" xmlns:xlink="http://www.w3.org/1999/xlink" width="24" height="24" viewBox="0 0 24 24">
<path fill="rgb(255, 64, 129)" d="M13.626 9.504c0.513 0.965 0.954 1.963 1.334 2.987 1.541-0.301 3.12-0.459 4.732-0.459 1.048 0 2.636 0.13 3.792 0.271 0.082-2.866-0.877-5.502-2.589-7.589-2.181 2.034-4.632 3.654-7.269 4.79v0 0zM19.692 13.032c-1.496 0-2.963 0.145-4.396 0.415 0.786 2.413 1.204 4.957 1.204 7.553 0 0.36-0.026 1.007-0.058 1.609 3.763-1.577 6.504-5.098 6.979-9.306-1.134-0.141-2.732-0.271-3.729-0.271v0 0zM0.641 10.292c1.174 0.131 2.502 0.208 3.359 0.208 2.821 0 5.584-0.517 8.19-1.496-1.554-2.62-3.635-4.938-6.13-6.839-2.864 1.735-4.905 4.678-5.419 8.127v0zM15.42 22.983c0.039-0.685 0.080-1.562 0.080-1.983 0-2.525-0.415-4.998-1.189-7.343-4.001 0.941-7.698 2.954-10.925 5.945 2.107 2.385 5.18 3.898 8.614 3.898 1.191 0 2.34-0.181 3.42-0.517v0zM13.977 12.707c-0.366-0.968-0.794-1.912-1.284-2.824-2.762 1.057-5.695 1.617-8.693 1.617-0.905 0-2.251-0.081-3.464-0.217-0.015 0.239-0.036 0.475-0.036 0.717 0 2.557 0.845 4.911 2.256 6.821 3.316-3.060 7.112-5.13 11.221-6.114v0 0zM7.024 1.645c2.481 1.962 4.55 4.329 6.104 6.986 2.576-1.096 4.97-2.673 7.097-4.66-2.088-2.139-4.999-3.471-8.225-3.471-1.785 0-3.468 0.418-4.976 1.145v0 0z"></path>
</svg>
