<?xml version="1.0" encoding="utf-8"?>
<!-- Generated by IcoMoon.io -->
<!DOCTYPE svg PUBLIC "-//W3C//DTD SVG 1.1//EN" "http://www.w3.org/Graphics/SVG/1.1/DTD/svg11.dtd">
<svg version="1.1" xmlns="http://www.w3.org/2000/svg" xmlns:xlink="http://www.w3.org/1999/xlink" width="24" height="24" viewBox="0 0 24 24">
<path fill="rgb(255, 64, 129)" d="M9.071 14.471c-0.461-0.141-0.949-0.216-1.455-0.222h-0.056c-2.385 0-4.399 1.462-4.399 3.193 0 1.84 1.78 3.282 4.053 3.282 3.687 0 4.461-1.736 4.461-3.193 0-0.205-0.025-0.418-0.078-0.643-0.224-0.877-0.958-1.377-1.978-2.073l-0.408-0.279c-0.044-0.027-0.090-0.050-0.14-0.065v0zM10.625 17.128c0.033 0.139 0.049 0.275 0.049 0.404 0 0.542 0 2.193-3.461 2.193-1.712 0-3.053-1.002-3.053-2.282 0-1.148 1.62-2.193 3.399-2.193v-0.5l0.051 0.5c0.379 0.004 0.748 0.057 1.097 0.157l0.351 0.239c0.897 0.611 1.438 0.98 1.567 1.482v0zM13.709 1h-6.101c-0.721 0-1.452 0.126-2.173 0.375-2.423 0.833-4.116 2.921-4.116 5.077 0 2.829 2.074 5.050 4.909 5.371-0.004 0.062-0.006 0.123-0.006 0.184 0 0.252 0.032 0.5 0.097 0.741-2.645 0.199-4.969 1.588-5.906 3.583-0.274 0.583-0.413 1.178-0.413 1.767 0 0.586 0.15 1.151 0.445 1.682 0.654 1.169 2.024 2.068 3.857 2.53 0.917 0.232 1.9 0.35 2.923 0.35 0.926 0 1.812-0.12 2.633-0.358 2.638-0.765 4.342-2.735 4.342-5.018 0-2.131-0.714-3.467-2.546-4.764-0.622-0.44-1.086-0.983-1.192-1.17 0.007-0.208 0.080-0.343 0.795-0.9 1.353-1.059 2.098-2.464 2.098-3.958 0-0.966-0.217-1.871-0.621-2.626 0.064-0.027 0.125-0.063 0.184-0.104l1.362-0.987c0.348-0.249 0.492-0.69 0.359-1.097-0.13-0.406-0.505-0.678-0.93-0.678v0zM12.344 2.947h-0.488c-0.194 0-0.371 0.112-0.453 0.288s-0.055 0.384 0.069 0.532c0.57 0.684 0.885 1.65 0.885 2.724 0 1.179-0.609 2.305-1.713 3.17-0.96 0.748-1.181 1.078-1.181 1.787 0.030 0.584 1.101 1.524 1.615 1.888 1.568 1.109 2.124 2.143 2.124 3.947 0 1.827-1.421 3.42-3.621 4.058-1.555 0.45-3.454 0.398-5.033-0.001-1.564-0.394-2.711-1.121-3.229-2.048-0.212-0.378-0.319-0.781-0.319-1.194 0-0.441 0.107-0.892 0.319-1.342 0.852-1.813 3.124-3.032 5.734-3.032 0.178 0 0.343-0.095 0.432-0.249 0.090-0.154 0.090-0.344 0.002-0.499-0.178-0.313-0.265-0.63-0.265-0.969 0-0.169 0.022-0.34 0.069-0.522 0.037-0.147 0.005-0.303-0.087-0.425s-0.234-0.194-0.387-0.198c-2.606-0.059-4.499-1.914-4.499-4.41 0-1.736 1.415-3.435 3.441-4.132 0.617-0.213 1.239-0.32 1.849-0.32l6.088-0.037-1.352 0.984zM6.782 2.823h-0.004c-0.618 0-1.188 0.262-1.603 0.737-0.598 0.682-0.854 1.733-0.702 2.883 0.271 2.070 1.776 3.793 3.393 3.84 0.636 0 1.196-0.255 1.617-0.736 0.603-0.687 0.872-1.786 0.72-2.939-0.271-2.073-1.746-3.735-3.367-3.784l-0.054-0.001zM9.212 6.738c0.113 0.859-0.072 1.683-0.481 2.15-0.232 0.266-0.516 0.395-0.872 0.395-1.073-0.031-2.191-1.42-2.395-2.97-0.113-0.865 0.055-1.627 0.463-2.094 0.229-0.263 0.515-0.396 0.85-0.396v-0.5l0.040 0.5c1.095 0.034 2.192 1.368 2.395 2.915v0zM23.5 9h-2.5v-2.5c0-0.276-0.224-0.5-0.5-0.5h-2c-0.276 0-0.5 0.224-0.5 0.5v2.5h-2.5c-0.276 0-0.5 0.224-0.5 0.5v2c0 0.276 0.224 0.5 0.5 0.5h2.5v2.5c0 0.276 0.224 0.5 0.5 0.5h2c0.276 0 0.5-0.224 0.5-0.5v-2.5h2.5c0.276 0 0.5-0.224 0.5-0.5v-2c0-0.276-0.224-0.5-0.5-0.5v0zM23 11h-2.5c-0.276 0-0.5 0.224-0.5 0.5v2.5h-1v-2.5c0-0.276-0.224-0.5-0.5-0.5h-2.5v-1h2.5c0.276 0 0.5-0.224 0.5-0.5v-2.5h1v2.5c0 0.276 0.224 0.5 0.5 0.5h2.5v1z"></path>
</svg>
