<?xml version="1.0" encoding="utf-8"?>
<!-- Generated by IcoMoon.io -->
<!DOCTYPE svg PUBLIC "-//W3C//DTD SVG 1.1//EN" "http://www.w3.org/Graphics/SVG/1.1/DTD/svg11.dtd">
<svg version="1.1" xmlns="http://www.w3.org/2000/svg" xmlns:xlink="http://www.w3.org/1999/xlink" width="24" height="24" viewBox="0 0 24 24">
<path fill="rgb(255, 64, 129)" d="M11.999 0c-6.626 0-11.999 5.372-11.999 12 0 5.303 3.437 9.8 8.207 11.389 0.599 0.109 0.789-0.246 0.789-0.565 0-0.286 0.006-1.082 0-2.084-3.337 0.724-4.029-1.581-4.029-1.581-0.545-1.387-1.33-1.755-1.33-1.755-1.090-0.745 0.081-0.729 0.081-0.729 1.203 0.083 1.839 1.235 1.839 1.235 1.071 1.834 2.808 1.304 3.491 0.998 0.11-0.774 0.419-1.305 0.763-1.603-2.665-0.305-5.466-1.333-5.466-5.933 0-1.31 0.467-2.38 1.235-3.22-0.124-0.302-0.537-1.522 0.116-3.174 0 0 1.009-0.323 3.299 1.231 0.958-0.267 1.985-0.4 3.005-0.405 1.019 0.005 2.045 0.138 3.005 0.405 2.29-1.553 3.296-1.231 3.296-1.231 0.654 1.652 0.242 2.874 0.119 3.175 0.768 0.84 1.234 1.911 1.234 3.22 0 4.612-2.805 5.625-5.479 5.921 0.43 0.373 0.821 1.093 0.821 2.212v3.322c0 0.321 0.194 0.675 0.803 0.559 4.765-1.59 8.199-6.087 8.199-11.387 0-6.628-5.372-12-12.001-12v0z"></path>
</svg>
