<?xml version="1.0" encoding="utf-8"?>
<!-- Generated by IcoMoon.io -->
<!DOCTYPE svg PUBLIC "-//W3C//DTD SVG 1.1//EN" "http://www.w3.org/Graphics/SVG/1.1/DTD/svg11.dtd">
<svg version="1.1" xmlns="http://www.w3.org/2000/svg" xmlns:xlink="http://www.w3.org/1999/xlink" width="24" height="24" viewBox="0 0 24 24">
<path fill="rgb(255, 64, 129)" d="M18.139 7.13c-0.095-0.105-0.23-0.165-0.371-0.165h-3.768v-1.405c0-0.282 0.058-0.605 0.512-0.605h2.988c0.276 0 0.5-0.224 0.5-0.5v-3.942c0-0.275-0.223-0.499-0.499-0.5l-4.331-0.013c-4.797 0-5.17 4.072-5.17 5.32v1.645h-2.5c-0.276 0-0.5 0.224-0.5 0.5v4c0 0.276 0.224 0.5 0.5 0.5h2.5v11.5c0 0.276 0.224 0.5 0.5 0.5h5c0.276 0 0.5-0.224 0.5-0.5v-11.5h3.351c0.256 0 0.471-0.193 0.497-0.448l0.417-4c0.015-0.141-0.031-0.281-0.126-0.387v0zM16.9 10.965h-3.4c-0.276 0-0.5 0.224-0.5 0.5v11.5h-4v-11.5c0-0.276-0.224-0.5-0.5-0.5h-2.5v-3h2.5c0.276 0 0.5-0.224 0.5-0.5v-2.145c0-1.613 0.542-4.32 4.169-4.32l3.831 0.012v2.943h-2.488c-0.698 0-1.512 0.421-1.512 1.605v1.905c0 0.276 0.224 0.5 0.5 0.5h3.713l-0.313 3z"></path>
</svg>
