<?xml version="1.0" encoding="utf-8"?>
<!-- Generated by IcoMoon.io -->
<!DOCTYPE svg PUBLIC "-//W3C//DTD SVG 1.1//EN" "http://www.w3.org/Graphics/SVG/1.1/DTD/svg11.dtd">
<svg version="1.1" xmlns="http://www.w3.org/2000/svg" xmlns:xlink="http://www.w3.org/1999/xlink" width="24" height="24" viewBox="0 0 24 24">
<path fill="rgb(255, 64, 129)" d="M23.327 5.012c-0.144-0.17-0.383-0.226-0.586-0.134-0.346 0.153-0.653 0.23-0.939 0.235 0.323-0.382 0.452-0.797 0.624-1.348l0.088-0.282c0.063-0.198-0.003-0.414-0.165-0.543-0.163-0.13-0.389-0.146-0.567-0.038-0.771 0.457-1.6 0.789-2.468 0.987-0.934-0.886-2.186-1.389-3.479-1.389-2.781 0-5.044 2.263-5.044 5.044 0 0.164 0.008 0.328 0.023 0.491-3.266-0.33-6.294-1.956-8.384-4.52-0.104-0.127-0.27-0.191-0.427-0.183-0.164 0.015-0.311 0.106-0.393 0.248-0.447 0.769-0.683 1.646-0.683 2.537 0 1.045 0.321 2.044 0.898 2.876-0.065-0.031-0.129-0.064-0.192-0.1-0.155-0.086-0.344-0.055-0.496 0.035s-0.247 0.283-0.247 0.46c0 1.626 0.786 3.109 2.024 4.039-0.117 0.016-0.226 0.073-0.306 0.164-0.117 0.132-0.155 0.316-0.102 0.484 0.521 1.622 1.809 2.839 3.39 3.301-1.594 0.922-3.458 1.305-5.338 1.086-0.23-0.027-0.45 0.109-0.529 0.328-0.079 0.22 0.005 0.464 0.201 0.59 2.165 1.388 4.667 2.12 7.236 2.12 8.405 0 13.428-6.828 13.428-13.429 0-0.112-0.001-0.224-0.003-0.335 0.114-0.080 0.23-0.159 0.347-0.239 0.78-0.533 1.587-1.084 2.123-1.885 0.123-0.185 0.109-0.43-0.034-0.6v0zM20.673 6.672c-0.199 0.135-0.395 0.27-0.583 0.406-0.137 0.099-0.214 0.26-0.207 0.428 0.008 0.188 0.011 0.375 0.011 0.565-0.001 6.11-4.649 12.429-12.428 12.429-1.707 0-3.382-0.35-4.933-1.022 1.827-0.176 3.541-0.86 5.003-2.006 0.167-0.13 0.233-0.352 0.166-0.552s-0.253-0.337-0.465-0.341c-1.46-0.027-2.769-0.834-3.46-2.075 0.467 0.003 0.937-0.054 1.39-0.176 0.224-0.062 0.376-0.269 0.368-0.5-0.008-0.232-0.174-0.428-0.401-0.474-1.626-0.327-2.867-1.619-3.172-3.224 0.473 0.16 0.969 0.252 1.469 0.268 0.242 0.016 0.424-0.133 0.493-0.346s-0.012-0.445-0.198-0.569c-1.126-0.753-1.799-2.011-1.799-3.366 0-0.472 0.082-0.937 0.241-1.376 2.377 2.592 5.694 4.162 9.216 4.339 0.164 0.010 0.308-0.058 0.409-0.179s0.139-0.281 0.104-0.434c-0.069-0.298-0.104-0.609-0.104-0.923 0-2.23 1.814-4.044 4.044-4.044 1.114 0 2.189 0.466 2.952 1.278 0.119 0.125 0.293 0.182 0.461 0.149 0.646-0.128 1.273-0.32 1.876-0.575-0.135 0.208-0.323 0.365-0.665 0.569-0.157 0.094-0.25 0.267-0.243 0.45s0.114 0.347 0.278 0.428c0.332 0.164 0.658 0.262 0.989 0.299-0.262 0.198-0.539 0.388-0.812 0.574v0z"></path>
</svg>
