<?xml version="1.0" encoding="utf-8"?>
<!-- Generated by IcoMoon.io -->
<!DOCTYPE svg PUBLIC "-//W3C//DTD SVG 1.1//EN" "http://www.w3.org/Graphics/SVG/1.1/DTD/svg11.dtd">
<svg version="1.1" xmlns="http://www.w3.org/2000/svg" xmlns:xlink="http://www.w3.org/1999/xlink" width="24" height="24" viewBox="0 0 24 24">
<path fill="rgb(255, 64, 129)" d="M11.366 12.928c-0.729-0.516-1.393-1.273-1.404-1.505 0-0.425 0.038-0.627 0.988-1.368 1.229-0.962 1.906-2.228 1.906-3.564 0-1.212-0.37-2.289-1.001-3.044h0.488c0.102 0 0.2-0.033 0.282-0.091l1.364-0.989c0.169-0.121 0.24-0.338 0.176-0.536-0.063-0.196-0.247-0.331-0.456-0.331h-6.101c-0.667 0-1.345 0.118-2.011 0.347-2.225 0.766-3.778 2.66-3.778 4.605 0 2.755 2.134 4.845 4.987 4.91-0.056 0.22-0.084 0.434-0.084 0.645 0 0.425 0.108 0.827 0.33 1.216h-0.079c-2.72 0-5.175 1.334-6.107 3.32-0.243 0.517-0.366 1.039-0.366 1.555 0 0.501 0.129 0.984 0.382 1.438 0.585 1.046 1.843 1.861 3.544 2.289 0.877 0.223 1.82 0.335 2.8 0.335 0.88 0 1.718-0.114 2.494-0.338 2.419-0.702 3.981-2.482 3.981-4.538 0-1.972-0.633-3.152-2.335-4.356v0zM3.66 17.443c0-1.435 1.823-2.693 3.899-2.693h0.057c0.451 0.005 0.892 0.072 1.309 0.2 0.142 0.098 0.28 0.192 0.412 0.282 0.962 0.656 1.597 1.088 1.774 1.783 0.041 0.175 0.063 0.35 0.063 0.519 0 1.787-1.333 2.693-3.961 2.693-1.992-0.002-3.553-1.225-3.553-2.784v0zM5.551 3.89c0.324-0.371 0.75-0.566 1.227-0.566h0.055c1.349 0.041 2.639 1.543 2.876 3.349 0.133 1.013-0.092 1.964-0.601 2.544-0.326 0.372-0.745 0.566-1.242 0.566h-0.022c-1.321-0.040-2.639-1.6-2.875-3.405-0.133-1.008 0.080-1.916 0.582-2.488v0zM23.5 9.5h-3v-3h-2v3h-3v2h3v3h2v-3h3v-2z"></path>
</svg>
