<?xml version="1.0" encoding="utf-8"?>
<!-- Generated by IcoMoon.io -->
<!DOCTYPE svg PUBLIC "-//W3C//DTD SVG 1.1//EN" "http://www.w3.org/Graphics/SVG/1.1/DTD/svg11.dtd">
<svg version="1.1" xmlns="http://www.w3.org/2000/svg" xmlns:xlink="http://www.w3.org/1999/xlink" width="24" height="24" viewBox="0 0 24 24">
<path fill="rgb(255, 64, 129)" d="M12.442 0c-6.223 0-9.942 4.451-9.942 8.752 0 2.682 1.127 4.74 3.016 5.51 0.576 0.238 1.179-0.067 1.334-0.664l0.271-1.062c0.144-0.541 0.015-0.824-0.293-1.188-0.514-0.604-0.753-1.325-0.753-2.266 0-2.825 2.104-5.828 6.005-5.828 3.083 0 4.997 1.748 4.997 4.563 0 3.658-1.621 6.524-3.689 6.524-0.542 0-1.028-0.221-1.333-0.606-0.287-0.362-0.381-0.832-0.265-1.323 0.142-0.596 0.331-1.208 0.515-1.803 0.342-1.107 0.666-2.153 0.666-3 0-1.485-0.917-2.483-2.282-2.483-1.709 0-3.048 1.723-3.048 3.92 0 1.023 0.262 1.805 0.397 2.137l-1.663 7.036c-0.435 1.843-0.222 4.016-0.049 5.202 0.046 0.336 0.327 0.579 0.668 0.579 0.212 0 0.408-0.096 0.571-0.306 0.699-0.894 1.944-2.663 2.438-4.455 0.104-0.374 0.451-1.741 0.691-2.689 0.752 0.651 1.867 1.071 2.983 1.071 4.42 0 7.628-4.018 7.628-9.553 0-3.965-3.315-8.068-8.863-8.068v0zM13.677 16.621c-1.291 0-2.43-0.701-2.785-1.379-0.096-0.184-0.298-0.296-0.501-0.264-0.206 0.025-0.376 0.173-0.426 0.375 0 0-0.764 3.034-0.926 3.621-0.28 1.016-0.925 2.259-1.824 3.518-0.167-1.549-0.121-2.964 0.133-4.042l1.7-7.199c0.026-0.113 0.012-0.232-0.039-0.337-0.003-0.008-0.37-0.768-0.37-1.868 0-1.638 0.899-2.92 2.048-2.92 1.157 0 1.282 1.037 1.282 1.483 0 0.695-0.302 1.671-0.621 2.706-0.19 0.615-0.386 1.25-0.533 1.867-0.188 0.795-0.026 1.566 0.454 2.174 0.496 0.627 1.268 0.985 2.118 0.985 2.673 0 4.689-3.234 4.689-7.524 0-3.379-2.354-5.563-5.997-5.563-3.994 0-7.005 2.936-7.005 6.828 0 1.176 0.324 2.129 0.99 2.912 0.090 0.107 0.113 0.147 0.116 0.147 0 0 0 0 0-0.001 0 0.005 0 0.037-0.028 0.141l-0.259 1.055c-1.499-0.611-2.394-2.325-2.394-4.584 0.001-3.219 2.775-7.752 8.943-7.752 4.922 0 7.863 3.594 7.863 7.068 0 5.036-2.726 8.553-6.628 8.553v0z"></path>
</svg>
