<?xml version="1.0" encoding="utf-8"?>
<!-- Generated by IcoMoon.io -->
<!DOCTYPE svg PUBLIC "-//W3C//DTD SVG 1.1//EN" "http://www.w3.org/Graphics/SVG/1.1/DTD/svg11.dtd">
<svg version="1.1" xmlns="http://www.w3.org/2000/svg" xmlns:xlink="http://www.w3.org/1999/xlink" width="24" height="24" viewBox="0 0 24 24">
<path fill="rgb(255, 64, 129)" d="M5.484 22.792h-5.455v-14.182h5.455v14.182zM2.747 6.429h-0.033c-1.647 0-2.714-1.289-2.714-2.707 0-1.45 1.1-2.631 2.779-2.631 1.681 0 2.714 1.22 2.748 2.669-0.001 1.418-1.067 2.668-2.78 2.668v0zM15.302 12.974c-1.205 0-2.182 0.977-2.182 2.182v7.636h-5.455c0 0 0.064-13.091 0-14.182h5.455v1.62c0 0 1.689-1.574 4.296-1.574 3.231 0 5.522 2.339 5.522 6.877v7.259h-5.455v-7.636c0-1.204-0.976-2.182-2.182-2.182v0z"></path>
</svg>
