<?xml version="1.0" encoding="utf-8"?>
<!-- Generated by IcoMoon.io -->
<!DOCTYPE svg PUBLIC "-//W3C//DTD SVG 1.1//EN" "http://www.w3.org/Graphics/SVG/1.1/DTD/svg11.dtd">
<svg version="1.1" xmlns="http://www.w3.org/2000/svg" xmlns:xlink="http://www.w3.org/1999/xlink" width="24" height="24" viewBox="0 0 24 24">
<path fill="rgb(255, 64, 129)" d="M23.885 11.434c-0.049-0.070-4.979-7.058-15.328-4.43-0.621 0.158-1.209 0.337-1.763 0.539l-1.674-2.973-0.995 0.561 1.601 2.845c-2.277 1.029-3.901 2.488-4.846 4.359-1.241 2.461-0.977 5.062-0.374 6.543 0.089 0.221 0.302 0.357 0.529 0.357 0.055 0 0.111-0.008 0.166-0.024l9.709-2.934c0.167-0.050 0.301-0.173 0.365-0.334s0.053-0.343-0.032-0.494l-3.88-6.896c0.467-0.163 0.959-0.311 1.477-0.442 7.846-1.994 12.192 1.786 13.598 3.347l-8.12 2.49-2.641-4.578c-0.159-0.273-0.509-0.367-0.781-0.209-0.273 0.158-0.367 0.506-0.209 0.781l2.869 4.973c0.134 0.23 0.409 0.338 0.663 0.261l9.365-2.872c0.174-0.053 0.312-0.185 0.373-0.358 0.058-0.173 0.033-0.361-0.069-0.512v0zM9.896 15.386l-8.498 2.57c-0.327-1.163-0.483-3.155 0.502-5.106 0.834-1.654 2.306-2.951 4.387-3.872l3.609 6.408z"></path>
</svg>
