<?xml version="1.0" encoding="utf-8"?>
<!-- Generated by IcoMoon.io -->
<!DOCTYPE svg PUBLIC "-//W3C//DTD SVG 1.1//EN" "http://www.w3.org/Graphics/SVG/1.1/DTD/svg11.dtd">
<svg version="1.1" xmlns="http://www.w3.org/2000/svg" xmlns:xlink="http://www.w3.org/1999/xlink" width="24" height="24" viewBox="0 0 24 24">
<path fill="rgb(255, 64, 129)" d="M19.623 8.658l4.19-3.355c0.126-0.101 0.195-0.255 0.188-0.415s-0.092-0.306-0.227-0.394l-6.766-4.412c-0.183-0.12-0.425-0.107-0.593 0.034l-4.414 3.681-4.414-3.68c-0.169-0.142-0.411-0.154-0.593-0.035l-6.766 4.412c-0.134 0.088-0.219 0.234-0.227 0.394s0.062 0.314 0.187 0.415l4.19 3.355-4.19 3.354c-0.124 0.101-0.194 0.255-0.187 0.416s0.092 0.307 0.227 0.395l4.773 3.113v2.88c0 0.173 0.089 0.333 0.235 0.424l6.514 4.064c0.081 0.050 0.173 0.076 0.265 0.076s0.184-0.025 0.266-0.077l6.486-4.063c0.146-0.091 0.234-0.251 0.234-0.424v-2.88l4.773-3.114c0.135-0.087 0.219-0.234 0.227-0.395s-0.062-0.314-0.187-0.415l-4.191-3.354zM12.001 12.282l-5.87-3.624 5.87-3.623 5.87 3.623-5.87 3.624zM16.772 1.121l5.877 3.833-3.864 3.093-5.931-3.661 3.918-3.265zM7.23 1.121l3.917 3.266-5.931 3.66-3.863-3.093 5.877-3.833zM5.216 9.268l5.931 3.66-3.917 3.268-5.877-3.834 3.863-3.094zM18.001 18.539l-5.987 3.751-6.013-3.751v-1.951l0.993 0.647c0.083 0.055 0.178 0.081 0.273 0.081 0.114 0 0.228-0.039 0.32-0.116l4.414-3.681 4.414 3.682c0.092 0.077 0.206 0.116 0.32 0.116 0.095 0 0.19-0.026 0.273-0.081l0.993-0.648v1.951zM16.772 16.196l-3.917-3.268 5.931-3.66 3.864 3.093-5.878 3.835z"></path>
</svg>
