<?xml version="1.0" encoding="utf-8"?>
<!-- Generated by IcoMoon.io -->
<!DOCTYPE svg PUBLIC "-//W3C//DTD SVG 1.1//EN" "http://www.w3.org/Graphics/SVG/1.1/DTD/svg11.dtd">
<svg version="1.1" xmlns="http://www.w3.org/2000/svg" xmlns:xlink="http://www.w3.org/1999/xlink" width="24" height="24" viewBox="0 0 24 24">
<path fill="rgb(255, 64, 129)" d="M5.455 7.636h-4.909c-0.301 0-0.545 0.244-0.545 0.545v7.636c0 0.301 0.244 0.545 0.545 0.545h5.455c0.301 0 0.545-0.244 0.545-0.545v-11.455h-1.091v3.273zM5.455 15.273h-4.364v-6.545h4.364v6.545zM7.636 7.636h1.091v8.727h-1.091v-8.727zM7.636 4.364h1.091v2.182h-1.091v-2.182zM15.818 7.636h-5.455c-0.301 0-0.545 0.244-0.545 0.545v7.636c0 0.301 0.244 0.545 0.545 0.545h4.909v2.182h-5.455v1.091h6c0.301 0 0.545-0.244 0.545-0.545v-10.909c0-0.301-0.244-0.545-0.545-0.545v0zM15.273 15.273h-4.364v-6.545h4.364v6.545zM23.455 7.636h-5.455c-0.301 0-0.545 0.244-0.545 0.545v7.636c0 0.301 0.244 0.545 0.545 0.545h4.909v2.182h-5.455v1.091h6c0.301 0 0.545-0.244 0.545-0.545v-10.909c0-0.301-0.244-0.545-0.545-0.545v0zM22.909 15.273h-4.364v-6.545h4.364v6.545z"></path>
</svg>
