<?xml version="1.0" encoding="utf-8"?>
<!-- Generated by IcoMoon.io -->
<!DOCTYPE svg PUBLIC "-//W3C//DTD SVG 1.1//EN" "http://www.w3.org/Graphics/SVG/1.1/DTD/svg11.dtd">
<svg version="1.1" xmlns="http://www.w3.org/2000/svg" xmlns:xlink="http://www.w3.org/1999/xlink" width="24" height="24" viewBox="0 0 24 24">
<path fill="rgb(255, 64, 129)" d="M23.42 5.044c-0.849 0.379-1.565 0.391-2.325 0.017 0.979-0.586 1.024-0.999 1.377-2.107-0.916 0.544-1.931 0.939-3.011 1.152-0.863-0.92-2.095-1.497-3.459-1.497-2.619 0-4.742 2.125-4.742 4.742 0 0.371 0.042 0.734 0.122 1.081-3.94-0.197-7.435-2.085-9.773-4.954-0.408 0.7-0.642 1.515-0.642 2.384 0 1.646 0.838 3.096 2.109 3.946-0.777-0.025-1.508-0.238-2.146-0.593-0.001 0.020-0.001 0.039-0.001 0.059 0 2.298 1.634 4.214 3.805 4.65-0.695 0.189-1.427 0.218-2.142 0.082 0.604 1.882 2.355 3.254 4.43 3.292-2.030 1.59-4.545 2.253-7.021 1.963 2.099 1.345 4.59 2.13 7.269 2.13 8.721 0 13.49-7.225 13.49-13.491 0-0.207-0.003-0.41-0.013-0.614 0.926-0.668 2.038-1.291 2.673-2.242v0z"></path>
</svg>
