<?xml version="1.0" encoding="utf-8"?>
<!-- Generated by IcoMoon.io -->
<!DOCTYPE svg PUBLIC "-//W3C//DTD SVG 1.1//EN" "http://www.w3.org/Graphics/SVG/1.1/DTD/svg11.dtd">
<svg version="1.1" xmlns="http://www.w3.org/2000/svg" xmlns:xlink="http://www.w3.org/1999/xlink" width="24" height="24" viewBox="0 0 24 24">
<path fill="rgb(255, 64, 129)" d="M23.050 14.379c0.149-0.741 0.225-1.5 0.225-2.258 0-6.24-5.076-11.316-11.315-11.316-0.578 0-1.165 0.045-1.748 0.135-1.039-0.615-2.224-0.94-3.439-0.94-3.734 0-6.773 3.039-6.773 6.774 0 1.14 0.289 2.261 0.836 3.258-0.127 0.685-0.192 1.387-0.192 2.089 0 6.239 5.077 11.315 11.316 11.315 0.636 0 1.274-0.053 1.899-0.158 0.942 0.473 1.991 0.722 3.046 0.722 3.734 0 6.772-3.038 6.772-6.772 0.001-0.997-0.21-1.954-0.627-2.849v0zM16.905 23c-0.95 0-1.894-0.236-2.73-0.684-0.073-0.039-0.154-0.059-0.236-0.059-0.030 0-0.060 0.004-0.090 0.008-0.62 0.114-1.256 0.171-1.889 0.171-5.688 0-10.316-4.627-10.316-10.315 0-0.699 0.070-1.397 0.208-2.075 0.025-0.121 0.004-0.247-0.059-0.354-0.519-0.882-0.793-1.893-0.793-2.918 0-3.184 2.59-5.774 5.773-5.774 1.090 0 2.151 0.307 3.069 0.887 0.104 0.066 0.231 0.092 0.351 0.069 0.589-0.1 1.184-0.151 1.767-0.151 5.688 0 10.315 4.628 10.315 10.316 0 0.745-0.080 1.49-0.238 2.215-0.024 0.111-0.010 0.227 0.041 0.329 0.397 0.8 0.599 1.662 0.599 2.563 0.001 3.183-2.589 5.772-5.772 5.772v0zM16.879 11.268c-0.538-0.353-1.201-0.657-1.973-0.905-0.726-0.232-1.546-0.447-2.431-0.637-0.681-0.157-1.178-0.279-1.477-0.362-0.259-0.071-0.521-0.172-0.777-0.301-0.214-0.108-0.376-0.229-0.482-0.36-0.073-0.090-0.104-0.183-0.104-0.313 0-0.152 0.051-0.36 0.447-0.62 0.383-0.252 0.921-0.38 1.598-0.38 0.902 0 1.315 0.171 1.504 0.316 0.316 0.24 0.596 0.588 0.841 1.053 0.257 0.443 0.501 0.765 0.749 0.985 0.655 0.575 1.984 0.57 2.732-0.204 0.381-0.396 0.583-0.878 0.583-1.391 0-0.487-0.134-0.982-0.397-1.47-0.253-0.472-0.651-0.922-1.185-1.339-0.522-0.408-1.177-0.736-1.946-0.975-0.76-0.235-1.658-0.354-2.671-0.354-1.269 0-2.396 0.179-3.347 0.531-1 0.369-1.781 0.914-2.323 1.622-0.557 0.723-0.839 1.562-0.839 2.493 0 0.973 0.272 1.807 0.809 2.48 0.51 0.638 1.201 1.146 2.055 1.508 0.792 0.336 1.776 0.631 2.926 0.875 0.811 0.171 1.463 0.333 1.938 0.481 0.402 0.126 0.726 0.303 0.962 0.524 0.179 0.168 0.259 0.372 0.259 0.66 0 0.252-0.066 0.586-0.582 0.938-0.466 0.318-1.104 0.48-1.897 0.48-0.567 0-1.036-0.080-1.356-0.232-0.316-0.149-0.559-0.335-0.723-0.554-0.195-0.256-0.383-0.591-0.559-0.993-0.204-0.477-0.462-0.852-0.771-1.114-0.347-0.293-0.789-0.448-1.275-0.448-0.585 0-1.081 0.188-1.472 0.556-0.398 0.375-0.608 0.854-0.608 1.384 0 0.741 0.263 1.495 0.781 2.24 0.5 0.722 1.158 1.307 1.957 1.738 1.090 0.578 2.472 0.871 4.107 0.871 1.361 0 2.563-0.213 3.571-0.634 1.046-0.434 1.859-1.053 2.416-1.84 0.562-0.796 0.847-1.706 0.847-2.702 0-0.833-0.169-1.556-0.503-2.149-0.333-0.587-0.799-1.078-1.384-1.458v0zM17.1 17.002c-0.446 0.63-1.112 1.133-1.982 1.493-0.887 0.37-1.959 0.557-3.188 0.557-1.47 0-2.694-0.254-3.636-0.754-0.656-0.353-1.196-0.833-1.606-1.425-0.4-0.575-0.603-1.137-0.603-1.669 0-0.255 0.096-0.469 0.294-0.656 0.203-0.191 0.459-0.284 0.786-0.284 0.255 0 0.461 0.069 0.629 0.211 0.188 0.16 0.356 0.41 0.5 0.749 0.209 0.478 0.438 0.882 0.68 1.199 0.261 0.347 0.629 0.634 1.093 0.854 0.459 0.218 1.060 0.328 1.784 0.328 0.998 0 1.826-0.22 2.461-0.653 0.676-0.46 1.019-1.055 1.019-1.765 0-0.564-0.193-1.031-0.575-1.39-0.348-0.325-0.8-0.577-1.348-0.75-0.506-0.157-1.189-0.327-2.029-0.504-1.086-0.232-2.009-0.506-2.742-0.817-0.699-0.297-1.259-0.706-1.664-1.212-0.392-0.491-0.59-1.115-0.59-1.856 0-0.706 0.212-1.339 0.631-1.883 0.424-0.557 1.055-0.992 1.875-1.295 0.84-0.312 1.85-0.469 3-0.469 0.913 0 1.712 0.104 2.375 0.309 0.653 0.203 1.2 0.475 1.626 0.808 0.423 0.331 0.732 0.675 0.92 1.025 0.185 0.341 0.278 0.676 0.278 0.996 0 0.257-0.1 0.486-0.303 0.698-0.202 0.208-0.448 0.31-0.752 0.31-0.188 0-0.445-0.029-0.598-0.163-0.162-0.145-0.345-0.393-0.536-0.72-0.304-0.577-0.677-1.036-1.11-1.365-0.458-0.35-1.148-0.52-2.11-0.52-0.876 0-1.599 0.184-2.147 0.544-0.596 0.39-0.898 0.88-0.898 1.456 0 0.359 0.111 0.677 0.329 0.944 0.195 0.24 0.466 0.449 0.809 0.622 0.316 0.159 0.641 0.284 0.96 0.372 0.304 0.086 0.816 0.211 1.526 0.375 0.86 0.185 1.648 0.391 2.343 0.613 0.685 0.22 1.267 0.485 1.731 0.79 0.45 0.293 0.806 0.667 1.056 1.112 0.249 0.442 0.375 1.001 0.375 1.66 0.001 0.785-0.223 1.5-0.663 2.125v0z"></path>
</svg>
