<?xml version="1.0" encoding="utf-8"?>
<!-- Generated by IcoMoon.io -->
<!DOCTYPE svg PUBLIC "-//W3C//DTD SVG 1.1//EN" "http://www.w3.org/Graphics/SVG/1.1/DTD/svg11.dtd">
<svg version="1.1" xmlns="http://www.w3.org/2000/svg" xmlns:xlink="http://www.w3.org/1999/xlink" width="24" height="24" viewBox="0 0 24 24">
<path fill="rgb(255, 64, 129)" d="M0.5 12.535l6.766 4.414 4.734-3.949-6.822-4.21-4.678 3.745zM7.266 0.632l-6.766 4.412 4.678 3.746 6.822-4.21-4.734-3.948zM23.5 5.044l-6.766-4.412-4.734 3.948 6.822 4.21 4.678-3.746zM12 13l4.734 3.949 6.766-4.414-4.678-3.745-6.822 4.21zM17.72 17.5c-0.342 0.223-0.604 0.449-0.985 0.449-0.408 0-0.589-0.187-0.9-0.449l-3.835-3.197-3.834 3.197c-0.312 0.262-0.492 0.449-0.9 0.449-0.189 0-0.379-0.054-0.546-0.163-0.014-0.009-1.194-0.778-1.219-0.795v1.957l6.514 4.064 6.486-4.064v-1.957l-0.781 0.509z"></path>
</svg>
