<?xml version="1.0" encoding="utf-8"?>
<!-- Generated by IcoMoon.io -->
<!DOCTYPE svg PUBLIC "-//W3C//DTD SVG 1.1//EN" "http://www.w3.org/Graphics/SVG/1.1/DTD/svg11.dtd">
<svg version="1.1" xmlns="http://www.w3.org/2000/svg" xmlns:xlink="http://www.w3.org/1999/xlink" width="24" height="24" viewBox="0 0 24 24">
<path fill="rgb(255, 64, 129)" d="M12 0c-6.617 0-12 5.383-12 12s5.383 12 12 12c6.617 0 12-5.383 12-12s-5.383-12-12-12v0zM22.988 12.243c-1.070-0.13-2.28-0.211-3.295-0.211-1.596 0-3.17 0.154-4.706 0.451-0.377-1.023-0.827-2.014-1.337-2.976 2.502-1.073 4.824-2.565 6.877-4.446 1.543 1.896 2.473 4.31 2.473 6.939 0 0.082-0.011 0.162-0.012 0.243v0zM19.859 4.318c-1.997 1.83-4.257 3.279-6.696 4.313-1.465-2.5-3.389-4.744-5.713-6.633 1.388-0.635 2.926-0.998 4.55-0.998 3.078 0 5.86 1.274 7.859 3.318v0zM6.48 2.5c2.341 1.833 4.271 4.039 5.738 6.503-2.6 0.971-5.371 1.497-8.218 1.497-0.951 0-1.909-0.070-2.857-0.184 0.516-3.337 2.53-6.177 5.337-7.816v0zM1.035 11.31c0.985 0.117 1.978 0.19 2.965 0.19 3.022 0 5.964-0.564 8.718-1.612 0.488 0.908 0.916 1.846 1.279 2.811-4.029 0.957-7.756 2.931-10.863 5.785-1.335-1.82-2.134-4.058-2.134-6.484 0-0.232 0.021-0.46 0.035-0.69v0zM3.77 19.274c3.015-2.785 6.643-4.689 10.565-5.604 0.759 2.33 1.165 4.794 1.165 7.33 0 0.486-0.025 0.962-0.054 1.439-1.085 0.359-2.241 0.561-3.446 0.561-3.276 0-6.213-1.447-8.23-3.726v0zM16.461 22.046c0.015-0.349 0.039-0.703 0.039-1.046 0-2.613-0.413-5.153-1.187-7.556 1.431-0.27 2.895-0.413 4.379-0.413 0.997 0 2.188 0.081 3.232 0.211-0.445 3.94-2.978 7.25-6.463 8.804v0z"></path>
</svg>
