<?xml version="1.0" encoding="utf-8"?>
<!-- Generated by IcoMoon.io -->
<!DOCTYPE svg PUBLIC "-//W3C//DTD SVG 1.1//EN" "http://www.w3.org/Graphics/SVG/1.1/DTD/svg11.dtd">
<svg version="1.1" xmlns="http://www.w3.org/2000/svg" xmlns:xlink="http://www.w3.org/1999/xlink" width="24" height="24" viewBox="0 0 24 24">
<path fill="rgb(255, 64, 129)" d="M3.295 0.662c-1.895 0-3.324 1.366-3.324 3.177 0 1.823 1.431 3.252 3.26 3.252h0.032c1.896 0 3.325-1.381 3.325-3.227-0.043-1.856-1.427-3.202-3.292-3.202v0zM3.262 6h-0.032c-1.409 0-2.169-1.114-2.169-2.161 0-1.227 0.919-2.086 2.233-2.086 1.479 0 2.179 1.107 2.203 2.124-0.001 1.055-0.769 2.123-2.235 2.123v0zM6 8.182h-5.455c-0.301 0-0.545 0.244-0.545 0.545v14.182c0 0.301 0.244 0.545 0.545 0.545h5.455c0.301 0 0.545-0.244 0.545-0.545v-14.182c0-0.301-0.244-0.545-0.545-0.545v0zM5.455 22.364h-4.364v-13.091h4.364v13.091zM17.932 8.228c-1.643 0-2.944 0.573-3.751 1.057v-0.557c0-0.301-0.244-0.545-0.545-0.545h-5.455c-0.151 0-0.293 0.062-0.397 0.171-0.103 0.109-0.156 0.256-0.147 0.406 0.062 1.061-0.001 14.017-0.001 14.148 0 0.145 0.057 0.285 0.159 0.387s0.241 0.16 0.386 0.16h5.455c0.301 0 0.545-0.244 0.545-0.545v-7.636c0-0.902 0.734-1.636 1.636-1.636s1.636 0.734 1.636 1.636v7.636c0 0.301 0.244 0.545 0.545 0.545h5.455c0.301 0 0.545-0.244 0.545-0.545v-7.259c0-4.579-2.325-7.423-6.068-7.423v0zM22.909 22.364h-4.364v-7.091c0-1.503-1.224-2.727-2.727-2.727s-2.727 1.224-2.727 2.727v7.091h-4.361c0.010-2.265 0.046-10.675 0.011-13.091h4.351v1.075c0 0.217 0.129 0.415 0.328 0.5 0.199 0.086 0.43 0.047 0.589-0.101 0.015-0.014 1.559-1.428 3.925-1.428 3.116 0 4.977 2.367 4.977 6.332v6.715h-0.001z"></path>
</svg>
