<?xml version="1.0" encoding="utf-8"?>
<!-- Generated by IcoMoon.io -->
<!DOCTYPE svg PUBLIC "-//W3C//DTD SVG 1.1//EN" "http://www.w3.org/Graphics/SVG/1.1/DTD/svg11.dtd">
<svg version="1.1" xmlns="http://www.w3.org/2000/svg" xmlns:xlink="http://www.w3.org/1999/xlink" width="24" height="24" viewBox="0 0 24 24">
<path fill="rgb(255, 64, 129)" d="M18.5 6.5c-3.033 0-5.5 2.467-5.5 5.5s2.467 5.5 5.5 5.5c3.033 0 5.5-2.467 5.5-5.5s-2.467-5.5-5.5-5.5v0zM18.5 16.5c-2.481 0-4.5-2.018-4.5-4.5 0-2.481 2.019-4.5 4.5-4.5s4.5 2.019 4.5 4.5c0 2.482-2.019 4.5-4.5 4.5v0zM5.5 6.5c-3.033 0-5.5 2.467-5.5 5.5s2.467 5.5 5.5 5.5c3.033 0 5.5-2.467 5.5-5.5s-2.467-5.5-5.5-5.5v0zM5.5 16.5c-2.481 0-4.5-2.018-4.5-4.5 0-2.481 2.019-4.5 4.5-4.5s4.5 2.019 4.5 4.5c0 2.482-2.019 4.5-4.5 4.5v0z"></path>
</svg>
