<?xml version="1.0" encoding="utf-8"?>
<!-- Generated by IcoMoon.io -->
<!DOCTYPE svg PUBLIC "-//W3C//DTD SVG 1.1//EN" "http://www.w3.org/Graphics/SVG/1.1/DTD/svg11.dtd">
<svg version="1.1" xmlns="http://www.w3.org/2000/svg" xmlns:xlink="http://www.w3.org/1999/xlink" width="24" height="24" viewBox="0 0 24 24">
<path fill="rgb(255, 64, 129)" d="M23.458 10.916c0.48-0.48 0.624-1.152 0.432-1.776s-0.72-1.056-1.392-1.152l-5.808-0.864c-0.24-0.048-0.48-0.192-0.576-0.432l-2.592-5.232c-0.288-0.576-0.864-0.96-1.536-0.96s-1.248 0.384-1.536 0.96l-2.592 5.28c-0.096 0.24-0.336 0.384-0.576 0.432l-5.808 0.816c-0.672 0.096-1.2 0.528-1.392 1.152s-0.048 1.296 0.432 1.776l4.176 4.080c0.192 0.192 0.24 0.432 0.24 0.672l-1.008 5.76c-0.096 0.528 0.048 1.008 0.384 1.44 0.528 0.624 1.392 0.816 2.112 0.432l5.184-2.736c0.24-0.096 0.48-0.096 0.72 0l5.184 2.736c0.24 0.144 0.528 0.192 0.816 0.192 0.528 0 1.008-0.24 1.296-0.624 0.336-0.384 0.48-0.864 0.384-1.392l-1.008-5.76c-0.048-0.24 0.048-0.48 0.24-0.672l4.224-4.128z"></path>
</svg>
