<svg style="position: absolute; width: 0; height: 0;" width="0" height="0" version="1.1" xmlns="http://www.w3.org/2000/svg" xmlns:xlink="http://www.w3.org/1999/xlink">
<defs>
<symbol id="octicon-alert" viewBox="0 0 1024 1024">
	<title>alert</title>
	<path class="path1" d="M1005.854 800.247l-438.286-767c-11.395-19.941-32.601-32.247-55.568-32.247s-44.173 12.306-55.567 32.247l-438.286 767c-11.319 19.809-11.238 44.144 0.213 63.876s32.539 31.877 55.354 31.877h876.572c22.814 0 43.903-12.145 55.354-31.877s11.533-44.067 0.214-63.876zM576 768h-128v-128h128v128zM576 576h-128v-256h128v256z"></path>
</symbol>
<symbol id="octicon-arrow-down" viewBox="0 0 640 1024">
	<title>arrow-down</title>
	<path class="path1" d="M448 448v-256h-256v256h-192l320 384 320-384h-192z"></path>
</symbol>
<symbol id="octicon-arrow-left" viewBox="0 0 640 1024">
	<title>arrow-left</title>
	<path class="path1" d="M384 384v-192l-384 320 384 320v-192h256v-256h-256z"></path>
</symbol>
<symbol id="octicon-arrow-right" viewBox="0 0 640 1024">
	<title>arrow-right</title>
	<path class="path1" d="M640 512l-384-320v192h-256v256h256v192l384-320z"></path>
</symbol>
<symbol id="octicon-arrow-small-down" viewBox="0 0 384 1024">
	<title>arrow-small-down</title>
	<path class="path1" d="M256 448v-128h-128v128h-128l192 256 192-256h-128z"></path>
</symbol>
<symbol id="octicon-arrow-small-left" viewBox="0 0 384 1024">
	<title>arrow-small-left</title>
	<path class="path1" d="M256 448v-128l-256 192 256 192v-128h128v-128h-128z"></path>
</symbol>
<symbol id="octicon-arrow-small-right" viewBox="0 0 384 1024">
	<title>arrow-small-right</title>
	<path class="path1" d="M384 512l-256-192v128h-128v128h128v128l256-192z"></path>
</symbol>
<symbol id="octicon-arrow-small-up" viewBox="0 0 384 1024">
	<title>arrow-small-up</title>
	<path class="path1" d="M192 320l-192 256h128v128h128v-128h128l-192-256z"></path>
</symbol>
<symbol id="octicon-arrow-up" viewBox="0 0 640 1024">
	<title>arrow-up</title>
	<path class="path1" d="M320 192l-320 384h192v256h256v-256h192l-320-384z"></path>
</symbol>
<symbol id="octicon-beaker" viewBox="0 0 1024 1024">
	<title>beaker</title>
	<path class="path1" d="M920 934l-216-486v-256h64v-64h-576v64h64v256l-216 486c-19 42 12 90 58 90h764c46 0 77-48 58-90zM240 640l80-192v-256h320v256l80 192h-480zM512 512h64v64h-64v-64zM448 448h-64v-64h64v64zM448 256h64v64h-64v-64zM448 64h-64v-64h64v64z"></path>
</symbol>
<symbol id="octicon-bell" viewBox="0 0 896 1024">
	<title>bell</title>
	<path class="path1" d="M896 768v64h-896v-64l47-37c49-49 52-163 76-283 49-241 261-320 261-320 0-35 29-64 64-64s64 29 64 64c0 0 217 79 266 320 24 120 27 234 76 283l42 37zM448 1024c71 0 128-57 128-128h-256c0 71 57 128 128 128z"></path>
</symbol>
<symbol id="octicon-book" viewBox="0 0 1024 1024">
	<title>book</title>
	<path class="path1" d="M128 320h256v64h-256v-64zM128 512h256v-64h-256v64zM128 640h256v-64h-256v64zM832 320h-256v64h256v-64zM832 448h-256v64h256v-64zM832 576h-256v64h256v-64zM960 192v576c0 35-29 64-64 64h-352l-64 64-64-64h-352c-35 0-64-29-64-64v-576c0-35 29-64 64-64h352l64 64 64-64h352c35 0 64 29 64 64zM448 224l-32-32h-352v576h384v-544zM896 192h-352l-32 32v544h384v-576z"></path>
</symbol>
<symbol id="octicon-bookmark" viewBox="0 0 384 1024">
	<title>bookmark</title>
	<path class="path1" d="M0 896l192-128 192 128v-704c0-35-29-64-64-64h-256c-35 0-64 29-64 64v704zM72 316l88-1 27-83c3-9 7-9 10 0l27 83 88 1c9 0 11 3 4 9l-72 52 28 83c2 9-1 11-8 7l-72-52-72 52c-7 4-10 2-8-7l28-83-72-52c-7-6-5-9 4-9z"></path>
</symbol>
<symbol id="octicon-briefcase" viewBox="0 0 896 1024">
	<title>briefcase</title>
	<path class="path1" d="M576 256v-64c0-35-29-64-64-64h-128c-35 0-64 29-64 64v64h-256c-35 0-64 29-64 64v512c0 35 29 64 64 64h768c35 0 64-29 64-64v-512c0-35-29-64-64-64h-256zM384 192h128v64h-128v-64zM832 576h-320v64h-128v-64h-320v-256h64v192h640v-192h64v256z"></path>
</symbol>
<symbol id="octicon-broadcast" viewBox="0 0 1024 1024">
	<title>broadcast</title>
	<path class="path1" d="M576 576h-64c35 0 64-29 64-64v-64c0-35-29-64-64-64h-64c-35 0-64 29-64 64v64c0 35 29 64 64 64h-64c-35 0-64 29-64 64v128h64v192c0 35 29 64 64 64h64c35 0 64-29 64-64v-192h64v-128c0-35-29-64-64-64zM448 448h64v64h-64v-64zM576 704h-64v256h-64v-256h-64v-64h192v64zM710 480c0-127-103-230-230-230s-230 103-230 230c0 18 2 35 6 52v127c-39-49-64-111-64-179 0-159 129-288 288-288s288 129 288 288c0 68-25 130-64 179v-127c4-17 6-34 6-52zM960 480c0 184-104 344-256 424v-67c119-74 198-206 198-357 0-233-189-422-422-422s-422 189-422 422c0 151 79 283 198 357v67c-152-80-256-240-256-424 0-265 215-480 480-480s480 215 480 480z"></path>
</symbol>
<symbol id="octicon-browser" viewBox="0 0 896 1024">
	<title>browser</title>
	<path class="path1" d="M320 192h64v64h-64v-64zM192 192h64v64h-64v-64zM64 192h64v64h-64v-64zM832 832h-768v-512h768v512zM832 256h-384v-64h384v64zM896 192c0-35.35-28.65-64-64-64h-768c-35.35 0-64 28.65-64 64v640c0 35.35 28.65 64 64 64h768c35.35 0 64-28.65 64-64v-640z"></path>
</symbol>
<symbol id="octicon-bug" viewBox="0 0 1024 1024">
	<title>bug</title>
	<path class="path1" d="M704 640h192v-64h-192v-64l203-66-22-60-181 62v-64c0-35-29-64-64-64v-64c0-31-23-56-53-62l66-66h115v-64h-141l-128 128h-38l-128-128h-141v64h115l66 66c-30 6-53 31-53 62v64c-35 0-64 29-64 64v64l-181-62-22 60 203 66v64h-192v64h192v64l-203 66 22 60 181-62v64c0 35 29 64 64 64h64l64-64v-448h64v448l64 64h64c35 0 64-29 64-64v-64l181 62 22-60-203-66v-64zM576 320h-192v-64h192v64z"></path>
</symbol>
<symbol id="octicon-calendar" viewBox="0 0 896 1024">
	<title>calendar</title>
	<path class="path1" d="M768 128h-64v96c0 18-14 32-32 32h-128c-18 0-32-14-32-32v-96h-192v96c0 18-14 32-32 32h-128c-18 0-32-14-32-32v-96h-64c-35 0-64 29-64 64v704c0 35 29 64 64 64h704c35 0 64-29 64-64v-704c0-35-29-64-64-64zM768 896h-704v-576h704v576zM256 192h-64v-128h64v128zM640 192h-64v-128h64v128zM320 448h-64v-64h64v64zM448 448h-64v-64h64v64zM576 448h-64v-64h64v64zM704 448h-64v-64h64v64zM192 576h-64v-64h64v64zM320 576h-64v-64h64v64zM448 576h-64v-64h64v64zM576 576h-64v-64h64v64zM704 576h-64v-64h64v64zM192 704h-64v-64h64v64zM320 704h-64v-64h64v64zM448 704h-64v-64h64v64zM576 704h-64v-64h64v64zM704 704h-64v-64h64v64zM192 832h-64v-64h64v64zM320 832h-64v-64h64v64zM448 832h-64v-64h64v64zM576 832h-64v-64h64v64z"></path>
</symbol>
<symbol id="octicon-check" viewBox="0 0 768 1024">
	<title>check</title>
	<path class="path1" d="M768 320l-512 512-256-256 96-96 160 160 416-416 96 96z"></path>
</symbol>
<symbol id="octicon-checklist" viewBox="0 0 768 1024">
	<title>checklist</title>
	<path class="path1" d="M208 666c1-21 10-42 25-56l64-60c16-15 35-22 55-22s41 8 57 23l39 40 128-128v-271c0-35-29-64-64-64h-448c-35 0-64 29-64 64v576c0 35 29 64 64 64h272l-105-108c-15-16-23-36-23-58zM192 192h320v64h-320v-64zM128 384h-64v-64h64v64zM128 256h-64v-64h64v64zM192 320h320v64h-320v-64zM736 544l-288 288-160-164 64-60 96 96 224-224 64 64z"></path>
</symbol>
<symbol id="octicon-chevron-down" viewBox="0 0 640 1024">
	<title>chevron-down</title>
	<path class="path1" d="M320 704l-320-320 96-96 224 240 224-240 96 96-320 320z"></path>
</symbol>
<symbol id="octicon-chevron-left" viewBox="0 0 512 1024">
	<title>chevron-left</title>
	<path class="path1" d="M352 192l96 96-240 224 240 224-96 96-320-320 320-320z"></path>
</symbol>
<symbol id="octicon-chevron-right" viewBox="0 0 512 1024">
	<title>chevron-right</title>
	<path class="path1" d="M480 512l-320 320-96-96 240-224-240-224 96-96 320 320z"></path>
</symbol>
<symbol id="octicon-chevron-up" viewBox="0 0 640 1024">
	<title>chevron-up</title>
	<path class="path1" d="M640 576l-96 96-224-240-224 240-96-96 320-320 320 320z"></path>
</symbol>
<symbol id="octicon-circle-slash" viewBox="0 0 896 1024">
	<title>circle-slash</title>
	<path class="path1" d="M448 64c-247 0-448 201-448 448s201 448 448 448 448-201 448-448-201-448-448-448zM448 147c83 0 160 28 222 75l-512 512c-47-62-75-139-75-222 0-201 164-365 365-365zM448 877c-83 0-160-28-222-75l512-512c47 62 75 139 75 222 0 201-164 365-365 365z"></path>
</symbol>
<symbol id="octicon-circuit-board" viewBox="0 0 896 1024">
	<title>circuit-board</title>
	<path class="path1" d="M192 320c0-35 29-64 64-64s64 29 64 64-29 64-64 64-64-29-64-64zM704 320c0-35-29-64-64-64s-64 29-64 64 29 64 64 64 64-29 64-64zM704 704c0-35-29-64-64-64s-64 29-64 64 29 64 64 64 64-29 64-64zM832 64h-512v139c23 12 41 30 53 53h150c27-50 85-82 150-67 48 12 87 51 98 99 20 88-46 166-131 166-51 0-95-28-117-70h-150c-27 51-85 82-150 66-47-11-86-50-97-97-16-65 15-123 66-150v-139h-128c-35 0-64 29-64 64v768c0 35 29 64 64 64l320-320h139c27-50 85-82 150-67 48 12 87 51 98 99 20 88-46 166-131 166-51 0-95-28-117-70h-75l-192 192h576c35 0 64-29 64-64v-768c0-35-29-64-64-64z"></path>
</symbol>
<symbol id="octicon-clippy" viewBox="0 0 896 1024">
	<title>clippy</title>
	<path class="path1" d="M128 768h256v64h-256v-64zM448 384h-320v64h320v-64zM576 576v-128l-192 192 192 192v-128h320v-128h-320zM288 512h-160v64h160v-64zM128 704h160v-64h-160v64zM704 768h64v128c-1 18-7 33-19 45s-27 18-45 19h-640c-35 0-64-29-64-64v-704c0-35 29-64 64-64h192c0-71 57-128 128-128s128 57 128 128h192c35 0 64 29 64 64v320h-64v-192h-640v576h640v-128zM128 256h512c0-35-29-64-64-64h-64c-35 0-64-29-64-64s-29-64-64-64-64 29-64 64-29 64-64 64h-64c-35 0-64 29-64 64z"></path>
</symbol>
<symbol id="octicon-clock" viewBox="0 0 896 1024">
	<title>clock</title>
	<path class="path1" d="M512 512h192v128h-256c-35 0-64-29-64-64v-320h128v256zM448 147c201 0 365 164 365 365s-164 365-365 365-365-164-365-365 164-365 365-365zM448 64c-247 0-448 201-448 448s201 448 448 448 448-201 448-448-201-448-448-448z"></path>
</symbol>
<symbol id="octicon-cloud-download" viewBox="0 0 1024 1024">
	<title>cloud-download</title>
	<path class="path1" d="M576 832h128l-192 192-192-192h128v-320h128v320zM768 320c0-28-58-192-288-192-155 0-288 123-288 256-127 0-192 97-192 192 0 98 64 192 192 192 28 0 170 0 192 0v-83h-192c-104 0-109-91-109-109 0-11 3-109 109-109h83v-83c0-89 100-173 205-173 163 0 200 99 205 115v77h83c52 0 173 14 173 141 0 134-144 141-173 141h-128v83c24 0 127 0 128 0 133 0 256-74 256-224 0-156-123-224-256-224z"></path>
</symbol>
<symbol id="octicon-cloud-upload" viewBox="0 0 1024 1024">
	<title>cloud-upload</title>
	<path class="path1" d="M448 576h-128l192-192 192 192h-128v320h-128v-320zM768 320c0-28-58-192-288-192-155 0-288 123-288 256-127 0-192 97-192 192 0 98 64 192 192 192 28 0 170 0 192 0v-83h-192c-104 0-109-91-109-109 0-11 3-109 109-109h83v-83c0-89 100-173 205-173 163 0 200 99 205 115v77h83c52 0 173 14 173 141 0 134-144 141-173 141h-128v83c24 0 127 0 128 0 133 0 256-74 256-224 0-156-123-224-256-224z"></path>
</symbol>
<symbol id="octicon-code" viewBox="0 0 896 1024">
	<title>code</title>
	<path class="path1" d="M608 192l-96 96 224 224-224 224 96 96 288-320-288-320zM288 192l-288 320 288 320 96-96-224-224 224-224-96-96z"></path>
</symbol>
<symbol id="octicon-color-mode" viewBox="0 0 768 1024">
	<title>color-mode</title>
	<path class="path1" d="M704 128h-640c-35 0-64 29-64 64v640c0 35 29 64 64 64h640c35 0 64-29 64-64v-640c0-35-29-64-64-64zM64 832v-640h640l-640 640z"></path>
</symbol>
<symbol id="octicon-comment-discussion" viewBox="0 0 1024 1024">
	<title>comment-discussion</title>
	<path class="path1" d="M256 576c0 35 29 64 64 64h256v64c0 35-29 64-64 64h-192l-192 192v-192h-64c-35 0-64-29-64-64v-320c0-35 29-64 64-64h192v256zM896 128h-512c-35 0-64 29-64 64v320c0 35 29 64 64 64h256l192 192v-192h64c35 0 64-29 64-64v-320c0-35-29-64-64-64z"></path>
</symbol>
<symbol id="octicon-comment" viewBox="0 0 896 1024">
	<title>comment</title>
	<path class="path1" d="M832 128h-768c-35 0-64 29-64 64v512c0 35 29 64 64 64h128v224l224-224h416c35 0 64-29 64-64v-512c0-35-29-64-64-64zM832 704h-448l-128 128v-128h-192v-512h768v512z"></path>
</symbol>
<symbol id="octicon-credit-card" viewBox="0 0 1024 1024">
	<title>credit-card</title>
	<path class="path1" d="M768 576h-640v-64h640v64zM1024 192v576c0 35-29 64-64 64h-896c-35 0-64-29-64-64v-576c0-35 29-64 64-64h896c35 0 64 29 64 64zM960 384h-896v384h896v-384zM960 192h-896v64h896v-64zM384 640h-256v64h256v-64z"></path>
</symbol>
<symbol id="octicon-dash" viewBox="0 0 512 1024">
	<title>dash</title>
	<path class="path1" d="M0 448v128h512v-128h-512z"></path>
</symbol>
<symbol id="octicon-dashboard" viewBox="0 0 1024 1024">
	<title>dashboard</title>
	<path class="path1" d="M512 320h-64v-64h64v64zM768 512h-64v64h64v-64zM320 320h-64v64h64v-64zM256 512h-64v64h64v-64zM960 160l-32-32-416 320c-4-1-64 0-64 0-35 0-64 29-64 64v64c0 35 29 64 64 64h64c35 0 64-29 64-64v-59l384-357zM858 422c12 39 19 80 19 122 0 219-178 397-397 397s-397-178-397-397 178-397 397-397c77 0 148 22 209 60l60-60c-76-52-169-83-269-83-265 0-480 215-480 480s215 480 480 480 480-215 480-480c0-66-13-129-38-186l-64 64z"></path>
</symbol>
<symbol id="octicon-database" viewBox="0 0 768 1024">
	<title>database</title>
	<path class="path1" d="M384 960c-212.031 0-384-57.375-384-128 0-38.625 0-80.875 0-128 0-11.125 5.562-21.688 13.562-32 42.813 55.125 191.688 96 370.438 96s327.625-40.875 370.438-96c8 10.312 13.562 20.875 13.562 32 0 37.062 0 76.375 0 128 0 70.625-172 128-384 128zM384 704c-212.031 0-384-57.375-384-128 0-38.656 0-80.844 0-128 0-6.781 2.562-13.375 6-19.906v0c1.938-4.094 4.5-8.125 7.562-12.094 42.813 55.094 191.688 96 370.438 96s327.625-40.906 370.438-96c3.062 3.969 5.625 8 7.562 12.094v0c3.438 6.531 6 13.125 6 19.906 0 37.062 0 76.344 0 128 0 70.625-172 128-384 128zM384 448c-212.031 0-384-57.344-384-128 0-20.219 0-41.594 0-64 0-20.344 0-41.469 0-64 0-70.656 171.969-128 384-128 212 0 384 57.344 384 128 0 19.969 0 41.156 0 64 0 19.594 0 40.25 0 64 0 70.656-172 128-384 128zM384 128c-141.375 0-256 28.594-256 64s114.625 64 256 64 256-28.594 256-64-114.625-64-256-64z"></path>
</symbol>
<symbol id="octicon-desktop-download" viewBox="0 0 1024 1024">
	<title>desktop-download</title>
	<path class="path1" d="M256 384h192v-384h128v384h192l-256 256-256-256zM960 128h-256v64h256v512h-896v-512h256v-64h-256c-35 0-64 29-64 64v576c0 35 29 64 64 64h342c-16 39-55 89-150 128h512c-95-39-134-89-150-128h342c35 0 64-29 64-64v-576c0-35-29-64-64-64z"></path>
</symbol>
<symbol id="octicon-device-camera-video" viewBox="0 0 1024 1024">
	<title>device-camera-video</title>
	<path class="path1" d="M973 198l-333 232v-174c0-35-29-64-64-64h-512c-35 0-64 29-64 64v576c0 35 29 64 64 64h512c35 0 64-29 64-64v-174l333 232c21 15 51 0 51-26v-640c0-26-30-41-51-26z"></path>
</symbol>
<symbol id="octicon-device-camera" viewBox="0 0 1024 1024">
	<title>device-camera</title>
	<path class="path1" d="M960 192h-512c0-35-29-64-64-64h-256c-35 0-64 29-64 64-35 0-64 29-64 64v576c0 35 29 64 64 64h896c35 0 64-29 64-64v-576c0-35-29-64-64-64zM384 320h-256v-64h256v64zM672 768c-124 0-224-100-224-224s100-224 224-224 224 100 224 224-100 224-224 224zM832 544c0 88-72 160-160 160s-160-72-160-160 72-160 160-160 160 72 160 160z"></path>
</symbol>
<symbol id="octicon-device-desktop" viewBox="0 0 1024 1024">
	<title>device-desktop</title>
	<path class="path1" d="M960 128h-896c-35 0-64 29-64 64v576c0 35 29 64 64 64h342c-16 39-55 89-150 128h512c-95-39-134-89-150-128h342c35 0 64-29 64-64v-576c0-35-29-64-64-64zM960 704h-896v-512h896v512z"></path>
</symbol>
<symbol id="octicon-device-mobile" viewBox="0 0 640 1024">
	<title>device-mobile</title>
	<path class="path1" d="M576 0h-512c-35 0-64 29-64 64v896c0 35 29 64 64 64h512c35 0 64-29 64-64v-896c0-35-29-64-64-64zM320 979c-46 0-83-37-83-83s37-83 83-83 83 37 83 83-37 83-83 83zM576 768h-512v-640h512v640z"></path>
</symbol>
<symbol id="octicon-diff-added" viewBox="0 0 896 1024">
	<title>diff-added</title>
	<path class="path1" d="M832 64h-768c-35 0-64 29-64 64v768c0 35 29 64 64 64h768c35 0 64-29 64-64v-768c0-35-29-64-64-64zM832 896h-768v-768h768v768zM384 576h-192v-128h192v-192h128v192h192v128h-192v192h-128v-192z"></path>
</symbol>
<symbol id="octicon-diff-ignored" viewBox="0 0 896 1024">
	<title>diff-ignored</title>
	<path class="path1" d="M832 64h-768c-35 0-64 29-64 64v768c0 35 29 64 64 64h768c35 0 64-29 64-64v-768c0-35-29-64-64-64zM832 896h-768v-768h768v768zM288 768h-96v-96l416-416h96v96l-416 416z"></path>
</symbol>
<symbol id="octicon-eye" viewBox="0 0 1024 1024">
	<title>eye</title>
	<path class="path1" d="M516 128c-324 0-516 384-516 384s192 384 516 384c316 0 508-384 508-384s-192-384-508-384zM512 768c-141 0-256-114-256-256 0-141 115-256 256-256 142 0 256 115 256 256 0 142-114 256-256 256zM640 512c0 71-57 128-128 128s-128-57-128-128 57-128 128-128 128 57 128 128z"></path>
</symbol>
<symbol id="octicon-file-binary" viewBox="0 0 768 1024">
	<title>file-binary</title>
	<path class="path1" d="M256 768h64v64h-192v-64h64v-128h-64v-64h128v192zM768 288v608c0 35-29 64-64 64h-640c-35 0-64-29-64-64v-768c0-35 29-64 64-64h480l224 224zM704 320l-192-192h-448v768h640v-576zM512 256h-128v64h64v128h-64v64h192v-64h-64v-192zM128 256h192v256h-192v-256zM192 448h64v-128h-64v128zM384 576h192v256h-192v-256zM448 768h64v-128h-64v128z"></path>
</symbol>
<symbol id="octicon-file-code" viewBox="0 0 768 1024">
	<title>file-code</title>
	<path class="path1" d="M544 64h-480c-35 0-64 29-64 64v768c0 35 29 64 64 64h640c35 0 64-29 64-64v-608l-224-224zM704 896h-640v-768h448l192 192v576zM320 447l-96 97 96 96-32 64-160-160 160-160 32 63zM480 384l160 160-160 160-32-63 96-97-96-96 32-64z"></path>
</symbol>
<symbol id="octicon-file-directory" viewBox="0 0 896 1024">
	<title>file-directory</title>
	<path class="path1" d="M832 256h-384v-64c0-42-20-64-64-64h-320c-35 0-64 29-64 64v640c0 35 29 64 64 64h768c35 0 64-29 64-64v-512c0-35-29-64-64-64zM384 256h-320v-64h320v64z"></path>
</symbol>
<symbol id="octicon-file-media" viewBox="0 0 768 1024">
	<title>file-media</title>
	<path class="path1" d="M384 320h128v128h-128v-128zM768 288v608c0 35-29 64-64 64h-640c-35 0-64-29-64-64v-768c0-35 29-64 64-64h480l224 224zM704 320l-192-192h-448v704l192-320 128 256 128-128 192 192v-512z"></path>
</symbol>
<symbol id="octicon-file-pdf" viewBox="0 0 768 1024">
	<title>file-pdf</title>
	<path class="path1" d="M544 64h-480c-35 0-64 29-64 64v768c0 35 29 64 64 64h640c35 0 64-29 64-64v-608l-224-224zM64 128h256c-7 2-13 6-20 13-6 6-11 16-15 30-7 25-9 57-6 94s11 75 22 115c-15 47-39 103-71 170s-51 106-58 118c-9 3-23 9-44 19-21 9-42 23-64 41v-600zM347 435c29 72 54 117 75 134s41 29 60 34c-41 6-79 13-116 21-36 8-75 21-116 38 1-1 14-28 39-80s45-101 58-147zM704 896h-608c-4 0-8-1-11-2 13-4 29-13 47-28 29-24 67-74 114-152 20-8 37-15 52-20l27-9c29-8 60-15 92-21 32-5 64-10 95-13 29 14 58 25 89 34 31 8 58 13 79 15 9 0 17-1 24-2v198zM704 585c-12-7-26-13-41-18-15-4-31-6-48-7-25 0-51 2-79 5-15-4-36-18-63-41s-55-73-84-149c8-53 12-95 13-126s1-47 0-48c3-26-2-45-13-56s-24-17-39-17h162l192 192v265z"></path>
</symbol>
<symbol id="octicon-file-submodule" viewBox="0 0 896 1024">
	<title>file-submodule</title>
	<path class="path1" d="M640 448h-384v448h576c35 0 64-29 64-64v-320h-256v-64zM576 576h-256v-64h256v64zM832 256h-384v-64c0-42-20-64-64-64h-320c-35 0-64 29-64 64v640c0 35 29 64 64 64h128v-448c0-35 29-64 64-64h384c35 0 64 29 64 64h192v-128c0-35-29-64-64-64zM384 256h-320v-64h320v64z"></path>
</symbol>
<symbol id="octicon-file-symlink-directory" viewBox="0 0 896 1024">
	<title>file-symlink-directory</title>
	<path class="path1" d="M832 256h-384v-64c0-42-20-64-64-64h-320c-35 0-64 29-64 64v640c0 35 29 64 64 64h768c35 0 64-29 64-64v-512c0-35-29-64-64-64zM64 192h320v64h-320v-64zM448 768v-128c-63-1-118 14-163 45s-76 80-93 147c1-105 25-184 72-239 47-54 108-81 184-81v-128l256 192-256 192z"></path>
</symbol>
<symbol id="octicon-file-symlink-file" viewBox="0 0 768 1024">
	<title>file-symlink-file</title>
	<path class="path1" d="M544 64h-480c-35 0-64 29-64 64v768c0 35 29 64 64 64h640c35 0 64-29 64-64v-608l-224-224zM704 896h-640v-768h448l192 192v576zM384 288l256 192-256 192v-128c-63-1-118 14-163 45s-76 80-93 147c1-105 25-184 72-239 47-54 108-81 184-81v-128z"></path>
</symbol>
<symbol id="octicon-file-text" viewBox="0 0 768 1024">
	<title>file-text</title>
	<path class="path1" d="M384 320h-256v-64h256v64zM128 512h448v-64h-448v64zM128 640h448v-64h-448v64zM128 768h448v-64h-448v64zM768 288v608c0 35-29 64-64 64h-640c-35 0-64-29-64-64v-768c0-35 29-64 64-64h480l224 224zM704 320l-192-192h-448v768h640v-576z"></path>
</symbol>
<symbol id="octicon-file-zip" viewBox="0 0 768 1024">
	<title>file-zip</title>
	<path class="path1" d="M544 64h-480c-35 0-64 29-64 64v768c0 35 29 64 64 64h640c35 0 64-29 64-64v-608l-224-224zM704 896h-640v-768h192v64h64v-64h192l192 192v576zM320 256v-64h64v64h-64zM256 256h64v64h-64v-64zM320 384v-64h64v64h-64zM256 384h64v64h-64v-64zM320 512v-64h64v64h-64zM256 594c-38 22-64 63-64 110v64h256v-64c0-71-57-128-128-128v-64h-64v82zM384 640v64h-128v-64h128z"></path>
</symbol>
<symbol id="octicon-flame" viewBox="0 0 1024 1024">
	<title>flame</title>
	<path class="path1" d="M433 45c50 134 24 207-32 265-61 64-156 112-223 206-89 125-104 400 217 472-135-71-164-277-18-406-38 125 32 205 119 176 85-29 141 32 139 102-1 48-20 89-69 112 209-37 293-210 293-342 0-174-155-198-77-344-93 8-125 69-116 169 6 66-63 111-114 81-41-25-40-73-4-109 77-76 107-251-115-382z"></path>
</symbol>
<symbol id="octicon-fold" viewBox="0 0 896 1024">
	<title>fold</title>
	<path class="path1" d="M448 576l192 192h-128v192h-128v-192h-128l192-192zM640 192h-128v-192h-128v192h-128l192 192 192-192zM896 320c0-35-29-64-64-64h-160l-64 64h192l-128 128h-448l-128-128h192l-64-64h-160c-35 0-64 29-64 64l160 160-160 160c0 35 29 64 64 64h160l64-64h-192l128-128h448l128 128h-192l64 64h160c35 0 64-29 64-64l-160-160 160-160z"></path>
</symbol>
<symbol id="octicon-gear" viewBox="0 0 896 1024">
	<title>gear</title>
	<path class="path1" d="M896 561v-102l-124-41-29-70 56-118-72-72-116 58-70-29-44-123h-102l-40 124-71 29-118-56-72 72 58 116-29 70-123 44v102l124 41 29 70-56 118 72 72 116-58 70 29 44 123h102l40-124 71-29 118 56 72-72-59-116 30-70 123-44zM448 704c-106 0-192-86-192-192s86-192 192-192 192 86 192 192-86 192-192 192z"></path>
</symbol>
<symbol id="octicon-gift" viewBox="0 0 896 1024">
	<title>gift</title>
	<path class="path1" d="M832 256h-88c12-21 21-43 23-58 4-43-7-78-33-103-23-24-52-31-87-31-3 0-5 0-7 0-34 1-71 16-98 37s-47 46-62 77c-15-31-35-56-62-77s-64-37-98-37c-1 0-2 0-2 0-36 0-68 6-92 31-26 25-37 60-33 103 2 15 11 37 23 58h-88c-35 0-64 29-64 64v192h64v320c0 35 29 64 64 64h576c35 0 64-29 64-64v-320h64v-192c0-35-29-64-64-64zM526 200c11-23 27-43 48-59 19-15 46-25 67-26h6c29 0 42 7 51 16s21 25 19 61c-3 12-16 39-32 64h-185l26-56zM262 131c8-8 20-16 58-16 20 0 46 11 66 26 21 16 37 35 48 59l27 56h-186c-16-25-29-52-32-64-2-36 10-52 19-61zM448 832h-256v-320h256v320zM448 448h-320v-128h320v128zM768 832h-256v-320h256v320zM832 448h-320v-128h320v128z"></path>
</symbol>
<symbol id="octicon-gist-secret" viewBox="0 0 896 1024">
	<title>gist-secret</title>
	<path class="path1" d="M512 672l64 224h-256l64-224-48-96h224l-48 96zM640 384h-384l-128 64h640l-128-64zM576 128l-128 64-128-64-64 192h384l-64-192zM834 624l-194-48 64 128-128 192h206c29 0 55-20 62-48l36-146c9-34-12-69-46-78zM256 576l-194 48c-34 9-55 44-46 78l36 146c7 28 33 48 62 48h206l-128-192 64-128z"></path>
</symbol>
<symbol id="octicon-gist" viewBox="0 0 768 1024">
	<title>gist</title>
	<path class="path1" d="M480 320l160 160-160 160-48-48 112-112-112-112 48-48zM288 320l-160 160 160 160 48-48-112-112 112-112-48-48zM0 832v-704c0-35 29-64 64-64h640c35 0 64 29 64 64v704c0 35-29 64-64 64h-640c-35 0-64-29-64-64zM64 832h640v-704h-640v704z"></path>
</symbol>
<symbol id="octicon-git-branch" viewBox="0 0 640 1024">
	<title>git-branch</title>
	<path class="path1" d="M640 320c0-71-57-128-128-128s-128 57-128 128c0 47 26 88 64 110v19c-1 33-15 63-40 88s-55 39-88 40c-53 1-95 10-128 29v-304c38-22 64-63 64-110 0-71-57-128-128-128s-128 57-128 128c0 47 26 88 64 110v420c-38 22-64 63-64 110 0 71 57 128 128 128s128-57 128-128c0-34-13-64-34-87 6-4 31-26 38-30 16-7 36-11 60-11 67-3 125-29 176-80s77-127 80-193h-1c39-23 65-64 65-111zM128 115c42 0 77 35 77 77s-35 77-77 77-77-35-77-77 35-77 77-77zM128 909c-42 0-77-35-77-77s35-77 77-77 77 35 77 77-35 77-77 77zM512 397c-42 0-77-35-77-77s35-77 77-77 77 35 77 77-35 77-77 77z"></path>
</symbol>
<symbol id="octicon-git-commit" viewBox="0 0 896 1024">
	<title>git-commit</title>
	<path class="path1" d="M695 448c-29-110-128-192-247-192s-218 82-247 192h-201v128h201c29 110 128 192 247 192s218-82 247-192h201v-128h-201zM448 653c-78 0-141-63-141-141s63-141 141-141 141 63 141 141-63 141-141 141z"></path>
</symbol>
<symbol id="octicon-git-compare" viewBox="0 0 896 1024">
	<title>git-compare</title>
	<path class="path1" d="M320 768h-64c-17-1-31-7-44-20s-19-27-20-44v-402c38-22 64-63 64-110 0-71-57-128-128-128s-128 57-128 128c0 47 26 88 64 110 0 111 0 402 0 402 2 50 22 94 60 132s82 58 132 60c0 0 65 0 64 0v128l192-192-192-192v128zM128 115c42 0 77 35 77 77s-35 77-77 77-77-35-77-77 35-77 77-77zM832 722c0-111 0-402 0-402-2-50-22-94-60-132s-82-58-132-60c0 0-65 0-64 0v-128l-192 192 192 192v-128h64c17 1 31 7 44 20s19 27 20 44v402c-38 22-64 63-64 110 0 71 57 128 128 128s128-57 128-128c0-47-26-88-64-110zM768 909c-42 0-77-35-77-77s35-77 77-77 77 35 77 77-35 77-77 77z"></path>
</symbol>
<symbol id="octicon-git-merge" viewBox="0 0 768 1024">
	<title>git-merge</title>
	<path class="path1" d="M640 448c-47 0-88 26-111 65v-1c-67-1-145-23-200-65-48-37-96-103-121-156 29-23 48-59 48-99 0-71-57-128-128-128s-128 57-128 128c0 47 26 88 64 110v420c-38 22-64 63-64 110 0 71 57 128 128 128s128-57 128-128c0-47-26-88-64-110v-231c43 45 92 81 147 108s130 40 190 41v-1c23 39 64 65 111 65 71 0 128-57 128-128s-57-128-128-128zM205 832c0 42-35 77-77 77s-77-35-77-77 35-77 77-77 77 35 77 77zM128 269c-42 0-77-35-77-77s35-77 77-77 77 35 77 77-35 77-77 77zM640 653c-42 0-77-35-77-77s35-77 77-77 77 35 77 77-35 77-77 77z"></path>
</symbol>
<symbol id="octicon-git-pull-request" viewBox="0 0 768 1024">
	<title>git-pull-request</title>
	<path class="path1" d="M704 722c0-111 0-402 0-402-2-50-22-94-60-132s-82-58-132-60c0 0-65 0-64 0v-128l-192 192 192 192v-128h64c17 1 31 7 44 20s19 27 20 44v402c-38 22-64 63-64 110 0 71 57 128 128 128s128-57 128-128c0-47-26-88-64-110zM640 909c-42 0-77-35-77-77s35-77 77-77 77 35 77 77-35 77-77 77zM256 192c0-71-57-128-128-128s-128 57-128 128c0 47 26 88 64 110 0 99 0 356 0 420-38 22-64 63-64 110 0 71 57 128 128 128s128-57 128-128c0-47-26-88-64-110v-420c38-22 64-63 64-110zM205 832c0 42-35 77-77 77s-77-35-77-77 35-77 77-77 77 35 77 77zM128 269c-42 0-77-35-77-77s35-77 77-77 77 35 77 77-35 77-77 77z"></path>
</symbol>
<symbol id="octicon-globe" viewBox="0 0 1024 1024">
	<title>globe</title>
	<path class="path1" d="M512 128c-212.077 0-384 171.923-384 384s171.923 384 384 384c25.953 0 51.303-2.582 75.812-7.49-9.879-4.725-10.957-40.174-1.188-60.385 10.875-22.5 45-79.5 11.25-98.625s-24.375-27.75-45-49.875-12.19-25.451-13.5-31.125c-4.5-19.5 19.875-48.75 21-51.75s1.125-14.25 0.75-17.625-15.374-12.375-19.124-12.75-5.625 6-10.875 6.375-28.125-13.875-33-17.625-7.125-12.75-13.875-19.5-7.5-1.5-18-5.625-44.25-16.5-70.125-27-28.125-25.219-28.5-35.625-15.75-25.5-22.961-36.375c-7.209-10.875-8.539-25.875-11.164-22.5s13.5 42.75 10.875 43.875-8.25-10.875-15.75-20.625 7.875-4.5-16.125-51.75 7.5-71.344 9-96 20.25 9 10.5-6.75 0.75-48.75-6.75-60.75-50.25 13.5-50.25 13.5c1.125-11.625 37.5-31.5 63.75-49.875s42.281-4.125 63.375 2.625 22.5 4.5 15.375-2.25 3-10.125 19.5-7.5 21 22.5 46.125 20.625 2.625 4.875 6 11.25-3.75 5.625-20.25 16.875 0.375 11.25 29.625 32.625 20.25-14.25 17.25-30 21.375-3.375 21.375-3.375c18 12 14.674 0.66 27.799 4.785s48.701 34.215 48.701 34.215c-44.625 24.375-16.5 27-9 32.625s-15.375 16.5-15.375 16.5c-9.375-9.375-10.875 0.375-16.875 3.75s-0.375 12-0.375 12c-31.031 4.875-24 37.5-23.625 45.375s-19.875 19.875-25.125 31.125 13.5 35.625 3.75 37.125-19.5-36.75-72-22.5c-15.828 4.297-51 22.5-32.25 59.625s49.875-10.5 60.375-5.25-3 28.875-0.75 29.25 29.625 1.031 31.125 33 41.625 29.25 50.25 30 37.5-23.625 41.625-24.75 20.625-15 56.625 5.625 54.375 17.625 66.75 26.25 3.75 25.875 15.375 31.5 58.125-1.875 69.75 17.25-48 115.125-66.75 125.625-27.375 34.5-46.125 49.875-45 34.406-69.75 49.125c-21.908 13.027-25.85 36.365-35.609 43.732 171.855-38.177 300.359-191.507 300.359-374.857 0-212.077-171.923-384-384-384zM602 488.375c-5.25 1.5-16.125 11.25-42.75-4.5s-45-12.75-47.25-15.375c0 0-2.25-6.375 9.375-7.5 23.871-2.311 54 22.125 60.75 22.5s10.125-6.75 22.125-2.883c12 3.863 3 6.258-2.25 7.758zM476.375 166.25c-2.615-1.902 2.166-4.092 5.016-7.875 1.645-2.186 0.425-5.815 2.484-7.875 5.625-5.625 33.375-13.5 27.949 1.875-5.424 15.375-31.324 16.875-35.449 13.875zM543.5 215c-9.375-0.375-31.443-2.707-27.375-6.75 15.844-15.75-6-20.25-19.5-21.375s-19.125-8.625-12.375-9.375 33.75 0.375 38.25 4.125 28.875 13.5 30.375 20.625 0 13.125-9.375 12.75zM624.875 212.375c-7.5 6-45.24-21.529-52.5-27.75-31.5-27-48.375-18-54.99-22.5-6.617-4.5-4.26-10.5 5.865-19.5s38.625 3 55.125 4.875 35.625 14.625 36 29.781c0.375 15.155 18 29.094 10.5 35.094z"></path>
</symbol>
<symbol id="octicon-graph" viewBox="0 0 1024 1024">
	<title>graph</title>
	<path class="path1" d="M1024 896v64h-1024v-960h64v896h960zM320 832h-128v-320h128v320zM576 832h-128v-640h128v640zM832 832h-128v-448h128v448z"></path>
</symbol>
<symbol id="octicon-heart" viewBox="0 0 768 1024">
	<title>heart</title>
	<path class="path1" d="M717 256c-33-40-80-61-141-64-62 0-108 27-141 64s-50 59-51 64c-1-5-18-27-51-64s-75-64-141-64c-61 3-108 24-141 64-33 39-50 82-51 128 0 33 6 97 43 171s150 188 341 341c191-153 305-267 342-341s42-139 42-171c-1-46-18-89-51-129z"></path>
</symbol>
<symbol id="octicon-history" viewBox="0 0 896 1024">
	<title>history</title>
	<path class="path1" d="M512 832h-128v-448h320v128h-192v320zM448 64c-140 0-264 65-346 166l-102-102v256h256l-96-96c67-85 171-141 288-141 201 0 365 164 365 365s-164 365-365 365-365-164-365-365c0-22 2-43 6-64h-84c-3 21-5 42-5 64 0 247 201 448 448 448s448-201 448-448-201-448-448-448z"></path>
</symbol>
<symbol id="octicon-home" viewBox="0 0 1024 1024">
	<title>home</title>
	<path class="path1" d="M1024 576l-192-192v-256h-128v128l-192-192-512 512h128l64 320c0 35 29 64 64 64h512c35 0 64-29 64-64l64-320h128zM768 896h-192v-256h-128v256h-192l-76-404 332-332 332 332-76 404z"></path>
</symbol>
<symbol id="octicon-horizontal-rule" viewBox="0 0 639.875 1024">
	<title>horizontal-rule</title>
	<path class="path1" d="M63.938 448h128v128h64v-383.938h-64v191.938h-128v-191.938h-63.938v383.938h63.938v-128zM639.875 576v-128h-63.938v128h63.938zM639.875 384v-127.938h-63.938v127.938h63.938zM447.938 384v-127.938h128v-64h-192v383.938h64v-128h128v-64h-128zM0 832h639.875v-128h-639.875v128z"></path>
</symbol>
<symbol id="octicon-hubot" viewBox="0 0 896 1024">
	<title>hubot</title>
	<path class="path1" d="M192 384c-35 0-64 29-64 64v128c0 35 29 64 64 64h512c35 0 64-29 64-64v-128c0-35-29-64-64-64h-512zM704 496l-80 80h-96l-80-80-80 80h-96l-80-80v-48h48l80 80 80-80h96l80 80 80-80h48v48zM320 704h256v64h-256v-64zM448 128c-247 0-448 186-448 416v288c0 35 29 64 64 64h768c35 0 64-29 64-64v-288c0-230-201-416-448-416zM832 832h-768v-288c0-198 169-358 384-358s384 160 384 358v288z"></path>
</symbol>
<symbol id="octicon-inbox" viewBox="0 0 896 1024">
	<title>inbox</title>
	<path class="path1" d="M896 576l-72-457c-5-31-32-55-64-55h-624c-32 0-59 24-64 55l-72 457v320c0 35 29 64 64 64h768c35 0 64-29 64-64v-320zM686 611l-28 57c-11 22-33 36-58 36h-305c-24 0-46-14-57-35l-28-58c-11-21-33-35-57-35h-89l64-448h640l64 448h-88c-25 0-47 14-58 35z"></path>
</symbol>
<symbol id="octicon-info" viewBox="0 0 896 1024">
	<title>info</title>
	<path class="path1" d="M403 364c-12-12-18-27-18-45s6-33 18-45 27-18 45-18 33 6 45 18 18 27 18 45-6 33-18 45-27 19-45 19-33-7-45-19zM512 511c-1-16-7-31-20-44-13-12-27-19-44-20h-64c-17 1-31 8-44 20-13 13-19 28-20 44h64v192c1 17 7 32 20 44 13 13 27 20 44 20h64c17 0 31-7 44-20 13-12 19-27 20-44h-64v-192zM448 147c-201 0-365 163-365 364s164 365 365 365 365-163 365-365-164-364-365-364zM448 63c247 0 448 201 448 448s-201 448-448 448-448-200-448-448 201-448 448-448z"></path>
</symbol>
<symbol id="octicon-issue-closed" viewBox="0 0 1024 1024">
	<title>issue-closed</title>
	<path class="path1" d="M448 640h128v128h-128v-128zM576 256h-128v320h128v-320zM672 352l-64 64 160 160 256-288-64-64-192 224-96-96zM512 877c-201 0-365-164-365-365s164-365 365-365c117 0 221 56 288 141l59-59c-82-101-207-165-347-165-247 0-448 201-448 448s201 448 448 448 448-201 448-448l-97 97c-42 154-183 268-351 268z"></path>
</symbol>
<symbol id="octicon-issue-opened" viewBox="0 0 896 1024">
	<title>issue-opened</title>
	<path class="path1" d="M448 147c201 0 365 164 365 365s-164 365-365 365-365-164-365-365 164-365 365-365zM448 64c-247 0-448 201-448 448s201 448 448 448 448-201 448-448-201-448-448-448zM512 256h-128v320h128v-320zM512 640h-128v128h128v-128z"></path>
</symbol>
<symbol id="octicon-issue-reopened" viewBox="0 0 896 1024">
	<title>issue-reopened</title>
	<path class="path1" d="M512 576h-128v-320h128v320zM384 768h128v-128h-128v128zM789 640h-149l96 96c-67 85-171 141-288 141-201 0-365-164-365-365 0-22 2-43 6-64h-84c-3 21-5 42-5 64 0 247 201 448 448 448 140 0 264-65 346-166l102 102v-256h-107zM107 384h149l-96-96c67-85 171-141 288-141 201 0 365 164 365 365 0 22-2 43-6 64h84c3-21 5-42 5-64 0-247-201-448-448-448-140 0-264 65-346 166l-102-102v256h107z"></path>
</symbol>
<symbol id="octicon-jersey" viewBox="0 0 896 1024">
	<title>jersey</title>
	<path class="path1" d="M224 384l-32 32v320l32 32h128l32-32v-320l-32-32h-128zM320 704h-64v-256h64v256zM721 240c-14-88-20-168-17-240h-191c0 17-8 31-25 44-16 13-40 19-72 19s-56-6-72-19c-15-13-23-27-23-44h-193c3 72-2 152-16 240-13 88-51 136-112 144v576c1 17 7 31 20 44s27 19 44 20h704c17-1 31-7 44-20s19-27 20-44v-576c-61-8-98-56-112-144zM768 960h-704v-512c57-32 95-80 110-144s20-144 18-240h64c-1 50 10 94 33 132 23 37 65 57 128 60 63-1 105-21 128-60 23-38 32-82 31-132h64c1 91 8 163 21 216 13 52 44 128 107 168v512zM480 384l-32 32v320l32 32h128l32-32v-320l-32-32h-128zM576 704h-64v-256h64v256z"></path>
</symbol>
<symbol id="octicon-key" viewBox="0 0 896 1024">
	<title>key</title>
	<path class="path1" d="M821 139c-48-48-108-73-181-75-72 2-133 27-181 75s-72 108-74 181c0 19 2 38 6 57l-391 391v64l64 64h128l64-64v-64h64v-64h64v-64h128l70-71c19 5 38 7 58 7 73-2 133-27 181-75s73-108 75-181c-2-73-27-133-75-181zM704 344c-49 0-88-39-88-88s39-88 88-88 88 39 88 88-39 88-88 88z"></path>
</symbol>
<symbol id="octicon-keyboard" viewBox="0 0 1024 1024">
	<title>keyboard</title>
	<path class="path1" d="M640 320h-64v-64h64v64zM192 384h-64v64h64v-64zM512 256h-64v64h64v-64zM256 256h-128v64h128v-64zM768 704h128v-64h-128v64zM512 448h64v-64h-64v64zM256 640h-128v64h128v-64zM768 256h-64v64h64v-64zM896 256h-64v64h64v-64zM768 576h128v-192h-128v192zM1024 192v576c0 35-29 64-64 64h-896c-35 0-64-29-64-64v-576c0-35 29-64 64-64h896c35 0 64 29 64 64zM960 192h-896v576h896v-576zM384 448h64v-64h-64v64zM384 256h-64v64h64v-64zM256 448h64v-64h-64v64zM320 704h384v-64h-384v64zM640 448h64v-64h-64v64zM192 512h-64v64h64v-64zM512 512v64h64v-64h-64zM384 512v64h64v-64h-64zM320 512h-64v64h64v-64zM640 576h64v-64h-64v64z"></path>
</symbol>
<symbol id="octicon-law" viewBox="0 0 896 1024">
	<title>law</title>
	<path class="path1" d="M448 256c-53 0-96-43-96-96s43-96 96-96 96 43 96 96-43 96-96 96zM896 640c0 71-57 128-128 128h-64c-71 0-128-57-128-128l128-256h-64c-35 0-64-29-64-64h-64v512c27 0 64 29 64 64h64c27 0 64 29 64 64h-512c0-35 37-64 64-64h64c0-35 37-64 64-64h2l-2-512h-64c0 35-29 64-64 64h-64l128 256c0 71-57 128-128 128h-64c-71 0-128-57-128-128l128-256h-64v-64h192c0-35 29-64 64-64h256c35 0 64 29 64 64h192v64h-64l128 256zM160 448l-96 192h192l-96-192zM832 640l-96-192-96 192h192z"></path>
</symbol>
<symbol id="octicon-light-bulb" viewBox="0 0 768 1024">
	<title>light-bulb</title>
	<path class="path1" d="M352 0c-193 0-352 140-352 320 0 59 35 144 64 192 86 144 114 178 128 256v64h320v-64c14-78 42-112 128-256 29-48 64-133 64-192 0-180-159-320-352-320zM585 479c-16 28-30 51-43 71-55 90-80 132-93 207-1 3-1 7-1 11h-192c0-4 0-8-1-11-13-75-38-117-93-207-13-20-27-43-43-71-27-45-55-117-55-159 0-141 129-256 288-256 78 0 151 27 206 76 53 48 82 112 82 180 0 42-28 114-55 159zM192 896h320c-15 73-83 128-160 128s-145-55-160-128z"></path>
</symbol>
<symbol id="octicon-link-external" viewBox="0 0 768 1024">
	<title>link-external</title>
	<path class="path1" d="M704 640h64v192c0 35-29 64-64 64h-640c-35 0-64-29-64-64v-640c0-35 29-64 64-64h192v64h-192v640h640v-192zM384 128l144 144-208 208 96 96 208-208 144 144v-384h-384z"></path>
</symbol>
<symbol id="octicon-link" viewBox="0 0 1024 1024">
	<title>link</title>
	<path class="path1" d="M256 576h64v64h-64c-96 0-192-108-192-224s99-224 192-224h256c93 0 192 108 192 224 0 90-58 174-128 208v-74c37-29 64-81 64-134 0-82-65-160-128-160h-256c-63 0-128 78-128 160s64 160 128 160zM832 384h-64v64h64c64 0 128 78 128 160s-65 160-128 160h-256c-63 0-128-78-128-160 0-53 27-105 64-134v-74c-70 34-128 118-128 208 0 116 99 224 192 224h256c93 0 192-108 192-224s-96-224-192-224z"></path>
</symbol>
<symbol id="octicon-list-ordered" viewBox="0 0 768 1024">
	<title>list-ordered</title>
	<path class="path1" d="M320 576h448v-128h-448v128zM320 832h448v-128h-448v128zM320 192v128h448v-128h-448zM79 448h78v-256h-36l-85 23v50l43-2v185zM189 654c0-36-12-78-96-78-33 0-64 6-83 16l1 66c21-10 42-15 67-15s32 11 32 28c0 26-30 58-110 112v50h192v-67l-91 2c49-30 87-66 87-113l1-1z"></path>
</symbol>
<symbol id="octicon-list-unordered" viewBox="0 0 768 1024">
	<title>list-unordered</title>
	<path class="path1" d="M0 576h128v-128h-128v128zM0 320h128v-128h-128v128zM0 832h128v-128h-128v128zM256 576h512v-128h-512v128zM256 320h512v-128h-512v128zM256 832h512v-128h-512v128z"></path>
</symbol>
<symbol id="octicon-location" viewBox="0 0 768 1024">
	<title>location</title>
	<path class="path1" d="M384 0c-212 0-384 160-384 352 0 289 384 672 384 672s384-383 384-672c0-192-172-352-384-352zM384 931c-119-130-320-391-320-579 0-159 144-288 320-288 86 0 167 31 228 87 59 55 92 126 92 201 0 188-201 449-320 579zM512 352c0 71-57 128-128 128s-128-57-128-128 57-128 128-128 128 57 128 128z"></path>
</symbol>
<symbol id="octicon-lock" viewBox="0 0 768 1024">
	<title>lock</title>
	<path class="path1" d="M256 832h-64v-64h64v64zM768 448v448c0 35-29 64-64 64h-640c-35 0-64-29-64-64v-448c0-35 29-64 64-64h64v-128c0-141 115-256 256-256s256 115 256 256v128h64c35 0 64 29 64 64zM243 384h282v-128c0-78-63-141-141-141s-141 63-141 141v128zM704 448h-576v448h576v-448zM256 512h-64v64h64v-64zM256 640h-64v64h64v-64z"></path>
</symbol>
<symbol id="octicon-mail-read" viewBox="0 0 896 1024">
	<title>mail-read</title>
	<path class="path1" d="M384 320h-128v-64h128v64zM576 384h-320v64h320v-64zM896 353v543c0 35-29 64-64 64h-768c-35 0-64-29-64-64v-543c0-21 10-40 27-52l101-72v-37c0-35 29-64 64-64h77l179-128 179 128h77c35 0 64 29 64 64v37l101 72c17 12 27 31 27 52zM192 480l256 160 256-160v-288h-512v288zM64 864l288-192-288-192v384zM768 896l-320-192-320 192h640zM832 480l-288 192 288 192v-384z"></path>
</symbol>
<symbol id="octicon-mail-reply" viewBox="0 0 768 1024">
	<title>mail-reply</title>
	<path class="path1" d="M384 160l-384 288 384 288v-192c111 0 329 61 384 280 0-291-196-451-384-472v-192z"></path>
</symbol>
<symbol id="octicon-mail" viewBox="0 0 896 1024">
	<title>mail</title>
	<path class="path1" d="M0 256v512c0 35 29 64 64 64h768c35 0 64-29 64-64v-512c0-35-29-64-64-64h-768c-35 0-64 29-64 64zM832 256l-384 320-384-320h768zM64 352l256 192-256 192v-384zM128 768l224-192 96 96 96-96 224 192h-640zM832 736l-256-192 256-192v384z"></path>
</symbol>
<symbol id="octicon-mark-github" viewBox="0 0 1024 1024">
	<title>mark-github</title>
	<path class="path1" d="M512 0c-282.748 0-512 229.252-512 512 0 226.251 146.688 418.126 350.155 485.813 25.593 4.686 34.937-11.125 34.937-24.626 0-12.188-0.469-52.562-0.718-95.314-128.708 23.46-161.707-31.541-172.469-60.373-5.525-14.809-30.407-60.249-52.398-72.263-17.988-9.828-43.26-33.237-0.917-33.735 40.434-0.476 69.348 37.308 78.471 52.75 45.938 77.749 119.876 55.627 148.999 42.5 4.654-32.999 17.902-55.627 32.501-68.373-113.657-12.939-233.22-56.875-233.22-253.063 0-55.94 19.968-101.561 52.658-137.404-5.22-12.999-22.844-65.095 5.063-135.563 0 0 42.937-13.749 140.811 52.501 40.811-11.406 84.594-17.031 128.124-17.22 43.499 0.188 87.314 5.874 128.188 17.28 97.689-66.311 140.686-52.501 140.686-52.501 28 70.532 10.375 122.564 5.124 135.499 32.811 35.844 52.626 81.468 52.626 137.404 0 196.686-119.751 240-233.813 252.686 18.439 15.876 34.748 47.001 34.748 94.748 0 68.437-0.686 123.627-0.686 140.501 0 13.625 9.312 29.561 35.25 24.562 203.316-67.811 349.88-259.683 349.88-485.809 0-282.748-229.252-512-512-512z"></path>
</symbol>
<symbol id="octicon-markdown" viewBox="0 0 1024 1024">
	<title>markdown</title>
	<path class="path1" d="M950.154 192h-876.308c-40.719 0-73.846 33.127-73.846 73.846v492.308c0 40.721 33.127 73.846 73.846 73.846h876.308c40.721 0 73.846-33.125 73.846-73.846v-492.308c0-40.719-33.125-73.846-73.846-73.846zM576 703.875l-128 0.125v-192l-96 123.077-96-123.077v192h-128v-384h128l96 128 96-128 128-0.125v384zM767.091 735.875l-159.091-223.875h96v-192h128v192h96l-160.909 223.875z"></path>
</symbol>
<symbol id="octicon-megaphone" viewBox="0 0 1024 1024">
	<title>megaphone</title>
	<path class="path1" d="M640 64c-11 0-23 3-33 9-92 56-319 220-415 247-88 0-192 43-192 160s104 160 192 160c19 5 41 15 64 26v294h128v-221c86 55 172 117 223 148 10 6 22 9 33 9 33 0 64-27 64-64v-704c0-37-31-64-64-64zM640 832c-24-15-57-37-96-64-10-7-21-14-32-22v-534c10-7 20-13 30-20 39-26 74-49 98-64v704zM768 448h256v64h-256v-64zM768 576l256 128v64l-256-128v-64zM1024 192v64l-256 128v-64l256-128z"></path>
</symbol>
<symbol id="octicon-mention" viewBox="0 0 832 1024">
	<title>mention</title>
	<path class="path1" d="M466.697 99.101c-228.037-27.999-435.597 134.164-463.595 362.201-28 228.038 134.163 435.598 362.2 463.597 71.429 8.756 145.115-0.913 213.325-29.946l-0.016-0.032c24.404-10.357 35.788-38.538 25.431-62.939-10.359-24.403-38.538-35.787-62.94-25.43l-0.001-0.004c-52.472 22.339-109.15 29.799-164.1 23.067-175.413-21.538-300.153-181.2-278.616-356.613s181.199-300.154 356.613-278.616c175.412 21.538 300.154 181.199 278.617 356.612-4.309 35.083-21.542 55.725-61.6 55.725-42.5 0-64-45.889-64-81.222v-125.501c0-26.51-21.49-48-48-48-9.699 0-18.72 2.887-26.269 7.833-25.684-20.259-57.437-33.87-94.349-38.402-105.246-12.923-201.045 61.924-213.967 167.17s61.924 201.045 167.17 213.967c57.379 7.045 116.216-14.707 157.871-53.13 24.959 28.124 59.866 47.624 100.121 52.567 87.707 10.769 167.537-51.602 178.307-139.309 27.999-228.036-134.165-435.595-362.202-463.595zM511.285 523.699c-6.462 52.623-54.361 90.047-106.985 83.585-52.623-6.461-90.046-54.36-83.585-106.984s54.361-90.046 106.984-83.585c52.623 6.462 90.047 54.361 83.586 106.984z"></path>
</symbol>
<symbol id="octicon-milestone" viewBox="0 0 896 1024">
	<title>milestone</title>
	<path class="path1" d="M512 128h-128v-128h128v128zM768 448h-640c-35 0-64-29-64-64v-128c0-35 29-64 64-64h640l128 128-128 128zM512 256h-128v128h128v-128zM384 1024h128v-512h-128v512z"></path>
</symbol>
<symbol id="octicon-mirror" viewBox="0 0 1024 1024">
	<title>mirror</title>
	<path class="path1" d="M992 301l-448-301-448 301c-19 12-32 29-32 51v672l480-256 480 256v-672c0-22-13-39-32-51zM960 928l-384-208v-80h-64v80l-384 208v-576l384-256v288h64v-288l384 256v576zM384 448h320v-128l192 192-192 192v-128h-320v128l-192-192 192-192v128z"></path>
</symbol>
<symbol id="octicon-mortar-board" viewBox="0 0 1024 1024">
	<title>mortar-board</title>
	<path class="path1" d="M501 588l-245-76s0 96 0 160 115 96 256 96 256-32 256-96 0-160 0-160l-245 76c-7 2-15 2-23 0h1zM519 179c-4-1-9-1-13 0l-489 152c-21 7-21 36 0 43l111 35v113c-19 11-32 32-32 55 0 12 3 23 9 32-5 9-9 20-9 32v165c0 35 128 35 128 0v-165c0-12-3-23-9-32 5-9 9-20 9-32 0-24-13-44-32-55v-93l313 98c4 1 9 1 13 0l489-152c21-7 21-36 0-43l-488-153zM513 384c-35 0-64-14-64-32s29-32 64-32 64 14 64 32-29 32-64 32z"></path>
</symbol>
<symbol id="octicon-mute" viewBox="0 0 1024 1024">
	<title>mute</title>
	<path class="path1" d="M512 180v664c0 43-52 64-82 34l-238-238h-128c-35 0-64-29-64-64v-128c0-35 29-64 64-64h128l238-238c30-30 82-9 82 34zM994 386l-68-68-126 126-126-126-68 68 126 126-126 126 68 68 126-126 126 126 68-68-126-126 126-126z"></path>
</symbol>
<symbol id="octicon-no-newline" viewBox="0 0 1024 1024">
	<title>no-newline</title>
	<path class="path1" d="M1024 320v192c0 35-29 64-64 64h-192v128l-192-192 192-192v128h128v-128h128zM512 512c0 141-115 256-256 256s-256-115-256-256 115-256 256-256 256 115 256 256zM96 618l266-266c-31-20-67-32-106-32-106 0-192 86-192 192 0 39 12 75 32 106zM448 512c0-39-12-75-32-106l-266 266c31 20 67 32 106 32 106 0 192-86 192-192z"></path>
</symbol>
<symbol id="octicon-octoface" viewBox="0 0 1024 1024">
	<title>octoface</title>
	<path class="path1" d="M940.812 277.688c8.25-20.219 35.375-101.75-8.562-211.906 0 0-67.375-21.312-219.875 82.906-63.875-17.563-132.5-20.188-200.375-20.188-67.906 0-136.438 2.625-200.5 20.25-152.469-104.281-219.781-82.969-219.781-82.969-43.907 110.219-16.781 191.688-8.531 211.907-51.688 55.874-83.188 127.187-83.188 214.656 0 329.218 213.25 403.656 510.844 403.656 297.718 0 513.156-74.438 513.156-403.656 0-87.469-31.5-158.782-83.188-214.656zM512 833c-211.406 0-382.781-9.875-382.781-214.688 0-48.938 24.062-94.595 65.344-132.312 68.75-62.969 185.281-29.688 317.438-29.688 132.25 0 248.625-33.281 317.438 29.625 41.312 37.78 65.438 83.312 65.438 132.312-0.002 204.876-171.502 214.751-382.877 214.751zM351.156 512.438c-42.469 0-76.906 51.062-76.906 114.188s34.438 114.312 76.906 114.312c42.375 0 76.812-51.188 76.812-114.312s-34.437-114.188-76.812-114.188zM672.875 512.438c-42.375 0-76.875 51.062-76.875 114.187s34.5 114.312 76.875 114.312 76.812-51.188 76.812-114.312c0.063-63.125-34.375-114.187-76.812-114.187z"></path>
</symbol>
<symbol id="octicon-organization" viewBox="0 0 896 1024">
	<title>organization</title>
	<path class="path1" d="M304 317c35 41 86 67 144 67s109-26 144-67c22 40 64 67 112 67 71 0 128-57 128-128s-57-128-128-128c-26 0-49 8-69 21-20-85-96-149-187-149s-167 64-187 149c-20-13-43-21-69-21-71 0-128 57-128 128s57 128 128 128c48 0 90-27 112-67zM637 220c13-24 38-41 67-41 42 0 77 35 77 77s-35 77-77 77-75-34-76-75c4-12 7-25 9-38zM448 63c71 0 129 58 129 129s-58 129-129 129-129-58-129-129 58-129 129-129zM192 333c-42 0-77-35-77-77s35-77 77-77c29 0 54 17 67 41 2 13 5 26 9 38-1 41-34 75-76 75zM832 384h-768c-35 0-64 29-64 64v192c0 35 29 64 64 64v128c0 35 29 64 64 64h64c35 0 64-29 64-64v-64h64v192c0 35 29 64 64 64h128c35 0 64-29 64-64v-192h64v64c0 35 29 64 64 64h64c35 0 64-29 64-64v-128c35 0 64-29 64-64v-192c0-35-29-64-64-64zM192 832h-64v-192h-64v-192h128v384zM640 704h-64v-128h-64v384h-128v-384h-64v128h-64v-256h384v256zM832 640h-64v192h-64v-384h128v192z"></path>
</symbol>
<symbol id="octicon-package" viewBox="0 0 1024 1024">
	<title>package</title>
	<path class="path1" d="M0 273v478c0 29 19 54 48 62l416 111c10 3 22 3 32 0l416-111c29-8 48-33 48-62v-478c0-29-19-54-48-62l-416-111c-10-2-22-2-32 0l-416 111c-29 8-48 33-48 62zM448 855l-384-102v-433l384 103v432zM64 256l160-43 416 111-160 43-416-111zM896 753l-384 102v-432l128-35v156l128-34v-156l128-34v433zM768 290l-416-111 128-34 416 111-128 34z"></path>
</symbol>
<symbol id="octicon-paintcan" viewBox="0 0 768 1024">
	<title>paintcan</title>
	<path class="path1" d="M384 0c-212.077 0-384 171.923-384 384v64c0 35.346 28.654 64 64 64v320c0 70.692 143.269 128 320 128s320-57.308 320-128v-320c35.346 0 64-28.654 64-64v-64c0-212.077-171.923-384-384-384zM576 640v32c0 17.673-14.327 32-32 32s-32-14.327-32-32v-32c0-17.673-14.327-32-32-32s-32 14.327-32 32v160c0 17.673-14.327 32-32 32s-32-14.327-32-32v-128c0-17.673-14.327-32-32-32s-32 14.327-32 32v32c0 35.346-28.654 64-64 64s-64-28.654-64-64v-64c-35.346 0-64-28.654-64-64v-115.193c58.382 31.085 151.318 51.193 256 51.193s197.618-20.108 256-51.193v115.193c0 35.346-28.654 64-64 64zM384 448c-107.433 0-199.393-26.474-237.372-64 37.979-37.526 129.939-64 237.372-64s199.393 26.474 237.372 64c-37.979 37.526-129.939 64-237.372 64zM384 256c-176.62 0-319.816 57.236-319.996 127.867-0.001-0.001-0.002-0.001-0.003-0.002 0.074-176.669 143.313-319.865 319.999-319.865 176.731 0 320 143.269 320 320 0-70.692-143.269-128-320-128z"></path>
</symbol>
<symbol id="octicon-pencil" viewBox="0 0 896 1024">
	<title>pencil</title>
	<path class="path1" d="M0 768v192h192l512-512-192-192-512 512zM192 896h-128v-128h64v64h64v64zM851 301l-83 83-192-192 83-83c25-25 65-25 90 0l102 102c25 25 25 65 0 90z"></path>
</symbol>
<symbol id="octicon-person" viewBox="0 0 512 1024">
	<title>person</title>
	<path class="path1" d="M448 384h-384c-35 0-64 29-64 64v320h128v192c0 35 29 64 64 64h128c35 0 64-29 64-64v-192h128v-320c0-35-29-64-64-64zM448 704h-64v-128h-64v384h-128v-384h-64v128h-64v-256h384v256zM448 192c0-106-86-192-192-192s-192 86-192 192 86 192 192 192 192-86 192-192zM256 320c-71 0-128-57-128-128s57-128 128-128 128 57 128 128-57 128-128 128z"></path>
</symbol>
<symbol id="octicon-pin" viewBox="0 0 1024 1024">
	<title>pin</title>
	<path class="path1" d="M640 77v51l32 64-288 192h-243c-28 0-43 34-22 55l201 201-256 320 320-256 201 201c21 21 55 6 55-22v-243l192-288 64 32h51c28 0 43-34 22-55l-274-274c-21-21-55-6-55 22z"></path>
</symbol>
<symbol id="octicon-plug" viewBox="0 0 1024 1024">
	<title>plug</title>
	<path class="path1" d="M960 384v-64h-256v-128h-128v64h-128c-66 0-113 52-128 128l-64 64c-106 0-192 86-192 192v128h64v-128c0-71 57-128 128-128l64 64c16 74 63 128 128 128h128v64h128v-128h256v-64h-256v-192h256z"></path>
</symbol>
<symbol id="octicon-plus" viewBox="0 0 768 1024">
	<title>plus</title>
	<path class="path1" d="M768 576h-320v320h-128v-320h-320v-128h320v-320h128v320h320v128z"></path>
</symbol>
<symbol id="octicon-primitive-dot" viewBox="0 0 511.82501220703125 1024">
	<title>primitive-dot</title>
	<path class="path1" d="M-0.088 512c0-141.5 114.5-256 256-256 141.438 0 256 114.5 256 256s-114.562 256-256 256c-141.499 0-256-114.5-256-256z"></path>
</symbol>
<symbol id="octicon-primitive-square" viewBox="0 0 512 1024">
	<title>primitive-square</title>
	<path class="path1" d="M512 768h-512v-512h512v512z"></path>
</symbol>
<symbol id="octicon-pulse" viewBox="0 0 896 1024">
	<title>pulse</title>
	<path class="path1" d="M736 511.938l-172.812-166.344-140.782 198.406-70.406-441.594-199.562 409.532h-152.438v128.062h230.406l57.594-115.188 57.594 345.562 230.406-326.374 102.375 96h217.625v-128.062h-160z"></path>
</symbol>
<symbol id="octicon-question" viewBox="0 0 896 1024">
	<title>question</title>
	<path class="path1" d="M384 640h128v128h-128v-128zM640 416c0 137-128 160-128 160h-128c0-35 29-64 64-64h32c18 0 32-14 32-32v-64c0-18-14-32-32-32h-64c-18 0-32 14-32 32v32h-128c0-96 96-192 192-192s192 64 192 160zM448 147c201 0 365 164 365 365s-164 365-365 365-365-164-365-365 164-365 365-365zM448 64c-247 0-448 201-448 448s201 448 448 448 448-201 448-448-201-448-448-448z"></path>
</symbol>
<symbol id="octicon-quote" viewBox="0 0 640 1024">
	<title>quote</title>
	<path class="path1" d="M0 512v256h256v-256h-128c0 0 0-128 128-128v-128c0 0-256 0-256 256zM640 384v-128c0 0-256 0-256 256v256h256v-256h-128c0 0 0-128 128-128z"></path>
</symbol>
<symbol id="octicon-radio-tower" viewBox="0 0 1024 1024">
	<title>radio-tower</title>
	<path class="path1" d="M306.838 390.739c15.868-16.306 15.868-42.731 0-59.037-20.521-21.116-30.643-48.417-30.705-76.124 0.062-27.77 10.183-55.039 30.705-76.186 15.868-16.337 15.868-42.764 0-59.069-7.934-8.184-18.272-12.275-28.706-12.275-10.371 0-20.804 4.029-28.738 12.213-36.266 37.297-54.633 86.433-54.57 135.317-0.062 48.792 18.305 97.927 54.57 135.161 15.868 16.306 41.576 16.306 57.444 0zM149.093 33.142c-8.121-8.309-18.68-12.463-29.3-12.463-10.558 0-21.179 4.154-29.237 12.463-59.756 61.349-89.805 142.002-89.743 222.436-0.062 80.341 29.987 161.15 89.681 222.437 16.181 16.618 42.356 16.618 58.537 0 16.118-16.587 16.118-43.513 0-60.067-43.7-44.98-65.44-103.456-65.44-162.368s21.74-117.449 65.44-162.368c16.118-16.651 16.118-43.577 0.062-60.070zM513.031 359.847c57.351 0 103.956-46.574 103.956-103.956s-46.605-103.955-103.956-103.955c-57.381 0-103.956 46.573-103.956 103.955s46.575 103.956 103.956 103.956zM933.539 33.767c-16.181-16.618-42.355-16.618-58.475 0-16.181 16.587-16.181 43.513 0 60.068 43.668 44.918 65.409 103.456 65.409 162.368 0 58.85-21.805 117.387-65.473 162.306-16.117 16.618-16.117 43.575 0.062 60.068 8.059 8.309 18.616 12.463 29.237 12.463 10.558 0 21.178-4.154 29.236-12.463 59.726-61.287 89.774-142.096 89.649-222.437 0.129-80.278-29.92-161.087-89.645-222.373zM513.281 442.873v0c-26.489 0.062-53.040-6.466-77.091-19.429l-201.133 536.146h95.209l54.819-63.973h255.891l53.977 63.973h95.272l-201.101-536.021c-23.74 12.776-49.729 19.304-75.843 19.304zM512.656 473.517l64.348 230.183h-127.945l63.597-230.183zM385.086 831.645l63.974-63.973h127.944l63.974 63.973h-255.892zM717.194 121.042c-15.868 16.306-15.868 42.731 0 59.037 20.491 21.116 30.611 48.511 30.674 76.124-0.062 27.77-10.183 55.102-30.674 76.187-15.868 16.336-15.868 42.763 0 59.068 7.871 8.184 18.242 12.213 28.737 12.213 10.309 0 20.741-4.029 28.675-12.213 36.298-37.234 54.665-86.433 54.54-135.255 0.125-48.792-18.181-97.927-54.54-135.161-15.805-16.306-41.544-16.306-57.412 0z"></path>
</symbol>
<symbol id="octicon-repo-clone" viewBox="0 0 1024 1024">
	<title>repo-clone</title>
	<path class="path1" d="M960 0h-384v448c0 35 29 64 64 64h64v64h64v-64h192c35 0 64-29 64-64v-384c0-35-29-64-64-64zM704 448h-64v-64h64v64zM960 448h-192v-64h192v64zM960 320h-256v-256h256v256zM256 320h-64v-64h64v64zM256 192h-64v-64h64v64zM128 64h384v-64h-448c-35 0-64 29-64 64v768c0 35 29 64 64 64h128v128l96-96 96 96v-128h320c35 0 64-29 64-64v-192h-640v-576zM704 704v128h-320v-64h-192v64h-128v-128h640zM192 512h64v64h-64v-64zM256 448h-64v-64h64v64z"></path>
</symbol>
<symbol id="octicon-repo-force-push" viewBox="0 0 767.89599609375 1024">
	<title>repo-force-push</title>
	<path class="path1" d="M640 576h-128v448h-128v-448h-128l144-192h-144l192-256 192 256h-144l144 192zM704 0h-640c-35 0-64 29-64 64v768c0 35 29 64 64 64h256v-64h-256v-128h256v-64h-192v-576h576v576h-128v64h128v128h-128v64h128c35 0 64-29 64-64v-768c0-35-29-64-64-64z"></path>
</symbol>
<symbol id="octicon-repo-forked" viewBox="0 0 640 1024">
	<title>repo-forked</title>
	<path class="path1" d="M512 64c-71 0-128 57-128 128 0 47 26 88 64 110v82l-128 128-128-128v-82c38-22 64-63 64-110 0-71-57-128-128-128s-128 57-128 128c0 47 26 88 64 110v114l192 192v114c-38 22-64 63-64 110 0 71 57 128 128 128s128-57 128-128c0-47-26-88-64-110v-114l192-192v-114c38-22 64-63 64-110 0-71-57-128-128-128zM128 269c-42 0-77-35-77-77s35-77 77-77 77 35 77 77-35 77-77 77zM320 909c-42 0-77-35-77-77s35-77 77-77 77 35 77 77-35 77-77 77zM512 269c-42 0-77-35-77-77s35-77 77-77 77 35 77 77-35 77-77 77z"></path>
</symbol>
<symbol id="octicon-repo-pull" viewBox="0 0 1024 1024">
	<title>repo-pull</title>
	<path class="path1" d="M832 512v-128h-384v-128h384v-128l192 192-192 192zM256 128h-64v64h64v-64zM704 448h64v384c0 35-29 64-64 64h-320v128l-96-96-96 96v-128h-128c-35 0-64-29-64-64v-768c0-35 29-64 64-64h640c35 0 64 29 64 64v128h-64v-128h-576v576h576v-192zM704 704h-640v128h128v-64h192v64h320v-128zM256 384h-64v64h64v-64zM256 256h-64v64h64v-64zM192 576h64v-64h-64v64z"></path>
</symbol>
<symbol id="octicon-repo-push" viewBox="0 0 768 1024">
	<title>repo-push</title>
	<path class="path1" d="M256 192h-64v-64h64v64zM192 320h64v-64h-64v64zM448 320l-192 256h128v448h128v-448h128l-192-256zM704 0h-640c-35 0-64 29-64 64v768c0 35 29 64 64 64h256v-64h-256v-128h256v-64h-192v-576h577l-1 576h-128v64h128v128h-128v64h128c35 0 64-29 64-64v-768c0-35-29-64-64-64z"></path>
</symbol>
<symbol id="octicon-repo" viewBox="0 0 768 1024">
	<title>repo</title>
	<path class="path1" d="M256 576h-64v-64h64v64zM256 384h-64v64h64v-64zM256 256h-64v64h64v-64zM256 128h-64v64h64v-64zM768 64v768c0 35-29 64-64 64h-320v128l-96-96-96 96v-128h-128c-35 0-64-29-64-64v-768c0-35 29-64 64-64h640c35 0 64 29 64 64zM704 704h-640v128h128v-64h192v64h320v-128zM704 64h-576v576h576v-576z"></path>
</symbol>
<symbol id="octicon-rocket" viewBox="0 0 1024 1024">
	<title>rocket</title>
	<path class="path1" d="M1024 0s-6 24-19 68c-13 45-35 101-68 170-45-5-81-21-106-46s-40-60-45-105c69-33 125-56 169-69 45-13 69-18 69-18zM779 245c-17-17-30-35-40-56-10-20-17-42-22-65-37 21-74 45-111 72-37 28-73 60-108 95-45 45-85 116-114 157h-192l-192 192h192l128-128c-22 49-65 191-64 192l64 64c1 1 143-41 192-64l-128 128v192l192-192v-192c41-29 112-70 157-114 35-35 67-72 94-109 28-37 52-74 73-110-23-5-45-12-66-22-20-10-38-23-55-40z"></path>
</symbol>
<symbol id="octicon-rss" viewBox="0 0 640 1024">
	<title>rss</title>
	<path class="path1" d="M128 832h-128v-128c71 0 128 57 128 128zM0 192v64c318 0 576 258 576 576h64c0-353-287-640-640-640zM0 448v64c176 0 320 144 320 320h64c0-212-172-384-384-384z"></path>
</symbol>
<symbol id="octicon-ruby" viewBox="0 0 1024 1024">
	<title>ruby</title>
	<path class="path1" d="M832 384l-320 320v-448h192l128 128zM1024 384l-512 512-512-512 256-256h512l256 256zM512 800l416-416-192-192h-448l-192 192 416 416z"></path>
</symbol>
<symbol id="octicon-screen-full" viewBox="0 0 896 1024">
	<title>screen-full</title>
	<path class="path1" d="M832 640h64v192c0 35-29 64-64 64h-192v-64h192v-192zM64 640h-64v192c0 35 29 64 64 64h192v-64h-192v-192zM64 192h192v-64h-192c-35 0-64 29-64 64v192h64v-192zM128 256h640v512h-640v-512zM256 640h384v-256h-384v256zM832 128h-192v64h192v192h64v-192c0-35-29-64-64-64z"></path>
</symbol>
<symbol id="octicon-screen-normal" viewBox="0 0 896 1024">
	<title>screen-normal</title>
	<path class="path1" d="M128 256h-128v-64h128v-128h64v128c0 35-29 64-64 64zM128 768h-128v64h128v128h64v-128c0-35-29-64-64-64zM704 640c0 35-29 64-64 64h-384c-35 0-64-29-64-64v-256c0-35 29-64 64-64h384c35 0 64 29 64 64v256zM576 448h-256v128h256v-128zM704 832v128h64v-128h128v-64h-128c-35 0-64 29-64 64zM768 192v-128h-64v128c0 35 29 64 64 64h128v-64h-128z"></path>
</symbol>
<symbol id="octicon-search" viewBox="0 0 1024 1024">
	<title>search</title>
	<path class="path1" d="M1005 915l-244-245c45-63 71-139 71-222 0-212-172-384-384-384s-384 172-384 384 172 384 384 384c83 0 159-26 222-71l245 244c12 13 29 19 45 19s33-6 45-19c25-25 25-65 0-90zM448 749c-166 0-301-135-301-301s135-301 301-301 301 135 301 301-135 301-301 301z"></path>
</symbol>
<symbol id="octicon-server" viewBox="0 0 768 1024">
	<title>server</title>
	<path class="path1" d="M704 384h-640c-35 0-64 29-64 64v128c0 35 29 64 64 64h640c35 0 64-29 64-64v-128c0-35-29-64-64-64zM128 576h-64v-128h64v128zM256 576h-64v-128h64v128zM384 576h-64v-128h64v128zM512 576h-64v-128h64v128zM704 64h-640c-35 0-64 29-64 64v128c0 35 29 64 64 64h640c35 0 64-29 64-64v-128c0-35-29-64-64-64zM128 256h-64v-128h64v128zM256 256h-64v-128h64v128zM384 256h-64v-128h64v128zM512 256h-64v-128h64v128zM704 192h-64v-64h64v64zM704 704h-640c-35 0-64 29-64 64v128c0 35 29 64 64 64h640c35 0 64-29 64-64v-128c0-35-29-64-64-64zM128 896h-64v-128h64v128zM256 896h-64v-128h64v128zM384 896h-64v-128h64v128zM512 896h-64v-128h64v128z"></path>
</symbol>
<symbol id="octicon-settings" viewBox="0 0 1024 1024">
	<title>settings</title>
	<path class="path1" d="M192 448h-64v-320h64v320zM128 896h64v-192h-64v192zM448 896h64v-384h-64v384zM768 896h64v-128h-64v128zM832 128h-64v384h64v-384zM512 128h-64v128h64v-128zM256 512h-192c-35 0-64 29-64 64s29 64 64 64h192c35 0 64-29 64-64s-29-64-64-64zM576 320h-192c-35 0-64 29-64 64s29 64 64 64h192c35 0 64-29 64-64s-29-64-64-64zM896 576h-192c-35 0-64 29-64 64s29 64 64 64h192c35 0 64-29 64-64s-29-64-64-64z"></path>
</symbol>
<symbol id="octicon-shield" viewBox="0 0 896 1024">
	<title>shield</title>
	<path class="path1" d="M448 0l-448 128v385c0 299 340 511 448 511s448-212 448-511v-385l-448-128zM320 704l73-179c3-15-4-30-16-38-36-23-57-61-57-103 0-70 57-128 127-128 69 0 129 58 129 128 0 42-21 80-57 103-12 8-19 23-16 38l73 179h-256z"></path>
</symbol>
<symbol id="octicon-sign-in" viewBox="0 0 896 1024">
	<title>sign-in</title>
	<path class="path1" d="M384 432v336h256v-256h64v256c0 35-29 64-64 64h-256v192l-349-174c-21-11-35-33-35-58v-728c0-35 29-64 64-64h576c35 0 64 29 64 64v192h-64v-192h-512l256 128v144l192-144v128h256v128h-256v128l-192-144z"></path>
</symbol>
<symbol id="octicon-sign-out" viewBox="0 0 1024 1024">
	<title>sign-out</title>
	<path class="path1" d="M768 576v-128h-256v-128h256v-128l256 192-256 192zM640 768h-256v-576l-256-128h512v192h64v-192c0-35-29-64-64-64h-576c-35 0-64 29-64 64v728c0 25 14 47 35 58l349 174v-192h256c35 0 64-29 64-64v-256h-64v256z"></path>
</symbol>
<symbol id="octicon-squirrel" viewBox="0 0 1024 1024">
	<title>squirrel</title>
	<path class="path1" d="M768 64c-141.385 0-256 83.75-256 186.875 0 123.875 32 194.125 0 389.125 0-288-177-405.783-256-405.783 3.266-32.17-30.955-42.217-30.955-42.217s-14 7.124-19.354 21.583c-17.231-20.053-36.154-17.54-36.154-17.54l-8.491 37.081c0 0-117.045 40.876-118.635 206.292 13.589 21.584 98.9 38.686 159.476 27.702 57.157 2.956 42.991 50.648 30.193 63.446-53.997 53.998-104.080-18.564-168.080-18.564s-64 64 0 64 64 64 192 64c-198 77 0 256 0 256h-64c-64 0-64 64-64 64s256 0 384 0c192 0 320-64 320-222.182 0-54.34-27.699-114.629-64-162.228-70.943-93.023 14.453-171.156 64-127.59s192 64 192-128c0-141.385-114.615-256-256-256zM160 384c-17.674 0-32-14.327-32-32s14.326-32 32-32c17.673 0 32 14.326 32 32s-14.327 32-32 32z"></path>
</symbol>
<symbol id="octicon-star" viewBox="0 0 896 1024">
	<title>star</title>
	<path class="path1" d="M896 384l-313.5-40.781-134.5-279.219-134.531 279.219-313.469 40.781 230.469 208.875-59.469 303.063 277-148.812 277.062 148.812-59.562-303.063 230.5-208.875z"></path>
</symbol>
<symbol id="octicon-stop" viewBox="0 0 896 1024">
	<title>stop</title>
	<path class="path1" d="M640 64h-384l-256 256v384l256 256h384l256-256v-384l-256-256zM832 672l-224 224h-320l-224-224v-320l224-224h320l224 224v320zM384 256h128v320h-128v-320zM384 640h128v128h-128v-128z"></path>
</symbol>
<symbol id="octicon-sync" viewBox="0 0 768.051025390625 1024">
	<title>sync</title>
	<path class="path1" d="M655.461 473.469c11.875 81.719-13.062 167.781-76.812 230.594-94.188 92.938-239.5 104.375-346.375 34.562l74.875-73-275.189-38.375 38.407 268.75 84.031-80.5c150.907 111.25 364.938 100.75 502.063-34.562 79.5-78.438 115.75-182.562 111.25-285.312l-112.25-22.157zM189.46 320.062c94.156-92.938 239.438-104.438 346.313-34.562l-75 72.969 275.188 38.406-38.375-268.875-83.938 80.688c-150.937-111.344-364.906-100.719-502.063 34.562-79.5 78.406-115.718 182.531-111.25 285.25l112.25 22.125c-11.875-81.75 13.125-167.719 76.875-230.563z"></path>
</symbol>
<symbol id="octicon-tag" viewBox="0 0 896 1024">
	<title>tag</title>
	<path class="path1" d="M431 175c-30-30-71-47-113-47h-158c-88 0-160 72-160 160v158c0 42 17 83 47 113l388 388c25 25 65 25 90 0l294-294c25-25 25-65 0-90l-388-388zM88 518c-20-19-30-45-30-72v-158c0-56 46-102 102-102h158c27 0 53 10 72 30l393 392-303 303-392-393zM128 256h128v128h-128v-128z"></path>
</symbol>
<symbol id="octicon-telescope" viewBox="0 0 896 1024">
	<title>telescope</title>
	<path class="path1" d="M512 576l192 384h-64l-128-256v320h-64v-384l-128 320h-64l128-320 128-64zM448 0h-64v64h64v-64zM320 192h-64v64h64v-64zM128 64h-64v64h64v-64zM40 576c-14 10-18 28-10 43l35 59c8 15 26 20 41 13l89-42-74-128-81 55zM545 231l-371 253 79 137 405-194-113-196zM815 313l-94-161c-9-16-30-21-46-11l-77 53 118 205 85-41c17-8 23-28 14-45z"></path>
</symbol>
<symbol id="octicon-terminal" viewBox="0 0 896 1024">
	<title>terminal</title>
	<path class="path1" d="M448 640h256v64h-256v-64zM256 704l192-192-192-192-48 48 144 144-144 144 48 48zM896 192v640c0 35-29 64-64 64h-768c-35 0-64-29-64-64v-640c0-35 29-64 64-64h768c35 0 64 29 64 64zM832 192h-768v640h768v-640z"></path>
</symbol>
<symbol id="octicon-three-bars" viewBox="0 0 768 1024">
	<title>three-bars</title>
	<path class="path1" d="M0 192v128h768v-128h-768zM0 576h768v-128h-768v128zM0 832h768v-128h-768v128z"></path>
</symbol>
<symbol id="octicon-thumbsdown" viewBox="0 0 896 1024">
	<title>thumbsdown</title>
	<path class="path1" d="M871 485c9-19 15-40 15-62 0-51-28-96-69-120 4-13 6-27 6-41 0-50-26-93-65-118 2-8 10-19 10-27 0-66-59-117-128-117 0 0-212 0-222 0-88 0-170 43-242 81-42 22-89 47-113 47h-63v576h64c37 2 155 69 206 112 12 10 173 168 173 168 26 26 60 40 96 40 35 0 68-13 92-38 51-51 50-135-2-188-20-20-94-115-117-138l256 44c76 0 128-59 128-131 0-34-3-64-25-88zM768 640l-384-64c-7 0 200 266 200 266 28 29 29 73 3 100-13 13-30 19-48 19s-37-7-52-21l-140-142c-86-71-216-158-283-158v-450c87 0 221-126 352-126h224c34 0 64 20 64 53 0 34-30 75-64 75h48c45 0 72 25 72 70 0 44-36 90-81 90h63c45 0 81 26 81 71 0 44-36 80-81 80h27c42 0 63 32 63 70 0 39-23 67-64 67z"></path>
</symbol>
<symbol id="octicon-thumbsup" viewBox="0 0 896 1024">
	<title>thumbsup</title>
	<path class="path1" d="M896 451c0-72-52-131-128-131l-256 44c23-23 97-118 117-138 52-53 53-137 2-188-24-25-57-38-92-38-36 0-70 14-96 40 0 0-161 158-173 168-51 43-169 110-206 112h-64v576h63c24 0 71 25 113 47 72 38 154 81 242 81 10 0 222 0 222 0 69 0 128-51 128-117 0-8-8-19-10-27 39-25 65-68 65-118 0-14-2-28-6-41 41-24 69-69 69-120 0-22-6-43-15-62 22-24 25-54 25-88zM832 451c0 38-21 70-63 70h-27c45 0 81 36 81 80 0 45-36 71-81 71h-63c45 0 81 46 81 90 0 45-27 70-72 70h-48c34 0 64 41 64 75 0 33-30 53-64 53h-224c-131 0-265-126-352-126v-450c67 0 197-87 283-158l140-142c15-14 34-21 52-21s35 6 48 19c26 27 25 71-3 100 0 0-207 266-200 266l384-64c41 0 64 28 64 67z"></path>
</symbol>
<symbol id="octicon-tools" viewBox="0 0 1024 1024">
	<title>tools</title>
	<path class="path1" d="M286.547 465.016c16.843 16.812 81.716 85.279 81.716 85.279l35.968-37.093-56.373-58.248 108.214-114.934c0 0-48.842-47.623-27.468-28.655 20.438-75.903 1.812-160.589-55.842-220.243-57.154-59.186-138.37-78.592-211.337-58.218l123.653 127.715-32.53 125.309-121.060 33.438-123.59-127.748c-19.718 75.436-0.969 159.339 56.311 218.556 60.093 62.123 146.621 80.373 222.338 54.842zM698.815 589.231l-149.121 147.308 245.932 254.805c20.062 20.812 46.498 31.188 72.872 31.188 26.25 0 52.624-10.375 72.811-31.188 40.249-41.624 40.249-108.997 0-150.62l-242.494-251.493zM1023.681 161.838l-156.621-161.839-461.673 477.298 56.373 58.248-276.335 285.616-63.154 33.749-89.217 145.559 22.719 23.562 140.839-92.247 32.655-65.312 276.336-285.554 56.404 58.248 461.674-477.328z"></path>
</symbol>
<symbol id="octicon-trashcan" viewBox="0 0 768 1024">
	<title>trashcan</title>
	<path class="path1" d="M640 128h-128c0-35-29-64-64-64h-192c-35 0-64 29-64 64h-128c-35 0-64 29-64 64v64c0 35 29 64 64 64v576c0 35 29 64 64 64h448c35 0 64-29 64-64v-576c35 0 64-29 64-64v-64c0-35-29-64-64-64zM576 896h-448v-576h64v512h64v-512h64v512h64v-512h64v512h64v-512h64v576zM640 256h-576v-64h576v64z"></path>
</symbol>
<symbol id="octicon-triangle-down" viewBox="0 0 767.5 1024">
	<title>triangle-down</title>
	<path class="path1" d="M0 384l383.75 383.75 383.75-383.75h-767.5z"></path>
</symbol>
<symbol id="octicon-triangle-left" viewBox="0 0 383.75 1024">
	<title>triangle-left</title>
	<path class="path1" d="M0 511.875l383.75 383.75v-767.5l-383.75 383.75z"></path>
</symbol>
<symbol id="octicon-triangle-right" viewBox="0 0 383.875 1024">
	<title>triangle-right</title>
	<path class="path1" d="M0.062 128.25l383.75 383.75-383.75 383.75v-767.5z"></path>
</symbol>
<symbol id="octicon-triangle-up" viewBox="0 0 767.5 1024">
	<title>triangle-up</title>
	<path class="path1" d="M383.75 256l-383.75 383.75h767.5l-383.75-383.75z"></path>
</symbol>
<symbol id="octicon-unfold" viewBox="0 0 896 1024">
	<title>unfold</title>
	<path class="path1" d="M736 544l160 160c0 35-29 64-64 64h-256v-64h224l-128-128h-448l-128 128h224v64h-256c-35 0-64-29-64-64l160-160-160-160c0-35 29-64 64-64h256v64h-224l128 128h448l128-128h-224v-64h256c35 0 64 29 64 64l-160 160zM384 448h128v-192h128l-192-192-192 192h128v192zM512 640h-128v192h-128l192 192 192-192h-128v-192z"></path>
</symbol>
<symbol id="octicon-unmute" viewBox="0 0 1024 1024">
	<title>unmute</title>
	<path class="path1" d="M704 513c0 70-29 134-75 181l-43-43c35-36 57-84 57-138s-22-103-57-138l43-43c46 46 75 110 75 181zM430 146l-238 238h-128c-35 0-64 29-64 64v128c0 35 29 64 64 64h128l238 238c30 30 82 9 82-34v-664c0-43-52-64-82-34zM810 151l-43 43c82 82 132 194 132 319 0 124-50 237-132 319l43 43c93-93 150-221 150-362 0-142-57-270-150-362zM720 241l-44 43c59 59 95 140 95 229s-36 170-95 228l44 43c69-69 112-165 112-271s-43-202-112-272z"></path>
</symbol>
<symbol id="octicon-versions" viewBox="0 0 896 1024">
	<title>versions</title>
	<path class="path1" d="M832 192h-384c-35 0-64 29-64 64v512c0 35 29 64 64 64h384c35 0 64-29 64-64v-512c0-35-29-64-64-64zM768 704h-256v-384h256v384zM256 256h64v64h-64v384h64v64h-64c-35 0-64-29-64-64v-384c0-35 29-64 64-64zM64 320h64v64h-64v256h64v64h-64c-35 0-64-29-64-64v-256c0-35 29-64 64-64z"></path>
</symbol>
<symbol id="octicon-watch" viewBox="0 0 768 1024">
	<title>watch</title>
	<path class="path1" d="M384 512h128v64h-192v-256h64v192zM768 512c0 142-77 266-192 332v116c0 35-29 64-64 64h-256c-35 0-64-29-64-64v-116c-115-66-192-190-192-332s77-266 192-332v-116c0-35 29-64 64-64h256c35 0 64 29 64 64v116c115 66 192 190 192 332zM704 512c0-177-143-320-320-320s-320 143-320 320 143 320 320 320 320-143 320-320z"></path>
</symbol>
<symbol id="octicon-x" viewBox="0 0 768 1024">
	<title>x</title>
	<path class="path1" d="M479 512l240 240-95 95-240-240-240 240-95-95 240-240-240-240 95-95 240 240 240-240 95 95-240 240z"></path>
</symbol>
<symbol id="octicon-zap" viewBox="0 0 640 1024">
	<title>zap</title>
	<path class="path1" d="M640 448h-256l192-448-576 576h256l-192 448 576-576z"></path>
</symbol>
<symbol id="octicon-diff-modified" viewBox="0 0 896 1024">
	<title>diff-modified</title>
	<path class="path1" d="M832 64h-768c-35 0-64 29-64 64v768c0 35 29 64 64 64h768c35 0 64-29 64-64v-768c0-35-29-64-64-64zM832 896h-768v-768h768v768zM256 512c0-106 86-192 192-192s192 86 192 192-86 192-192 192-192-86-192-192z"></path>
</symbol>
<symbol id="octicon-diff-removed" viewBox="0 0 896 1024">
	<title>diff-removed</title>
	<path class="path1" d="M832 64h-768c-35 0-64 29-64 64v768c0 35 29 64 64 64h768c35 0 64-29 64-64v-768c0-35-29-64-64-64zM832 896h-768v-768h768v768zM704 576h-512v-128h512v128z"></path>
</symbol>
<symbol id="octicon-diff-renamed" viewBox="0 0 896 1024">
	<title>diff-renamed</title>
	<path class="path1" d="M384 576h-192v-128h192v-192l320 256-320 256v-192zM896 128v768c0 35-29 64-64 64h-768c-35 0-64-29-64-64v-768c0-35 29-64 64-64h768c35 0 64 29 64 64zM832 128h-768v768h768v-768z"></path>
</symbol>
<symbol id="octicon-diff" viewBox="0 0 896 1024">
	<title>diff</title>
	<path class="path1" d="M384 448h128v64h-128v128h-64v-128h-128v-64h128v-128h64v128zM192 832h320v-64h-320v64zM480 128l224 224v608c0 35-29 64-64 64h-576c-35 0-64-29-64-64v-768c0-35 29-64 64-64h416zM640 384l-192-192h-384v768h576v-576zM544 0s-352 0-352 0v64h320l256 256v512h64v-544l-288-288z"></path>
</symbol>
<symbol id="octicon-ellipsis" viewBox="0 0 768 1024">
	<title>ellipsis</title>
	<path class="path1" d="M704 320h-640c-35 0-64 29-64 64v256c0 35 29 64 64 64h640c35 0 64-29 64-64v-256c0-35-29-64-64-64zM256 576h-128v-128h128v128zM448 576h-128v-128h128v128zM640 576h-128v-128h128v128z"></path>
</symbol>
</defs>
</svg>
