<?xml version="1.0" encoding="UTF-8"?><!DOCTYPE svg PUBLIC "-//W3C//DTD SVG 1.1//EN" "http://www.w3.org/Graphics/SVG/1.1/DTD/svg11.dtd"><svg xmlns="http://www.w3.org/2000/svg">
<symbol id="octicon-alert" viewBox="0 0 24 22">
    <title>octicon-alert</title>
    <path fill="#000" d="M23.303 19.253L13.05 1.257C12.783.79 12.287.5 11.75.5s-1.033.29-1.3.757L.197 19.253c-.265.465-.263 1.036.005 1.5.268.462.76.747 1.295.747h20.506c.534 0 1.027-.285 1.295-.748s.27-1.034.005-1.5zM13.5 18.5h-3v-3h3v3zm0-4.5h-3V8h3v6z"/>
</symbol>
<symbol id="octicon-arrow-down" viewBox="0 0 16 16">
    <title>octicon-arrow-down</title>
    <path fill="#000" d="M11 6.5v-6H5v6H.5l7.5 9 7.5-9H11z"/>
</symbol>
<symbol id="octicon-arrow-left" viewBox="0 0 16 16">
    <title>octicon-arrow-left</title>
    <path fill="#000" d="M9.5 5V.5L.5 8l9 7.5V11h6V5h-6z"/>
</symbol>
<symbol id="octicon-arrow-right" viewBox="0 0 16 16">
    <title>octicon-arrow-right</title>
    <path fill="#000" d="M15.5 8L6.5.5V5h-6v6h6v4.5l9-7.5z"/>
</symbol>
<symbol id="octicon-arrow-small-down" viewBox="0 0 10 10">
    <title>octicon-arrow-small-down</title>
    <path fill="#000" d="M6.5 3.5v-3h-3v3h-3l4.5 6 4.5-6h-3z"/>
</symbol>
<symbol id="octicon-arrow-small-left" viewBox="0 0 10 10">
    <title>octicon-arrow-small-left</title>
    <path fill="#000" d="M6.5 3.5v-3L.5 5l6 4.5v-3h3v-3h-3z"/>
</symbol>
<symbol id="octicon-arrow-small-right" viewBox="0 0 10 10">
    <title>octicon-arrow-small-right</title>
    <path fill="#000" d="M9.5 5L3.5.5v3h-3v3h3v3l6-4.5z"/>
</symbol>
<symbol id="octicon-arrow-small-up" viewBox="0 0 10 10">
    <title>octicon-arrow-small-up</title>
    <path fill="#000" d="M5 .5l-4.5 6h3v3h3v-3h3L5 .5z"/>
</symbol>
<symbol id="octicon-arrow-up" viewBox="0 0 16 16">
    <title>octicon-arrow-up</title>
    <path fill="#000" d="M8 .5l-7.5 9H5v6h6v-6h4.5L8 .5z"/>
</symbol>
<symbol id="octicon-beaker" viewBox="0 0 22 24">
    <title>octicon-beaker</title>
    <path fill="#000" d="M21.366 21.89l-5.09-11.39v-6h1.51V3H4.215v1.5h1.507v6L.633 21.89C.187 22.876.918 24 2 24h18c1.083 0 1.814-1.125 1.366-2.11zM5.5 15l1.917-4.5v-6h7.666v6L17 15H5.5zm6.5-3h1.5v1.5H12V12zm-2-1.5H8.5V9H10v1.5zM10 6h1.5v1.5H10V6zm0-4.5H8.5V0H10v1.5z"/>
</symbol>
<symbol id="octicon-bell" viewBox="0 0 22 23">
    <title>octicon-bell</title>
    <path fill="#000" d="M21.5 16.5V18H.5v-1.5l1.102-.867C2.75 14.483 2.82 11.813 3.382 9 4.533 3.352 9.5 1.5 9.5 1.5 9.5.68 10.18 0 11 0s1.5.68 1.5 1.5c0 0 5.086 1.852 6.234 7.5.563 2.813.633 5.484 1.782 6.633l.984.867zm-10.5 6c1.664 0 3-1.336 3-3H8c0 1.664 1.336 3 3 3z"/>
</symbol>
<symbol id="octicon-book" viewBox="0 0 23 18">
    <title>octicon-book</title>
    <path fill="#000" d="M3.5 4.5h6V6h-6V4.5zm0 4.5h6V7.5h-6V9zm0 3h6v-1.5h-6V12zM20 4.5h-6V6h6V4.5zm0 3h-6V9h6V7.5zm0 3h-6V12h6v-1.5zm3-9V15c0 .82-.68 1.5-1.5 1.5h-8.25l-1.5 1.5-1.5-1.5H2c-.82 0-1.5-.68-1.5-1.5V1.5C.5.68 1.18 0 2 0h8.25l1.5 1.5 1.5-1.5h8.25c.82 0 1.5.68 1.5 1.5zm-12 .75l-.75-.75H2V15h9V2.25zm10.5-.75h-8.25l-.75.75V15h9V1.5z"/>
</symbol>
<symbol id="octicon-bookmark" viewBox="0 0 10 18">
    <title>octicon-bookmark</title>
    <path fill="#000" d="M.5 18L5 15l4.5 3V1.5C9.5.68 8.82 0 8 0H2C1.18 0 .5.68.5 1.5V18zM2.192 4.548l2.06-.023.63-1.873c.07-.203.165-.203.235 0l.632 1.873 2.058.023c.21 0 .257.068.094.203L6.217 5.926l.655 1.873c.047.203-.023.248-.187.158L5 6.782 3.315 7.956c-.164.09-.234.045-.187-.158l.655-1.873L2.098 4.75c-.163-.134-.117-.202.094-.202z"/>
</symbol>
<symbol id="octicon-briefcase" viewBox="0 0 22 18">
    <title>octicon-briefcase</title>
    <path fill="#000" d="M14 3V1.5c0-.82-.68-1.5-1.5-1.5h-3C8.68 0 8 .68 8 1.5V3H2C1.18 3 .5 3.68.5 4.5v12c0 .82.68 1.5 1.5 1.5h18c.82 0 1.5-.68 1.5-1.5v-12c0-.82-.68-1.5-1.5-1.5h-6zM9.5 1.5h3V3h-3V1.5zm10.5 9h-7.5V12h-3v-1.5H2v-6h1.5V9h15V4.5H20v6z"/>
</symbol>
<symbol id="octicon-broadcast" viewBox="0 0 23 24">
    <title>octicon-broadcast</title>
    <path fill="#000" d="M13.5 13.5H12c.82 0 1.5-.68 1.5-1.5v-1.5c0-.82-.68-1.5-1.5-1.5h-1.5C9.68 9 9 9.68 9 10.5V12c0 .82.68 1.5 1.5 1.5H9c-.82 0-1.5.68-1.5 1.5v3H9v4.5c0 .82.68 1.5 1.5 1.5H12c.82 0 1.5-.68 1.5-1.5V18H15v-3c0-.82-.68-1.5-1.5-1.5zm-3-3H12V12h-1.5v-1.5zm3 6H12v6h-1.5v-6H9V15h4.5v1.5zm3.14-5.216c0-2.992-2.413-5.418-5.39-5.418s-5.39 2.426-5.39 5.418c0 .424.046.824.14 1.225v2.99c-.914-1.154-1.5-2.615-1.5-4.216C4.5 7.54 7.523 4.5 11.25 4.5S18 7.54 18 11.284c0 1.6-.586 3.062-1.5 4.216v-2.99c.094-.402.14-.802.14-1.226zm5.86-.134c0 4.275-2.438 7.992-6 9.85v-1.556c2.79-1.72 4.64-4.786 4.64-8.294 0-5.412-4.43-9.803-9.89-9.803-5.46 0-9.89 4.39-9.89 9.803 0 3.508 1.85 6.575 4.64 8.294V21c-3.563-1.858-6-5.575-6-9.85C0 4.994 5.04 0 11.25 0S22.5 4.994 22.5 11.15z"/>
</symbol>
<symbol id="octicon-browser" viewBox="0 0 22 18">
    <title>octicon-browser</title>
    <path fill="#000" d="M8 1.5h1.5V3H8V1.5zm-3 0h1.5V3H5V1.5zm-3 0h1.5V3H2V1.5zm18 15H2v-12h18v12zM20 3h-9V1.5h9V3zm1.5-1.5C21.5.67 20.83 0 20 0H2C1.17 0 .5.67.5 1.5v15c0 .83.67 1.5 1.5 1.5h18c.83 0 1.5-.67 1.5-1.5v-15z"/>
</symbol>
<symbol id="octicon-bug" viewBox="0 0 20 20">
    <title>octicon-bug</title>
    <path fill="#000" d="M15.246 14h4.496v-1.5h-4.496V11L20 9.453l-.515-1.406-4.24 1.453V8c0-.82-.678-1.5-1.498-1.5V5c0-.727-.54-1.313-1.24-1.453L14.05 2h2.693V.5h-3.302l-2.998 3h-.89L6.557.5H3.255V2h2.693l1.546 1.547c-.702.14-1.24.726-1.24 1.453v1.5c-.82 0-1.5.68-1.5 1.5v1.5L.514 8.047 0 9.453 4.754 11v1.5H.258V14h4.496v1.5L0 17.047l.515 1.406L4.755 17v1.5c0 .82.678 1.5 1.498 1.5h1.5l1.498-1.5V8h1.5v10.5l1.498 1.5h1.5c.82 0 1.498-.68 1.498-1.5V17l4.24 1.453.514-1.406-4.754-1.547V14zM12.5 6.5H8V5h4.5v1.5z"/>
</symbol>
<symbol id="octicon-calendar" viewBox="0 0 20 22">
    <title>octicon-calendar</title>
    <path fill="#000" d="M18.5 2H17v2.25c0 .422-.328.75-.75.75h-3c-.422 0-.75-.328-.75-.75V2H8v2.25c0 .422-.328.75-.75.75h-3c-.422 0-.75-.328-.75-.75V2H2C1.18 2 .5 2.68.5 3.5V20c0 .82.68 1.5 1.5 1.5h16.5c.82 0 1.5-.68 1.5-1.5V3.5c0-.82-.68-1.5-1.5-1.5zm0 18H2V6.5h16.5V20zM6.5 3.5H5v-3h1.5v3zm9 0H14v-3h1.5v3zM8 9.5H6.5V8H8v1.5zm3 0H9.5V8H11v1.5zm3 0h-1.5V8H14v1.5zm3 0h-1.5V8H17v1.5zm-12 3H3.5V11H5v1.5zm3 0H6.5V11H8v1.5zm3 0H9.5V11H11v1.5zm3 0h-1.5V11H14v1.5zm3 0h-1.5V11H17v1.5zm-12 3H3.5V14H5v1.5zm3 0H6.5V14H8v1.5zm3 0H9.5V14H11v1.5zm3 0h-1.5V14H14v1.5zm3 0h-1.5V14H17v1.5zm-12 3H3.5V17H5v1.5zm3 0H6.5V17H8v1.5zm3 0H9.5V17H11v1.5zm3 0h-1.5V17H14v1.5z"/>
</symbol>
<symbol id="octicon-check" viewBox="0 0 18 15">
    <title>octicon-check</title>
    <path fill="#000" d="M18 2.29L6 14.5 0 8.395l2.25-2.29L6 9.92 15.75 0 18 2.29z"/>
</symbol>
<symbol id="octicon-checklist" viewBox="0 0 18 17">
    <title>octicon-checklist</title>
    <path fill="#000" d="M5.375 12.61c.023-.493.234-.985.586-1.313l1.5-1.406c.376-.35.82-.515 1.29-.515.47 0 .96.188 1.336.54l.914.937 3-3V1.5c0-.82-.68-1.5-1.5-1.5H2C1.18 0 .5.68.5 1.5V15c0 .82.68 1.5 1.5 1.5h6.375l-2.46-2.53c-.353-.376-.54-.845-.54-1.36zM5 1.5h7.5V3H5V1.5zM3.5 6H2V4.5h1.5V6zm0-3H2V1.5h1.5V3zM5 4.5h7.5V6H5V4.5zm13 5.545L11.25 17 7.5 13.04 9 11.59l2.25 2.32L16.5 8.5l1.5 1.545z"/>
</symbol>
<symbol id="octicon-chevron-down" viewBox="0 0 16 10">
    <title>octicon-chevron-down</title>
    <path fill="#000" d="M8 10L.5 2.308 2.75 0 8 5.77 13.25 0l2.25 2.308L8 10z"/>
</symbol>
<symbol id="octicon-chevron-left" viewBox="0 0 10 16">
    <title>octicon-chevron-left</title>
    <path fill="#000" d="M7.692.5L10 2.75 4.23 8 10 13.25 7.692 15.5 0 8 7.692.5z"/>
</symbol>
<symbol id="octicon-chevron-right" viewBox="0 0 10 16">
    <title>octicon-chevron-right</title>
    <path fill="#000" d="M10 8l-7.692 7.5L0 13.25 5.77 8 0 2.75 2.308.5 10 8z"/>
</symbol>
<symbol id="octicon-chevron-up" viewBox="0 0 16 10">
    <title>octicon-chevron-up</title>
    <path fill="#000" d="M15.5 7.692L13.25 10 8 4.23 2.75 10 .5 7.692 8 0l7.5 7.692z"/>
</symbol>
<symbol id="octicon-circle-slash" viewBox="0 0 22 22">
    <title>octicon-circle-slash</title>
    <path fill="#000" d="M11 .5C5.21.5.5 5.21.5 11S5.21 21.5 11 21.5 21.5 16.79 21.5 11 16.79.5 11 .5zm.205 2c1.98 0 3.816.668 5.295 1.79L4.29 16.5c-1.122-1.48-1.79-3.315-1.79-5.295C2.5 6.41 6.41 2.5 11.205 2.5zm.09 17.5C9.315 20 7.48 19.332 6 18.21L18.21 6C19.333 7.48 20 9.315 20 11.295 20 16.09 16.09 20 11.295 20z"/>
</symbol>
<symbol id="octicon-circuit-board" viewBox="0 0 22 22">
    <title>octicon-circuit-board</title>
    <path fill="#000" d="M5 6.5C5 5.68 5.68 5 6.5 5S8 5.68 8 6.5 7.32 8 6.5 8 5 7.32 5 6.5zm12 0c0-.82-.68-1.5-1.5-1.5S14 5.68 14 6.5 14.68 8 15.5 8 17 7.32 17 6.5zm0 9c0-.82-.68-1.5-1.5-1.5s-1.5.68-1.5 1.5.68 1.5 1.5 1.5 1.5-.68 1.5-1.5zm3-15H8v3.258c.54.28.96.703 1.242 1.242h3.516c.633-1.172 1.992-1.922 3.515-1.57 1.125.28 2.04 1.195 2.297 2.32.47 2.063-1.078 3.89-3.07 3.89-1.195 0-2.227-.656-2.742-1.64H9.242C8.61 9.195 7.25 9.922 5.727 9.547 4.625 9.29 3.71 8.375 3.453 7.273 3.078 5.75 3.805 4.39 5 3.758V.5H2C1.18.5.5 1.18.5 2v18c0 .82.68 1.5 1.5 1.5L9.5 14h3.258c.633-1.172 1.992-1.922 3.515-1.57 1.125.28 2.04 1.195 2.297 2.32.47 2.063-1.078 3.89-3.07 3.89-1.195 0-2.227-.656-2.742-1.64H11l-4.5 4.5H20c.82 0 1.5-.68 1.5-1.5V2c0-.82-.68-1.5-1.5-1.5z"/>
</symbol>
<symbol id="octicon-clippy" viewBox="0 0 22 23">
    <title>octicon-clippy</title>
    <path fill="#000" d="M3.5 18h6v1.5h-6V18zM11 9H3.5v1.5H11V9zm3 4.5v-3L9.5 15l4.5 4.5v-3h7.5v-3H14zM7.5 12h-4v1.5h4V12zm-4 4.5h4V15h-4v1.5zM17 18h1.5v3c-.023.422-.164.773-.445 1.055-.282.28-.633.422-1.055.445H2c-.82 0-1.5-.68-1.5-1.5V4.5C.5 3.68 1.18 3 2 3h4.5c0-1.664 1.336-3 3-3s3 1.336 3 3H17c.82 0 1.5.68 1.5 1.5V12H17V7.5H2V21h15v-3zM3.5 6h12c0-.82-.68-1.5-1.5-1.5h-1.5c-.82 0-1.5-.68-1.5-1.5s-.68-1.5-1.5-1.5S8 2.18 8 3s-.68 1.5-1.5 1.5H5c-.82 0-1.5.68-1.5 1.5z"/>
</symbol>
<symbol id="octicon-clock" viewBox="0 0 22 22">
    <title>octicon-clock</title>
    <path fill="#000" d="M12.5 11H17v3h-6c-.82 0-1.5-.68-1.5-1.5V5h3v6zM11 2.5c4.68 0 8.5 3.82 8.5 8.5s-3.82 8.5-8.5 8.5-8.5-3.82-8.5-8.5S6.32 2.5 11 2.5zm0-2C5.21.5.5 5.21.5 11S5.21 21.5 11 21.5 21.5 16.79 21.5 11 16.79.5 11 .5z"/>
</symbol>
<symbol id="octicon-cloud-download" viewBox="0 0 24 22">
    <title>octicon-cloud-download</title>
    <path fill="#000" d="M13.5 17h3L12 21.5 7.5 17h3V9.5h3V17zM18 5c0-.656-1.36-4.5-6.75-4.5-3.633 0-6.75 2.883-6.75 6C1.523 6.5 0 8.773 0 11c0 2.297 1.5 4.5 4.5 4.5H9v-1.945H4.5c-2.438 0-2.555-2.133-2.555-2.555 0-.258.07-2.555 2.555-2.555h1.945V6.5c0-2.086 2.344-4.055 4.805-4.055 3.82 0 4.688 2.32 4.805 2.696v1.805H18c1.22 0 4.055.328 4.055 3.305 0 3.14-3.375 3.305-4.055 3.305h-3V15.5h3c3.117 0 6-1.734 6-5.25C24 6.594 21.117 5 18 5z"/>
</symbol>
<symbol id="octicon-cloud-upload" viewBox="0 0 24 18">
    <title>octicon-cloud-upload</title>
    <path fill="#000" d="M10.5 10.5h-3L12 6l4.5 4.5h-3V18h-3v-7.5zm7.5-6c0-.656-1.36-4.5-6.75-4.5C7.617 0 4.5 2.883 4.5 6 1.523 6 0 8.273 0 10.5 0 12.797 1.5 15 4.5 15H9v-1.945H4.5c-2.438 0-2.555-2.133-2.555-2.555 0-.258.07-2.555 2.555-2.555h1.945V6c0-2.086 2.344-4.055 4.805-4.055 3.82 0 4.688 2.32 4.805 2.696v1.805H18c1.22 0 4.055.328 4.055 3.305 0 3.14-3.375 3.305-4.055 3.305h-3V15h3c3.117 0 6-1.734 6-5.25 0-3.656-2.883-5.25-6-5.25z"/>
</symbol>
<symbol id="octicon-code" viewBox="0 0 22 16">
    <title>octicon-code</title>
    <path fill="#000" d="M14.75.5L12.5 2.75 17.75 8l-5.25 5.25 2.25 2.25L21.5 8 14.75.5zm-7.5 0L.5 8l6.75 7.5 2.25-2.25L4.25 8 9.5 2.75 7.25.5z"/>
</symbol>
<symbol id="octicon-color-mode" viewBox="0 0 18 18">
    <title>octicon-color-mode</title>
    <path fill="#000" d="M16.5 0h-15C.68 0 0 .68 0 1.5v15c0 .82.68 1.5 1.5 1.5h15c.82 0 1.5-.68 1.5-1.5v-15c0-.82-.68-1.5-1.5-1.5zm-15 16.5v-15h15l-15 15z"/>
</symbol>
<symbol id="octicon-comment-discussion" viewBox="0 0 23 20">
    <title>octicon-comment-discussion</title>
    <path fill="#000" d="M6 11c0 .82.68 1.5 1.5 1.5h6V14c0 .82-.68 1.5-1.5 1.5H7.5L3 20v-4.5H1.5C.68 15.5 0 14.82 0 14V6.5C0 5.68.68 5 1.5 5H6v6zM21 .5H9c-.82 0-1.5.68-1.5 1.5v7.5c0 .82.68 1.5 1.5 1.5h6l4.5 4.5V11H21c.82 0 1.5-.68 1.5-1.5V2c0-.82-.68-1.5-1.5-1.5z"/>
</symbol>
<symbol id="octicon-comment" viewBox="0 0 22 21">
    <title>octicon-comment</title>
    <path fill="#000" d="M20 0H2C1.18 0 .5.688.5 1.52v12.147c0 .83.68 1.518 1.5 1.518h3V20.5l5.25-5.315H20c.82 0 1.5-.688 1.5-1.518V1.52C21.5.687 20.82 0 20 0zm0 13.5H9.5l-3 3v-3H2v-12h18v12z"/>
</symbol>
<symbol id="octicon-credit-card" viewBox="0 0 24 17">
    <title>octicon-credit-card</title>
    <path fill="#000" d="M18 10.5H3V9h15v1.5zm6-9V15c0 .82-.68 1.5-1.5 1.5h-21C.68 16.5 0 15.82 0 15V1.5C0 .68.68 0 1.5 0h21c.82 0 1.5.68 1.5 1.5zM22.5 6h-21v9h21V6zm0-4.5h-21V3h21V1.5zM9 12H3v1.5h6V12z"/>
</symbol>
<symbol id="octicon-dash" viewBox="0 0 12 4">
    <title>octicon-dash</title>
    <path fill="#000" d="M0 .5v3h12v-3H0z"/>
</symbol>
<symbol id="octicon-dashboard" viewBox="0 0 23 23">
    <title>octicon-dashboard</title>
    <path fill="#000" d="M12.5 6H11V4.5h1.5V6zm6 4.5H17V12h1.5v-1.5zM8 6H6.5v1.5H8V6zm-1.5 4.5H5V12h1.5v-1.5zM23 2.25l-.75-.75L12.5 9c-.094-.023-1.5 0-1.5 0-.82 0-1.5.68-1.5 1.5V12c0 .82.68 1.5 1.5 1.5h1.5c.82 0 1.5-.68 1.5-1.5v-1.383l9-8.367zm-2.39 6.14c.28.915.445 1.876.445 2.86 0 5.133-4.172 9.305-9.305 9.305s-9.305-4.172-9.305-9.305 4.172-9.305 9.305-9.305c1.805 0 3.47.516 4.898 1.407l1.407-1.407C16.273.727 14.095 0 11.75 0 5.54 0 .5 5.04.5 11.25S5.54 22.5 11.75 22.5 23 17.46 23 11.25c0-1.547-.305-3.023-.89-4.36l-1.5 1.5z"/>
</symbol>
<symbol id="octicon-database" viewBox="0 0 18 22">
    <title>octicon-database</title>
    <path fill="#000" d="M9 22c-4.97 0-9-1.395-9-3.11v-3.112c0-.27.13-.527.318-.778C1.32 16.34 4.81 17.333 9 17.333c4.19 0 7.68-.993 8.682-2.333.188.25.318.507.318.778v3.11C18 20.606 13.97 22 9 22zm0-6c-4.97 0-9-1.395-9-3.11V9.777c0-.165.06-.325.14-.484.046-.1.106-.198.178-.294C1.32 10.34 4.81 11.333 9 11.333c4.19 0 7.68-.994 8.682-2.333.072.096.132.194.177.294.08.16.14.32.14.484v3.11C18 14.606 13.97 16 9 16zm0-6.5c-4.97 0-9-1.344-9-3v-3c0-1.656 4.03-3 9-3s9 1.344 9 3v3c0 1.656-4.03 3-9 3zM9 2c-3.313 0-6 .67-6 1.5S5.687 5 9 5s6-.67 6-1.5S12.313 2 9 2z"/>
</symbol>
<symbol id="octicon-desktop-download" viewBox="0 0 24 23">
    <title>octicon-desktop-download</title>
    <path fill="#000" d="M6 9h4.5V0h3v9H18l-6 6-6-6zm16.5-6h-6v1.5h6v12h-21v-12h6V3h-6C.68 3 0 3.68 0 4.5V18c0 .82.68 1.5 1.5 1.5h8.016c-.375.914-1.29 2.086-3.516 3h12c-2.227-.914-3.14-2.086-3.516-3H22.5c.82 0 1.5-.68 1.5-1.5V4.5c0-.82-.68-1.5-1.5-1.5z"/>
</symbol>
<symbol id="octicon-device-camera-video" viewBox="0 0 24 17">
    <title>octicon-device-camera-video</title>
    <path fill="#000" d="M22.805.14L15 5.58V1.5c0-.82-.68-1.5-1.5-1.5h-12C.68 0 0 .68 0 1.5V15c0 .82.68 1.5 1.5 1.5h12c.82 0 1.5-.68 1.5-1.5v-4.078l7.805 5.437c.492.35 1.195 0 1.195-.61v-15c0-.61-.703-.96-1.195-.61z"/>
</symbol>
<symbol id="octicon-device-camera" viewBox="0 0 24 18">
    <title>octicon-device-camera</title>
    <path fill="#000" d="M22.5 1.5h-12C10.5.68 9.82 0 9 0H3c-.82 0-1.5.68-1.5 1.5C.68 1.5 0 2.18 0 3v13.5c0 .82.68 1.5 1.5 1.5h21c.82 0 1.5-.68 1.5-1.5V3c0-.82-.68-1.5-1.5-1.5zM9 4.5H3V3h6v1.5zM15.75 15c-2.906 0-5.25-2.344-5.25-5.25s2.344-5.25 5.25-5.25S21 6.844 21 9.75 18.656 15 15.75 15zm3.75-5.25c0 2.063-1.688 3.75-3.75 3.75-2.063 0-3.75-1.688-3.75-3.75C12 7.687 13.688 6 15.75 6c2.063 0 3.75 1.688 3.75 3.75z"/>
</symbol>
<symbol id="octicon-device-desktop" viewBox="0 0 24 20">
    <title>octicon-device-desktop</title>
    <path fill="#000" d="M22.5.5h-21C.68.5 0 1.18 0 2v13.5c0 .82.68 1.5 1.5 1.5h8.016c-.375.914-1.29 2.086-3.516 3h12c-2.227-.914-3.14-2.086-3.516-3H22.5c.82 0 1.5-.68 1.5-1.5V2c0-.82-.68-1.5-1.5-1.5zm0 13.5h-21V2h21v12z"/>
</symbol>
<symbol id="octicon-device-mobile" viewBox="0 0 16 24">
    <title>octicon-device-mobile</title>
    <path fill="#000" d="M14 0H2C1.18 0 .5.68.5 1.5v21c0 .82.68 1.5 1.5 1.5h12c.82 0 1.5-.68 1.5-1.5v-21C15.5.68 14.82 0 14 0zM8 23c-1.108 0-2-.892-2-2s.892-2 2-2 2 .892 2 2-.892 2-2 2zm6-5H2V3h12v15z"/>
</symbol>
<symbol id="octicon-diff-added" viewBox="0 0 22 22">
    <title>octicon-diff-added</title>
    <path fill="#000" d="M20 .5H2C1.18.5.5 1.18.5 2v18c0 .82.68 1.5 1.5 1.5h18c.82 0 1.5-.68 1.5-1.5V2c0-.82-.68-1.5-1.5-1.5zM20 20H2V2h18v18zM9.5 12.5H5v-3h4.5V5h3v4.5H17v3h-4.5V17h-3v-4.5z"/>
</symbol>
<symbol id="octicon-diff-ignored" viewBox="0 0 22 22">
    <title>octicon-diff-ignored</title>
    <path fill="#000" d="M20 .5H2C1.18.5.5 1.18.5 2v18c0 .82.68 1.5 1.5 1.5h18c.82 0 1.5-.68 1.5-1.5V2c0-.82-.68-1.5-1.5-1.5zM20 20H2V2h18v18zM7.25 17H5v-2.25L14.75 5H17v2.25L7.25 17z"/>
</symbol>
<symbol id="octicon-diff-modified" viewBox="0 0 22 22">
    <title>octicon-diff-modified</title>
    <path fill="#000" d="M20 .5H2C1.18.5.5 1.18.5 2v18c0 .82.68 1.5 1.5 1.5h18c.82 0 1.5-.68 1.5-1.5V2c0-.82-.68-1.5-1.5-1.5zM20 20H2V2h18v18zM6.5 11c0-2.484 2.016-4.5 4.5-4.5s4.5 2.016 4.5 4.5-2.016 4.5-4.5 4.5-4.5-2.016-4.5-4.5z"/>
</symbol>
<symbol id="octicon-diff-removed" viewBox="0 0 22 22">
    <title>octicon-diff-removed</title>
    <path fill="#000" d="M20 .5H2C1.18.5.5 1.18.5 2v18c0 .82.68 1.5 1.5 1.5h18c.82 0 1.5-.68 1.5-1.5V2c0-.82-.68-1.5-1.5-1.5zM20 20H2V2h18v18zm-3-7.5H5v-3h12v3z"/>
</symbol>
<symbol id="octicon-diff-renamed" viewBox="0 0 22 22">
    <title>octicon-diff-renamed</title>
    <path fill="#000" d="M9.5 12.5H5v-3h4.5V5l7.5 6-7.5 6v-4.5zM21.5 2v18c0 .82-.68 1.5-1.5 1.5H2c-.82 0-1.5-.68-1.5-1.5V2C.5 1.18 1.18.5 2 .5h18c.82 0 1.5.68 1.5 1.5zM20 2H2v18h18V2z"/>
</symbol>
<symbol id="octicon-diff" viewBox="0 0 20 24">
    <title>octicon-diff</title>
    <path fill="#000" d="M9 10.5h3V12H9v3H7.5v-3h-3v-1.5h3v-3H9v3zm-4.5 9H12V18H4.5v1.5zM11.25 3l5.25 5.25V22.5c0 .82-.68 1.5-1.5 1.5H1.5C.68 24 0 23.32 0 22.5v-18C0 3.68.68 3 1.5 3h9.75zM15 9l-4.5-4.5h-9v18H15V9zm-2.35-9H4.28v1.5h7.61l6.088 6v12H19.5V6.75L12.65 0z"/>
</symbol>
<symbol id="octicon-ellipsis" viewBox="0 0 18 10">
    <title>octicon-ellipsis</title>
    <path fill="#000" d="M16.5.5h-15C.68.5 0 1.18 0 2v6c0 .82.68 1.5 1.5 1.5h15c.82 0 1.5-.68 1.5-1.5V2c0-.82-.68-1.5-1.5-1.5zM6 6.5H3v-3h3v3zm4.5 0h-3v-3h3v3zm4.5 0h-3v-3h3v3z"/>
</symbol>
<symbol id="octicon-eye" viewBox="0 0 24 18">
    <title>octicon-eye</title>
    <path fill="#000" d="M12.094 0C4.5 0 0 9 0 9s4.5 9 12.094 9C19.5 18 24 9 24 9s-4.5-9-11.906-9zM12 15c-3.305 0-6-2.672-6-6 0-3.305 2.695-6 6-6 3.328 0 6 2.695 6 6 0 3.328-2.672 6-6 6zm3-6c0 1.664-1.336 3-3 3s-3-1.336-3-3 1.336-3 3-3 3 1.336 3 3z"/>
</symbol>
<symbol id="octicon-file-binary" viewBox="0 0 18 22">
    <title>octicon-file-binary</title>
    <path fill="#000" d="M6 17h1.5v1.5H3V17h1.5v-3H3v-1.5h3V17zM18 5.75V20c0 .82-.68 1.5-1.5 1.5h-15C.68 21.5 0 20.82 0 20V2C0 1.18.68.5 1.5.5h11.25L18 5.75zm-1.5.75L12 2H1.5v18h15V6.5zM12 5H9v1.5h1.5v3H9V11h4.5V9.5H12V5zM3 5h4.5v6H3V5zm1.5 4.5H6v-3H4.5v3zm4.5 3h4.5v6H9v-6zm1.5 4.5H12v-3h-1.5v3z"/>
</symbol>
<symbol id="octicon-file-code" viewBox="0 0 18 22">
    <title>octicon-file-code</title>
    <path fill="#000" d="M12.75.5H1.5C.68.5 0 1.18 0 2v18c0 .82.68 1.5 1.5 1.5h15c.82 0 1.5-.68 1.5-1.5V5.75L12.75.5zM16.5 20h-15V2H12l4.5 4.5V20zm-9-10.523L5.25 11.75 7.5 14l-.75 1.5L3 11.75 6.75 8l.75 1.477zM11.25 8L15 11.75l-3.75 3.75-.75-1.477 2.25-2.273L10.5 9.5l.75-1.5z"/>
</symbol>
<symbol id="octicon-file-directory" viewBox="0 0 22 18">
    <title>octicon-file-directory</title>
    <path fill="#000" d="M20 3h-9V1.5C11 .516 10.53 0 9.5 0H2C1.18 0 .5.68.5 1.5v15c0 .82.68 1.5 1.5 1.5h18c.82 0 1.5-.68 1.5-1.5v-12c0-.82-.68-1.5-1.5-1.5zM9.5 3H2V1.5h7.5V3z"/>
</symbol>
<symbol id="octicon-file-media" viewBox="0 0 19 22">
    <title>octicon-file-media</title>
    <path fill="#000" d="M9.5 6.5h3v3h-3v-3zm9-.75V20c0 .82-.68 1.5-1.5 1.5H2c-.82 0-1.5-.68-1.5-1.5V2C.5 1.18 1.18.5 2 .5h11.25l5.25 5.25zM17 6.5L12.5 2H2v16.5L6.5 11l3 6 3-3 4.5 4.5v-12z"/>
</symbol>
<symbol id="octicon-file-pdf" viewBox="0 0 18 22">
    <title>octicon-file-pdf</title>
    <path fill="#000" d="M12.75.5H1.5C.68.5 0 1.18 0 2v18c0 .82.68 1.5 1.5 1.5h15c.82 0 1.5-.68 1.5-1.5V5.75L12.75.5zM1.5 2h6c-.164.047-.305.14-.47.303-.14.14-.257.374-.35.7-.164.584-.21 1.33-.14 2.194.07.863.257 1.75.515 2.683-.352 1.097-.914 2.403-1.664 3.967-.75 1.563-1.195 2.473-1.36 2.753-.21.07-.538.21-1.03.443-.492.21-.984.537-1.5.957V2zm6.8 7c.687 1.744 1.28 2.835 1.778 3.247.497.412.972.702 1.422.823-.972.146-1.873.315-2.75.51-.853.193-1.778.508-2.75.92.024-.024.332-.678.925-1.938C7.517 11.302 7.99 10.115 8.3 9zm8.2 11H2.258c-.094 0-.188-.022-.258-.045.305-.09.68-.292 1.1-.628.68-.54 1.57-1.662 2.67-3.413.47-.18.868-.336 1.22-.45l.632-.2c.68-.18 1.405-.337 2.155-.472.75-.112 1.5-.225 2.225-.292.68.314 1.36.56 2.085.763.726.18 1.36.292 1.85.337.212 0 .4-.022.563-.045V20zm0-7.5c-.288-.16-.624-.3-.984-.414-.36-.09-.745-.137-1.153-.16-.6 0-1.225.046-1.897.114-.36-.09-.864-.413-1.513-.942-.648-.528-1.32-1.677-2.017-3.423.193-1.218.29-2.183.313-2.895.023-.712.023-1.08 0-1.103.07-.597-.05-1.034-.314-1.286S8.36 2 8 2h3.89l4.61 4.41v6.09z"/>
</symbol>
<symbol id="octicon-file-submodule" viewBox="0 0 22 18">
    <title>octicon-file-submodule</title>
    <path fill="#000" d="M15.5 7.5h-9V18H20c.82 0 1.5-.68 1.5-1.5V9h-6V7.5zm-1.5 3H8V9h6v1.5zM20 3h-9V1.5C11 .516 10.53 0 9.5 0H2C1.18 0 .5.68.5 1.5v15c0 .82.68 1.5 1.5 1.5h3V7.5C5 6.68 5.68 6 6.5 6h9c.82 0 1.5.68 1.5 1.5h4.5v-3c0-.82-.68-1.5-1.5-1.5zM9.5 3H2V1.5h7.5V3z"/>
</symbol>
<symbol id="octicon-file-symlink-directory" viewBox="0 0 22 18">
    <title>octicon-file-symlink-directory</title>
    <path fill="#000" d="M20 3h-9V1.5C11 .516 10.53 0 9.5 0H2C1.18 0 .5.68.5 1.5v15c0 .82.68 1.5 1.5 1.5h18c.82 0 1.5-.68 1.5-1.5v-12c0-.82-.68-1.5-1.5-1.5zM2 1.5h7.5V3H2V1.5zM11 15v-3c-1.477-.023-2.766.328-3.82 1.055C6.125 13.78 5.398 14.93 5 16.5c.023-2.46.586-4.313 1.688-5.602C7.787 9.633 9.217 9 11 9V6l6 4.5-6 4.5z"/>
</symbol>
<symbol id="octicon-file-symlink-file" viewBox="0 0 18 22">
    <title>octicon-file-symlink-file</title>
    <path fill="#000" d="M12.75.5H1.5C.68.5 0 1.18 0 2v18c0 .82.68 1.5 1.5 1.5h15c.82 0 1.5-.68 1.5-1.5V5.75L12.75.5zM16.5 20h-15V2H12l4.5 4.5V20zM9 6l6 4.5L9 15v-3c-1.477-.023-2.766.328-3.82 1.055C4.125 13.78 3.398 14.93 3 16.5c.023-2.46.586-4.313 1.688-5.602C5.787 9.633 7.217 9 9 9V6z"/>
</symbol>
<symbol id="octicon-file-text" viewBox="0 0 18 22">
    <title>octicon-file-text</title>
    <path fill="#000" d="M9 6.5H3V5h6v1.5zM3 11h10.5V9.5H3V11zm0 3h10.5v-1.5H3V14zm0 3h10.5v-1.5H3V17zM18 5.75V20c0 .82-.68 1.5-1.5 1.5h-15C.68 21.5 0 20.82 0 20V2C0 1.18.68.5 1.5.5h11.25L18 5.75zm-1.5.75L12 2H1.5v18h15V6.5z"/>
</symbol>
<symbol id="octicon-file-zip" viewBox="0 0 18 22">
    <title>octicon-file-zip</title>
    <path fill="#000" d="M12.75.5H1.5C.68.5 0 1.18 0 2v18c0 .82.68 1.5 1.5 1.5h15c.82 0 1.5-.68 1.5-1.5V5.75L12.75.5zM16.5 20h-15V2H6v1.5h1.5V2H12l4.5 4.5V20zm-9-15V3.5H9V5H7.5zM6 5h1.5v1.5H6V5zm1.5 3V6.5H9V8H7.5zM6 8h1.5v1.5H6V8zm1.5 3V9.5H9V11H7.5zM6 12.922c-.89.515-1.5 1.476-1.5 2.578V17h6v-1.5c0-1.664-1.336-3-3-3V11H6v1.922zM9 14v1.5H6V14h3z"/>
</symbol>
<symbol id="octicon-flame" viewBox="0 0 18 22">
    <title>octicon-flame</title>
    <path fill="#000" d="M7.873 0c1.188 3.126.57 4.83-.76 6.182-1.45 1.494-3.71 2.613-5.302 4.806C-.304 13.905-.66 20.32 6.97 22c-3.21-1.656-3.9-6.462-.428-9.472-.904 2.916.76 4.783 2.83 4.106 2.02-.676 3.35.747 3.303 2.38-.024 1.12-.476 2.076-1.64 2.613 4.968-.863 6.965-4.9 6.965-7.98 0-4.058-3.685-4.618-1.83-8.025-2.21.187-2.972 1.61-2.758 3.943.143 1.54-1.498 2.59-2.71 1.89-.975-.583-.95-1.703-.095-2.543C12.437 7.14 13.15 3.056 7.873 0z"/>
</symbol>
<symbol id="octicon-fold" viewBox="0 0 22 23">
    <title>octicon-fold</title>
    <path fill="#000" d="M11 13.5l4.5 4.5h-3v4.5h-3V18h-3l4.5-4.5zm4.5-9h-3V0h-3v4.5h-3L11 9l4.5-4.5zm6 3c0-.82-.68-1.5-1.5-1.5h-3.75l-1.5 1.5h4.5l-3 3H5.75l-3-3h4.5L5.75 6H2C1.18 6 .5 6.68.5 7.5l3.75 3.75L.5 15c0 .82.68 1.5 1.5 1.5h3.75l1.5-1.5h-4.5l3-3h10.5l3 3h-4.5l1.5 1.5H20c.82 0 1.5-.68 1.5-1.5l-3.75-3.75L21.5 7.5z"/>
</symbol>
<symbol id="octicon-gear" viewBox="0 0 22 22">
    <title>octicon-gear</title>
    <path fill="#000" d="M21.5 12.148v-2.39l-2.906-.96-.68-1.642 1.313-2.765-1.688-1.687-2.72 1.36-1.64-.68L12.148.5h-2.39L8.82 3.406l-1.664.68L4.39 2.773 2.704 4.46l1.36 2.72-.68 1.64L.5 9.852v2.39l2.906.96.68 1.642-1.313 2.765 1.688 1.687 2.72-1.36 1.64.68L9.852 21.5h2.39l.938-2.906 1.664-.68 2.765 1.313 1.687-1.688-1.383-2.72.703-1.64 2.883-1.032zM11 15.5c-2.484 0-4.5-2.016-4.5-4.5S8.516 6.5 11 6.5s4.5 2.016 4.5 4.5-2.016 4.5-4.5 4.5z"/>
</symbol>
<symbol id="octicon-gift" viewBox="0 0 20 20">
    <title>octicon-gift</title>
    <path fill="#000" d="M18 5h-2.063c.282-.492.493-1.008.54-1.36.093-1.007-.165-1.828-.774-2.413-.54-.563-1.22-.727-2.04-.727H13.5c-.797.023-1.664.375-2.297.867-.633.492-1.1 1.078-1.453 1.805-.352-.727-.82-1.313-1.453-1.805C7.664.875 6.797.5 6 .5h-.047c-.844 0-1.594.14-2.156.727-.61.585-.867 1.406-.774 2.414.047.352.258.868.54 1.36H1.5C.68 5 0 5.68 0 6.5V11h1.5v7.5c0 .82.68 1.5 1.5 1.5h13.5c.82 0 1.5-.68 1.5-1.5V11h1.5V6.5c0-.82-.68-1.5-1.5-1.5zm-7.402-1.39c.254-.57.622-1.067 1.105-1.465.438-.372 1.06-.62 1.543-.645h.138c.667 0 .966.174 1.174.397.207.224.483.62.437 1.514-.07.3-.368.97-.737 1.59H10l.598-1.39zM4.44 1.897C4.624 1.7 4.9 1.5 5.77 1.5c.458 0 1.053.273 1.512.645.48.398.847.87 1.1 1.465L9 5H4.738c-.366-.62-.664-1.29-.733-1.59-.046-.892.23-1.29.435-1.513zM9 18.5H3V11h6v7.5zm0-9H1.5v-3H9v3zm7.5 9h-6V11h6v7.5zm1.5-9h-7.5v-3H18v3z"/>
</symbol>
<symbol id="octicon-gist-secret" viewBox="0 0 21 18">
    <title>octicon-gist-secret</title>
    <path fill="#000" d="M11.5 12.75L13 18H7l1.5-5.25-1.125-2.25h5.25L11.5 12.75zm3-6.75h-9l-3 1.5h15l-3-1.5zM13 0l-3 1.5L7 0 5.5 4.5h9L13 0zm6.4 11.625L14.964 10.5l1.463 3L13.5 18h4.71c.664 0 1.26-.47 1.42-1.125l.822-3.422c.206-.797-.274-1.617-1.052-1.828zM5.536 10.5L1.1 11.625c-.778.21-1.258 1.03-1.052 1.828l.823 3.422C1.03 17.53 1.627 18 2.29 18H7l-2.927-4.5 1.463-3z"/>
</symbol>
<symbol id="octicon-gist" viewBox="0 0 18 20">
    <title>octicon-gist</title>
    <path fill="#000" d="M11.154 6.5L15 10.25 11.154 14 10 12.875l2.692-2.625L10 7.625 11.154 6.5zm-4.308 0L3 10.25 6.846 14 8 12.875 5.308 10.25 8 7.625 6.846 6.5zM0 18.5V2C0 1.18.68.5 1.5.5h15c.82 0 1.5.68 1.5 1.5v16.5c0 .82-.68 1.5-1.5 1.5h-15C.68 20 0 19.32 0 18.5zm1.5 0h15V2h-15v16.5z"/>
</symbol>
<symbol id="octicon-git-branch" viewBox="0 0 16 22">
    <title>octicon-git-branch</title>
    <path fill="#000" d="M15.5 6.5c0-1.664-1.336-3-3-3s-3 1.336-3 3c0 1.102.61 2.063 1.5 2.578v.445c-.023.774-.352 1.477-.938 2.063-.585.586-1.29.914-2.062.937-1.242.024-2.227.235-3 .68V6.078c.89-.516 1.5-1.476 1.5-2.578 0-1.664-1.336-3-3-3s-3 1.336-3 3c0 1.102.61 2.063 1.5 2.578v9.844C1.11 16.437.5 17.398.5 18.5c0 1.664 1.336 3 3 3s3-1.336 3-3c0-.797-.305-1.5-.797-2.04.14-.093.727-.608.89-.702.376-.164.845-.258 1.407-.258 1.57-.07 2.93-.68 4.125-1.875C13.32 12.43 13.93 10.648 14 9.102h-.023c.914-.54 1.523-1.5 1.523-2.602zm-12.25-5C4.205 1.5 5 2.295 5 3.25S4.205 5 3.25 5 1.5 4.205 1.5 3.25 2.295 1.5 3.25 1.5zm0 18.5c-.955 0-1.75-.795-1.75-1.75s.795-1.75 1.75-1.75S5 17.295 5 18.25 4.205 20 3.25 20zm9-12c-.955 0-1.75-.795-1.75-1.75s.795-1.75 1.75-1.75S14 5.295 14 6.25 13.205 8 12.25 8z"/>
</symbol>
<symbol id="octicon-git-commit" viewBox="0 0 22 12">
    <title>octicon-git-commit</title>
    <path fill="#000" d="M16.79 4.5C16.11 1.922 13.79 0 11 0S5.89 1.922 5.21 4.5H.5v3h4.71c.68 2.578 3 4.5 5.79 4.5s5.11-1.922 5.79-4.5h4.71v-3h-4.71zM10.75 9C8.952 9 7.5 7.548 7.5 5.75S8.952 2.5 10.75 2.5 14 3.952 14 5.75 12.548 9 10.75 9z"/>
</symbol>
<symbol id="octicon-git-compare" viewBox="0 0 22 24">
    <title>octicon-git-compare</title>
    <path fill="#000" d="M8 18H6.5c-.398-.023-.727-.164-1.03-.47-.306-.303-.447-.632-.47-1.03V7.078c.89-.516 1.5-1.476 1.5-2.578 0-1.664-1.336-3-3-3s-3 1.336-3 3c0 1.102.61 2.063 1.5 2.578V16.5c.047 1.172.516 2.203 1.406 3.094.89.89 1.922 1.36 3.094 1.406H8v3l4.5-4.5L8 15v3zM3.25 2.5C4.205 2.5 5 3.295 5 4.25S4.205 6 3.25 6 1.5 5.205 1.5 4.25 2.295 2.5 3.25 2.5zM20 16.922V7.5c-.047-1.172-.516-2.203-1.406-3.094-.89-.89-1.922-1.36-3.094-1.406H14V0L9.5 4.5 14 9V6h1.5c.398.023.727.164 1.03.47.306.303.447.632.47 1.03v9.422c-.89.515-1.5 1.476-1.5 2.578 0 1.664 1.336 3 3 3s3-1.336 3-3c0-1.102-.61-2.063-1.5-2.578zM18.25 21c-.955 0-1.75-.795-1.75-1.75s.795-1.75 1.75-1.75 1.75.795 1.75 1.75S19.205 21 18.25 21z"/>
</symbol>
<symbol id="octicon-git-merge" viewBox="0 0 18 22">
    <title>octicon-git-merge</title>
    <path fill="#000" d="M15 9.5c-1.102 0-2.063.61-2.602 1.523V11c-1.57-.023-3.398-.54-4.687-1.523C6.587 8.61 5.46 7.062 4.876 5.82 5.555 5.28 6 4.437 6 3.5c0-1.664-1.336-3-3-3s-3 1.336-3 3c0 1.102.61 2.063 1.5 2.578v9.844C.61 16.437 0 17.398 0 18.5c0 1.664 1.336 3 3 3s3-1.336 3-3c0-1.102-.61-2.063-1.5-2.578v-5.414c1.008 1.055 2.156 1.898 3.445 2.53 1.29.634 3.047.94 4.453.962v-.023c.54.914 1.5 1.523 2.602 1.523 1.664 0 3-1.336 3-3s-1.336-3-3-3zM4.5 18.25c0 .955-.795 1.75-1.75 1.75S1 19.205 1 18.25s.795-1.75 1.75-1.75 1.75.795 1.75 1.75zM2.75 5C1.795 5 1 4.205 1 3.25S1.795 1.5 2.75 1.5s1.75.795 1.75 1.75S3.705 5 2.75 5zm12 9c-.955 0-1.75-.795-1.75-1.75s.795-1.75 1.75-1.75 1.75.795 1.75 1.75S15.705 14 14.75 14z"/>
</symbol>
<symbol id="octicon-git-pull-request" viewBox="0 0 18 23">
    <title>octicon-git-pull-request</title>
    <path fill="#000" d="M16.5 16.922V7.5c-.047-1.172-.516-2.203-1.406-3.094-.89-.89-1.922-1.36-3.094-1.406h-1.5V0L6 4.5 10.5 9V6H12c.398.023.727.164 1.03.47.306.303.447.632.47 1.03v9.422c-.89.515-1.5 1.476-1.5 2.578 0 1.664 1.336 3 3 3s3-1.336 3-3c0-1.102-.61-2.063-1.5-2.578zM14.75 21c-.955 0-1.75-.795-1.75-1.75s.795-1.75 1.75-1.75 1.75.795 1.75 1.75S15.705 21 14.75 21zM6 4.5c0-1.664-1.336-3-3-3s-3 1.336-3 3c0 1.102.61 2.063 1.5 2.578v9.844C.61 17.437 0 18.398 0 19.5c0 1.664 1.336 3 3 3s3-1.336 3-3c0-1.102-.61-2.063-1.5-2.578V7.078C5.39 6.562 6 5.602 6 4.5zM4.5 19.25c0 .955-.795 1.75-1.75 1.75S1 20.205 1 19.25s.795-1.75 1.75-1.75 1.75.795 1.75 1.75zM2.75 6C1.795 6 1 5.205 1 4.25S1.795 2.5 2.75 2.5s1.75.795 1.75 1.75S3.705 6 2.75 6z"/>
</symbol>
<symbol id="octicon-globe" viewBox="0 0 18 18">
    <title>octicon-globe</title>
    <path fill="#000" d="M9 0C4.03 0 0 4.03 0 9s4.03 9 9 9c.608 0 1.202-.06 1.777-.176-.232-.11-.257-.94-.028-1.415.254-.528 1.054-1.864.263-2.312-.79-.45-.572-.65-1.055-1.17-.483-.518-.286-.596-.316-.73-.106-.456.465-1.14.492-1.212.026-.07.026-.334.017-.413-.007-.08-.36-.29-.447-.3-.088-.007-.132.142-.255.15-.123.01-.66-.324-.773-.412-.114-.087-.167-.298-.325-.456-.16-.158-.176-.035-.422-.132S6.89 9.035 6.284 8.79c-.606-.247-.66-.592-.668-.836-.01-.244-.37-.598-.538-.852-.17-.255-.2-.607-.262-.528-.06.08.317 1.002.255 1.03-.06.025-.192-.256-.368-.485-.176-.23.185-.106-.378-1.214-.562-1.107.176-1.672.21-2.25.036-.578.476.21.247-.158-.227-.37.02-1.143-.157-1.424-.176-.28-1.178.317-1.178.317.027-.272.88-.738 1.494-1.168.615-.43.99-.097 1.485.06.494.16.527.107.36-.052-.167-.158.07-.237.457-.175.387.06.492.527 1.08.483.59-.044.063.114.142.264.08.15-.088.132-.475.395-.387.264.008.264.694.765.685.5.474-.334.404-.703-.07-.37.5-.08.5-.08.423.28.345.015.652.112.308.097 1.142.802 1.142.802-1.046.57-.387.633-.21.764.175.132-.36.387-.36.387-.22-.22-.256.01-.397.088-.14.08-.01.28-.01.28-.726.116-.56.88-.552 1.065.008.184-.466.466-.59.73-.122.263.317.834.09.87-.23.035-.458-.862-1.69-.528-.37.1-1.194.527-.755 1.397.44.87 1.17-.246 1.415-.123.246.123-.07.677-.017.686.052.01.694.024.73.773.034.75.975.686 1.177.704.202.017.88-.554.975-.58.097-.027.484-.352 1.328.13.843.485 1.274.414 1.564.617.29.202.088.606.36.738.273.132 1.363-.044 1.635.404.273.448-1.125 2.698-1.564 2.944-.44.247-.64.81-1.08 1.17-.44.36-1.055.806-1.635 1.15-.514.306-.606.853-.835 1.026C14.988 16.89 18 13.296 18 9c0-4.97-4.03-9-9-9zm2.292 8.432c-.134.023-.41.176-1.087-.07-.676-.248-1.143-.2-1.2-.242 0 0-.058-.1.238-.118.606-.036 1.372.347 1.544.353.17.006.257-.106.562-.045.304.06.075.098-.058.122zM8.02.974c-.07-.04.06-.085.136-.164.045-.045.012-.12.068-.163.152-.117.904-.28.757.04-.146.318-.848.35-.96.287zM9.794 2c-.195-.01-.655-.072-.57-.18.33-.417-.125-.536-.407-.566-.28-.03-.398-.228-.257-.248.14-.02.703.01.797.11.093.098.6.357.633.546.03.188 0 .347-.196.338zm1.665-.017c-.167.122-1-.437-1.162-.563-.696-.548-1.07-.366-1.216-.457-.146-.09-.094-.213.13-.396.224-.182.854.06 1.22.1.364.037.787.296.795.604.008.308.398.59.232.713z"/>
</symbol>
<symbol id="octicon-graph" viewBox="0 0 24 23">
    <title>octicon-graph</title>
    <path fill="#000" d="M24 21v1.5H0V0h1.5v21H24zM7.5 19.5h-3V12h3v7.5zm6 0h-3v-15h3v15zm6 0h-3V9h3v10.5z"/>
</symbol>
<symbol id="octicon-heart" viewBox="0 0 18 17">
    <title>octicon-heart</title>
    <path fill="#000" d="M16.805 1.5C16.03.562 14.93.07 13.5 0c-1.453 0-2.53.633-3.305 1.5C9.422 2.367 9.023 2.883 9 3c-.023-.117-.422-.633-1.195-1.5C7.03.633 6.047 0 4.5 0 3.07.07 1.97.563 1.195 1.5.422 2.414.023 3.422 0 4.5c0 .773.14 2.273 1.008 4.008C1.875 10.242 4.523 12.914 9 16.5c4.477-3.586 7.148-6.258 8.016-7.992C17.883 6.773 18 5.25 18 4.5c-.023-1.078-.422-2.086-1.195-3.023V1.5z"/>
</symbol>
<symbol id="octicon-history" viewBox="0 0 22 22">
    <title>octicon-history</title>
    <path fill="#000" d="M12.5 18.5h-3V8H17v3h-4.5v7.5zM11 .5C7.72.5 4.812 2.023 2.89 4.39L.5 2v6h6L4.25 5.75C5.82 3.758 8.258 2.445 11 2.445c4.71 0 8.555 3.844 8.555 8.555 0 4.71-3.844 8.555-8.555 8.555-4.71 0-8.555-3.844-8.555-8.555 0-.516.047-1.008.14-1.5H.618C.547 9.992.5 10.484.5 11c0 5.79 4.71 10.5 10.5 10.5S21.5 16.79 21.5 11 16.79.5 11 .5z"/>
</symbol>
<symbol id="octicon-home" viewBox="0 0 24 22">
    <title>octicon-home</title>
    <path fill="#000" d="M24 12.5L19.5 8V2h-3v3L12 .5l-12 12h3L4.5 20c0 .82.68 1.5 1.5 1.5h12c.82 0 1.5-.68 1.5-1.5l1.5-7.5h3zm-6.274 8h-4.482v-6.087h-2.988V20.5H5.774L4 10.894 11.75 3l7.75 7.894-1.774 9.606z"/>
</symbol>
<symbol id="octicon-horizontal-rule" viewBox="0 0 16 16">
    <title>octicon-horizontal-rule</title>
    <path fill="#000" d="M2 6.5h3v3h1.5v-9H5V5H2V.5H.5v9H2v-3zm13.5 3v-3H14v3h1.5zm0-4.5V2H14v3h1.5zM11 5V2h3V.5H9.5v9H11v-3h3V5h-3zM.5 15.5h15v-3H.5v3z"/>
</symbol>
<symbol id="octicon-hubot" viewBox="0 0 22 18">
    <title>octicon-hubot</title>
    <path fill="#000" d="M5 6c-.82 0-1.5.68-1.5 1.5v3c0 .82.68 1.5 1.5 1.5h12c.82 0 1.5-.68 1.5-1.5v-3c0-.82-.68-1.5-1.5-1.5H5zm12 2.625L15.125 10.5h-2.25L11 8.625 9.125 10.5h-2.25L5 8.625V7.5h1.125L8 9.375 9.875 7.5h2.25L14 9.375 15.875 7.5H17v1.125zM8 13.5h6V15H8v-1.5zM11 0C5.21 0 .5 4.36.5 9.75v6.75c0 .82.68 1.5 1.5 1.5h18c.82 0 1.5-.68 1.5-1.5V9.75C21.5 4.36 16.79 0 11 0zm9 16.5H2V9.813C2 5.215 5.96 1.5 11 1.5s9 3.715 9 8.313V16.5z"/>
</symbol>
<symbol id="octicon-inbox" viewBox="0 0 22 22">
    <title>octicon-inbox</title>
    <path fill="#000" d="M21.5 12.5L19.812 1.79c-.117-.728-.75-1.29-1.5-1.29H3.688c-.75 0-1.382.563-1.5 1.29L.5 12.5V20c0 .82.68 1.5 1.5 1.5h18c.82 0 1.5-.68 1.5-1.5v-7.5zm-4.922.82l-.656 1.336c-.258.516-.774.844-1.36.844H7.415c-.562 0-1.078-.328-1.336-.82l-.656-1.36c-.258-.492-.774-.82-1.336-.82H2L3.5 2h15L20 12.5h-2.063c-.585 0-1.1.328-1.36.82z"/>
</symbol>
<symbol id="octicon-info" viewBox="0 0 22 22">
    <title>octicon-info</title>
    <path fill="#000" d="M9.93 7.55c-.287-.282-.43-.637-.43-1.062 0-.425.143-.78.43-1.063C10.213 5.142 10.57 5 11 5c.43 0 .786.142 1.07.425.287.284.43.638.43 1.063 0 .425-.143.78-.43 1.063-.284.285-.64.45-1.07.45-.43 0-.786-.165-1.07-.45zM12.5 11c-.023-.375-.164-.727-.47-1.03-.303-.283-.632-.447-1.03-.47H9.5c-.398.023-.727.188-1.03.47-.306.303-.447.655-.47 1.03h1.5v4.5c.023.398.164.75.47 1.03.303.306.632.47 1.03.47h1.5c.398 0 .727-.164 1.03-.47.306-.28.447-.632.47-1.03h-1.5V11zM11 2.5c-4.68 0-8.5 3.8-8.5 8.488S6.32 19.5 11 19.5s8.5-3.8 8.5-8.512c0-4.71-3.82-8.488-8.5-8.488zm0-2C16.79.5 21.5 5.21 21.5 11S16.79 21.5 11 21.5.5 16.812.5 11C.5 5.187 5.21.5 11 .5z"/>
</symbol>
<symbol id="octicon-issue-closed" viewBox="0 0 23 22">
    <title>octicon-issue-closed</title>
    <path fill="#000" d="M9 14h3v3H9v-3zm3-9H9v7.5h3V5zm2.538 2.59L13 9.137 16.846 13 23 6.045 21.462 4.5l-4.616 5.41-2.308-2.32zM10.5 19.556c-4.71 0-8.555-3.844-8.555-8.555 0-4.71 3.844-8.555 8.555-8.555 2.742 0 5.18 1.313 6.75 3.305l1.383-1.383C16.71 2 13.78.5 10.5.5 4.71.5 0 5.21 0 11s4.71 10.5 10.5 10.5S21 16.79 21 11l-2.273 2.273c-.985 3.61-4.29 6.282-8.227 6.282z"/>
</symbol>
<symbol id="octicon-issue-opened" viewBox="0 0 22 22">
    <title>octicon-issue-opened</title>
    <path fill="#000" d="M11 2.5c4.68 0 8.5 3.82 8.5 8.5s-3.82 8.5-8.5 8.5-8.5-3.82-8.5-8.5S6.32 2.5 11 2.5zm0-2C5.21.5.5 5.21.5 11S5.21 21.5 11 21.5 21.5 16.79 21.5 11 16.79.5 11 .5zM12.5 5h-3v7.5h3V5zm0 9h-3v3h3v-3z"/>
</symbol>
<symbol id="octicon-issue-reopened" viewBox="0 0 22 22">
    <title>octicon-issue-reopened</title>
    <path fill="#000" d="M12.5 12.5h-3V5h3v7.5zm-3 4.5h3v-3h-3v3zm9.492-3H15.5l2.25 2.25c-1.57 1.992-4.008 3.305-6.75 3.305-4.71 0-8.555-3.844-8.555-8.555 0-.516.047-1.008.14-1.5H.618C.547 9.992.5 10.484.5 11c0 5.79 4.71 10.5 10.5 10.5 3.28 0 6.188-1.523 8.11-3.89L21.5 20v-6h-2.508zM3.008 8H6.5L4.25 5.75C5.82 3.758 8.258 2.445 11 2.445c4.71 0 8.555 3.844 8.555 8.555 0 .516-.047 1.008-.14 1.5h1.968c.07-.492.117-.984.117-1.5C21.5 5.21 16.79.5 11 .5 7.72.5 4.812 2.023 2.89 4.39L.5 2v6h2.508z"/>
</symbol>
<symbol id="octicon-jersey" viewBox="0 0 20 24">
    <title>octicon-jersey</title>
    <path fill="#000" d="M5.75 9L5 9.75v7.5l.75.75h3l.75-.75v-7.5L8.75 9h-3zM8 16.5H6.5v-6H8v6zm9.398-10.875C17.07 3.562 16.93 1.687 17 0h-4.477c0 .398-.187.727-.585 1.03-.376.306-.938.447-1.688.447s-1.313-.14-1.688-.446C8.213.728 8.023.4 8.023 0H3.5c.07 1.688-.047 3.563-.375 5.625C2.82 7.688 1.93 8.813.5 9v13.5c.023.398.164.727.47 1.03.303.306.632.447 1.03.47h16.5c.398-.023.727-.164 1.03-.47.306-.303.447-.632.47-1.03V9c-1.43-.188-2.297-1.313-2.625-3.375h.023zM18.5 22.5H2v-12c1.336-.75 2.227-1.875 2.578-3.375.352-1.5.47-3.375.422-5.625h1.5c-.023 1.172.234 2.203.773 3.094.54.867 1.524 1.336 3 1.406 1.477-.023 2.46-.492 3-1.406.54-.89.75-1.922.727-3.094h1.5c.023 2.133.188 3.82.492 5.063.305 1.218 1.03 3 2.508 3.937v12zM11.75 9l-.75.75v7.5l.75.75h3l.75-.75v-7.5L14.75 9h-3zM14 16.5h-1.5v-6H14v6z"/>
</symbol>
<symbol id="octicon-key" viewBox="0 0 22 20">
    <title>octicon-key</title>
    <path fill="#000" d="M19.742 2.258C18.617 1.133 17.212.548 15.5.5c-1.688.047-3.117.633-4.242 1.758S9.57 4.788 9.523 6.5c0 .445.047.89.14 1.336L.5 17v1.5L2 20h3l1.5-1.5V17H8v-1.5h1.5V14h3l1.64-1.664c.446.117.89.164 1.36.164 1.71-.047 3.117-.633 4.242-1.758s1.71-2.53 1.758-4.242c-.047-1.71-.633-3.117-1.758-4.242zM17 7c-1.114 0-2-.886-2-2 0-1.114.886-2 2-2 1.114 0 2 .886 2 2 0 1.114-.886 2-2 2z"/>
</symbol>
<symbol id="octicon-keyboard" viewBox="0 0 24 17">
    <title>octicon-keyboard</title>
    <path fill="#000" d="M15 4.5h-1.5V3H15v1.5zM4.5 6H3v1.5h1.5V6zM12 3h-1.5v1.5H12V3zM6 3H3v1.5h3V3zm12 10.5h3V12h-3v1.5zm-6-6h1.5V6H12v1.5zM6 12H3v1.5h3V12zm12-9h-1.5v1.5H18V3zm3 0h-1.5v1.5H21V3zm-3 7.5h3V6h-3v4.5zm6-9V15c0 .82-.68 1.5-1.5 1.5h-21C.68 16.5 0 15.82 0 15V1.5C0 .68.68 0 1.5 0h21c.82 0 1.5.68 1.5 1.5zm-1.5 0h-21V15h21V1.5zM9 7.5h1.5V6H9v1.5zM9 3H7.5v1.5H9V3zM6 7.5h1.5V6H6v1.5zm1.5 6h9V12h-9v1.5zm7.5-6h1.5V6H15v1.5zM4.5 9H3v1.5h1.5V9zM12 9v1.5h1.5V9H12zM9 9v1.5h1.5V9H9zM7.5 9H6v1.5h1.5V9zm7.5 1.5h1.5V9H15v1.5z"/>
</symbol>
<symbol id="octicon-law" viewBox="0 0 22 22">
    <title>octicon-law</title>
    <path fill="#000" d="M11.25 5C10.008 5 9 3.992 9 2.75S10.008.5 11.25.5s2.25 1.008 2.25 2.25S12.492 5 11.25 5zm10.25 9c0 1.664-1.336 3-3 3H17c-1.664 0-3-1.336-3-3l3-6h-1.5c-.82 0-1.5-.68-1.5-1.5h-1.5v12c.633 0 1.5.68 1.5 1.5h1.5c.633 0 1.5.68 1.5 1.5H5c0-.82.867-1.5 1.5-1.5H8c0-.82.867-1.5 1.5-1.5h.047L9.5 6.5H8C8 7.32 7.32 8 6.5 8H5l3 6c0 1.664-1.336 3-3 3H3.5c-1.664 0-3-1.336-3-3l3-6H2V6.5h4.5C6.5 5.68 7.18 5 8 5h6c.82 0 1.5.68 1.5 1.5H20V8h-1.5l3 6zM4.25 9.5L2 14h4.5L4.25 9.5zM20 14l-2.25-4.5L15.5 14H20z"/>
</symbol>
<symbol id="octicon-light-bulb" viewBox="0 0 17 24">
    <title>octicon-light-bulb</title>
    <path fill="#000" d="M8.75 0C4.227 0 .5 3.28.5 7.5c0 1.383.82 3.375 1.5 4.5 2.016 3.375 2.672 4.172 3 6v1.5h7.5V18c.328-1.828.984-2.625 3-6 .68-1.125 1.5-3.117 1.5-4.5C17 3.28 13.273 0 8.75 0zm5.46 11.227c-.374.656-.702 1.195-1.007 1.664-1.29 2.11-1.875 3.094-2.18 4.852-.023.07-.023.164-.023.258H6.5c0-.094 0-.188-.023-.258-.305-1.758-.89-2.742-2.18-4.85-.305-.47-.633-1.01-1.008-1.665C2.655 10.172 2 8.484 2 7.5c0-3.305 3.023-6 6.75-6 1.828 0 3.54.633 4.828 1.78C14.82 4.407 15.5 5.907 15.5 7.5c0 .984-.656 2.672-1.29 3.727zM5 21h7.5c-.352 1.71-1.945 3-3.75 3S5.352 22.71 5 21z"/>
</symbol>
<symbol id="octicon-link-external" viewBox="0 0 18 18">
    <title>octicon-link-external</title>
    <path fill="#000" d="M16.5 12H18v4.5c0 .82-.68 1.5-1.5 1.5h-15C.68 18 0 17.32 0 16.5v-15C0 .68.68 0 1.5 0H6v1.5H1.5v15h15V12zM9 0l3.375 3.375L7.5 8.25l2.25 2.25 4.875-4.875L18 9V0H9z"/>
</symbol>
<symbol id="octicon-link" viewBox="0 0 23 16">
    <title>octicon-link</title>
    <path fill="#000" d="M5 9.5h1.5V11H5C2.75 11 .5 8.47.5 5.75S2.82.5 5 .5h6c2.18 0 4.5 2.53 4.5 5.25 0 2.11-1.36 4.078-3 4.875V8.89c.867-.68 1.5-1.898 1.5-3.14C14 3.828 12.477 2 11 2H5C3.523 2 2 3.828 2 5.75S3.5 9.5 5 9.5zM18.5 5H17v1.5h1.5c1.5 0 3 1.828 3 3.75S19.977 14 18.5 14h-6c-1.477 0-3-1.828-3-3.75 0-1.242.633-2.46 1.5-3.14V5.374c-1.64.797-3 2.766-3 4.875 0 2.72 2.32 5.25 4.5 5.25h6c2.18 0 4.5-2.53 4.5-5.25S20.75 5 18.5 5z"/>
</symbol>
<symbol id="octicon-list-ordered" viewBox="0 0 18 16">
    <title>octicon-list-ordered</title>
    <path fill="#000" d="M7.5 9.5H18v-3H7.5v3zm0 6H18v-3H7.5v3zm0-15v3H18v-3H7.5zm-5.434 6H4v-6h-.893L1 1.04v1.17l1.066-.046V6.5zm2.364 4.82c0-.84-.282-1.82-2.25-1.82-.774 0-1.5.14-1.946.374l.024 1.54c.492-.233.984-.35 1.57-.35.586 0 .75.257.75.654 0 .607-.703 1.354-2.578 2.615V15.5h4.5v-1.564l-2.133.046c1.15-.7 2.04-1.54 2.04-2.638l.023-.023z"/>
</symbol>
<symbol id="octicon-list-unordered" viewBox="0 0 18 16">
    <title>octicon-list-unordered</title>
    <path fill="#000" d="M0 9.5h3v-3H0v3zm0-6h3v-3H0v3zm0 12h3v-3H0v3zm6-6h12v-3H6v3zm0-6h12v-3H6v3zm0 12h12v-3H6v3z"/>
</symbol>
<symbol id="octicon-location" viewBox="0 0 18 24">
    <title>octicon-location</title>
    <path fill="#000" d="M9 0C4.03 0 0 3.75 0 8.25 0 15.023 9 24 9 24s9-8.977 9-15.75C18 3.75 13.97 0 9 0zm0 22c-2.79-3.074-7.5-9.245-7.5-13.69C1.5 4.55 4.875 1.5 9 1.5c2.016 0 3.914.733 5.344 2.057 1.383 1.3 2.156 2.98 2.156 4.753 0 4.445-4.71 10.616-7.5 13.69zm3-13.5c0 1.664-1.336 3-3 3s-3-1.336-3-3 1.336-3 3-3 3 1.336 3 3z"/>
</symbol>
<symbol id="octicon-lock" viewBox="0 0 18 23">
    <title>octicon-lock</title>
    <path fill="#000" d="M6 19.5H4.5V18H6v1.5zm12-9V21c0 .82-.68 1.5-1.5 1.5h-15C.68 22.5 0 21.82 0 21V10.5C0 9.68.68 9 1.5 9H3V6c0-3.305 2.695-6 6-6s6 2.695 6 6v3h1.5c.82 0 1.5.68 1.5 1.5zM5.5 9H12V5.907C12 4.022 10.548 2.5 8.75 2.5S5.5 4.022 5.5 5.907V9zm11 1.5H3V21h13.5V10.5zM6 12H4.5v1.5H6V12zm0 3H4.5v1.5H6V15z"/>
</symbol>
<symbol id="octicon-mail-read" viewBox="0 0 22 23">
    <title>octicon-mail-read</title>
    <path fill="#000" d="M9.5 7.5h-3V6h3v1.5zM14 9H6.5v1.5H14V9zm7.5-.727V21c0 .82-.68 1.5-1.5 1.5H2c-.82 0-1.5-.68-1.5-1.5V8.273c0-.492.234-.937.633-1.218L3.5 5.367V4.5C3.5 3.68 4.18 3 5 3h1.805L11 0l4.195 3H17c.82 0 1.5.68 1.5 1.5v.867l2.367 1.688c.4.28.633.726.633 1.218zM5 11.25L11 15l6-3.75V4.5H5v6.75zM2 20.5L9 16l-7-4.5v9zm16.5.5L11 16.5 3.5 21h15zm2-9.5l-7 4.5 7 4.5v-9z"/>
</symbol>
<symbol id="octicon-mail-reply" viewBox="0 0 18 16">
    <title>octicon-mail-reply</title>
    <path fill="#000" d="M9 0L0 6.723l9 6.723V8.964c2.602 0 7.71 1.424 9 6.536 0-6.793-4.594-10.528-9-11.018V0z"/>
</symbol>
<symbol id="octicon-mail" viewBox="0 0 22 16">
    <title>octicon-mail</title>
    <path fill="#000" d="M.5 2v12c0 .82.68 1.5 1.5 1.5h18c.82 0 1.5-.68 1.5-1.5V2c0-.82-.68-1.5-1.5-1.5H2C1.18.5.5 1.18.5 2zM20 2l-9 7.5L2 2h18zM2 4.5L8 9l-6 4.5v-9zM3.5 14l5.25-4.5L11 11.75l2.25-2.25L18.5 14h-15zm16.5-.5L14 9l6-4.5v9z"/>
</symbol>
<symbol id="octicon-mark-github" viewBox="0 0 24 24">
    <title>octicon-mark-github</title>
    <path fill="#000" d="M12 .5C5.373.5 0 5.894 0 12.547c0 5.324 3.438 9.838 8.207 11.43.6.11.82-.26.82-.578 0-.288-.012-1.238-.018-2.244-3.018.552-3.79-.742-4.043-1.42-.13-.35-.713-1.418-1.23-1.7-.42-.232-1.012-.783-.02-.795.948-.01 1.625.88 1.84 1.242 1.076 1.83 2.81 1.31 3.49 1 .11-.776.42-1.308.763-1.608-2.664-.305-5.466-1.34-5.466-5.955 0-1.317.468-2.39 1.234-3.234-.122-.306-.535-1.53.12-3.19 0 0 1.005-.323 3.3 1.236.956-.27 1.982-.4 3.002-.405 1.02.004 2.046.138 3.004.406 2.29-1.56 3.298-1.235 3.298-1.235.656 1.66.243 2.884.12 3.188.77.843 1.233 1.917 1.233 3.233 0 4.627-2.806 5.646-5.48 5.945.432.373.815 1.106.815 2.23 0 1.61-.016 2.908-.016 3.305 0 .32.218.696.826.578 4.765-1.596 8.2-6.11 8.2-11.43C24 5.893 18.627.5 12 .5z"/>
</symbol>
<symbol id="octicon-markdown" viewBox="0 0 24 16">
    <title>octicon-markdown</title>
    <path fill="#000" d="M22.27.5H1.73C.777.5 0 1.276 0 2.23v11.54c0 .954.776 1.73 1.73 1.73h20.54c.954 0 1.73-.776 1.73-1.73V2.23C24 1.277 23.224.5 22.27.5zM13.5 12.497l-3 .003V8l-2.25 2.885L6 8v4.5H3V3.503h3l2.25 3 2.25-3 3-.003v8.997zm4.73.503L14.5 7.886h2.25V3.5h3v4.386H22L18.23 13z"/>
</symbol>
<symbol id="octicon-megaphone" viewBox="0 0 24 22">
    <title>octicon-megaphone</title>
    <path fill="#000" d="M15 .5c-.258 0-.54.07-.773.21C12.07 2.024 6.75 5.868 4.5 6.5 2.437 6.5 0 7.508 0 10.25S2.438 14 4.5 14c.445.117.96.352 1.5.61v6.89h3v-5.18c2.016 1.29 4.03 2.742 5.227 3.47.234.14.515.21.773.21.773 0 1.5-.633 1.5-1.5V2c0-.867-.727-1.5-1.5-1.5zm0 18c-.563-.352-1.336-.867-2.25-1.5-.234-.164-.492-.328-.75-.516V3.97c.234-.165.47-.306.703-.47.914-.61 1.735-1.148 2.297-1.5v16.5zm3-9h6V11h-6V9.5zm0 3l6 3V17l-6-3v-1.5zm6-9V5l-6 3V6.5l6-3z"/>
</symbol>
<symbol id="octicon-mention" viewBox="0 0 20 20">
    <title>octicon-mention</title>
    <path fill="#000" d="M10.938.074C5.594-.583.73 3.218.074 8.562c-.657 5.345 3.144 10.21 8.488 10.865 1.674.205 3.4-.02 5-.702.57-.243.837-.904.595-1.475-.243-.572-.903-.84-1.475-.596-1.23.523-2.558.698-3.846.54-4.11-.505-7.034-4.247-6.53-8.358.505-4.11 4.247-7.034 8.358-6.53 4.11.506 7.034 4.247 6.53 8.358-.102.823-.505 1.306-1.444 1.306-.996 0-1.5-1.075-1.5-1.903v-2.94c0-.623-.504-1.126-1.125-1.126-.227 0-.44.068-.616.184-.603-.475-1.347-.794-2.212-.9-2.466-.303-4.71 1.45-5.014 3.918-.303 2.467 1.45 4.712 3.918 5.015 1.344.165 2.723-.345 3.7-1.246.584.66 1.402 1.118 2.346 1.233 2.055.253 3.926-1.21 4.178-3.264C20.082 5.593 16.282.73 10.938.073zm1.045 9.95c-.15 1.234-1.274 2.11-2.507 1.96-1.233-.152-2.11-1.274-1.96-2.508.152-1.233 1.275-2.11 2.508-1.96 1.233.153 2.11 1.275 1.96 2.51z"/>
</symbol>
<symbol id="octicon-milestone" viewBox="0 0 20 24">
    <title>octicon-milestone</title>
    <path fill="#000" d="M10.5 3h-3V0h3v3zm6 7.5h-15C.68 10.5 0 9.82 0 9V6c0-.82.68-1.5 1.5-1.5h15l3 3-3 3zm-6-4.5h-3v3h3V6zm-3 18h3V12h-3v12z"/>
</symbol>
<symbol id="octicon-mirror" viewBox="0 0 23 24">
    <title>octicon-mirror</title>
    <path fill="#000" d="M22.25 7.055L11.75 0 1.25 7.055c-.445.28-.75.68-.75 1.195V24l11.25-6L23 24V8.25c0-.516-.305-.914-.75-1.195zM21.5 22l-9-4.875V15.25H11v1.875L2 22V8.5l9-6v6.75h1.5V2.5l9 6V22zM8 10.5h7.5v-3L20 12l-4.5 4.5v-3H8v3L3.5 12 8 7.5v3z"/>
</symbol>
<symbol id="octicon-mortar-board" viewBox="0 0 24 16">
    <title>octicon-mortar-board</title>
    <path fill="#000" d="M11.813 10.19L6.136 8.37c-5.93-12.257 0 2.3 0 3.832S8.8 14.5 12.068 14.5c3.267 0 5.932-.766 5.932-2.298v-3.83l-5.677 1.82c-.163.046-.348.046-.533 0h.023zm.35-9.672c-.093-.024-.21-.024-.304 0L.37 4.12c-.493.166-.493.853 0 1.02l2.608.83v2.677c-.446.26-.752.758-.752 1.303 0 .285.07.546.212.76-.118.212-.212.473-.212.757v3.91c0 .83 3.007.83 3.007 0v-3.91c0-.284-.07-.545-.21-.758.117-.214.21-.475.21-.76 0-.568-.305-1.042-.75-1.303V6.443l7.353 2.322c.094.024.21.024.305 0l11.49-3.602c.493-.166.493-.853 0-1.02L12.164.52zM12 5.5c-.82 0-1.5-.328-1.5-.75S11.18 4 12 4s1.5.328 1.5.75-.68.75-1.5.75z"/>
</symbol>
<symbol id="octicon-mute" viewBox="0 0 24 18">
    <title>octicon-mute</title>
    <path fill="#000" d="M12.5 1.14v15.72c0 1.02-1.22 1.517-1.922.806L5 12.03H2c-.82 0-1.5-.686-1.5-1.515v-3.03c0-.83.68-1.516 1.5-1.516h3L10.578.333C11.28-.376 12.5.12 12.5 1.14zM24 6.076L22.423 4.5 19.5 7.423 16.577 4.5 15 6.077 17.923 9 15 11.923l1.577 1.577 2.923-2.923 2.923 2.923L24 11.923 21.077 9 24 6.077z"/>
</symbol>
<symbol id="octicon-no-newline" viewBox="0 0 24 12">
    <title>octicon-no-newline</title>
    <path fill="#000" d="M24 1.5V6c0 .82-.68 1.5-1.5 1.5H18v3L13.5 6 18 1.5v3h3v-3h3zM12 6c0 3.305-2.695 6-6 6S0 9.305 0 6s2.695-6 6-6 6 2.695 6 6zM2.252 8.5L8.5 2.252c-.728-.47-1.574-.752-2.49-.752-2.49 0-4.51 2.02-4.51 4.51 0 .916.282 1.762.752 2.49zM10.5 5.99c0-.916-.282-1.762-.752-2.49L3.5 9.748c.728.47 1.574.752 2.49.752 2.49 0 4.51-2.02 4.51-4.51z"/>
</symbol>
<symbol id="octicon-octoface" viewBox="0 0 24 20">
    <title>octicon-octoface</title>
    <path fill="#000" d="M22.05 5.01c.194-.475.83-2.386-.2-4.968 0 0-1.58-.5-5.154 1.943-1.497-.41-3.105-.473-4.696-.473-1.592 0-3.198.062-4.7.475C3.728-.457 2.15.042 2.15.042c-1.03 2.583-.394 4.493-.2 4.967C.738 6.317 0 7.99 0 10.04c0 7.716 4.998 9.46 11.973 9.46C18.95 19.5 24 17.756 24 10.04c0-2.05-.738-3.722-1.95-5.03zM12 18c-4.97 0-9-.23-9-5.012 0-1.143.566-2.21 1.536-3.09C6.152 8.43 8.892 9.206 12 9.206c3.108 0 5.844-.777 7.462.692.97.882 1.538 1.945 1.538 3.09C21 17.768 16.968 18 12 18zm-3.75-7.5c-.966 0-1.75 1.23-1.75 2.75 0 1.518.784 2.75 1.75 2.75S10 14.768 10 13.25c0-1.52-.784-2.75-1.75-2.75zm7.5 0c-.964 0-1.75 1.23-1.75 2.748 0 1.52.786 2.752 1.75 2.752.966 0 1.75-1.232 1.75-2.752 0-1.52-.783-2.748-1.75-2.748z"/>
</symbol>
<symbol id="octicon-organization" viewBox="0 0 22 24">
    <title>octicon-organization</title>
    <path fill="#000" d="M7.625 7.43C8.445 8.39 9.64 9 11 9c1.36 0 2.555-.61 3.375-1.57C14.89 8.367 15.875 9 17 9c1.664 0 3-1.336 3-3s-1.336-3-3-3c-.61 0-1.148.188-1.617.492C14.913 1.5 13.133 0 11 0S7.086 1.5 6.617 3.492C6.147 3.188 5.61 3 5 3 3.336 3 2 4.336 2 6s1.336 3 3 3c1.125 0 2.11-.633 2.625-1.57zm7.58-2.498c.298-.546.87-.932 1.534-.932.96 0 1.76.795 1.76 1.75s-.8 1.75-1.76 1.75c-.962 0-1.717-.773-1.74-1.705.092-.272.16-.568.206-.863zM11 1.5c1.65 0 3 1.35 3 3s-1.35 3-3 3-3-1.35-3-3 1.35-3 3-3zm-6.24 6C3.8 7.5 3 6.705 3 5.75S3.8 4 4.76 4c.665 0 1.237.386 1.534.932.046.295.114.59.206.863-.023.932-.778 1.705-1.74 1.705zM20 9H2c-.82 0-1.5.68-1.5 1.5V15c0 .82.68 1.5 1.5 1.5v3c0 .82.68 1.5 1.5 1.5H5c.82 0 1.5-.68 1.5-1.5V18H8v4.5c0 .82.68 1.5 1.5 1.5h3c.82 0 1.5-.68 1.5-1.5V18h1.5v1.5c0 .82.68 1.5 1.5 1.5h1.5c.82 0 1.5-.68 1.5-1.5v-3c.82 0 1.5-.68 1.5-1.5v-4.5c0-.82-.68-1.5-1.5-1.5zM5 19.5H3.5V15H2v-4.5h3v9zm10.5-3H14v-3h-1.5v9h-3v-9H8v3H6.5v-6h9v6zM20 15h-1.5v4.5H17v-9h3V15z"/>
</symbol>
<symbol id="octicon-package" viewBox="0 0 23 20">
    <title>octicon-package</title>
    <path fill="#000" d="M0 4.61v11.26c0 .685.445 1.274 1.125 1.462l9.75 2.615c.234.07.516.07.75 0l9.75-2.615c.68-.188 1.125-.777 1.125-1.46V4.61c0-.684-.445-1.273-1.125-1.462L11.625.535c-.234-.047-.516-.047-.75 0L1.125 3.15C.445 3.34 0 3.928 0 4.61zM10.5 18l-9-2.383V5.5l9 2.407V18zm-9-14.023L5.25 3 15 5.523l-3.75.977L1.5 3.977zM21 15.617L12 18V7.907l3-.818v3.644l3-.795V6.293l3-.794v10.117zM18.44 5L8.5 2.32l3.06-.82 9.94 2.68-3.06.82z"/>
</symbol>
<symbol id="octicon-paintcan" viewBox="0 0 18 23">
    <title>octicon-paintcan</title>
    <path fill="#000" d="M9 0C4.03 0 0 4.03 0 9v1.5c0 .828.672 1.5 1.5 1.5v7.5c0 1.657 3.358 3 7.5 3 4.142 0 7.5-1.343 7.5-3V12c.828 0 1.5-.672 1.5-1.5V9c0-4.97-4.03-9-9-9zm4.5 15.103v.733c0 .405-.336.733-.75.733s-.75-.33-.75-.734v-.733c0-.404-.336-.732-.75-.732s-.75.33-.75.733v3.664c0 .405-.336.733-.75.733S9 19.172 9 18.767v-2.93c0-.406-.336-.734-.75-.734s-.75.328-.75.733v.733c0 .808-.672 1.464-1.5 1.464s-1.5-.656-1.5-1.465v-1.467c-.828 0-1.5-.656-1.5-1.465V11c1.368.712 3.547 1.172 6 1.172s4.632-.46 6-1.172v2.638c0 .81-.672 1.465-1.5 1.465zM9 10.5c-2.49 0-4.62-.62-5.5-1.5.88-.88 3.01-1.5 5.5-1.5s4.62.62 5.5 1.5c-.88.88-3.01 1.5-5.5 1.5zM9 6C4.86 6 1.504 7.34 1.5 8.997 1.502 4.857 4.86 1.5 9 1.5c4.142 0 7.5 3.358 7.5 7.5 0-1.657-3.358-3-7.5-3z"/>
</symbol>
<symbol id="octicon-pencil" viewBox="0 0 21 21">
    <title>octicon-pencil</title>
    <path fill="#000" d="M0 16v4.5h4.5l12-12L12 4 0 16zm4.5 3h-3v-3H3v1.5h1.5V19zM20.053 5.022L18.075 7 13.5 2.425 15.478.447c.596-.596 1.55-.596 2.145 0l2.43 2.43c.596.596.596 1.55 0 2.145z"/>
</symbol>
<symbol id="octicon-person" viewBox="0 0 12 24">
    <title>octicon-person</title>
    <path fill="#000" d="M10.5 9h-9C.68 9 0 9.68 0 10.5V18h3v4.5c0 .82.68 1.5 1.5 1.5h3c.82 0 1.5-.68 1.5-1.5V18h3v-7.5c0-.82-.68-1.5-1.5-1.5zm0 7.5H9v-3H7.5v9h-3v-9H3v3H1.5v-6h9v6zm0-12C10.5 2.016 8.484 0 6 0S1.5 2.016 1.5 4.5 3.516 9 6 9s4.5-2.016 4.5-4.5zM6 7.5c-1.664 0-3-1.336-3-3s1.336-3 3-3 3 1.336 3 3-1.336 3-3 3z"/>
</symbol>
<symbol id="octicon-pin" viewBox="0 0 22 22">
    <title>octicon-pin</title>
    <path fill="#000" d="M14.037 1.25v1.197l.752 1.504-6.77 4.513H2.31c-.658 0-1.01.8-.517 1.293l4.723 4.724L.5 22l7.52-6.016 4.724 4.723c.494.494 1.293.14 1.293-.517v-5.71l4.512-6.77 1.503.753h1.198c.66 0 1.012-.8.518-1.292L15.328.733c-.492-.494-1.29-.14-1.29.517z"/>
</symbol>
<symbol id="octicon-plug" viewBox="0 0 22 14">
    <title>octicon-plug</title>
    <path fill="#000" d="M21.5 5V3.5h-6v-3h-3V2h-3c-1.547 0-2.648 1.22-3 3L5 6.5C2.516 6.5.5 8.516.5 11v3H2v-3c0-1.664 1.336-3 3-3l1.5 1.5c.375 1.734 1.477 3 3 3h3V14h3v-3h6V9.5h-6V5h6z"/>
</symbol>
<symbol id="octicon-plus" viewBox="0 0 18 18">
    <title>octicon-plus</title>
    <path fill="#000" d="M18 10.5h-7.5V18h-3v-7.5H0v-3h7.5V0h3v7.5H18v3z"/>
</symbol>
<symbol id="octicon-primitive-dot" viewBox="0 0 12 12">
    <title>octicon-primitive-dot</title>
    <path fill="#000" d="M0 6c0-3.316 2.684-6 6-6 3.315 0 6 2.684 6 6s-2.685 6-6 6c-3.316 0-6-2.684-6-6z"/>
</symbol>
<symbol id="octicon-primitive-square" viewBox="0 0 12 12">
    <title>octicon-primitive-square</title>
    <path fill="#000" d="M12 12H0V0h12v12z"/>
</symbol>
<symbol id="octicon-pulse" viewBox="0 0 22 18">
    <title>octicon-pulse</title>
    <path fill="#000" d="M17.75 9.6L13.7 5.7l-3.3 4.65L8.75 0 4.073 9.6H.5v3h5.4l1.35-2.7L8.6 18l5.4-7.65 2.4 2.25h5.1v-3h-3.75z"/>
</symbol>
<symbol id="octicon-question" viewBox="0 0 22 22">
    <title>octicon-question</title>
    <path fill="#000" d="M9.5 14h3v3h-3v-3zm6-5.25c0 3.21-3 3.75-3 3.75h-3c0-.82.68-1.5 1.5-1.5h.75c.422 0 .75-.328.75-.75v-1.5c0-.422-.328-.75-.75-.75h-1.5c-.422 0-.75.328-.75.75v.75h-3C6.5 7.25 8.75 5 11 5s4.5 1.5 4.5 3.75zM11 2.5c4.68 0 8.5 3.82 8.5 8.5s-3.82 8.5-8.5 8.5-8.5-3.82-8.5-8.5S6.32 2.5 11 2.5zm0-2C5.21.5.5 5.21.5 11S5.21 21.5 11 21.5 21.5 16.79 21.5 11 16.79.5 11 .5z"/>
</symbol>
<symbol id="octicon-quote" viewBox="0 0 16 12">
    <title>octicon-quote</title>
    <path fill="#000" d="M.5 6v6h6V6h-3s0-3 3-3V0s-6 0-6 6zm15-3V0s-6 0-6 6v6h6V6h-3s0-3 3-3z"/>
</symbol>
<symbol id="octicon-radio-tower" viewBox="0 0 24 22">
    <title>octicon-radio-tower</title>
    <path fill="#000" d="M7.212 8.71c.384-.387.384-1.014 0-1.402-.497-.5-.742-1.15-.743-1.806 0-.66.245-1.307.742-1.81.384-.386.384-1.014 0-1.4C7.02 2.096 6.77 2 6.517 2c-.25 0-.504.096-.696.29-.877.885-1.322 2.05-1.32 3.212 0 1.158.443 2.324 1.32 3.208.385.387 1.008.387 1.392 0zM3.7.292C3.497.097 3.234 0 2.97 0c-.265 0-.53.097-.73.292C.747 1.728-.003 3.617 0 5.5c-.002 1.88.748 3.773 2.238 5.208.403.39 1.056.39 1.46 0 .402-.388.402-1.02 0-1.406C2.608 8.25 2.065 6.88 2.065 5.5c0-1.38.543-2.75 1.633-3.802C4.1 1.308 4.1.678 3.7.292zM12 8c1.38 0 2.5-1.12 2.5-2.5S13.38 3 12 3 9.5 4.12 9.5 5.5 10.62 8 12 8zM21.763.292c-.404-.39-1.058-.39-1.46 0-.404.388-.404 1.02 0 1.406 1.09 1.052 1.633 2.423 1.633 3.803s-.545 2.75-1.634 3.802c-.403.39-.403 1.02 0 1.406.202.195.466.292.73.292.264 0 .53-.097.73-.292 1.49-1.435 2.24-3.327 2.238-5.21.003-1.88-.747-3.77-2.237-5.206zm-9.748 9.66c-.62.002-1.242-.15-1.805-.452L5.5 22h2.23l1.283-1.492h5.992L16.27 22h2.23L13.79 9.503c-.555.298-1.164.45-1.775.45zm-.024.548L13.5 16h-3l1.49-5.5zM9 19l1.5-1.5h3L15 19H9zm7.788-16.71c-.384.387-.384 1.015 0 1.402.497.5.742 1.152.743 1.807 0 .658-.245 1.307-.742 1.808-.384.388-.384 1.015 0 1.402.19.194.442.29.696.29.25 0 .503-.096.695-.29.878-.884 1.323-2.052 1.32-3.21.003-1.16-.44-2.326-1.32-3.21-.384-.387-1.007-.387-1.392 0z"/>
</symbol>
<symbol id="octicon-repo-clone" viewBox="0 0 24 24">
    <title>octicon-repo-clone</title>
    <path fill="#000" d="M22.5 0h-9v10.5c0 .82.68 1.5 1.5 1.5h1.5v1.5H18V12h4.5c.82 0 1.5-.68 1.5-1.5v-9c0-.82-.68-1.5-1.5-1.5zm-6 10.5H15V9h1.5v1.5zm6 0H18V9h4.5v1.5zm0-3h-6v-6h6v6zM6 7.5H4.5V6H6v1.5zm0-3H4.5V3H6v1.5zm-3-3h9V0H1.5C.68 0 0 .68 0 1.5v18c0 .82.68 1.5 1.5 1.5h3v3l2.25-2.25L9 24v-3h7.5c.82 0 1.5-.68 1.5-1.5V15H3V1.5zm13.5 15v3H9V18H4.5v1.5h-3v-3h15zM4.5 12H6v1.5H4.5V12zM6 10.5H4.5V9H6v1.5z"/>
</symbol>
<symbol id="octicon-repo-force-push" viewBox="0 0 18 24">
    <title>octicon-repo-force-push</title>
    <path fill="#000" d="M15 13.5h-3V24H9V13.5H6L9.375 9H6l4.5-6L15 9h-3.375L15 13.5zM16.5 0h-15C.68 0 0 .68 0 1.5v18c0 .82.68 1.5 1.5 1.5h6v-1.5h-6v-3h6V15H3V1.5h13.5V15h-3v1.5h3v3h-3V21h3c.82 0 1.5-.68 1.5-1.5v-18c0-.82-.68-1.5-1.5-1.5z"/>
</symbol>
<symbol id="octicon-repo-forked" viewBox="0 0 16 22">
    <title>octicon-repo-forked</title>
    <path fill="#000" d="M12.5.5c-1.664 0-3 1.336-3 3 0 1.102.61 2.063 1.5 2.578V8l-3 3-3-3V6.078c.89-.516 1.5-1.476 1.5-2.578 0-1.664-1.336-3-3-3s-3 1.336-3 3c0 1.102.61 2.063 1.5 2.578V8.75l4.5 4.5v2.672C5.61 16.437 5 17.398 5 18.5c0 1.664 1.336 3 3 3s3-1.336 3-3c0-1.102-.61-2.063-1.5-2.578V13.25l4.5-4.5V6.078c.89-.516 1.5-1.476 1.5-2.578 0-1.664-1.336-3-3-3zM3.25 5C2.295 5 1.5 4.205 1.5 3.25S2.295 1.5 3.25 1.5 5 2.295 5 3.25 4.205 5 3.25 5zm4.5 15C6.795 20 6 19.205 6 18.25s.795-1.75 1.75-1.75 1.75.795 1.75 1.75S8.705 20 7.75 20zm4.5-15c-.955 0-1.75-.795-1.75-1.75s.795-1.75 1.75-1.75S14 2.295 14 3.25 13.205 5 12.25 5z"/>
</symbol>
<symbol id="octicon-repo-pull" viewBox="0 0 24 24">
    <title>octicon-repo-pull</title>
    <path fill="#000" d="M19.5 12V9h-9V6h9V3L24 7.5 19.5 12zM6 3H4.5v1.5H6V3zm10.5 7.5H18v9c0 .82-.68 1.5-1.5 1.5H9v3l-2.25-2.25L4.5 24v-3h-3C.68 21 0 20.32 0 19.5v-18C0 .68.68 0 1.5 0h15c.82 0 1.5.68 1.5 1.5v3h-1.5v-3H3V15h13.5v-4.5zm0 6h-15v3h3V18H9v1.5h7.5v-3zM6 9H4.5v1.5H6V9zm0-3H4.5v1.5H6V6zm-1.5 7.5H6V12H4.5v1.5z"/>
</symbol>
<symbol id="octicon-repo-push" viewBox="0 0 18 24">
    <title>octicon-repo-push</title>
    <path fill="#000" d="M6 4.5H4.5V3H6v1.5zm-1.5 3H6V6H4.5v1.5zm6 0l-4.5 6h3V24h3V13.5h3l-4.5-6zm6-7.5h-15C.68 0 0 .68 0 1.5v18c0 .82.68 1.5 1.5 1.5h6v-1.5h-6v-3h6V15H3V1.5h13.523L16.5 15h-3v1.5h3v3h-3V21h3c.82 0 1.5-.68 1.5-1.5v-18c0-.82-.68-1.5-1.5-1.5z"/>
</symbol>
<symbol id="octicon-repo" viewBox="0 0 18 24">
    <title>octicon-repo</title>
    <path fill="#000" d="M6 13.5H4.5V12H6v1.5zM6 9H4.5v1.5H6V9zm0-3H4.5v1.5H6V6zm0-3H4.5v1.5H6V3zm12-1.5v18c0 .82-.68 1.5-1.5 1.5H9v3l-2.25-2.25L4.5 24v-3h-3C.68 21 0 20.32 0 19.5v-18C0 .68.68 0 1.5 0h15c.82 0 1.5.68 1.5 1.5zm-1.5 15h-15v3h3V18H9v1.5h7.5v-3zm0-15H3V15h13.5V1.5z"/>
</symbol>
<symbol id="octicon-rocket" viewBox="0 0 24 24">
    <title>octicon-rocket</title>
    <path fill="#000" d="M24 0c-23.52 0-.138.555-.436 1.57-.3 1.04-.804 2.335-1.562 3.93-1.034-.116-1.86-.485-2.435-1.063-.574-.578-.92-1.387-1.034-2.426 1.585-.762 2.87-1.294 3.882-1.594C23.45.116 24 0 24 0zm-5.823 5.823c-.397-.396-.7-.816-.934-1.306-.233-.467-.396-.98-.513-1.517-.863.49-1.727 1.05-2.59 1.68-.863.653-1.703 1.4-2.52 2.217-1.05 1.05-1.983 2.706-2.66 3.663H4.48L0 15.04h4.48l2.987-2.987c-.514 1.144-1.517 4.457-1.494 4.48l1.494 1.494c.023.023 3.336-.957 4.48-1.494L8.96 19.52V24l4.48-4.48v-4.48c.957-.677 2.613-1.633 3.663-2.66.817-.817 1.564-1.68 2.194-2.543C19.95 8.973 20.51 8.11 21 7.27c-.537-.117-1.05-.28-1.54-.513-.467-.234-.887-.537-1.283-.934z"/>
</symbol>
<symbol id="octicon-rss" viewBox="0 0 16 16">
    <title>octicon-rss</title>
    <path fill="#000" d="M3.5 15.5h-3v-3c1.664 0 3 1.336 3 3zM.5.5V2C7.953 2 14 8.047 14 15.5h1.5c0-8.273-6.727-15-15-15zm0 6V8C4.625 8 8 11.375 8 15.5h1.5c0-4.97-4.03-9-9-9z"/>
</symbol>
<symbol id="octicon-ruby" viewBox="0 0 24 18">
    <title>octicon-ruby</title>
    <path fill="#000" d="M19.5 6L12 13.5V3h4.5l3 3zM24 6L12 18 0 6l6-6h12l6 6zM12.25 16L22 6.08 17.5 1.5H7L2.5 6.08 12.25 16z"/>
</symbol>
<symbol id="octicon-screen-full" viewBox="0 0 22 18">
    <title>octicon-screen-full</title>
    <path fill="#000" d="M20 12h1.5v4.5c0 .82-.68 1.5-1.5 1.5h-4.5v-1.5H20V12zM2 12H.5v4.5c0 .82.68 1.5 1.5 1.5h4.5v-1.5H2V12zM2 1.5h4.5V0H2C1.18 0 .5.68.5 1.5V6H2V1.5zM3.5 3h15v12h-15V3zm3 9h9V6h-9v6zM20 0h-4.5v1.5H20V6h1.5V1.5C21.5.68 20.82 0 20 0z"/>
</symbol>
<symbol id="octicon-screen-normal" viewBox="0 0 22 22">
    <title>octicon-screen-normal</title>
    <path fill="#000" d="M3.5 5h-3V3.5h3v-3H5v3C5 4.32 4.32 5 3.5 5zm0 12h-3v1.5h3v3H5v-3c0-.82-.68-1.5-1.5-1.5zM17 14c0 .82-.68 1.5-1.5 1.5h-9c-.82 0-1.5-.68-1.5-1.5V8c0-.82.68-1.5 1.5-1.5h9c.82 0 1.5.68 1.5 1.5v6zm-3-4.5H8v3h6v-3zm3 9v3h1.5v-3h3V17h-3c-.82 0-1.5.68-1.5 1.5zm1.5-15v-3H17v3c0 .82.68 1.5 1.5 1.5h3V3.5h-3z"/>
</symbol>
<symbol id="octicon-search" viewBox="0 0 23 23">
    <title>octicon-search</title>
    <path fill="#000" d="M22.06 20.445l-5.72-5.742c1.055-1.476 1.665-3.258 1.665-5.203 0-4.97-4.033-9-9.003-9S0 4.53 0 9.5s4.032 9 9.002 9c1.946 0 3.728-.61 5.205-1.664l5.744 5.72c.282.303.68.444 1.055.444.376 0 .774-.14 1.055-.445.587-.586.587-1.524 0-2.11zM9 16.5c-3.86 0-7-3.14-7-7s3.14-7 7-7 7 3.14 7 7-3.14 7-7 7z"/>
</symbol>
<symbol id="octicon-server" viewBox="0 0 18 22">
    <title>octicon-server</title>
    <path fill="#000" d="M16.5 8h-15C.68 8 0 8.68 0 9.5v3c0 .82.68 1.5 1.5 1.5h15c.82 0 1.5-.68 1.5-1.5v-3c0-.82-.68-1.5-1.5-1.5zM3 12.5H1.5v-3H3v3zm3 0H4.5v-3H6v3zm3 0H7.5v-3H9v3zm3 0h-1.5v-3H12v3zm4.5-12h-15C.68.5 0 1.18 0 2v3c0 .82.68 1.5 1.5 1.5h15c.82 0 1.5-.68 1.5-1.5V2c0-.82-.68-1.5-1.5-1.5zM3 5H1.5V2H3v3zm3 0H4.5V2H6v3zm3 0H7.5V2H9v3zm3 0h-1.5V2H12v3zm4.5-1.5H15V2h1.5v1.5zm0 12h-15c-.82 0-1.5.68-1.5 1.5v3c0 .82.68 1.5 1.5 1.5h15c.82 0 1.5-.68 1.5-1.5v-3c0-.82-.68-1.5-1.5-1.5zM3 20H1.5v-3H3v3zm3 0H4.5v-3H6v3zm3 0H7.5v-3H9v3zm3 0h-1.5v-3H12v3z"/>
</symbol>
<symbol id="octicon-settings" viewBox="0 0 23 18">
    <title>octicon-settings</title>
    <path fill="#000" d="M4.5 7.5H3V0h1.5v7.5zM3 18h1.5v-4.5H3V18zm7.5 0H12V9h-1.5v9zm7.5 0h1.5v-3H18v3zm1.5-18H18v9h1.5V0zM12 0h-1.5v3H12V0zM6 9H1.5C.68 9 0 9.68 0 10.5S.68 12 1.5 12H6c.82 0 1.5-.68 1.5-1.5S6.82 9 6 9zm7.5-4.5H9c-.82 0-1.5.68-1.5 1.5S8.18 7.5 9 7.5h4.5c.82 0 1.5-.68 1.5-1.5s-.68-1.5-1.5-1.5zm7.5 6h-4.5c-.82 0-1.5.68-1.5 1.5s.68 1.5 1.5 1.5H21c.82 0 1.5-.68 1.5-1.5s-.68-1.5-1.5-1.5z"/>
</symbol>
<symbol id="octicon-shield" viewBox="0 0 22 24">
    <title>octicon-shield</title>
    <path fill="#000" d="M11 0L.5 3v9.023C.5 19.03 8.47 24 11 24c2.53 0 10.5-4.97 10.5-11.977V3L11 0zM8 16.5l1.71-4.195c.07-.352-.093-.703-.374-.89C8.492 10.874 8 9.984 8 9c0-1.64 1.336-3 2.977-3C12.594 6 14 7.36 14 9c0 .984-.492 1.875-1.336 2.414-.28.188-.445.54-.375.89L14 16.5H8z"/>
</symbol>
<symbol id="octicon-sign-in" viewBox="0 0 20 24">
    <title>octicon-sign-in</title>
    <path fill="#000" d="M9 10.125V18h6v-6h1.5v6c0 .82-.68 1.5-1.5 1.5H9V24L.82 19.922c-.492-.258-.82-.774-.82-1.36V1.5C0 .68.68 0 1.5 0H15c.82 0 1.5.68 1.5 1.5V6H15V1.5H3l6 3v3.375L13.5 4.5v3h6v3h-6v3L9 10.125z"/>
</symbol>
<symbol id="octicon-sign-out" viewBox="0 0 24 24">
    <title>octicon-sign-out</title>
    <path fill="#000" d="M18 13.5v-3h-6v-3h6v-3L24 9l-6 4.5zM15 18H9V4.5l-6-3h12V6h1.5V1.5C16.5.68 15.82 0 15 0H1.5C.68 0 0 .68 0 1.5v17.063c0 .585.328 1.1.82 1.36L9 24v-4.5h6c.82 0 1.5-.68 1.5-1.5v-6H15v6z"/>
</symbol>
<symbol id="octicon-squirrel" viewBox="0 0 24 22">
    <title>octicon-squirrel</title>
    <path fill="#000" d="M17.532.5c-3.296 0-5.97 1.963-5.97 4.38 0 2.903.748 4.55 0 9.12 0-6.75-4.125-9.51-5.967-9.51.076-.755-.72-.99-.72-.99s-.328.167-.453.506c-.4-.47-.843-.41-.843-.41l-.198.868S.652 5.422.616 9.3c.317.505 2.305.906 3.718.648 1.332.07 1.002 1.187.704 1.487C3.778 12.7 2.61 11 1.118 11c-1.49 0-1.49 1.5 0 1.5 1.493 0 1.493 1.5 4.477 1.5-4.616 1.805 0 6 0 6H4.103C2.61 20 2.61 21.5 2.61 21.5h8.953c4.477 0 7.46-1.5 7.46-5.207 0-1.274-.645-2.687-1.49-3.803-1.655-2.18.336-4.01 1.49-2.99 1.156 1.02 4.477 1.5 4.477-3 0-3.314-2.672-6-5.968-6zM3.25 8c-.414 0-.75-.336-.75-.75s.336-.75.75-.75.75.336.75.75-.336.75-.75.75z"/>
</symbol>
<symbol id="octicon-star" viewBox="0 0 22 20">
    <title>octicon-star</title>
    <path fill="#000" d="M21.5 8l-7.348-.955L11 .5 7.847 7.045.5 8l5.402 4.896L4.508 20 11 16.512 17.494 20l-1.396-7.104L21.5 8z"/>
</symbol>
<symbol id="octicon-stop" viewBox="0 0 22 22">
    <title>octicon-stop</title>
    <path fill="#000" d="M15.5.5h-9l-6 6v9l6 6h9l6-6v-9l-6-6zM20 14.75L14.75 20h-7.5L2 14.75v-7.5L7.25 2h7.5L20 7.25v7.5zM9.5 5h3v7.5h-3V5zm0 9h3v3h-3v-3z"/>
</symbol>
<symbol id="octicon-sync" viewBox="0 0 18 18">
    <title>octicon-sync</title>
    <path fill="#000" d="M15.323 8c.282 1.934-.31 3.97-1.826 5.457-2.24 2.2-5.694 2.47-8.235.818l1.78-1.727L.5 11.64 1.413 18l1.998-1.905c3.588 2.633 8.676 2.384 11.936-.818 1.89-1.857 2.752-4.32 2.645-6.753L15.324 8zM4.377 4.545c2.175-2.2 5.53-2.472 8-.818l-1.733 1.726 6.356.91L16.114 0l-1.94 1.91C10.69-.726 5.747-.475 2.58 2.726.742 4.582-.095 7.047.008 9.477L2.6 10c-.273-1.934.304-3.97 1.777-5.455z"/>
</symbol>
<symbol id="octicon-tag" viewBox="0 0 20 20">
    <title>octicon-tag</title>
    <path fill="#000" d="M10.032 1.094C9.334.396 8.38 0 7.402 0H3.724C1.676 0 0 1.676 0 3.724v3.678c0 .978.396 1.932 1.094 2.63l9.03 9.032c.583.58 1.514.58 2.096 0l6.844-6.844c.58-.582.58-1.513 0-2.095l-9.032-9.03zm-7.83 8.19C1.735 8.84 1.5 8.23 1.5 7.598V3.892C1.5 2.58 2.58 1.5 3.892 1.5h3.705c.633 0 1.242.234 1.688.703l9.215 9.192-7.105 7.105-9.192-9.215zM3 3h3v3H3V3z"/>
</symbol>
<symbol id="octicon-telescope" viewBox="0 0 19 24">
    <title>octicon-telescope</title>
    <path fill="#000" d="M12 13.5l4.5 9H15l-3-6V24h-1.5v-9l-3 7.5H6L9 15l3-1.5zM10.5 0H9v1.5h1.5V0zm-3 4.5H6V6h1.5V4.5zM3 1.5H1.5V3H3V1.5zM.833 13.27c-.33.232-.426.648-.237.994l.828 1.364c.19.346.616.462.97.3l2.106-.97L2.75 12 .832 13.27zM12.815 5.5L4 11.338 5.877 14.5l9.623-4.477L12.815 5.5zm6.09 1.54l-2.124-3.672c-.203-.364-.677-.478-1.04-.25L14 4.326 16.668 9l1.92-.935c.386-.182.52-.638.318-1.026z"/>
</symbol>
<symbol id="octicon-terminal" viewBox="0 0 22 18">
    <title>octicon-terminal</title>
    <path fill="#000" d="M11 12h6v1.5h-6V12zm-4.4 1.5L11 9 6.6 4.5 5.5 5.625 8.8 9l-3.3 3.375L6.6 13.5zm14.9-12v15c0 .82-.68 1.5-1.5 1.5H2c-.82 0-1.5-.68-1.5-1.5v-15C.5.68 1.18 0 2 0h18c.82 0 1.5.68 1.5 1.5zm-1.5 0H2v15h18v-15z"/>
</symbol>
<symbol id="octicon-three-bars" viewBox="0 0 18 16">
    <title>octicon-three-bars</title>
    <path fill="#000" d="M0 .5v3h18v-3H0zm0 9h18v-3H0v3zm0 6h18v-3H0v3z"/>
</symbol>
<symbol id="octicon-thumbsdown" viewBox="0 0 22 24">
    <title>octicon-thumbsdown</title>
    <path fill="#000" d="M20.914 11.367c.21-.445.352-.937.352-1.453 0-1.195-.657-2.25-1.618-2.812.094-.305.14-.633.14-.96 0-1.173-.608-2.18-1.522-2.767.047-.188.234-.445.234-.633C18.5 1.195 17.117 0 15.5 0h-5.203C8.234 0 6.312 1.008 4.625 1.898 3.64 2.414 2.54 3 1.977 3H.5v13.5H2c.867.047 3.633 1.617 4.828 2.625.28.234 4.055 3.938 4.055 3.938.61.61 1.406.937 2.25.937.82 0 1.594-.305 2.156-.89 1.194-1.196 1.17-3.165-.048-4.407-.47-.47-2.203-2.695-2.742-3.234l6 1.03c1.78 0 3-1.383 3-3.07 0-.797-.07-1.5-.586-2.063zM18.5 14.985l-9-1.498c-.164 0 4.688 6.227 4.688 6.227.656.68.68 1.71.07 2.34-.305.306-.703.446-1.125.446-.422 0-.867-.164-1.22-.492l-3.28-3.324c-2.016-1.662-5.063-3.7-6.633-3.7V4.45c2.04 0 5.18-2.95 8.25-2.95h5.25c.797 0 1.5.468 1.5 1.24 0 .797-.703 1.757-1.5 1.757h1.125c1.055 0 1.688.585 1.688 1.638 0 1.03-.844 2.107-1.9 2.107h1.478c1.055 0 1.9.61 1.9 1.663 0 1.03-.845 1.873-1.9 1.873h.633c.985 0 1.477.75 1.477 1.638 0 .913-.54 1.57-1.5 1.57z"/>
</symbol>
<symbol id="octicon-thumbsup" viewBox="0 0 22 24">
    <title>octicon-thumbsup</title>
    <path fill="#000" d="M21.5 10.57c0-1.687-1.22-3.07-3-3.07l-6 1.03c.54-.538 2.273-2.764 2.742-3.233 1.22-1.242 1.242-3.21.047-4.406C14.726.306 13.952 0 13.132 0c-.844 0-1.64.328-2.25.938 0 0-3.774 3.703-4.055 3.937C5.633 5.883 2.868 7.453 2 7.5H.5V21h1.477c.562 0 1.664.586 2.648 1.102 1.688.89 3.61 1.898 5.672 1.898H15.5c1.617 0 3-1.195 3-2.742 0-.188-.188-.445-.234-.633.914-.586 1.523-1.594 1.523-2.766 0-.33-.048-.657-.142-.962.96-.562 1.618-1.617 1.618-2.812 0-.516-.14-1.008-.352-1.453.516-.563.586-1.266.586-2.063zm-1.5.014c0 .89-.492 1.638-1.477 1.638h-.632c1.055 0 1.9.843 1.9 1.873 0 1.054-.845 1.663-1.9 1.663h-1.476c1.055 0 1.898 1.076 1.898 2.107 0 1.053-.632 1.638-1.687 1.638H15.5c.797 0 1.5.96 1.5 1.756 0 .772-.703 1.24-1.5 1.24h-5.25c-3.07 0-6.21-2.95-8.25-2.95V9.015c1.57 0 4.617-2.037 6.633-3.7l3.28-3.323c.353-.328.798-.492 1.22-.492.422 0 .82.14 1.125.445.61.632.586 1.662-.07 2.34 0 0-4.852 6.228-4.688 6.228l9-1.498c.96 0 1.5.656 1.5 1.57z"/>
</symbol>
<symbol id="octicon-tools" viewBox="0 0 24 24">
    <title>octicon-tools</title>
    <path fill="#000" d="M6.594 10.97c.388.4 1.883 2.03 1.883 2.03l.83-.883-1.3-1.386L10.5 7.997s-1.125-1.134-.633-.682c.47-1.807.042-3.822-1.286-5.242C7.265.662 5.394.202 3.713.686l2.85 3.04-.75 2.982-2.79.796-2.847-3.04C-.28 6.26.152 8.256 1.472 9.664c1.384 1.48 3.378 1.914 5.122 1.306zm9.94 3.03L13 17.4l5.83 5.88c.476.48 1.103.72 1.728.72.622 0 1.248-.24 1.726-.72.955-.96.955-2.515 0-3.476L16.534 14zM24 3.793L20.364 0 9.644 11.186l1.31 1.365-6.416 6.695-1.467.79L1 23.45l.527.552 3.27-2.162.76-1.53 6.414-6.693 1.31 1.365L24 3.793z"/>
</symbol>
<symbol id="octicon-trashcan" viewBox="0 0 17 22">
    <title>octicon-trashcan</title>
    <path fill="#000" d="M15.5 2h-3c0-.82-.68-1.5-1.5-1.5H6.5C5.68.5 5 1.18 5 2H2C1.18 2 .5 2.68.5 3.5V5c0 .82.68 1.5 1.5 1.5V20c0 .82.68 1.5 1.5 1.5H14c.82 0 1.5-.68 1.5-1.5V6.5c.82 0 1.5-.68 1.5-1.5V3.5c0-.82-.68-1.5-1.5-1.5zM14 20H3.5V6.5H5v12h1.5v-12H8v12h1.5v-12H11v12h1.5v-12H14V20zm1.5-15H2V3.5h13.5V5z"/>
</symbol>
<symbol id="octicon-triangle-down" viewBox="0 0 18 10">
    <title>octicon-triangle-down</title>
    <path fill="#000" d="M0 .5l9 9 9-9H0z"/>
</symbol>
<symbol id="octicon-triangle-left" viewBox="0 0 10 18">
    <title>octicon-triangle-left</title>
    <path fill="#000" d="M.5 9l9 9V0l-9 9z"/>
</symbol>
<symbol id="octicon-triangle-right" viewBox="0 0 10 18">
    <title>octicon-triangle-right</title>
    <path fill="#000" d="M.5 0l9 9-9 9V0z"/>
</symbol>
<symbol id="octicon-triangle-up" viewBox="0 0 18 10">
    <title>octicon-triangle-up</title>
    <path fill="#000" d="M9 .5l-9 9h18l-9-9z"/>
</symbol>
<symbol id="octicon-unfold" viewBox="0 0 22 23">
    <title>octicon-unfold</title>
    <path fill="#000" d="M17.75 11.75l3.75 3.75c0 .82-.68 1.5-1.5 1.5h-6v-1.5h5.25l-3-3H5.75l-3 3H8V17H2c-.82 0-1.5-.68-1.5-1.5l3.75-3.75L.5 8c0-.82.68-1.5 1.5-1.5h6V8H2.75l3 3h10.5l3-3H14V6.5h6c.82 0 1.5.68 1.5 1.5l-3.75 3.75zM9.5 9.5h3V5h3L11 .5 6.5 5h3v4.5zm3 4.5h-3v4.5h-3L11 23l4.5-4.5h-3V14z"/>
</symbol>
<symbol id="octicon-unmute" viewBox="0 0 23 18">
    <title>octicon-unmute</title>
    <path fill="#000" d="M16.5 8.75c0 1.644-.737 3.146-1.907 4.25L13.5 11.99c.89-.845 1.45-1.972 1.45-3.24 0-1.268-.56-2.42-1.45-3.24l1.093-1.01c1.17 1.08 1.907 2.583 1.907 4.25zM10.078.334L4.5 5.97h-3c-.82 0-1.5.686-1.5 1.515v3.03c0 .83.68 1.516 1.5 1.516h3l5.578 5.636c.703.71 1.922.214 1.922-.805V1.14c0-1.02-1.22-1.517-1.922-.806zM19.003.5L18 1.51c1.912 1.925 3.078 4.555 3.078 7.49 0 2.912-1.166 5.565-3.078 7.49l1.003 1.01C21.17 15.316 22.5 12.31 22.5 9c0-3.334-1.33-6.34-3.497-8.5zm-2.016 2L16 3.53c1.324 1.412 2.13 3.35 2.13 5.482 0 2.13-.806 4.07-2.13 5.46l.987 1.028c1.548-1.652 2.513-3.95 2.513-6.488 0-2.538-.965-4.836-2.513-6.512z"/>
</symbol>
<symbol id="octicon-versions" viewBox="0 0 22 16">
    <title>octicon-versions</title>
    <path fill="#000" d="M20 .5h-9c-.82 0-1.5.68-1.5 1.5v12c0 .82.68 1.5 1.5 1.5h9c.82 0 1.5-.68 1.5-1.5V2c0-.82-.68-1.5-1.5-1.5zm-1.5 12h-6v-9h6v9zM6.5 2H8v1.5H6.5v9H8V14H6.5c-.82 0-1.5-.68-1.5-1.5v-9C5 2.68 5.68 2 6.5 2zM2 3.5h1.5V5H2v6h1.5v1.5H2c-.82 0-1.5-.68-1.5-1.5V5c0-.82.68-1.5 1.5-1.5z"/>
</symbol>
<symbol id="octicon-watch" viewBox="0 0 18 24">
    <title>octicon-watch</title>
    <path fill="#000" d="M9 12h3v1.5H7.5v-6H9V12zm9 0c0 3.328-1.805 6.234-4.5 7.78v2.72c0 .82-.68 1.5-1.5 1.5H6c-.82 0-1.5-.68-1.5-1.5v-2.72C1.805 18.235 0 15.33 0 12c0-3.328 1.805-6.234 4.5-7.78V1.5C4.5.68 5.18 0 6 0h6c.82 0 1.5.68 1.5 1.5v2.72C16.195 5.765 18 8.67 18 12zm-1.5 0c0-4.148-3.352-7.5-7.5-7.5S1.5 7.852 1.5 12s3.352 7.5 7.5 7.5 7.5-3.352 7.5-7.5z"/>
</symbol>
<symbol id="octicon-x" viewBox="0 0 16 16">
    <title>octicon-x</title>
    <path fill="#000" d="M9.948 7.75l5.552 5.552-2.198 2.198L7.75 9.948 2.198 15.5 0 13.302 5.552 7.75 0 2.198 2.198 0 7.75 5.552 13.302 0 15.5 2.198 9.948 7.75z"/>
</symbol>
<symbol id="octicon-zap" viewBox="0 0 16 24">
    <title>octicon-zap</title>
    <path fill="#000" fill-rule="evenodd" d="M15.5 10.5h-6L14 0 .5 13.5h6L2 24l13.5-13.5z"/>
</symbol></svg>