<?xml version="1.0" encoding="UTF-8" standalone="no"?>
<svg width="24px" height="21px" viewBox="0 0 24 21" version="1.1" xmlns="http://www.w3.org/2000/svg" xmlns:xlink="http://www.w3.org/1999/xlink" xmlns:sketch="http://www.bohemiancoding.com/sketch/ns">
    <!-- Generator: Sketch 3.4.2 (15855) - http://www.bohemiancoding.com/sketch -->
    <title>noteicon-code-html</title>
    <desc>Created with Sketch.</desc>
    <defs></defs>
    <g id="Symbols" stroke="none" stroke-width="1" fill="none" fill-rule="evenodd" sketch:type="MSPage">
        <g sketch:type="MSArtboardGroup" transform="translate(-132.000000, -470.000000)" id="Group">
            <g sketch:type="MSLayerGroup" transform="translate(24.000000, 24.000000)">
                <g id="noteicon-code-html" transform="translate(96.000000, 432.000000)">
                    <g id="icon-grid-copy-100"></g>
                    <path d="M34,14 L14,14 C12.897,14 12,14.938 12,16.089 L12,30.911 C12,32.062 12.897,33 14,33 L23,33 L23,34 L17,34 C16.724,34 16.5,34.224 16.5,34.5 C16.5,34.776 16.724,35 17,35 L31,35 C31.276,35 31.5,34.776 31.5,34.5 C31.5,34.224 31.276,34 31,34 L24,34 L24,33 L34,33 C35.103,33 36,32.062 36,30.911 L36,16.089 C36,14.938 35.103,14 34,14 L34,14 Z M14,15 L34,15 C34.552,15 35,15.488 35,16.089 L35,28 L13,28 L13,16.089 C13,15.488 13.448,15 14,15 L14,15 Z M34,32 L14,32 C13.448,32 13,31.512 13,30.911 L13,29 L35,29 L35,30.911 C35,31.512 34.552,32 34,32 L34,32 Z M25,30.5 C25,31.052 24.552,31.5 24,31.5 C23.448,31.5 23,31.052 23,30.5 C23,29.948 23.448,29.5 24,29.5 C24.552,29.5 25,29.948 25,30.5 L25,30.5 Z M15.487,24.494 C15.763,24.494 15.987,24.27 15.987,23.994 L15.987,21.994 L17.378,21.994 L17.378,23.994 C17.378,24.27 17.602,24.494 17.878,24.494 C18.154,24.494 18.378,24.27 18.378,23.994 L18.378,18.994 C18.378,18.718 18.154,18.494 17.878,18.494 C17.602,18.494 17.378,18.718 17.378,18.994 L17.378,20.994 L15.987,20.994 L15.987,18.994 C15.987,18.718 15.763,18.494 15.487,18.494 C15.211,18.494 14.987,18.718 14.987,18.994 L14.987,23.994 C14.987,24.271 15.211,24.494 15.487,24.494 L15.487,24.494 Z M20.1,19.494 L20.797,19.494 L20.797,23.994 C20.797,24.27 21.021,24.494 21.297,24.494 C21.573,24.494 21.797,24.27 21.797,23.994 L21.797,19.494 L22.491,19.494 C22.767,19.494 22.991,19.27 22.991,18.994 C22.991,18.718 22.767,18.494 22.491,18.494 L20.1,18.494 C19.824,18.494 19.6,18.718 19.6,18.994 C19.6,19.27 19.823,19.494 20.1,19.494 L20.1,19.494 Z M24.671,24.494 C24.947,24.494 25.171,24.27 25.171,23.994 L25.171,20.71 L25.841,21.763 C25.933,21.908 26.092,21.994 26.263,21.994 C26.434,21.994 26.593,21.907 26.685,21.763 L27.356,20.709 L27.356,23.994 C27.356,24.27 27.58,24.494 27.856,24.494 C28.132,24.494 28.356,24.27 28.356,23.994 L28.356,18.994 C28.356,18.771 28.21,18.576 27.996,18.514 C27.785,18.453 27.554,18.538 27.434,18.726 L26.263,20.564 L25.093,18.726 C24.973,18.538 24.74,18.454 24.531,18.514 C24.317,18.576 24.171,18.772 24.171,18.994 L24.171,23.994 C24.171,24.271 24.395,24.494 24.671,24.494 L24.671,24.494 Z M30.122,24.494 L32.513,24.494 C32.789,24.494 33.013,24.27 33.013,23.994 C33.013,23.718 32.789,23.494 32.513,23.494 L30.622,23.494 L30.622,18.994 C30.622,18.718 30.398,18.494 30.122,18.494 C29.846,18.494 29.622,18.718 29.622,18.994 L29.622,23.994 C29.622,24.271 29.846,24.494 30.122,24.494 L30.122,24.494 Z" id="Shape" fill="#FF4081" sketch:type="MSShapeGroup"></path>
                </g>
            </g>
        </g>
    </g>
</svg>