<?xml version="1.0" encoding="UTF-8" standalone="no"?>
<svg width="24px" height="24px" viewBox="0 0 24 24" version="1.1" xmlns="http://www.w3.org/2000/svg" xmlns:xlink="http://www.w3.org/1999/xlink" xmlns:sketch="http://www.bohemiancoding.com/sketch/ns">
    <!-- Generator: Sketch 3.4.2 (15855) - http://www.bohemiancoding.com/sketch -->
    <title>noteicon-circle-hot</title>
    <desc>Created with Sketch.</desc>
    <defs></defs>
    <g id="Symbols" stroke="none" stroke-width="1" fill="none" fill-rule="evenodd" sketch:type="MSPage">
        <g sketch:type="MSArtboardGroup" transform="translate(-36.000000, -612.000000)" id="Group">
            <g sketch:type="MSLayerGroup" transform="translate(24.000000, 24.000000)">
                <g id="noteicon-circle-hot" transform="translate(0.000000, 576.000000)">
                    <g id="icon-grid-copy-91"></g>
                    <path d="M24,12 C17.383,12 12,17.383 12,24 C12,30.617 17.383,36 24,36 C30.617,36 36,30.617 36,24 C36,17.383 30.617,12 24,12 L24,12 Z M24,35 C17.935,35 13,30.065 13,24 C13,17.935 17.935,13 24,13 C30.065,13 35,17.935 35,24 C35,30.065 30.065,35 24,35 L24,35 Z M20.5,21 C20.224,21 20,21.224 20,21.5 L20,23 L18,23 L18,21.5 C18,21.224 17.776,21 17.5,21 C17.224,21 17,21.224 17,21.5 L17,26.5 C17,26.776 17.224,27 17.5,27 C17.776,27 18,26.776 18,26.5 L18,24 L20,24 L20,26.5 C20,26.776 20.224,27 20.5,27 C20.776,27 21,26.776 21,26.5 L21,21.5 C21,21.224 20.776,21 20.5,21 L20.5,21 Z M31.5,21 L27.5,21 C27.224,21 27,21.224 27,21.5 C27,21.776 27.224,22 27.5,22 L29,22 L29,26.5 C29,26.776 29.224,27 29.5,27 C29.776,27 30,26.776 30,26.5 L30,22 L31.5,22 C31.776,22 32,21.776 32,21.5 C32,21.224 31.776,21 31.5,21 L31.5,21 Z M25.5,21 L22.5,21 C22.224,21 22,21.224 22,21.5 L22,26.5 C22,26.776 22.224,27 22.5,27 L25.5,27 C25.776,27 26,26.776 26,26.5 L26,21.5 C26,21.224 25.776,21 25.5,21 L25.5,21 Z M25,26 L23,26 L23,22 L25,22 L25,26 L25,26 Z" id="Shape" fill="#FF4081" sketch:type="MSShapeGroup"></path>
                </g>
            </g>
        </g>
    </g>
</svg>