<?xml version="1.0" encoding="UTF-8" standalone="no"?>
<svg width="24px" height="24px" viewBox="0 0 24 24" version="1.1" xmlns="http://www.w3.org/2000/svg" xmlns:xlink="http://www.w3.org/1999/xlink" xmlns:sketch="http://www.bohemiancoding.com/sketch/ns">
    <!-- Generator: Sketch 3.4.2 (15855) - http://www.bohemiancoding.com/sketch -->
    <title>noteicon-down</title>
    <desc>Created with Sketch.</desc>
    <defs></defs>
    <g id="Symbols" stroke="none" stroke-width="1" fill="none" fill-rule="evenodd" sketch:type="MSPage">
        <g sketch:type="MSArtboardGroup" transform="translate(-324.000000, -372.000000)" id="Group">
            <g sketch:type="MSLayerGroup" transform="translate(24.000000, 24.000000)">
                <g id="noteicon-down" transform="translate(288.000000, 336.000000)">
                    <g id="icon-grid-copy-110"></g>
                    <path d="M24,36 C17.378,36 12,30.622 12,24 C12,17.378 17.378,12 24,12 C30.622,12 36,17.378 36,24 C36,30.622 30.622,36 24,36 L24,36 Z M24,12.889 C17.867,12.889 12.889,17.867 12.889,24 C12.889,30.133 17.867,35.111 24,35.111 C30.133,35.111 35.111,30.133 35.111,24 C35.111,17.867 30.133,12.889 24,12.889 L24,12.889 Z M24,30 C23.733,30 23.556,29.822 23.556,29.556 L23.556,18 C23.556,17.733 23.734,17.556 24,17.556 C24.266,17.556 24.444,17.734 24.444,18 L24.444,29.556 C24.444,29.823 24.266,30 24,30 L24,30 Z M24,30.622 L19.244,25.866 L19.866,25.244 L23.999,29.377 L28.132,25.244 L28.754,25.866 L24,30.622 Z" id="Shape" fill="#FF4081" sketch:type="MSShapeGroup"></path>
                </g>
            </g>
        </g>
    </g>
</svg>