<?xml version="1.0" encoding="UTF-8" standalone="no"?>
<svg width="24px" height="21px" viewBox="0 0 24 21" version="1.1" xmlns="http://www.w3.org/2000/svg" xmlns:xlink="http://www.w3.org/1999/xlink" xmlns:sketch="http://www.bohemiancoding.com/sketch/ns">
    <!-- Generator: Sketch 3.4.2 (15855) - http://www.bohemiancoding.com/sketch -->
    <title>noteicon-code-css-solid</title>
    <desc>Created with Sketch.</desc>
    <defs></defs>
    <g id="Symbols" stroke="none" stroke-width="1" fill="none" fill-rule="evenodd" sketch:type="MSPage">
        <g sketch:type="MSArtboardGroup" transform="translate(-180.000000, -470.000000)" id="Group">
            <g sketch:type="MSLayerGroup" transform="translate(24.000000, 24.000000)">
                <g id="noteicon-code-css-solid" transform="translate(144.000000, 432.000000)">
                    <g id="icon-grid-copy-182"></g>
                    <path d="M12,29 L12,30.911 C12,32.062 12.897,33 14,33 L23,33 L23,34 L17,34 C16.724,34 16.5,34.224 16.5,34.5 C16.5,34.776 16.724,35 17,35 L31,35 C31.276,35 31.5,34.776 31.5,34.5 C31.5,34.224 31.276,34 31,34 L24,34 L24,33 L34,33 C35.103,33 36,32.062 36,30.911 L36,29 L12,29 L12,29 Z M24,32 C23.448,32 23,31.551 23,31 C23,30.449 23.448,30 24,30 C24.552,30 25,30.449 25,31 C25,31.551 24.552,32 24,32 L24,32 Z M34,14 L14,14 C12.897,14 12,14.937 12,16.089 L12,28 L36,28 L36,16.089 C36,14.937 35.103,14 34,14 L34,14 Z M19.536,23.701 C19.84,23.701 20.178,23.636 20.344,22.855 C20.403,22.585 20.672,22.412 20.938,22.471 C21.207,22.529 21.38,22.794 21.323,23.064 C21.034,24.418 20.192,24.701 19.537,24.701 C17.627,24.701 17.627,22.494 17.627,21.551 C17.627,20.609 17.627,18.401 19.537,18.401 C20.192,18.401 21.035,18.686 21.323,20.041 C21.38,20.31 21.207,20.575 20.938,20.633 C20.672,20.689 20.401,20.519 20.344,20.248 C20.178,19.467 19.84,19.4 19.536,19.4 C19.075,19.4 18.626,19.566 18.626,21.55 C18.626,23.534 19.075,23.701 19.536,23.701 L19.536,23.701 Z M24.17,24.701 C23.252,24.701 22.488,23.949 22.432,22.99 C22.415,22.715 22.625,22.477 22.902,22.462 C23.179,22.455 23.415,22.655 23.43,22.931 C23.455,23.364 23.781,23.701 24.17,23.701 C24.579,23.701 24.911,23.331 24.911,22.877 C24.911,22.367 24.589,22.179 24.105,22.051 L23.986,22.019 C22.7,21.686 22.43,20.86 22.43,20.227 C22.43,19.22 23.211,18.401 24.171,18.401 C25.089,18.401 25.853,19.153 25.909,20.113 C25.926,20.388 25.716,20.626 25.439,20.641 C25.167,20.657 24.927,20.448 24.911,20.172 C24.887,19.739 24.561,19.4 24.172,19.4 C23.763,19.4 23.431,19.77 23.431,20.226 C23.431,20.736 23.754,20.925 24.239,21.05 L24.36,21.083 C25.642,21.419 25.912,22.243 25.912,22.876 C25.911,23.883 25.13,24.701 24.17,24.701 L24.17,24.701 Z M28.634,24.701 C27.716,24.701 26.952,23.949 26.896,22.99 C26.879,22.715 27.089,22.477 27.366,22.462 C27.635,22.455 27.878,22.655 27.894,22.931 C27.919,23.364 28.245,23.701 28.634,23.701 C29.043,23.701 29.375,23.331 29.375,22.877 C29.375,22.367 29.053,22.179 28.569,22.051 L28.45,22.019 C27.164,21.686 26.894,20.86 26.894,20.227 C26.894,19.22 27.675,18.401 28.635,18.401 C29.553,18.401 30.317,19.153 30.373,20.113 C30.39,20.388 30.18,20.626 29.903,20.641 C29.634,20.657 29.391,20.448 29.375,20.172 C29.351,19.739 29.025,19.4 28.636,19.4 C28.227,19.4 27.895,19.77 27.895,20.226 C27.895,20.736 28.218,20.925 28.703,21.05 L28.824,21.083 C30.106,21.419 30.376,22.243 30.376,22.876 C30.375,23.883 29.594,24.701 28.634,24.701 L28.634,24.701 Z" id="Shape" fill="#FF4081" sketch:type="MSShapeGroup"></path>
                </g>
            </g>
        </g>
    </g>
</svg>