<?xml version="1.0" encoding="UTF-8" standalone="no"?>
<svg width="24px" height="23px" viewBox="0 0 24 23" version="1.1" xmlns="http://www.w3.org/2000/svg" xmlns:xlink="http://www.w3.org/1999/xlink" xmlns:sketch="http://www.bohemiancoding.com/sketch/ns">
    <!-- Generator: Sketch 3.4.2 (15855) - http://www.bohemiancoding.com/sketch -->
    <title>noteicon-star-solid</title>
    <desc>Created with Sketch.</desc>
    <defs></defs>
    <g id="Symbols" stroke="none" stroke-width="1" fill="none" fill-rule="evenodd" sketch:type="MSPage">
        <g sketch:type="MSArtboardGroup" transform="translate(-132.000000, -37.000000)" id="Group">
            <g sketch:type="MSLayerGroup" transform="translate(24.000000, 24.000000)">
                <g id="noteicon-star-solid" transform="translate(96.000000, 0.000000)">
                    <g id="icon-grid-copy-156"></g>
                    <path d="M35.4582857,23.416 C35.9382857,22.936 36.0822857,22.264 35.8902857,21.64 C35.6982857,21.016 35.1702857,20.584 34.4982857,20.488 L28.6902857,19.624 C28.4502857,19.576 28.2102857,19.432 28.1142857,19.192 L25.5222857,13.96 C25.2342857,13.384 24.6582857,13 23.9862857,13 C23.3142857,13 22.7382857,13.384 22.4502857,13.96 L19.8582857,19.24 C19.7622857,19.48 19.5222857,19.624 19.2822857,19.672 L13.4742857,20.488 C12.8022857,20.584 12.2742857,21.016 12.0822857,21.64 C11.8902857,22.264 12.0342857,22.936 12.5142857,23.416 L16.6902857,27.496 C16.8822857,27.688 16.9302857,27.928 16.9302857,28.168 L15.9222857,33.928 C15.8262857,34.456 15.9702857,34.936 16.3062857,35.368 C16.8342857,35.992 17.6982857,36.184 18.4182857,35.8 L23.6022857,33.064 C23.8422857,32.968 24.0822857,32.968 24.3222857,33.064 L29.5062857,35.8 C29.7462857,35.944 30.0342857,35.992 30.3222857,35.992 C30.8502857,35.992 31.3302857,35.752 31.6182857,35.368 C31.9542857,34.984 32.0982857,34.504 32.0022857,33.976 L30.9942857,28.216 C30.9462857,27.976 31.0422857,27.736 31.2342857,27.544 L35.4582857,23.416 L35.4582857,23.416 Z" id="Shape" fill="#FF4081" sketch:type="MSShapeGroup"></path>
                </g>
            </g>
        </g>
    </g>
</svg>