<?xml version="1.0" encoding="UTF-8" standalone="no"?>
<svg width="24px" height="10px" viewBox="0 0 24 10" version="1.1" xmlns="http://www.w3.org/2000/svg" xmlns:xlink="http://www.w3.org/1999/xlink" xmlns:sketch="http://www.bohemiancoding.com/sketch/ns">
    <!-- Generator: Sketch 3.4.2 (15855) - http://www.bohemiancoding.com/sketch -->
    <title>noteicon-social-flickr-solid</title>
    <desc>Created with Sketch.</desc>
    <defs></defs>
    <g id="Symbols" stroke="none" stroke-width="1" fill="none" fill-rule="evenodd" sketch:type="MSPage">
        <g sketch:type="MSArtboardGroup" transform="translate(-36.000000, -139.000000)" id="Group">
            <g sketch:type="MSLayerGroup" transform="translate(24.000000, 24.000000)">
                <g id="noteicon-social-flickr-solid" transform="translate(0.000000, 96.000000)">
                    <g id="icon-grid-copy-153"></g>
                    <path d="M35.5,24 C35.5,26.761 33.261,29 30.5,29 C27.739,29 25.5,26.761 25.5,24 C25.5,21.239 27.739,19 30.5,19 C33.261,19 35.5,21.239 35.5,24 Z M22.5,24 C22.5,26.761 20.261,29 17.5,29 C14.739,29 12.5,26.761 12.5,24 C12.5,21.239 14.739,19 17.5,19 C20.261,19 22.5,21.239 22.5,24 Z" id="Shape" fill="#FF4081" sketch:type="MSShapeGroup"></path>
                </g>
            </g>
        </g>
    </g>
</svg>