<?xml version="1.0" encoding="UTF-8" standalone="no"?>
<svg width="24px" height="24px" viewBox="0 0 24 24" version="1.1" xmlns="http://www.w3.org/2000/svg" xmlns:xlink="http://www.w3.org/1999/xlink" xmlns:sketch="http://www.bohemiancoding.com/sketch/ns">
    <!-- Generator: Sketch 3.4.2 (15855) - http://www.bohemiancoding.com/sketch -->
    <title>noteicon-ps</title>
    <desc>Created with Sketch.</desc>
    <defs></defs>
    <g id="Symbols" stroke="none" stroke-width="1" fill="none" fill-rule="evenodd" sketch:type="MSPage">
        <g sketch:type="MSArtboardGroup" transform="translate(-132.000000, -228.000000)" id="Group">
            <g sketch:type="MSLayerGroup" transform="translate(24.000000, 24.000000)">
                <g id="noteicon-ps" transform="translate(96.000000, 192.000000)">
                    <g id="icon-grid-copy-126"></g>
                    <path d="M30.578,12 L17.422,12 C14.444,12 12,14.444 12,17.422 L12,30.578 C12,33.556 14.444,36 17.422,36 L30.578,36 C33.556,36 36,33.556 36,30.578 L36,17.422 C36,14.444 33.556,12 30.578,12 L30.578,12 Z M35.111,30.578 C35.111,33.067 33.067,35.111 30.578,35.111 L17.422,35.111 C14.933,35.111 12.889,33.067 12.889,30.578 L12.889,17.422 C12.889,14.933 14.933,12.889 17.422,12.889 L30.578,12.889 C33.067,12.889 35.111,14.933 35.111,17.422 L35.111,30.578 L35.111,30.578 Z M20.844,17.333 L16.577,17.333 L16.577,29.777 L17.866,29.777 L17.866,25.688 L20.977,25.688 C21.599,25.688 22.088,25.599 22.533,25.377 C22.978,25.155 23.289,24.888 23.511,24.621 C23.733,24.31 23.911,23.954 24,23.51 C24.133,23.066 24.178,22.666 24.222,22.354 C24.266,22.042 24.266,21.687 24.266,21.287 C24.266,20.131 23.999,19.154 23.422,18.443 C22.889,17.687 22,17.332 20.844,17.332 L20.844,17.333 Z M22.978,22.044 C22.978,22.222 22.934,22.488 22.845,22.844 C22.756,23.2 22.667,23.466 22.534,23.644 C22.401,23.822 22.178,24 21.867,24.177 C21.556,24.354 21.2,24.444 20.8,24.444 L17.822,24.444 L17.822,18.577 L20.711,18.577 C22.222,18.577 22.978,19.466 22.978,21.288 C23.022,21.599 23.022,21.866 22.978,22.044 L22.978,22.044 Z M30.311,25.067 L28.889,24.534 C28.4,24.401 28,24.178 27.6,23.956 C27.2,23.734 27.022,23.423 27.022,23.023 C27.022,22.667 27.155,22.356 27.466,22.134 C27.777,21.912 28.222,21.778 28.844,21.778 C29.466,21.778 29.955,21.911 30.355,22.222 L30.755,21.111 L30.533,20.978 C30.4,20.889 30.133,20.8 29.822,20.711 C29.511,20.622 29.155,20.578 28.755,20.578 C27.688,20.578 26.888,20.845 26.399,21.334 C25.91,21.823 25.688,22.401 25.688,23.023 C25.688,23.645 25.91,24.134 26.355,24.534 C26.711,24.89 27.111,25.156 27.599,25.334 C28.087,25.512 28.532,25.645 28.977,25.823 C29.421,25.956 29.821,26.179 30.133,26.445 C30.445,26.711 30.622,27.023 30.622,27.467 C30.622,27.911 30.444,28.223 30.044,28.445 C29.688,28.667 29.244,28.801 28.711,28.801 C28.178,28.801 27.733,28.668 27.378,28.445 C26.978,28.223 26.756,27.867 26.711,27.423 L25.467,27.467 C25.511,28.178 25.778,28.756 26.356,29.245 C26.934,29.734 27.734,29.956 28.756,29.956 C29.778,29.956 30.578,29.689 31.112,29.2 C31.646,28.711 31.912,28.133 31.912,27.467 C31.912,26.801 31.734,26.267 31.423,25.867 C31.112,25.467 30.801,25.289 30.312,25.067 L30.311,25.067 Z" id="Shape" fill="#FF4081" sketch:type="MSShapeGroup"></path>
                </g>
            </g>
        </g>
    </g>
</svg>