<?xml version="1.0" encoding="UTF-8" standalone="no"?>
<svg width="24px" height="24px" viewBox="0 0 24 24" version="1.1" xmlns="http://www.w3.org/2000/svg" xmlns:xlink="http://www.w3.org/1999/xlink" xmlns:sketch="http://www.bohemiancoding.com/sketch/ns">
    <!-- Generator: Sketch 3.4.2 (15855) - http://www.bohemiancoding.com/sketch -->
    <title>noteicon-menu-solid</title>
    <desc>Created with Sketch.</desc>
    <defs></defs>
    <g id="Symbols" stroke="none" stroke-width="1" fill="none" fill-rule="evenodd" sketch:type="MSPage">
        <g sketch:type="MSArtboardGroup" transform="translate(-276.000000, -276.000000)" id="Group">
            <g sketch:type="MSLayerGroup" transform="translate(24.000000, 24.000000)">
                <g id="noteicon-menu-solid" transform="translate(240.000000, 240.000000)">
                    <g id="icon-grid-copy-122"></g>
                    <path d="M24,12 C17.4,12 12,17.4 12,24 C12,30.6 17.4,36 24,36 C30.6,36 36,30.6 36,24 C36,17.4 30.6,12 24,12 L24,12 Z M29.143,29.571 L18.857,29.571 C18.386,29.571 18,29.185 18,28.714 C18,28.243 18.386,27.857 18.857,27.857 L29.143,27.857 C29.614,27.857 30,28.243 30,28.714 C30,29.185 29.614,29.571 29.143,29.571 L29.143,29.571 Z M29.143,24.857 L18.857,24.857 C18.386,24.857 18,24.471 18,24 C18,23.529 18.386,23.143 18.857,23.143 L29.143,23.143 C29.614,23.143 30,23.529 30,24 C30,24.471 29.614,24.857 29.143,24.857 L29.143,24.857 Z M29.143,20.143 L18.857,20.143 C18.386,20.143 18,19.757 18,19.286 C18,18.815 18.386,18.429 18.857,18.429 L29.143,18.429 C29.614,18.429 30,18.815 30,19.286 C30,19.757 29.614,20.143 29.143,20.143 L29.143,20.143 Z" id="Shape" fill="#FF4081" sketch:type="MSShapeGroup"></path>
                </g>
            </g>
        </g>
    </g>
</svg>