<?xml version="1.0" encoding="UTF-8" standalone="no"?>
<svg width="24px" height="24px" viewBox="0 0 24 24" version="1.1" xmlns="http://www.w3.org/2000/svg" xmlns:xlink="http://www.w3.org/1999/xlink" xmlns:sketch="http://www.bohemiancoding.com/sketch/ns">
    <!-- Generator: Sketch 3.4.2 (15855) - http://www.bohemiancoding.com/sketch -->
    <title>noteicon-circle-flash</title>
    <desc>Created with Sketch.</desc>
    <defs></defs>
    <g id="Symbols" stroke="none" stroke-width="1" fill="none" fill-rule="evenodd" sketch:type="MSPage">
        <g sketch:type="MSArtboardGroup" transform="translate(-324.000000, -612.000000)" id="Group">
            <g sketch:type="MSLayerGroup" transform="translate(24.000000, 24.000000)">
                <g id="noteicon-circle-flash" transform="translate(288.000000, 576.000000)">
                    <g id="icon-grid-copy-85"></g>
                    <path d="M24,12 C17.383,12 12,17.383 12,24 C12,30.617 17.383,36 24,36 C30.617,36 36,30.617 36,24 C36,17.383 30.617,12 24,12 L24,12 Z M24,35 C17.935,35 13,30.065 13,24 C13,17.935 17.935,13 24,13 C30.065,13 35,17.935 35,24 C35,30.065 30.065,35 24,35 L24,35 Z M29.089,21 L25.325,21 L28.575,15.764 C28.671,15.61 28.676,15.416 28.587,15.257 C28.498,15.098 28.332,15 28.15,15 L23.61,15 C23.427,15 23.258,15.1 23.171,15.261 L18.282,24.261 C18.198,24.416 18.201,24.604 18.292,24.755 C18.382,24.907 18.545,25 18.722,25 L21.704,25 L18.844,32.012 C18.752,32.237 18.835,32.494 19.04,32.623 C19.122,32.675 19.215,32.701 19.307,32.701 C19.443,32.701 19.578,32.645 19.676,32.538 L29.458,21.837 C29.592,21.691 29.626,21.479 29.546,21.298 C29.466,21.117 29.287,21 29.089,21 L29.089,21 Z M20.827,29.797 L22.91,24.689 C22.973,24.535 22.955,24.359 22.862,24.221 C22.769,24.083 22.614,24 22.447,24 L19.562,24 L23.907,16 L27.251,16 L24.001,21.236 C23.905,21.39 23.9,21.584 23.989,21.743 C24.078,21.902 24.244,22 24.426,22 L27.955,22 L20.827,29.797 L20.827,29.797 Z" id="Shape" fill="#FF4081" sketch:type="MSShapeGroup"></path>
                </g>
            </g>
        </g>
    </g>
</svg>