<?xml version="1.0" encoding="UTF-8" standalone="no"?>
<svg width="24px" height="24px" viewBox="0 0 24 24" version="1.1" xmlns="http://www.w3.org/2000/svg" xmlns:xlink="http://www.w3.org/1999/xlink" xmlns:sketch="http://www.bohemiancoding.com/sketch/ns">
    <!-- Generator: Sketch 3.4.2 (15855) - http://www.bohemiancoding.com/sketch -->
    <title>noteicon-social-dribble-solid</title>
    <desc>Created with Sketch.</desc>
    <defs></defs>
    <g id="Symbols" stroke="none" stroke-width="1" fill="none" fill-rule="evenodd" sketch:type="MSPage">
        <g sketch:type="MSArtboardGroup" transform="translate(-324.000000, -132.000000)" id="Group">
            <g sketch:type="MSLayerGroup" transform="translate(24.000000, 24.000000)">
                <g id="noteicon-social-dribble-solid" transform="translate(288.000000, 96.000000)">
                    <g id="icon-grid-copy-135"></g>
                    <path d="M25.626,21.504 C26.139,22.469 26.58,23.467 26.96,24.491 C28.501,24.19 30.08,24.032 31.692,24.032 C32.74,24.032 34.328,24.162 35.484,24.303 C35.566,21.437 34.607,18.801 32.895,16.714 C30.714,18.748 28.263,20.368 25.626,21.504 L25.626,21.504 L25.626,21.504 Z M31.692,25.032 C30.196,25.032 28.729,25.177 27.296,25.447 C28.082,27.86 28.5,30.404 28.5,33 C28.5,33.36 28.474,34.007 28.442,34.609 C32.205,33.032 34.946,29.511 35.421,25.303 C34.287,25.162 32.689,25.032 31.692,25.032 L31.692,25.032 L31.692,25.032 Z M12.641,22.292 C13.815,22.423 15.143,22.5 16,22.5 C18.821,22.5 21.584,21.983 24.19,21.004 C22.636,18.384 20.555,16.066 18.06,14.165 C15.196,15.9 13.155,18.843 12.641,22.292 L12.641,22.292 Z M27.42,34.983 C27.459,34.298 27.5,33.421 27.5,33 C27.5,30.475 27.085,28.002 26.311,25.657 C22.31,26.598 18.613,28.611 15.386,31.602 C17.493,33.987 20.566,35.5 24,35.5 C25.191,35.5 26.34,35.319 27.42,34.983 L27.42,34.983 Z M25.977,24.707 C25.611,23.739 25.183,22.795 24.693,21.883 C21.931,22.94 18.998,23.5 16,23.5 C15.095,23.5 13.749,23.419 12.536,23.283 C12.521,23.522 12.5,23.758 12.5,24 C12.5,26.557 13.345,28.911 14.756,30.821 C18.072,27.761 21.868,25.691 25.977,24.707 L25.977,24.707 L25.977,24.707 Z M19.024,13.645 C21.505,15.607 23.574,17.974 25.128,20.631 C27.704,19.535 30.098,17.958 32.225,15.971 C30.137,13.832 27.226,12.5 24,12.5 C22.215,12.5 20.532,12.918 19.024,13.645 L19.024,13.645 L19.024,13.645 Z" id="Shape" fill="#FF4081" sketch:type="MSShapeGroup"></path>
                </g>
            </g>
        </g>
    </g>
</svg>