<?xml version="1.0" encoding="UTF-8" standalone="no"?>
<svg width="24px" height="24px" viewBox="0 0 24 24" version="1.1" xmlns="http://www.w3.org/2000/svg" xmlns:xlink="http://www.w3.org/1999/xlink" xmlns:sketch="http://www.bohemiancoding.com/sketch/ns">
    <!-- Generator: Sketch 3.4.2 (15855) - http://www.bohemiancoding.com/sketch -->
    <title>noteicon-circle-video</title>
    <desc>Created with Sketch.</desc>
    <defs></defs>
    <g id="Symbols" stroke="none" stroke-width="1" fill="none" fill-rule="evenodd" sketch:type="MSPage">
        <g sketch:type="MSArtboardGroup" transform="translate(-228.000000, -516.000000)" id="Group">
            <g sketch:type="MSLayerGroup" transform="translate(24.000000, 24.000000)">
                <g id="noteicon-circle-video" transform="translate(192.000000, 480.000000)">
                    <g id="icon-grid-copy-93"></g>
                    <path d="M30.742,20.062 C30.584,19.973 30.389,19.979 30.235,20.076 L27,22.098 L27,19.5 C27,19.224 26.776,19 26.5,19 L17.5,19 C17.224,19 17,19.224 17,19.5 L17,28.5 C17,28.776 17.224,29 17.5,29 L26.5,29 C26.776,29 27,28.776 27,28.5 L27,25.902 L30.235,27.923 C30.389,28.02 30.584,28.025 30.742,27.937 C30.901,27.85 31,27.682 31,27.5 L31,20.5 C31,20.318 30.901,20.15 30.742,20.062 L30.742,20.062 Z M30,26.598 L26.765,24.577 C26.61,24.479 26.415,24.474 26.258,24.563 C26.099,24.65 26,24.818 26,25 L26,28 L18,28 L18,20 L26,20 L26,23 C26,23.182 26.099,23.35 26.258,23.438 C26.416,23.526 26.611,23.521 26.765,23.424 L30,21.402 L30,26.598 L30,26.598 Z M24,12 C17.383,12 12,17.383 12,24 C12,30.617 17.383,36 24,36 C30.617,36 36,30.617 36,24 C36,17.383 30.617,12 24,12 L24,12 Z M24,35 C17.935,35 13,30.065 13,24 C13,17.935 17.935,13 24,13 C30.065,13 35,17.935 35,24 C35,30.065 30.065,35 24,35 L24,35 Z" id="Shape" fill="#FF4081" sketch:type="MSShapeGroup"></path>
                </g>
            </g>
        </g>
    </g>
</svg>