<?xml version="1.0" encoding="UTF-8" standalone="no"?>
<svg width="24px" height="7px" viewBox="0 0 24 7" version="1.1" xmlns="http://www.w3.org/2000/svg" xmlns:xlink="http://www.w3.org/1999/xlink" xmlns:sketch="http://www.bohemiancoding.com/sketch/ns">
    <!-- Generator: Sketch 3.4.2 (15855) - http://www.bohemiancoding.com/sketch -->
    <title>noteicon-menu-h-solid</title>
    <desc>Created with Sketch.</desc>
    <defs></defs>
    <g id="Symbols" stroke="none" stroke-width="1" fill="none" fill-rule="evenodd" sketch:type="MSPage">
        <g sketch:type="MSArtboardGroup" transform="translate(-180.000000, -285.000000)" id="Group">
            <g sketch:type="MSLayerGroup" transform="translate(24.000000, 24.000000)">
                <g id="noteicon-menu-h-solid" transform="translate(144.000000, 240.000000)">
                    <g id="icon-grid-copy-168"></g>
                    <path d="M15.2,21 C13.44,21 12,22.44 12,24.2 C12,25.96 13.44,27.4 15.2,27.4 C16.96,27.4 18.4,25.96 18.4,24.2 C18.4,22.44 16.96,21 15.2,21 L15.2,21 Z M32.8,21 C31.04,21 29.6,22.44 29.6,24.2 C29.6,25.96 31.04,27.4 32.8,27.4 C34.56,27.4 36,25.96 36,24.2 C36,22.44 34.56,21 32.8,21 L32.8,21 Z M24,21 C22.24,21 20.8,22.44 20.8,24.2 C20.8,25.96 22.24,27.4 24,27.4 C25.76,27.4 27.2,25.96 27.2,24.2 C27.2,22.44 25.76,21 24,21 L24,21 Z" id="Shape" fill="#FF4081" sketch:type="MSShapeGroup"></path>
                </g>
            </g>
        </g>
    </g>
</svg>