<?xml version="1.0" encoding="UTF-8" standalone="no"?>
<svg width="24px" height="24px" viewBox="0 0 24 24" version="1.1" xmlns="http://www.w3.org/2000/svg" xmlns:xlink="http://www.w3.org/1999/xlink" xmlns:sketch="http://www.bohemiancoding.com/sketch/ns">
    <!-- Generator: Sketch 3.4.2 (15855) - http://www.bohemiancoding.com/sketch -->
    <title>noteicon-ps-solid</title>
    <desc>Created with Sketch.</desc>
    <defs></defs>
    <g id="Symbols" stroke="none" stroke-width="1" fill="none" fill-rule="evenodd" sketch:type="MSPage">
        <g sketch:type="MSArtboardGroup" transform="translate(-84.000000, -228.000000)" id="Group">
            <g sketch:type="MSLayerGroup" transform="translate(24.000000, 24.000000)">
                <g id="noteicon-ps-solid" transform="translate(48.000000, 192.000000)">
                    <g id="icon-grid-copy-125"></g>
                    <path d="M20.756,18.578 L17.867,18.578 L17.867,24.445 L20.845,24.445 C21.289,24.445 21.645,24.356 21.912,24.178 C22.223,24 22.445,23.822 22.579,23.645 C22.713,23.468 22.801,23.201 22.89,22.845 C22.979,22.489 23.023,22.223 23.023,22.045 L23.023,21.289 C23.023,19.467 22.267,18.578 20.756,18.578 L20.756,18.578 Z M30.578,12 L17.422,12 C14.444,12 12,14.444 12,17.422 L12,30.578 C12,33.556 14.444,36 17.422,36 L30.578,36 C33.556,36 36,33.556 36,30.578 L36,17.422 C36,14.444 33.556,12 30.578,12 L30.578,12 Z M24.267,22.356 C24.223,22.667 24.178,23.023 24.045,23.512 C23.912,23.956 23.734,24.356 23.556,24.623 C23.334,24.934 23.023,25.156 22.578,25.379 C22.133,25.602 21.6,25.69 21.022,25.69 L17.911,25.69 L17.911,29.779 L16.622,29.779 L16.622,17.335 L20.889,17.335 C22.045,17.335 22.933,17.691 23.467,18.402 C24.045,19.113 24.311,20.091 24.311,21.246 C24.267,21.69 24.267,22.046 24.267,22.357 L24.267,22.356 Z M31.2,29.289 C30.667,29.778 29.867,30.045 28.844,30.045 C27.821,30.045 27.022,29.823 26.444,29.334 C25.866,28.845 25.555,28.267 25.555,27.556 L26.799,27.512 C26.843,27.956 27.066,28.312 27.466,28.534 C27.866,28.756 28.31,28.89 28.799,28.89 C29.288,28.89 29.732,28.757 30.132,28.534 C30.488,28.312 30.71,27.956 30.71,27.556 C30.71,27.156 30.532,26.8 30.221,26.534 C29.91,26.267 29.51,26.09 29.065,25.912 C28.621,25.779 28.132,25.601 27.687,25.423 C27.198,25.245 26.798,24.979 26.443,24.623 C25.999,24.223 25.776,23.69 25.776,23.112 C25.776,22.534 25.998,21.956 26.487,21.423 C26.976,20.89 27.731,20.667 28.843,20.667 C29.243,20.667 29.599,20.711 29.91,20.8 C30.221,20.889 30.488,20.978 30.621,21.067 L30.843,21.2 L30.443,22.311 C30.043,22 29.554,21.867 28.932,21.867 C28.31,21.867 27.865,22 27.554,22.223 C27.243,22.445 27.11,22.756 27.11,23.112 C27.11,23.512 27.288,23.823 27.688,24.045 C28.088,24.267 28.488,24.445 28.977,24.623 C29.466,24.756 29.91,24.934 30.399,25.156 C30.888,25.334 31.243,25.645 31.599,26.045 C31.955,26.445 31.999,26.889 31.999,27.556 C31.999,28.223 31.732,28.8 31.199,29.289 L31.2,29.289 Z" id="Shape" fill="#FF4081" sketch:type="MSShapeGroup"></path>
                </g>
            </g>
        </g>
    </g>
</svg>