<?xml version="1.0" encoding="UTF-8" standalone="no"?>
<svg width="24px" height="7px" viewBox="0 0 24 7" version="1.1" xmlns="http://www.w3.org/2000/svg" xmlns:xlink="http://www.w3.org/1999/xlink" xmlns:sketch="http://www.bohemiancoding.com/sketch/ns">
    <!-- Generator: Sketch 3.4.2 (15855) - http://www.bohemiancoding.com/sketch -->
    <title>noteicon-menu-h</title>
    <desc>Created with Sketch.</desc>
    <defs></defs>
    <g id="Symbols" stroke="none" stroke-width="1" fill="none" fill-rule="evenodd" sketch:type="MSPage">
        <g sketch:type="MSArtboardGroup" transform="translate(-228.000000, -285.000000)" id="Group">
            <g sketch:type="MSLayerGroup" transform="translate(24.000000, 24.000000)">
                <g id="noteicon-menu-h" transform="translate(192.000000, 240.000000)">
                    <g id="icon-grid-copy-169"></g>
                    <path d="M15.2,21 C13.44,21 12,22.44 12,24.2 C12,25.96 13.44,27.4 15.2,27.4 C16.96,27.4 18.4,25.96 18.4,24.2 C18.4,22.44 16.96,21 15.2,21 L15.2,21 Z M15.2,26.6 C13.88,26.6 12.8,25.52 12.8,24.2 C12.8,22.88 13.88,21.8 15.2,21.8 C16.52,21.8 17.6,22.88 17.6,24.2 C17.6,25.52 16.52,26.6 15.2,26.6 L15.2,26.6 Z M32.8,21 C31.04,21 29.6,22.44 29.6,24.2 C29.6,25.96 31.04,27.4 32.8,27.4 C34.56,27.4 36,25.96 36,24.2 C36,22.44 34.56,21 32.8,21 L32.8,21 Z M32.8,26.6 C31.48,26.6 30.4,25.52 30.4,24.2 C30.4,22.88 31.48,21.8 32.8,21.8 C34.12,21.8 35.2,22.88 35.2,24.2 C35.2,25.52 34.12,26.6 32.8,26.6 L32.8,26.6 Z M24,21 C22.24,21 20.8,22.44 20.8,24.2 C20.8,25.96 22.24,27.4 24,27.4 C25.76,27.4 27.2,25.96 27.2,24.2 C27.2,22.44 25.76,21 24,21 L24,21 Z M24,26.6 C22.68,26.6 21.6,25.52 21.6,24.2 C21.6,22.88 22.68,21.8 24,21.8 C25.32,21.8 26.4,22.88 26.4,24.2 C26.4,25.52 25.32,26.6 24,26.6 L24,26.6 Z" id="Shape" fill="#FF4081" sketch:type="MSShapeGroup"></path>
                </g>
            </g>
        </g>
    </g>
</svg>