<?xml version="1.0" encoding="UTF-8" standalone="no"?>
<svg width="24px" height="24px" viewBox="0 0 24 24" version="1.1" xmlns="http://www.w3.org/2000/svg" xmlns:xlink="http://www.w3.org/1999/xlink" xmlns:sketch="http://www.bohemiancoding.com/sketch/ns">
    <!-- Generator: Sketch 3.4.2 (15855) - http://www.bohemiancoding.com/sketch -->
    <title>noteicon-css3</title>
    <desc>Created with Sketch.</desc>
    <defs></defs>
    <g id="Symbols" stroke="none" stroke-width="1" fill="none" fill-rule="evenodd" sketch:type="MSPage">
        <g sketch:type="MSArtboardGroup" transform="translate(-132.000000, -420.000000)" id="Group">
            <g sketch:type="MSLayerGroup" transform="translate(24.000000, 24.000000)">
                <g id="noteicon-css3" transform="translate(96.000000, 384.000000)">
                    <g id="icon-grid-copy-107"></g>
                    <path d="M35.879,12.174 C35.784,12.063 35.646,12 35.5,12 L12.5,12 C12.354,12 12.216,12.063 12.121,12.174 C12.026,12.285 11.984,12.43 12.006,12.574 L15.006,32.574 C15.033,32.757 15.159,32.91 15.334,32.971 L23.834,35.971 C23.888,35.99 23.943,36 24,36 C24.057,36 24.112,35.99 24.166,35.972 L32.666,32.972 C32.841,32.91 32.967,32.758 32.994,32.575 L35.994,12.575 C36.016,12.43 35.974,12.284 35.879,12.174 L35.879,12.174 Z M32.05,32.128 L24,34.97 L15.95,32.129 L13.081,13 L34.919,13 L32.05,32.128 L32.05,32.128 Z M18.5,17 L27.695,17 L19.243,22.071 C19.05,22.187 18.958,22.417 19.018,22.633 C19.078,22.85 19.275,23 19.5,23 L27.924,23 L27.051,29.108 L24,29.98 L20.945,29.107 L20.533,26.423 C20.491,26.151 20.243,25.964 19.963,26.005 C19.691,26.047 19.503,26.302 19.545,26.575 L20.006,29.575 C20.035,29.768 20.175,29.926 20.362,29.98 L23.862,30.98 C23.907,30.994 23.954,31 24,31 C24.046,31 24.093,30.994 24.138,30.981 L27.638,29.981 C27.827,29.927 27.967,29.766 27.995,29.571 L28.995,22.571 C29.016,22.427 28.973,22.282 28.878,22.173 C28.783,22.064 28.645,22 28.5,22 L21.305,22 L29.757,16.929 C29.95,16.813 30.042,16.583 29.982,16.367 C29.922,16.15 29.725,16 29.5,16 L18.5,16 C18.224,16 18,16.224 18,16.5 C18,16.776 18.224,17 18.5,17 L18.5,17 Z" id="Shape" fill="#FF4081" sketch:type="MSShapeGroup"></path>
                </g>
            </g>
        </g>
    </g>
</svg>