<?xml version="1.0" encoding="UTF-8" standalone="no"?>
<svg width="24px" height="22px" viewBox="0 0 24 22" version="1.1" xmlns="http://www.w3.org/2000/svg" xmlns:xlink="http://www.w3.org/1999/xlink" xmlns:sketch="http://www.bohemiancoding.com/sketch/ns">
    <!-- Generator: Sketch 3.4.2 (15855) - http://www.bohemiancoding.com/sketch -->
    <title>noteicon-more-solid</title>
    <desc>Created with Sketch.</desc>
    <defs></defs>
    <g id="Symbols" stroke="none" stroke-width="1" fill="none" fill-rule="evenodd" sketch:type="MSPage">
        <g sketch:type="MSArtboardGroup" transform="translate(-276.000000, -229.000000)" id="Group">
            <g sketch:type="MSLayerGroup" transform="translate(24.000000, 24.000000)">
                <g id="noteicon-more-solid" transform="translate(240.000000, 192.000000)">
                    <g id="icon-grid-copy-123"></g>
                    <path d="M35.31025,24.111 C34.95425,24.111 34.64325,23.8 34.64325,23.444 C34.64325,18.422 30.55425,14.333 25.53225,14.333 C21.13225,14.333 17.44325,17.489 16.59925,21.666 L18.37725,19.888 C18.51025,19.755 18.68825,19.71 18.86625,19.71 C19.04425,19.71 19.22225,19.754 19.35525,19.888 C19.62225,20.155 19.62225,20.555 19.35525,20.821 L16.24425,23.932 C16.20025,23.976 16.11125,24.021 16.02225,24.065 L16.02225,24.065 C15.93325,24.109 15.84425,24.109 15.75525,24.109 C15.66625,24.109 15.57725,24.109 15.53325,24.065 L15.53325,24.065 C15.44425,24.021 15.35525,23.976 15.31125,23.932 L12.20025,20.821 C11.93325,20.554 11.93325,20.154 12.20025,19.888 C12.28925,19.71 12.46725,19.666 12.64425,19.666 C12.82125,19.666 13.00025,19.71 13.13325,19.844 L15.22225,21.933 C15.93325,16.911 20.28925,13 25.53325,13 C31.31125,13 35.97725,17.667 35.97725,23.444 C35.97725,23.8 35.66625,24.111 35.31025,24.111 L35.31025,24.111 Z M33.62125,28.556 C33.75425,28.334 33.84325,28.067 33.97725,27.8 C34.06625,27.533 34.33325,27.4 34.59925,27.4 C34.68825,27.4 34.77725,27.4 34.86625,27.444 C35.22225,27.577 35.35525,27.977 35.22225,28.333 C35.08925,28.644 34.95525,28.911 34.82225,29.177 C34.64425,29.488 34.24425,29.621 33.93325,29.444 C33.57725,29.266 33.44425,28.866 33.62225,28.555 L33.62125,28.556 Z M34.95525,27 C34.59925,26.911 34.37725,26.556 34.42225,26.2 C34.46625,25.933 34.51125,25.667 34.55525,25.4 C34.59925,25.044 34.86625,24.822 35.22225,24.822 L35.31125,24.822 C35.66725,24.866 35.93325,25.178 35.88925,25.578 C35.84525,25.889 35.80025,26.2 35.75625,26.511 C35.66725,26.867 35.31225,27.089 34.95625,27 L34.95525,27 Z M32.19925,30.556 C32.37725,30.334 32.55525,30.156 32.73225,29.934 C32.86525,29.756 33.04325,29.667 33.26525,29.667 C33.39825,29.667 33.53225,29.711 33.66525,29.8 C33.97625,30.022 34.02125,30.467 33.79825,30.733 C33.62025,31 33.39825,31.222 33.17625,31.444 C32.90925,31.711 32.50925,31.711 32.24325,31.488 C31.93225,31.266 31.93225,30.821 32.19925,30.555 L32.19925,30.556 Z M30.24425,32.111 C30.46625,31.978 30.68825,31.8 30.91125,31.667 C31.04425,31.578 31.17825,31.534 31.31125,31.534 C31.53325,31.534 31.71125,31.623 31.84425,31.801 C32.06625,32.112 32.02225,32.512 31.71125,32.734 C31.44425,32.912 31.17825,33.09 30.91125,33.267 C30.60025,33.445 30.20025,33.356 29.97825,33.045 C29.84525,32.734 29.93425,32.334 30.24525,32.112 L30.24425,32.111 Z M27.97725,33.089 C28.24425,33 28.51025,32.911 28.77725,32.822 C28.86625,32.778 28.95525,32.778 28.99925,32.778 C29.26625,32.778 29.53225,32.956 29.62125,33.222 C29.75425,33.578 29.57725,33.933 29.22125,34.066 C28.91025,34.199 28.64325,34.288 28.33225,34.377 C27.97625,34.466 27.62125,34.288 27.53225,33.933 C27.44325,33.578 27.62125,33.222 27.97625,33.089 L27.97725,33.089 Z M25.53325,33.445 C25.80025,33.445 26.06625,33.445 26.37725,33.401 L26.42125,33.401 C26.77725,33.401 27.04325,33.668 27.08825,34.023 C27.13325,34.378 26.86625,34.734 26.46625,34.734 C26.15525,34.778 25.84425,34.778 25.53325,34.778 C25.17725,34.778 24.86625,34.467 24.86625,34.111 C24.86625,33.755 25.17725,33.444 25.53325,33.444 L25.53325,33.445 Z" id="Shape" fill="#FF4081" sketch:type="MSShapeGroup"></path>
                </g>
            </g>
        </g>
    </g>
</svg>