<?xml version="1.0" encoding="UTF-8" standalone="no"?>
<svg width="24px" height="24px" viewBox="0 0 24 24" version="1.1" xmlns="http://www.w3.org/2000/svg" xmlns:xlink="http://www.w3.org/1999/xlink" xmlns:sketch="http://www.bohemiancoding.com/sketch/ns">
    <!-- Generator: Sketch 3.4.2 (15855) - http://www.bohemiancoding.com/sketch -->
    <title>noteicon-forum</title>
    <desc>Created with Sketch.</desc>
    <defs></defs>
    <g id="Symbols" stroke="none" stroke-width="1" fill="none" fill-rule="evenodd" sketch:type="MSPage">
        <g sketch:type="MSArtboardGroup" transform="translate(-228.000000, -372.000000)" id="Group">
            <g sketch:type="MSLayerGroup" transform="translate(24.000000, 24.000000)">
                <g id="noteicon-forum" transform="translate(192.000000, 336.000000)">
                    <g id="icon-grid-copy"></g>
                    <path d="M15,24 L12.5,24 C12.2238576,24 12,24.2238576 12,24.5 L12,31.5 C12,31.7761424 12.2238576,32 12.5,32 L26,32 L25.6678181,31.8737047 L30.1678181,35.8737047 C30.4902687,36.1603274 31,35.9314244 31,35.5 L31,31.5 L30.5,32 L35.5,32 C35.7761424,32 36,31.7761424 36,31.5 L36,24.5 C36,24.2238576 35.7761424,24 35.5,24 L22.5,24 C22.2238576,24 22,24.2238576 22,24.5 C22,24.7761424 22.2238576,25 22.5,25 L35.5,25 L35,24.5 L35,31.5 L35.5,31 L30.5,31 C30.2238576,31 30,31.2238576 30,31.5 L30,35.5 L30.8321819,35.1262953 L26.3321819,31.1262953 C26.2406564,31.0449393 26.1224571,31 26,31 L12.5,31 L13,31.5 L13,24.5 L12.5,25 L15,25 C15.2761424,25 15.5,24.7761424 15.5,24.5 C15.5,24.2238576 15.2761424,24 15,24 Z M35.5,20 L22,20 C21.8888121,20 21.7807961,20.0370611 21.6930297,20.1053239 L17.1930297,23.6053239 L18,24 L18,20.5 C18,20.2238576 17.7761424,20 17.5,20 L12.5,20 L13,20.5 L13,12.5 L12.5,13 L35.5,13 L35,12.5 L35,20.5 L35.5,20 Z M35.5,21 C35.7761424,21 36,20.7761424 36,20.5 L36,12.5 C36,12.2238576 35.7761424,12 35.5,12 L12.5,12 C12.2238576,12 12,12.2238576 12,12.5 L12,20.5 C12,20.7761424 12.2238576,21 12.5,21 L17.5,21 L17,20.5 L17,24 C17,24.4160741 17.4785413,24.6501209 17.8069703,24.3946761 L22.3069703,20.8946761 L22,21 L35.5,21 L35.5,21 Z" id="Shape-Copy" fill="#FF4081" sketch:type="MSShapeGroup"></path>
                </g>
            </g>
        </g>
    </g>
</svg>