<?xml version="1.0" encoding="UTF-8" standalone="no"?>
<svg width="24px" height="24px" viewBox="0 0 24 24" version="1.1" xmlns="http://www.w3.org/2000/svg" xmlns:xlink="http://www.w3.org/1999/xlink" xmlns:sketch="http://www.bohemiancoding.com/sketch/ns">
    <!-- Generator: Sketch 3.4.2 (15855) - http://www.bohemiancoding.com/sketch -->
    <title>noteicon-circle-play</title>
    <desc>Created with Sketch.</desc>
    <defs></defs>
    <g id="Symbols" stroke="none" stroke-width="1" fill="none" fill-rule="evenodd" sketch:type="MSPage">
        <g sketch:type="MSArtboardGroup" transform="translate(-132.000000, -564.000000)" id="Group">
            <g sketch:type="MSLayerGroup" transform="translate(24.000000, 24.000000)">
                <g id="noteicon-circle-play" transform="translate(96.000000, 528.000000)">
                    <g id="icon-grid-copy-86"></g>
                    <path d="M30.24,23.68 L21.44,17.68 C21.32,17.6 21.16,17.6 21.04,17.64 C20.88,17.72 20.8,17.84 20.8,18 L20.8,30 C20.8,30.16 20.88,30.28 21,30.36 C21.08,30.4 21.12,30.4 21.2,30.4 C21.28,30.4 21.36,30.36 21.44,30.32 L30.24,24.32 C30.36,24.24 30.4,24.12 30.4,24 C30.4,23.88 30.32,23.76 30.24,23.68 L30.24,23.68 Z M21.6,29.24 L21.6,18.76 L29.28,24 L21.6,29.24 L21.6,29.24 Z M24,12 C17.4,12 12,17.4 12,24 C12,30.6 17.4,36 24,36 C30.6,36 36,30.6 36,24 C36,17.4 30.6,12 24,12 L24,12 Z M24,35.2 C17.84,35.2 12.8,30.16 12.8,24 C12.8,17.84 17.84,12.8 24,12.8 C30.16,12.8 35.2,17.84 35.2,24 C35.2,30.16 30.16,35.2 24,35.2 L24,35.2 Z" id="Shape" fill="#FF4081" sketch:type="MSShapeGroup"></path>
                </g>
            </g>
        </g>
    </g>
</svg>