<?xml version="1.0" encoding="UTF-8" standalone="no"?>
<svg width="24px" height="23px" viewBox="0 0 24 23" version="1.1" xmlns="http://www.w3.org/2000/svg" xmlns:xlink="http://www.w3.org/1999/xlink" xmlns:sketch="http://www.bohemiancoding.com/sketch/ns">
    <!-- Generator: Sketch 3.4.2 (15855) - http://www.bohemiancoding.com/sketch -->
    <title>noteicon-heart-solid</title>
    <desc>Created with Sketch.</desc>
    <defs></defs>
    <g id="Symbols" stroke="none" stroke-width="1" fill="none" fill-rule="evenodd" sketch:type="MSPage">
        <g sketch:type="MSArtboardGroup" transform="translate(-84.000000, -373.000000)" id="Group">
            <g sketch:type="MSLayerGroup" transform="translate(24.000000, 24.000000)">
                <g id="noteicon-heart-solid" transform="translate(48.000000, 336.000000)">
                    <g id="icon-grid-copy-175"></g>
                    <path d="M35.956204,19.646 C35.633204,15.815 32.864204,13 29.448204,13 C27.186204,13 25.110204,14.246 23.910204,16.185 C22.756204,14.2 20.772204,13 18.556204,13 C15.141204,13 12.371204,15.815 12.048204,19.646 C12.002204,19.831 11.910204,20.708 12.233204,22.184 C12.741204,24.307 13.895204,26.199 15.556204,27.722 L23.910204,35.291 L32.402204,27.722 C34.064204,26.199 35.217204,24.307 35.725204,22.184 C36.094204,20.707 36.002204,19.83 35.956204,19.646 L35.956204,19.646 Z" id="Shape" fill="#FF4081" sketch:type="MSShapeGroup"></path>
                </g>
            </g>
        </g>
    </g>
</svg>