<?xml version="1.0" encoding="UTF-8" standalone="no"?>
<svg width="24px" height="24px" viewBox="0 0 24 24" version="1.1" xmlns="http://www.w3.org/2000/svg" xmlns:xlink="http://www.w3.org/1999/xlink" xmlns:sketch="http://www.bohemiancoding.com/sketch/ns">
    <!-- Generator: Sketch 3.4.2 (15855) - http://www.bohemiancoding.com/sketch -->
    <title>noteicon-circle-add-solid</title>
    <desc>Created with Sketch.</desc>
    <defs></defs>
    <g id="Symbols" stroke="none" stroke-width="1" fill="none" fill-rule="evenodd" sketch:type="MSPage">
        <g sketch:type="MSArtboardGroup" transform="translate(-372.000000, -660.000000)" id="Group">
            <g sketch:type="MSLayerGroup" transform="translate(24.000000, 24.000000)">
                <g id="noteicon-circle-add-solid" transform="translate(336.000000, 624.000000)">
                    <g id="icon-grid-copy-75"></g>
                    <path d="M24,12 C17.4,12 12,17.4 12,24 C12,30.6 17.4,36 24,36 C30.6,36 36,30.6 36,24 C36,17.4 30.6,12 24,12 L24,12 Z M29.769,24.923 L24.923,24.923 L24.923,30 C24.923,30.508 24.508,30.923 24,30.923 C23.492,30.923 23.077,30.508 23.077,30 L23.077,24.923 L18.231,24.923 C17.723,24.923 17.308,24.508 17.308,24 C17.308,23.492 17.723,23.077 18.231,23.077 L23.077,23.077 L23.077,18.462 C23.077,17.954 23.492,17.539 24,17.539 C24.508,17.539 24.923,17.954 24.923,18.462 L24.923,23.077 L29.769,23.077 C30.277,23.077 30.692,23.492 30.692,24 C30.692,24.508 30.277,24.923 29.769,24.923 L29.769,24.923 Z" id="Shape" fill="#FF4081" sketch:type="MSShapeGroup"></path>
                </g>
            </g>
        </g>
    </g>
</svg>