<?xml version="1.0" encoding="UTF-8" standalone="no"?>
<svg width="24px" height="24px" viewBox="0 0 24 24" version="1.1" xmlns="http://www.w3.org/2000/svg" xmlns:xlink="http://www.w3.org/1999/xlink" xmlns:sketch="http://www.bohemiancoding.com/sketch/ns">
    <!-- Generator: Sketch 3.4.2 (15855) - http://www.bohemiancoding.com/sketch -->
    <title>noteicon-at-solid</title>
    <desc>Created with Sketch.</desc>
    <defs></defs>
    <g id="Symbols" stroke="none" stroke-width="1" fill="none" fill-rule="evenodd" sketch:type="MSPage">
        <g sketch:type="MSArtboardGroup" transform="translate(-276.000000, -708.000000)" id="Group">
            <g sketch:type="MSLayerGroup" transform="translate(24.000000, 24.000000)">
                <g id="noteicon-at-solid" transform="translate(240.000000, 672.000000)">
                    <g id="icon-grid-copy-66"></g>
                    <path d="M24,12 C17.383,12 12,17.383 12,24 C12,30.617 17.383,36 24,36 C26.447,36 28.792,35.278 30.783,33.912 C31.239,33.599 31.354,32.978 31.041,32.522 C30.729,32.066 30.106,31.951 29.651,32.263 C27.996,33.399 26.042,34 24,34 C18.486,34 14,29.515 14,24 C14,18.486 18.486,14 24,14 C29.514,14 34,18.486 34,24 L34,24.957 C34,26.251 32.947,27.305 31.652,27.305 C30.357,27.305 29.304,26.251 29.304,24.957 L29.304,24 C29.304,21.075 26.925,18.695 24,18.695 C21.075,18.695 18.695,21.075 18.695,24 C18.695,26.925 21.075,29.305 24,29.305 C25.629,29.305 27.088,28.565 28.062,27.405 C28.846,28.551 30.162,29.305 31.652,29.305 C34.049,29.305 36,27.354 36,24.957 L36,24 C36,17.383 30.617,12 24,12 L24,12 Z M24,27.305 C22.178,27.305 20.695,25.823 20.695,24 C20.695,22.177 22.178,20.695 24,20.695 C25.822,20.695 27.304,22.177 27.304,24 C27.304,25.823 25.822,27.305 24,27.305 L24,27.305 Z" id="Shape" fill="#FF4081" sketch:type="MSShapeGroup"></path>
                </g>
            </g>
        </g>
    </g>
</svg>