<?xml version="1.0" encoding="UTF-8" standalone="no"?>
<svg width="24px" height="24px" viewBox="0 0 24 24" version="1.1" xmlns="http://www.w3.org/2000/svg" xmlns:xlink="http://www.w3.org/1999/xlink" xmlns:sketch="http://www.bohemiancoding.com/sketch/ns">
    <!-- Generator: Sketch 3.4.2 (15855) - http://www.bohemiancoding.com/sketch -->
    <title>noteicon-at</title>
    <desc>Created with Sketch.</desc>
    <defs></defs>
    <g id="Symbols" stroke="none" stroke-width="1" fill="none" fill-rule="evenodd" sketch:type="MSPage">
        <g sketch:type="MSArtboardGroup" transform="translate(-324.000000, -708.000000)" id="Group">
            <g sketch:type="MSLayerGroup" transform="translate(24.000000, 24.000000)">
                <g id="noteicon-at" transform="translate(288.000000, 672.000000)">
                    <g id="icon-grid-copy-67"></g>
                    <path d="M24,12 C17.383,12 12,17.383 12,24 C12,30.617 17.383,36 24,36 C26.448,36 28.793,35.278 30.783,33.912 C31.011,33.756 31.069,33.445 30.912,33.217 C30.757,32.988 30.446,32.931 30.217,33.088 C28.395,34.339 26.245,35 24,35 C17.935,35 13,30.066 13,24 C13,17.935 17.935,13 24,13 C30.065,13 35,17.935 35,24 L35,25 C35,26.654 33.654,28 32,28 C30.346,28 29,26.654 29,25 L29,24 C29,21.243 26.757,19 24,19 C21.243,19 19,21.243 19,24 C19,26.757 21.243,29 24,29 C25.839,29 27.432,27.991 28.3,26.508 C28.897,27.967 30.328,29 32,29 C34.206,29 36,27.206 36,25 L36,24 C36,17.383 30.617,12 24,12 L24,12 Z M24,28 C21.794,28 20,26.206 20,24 C20,21.794 21.794,20 24,20 C26.206,20 28,21.794 28,24 C28,26.206 26.206,28 24,28 L24,28 Z" id="Shape" fill="#FF4081" sketch:type="MSShapeGroup"></path>
                </g>
            </g>
        </g>
    </g>
</svg>