<?xml version="1.0" encoding="UTF-8" standalone="no"?>
<svg width="24px" height="24px" viewBox="0 0 24 24" version="1.1" xmlns="http://www.w3.org/2000/svg" xmlns:xlink="http://www.w3.org/1999/xlink" xmlns:sketch="http://www.bohemiancoding.com/sketch/ns">
    <!-- Generator: Sketch 3.4.2 (15855) - http://www.bohemiancoding.com/sketch -->
    <title>noteicon-circle-new</title>
    <desc>Created with Sketch.</desc>
    <defs></defs>
    <g id="Symbols" stroke="none" stroke-width="1" fill="none" fill-rule="evenodd" sketch:type="MSPage">
        <g sketch:type="MSArtboardGroup" transform="translate(-228.000000, -564.000000)" id="Group">
            <g sketch:type="MSLayerGroup" transform="translate(24.000000, 24.000000)">
                <g id="noteicon-circle-new" transform="translate(192.000000, 528.000000)">
                    <g id="icon-grid-copy-185"></g>
                    <path d="M24.007,12 C17.39,12 12.007,17.383 12.007,24 C12.007,30.617 17.39,36 24.007,36 C30.624,36 36.007,30.617 36.007,24 C36.007,17.383 30.624,12 24.007,12 L24.007,12 Z M24.007,35 C17.942,35 13.007,30.065 13.007,24 C13.007,17.935 17.942,13 24.007,13 C30.072,13 35.007,17.935 35.007,24 C35.007,30.065 30.072,35 24.007,35 L24.007,35 Z M19.507,21.5 C19.231,21.5 19.007,21.724 19.007,22 L19.007,24.5 L16.907,21.7 C16.777,21.528 16.553,21.457 16.348,21.526 C16.145,21.594 16.007,21.785 16.007,22 L16.007,26 C16.007,26.276 16.231,26.5 16.507,26.5 C16.783,26.5 17.007,26.276 17.007,26 L17.007,23.5 L19.107,26.3 C19.204,26.428 19.353,26.5 19.507,26.5 C19.56,26.5 19.613,26.492 19.665,26.474 C19.869,26.406 20.007,26.215 20.007,26 L20.007,22 C20.007,21.724 19.783,21.5 19.507,21.5 L19.507,21.5 Z M24.007,25.5 L22.007,25.5 L22.007,24.5 L23.507,24.5 C23.783,24.5 24.007,24.276 24.007,24 C24.007,23.724 23.783,23.5 23.507,23.5 L22.007,23.5 L22.007,22.5 L23.917,22.5 C24.193,22.5 24.417,22.276 24.417,22 C24.417,21.724 24.193,21.5 23.917,21.5 L21.507,21.5 C21.231,21.5 21.007,21.724 21.007,22 L21.007,26 C21.007,26.276 21.231,26.5 21.507,26.5 L24.007,26.5 C24.283,26.5 24.507,26.276 24.507,26 C24.507,25.724 24.283,25.5 24.007,25.5 L24.007,25.5 Z M31.683,21.532 C31.425,21.436 31.136,21.565 31.039,21.824 L30.007,24.576 L28.975,21.824 C28.829,21.434 28.186,21.434 28.039,21.824 L27.007,24.576 L25.975,21.824 C25.877,21.565 25.587,21.436 25.331,21.532 C25.072,21.629 24.941,21.917 25.039,22.176 L26.539,26.176 C26.685,26.566 27.328,26.566 27.475,26.176 L28.507,23.424 L29.539,26.176 C29.612,26.371 29.799,26.5 30.007,26.5 C30.215,26.5 30.402,26.371 30.475,26.176 L31.975,22.176 C32.072,21.917 31.941,21.629 31.683,21.532 L31.683,21.532 Z" id="Shape" fill="#FF4081" sketch:type="MSShapeGroup"></path>
                </g>
            </g>
        </g>
    </g>
</svg>