<?xml version="1.0" encoding="UTF-8" standalone="no"?>
<svg width="24px" height="24px" viewBox="0 0 24 24" version="1.1" xmlns="http://www.w3.org/2000/svg" xmlns:xlink="http://www.w3.org/1999/xlink" xmlns:sketch="http://www.bohemiancoding.com/sketch/ns">
    <!-- Generator: Sketch 3.4.2 (15855) - http://www.bohemiancoding.com/sketch -->
    <title>noteicon-circle-star</title>
    <desc>Created with Sketch.</desc>
    <defs></defs>
    <g id="Symbols" stroke="none" stroke-width="1" fill="none" fill-rule="evenodd" sketch:type="MSPage">
        <g sketch:type="MSArtboardGroup" transform="translate(-324.000000, -516.000000)" id="Group">
            <g sketch:type="MSLayerGroup" transform="translate(24.000000, 24.000000)">
                <g id="noteicon-circle-star" transform="translate(288.000000, 480.000000)">
                    <g id="icon-grid-copy-94"></g>
                    <path d="M31,21 L26.325,21 L24.457,16.797 C24.297,16.436 23.703,16.436 23.543,16.797 L21.675,21 L17,21 C16.798,21 16.615,21.122 16.538,21.309 C16.461,21.496 16.504,21.71 16.646,21.854 L20.441,25.649 L19.017,30.869 C18.96,31.077 19.043,31.297 19.222,31.416 C19.4,31.535 19.636,31.528 19.806,31.395 L24,28.133 L28.193,31.394 C28.283,31.464 28.391,31.499 28.5,31.499 C28.597,31.499 28.693,31.471 28.777,31.415 C28.956,31.296 29.039,31.075 28.982,30.868 L27.558,25.648 L31.353,21.853 C31.496,21.71 31.539,21.495 31.461,21.308 C31.383,21.121 31.202,21 31,21 L31,21 L31,21 Z M24,12 C17.383,12 12,17.383 12,24 C12,30.617 17.383,36 24,36 C30.617,36 36,30.617 36,24 C36,17.383 30.617,12 24,12 L24,12 Z M24,35 C17.935,35 13,30.065 13,24 C13,17.935 17.935,13 24,13 C30.065,13 35,17.935 35,24 C35,30.065 30.065,35 24,35 L24,35 L24,35 Z" id="Shape" fill="#FF4081" sketch:type="MSShapeGroup"></path>
                </g>
            </g>
        </g>
    </g>
</svg>