<?xml version="1.0" encoding="UTF-8" standalone="no"?>
<svg width="24px" height="12px" viewBox="0 0 24 12" version="1.1" xmlns="http://www.w3.org/2000/svg" xmlns:xlink="http://www.w3.org/1999/xlink" xmlns:sketch="http://www.bohemiancoding.com/sketch/ns">
    <!-- Generator: Sketch 3.4.2 (15855) - http://www.bohemiancoding.com/sketch -->
    <title>noteicon-social-flickr</title>
    <desc>Created with Sketch.</desc>
    <defs></defs>
    <g id="Symbols" stroke="none" stroke-width="1" fill="none" fill-rule="evenodd" sketch:type="MSPage">
        <g sketch:type="MSArtboardGroup" transform="translate(-84.000000, -138.000000)" id="Group">
            <g sketch:type="MSLayerGroup" transform="translate(24.000000, 24.000000)">
                <g id="noteicon-social-flickr" transform="translate(48.000000, 96.000000)">
                    <g id="icon-grid-copy-163"></g>
                    <path d="M30.5,18.5 C27.467,18.5 25,20.967 25,24 C25,27.033 27.467,29.5 30.5,29.5 C33.533,29.5 36,27.033 36,24 C36,20.967 33.533,18.5 30.5,18.5 L30.5,18.5 Z M30.5,28.5 C28.019,28.5 26,26.482 26,24 C26,21.519 28.019,19.5 30.5,19.5 C32.981,19.5 35,21.519 35,24 C35,26.482 32.981,28.5 30.5,28.5 L30.5,28.5 Z M17.5,18.5 C14.467,18.5 12,20.967 12,24 C12,27.033 14.467,29.5 17.5,29.5 C20.533,29.5 23,27.033 23,24 C23,20.967 20.533,18.5 17.5,18.5 L17.5,18.5 Z M17.5,28.5 C15.019,28.5 13,26.482 13,24 C13,21.519 15.019,19.5 17.5,19.5 C19.981,19.5 22,21.519 22,24 C22,26.482 19.981,28.5 17.5,28.5 L17.5,28.5 Z" id="Shape" fill="#FF4081" sketch:type="MSShapeGroup"></path>
                </g>
            </g>
        </g>
    </g>
</svg>