<?xml version="1.0" encoding="UTF-8" standalone="no"?>
<svg width="24px" height="24px" viewBox="0 0 24 24" version="1.1" xmlns="http://www.w3.org/2000/svg" xmlns:xlink="http://www.w3.org/1999/xlink" xmlns:sketch="http://www.bohemiancoding.com/sketch/ns">
    <!-- Generator: Sketch 3.4.2 (15855) - http://www.bohemiancoding.com/sketch -->
    <title>noteicon-circle-video-solid</title>
    <desc>Created with Sketch.</desc>
    <defs></defs>
    <g id="Symbols" stroke="none" stroke-width="1" fill="none" fill-rule="evenodd" sketch:type="MSPage">
        <g sketch:type="MSArtboardGroup" transform="translate(-180.000000, -516.000000)" id="Group">
            <g sketch:type="MSLayerGroup" transform="translate(24.000000, 24.000000)">
                <g id="noteicon-circle-video-solid" transform="translate(144.000000, 480.000000)">
                    <g id="icon-grid-copy-92"></g>
                    <path d="M24,12 C17.383,12 12,17.383 12,24 C12,30.617 17.383,36 24,36 C30.617,36 36,30.616 36,24 C36,17.383 30.617,12 24,12 L24,12 Z M31,27.5 C31,27.682 30.901,27.849 30.743,27.937 C30.583,28.025 30.389,28.02 30.235,27.924 L27,25.901 L27,28.499 C27,28.775 26.776,28.999 26.5,28.999 L17.5,28.999 C17.224,28.999 17,28.775 17,28.499 L17,19.499 C17,19.223 17.224,18.999 17.5,18.999 L26.5,18.999 C26.776,18.999 27,19.223 27,19.499 L27,22.098 L30.235,20.076 C30.389,19.979 30.583,19.974 30.743,20.063 C30.901,20.15 31,20.317 31,20.5 L31,27.5 L31,27.5 Z" id="Shape" fill="#FF4081" sketch:type="MSShapeGroup"></path>
                </g>
            </g>
        </g>
    </g>
</svg>