<?xml version="1.0" encoding="UTF-8" standalone="no"?>
<svg width="24px" height="24px" viewBox="0 0 24 24" version="1.1" xmlns="http://www.w3.org/2000/svg" xmlns:xlink="http://www.w3.org/1999/xlink" xmlns:sketch="http://www.bohemiancoding.com/sketch/ns">
    <!-- Generator: Sketch 3.4.2 (15855) - http://www.bohemiancoding.com/sketch -->
    <title>noteicon-circle-error-solid</title>
    <desc>Created with Sketch.</desc>
    <defs></defs>
    <g id="Symbols" stroke="none" stroke-width="1" fill="none" fill-rule="evenodd" sketch:type="MSPage">
        <g sketch:type="MSArtboardGroup" transform="translate(-372.000000, -612.000000)" id="Group">
            <g sketch:type="MSLayerGroup" transform="translate(24.000000, 24.000000)">
                <g id="noteicon-circle-error-solid" transform="translate(336.000000, 576.000000)">
                    <g id="icon-grid-copy-80"></g>
                    <path d="M24,12 C17.4,12 12,17.4 12,24 C12,30.6 17.4,36 24,36 C30.6,36 36,30.6 36,24 C36,17.4 30.6,12 24,12 L24,12 Z M24.923,30.923 C24.923,31.431 24.508,31.846 24,31.846 C23.492,31.846 23.077,31.431 23.077,30.923 L23.077,30 C23.077,29.492 23.492,29.077 24,29.077 C24.508,29.077 24.923,29.492 24.923,30 L24.923,30.923 L24.923,30.923 Z M24.923,27.231 C24.923,27.739 24.508,28.154 24,28.154 C23.492,28.154 23.077,27.739 23.077,27.231 L23.077,17.077 C23.077,16.569 23.492,16.154 24,16.154 C24.508,16.154 24.923,16.569 24.923,17.077 L24.923,27.231 L24.923,27.231 Z" id="Shape" fill="#FF4081" sketch:type="MSShapeGroup"></path>
                </g>
            </g>
        </g>
    </g>
</svg>