<?xml version="1.0" encoding="UTF-8" standalone="no"?>
<svg width="24px" height="21px" viewBox="0 0 24 21" version="1.1" xmlns="http://www.w3.org/2000/svg" xmlns:xlink="http://www.w3.org/1999/xlink" xmlns:sketch="http://www.bohemiancoding.com/sketch/ns">
    <!-- Generator: Sketch 3.4.2 (15855) - http://www.bohemiancoding.com/sketch -->
    <title>noteicon-code-web-solid</title>
    <desc>Created with Sketch.</desc>
    <defs></defs>
    <g id="Symbols" stroke="none" stroke-width="1" fill="none" fill-rule="evenodd" sketch:type="MSPage">
        <g sketch:type="MSArtboardGroup" transform="translate(-372.000000, -422.000000)" id="Group">
            <g sketch:type="MSLayerGroup" transform="translate(24.000000, 24.000000)">
                <g id="noteicon-code-web-solid" transform="translate(336.000000, 384.000000)">
                    <g id="icon-grid-copy-101"></g>
                    <path d="M12,29 L12,30.911 C12,32.062 12.897,33 14,33 L23,33 L23,34 L17,34 C16.724,34 16.5,34.224 16.5,34.5 C16.5,34.776 16.724,35 17,35 L31,35 C31.276,35 31.5,34.776 31.5,34.5 C31.5,34.224 31.276,34 31,34 L24,34 L24,33 L34,33 C35.103,33 36,32.062 36,30.911 L36,29 L12,29 L12,29 Z M24,32 C23.448,32 23,31.551 23,31 C23,30.449 23.448,30 24,30 C24.552,30 25,30.449 25,31 C25,31.551 24.552,32 24,32 L24,32 Z M34,14 L14,14 C12.897,14 12,14.937 12,16.089 L12,28 L36,28 L36,16.089 C36,14.937 35.103,14 34,14 L34,14 Z M20.241,24.32 C20.204,24.549 20.015,24.722 19.785,24.74 C19.772,24.741 19.76,24.742 19.747,24.742 C19.531,24.742 19.337,24.601 19.27,24.393 L18.92,23.296 L18.57,24.393 C18.5,24.614 18.283,24.758 18.055,24.74 C17.825,24.723 17.636,24.549 17.599,24.32 L16.774,19.135 C16.731,18.861 16.917,18.606 17.189,18.562 C17.466,18.515 17.717,18.705 17.762,18.978 L18.257,22.086 L18.444,21.499 C18.577,21.084 19.264,21.084 19.397,21.499 L19.584,22.084 L20.078,18.978 C20.121,18.704 20.38,18.515 20.65,18.562 C20.923,18.606 21.109,18.862 21.066,19.135 L20.241,24.32 L20.241,24.32 Z M25.321,24.32 C25.284,24.549 25.095,24.722 24.865,24.74 C24.852,24.741 24.84,24.742 24.827,24.742 C24.611,24.742 24.417,24.601 24.351,24.393 L24.001,23.296 L23.651,24.393 C23.581,24.614 23.364,24.758 23.136,24.74 C22.906,24.723 22.717,24.549 22.68,24.32 L21.854,19.135 C21.811,18.862 21.997,18.606 22.269,18.562 C22.545,18.515 22.797,18.705 22.842,18.978 L23.337,22.086 L23.523,21.499 C23.656,21.084 24.343,21.084 24.476,21.499 L24.663,22.084 L25.156,18.978 C25.199,18.705 25.458,18.515 25.728,18.562 C26.001,18.605 26.187,18.862 26.144,19.135 L25.321,24.32 L25.321,24.32 Z M30.4,24.32 C30.363,24.549 30.174,24.722 29.944,24.74 C29.931,24.741 29.919,24.742 29.906,24.742 C29.69,24.742 29.496,24.601 29.43,24.393 L29.08,23.296 L28.73,24.393 C28.66,24.614 28.444,24.758 28.215,24.74 C27.985,24.723 27.796,24.549 27.759,24.32 L26.933,19.134 C26.89,18.861 27.076,18.605 27.348,18.561 C27.624,18.514 27.876,18.704 27.921,18.977 L28.416,22.085 L28.603,21.498 C28.736,21.083 29.423,21.083 29.556,21.498 L29.743,22.083 L30.237,18.977 C30.28,18.704 30.538,18.514 30.809,18.561 C31.082,18.605 31.268,18.861 31.225,19.134 L30.4,24.32 L30.4,24.32 Z" id="Shape" fill="#FF4081" sketch:type="MSShapeGroup"></path>
                </g>
            </g>
        </g>
    </g>
</svg>