<?xml version="1.0" encoding="UTF-8" standalone="no"?>
<svg width="24px" height="24px" viewBox="0 0 24 24" version="1.1" xmlns="http://www.w3.org/2000/svg" xmlns:xlink="http://www.w3.org/1999/xlink" xmlns:sketch="http://www.bohemiancoding.com/sketch/ns">
    <!-- Generator: Sketch 3.4.2 (15855) - http://www.bohemiancoding.com/sketch -->
    <title>noteicon-circle-new-solid</title>
    <desc>Created with Sketch.</desc>
    <defs></defs>
    <g id="Symbols" stroke="none" stroke-width="1" fill="none" fill-rule="evenodd" sketch:type="MSPage">
        <g sketch:type="MSArtboardGroup" transform="translate(-180.000000, -564.000000)" id="Group">
            <g sketch:type="MSLayerGroup" transform="translate(24.000000, 24.000000)">
                <g id="noteicon-circle-new-solid" transform="translate(144.000000, 528.000000)">
                    <g id="icon-grid-copy-184"></g>
                    <path d="M24,12 C17.383,12 12,17.385 12,24 C12,30.617 17.383,36 24,36 C30.617,36 36,30.617 36,24 C36,17.385 30.616,12 24,12 L24,12 Z M20,25.5 C20,25.716 19.861,25.907 19.658,25.975 C19.606,25.992 19.553,26 19.5,26 C19.346,26 19.195,25.929 19.1,25.8 L17,23 L17,25.5 C17,25.776 16.775,26 16.5,26 C16.224,26 16,25.776 16,25.5 L16,21.5 C16,21.285 16.137,21.094 16.342,21.026 C16.546,20.957 16.771,21.028 16.899,21.2 L19,24 L19,21.5 C19,21.224 19.224,21 19.5,21 C19.775,21 20,21.224 20,21.5 L20,25.5 L20,25.5 Z M24,26 L21.5,26 C21.224,26 21,25.776 21,25.5 L21,21.5 C21,21.224 21.224,21 21.5,21 L23.91,21 C24.185,21 24.41,21.224 24.41,21.5 C24.41,21.776 24.185,22 23.91,22 L22,22 L22,23 L23.5,23 C23.775,23 24,23.224 24,23.5 C24,23.776 23.775,24 23.5,24 L22,24 L22,25 L24,25 C24.275,25 24.5,25.224 24.5,25.5 C24.5,25.776 24.275,26 24,26 L24,26 Z M31.968,21.677 L30.468,25.677 C30.395,25.871 30.208,26 30,26 C29.792,26 29.604,25.871 29.531,25.677 L28.5,22.924 L27.468,25.676 C27.394,25.871 27.208,26 27,26 C26.792,26 26.604,25.871 26.531,25.677 L25.031,21.677 C24.934,21.417 25.065,21.129 25.324,21.032 C25.583,20.936 25.871,21.066 25.968,21.324 L27,24.076 L28.031,21.324 C28.104,21.13 28.291,21 28.5,21 C28.708,21 28.895,21.13 28.968,21.324 L30,24.076 L31.031,21.324 C31.129,21.066 31.416,20.936 31.676,21.032 C31.934,21.129 32.065,21.417 31.968,21.677 L31.968,21.677 Z" id="Shape" fill="#FF4081" sketch:type="MSShapeGroup"></path>
                </g>
            </g>
        </g>
    </g>
</svg>