<?xml version="1.0" encoding="UTF-8" standalone="no"?>
<svg width="24px" height="24px" viewBox="0 0 24 24" version="1.1" xmlns="http://www.w3.org/2000/svg" xmlns:xlink="http://www.w3.org/1999/xlink" xmlns:sketch="http://www.bohemiancoding.com/sketch/ns">
    <!-- Generator: Sketch 3.4.2 (15855) - http://www.bohemiancoding.com/sketch -->
    <title>noteicon-circle-hot-solid</title>
    <desc>Created with Sketch.</desc>
    <defs></defs>
    <g id="Symbols" stroke="none" stroke-width="1" fill="none" fill-rule="evenodd" sketch:type="MSPage">
        <g sketch:type="MSArtboardGroup" transform="translate(-372.000000, -564.000000)" id="Group">
            <g sketch:type="MSLayerGroup" transform="translate(24.000000, 24.000000)">
                <g id="noteicon-circle-hot-solid" transform="translate(336.000000, 528.000000)">
                    <g id="icon-grid-copy-90"></g>
                    <path d="M24,12 C17.383,12 12,17.383 12,24 C12,30.617 17.383,36 24,36 C30.617,36 36,30.617 36,24 C36,17.383 30.617,12 24,12 L24,12 Z M21,26.5 C21,26.776 20.776,27 20.5,27 C20.224,27 20,26.776 20,26.5 L20,24 L18,24 L18,26.5 C18,26.776 17.776,27 17.5,27 C17.224,27 17,26.776 17,26.5 L17,21.5 C17,21.224 17.224,21 17.5,21 C17.776,21 18,21.224 18,21.5 L18,23 L20,23 L20,21.5 C20,21.224 20.224,21 20.5,21 C20.776,21 21,21.224 21,21.5 L21,26.5 L21,26.5 Z M26,26.5 C26,26.776 25.776,27 25.5,27 L22.5,27 C22.224,27 22,26.776 22,26.5 L22,21.5 C22,21.224 22.224,21 22.5,21 L25.5,21 C25.776,21 26,21.224 26,21.5 L26,26.5 L26,26.5 Z M31.5,22 L30,22 L30,26.5 C30,26.776 29.776,27 29.5,27 C29.224,27 29,26.776 29,26.5 L29,22 L27.5,22 C27.224,22 27,21.776 27,21.5 C27,21.224 27.224,21 27.5,21 L31.5,21 C31.776,21 32,21.224 32,21.5 C32,21.776 31.776,22 31.5,22 L31.5,22 Z M23,22 L25,22 L25,26 L23,26 L23,22 L23,22 Z" id="Shape" fill="#FF4081" sketch:type="MSShapeGroup"></path>
                </g>
            </g>
        </g>
    </g>
</svg>