<?xml version="1.0" encoding="UTF-8" standalone="no"?>
<svg width="24px" height="24px" viewBox="0 0 24 24" version="1.1" xmlns="http://www.w3.org/2000/svg" xmlns:xlink="http://www.w3.org/1999/xlink" xmlns:sketch="http://www.bohemiancoding.com/sketch/ns">
    <!-- Generator: Sketch 3.4.2 (15855) - http://www.bohemiancoding.com/sketch -->
    <title>noteicon-ai</title>
    <desc>Created with Sketch.</desc>
    <defs></defs>
    <g id="Symbols" stroke="none" stroke-width="1" fill="none" fill-rule="evenodd" sketch:type="MSPage">
        <g sketch:type="MSArtboardGroup" transform="translate(-36.000000, -756.000000)" id="Group">
            <g sketch:type="MSLayerGroup" transform="translate(24.000000, 24.000000)">
                <g id="noteicon-ai" transform="translate(0.000000, 720.000000)">
                    <g id="icon-grid-copy-68"></g>
                    <path d="M30.578,12 L17.422,12 C14.444,12 12,14.444 12,17.422 L12,30.578 C12,33.556 14.444,36 17.422,36 L30.578,36 C33.556,36 36,33.556 36,30.578 L36,17.422 C36,14.444 33.556,12 30.578,12 L30.578,12 Z M35.111,30.578 C35.111,33.067 33.067,35.111 30.578,35.111 L17.422,35.111 C14.933,35.111 12.889,33.067 12.889,30.578 L12.889,17.422 C12.889,14.933 14.933,12.889 17.422,12.889 L30.578,12.889 C33.067,12.889 35.111,14.933 35.111,17.422 L35.111,30.578 L35.111,30.578 Z M20.8,17.333 L17.156,29.777 L18.534,29.777 L19.69,25.777 L23.379,25.777 L24.623,29.777 L26.045,29.777 L22.267,17.333 L20.8,17.333 L20.8,17.333 Z M20.044,24.444 L21.555,19.377 L23.111,24.444 L20.044,24.444 L20.044,24.444 Z M27.733,20.889 L29.022,20.889 L29.022,29.778 L27.733,29.778 L27.733,20.889 Z M28.4,17.156 C28.222,17.156 28.044,17.245 27.867,17.378 C27.734,17.511 27.645,17.689 27.645,17.867 C27.645,18.045 27.734,18.223 27.867,18.356 C28,18.489 28.178,18.578 28.4,18.578 C28.578,18.578 28.756,18.489 28.889,18.356 C29.022,18.223 29.111,18.045 29.111,17.823 C29.111,17.601 29.022,17.467 28.889,17.29 C28.756,17.246 28.578,17.157 28.4,17.157 L28.4,17.156 Z" id="Shape" fill="#FF4081" sketch:type="MSShapeGroup"></path>
                </g>
            </g>
        </g>
    </g>
</svg>