<?xml version="1.0" encoding="UTF-8" standalone="no"?>
<svg width="24px" height="24px" viewBox="0 0 24 24" version="1.1" xmlns="http://www.w3.org/2000/svg" xmlns:xlink="http://www.w3.org/1999/xlink" xmlns:sketch="http://www.bohemiancoding.com/sketch/ns">
    <!-- Generator: Sketch 3.4.2 (15855) - http://www.bohemiancoding.com/sketch -->
    <title>noteicon-right-solid</title>
    <desc>Created with Sketch.</desc>
    <defs></defs>
    <g id="Symbols" stroke="none" stroke-width="1" fill="none" fill-rule="evenodd" sketch:type="MSPage">
        <g sketch:type="MSArtboardGroup" transform="translate(-372.000000, -180.000000)" id="Group">
            <g sketch:type="MSLayerGroup" transform="translate(24.000000, 24.000000)">
                <g id="noteicon-right-solid" transform="translate(336.000000, 144.000000)">
                    <g id="icon-grid-copy-132"></g>
                    <path d="M24,12 C17.378,12 12,17.378 12,24 C12,30.622 17.378,36 24,36 C30.622,36 36,30.622 36,24 C36,17.378 30.622,12 24,12 L24,12 Z M25.644,28.756 L25.022,28.134 L28.711,24.445 L17.778,24.445 C17.511,24.445 17.334,24.267 17.334,24.001 C17.334,23.735 17.512,23.557 17.778,23.557 L28.711,23.557 L25.022,19.868 L25.644,19.246 L30.4,24.002 L25.644,28.758 L25.644,28.756 Z" id="Shape" fill="#FF4081" sketch:type="MSShapeGroup"></path>
                </g>
            </g>
        </g>
    </g>
</svg>