<?xml version="1.0" encoding="UTF-8" standalone="no"?>
<svg width="24px" height="24px" viewBox="0 0 24 24" version="1.1" xmlns="http://www.w3.org/2000/svg" xmlns:xlink="http://www.w3.org/1999/xlink" xmlns:sketch="http://www.bohemiancoding.com/sketch/ns">
    <!-- Generator: Sketch 3.4.2 (15855) - http://www.bohemiancoding.com/sketch -->
    <title>noteicon-circle-star-solid</title>
    <desc>Created with Sketch.</desc>
    <defs></defs>
    <g id="Symbols" stroke="none" stroke-width="1" fill="none" fill-rule="evenodd" sketch:type="MSPage">
        <g sketch:type="MSArtboardGroup" transform="translate(-276.000000, -516.000000)" id="Group">
            <g sketch:type="MSLayerGroup" transform="translate(24.000000, 24.000000)">
                <g id="noteicon-circle-star-solid" transform="translate(240.000000, 480.000000)">
                    <g id="icon-grid-copy-95"></g>
                    <path d="M24,12 C17.383,12 12,17.383 12,24 C12,30.617 17.383,36 24,36 C30.616,36 36,30.617 36,24 C36,17.383 30.616,12 24,12 L24,12 Z M31.329,21.876 L27.564,25.17 L28.982,30.368 C29.039,30.576 28.956,30.796 28.777,30.916 C28.692,30.972 28.596,31 28.5,31 C28.391,31 28.282,30.964 28.192,30.895 L24,27.634 L19.807,30.895 C19.637,31.027 19.402,31.036 19.223,30.916 C19.043,30.796 18.961,30.576 19.018,30.368 L20.435,25.17 L16.67,21.876 C16.514,21.739 16.459,21.519 16.531,21.324 C16.606,21.129 16.791,21 17,21 L21.661,21 L23.535,16.314 C23.611,16.124 23.795,16 24,16 C24.204,16 24.388,16.124 24.464,16.314 L26.338,21 L31,21 C31.208,21 31.395,21.129 31.468,21.324 C31.541,21.519 31.485,21.739 31.329,21.876 L31.329,21.876 Z" id="Shape" fill="#FF4081" sketch:type="MSShapeGroup"></path>
                </g>
            </g>
        </g>
    </g>
</svg>