<?xml version="1.0" encoding="UTF-8" standalone="no"?>
<svg width="24px" height="22px" viewBox="0 0 24 22" version="1.1" xmlns="http://www.w3.org/2000/svg" xmlns:xlink="http://www.w3.org/1999/xlink" xmlns:sketch="http://www.bohemiancoding.com/sketch/ns">
    <!-- Generator: Sketch 3.4.2 (15855) - http://www.bohemiancoding.com/sketch -->
    <title>noteicon-social-google-plus-solid</title>
    <desc>Created with Sketch.</desc>
    <defs></defs>
    <g id="Symbols" stroke="none" stroke-width="1" fill="none" fill-rule="evenodd" sketch:type="MSPage">
        <g sketch:type="MSArtboardGroup" transform="translate(-228.000000, -85.000000)" id="Group">
            <g sketch:type="MSLayerGroup" transform="translate(24.000000, 24.000000)">
                <g id="noteicon-social-google-plus-solid" transform="translate(192.000000, 48.000000)">
                    <g id="icon-grid-copy-148"></g>
                    <path d="M23.366,24.928 C22.637,24.412 21.973,23.655 21.962,23.423 C21.962,22.998 22,22.796 22.95,22.055 C24.179,21.093 24.856,19.827 24.856,18.491 C24.856,17.279 24.486,16.202 23.855,15.447 L24.343,15.447 C24.445,15.447 24.543,15.414 24.625,15.356 L25.989,14.367 C26.158,14.246 26.229,14.029 26.165,13.831 C26.102,13.635 25.918,13.5 25.709,13.5 L19.608,13.5 C18.941,13.5 18.263,13.618 17.597,13.847 C15.372,14.613 13.819,16.507 13.819,18.452 C13.819,21.207 15.953,23.297 18.806,23.362 C18.75,23.582 18.722,23.796 18.722,24.007 C18.722,24.432 18.83,24.834 19.052,25.223 L18.973,25.223 C16.253,25.223 13.798,26.557 12.866,28.543 C12.623,29.06 12.5,29.582 12.5,30.098 C12.5,30.599 12.629,31.082 12.882,31.536 C13.467,32.582 14.725,33.397 16.426,33.825 C17.303,34.048 18.246,34.16 19.226,34.16 C20.106,34.16 20.944,34.046 21.72,33.822 C24.139,33.12 25.701,31.34 25.701,29.284 C25.701,27.312 25.068,26.132 23.366,24.928 L23.366,24.928 Z M15.66,29.443 C15.66,28.008 17.483,26.75 19.559,26.75 L19.616,26.75 C20.067,26.755 20.508,26.822 20.925,26.95 C21.067,27.048 21.205,27.142 21.337,27.232 C22.299,27.888 22.934,28.32 23.111,29.015 C23.152,29.19 23.174,29.365 23.174,29.534 C23.174,31.321 21.841,32.227 19.213,32.227 C17.221,32.225 15.66,31.002 15.66,29.443 L15.66,29.443 Z M17.551,15.89 C17.875,15.519 18.301,15.324 18.778,15.324 L18.833,15.324 C20.182,15.365 21.472,16.867 21.709,18.673 C21.842,19.686 21.617,20.637 21.108,21.217 C20.782,21.589 20.363,21.783 19.866,21.783 L19.844,21.783 C18.523,21.743 17.205,20.183 16.969,18.378 C16.836,17.37 17.049,16.462 17.551,15.89 L17.551,15.89 Z M35.5,21.5 L32.5,21.5 L32.5,18.5 L30.5,18.5 L30.5,21.5 L27.5,21.5 L27.5,23.5 L30.5,23.5 L30.5,26.5 L32.5,26.5 L32.5,23.5 L35.5,23.5 L35.5,21.5 Z" id="Shape" fill="#FF4081" sketch:type="MSShapeGroup"></path>
                </g>
            </g>
        </g>
    </g>
</svg>