<?xml version="1.0" encoding="UTF-8" standalone="no"?>
<svg width="24px" height="21px" viewBox="0 0 24 21" version="1.1" xmlns="http://www.w3.org/2000/svg" xmlns:xlink="http://www.w3.org/1999/xlink" xmlns:sketch="http://www.bohemiancoding.com/sketch/ns">
    <!-- Generator: Sketch 3.4.2 (15855) - http://www.bohemiancoding.com/sketch -->
    <title>noteicon-code-web</title>
    <desc>Created with Sketch.</desc>
    <defs></defs>
    <g id="Symbols" stroke="none" stroke-width="1" fill="none" fill-rule="evenodd" sketch:type="MSPage">
        <g sketch:type="MSArtboardGroup" transform="translate(-36.000000, -470.000000)" id="Group">
            <g sketch:type="MSLayerGroup" transform="translate(24.000000, 24.000000)">
                <g id="noteicon-code-web" transform="translate(0.000000, 432.000000)">
                    <g id="icon-grid-copy-102"></g>
                    <path d="M18.057,24.741 C18.285,24.759 18.501,24.615 18.572,24.393 L18.922,23.296 L19.272,24.393 C19.338,24.602 19.533,24.742 19.749,24.742 C19.762,24.742 19.774,24.742 19.787,24.741 C20.017,24.723 20.206,24.55 20.243,24.32 L21.068,19.133 C21.109,18.861 20.924,18.605 20.65,18.562 C20.38,18.52 20.121,18.705 20.078,18.978 L19.584,22.085 L19.397,21.499 C19.264,21.083 18.577,21.083 18.444,21.499 L18.257,22.085 L17.763,18.977 C17.718,18.703 17.467,18.52 17.189,18.562 C16.917,18.606 16.731,18.862 16.774,19.135 L17.6,24.322 C17.638,24.55 17.826,24.724 18.057,24.741 L18.057,24.741 Z M23.137,24.741 C23.365,24.759 23.581,24.615 23.652,24.393 L24.002,23.296 L24.352,24.393 C24.418,24.602 24.613,24.742 24.829,24.742 C24.842,24.742 24.854,24.742 24.867,24.741 C25.097,24.723 25.286,24.55 25.323,24.32 L26.147,19.133 C26.19,18.861 26.004,18.605 25.731,18.561 C25.459,18.52 25.2,18.705 25.157,18.978 L24.664,22.084 L24.477,21.499 C24.344,21.083 23.657,21.083 23.524,21.499 L23.337,22.085 L22.842,18.977 C22.797,18.704 22.545,18.52 22.269,18.562 C21.997,18.606 21.811,18.862 21.854,19.135 L22.68,24.322 C22.718,24.55 22.906,24.724 23.137,24.741 L23.137,24.741 Z M28.216,24.741 C28.445,24.759 28.66,24.615 28.731,24.393 L29.081,23.296 L29.431,24.393 C29.497,24.602 29.692,24.742 29.908,24.742 C29.921,24.742 29.933,24.742 29.946,24.741 C30.176,24.723 30.365,24.55 30.402,24.32 L31.227,19.133 C31.27,18.861 31.084,18.605 30.811,18.561 C30.54,18.519 30.282,18.705 30.239,18.977 L29.745,22.084 L29.558,21.498 C29.425,21.082 28.738,21.082 28.605,21.498 L28.418,22.084 L27.923,18.976 C27.878,18.703 27.626,18.519 27.35,18.561 C27.078,18.605 26.892,18.861 26.935,19.134 L27.761,24.321 C27.797,24.55 27.985,24.724 28.216,24.741 L28.216,24.741 Z M34,14 L14,14 C12.897,14 12,14.938 12,16.089 L12,30.911 C12,32.062 12.897,33 14,33 L23,33 L23,34 L17,34 C16.724,34 16.5,34.224 16.5,34.5 C16.5,34.776 16.724,35 17,35 L31,35 C31.276,35 31.5,34.776 31.5,34.5 C31.5,34.224 31.276,34 31,34 L24,34 L24,33 L34,33 C35.103,33 36,32.062 36,30.911 L36,16.089 C36,14.938 35.103,14 34,14 L34,14 Z M14,15 L34,15 C34.552,15 35,15.488 35,16.089 L35,28 L13,28 L13,16.089 C13,15.488 13.448,15 14,15 L14,15 Z M34,32 L14,32 C13.448,32 13,31.512 13,30.911 L13,29 L35,29 L35,30.911 C35,31.512 34.552,32 34,32 L34,32 Z M25,30.5 C25,31.052 24.552,31.5 24,31.5 C23.448,31.5 23,31.052 23,30.5 C23,29.948 23.448,29.5 24,29.5 C24.552,29.5 25,29.948 25,30.5 L25,30.5 Z" id="Shape" fill="#FF4081" sketch:type="MSShapeGroup"></path>
                </g>
            </g>
        </g>
    </g>
</svg>