<?xml version="1.0" encoding="UTF-8" standalone="no"?>
<svg width="23px" height="23px" viewBox="0 0 23 23" version="1.1" xmlns="http://www.w3.org/2000/svg" xmlns:xlink="http://www.w3.org/1999/xlink" xmlns:sketch="http://www.bohemiancoding.com/sketch/ns">
    <!-- Generator: Sketch 3.4.2 (15855) - http://www.bohemiancoding.com/sketch -->
    <title>noteicon-social-github-solid</title>
    <desc>Created with Sketch.</desc>
    <defs></defs>
    <g id="Symbols" stroke="none" stroke-width="1" fill="none" fill-rule="evenodd" sketch:type="MSPage">
        <g sketch:type="MSArtboardGroup" transform="translate(-324.000000, -85.000000)" id="Group">
            <g sketch:type="MSLayerGroup" transform="translate(24.000000, 24.000000)">
                <g id="noteicon-social-github-solid" transform="translate(288.000000, 48.000000)">
                    <g id="icon-grid-copy-139"></g>
                    <path d="M23.499,13 C17.149,13 12,18.148 12,24.5 C12,29.582 15.294,33.892 19.865,35.414 C20.439,35.518 20.621,35.178 20.621,34.873 C20.621,34.599 20.627,33.836 20.621,32.876 C17.423,33.57 16.76,31.361 16.76,31.361 C16.238,30.032 15.485,29.679 15.485,29.679 C14.44,28.965 15.563,28.98 15.563,28.98 C16.716,29.06 17.325,30.164 17.325,30.164 C18.351,31.922 20.016,31.414 20.671,31.12 C20.776,30.378 21.073,29.869 21.402,29.584 C18.848,29.292 16.164,28.307 16.164,23.898 C16.164,22.643 16.612,21.617 17.348,20.812 C17.229,20.523 16.833,19.353 17.459,17.77 C17.459,17.77 18.426,17.46 20.621,18.95 C21.539,18.694 22.523,18.567 23.501,18.562 C24.478,18.567 25.461,18.694 26.381,18.95 C28.576,17.462 29.54,17.77 29.54,17.77 C30.167,19.353 29.772,20.524 29.654,20.813 C30.39,21.618 30.837,22.644 30.837,23.899 C30.837,28.319 28.149,29.29 25.586,29.573 C25.998,29.93 26.373,30.62 26.373,31.693 L26.373,34.877 C26.373,35.185 26.559,35.524 27.143,35.413 C31.709,33.889 35,29.58 35,24.5 C35,18.148 29.852,13 23.499,13 L23.499,13 Z" id="Shape" fill="#FF4081" sketch:type="MSShapeGroup"></path>
                </g>
            </g>
        </g>
    </g>
</svg>