<?xml version="1.0" encoding="UTF-8" standalone="no"?>
<svg width="24px" height="23px" viewBox="0 0 24 23" version="1.1" xmlns="http://www.w3.org/2000/svg" xmlns:xlink="http://www.w3.org/1999/xlink" xmlns:sketch="http://www.bohemiancoding.com/sketch/ns">
    <!-- Generator: Sketch 3.4.2 (15855) - http://www.bohemiancoding.com/sketch -->
    <title>noteicon-social-dropbox-solid</title>
    <desc>Created with Sketch.</desc>
    <defs></defs>
    <g id="Symbols" stroke="none" stroke-width="1" fill="none" fill-rule="evenodd" sketch:type="MSPage">
        <g sketch:type="MSArtboardGroup" transform="translate(-228.000000, -133.000000)" id="Group">
            <g sketch:type="MSLayerGroup" transform="translate(24.000000, 24.000000)">
                <g id="noteicon-social-dropbox-solid" transform="translate(192.000000, 96.000000)">
                    <g id="icon-grid-copy-137"></g>
                    <path d="M12.5,25.035 L19.266,29.449 L24,25.5 L17.178,21.29 L12.5,25.035 L12.5,25.035 Z M19.266,13.132 L12.5,17.544 L17.178,21.29 L24,17.08 L19.266,13.132 L19.266,13.132 Z M35.5,17.544 L28.734,13.132 L24,17.08 L30.822,21.29 L35.5,17.544 L35.5,17.544 Z M24,25.5 L28.734,29.449 L35.5,25.035 L30.822,21.29 L24,25.5 L24,25.5 Z M29.72,30 C29.378,30.223 29.116,30.449 28.735,30.449 C28.327,30.449 28.146,30.262 27.835,30 L24,26.803 L20.166,30 C19.854,30.262 19.674,30.449 19.266,30.449 C19.077,30.449 18.887,30.395 18.72,30.286 C18.706,30.277 17.526,29.508 17.501,29.491 L17.501,31.448 L24.015,35.512 L30.501,31.448 L30.501,29.491 L29.72,30 L29.72,30 L29.72,30 Z" id="Shape" fill="#FF4081" sketch:type="MSShapeGroup"></path>
                </g>
            </g>
        </g>
    </g>
</svg>