<?xml version="1.0" encoding="UTF-8" standalone="no"?>
<svg width="24px" height="21px" viewBox="0 0 24 21" version="1.1" xmlns="http://www.w3.org/2000/svg" xmlns:xlink="http://www.w3.org/1999/xlink" xmlns:sketch="http://www.bohemiancoding.com/sketch/ns">
    <!-- Generator: Sketch 3.4.2 (15855) - http://www.bohemiancoding.com/sketch -->
    <title>noteicon-code-css</title>
    <desc>Created with Sketch.</desc>
    <defs></defs>
    <g id="Symbols" stroke="none" stroke-width="1" fill="none" fill-rule="evenodd" sketch:type="MSPage">
        <g sketch:type="MSArtboardGroup" transform="translate(-228.000000, -470.000000)" id="Group">
            <g sketch:type="MSLayerGroup" transform="translate(24.000000, 24.000000)">
                <g id="noteicon-code-css" transform="translate(192.000000, 432.000000)">
                    <g id="icon-grid-copy-183"></g>
                    <path d="M34,14 L14,14 C12.897,14 12,14.938 12,16.089 L12,30.911 C12,32.062 12.897,33 14,33 L23,33 L23,34 L17,34 C16.724,34 16.5,34.224 16.5,34.5 C16.5,34.776 16.724,35 17,35 L31,35 C31.276,35 31.5,34.776 31.5,34.5 C31.5,34.224 31.276,34 31,34 L24,34 L24,33 L34,33 C35.103,33 36,32.062 36,30.911 L36,16.089 C36,14.938 35.103,14 34,14 L34,14 Z M14,15 L34,15 C34.552,15 35,15.488 35,16.089 L35,28 L13,28 L13,16.089 C13,15.488 13.448,15 14,15 L14,15 Z M34,32 L14,32 C13.448,32 13,31.512 13,30.911 L13,29 L35,29 L35,30.911 C35,31.512 34.552,32 34,32 L34,32 Z M25,30.5 C25,31.052 24.552,31.5 24,31.5 C23.448,31.5 23,31.052 23,30.5 C23,29.948 23.448,29.5 24,29.5 C24.552,29.5 25,29.948 25,30.5 L25,30.5 Z M19.536,24.701 C20.191,24.701 21.033,24.417 21.322,23.065 C21.38,22.794 21.207,22.529 20.937,22.471 C20.671,22.421 20.402,22.585 20.343,22.856 C20.177,23.635 19.839,23.701 19.535,23.701 C19.074,23.701 18.625,23.535 18.625,21.551 C18.625,19.567 19.075,19.4 19.536,19.4 C19.84,19.4 20.178,19.465 20.344,20.248 C20.402,20.519 20.672,20.685 20.938,20.633 C21.207,20.575 21.38,20.31 21.322,20.039 C21.034,18.685 20.191,18.4 19.536,18.4 C17.626,18.4 17.626,20.608 17.626,21.55 C17.626,22.492 17.626,24.701 19.536,24.701 L19.536,24.701 Z M23.988,22.02 L24.113,21.536 L24.106,22.052 C24.588,22.18 24.911,22.368 24.911,22.878 C24.911,23.332 24.579,23.702 24.17,23.702 C23.78,23.702 23.455,23.364 23.43,22.932 C23.414,22.657 23.179,22.437 22.902,22.462 C22.626,22.479 22.416,22.715 22.432,22.99 C22.489,23.95 23.252,24.701 24.17,24.701 C25.13,24.701 25.911,23.883 25.911,22.877 C25.911,22.245 25.642,21.422 24.361,21.084 C24.36,21.084 24.239,21.052 24.238,21.051 C23.754,20.926 23.43,20.738 23.43,20.227 C23.43,19.772 23.762,19.401 24.171,19.401 C24.561,19.401 24.886,19.74 24.911,20.172 C24.928,20.447 25.167,20.666 25.439,20.642 C25.715,20.625 25.925,20.389 25.909,20.114 C25.854,19.152 25.09,18.4 24.172,18.4 C23.212,18.4 22.431,19.219 22.431,20.226 C22.431,20.86 22.701,21.687 23.988,22.02 L23.988,22.02 Z M28.452,22.02 L28.577,21.536 L28.57,22.052 C29.052,22.18 29.375,22.368 29.375,22.878 C29.375,23.332 29.043,23.702 28.634,23.702 C28.244,23.702 27.919,23.364 27.894,22.932 C27.877,22.657 27.634,22.437 27.366,22.462 C27.09,22.479 26.88,22.715 26.896,22.99 C26.953,23.95 27.716,24.701 28.634,24.701 C29.594,24.701 30.375,23.883 30.375,22.877 C30.375,22.245 30.106,21.422 28.825,21.084 C28.824,21.084 28.703,21.052 28.702,21.051 C28.218,20.926 27.894,20.738 27.894,20.227 C27.894,19.772 28.226,19.401 28.635,19.401 C29.025,19.401 29.35,19.74 29.375,20.172 C29.392,20.447 29.635,20.666 29.903,20.642 C30.179,20.625 30.389,20.389 30.373,20.114 C30.316,19.154 29.553,18.402 28.635,18.402 C27.675,18.402 26.894,19.221 26.894,20.228 C26.895,20.86 27.165,21.687 28.452,22.02 L28.452,22.02 Z" id="Shape" fill="#FF4081" sketch:type="MSShapeGroup"></path>
                </g>
            </g>
        </g>
    </g>
</svg>