<?xml version="1.0" encoding="UTF-8" standalone="no"?>
<svg width="23px" height="23px" viewBox="0 0 23 23" version="1.1" xmlns="http://www.w3.org/2000/svg" xmlns:xlink="http://www.w3.org/1999/xlink" xmlns:sketch="http://www.bohemiancoding.com/sketch/ns">
    <!-- Generator: Sketch 3.4.2 (15855) - http://www.bohemiancoding.com/sketch -->
    <title>noteicon-social-skype-solid</title>
    <desc>Created with Sketch.</desc>
    <defs></defs>
    <g id="Symbols" stroke="none" stroke-width="1" fill="none" fill-rule="evenodd" sketch:type="MSPage">
        <g sketch:type="MSArtboardGroup" transform="translate(-324.000000, -37.000000)" id="Group">
            <g sketch:type="MSLayerGroup" transform="translate(24.000000, 24.000000)">
                <g id="noteicon-social-skype-solid" transform="translate(288.000000, 0.000000)">
                    <g id="icon-grid-copy-143"></g>
                    <path d="M34.026,26.942 C34.189,26.192 34.275,25.418 34.275,24.621 C34.275,18.648 29.433,13.805 23.46,13.805 C22.829,13.805 22.212,13.861 21.609,13.963 C20.644,13.354 19.5,13 18.273,13 C14.809,13 12,15.81 12,19.274 C12,20.432 12.315,21.515 12.862,22.446 C12.718,23.149 12.643,23.876 12.643,24.621 C12.643,30.595 17.486,35.436 23.459,35.436 C24.136,35.436 24.797,35.374 25.438,35.256 C26.323,35.73 27.332,35.999 28.404,35.999 C31.868,35.999 34.676,33.191 34.676,29.727 C34.678,28.728 34.443,27.782 34.026,26.942 L34.026,26.942 Z M23.43,32.052 C18.638,32.052 17.084,29.237 17.084,27.703 C17.084,27.309 17.236,26.964 17.535,26.683 C17.831,26.404 18.211,26.263 18.664,26.263 C19.036,26.263 19.357,26.374 19.617,26.594 C20.636,27.462 20.332,29.605 23.349,29.605 C24.689,29.605 26.328,29.028 26.328,27.687 C26.328,26.162 24.295,25.854 22.772,25.532 C19.985,24.939 17.379,24.01 17.379,21.157 C17.379,18.22 20.318,17.011 23.387,17.011 C27.374,17.011 29.086,19.117 29.086,20.649 C29.086,21.402 28.455,22.157 27.531,22.157 C27.132,22.157 26.818,22.058 26.6,21.867 C25.596,20.97 25.81,19.39 23.18,19.39 C22.406,19.39 21.774,19.545 21.307,19.853 C20.516,20.37 20.493,21.079 20.852,21.519 C21.435,22.238 22.958,22.504 23.864,22.713 C27.17,23.422 29.764,24.283 29.764,27.377 C29.764,30.542 26.782,32.052 23.43,32.052 L23.43,32.052 Z" id="Shape" fill="#FF4081" sketch:type="MSShapeGroup"></path>
                </g>
            </g>
        </g>
    </g>
</svg>