<?xml version="1.0" encoding="UTF-8" standalone="no"?>
<svg width="24px" height="24px" viewBox="0 0 24 24" version="1.1" xmlns="http://www.w3.org/2000/svg" xmlns:xlink="http://www.w3.org/1999/xlink" xmlns:sketch="http://www.bohemiancoding.com/sketch/ns">
    <!-- Generator: Sketch 3.4.2 (15855) - http://www.bohemiancoding.com/sketch -->
    <title>noteicon-social-github</title>
    <desc>Created with Sketch.</desc>
    <defs></defs>
    <g id="Symbols" stroke="none" stroke-width="1" fill="none" fill-rule="evenodd" sketch:type="MSPage">
        <g sketch:type="MSArtboardGroup" transform="translate(-372.000000, -84.000000)" id="Group">
            <g sketch:type="MSLayerGroup" transform="translate(24.000000, 24.000000)">
                <g id="noteicon-social-github" transform="translate(336.000000, 48.000000)">
                    <g id="icon-grid-copy-140"></g>
                    <path d="M23.999,12 C17.383,12 12,17.383 12,24 C12,29.177 15.298,33.754 20.276,35.406 C20.38,35.425 20.475,35.433 20.562,35.433 C21.185,35.433 21.621,34.997 21.621,34.372 L21.622,34.086 C21.623,33.71 21.626,33.098 21.621,32.372 C21.62,32.222 21.552,32.079 21.433,31.985 C21.314,31.891 21.162,31.853 21.014,31.886 C20.636,31.968 20.28,32.009 19.952,32.009 C18.175,32.009 17.753,30.764 17.724,30.677 C17.532,30.19 17.31,29.817 17.098,29.534 C17.286,29.732 17.386,29.906 17.391,29.914 C18.118,31.158 19.131,31.419 19.854,31.419 C20.475,31.419 21.023,31.232 21.374,31.074 C21.53,31.004 21.64,30.858 21.664,30.688 C21.74,30.152 21.945,29.704 22.227,29.459 C22.377,29.329 22.436,29.123 22.377,28.934 C22.318,28.746 22.153,28.607 21.956,28.584 C19.585,28.313 17.161,27.484 17.161,23.396 C17.161,22.336 17.515,21.412 18.214,20.648 C18.344,20.504 18.381,20.299 18.308,20.121 C18.205,19.868 17.919,18.986 18.318,17.748 C18.68,17.773 19.497,17.952 20.84,18.863 C20.961,18.945 21.112,18.97 21.254,18.931 C22.105,18.694 23.055,18.566 23.997,18.561 C24.957,18.566 25.882,18.69 26.746,18.931 C26.886,18.97 27.039,18.945 27.16,18.863 C28.502,17.953 29.316,17.774 29.68,17.748 C30.09,19.023 29.765,19.941 29.691,20.123 C29.618,20.303 29.655,20.508 29.785,20.65 C30.483,21.412 30.837,22.337 30.837,23.398 C30.837,27.492 28.407,28.312 26.031,28.575 C25.834,28.597 25.668,28.734 25.608,28.924 C25.549,29.113 25.608,29.32 25.758,29.451 C25.943,29.61 26.372,30.101 26.372,31.192 L26.372,34.376 C26.372,34.998 26.807,35.434 27.43,35.434 C27.522,35.434 27.623,35.425 27.8,35.387 C32.705,33.75 36,29.175 36,24 C36,17.383 30.616,12 23.999,12 L23.999,12 Z M27.549,34.421 C27.506,34.43 27.466,34.434 27.431,34.434 L27.373,34.376 L27.373,31.192 C27.373,30.425 27.205,29.858 26.993,29.447 C29.278,29.037 31.837,27.804 31.837,23.398 C31.837,22.182 31.462,21.109 30.721,20.203 C30.886,19.634 31.066,18.5 30.505,17.085 C30.45,16.946 30.335,16.839 30.192,16.793 C30.145,16.778 30.01,16.743 29.785,16.743 C29.225,16.743 28.259,16.949 26.792,17.908 C25.907,17.682 24.97,17.566 23.998,17.561 C23.03,17.566 22.094,17.683 21.21,17.908 C19.743,16.949 18.776,16.743 18.216,16.743 C17.989,16.743 17.854,16.778 17.807,16.793 C17.664,16.839 17.549,16.946 17.494,17.086 C16.935,18.5 17.114,19.634 17.28,20.203 C16.539,21.111 16.163,22.185 16.163,23.398 C16.163,27.804 18.723,29.041 21.005,29.458 C20.884,29.699 20.79,29.969 20.727,30.259 C20.498,30.341 20.187,30.421 19.856,30.421 C19.176,30.421 18.653,30.091 18.262,29.423 C18.232,29.368 17.506,28.079 16.057,27.981 C15.525,27.981 15.174,28.169 15.069,28.51 C14.903,29.045 15.484,29.443 15.764,29.629 C15.788,29.641 16.364,29.948 16.782,31.005 C16.806,31.087 17.413,33.011 19.954,33.011 C20.17,33.011 20.393,32.998 20.624,32.969 C20.625,33.43 20.624,33.817 20.623,34.083 L20.563,34.434 C20.529,34.432 20.494,34.429 20.524,34.44 C16.023,32.941 13,28.746 13,24 C13,17.935 17.935,13 23.999,13 C30.065,13 35,17.935 35,24 C35,28.743 31.979,32.938 27.549,34.421 L27.549,34.421 Z" id="Shape" fill="#FF4081" sketch:type="MSShapeGroup"></path>
                </g>
            </g>
        </g>
    </g>
</svg>