<?xml version="1.0" encoding="UTF-8" standalone="no"?>
<svg width="24px" height="21px" viewBox="0 0 24 21" version="1.1" xmlns="http://www.w3.org/2000/svg" xmlns:xlink="http://www.w3.org/1999/xlink" xmlns:sketch="http://www.bohemiancoding.com/sketch/ns">
    <!-- Generator: Sketch 3.4.2 (15855) - http://www.bohemiancoding.com/sketch -->
    <title>noteicon-comment</title>
    <desc>Created with Sketch.</desc>
    <defs></defs>
    <g id="Symbols" stroke="none" stroke-width="1" fill="none" fill-rule="evenodd" sketch:type="MSPage">
        <g sketch:type="MSArtboardGroup" transform="translate(-324.000000, -422.000000)" id="Group">
            <g sketch:type="MSLayerGroup" transform="translate(24.000000, 24.000000)">
                <g id="noteicon-comment" transform="translate(288.000000, 384.000000)">
                    <g id="icon-grid-copy-174"></g>
                    <path d="M35.5,14 L12.5,14 C12.224,14 12,14.224 12,14.5 L12,30.5 C12,30.776 12.224,31 12.5,31 L19,31 L19,34.5 C19,34.702 19.122,34.885 19.309,34.962 C19.371,34.988 19.436,35 19.5,35 C19.63,35 19.758,34.949 19.854,34.854 L23.707,31 L35.5,31 C35.776,31 36,30.776 36,30.5 L36,14.5 C36,14.224 35.776,14 35.5,14 L35.5,14 Z M35,30 L23.5,30 C23.367,30 23.24,30.053 23.146,30.146 L20,33.293 L20,30.5 C20,30.224 19.776,30 19.5,30 L13,30 L13,15 L35,15 L35,30 L35,30 Z" id="Shape" fill="#FF4081" sketch:type="MSShapeGroup"></path>
                </g>
            </g>
        </g>
    </g>
</svg>