<?xml version="1.0" encoding="UTF-8" standalone="no"?>
<svg width="24px" height="19px" viewBox="0 0 24 19" version="1.1" xmlns="http://www.w3.org/2000/svg" xmlns:xlink="http://www.w3.org/1999/xlink" xmlns:sketch="http://www.bohemiancoding.com/sketch/ns">
    <!-- Generator: Sketch 3.4.2 (15855) - http://www.bohemiancoding.com/sketch -->
    <title>noteicon-social-twitter</title>
    <desc>Created with Sketch.</desc>
    <defs></defs>
    <g id="Symbols" stroke="none" stroke-width="1" fill="none" fill-rule="evenodd" sketch:type="MSPage">
        <g sketch:type="MSArtboardGroup" transform="translate(-276.000000, -39.000000)" id="Group">
            <g sketch:type="MSLayerGroup" transform="translate(24.000000, 24.000000)">
                <g id="noteicon-social-twitter" transform="translate(240.000000, 0.000000)">
                    <g id="icon-grid-copy-151"></g>
                    <path d="M35.3274867,17.512 C35.1834867,17.342 34.9444867,17.286 34.7414867,17.378 C34.3954867,17.531 34.0884867,17.608 33.8024867,17.613 C34.1254867,17.231 34.2544867,16.816 34.4264867,16.265 L34.5144867,15.983 C34.5774867,15.785 34.5114867,15.569 34.3494867,15.44 C34.1864867,15.31 33.9604867,15.294 33.7824867,15.402 C33.0114867,15.859 32.1824867,16.191 31.3144867,16.389 C30.3804867,15.503 29.1284867,15 27.8354867,15 C25.0544867,15 22.7914867,17.263 22.7914867,20.044 C22.7914867,20.208 22.7994867,20.372 22.8144867,20.535 C19.5484867,20.205 16.5204867,18.579 14.4304867,16.015 C14.3264867,15.888 14.1604867,15.824 14.0034867,15.832 C13.8394867,15.847 13.6924867,15.938 13.6104867,16.08 C13.1634867,16.849 12.9274867,17.726 12.9274867,18.617 C12.9274867,19.662 13.2484867,20.661 13.8254867,21.493 C13.7604867,21.462 13.6964867,21.429 13.6334867,21.393 C13.4784867,21.307 13.2894867,21.338 13.1374867,21.428 C12.9854867,21.518 12.8904867,21.711 12.8904867,21.888 C12.8904867,23.514 13.6764867,24.997 14.9144867,25.927 C14.7974867,25.943 14.6884867,26 14.6084867,26.091 C14.4914867,26.223 14.4534867,26.407 14.5064867,26.575 C15.0274867,28.197 16.3154867,29.414 17.8964867,29.876 C16.3024867,30.798 14.4384867,31.181 12.5584867,30.962 C12.3284867,30.935 12.1084867,31.071 12.0294867,31.29 C11.9504867,31.51 12.0344867,31.754 12.2304867,31.88 C14.3954867,33.268 16.8974867,34 19.4664867,34 C27.8714867,34 32.8944867,27.172 32.8944867,20.571 C32.8944867,20.459 32.8934867,20.347 32.8914867,20.236 C33.0054867,20.156 33.1214867,20.077 33.2384867,19.997 C34.0184867,19.464 34.8254867,18.913 35.3614867,18.112 C35.4844867,17.927 35.4704867,17.682 35.3274867,17.512 L35.3274867,17.512 Z M32.6734867,19.172 C32.4744867,19.307 32.2784867,19.442 32.0904867,19.578 C31.9534867,19.677 31.8764867,19.838 31.8834867,20.006 C31.8914867,20.194 31.8944867,20.381 31.8944867,20.571 C31.8934867,26.681 27.2454867,33 19.4664867,33 C17.7594867,33 16.0844867,32.65 14.5334867,31.978 C16.3604867,31.802 18.0744867,31.118 19.5364867,29.972 C19.7034867,29.842 19.7694867,29.62 19.7024867,29.42 C19.6354867,29.22 19.4494867,29.083 19.2374867,29.079 C17.7774867,29.052 16.4684867,28.245 15.7774867,27.004 C16.2444867,27.007 16.7144867,26.95 17.1674867,26.828 C17.3914867,26.766 17.5434867,26.559 17.5354867,26.328 C17.5274867,26.096 17.3614867,25.9 17.1344867,25.854 C15.5084867,25.527 14.2674867,24.235 13.9624867,22.63 C14.4354867,22.79 14.9314867,22.882 15.4314867,22.898 C15.6734867,22.914 15.8554867,22.765 15.9244867,22.552 C15.9934867,22.339 15.9124867,22.107 15.7264867,21.983 C14.6004867,21.23 13.9274867,19.972 13.9274867,18.617 C13.9274867,18.145 14.0094867,17.68 14.1684867,17.241 C16.5454867,19.833 19.8624867,21.403 23.3844867,21.58 C23.5484867,21.59 23.6924867,21.522 23.7934867,21.401 C23.8944867,21.28 23.9324867,21.12 23.8974867,20.967 C23.8284867,20.669 23.7934867,20.358 23.7934867,20.044 C23.7934867,17.814 25.6074867,16 27.8374867,16 C28.9514867,16 30.0264867,16.466 30.7894867,17.278 C30.9084867,17.403 31.0824867,17.46 31.2504867,17.427 C31.8964867,17.299 32.5234867,17.107 33.1264867,16.852 C32.9914867,17.06 32.8034867,17.217 32.4614867,17.421 C32.3044867,17.515 32.2114867,17.688 32.2184867,17.871 C32.2254867,18.054 32.3324867,18.218 32.4964867,18.299 C32.8284867,18.463 33.1544867,18.561 33.4854867,18.598 C33.2234867,18.796 32.9464867,18.986 32.6734867,19.172 L32.6734867,19.172 Z" id="Shape" fill="#FF4081" sketch:type="MSShapeGroup"></path>
                </g>
            </g>
        </g>
    </g>
</svg>