<?xml version="1.0" encoding="UTF-8" standalone="no"?>
<svg width="22px" height="14px" viewBox="0 0 22 14" version="1.1" xmlns="http://www.w3.org/2000/svg" xmlns:xlink="http://www.w3.org/1999/xlink" xmlns:sketch="http://www.bohemiancoding.com/sketch/ns">
    <!-- Generator: Sketch 3.4.2 (15855) - http://www.bohemiancoding.com/sketch -->
    <title>noteicon-social-digg</title>
    <desc>Created with Sketch.</desc>
    <defs></defs>
    <g id="Symbols" stroke="none" stroke-width="1" fill="none" fill-rule="evenodd" sketch:type="MSPage">
        <g sketch:type="MSArtboardGroup" transform="translate(-37.000000, -185.000000)" id="Group">
            <g sketch:type="MSLayerGroup" transform="translate(24.000000, 24.000000)">
                <g id="noteicon-social-digg" transform="translate(0.000000, 144.000000)">
                    <g id="icon-grid-copy-134"></g>
                    <path d="M18,20 L13.5,20 C13.224,20 13,20.224 13,20.5 L13,27.5 C13,27.776 13.224,28 13.5,28 L18.5,28 C18.776,28 19,27.776 19,27.5 L19,17 L18,17 L18,20 L18,20 Z M18,27 L14,27 L14,21 L18,21 L18,27 L18,27 Z M20,20 L21,20 L21,28 L20,28 L20,20 L20,20 Z M20,17 L21,17 L21,19 L20,19 L20,17 L20,17 Z M27.5,20 L22.5,20 C22.224,20 22,20.224 22,20.5 L22,27.5 C22,27.776 22.224,28 22.5,28 L27,28 L27,30 L22,30 L22,31 L27.5,31 C27.776,31 28,30.776 28,30.5 L28,20.5 C28,20.224 27.776,20 27.5,20 L27.5,20 Z M27,27 L23,27 L23,21 L27,21 L27,27 L27,27 Z M34.5,20 L29.5,20 C29.224,20 29,20.224 29,20.5 L29,27.5 C29,27.776 29.224,28 29.5,28 L34,28 L34,30 L29,30 L29,31 L34.5,31 C34.776,31 35,30.776 35,30.5 L35,20.5 C35,20.224 34.776,20 34.5,20 L34.5,20 Z M34,27 L30,27 L30,21 L34,21 L34,27 L34,27 Z" id="Shape" fill="#FF4081" sketch:type="MSShapeGroup"></path>
                </g>
            </g>
        </g>
    </g>
</svg>