<?xml version="1.0" encoding="UTF-8" standalone="no"?>
<svg width="24px" height="24px" viewBox="0 0 24 24" version="1.1" xmlns="http://www.w3.org/2000/svg" xmlns:xlink="http://www.w3.org/1999/xlink" xmlns:sketch="http://www.bohemiancoding.com/sketch/ns">
    <!-- Generator: Sketch 3.4.2 (15855) - http://www.bohemiancoding.com/sketch -->
    <title>noteicon-keyhole-solid</title>
    <desc>Created with Sketch.</desc>
    <defs></defs>
    <g id="Symbols" stroke="none" stroke-width="1" fill="none" fill-rule="evenodd" sketch:type="MSPage">
        <g sketch:type="MSArtboardGroup" transform="translate(-84.000000, -324.000000)" id="Group">
            <g sketch:type="MSLayerGroup" transform="translate(24.000000, 24.000000)">
                <g id="noteicon-keyhole-solid" transform="translate(48.000000, 288.000000)">
                    <g id="icon-grid-copy-113"></g>
                    <path d="M24,12 C17.4,12 12,17.4 12,24 C12,30.6 17.4,36 24,36 C30.6,36 36,30.6 36,24 C36,17.4 30.6,12 24,12 L24,12 Z M27.28,31.2 L20.72,31.2 L21.8,23.64 C20.92,22.96 20.4,21.92 20.4,20.8 C20.4,18.8 22,17.2 24,17.2 C26,17.2 27.6,18.8 27.6,20.8 C27.6,21.92 27.08,22.96 26.2,23.64 L27.28,31.2 L27.28,31.2 Z" id="Shape" fill="#FF4081" sketch:type="MSShapeGroup"></path>
                </g>
            </g>
        </g>
    </g>
</svg>