<?xml version="1.0" encoding="UTF-8" standalone="no"?>
<svg width="24px" height="24px" viewBox="0 0 24 24" version="1.1" xmlns="http://www.w3.org/2000/svg" xmlns:xlink="http://www.w3.org/1999/xlink" xmlns:sketch="http://www.bohemiancoding.com/sketch/ns">
    <!-- Generator: Sketch 3.4.2 (15855) - http://www.bohemiancoding.com/sketch -->
    <title>noteicon-keyhole</title>
    <desc>Created with Sketch.</desc>
    <defs></defs>
    <g id="Symbols" stroke="none" stroke-width="1" fill="none" fill-rule="evenodd" sketch:type="MSPage">
        <g sketch:type="MSArtboardGroup" transform="translate(-132.000000, -324.000000)" id="Group">
            <g sketch:type="MSLayerGroup" transform="translate(24.000000, 24.000000)">
                <g id="noteicon-keyhole" transform="translate(96.000000, 288.000000)">
                    <g id="icon-grid-copy-114"></g>
                    <path d="M27.6,20.8 C27.6,18.8 26,17.2 24,17.2 C22,17.2 20.4,18.8 20.4,20.8 C20.4,21.92 20.92,22.96 21.8,23.64 L20.72,31.2 L27.24,31.2 L26.16,23.64 C27.08,22.96 27.6,21.92 27.6,20.8 L27.6,20.8 Z M26.32,30.4 L21.68,30.4 L22.68,23.28 L22.48,23.16 C21.68,22.64 21.24,21.76 21.24,20.84 C21.24,19.28 22.48,18.04 24.04,18.04 C25.6,18.04 26.84,19.28 26.84,20.84 C26.84,21.8 26.36,22.64 25.6,23.16 L25.4,23.28 L26.32,30.4 L26.32,30.4 Z M24,12 C17.4,12 12,17.4 12,24 C12,30.6 17.4,36 24,36 C30.6,36 36,30.6 36,24 C36,17.4 30.6,12 24,12 L24,12 Z M24,35.2 C17.84,35.2 12.8,30.16 12.8,24 C12.8,17.84 17.84,12.8 24,12.8 C30.16,12.8 35.2,17.84 35.2,24 C35.2,30.16 30.16,35.2 24,35.2 L24,35.2 Z" id="Shape" fill="#FF4081" sketch:type="MSShapeGroup"></path>
                </g>
            </g>
        </g>
    </g>
</svg>