<?xml version="1.0" encoding="UTF-8" standalone="no"?>
<svg width="17px" height="24px" viewBox="0 0 17 24" version="1.1" xmlns="http://www.w3.org/2000/svg" xmlns:xlink="http://www.w3.org/1999/xlink" xmlns:sketch="http://www.bohemiancoding.com/sketch/ns">
    <!-- Generator: Sketch 3.4.2 (15855) - http://www.bohemiancoding.com/sketch -->
    <title>noteicon-hot</title>
    <desc>Created with Sketch.</desc>
    <defs></defs>
    <g id="Symbols" stroke="none" stroke-width="1" fill="none" fill-rule="evenodd" sketch:type="MSPage">
        <g sketch:type="MSArtboardGroup" transform="translate(-328.000000, -325.000000)" id="Group">
            <g sketch:type="MSLayerGroup" transform="translate(24.000000, 24.000000)">
                <g id="noteicon-hot" transform="translate(288.000000, 288.000000)">
                    <g id="icon-grid-copy-112"></g>
                    <path d="M22,13.035 C21.791,12.952 21.554,13.019 21.419,13.198 C21.283,13.376 21.283,13.623 21.419,13.802 C23.905,17.081 24.044,22.252 21.826,25.231 C21.308,24.511 20.981,23.758 20.807,22.9 C20.773,22.734 20.658,22.597 20.5,22.535 C20.344,22.473 20.164,22.495 20.026,22.594 C17.193,24.624 16.051,28.081 17.118,31.402 C18.211,34.802 21.232,37 24.817,37 C28.807,37 31.534,34.69 32.297,30.662 C33.454,24.56 29.593,16.02 22,13.035 L22,13.035 Z M31.315,30.476 C30.649,33.986 28.281,36 24.817,36 C21.675,36 19.027,34.075 18.07,31.096 C17.38,28.948 17.573,25.998 20.026,23.866 C20.314,24.763 20.78,25.582 21.436,26.354 C21.53,26.463 21.665,26.527 21.809,26.53 C21.95,26.525 22.09,26.473 22.188,26.365 C24.744,23.541 25.058,18.432 23.125,14.652 C29.266,17.913 32.319,25.179 31.315,30.476 L31.315,30.476 Z M25.317,27 C25.139,27 24.975,27.094 24.885,27.248 C24.795,27.402 24.794,27.59 24.881,27.745 C25.235,28.376 24.926,29.088 24.71,29.456 C24.173,30.374 23.063,31.111 22.431,30.957 C22.266,30.919 22.095,30.964 21.973,31.081 C21.851,31.197 21.795,31.366 21.825,31.532 C22.081,32.962 23.32,34 24.771,34 C26.402,34 27.72,32.689 27.771,31.015 C27.804,29.911 27.558,28.439 26.765,27.621 C26.371,27.215 25.87,27 25.317,27 L25.317,27 Z M24.771,33 C24.015,33 23.346,32.578 23.008,31.938 C23.948,31.759 24.976,30.982 25.573,29.961 C25.9,29.402 26.057,28.841 26.043,28.314 C26.045,28.315 26.046,28.316 26.047,28.317 C26.522,28.806 26.806,29.853 26.771,30.984 C26.736,32.115 25.858,33 24.771,33 L24.771,33 Z" id="Shape" fill="#FF4081" sketch:type="MSShapeGroup"></path>
                </g>
            </g>
        </g>
    </g>
</svg>