<?xml version="1.0" encoding="UTF-8" standalone="no"?>
<svg width="24px" height="24px" viewBox="0 0 24 24" version="1.1" xmlns="http://www.w3.org/2000/svg" xmlns:xlink="http://www.w3.org/1999/xlink" xmlns:sketch="http://www.bohemiancoding.com/sketch/ns">
    <!-- Generator: Sketch 3.4.2 (15855) - http://www.bohemiancoding.com/sketch -->
    <title>noteicon-social-dribble</title>
    <desc>Created with Sketch.</desc>
    <defs></defs>
    <g id="Symbols" stroke="none" stroke-width="1" fill="none" fill-rule="evenodd" sketch:type="MSPage">
        <g sketch:type="MSArtboardGroup" transform="translate(-372.000000, -132.000000)" id="Group">
            <g sketch:type="MSLayerGroup" transform="translate(24.000000, 24.000000)">
                <g id="noteicon-social-dribble" transform="translate(336.000000, 96.000000)">
                    <g id="icon-grid-copy-136"></g>
                    <path d="M24,12 C17.383,12 12,17.383 12,24 C12,30.617 17.383,36 24,36 C30.617,36 36,30.617 36,24 C36,17.383 30.617,12 24,12 L24,12 Z M34.988,24.243 C33.918,24.113 32.708,24.032 31.693,24.032 C30.097,24.032 28.523,24.186 26.987,24.483 C26.61,23.46 26.16,22.469 25.65,21.507 C28.152,20.434 30.474,18.942 32.527,17.061 C34.07,18.957 35,21.371 35,24 C35,24.082 34.989,24.162 34.988,24.243 L34.988,24.243 Z M31.859,16.318 C29.862,18.148 27.602,19.597 25.163,20.631 C23.698,18.131 21.774,15.887 19.45,13.998 C20.838,13.363 22.376,13 24,13 C27.078,13 29.86,14.274 31.859,16.318 L31.859,16.318 Z M18.48,14.5 C20.821,16.333 22.751,18.539 24.218,21.003 C21.618,21.974 18.847,22.5 16,22.5 C15.049,22.5 14.091,22.43 13.143,22.316 C13.659,18.979 15.673,16.139 18.48,14.5 L18.48,14.5 Z M13.035,23.31 C14.02,23.427 15.013,23.5 16,23.5 C19.022,23.5 21.964,22.936 24.718,21.888 C25.206,22.796 25.634,23.734 25.997,24.699 C21.968,25.656 18.241,27.63 15.134,30.484 C13.799,28.664 13,26.426 13,24 C13,23.768 13.021,23.54 13.035,23.31 L13.035,23.31 Z M15.77,31.274 C18.785,28.489 22.413,26.585 26.335,25.67 C27.094,28 27.5,30.464 27.5,33 C27.5,33.486 27.475,33.962 27.446,34.439 C26.361,34.798 25.205,35 24,35 C20.724,35 17.787,33.553 15.77,31.274 L15.77,31.274 Z M28.461,34.046 C28.476,33.697 28.5,33.343 28.5,33 C28.5,30.387 28.087,27.847 27.313,25.444 C28.744,25.174 30.208,25.031 31.692,25.031 C32.689,25.031 33.88,25.112 34.924,25.242 C34.479,29.182 31.946,32.492 28.461,34.046 L28.461,34.046 Z" id="Shape" fill="#FF4081" sketch:type="MSShapeGroup"></path>
                </g>
            </g>
        </g>
    </g>
</svg>