<?xml version="1.0" encoding="UTF-8" standalone="no"?>
<svg width="16px" height="24px" viewBox="0 0 16 24" version="1.1" xmlns="http://www.w3.org/2000/svg" xmlns:xlink="http://www.w3.org/1999/xlink" xmlns:sketch="http://www.bohemiancoding.com/sketch/ns">
    <!-- Generator: Sketch 3.4.2 (15855) - http://www.bohemiancoding.com/sketch -->
    <title>noteicon-hot-solid</title>
    <desc>Created with Sketch.</desc>
    <defs></defs>
    <g id="Symbols" stroke="none" stroke-width="1" fill="none" fill-rule="evenodd" sketch:type="MSPage">
        <g sketch:type="MSArtboardGroup" transform="translate(-280.000000, -324.000000)" id="Group">
            <g sketch:type="MSLayerGroup" transform="translate(24.000000, 24.000000)">
                <g id="noteicon-hot-solid" transform="translate(240.000000, 288.000000)">
                    <g id="icon-grid-copy-172"></g>
                    <path d="M21.2767419,12.0350962 C21.0677419,11.9520962 20.8297419,12.0200962 20.6947419,12.1990962 C20.5597419,12.3780962 20.5597419,12.6240962 20.6947419,12.8020962 C23.1807419,16.0800962 23.3197419,21.2510962 21.1027419,24.2310962 C20.5867419,23.5120962 20.2577419,22.7590962 20.0837419,21.9000962 C20.0497419,21.7340962 19.9347419,21.5970962 19.7767419,21.5350962 C19.6187419,21.4730962 19.4397419,21.4940962 19.3017419,21.5940962 C16.4687419,23.6240962 15.3267419,27.0820962 16.3947419,30.4030962 C17.4877419,33.8030962 20.5087419,36.0000962 24.0927419,36.0000962 C28.0837419,36.0000962 30.8107419,33.6900962 31.5727419,29.6620962 C32.7307419,23.5590962 28.8687419,15.0200962 21.2767419,12.0350962 L21.2767419,12.0350962 Z M24.0487419,33.0000962 C22.5977419,33.0000962 21.3577419,31.9620962 21.1017419,30.5310962 C21.0727419,30.3650962 21.1277419,30.1950962 21.2497419,30.0800962 C21.3717419,29.9650962 21.5437419,29.9180962 21.7087419,29.9560962 C21.7637419,29.9690962 21.8237419,29.9750962 21.8877419,29.9750962 C22.5557419,29.9750962 23.4977419,29.2930962 23.9887419,28.4540962 C24.2047419,28.0860962 24.5127419,27.3740962 24.1587419,26.7440962 C24.0717419,26.5890962 24.0737419,26.3990962 24.1627419,26.2460962 C24.2517419,26.0940962 24.4167419,26.0000962 24.5927419,26.0000962 C25.1467419,26.0000962 25.6477419,26.2140962 26.0407419,26.6200962 C26.8337419,27.4370962 27.0807419,28.9110962 27.0477419,30.0150962 C26.9977419,31.6880962 25.6787419,33.0000962 24.0487419,33.0000962 L24.0487419,33.0000962 Z" id="Shape" fill="#FF4081" sketch:type="MSShapeGroup"></path>
                </g>
            </g>
        </g>
    </g>
</svg>