<?xml version="1.0" encoding="UTF-8" standalone="no"?>
<svg width="24px" height="24px" viewBox="0 0 24 24" version="1.1" xmlns="http://www.w3.org/2000/svg" xmlns:xlink="http://www.w3.org/1999/xlink" xmlns:sketch="http://www.bohemiancoding.com/sketch/ns">
    <!-- Generator: Sketch 3.4.2 (15855) - http://www.bohemiancoding.com/sketch -->
    <title>noteicon-circle-close</title>
    <desc>Created with Sketch.</desc>
    <defs></defs>
    <g id="Symbols" stroke="none" stroke-width="1" fill="none" fill-rule="evenodd" sketch:type="MSPage">
        <g sketch:type="MSArtboardGroup" transform="translate(-132.000000, -660.000000)" id="Group">
            <g sketch:type="MSLayerGroup" transform="translate(24.000000, 24.000000)">
                <g id="noteicon-circle-close" transform="translate(96.000000, 624.000000)">
                    <g id="icon-grid-copy-160"></g>
                    <path d="M24,12 C17.4,12 12,17.4 12,24 C12,30.6 17.4,36 24,36 C30.6,36 36,30.6 36,24 C36,17.4 30.6,12 24,12 L24,12 Z M24,35.077 C17.908,35.077 12.923,30.092 12.923,24 C12.923,17.908 17.908,12.923 24,12.923 C30.092,12.923 35.077,17.908 35.077,24 C35.077,30.092 30.092,35.077 24,35.077 L24,35.077 Z M28.477,19.523 C28.292,19.338 28.015,19.338 27.831,19.523 L24,23.354 L20.169,19.523 C19.984,19.338 19.707,19.338 19.523,19.523 C19.339,19.708 19.338,19.985 19.523,20.169 L23.354,24 L19.523,27.831 C19.338,28.016 19.338,28.293 19.523,28.477 C19.615,28.569 19.754,28.615 19.846,28.615 C19.938,28.615 20.077,28.569 20.169,28.477 L24,24.646 L27.831,28.477 C27.923,28.569 28.062,28.615 28.154,28.615 C28.246,28.615 28.385,28.569 28.477,28.477 C28.662,28.292 28.662,28.015 28.477,27.831 L24.646,24 L28.477,20.169 C28.662,19.984 28.662,19.707 28.477,19.523 L28.477,19.523 Z" id="Shape" fill="#FF4081" sketch:type="MSShapeGroup"></path>
                </g>
            </g>
        </g>
    </g>
</svg>