<?xml version="1.0" encoding="UTF-8" standalone="no"?>
<svg width="24px" height="24px" viewBox="0 0 24 24" version="1.1" xmlns="http://www.w3.org/2000/svg" xmlns:xlink="http://www.w3.org/1999/xlink" xmlns:sketch="http://www.bohemiancoding.com/sketch/ns">
    <!-- Generator: Sketch 3.4.2 (15855) - http://www.bohemiancoding.com/sketch -->
    <title>noteicon-home</title>
    <desc>Created with Sketch.</desc>
    <defs></defs>
    <g id="Symbols" stroke="none" stroke-width="1" fill="none" fill-rule="evenodd" sketch:type="MSPage">
        <g sketch:type="MSArtboardGroup" transform="translate(-36.000000, -372.000000)" id="Group">
            <g sketch:type="MSLayerGroup" transform="translate(24.000000, 24.000000)">
                <g id="noteicon-home" transform="translate(0.000000, 336.000000)">
                    <g id="icon-grid-copy-171"></g>
                    <path d="M35.718676,22.932 L32.143676,19.644 L32.143676,14.219 L28.033676,14.219 L28.033676,15.822 L23.923676,12 L12.128676,22.932 C11.964676,23.096 11.964676,23.343 12.087676,23.507 C12.251676,23.671 12.498676,23.671 12.662676,23.548 L14.059676,22.274 L14.059676,35.959 L33.785676,35.959 L33.785676,22.274 L35.141676,23.548 C35.223676,23.63 35.305676,23.671 35.429676,23.671 C35.553676,23.671 35.634676,23.63 35.717676,23.548 C35.881676,23.343 35.881676,23.096 35.717676,22.932 L35.718676,22.932 Z M28.855676,15.041 L31.321676,15.041 L31.321676,18.863 L28.855676,16.562 L28.855676,15.041 L28.855676,15.041 Z M21.458676,35.178 L21.458676,26.507 C21.458676,26.302 21.622676,26.137 21.828676,26.137 L25.979676,26.137 C26.184676,26.137 26.349676,26.301 26.349676,26.507 L26.349676,35.178 L21.459676,35.178 L21.458676,35.178 Z M32.965676,35.178 L27.212676,35.178 L27.212676,26.507 C27.212676,25.849 26.678676,25.315 26.020676,25.315 L21.828676,25.315 C21.170676,25.315 20.636676,25.849 20.636676,26.507 L20.636676,35.178 L14.883676,35.178 L14.883676,21.534 L23.924676,13.109 L32.143676,20.753 L32.965676,21.534 L32.965676,35.178 L32.965676,35.178 Z" id="Shape" fill="#FF4081" sketch:type="MSShapeGroup"></path>
                </g>
            </g>
        </g>
    </g>
</svg>