<?xml version="1.0" encoding="UTF-8" standalone="no"?>
<svg width="24px" height="24px" viewBox="0 0 24 24" version="1.1" xmlns="http://www.w3.org/2000/svg" xmlns:xlink="http://www.w3.org/1999/xlink" xmlns:sketch="http://www.bohemiancoding.com/sketch/ns">
    <!-- Generator: Sketch 3.4.2 (15855) - http://www.bohemiancoding.com/sketch -->
    <title>noteicon-left-solid</title>
    <desc>Created with Sketch.</desc>
    <defs></defs>
    <g id="Symbols" stroke="none" stroke-width="1" fill="none" fill-rule="evenodd" sketch:type="MSPage">
        <g sketch:type="MSArtboardGroup" transform="translate(-372.000000, -276.000000)" id="Group">
            <g sketch:type="MSLayerGroup" transform="translate(24.000000, 24.000000)">
                <g id="noteicon-left-solid" transform="translate(336.000000, 240.000000)">
                    <g id="icon-grid-copy-117"></g>
                    <path d="M24,12 C17.378,12 12,17.378 12,24 C12,30.622 17.378,36 24,36 C30.622,36 36,30.622 36,24 C36,17.378 30.622,12 24,12 L24,12 Z M29.778,24.444 L18.845,24.444 L22.534,28.133 L21.912,28.755 L17.156,23.999 L21.912,19.243 L22.534,19.865 L18.845,23.554 L29.778,23.554 C30.045,23.554 30.222,23.732 30.222,23.998 C30.222,24.264 30.044,24.442 29.778,24.442 L29.778,24.444 Z" id="Shape" fill="#FF4081" sketch:type="MSShapeGroup"></path>
                </g>
            </g>
        </g>
    </g>
</svg>