<?xml version="1.0" encoding="UTF-8" standalone="no"?>
<svg width="24px" height="24px" viewBox="0 0 24 24" version="1.1" xmlns="http://www.w3.org/2000/svg" xmlns:xlink="http://www.w3.org/1999/xlink" xmlns:sketch="http://www.bohemiancoding.com/sketch/ns">
    <!-- Generator: Sketch 3.4.2 (15855) - http://www.bohemiancoding.com/sketch -->
    <title>noteicon-down-solid</title>
    <desc>Created with Sketch.</desc>
    <defs></defs>
    <g id="Symbols" stroke="none" stroke-width="1" fill="none" fill-rule="evenodd" sketch:type="MSPage">
        <g sketch:type="MSArtboardGroup" transform="translate(-276.000000, -372.000000)" id="Group">
            <g sketch:type="MSLayerGroup" transform="translate(24.000000, 24.000000)">
                <g id="noteicon-down-solid" transform="translate(240.000000, 336.000000)">
                    <g id="icon-grid-copy-109"></g>
                    <path d="M24,12 C17.378,12 12,17.378 12,24 C12,30.622 17.378,36 24,36 C30.622,36 36,30.622 36,24 C36,17.378 30.622,12 24,12 L24,12 Z M24,30.622 L19.244,25.866 L19.866,25.244 L23.555,28.933 L23.555,18 C23.555,17.733 23.733,17.556 23.999,17.556 C24.265,17.556 24.443,17.734 24.443,18 L24.443,28.933 L28.132,25.244 L28.754,25.866 L23.998,30.622 L24,30.622 Z" id="Shape" fill="#FF4081" sketch:type="MSShapeGroup"></path>
                </g>
            </g>
        </g>
    </g>
</svg>