<?xml version="1.0" encoding="UTF-8" standalone="no"?>
<svg width="24px" height="24px" viewBox="0 0 24 24" version="1.1" xmlns="http://www.w3.org/2000/svg" xmlns:xlink="http://www.w3.org/1999/xlink" xmlns:sketch="http://www.bohemiancoding.com/sketch/ns">
    <!-- Generator: Sketch 3.4.2 (15855) - http://www.bohemiancoding.com/sketch -->
    <title>noteicon-css3-solid</title>
    <desc>Created with Sketch.</desc>
    <defs></defs>
    <g id="Symbols" stroke="none" stroke-width="1" fill="none" fill-rule="evenodd" sketch:type="MSPage">
        <g sketch:type="MSArtboardGroup" transform="translate(-84.000000, -420.000000)" id="Group">
            <g sketch:type="MSLayerGroup" transform="translate(24.000000, 24.000000)">
                <g id="noteicon-css3-solid" transform="translate(48.000000, 384.000000)">
                    <g id="icon-grid-copy-106"></g>
                    <path d="M35.8796493,12.174 C35.7836493,12.063 35.6466493,12 35.5006493,12 L12.5006493,12 C12.3546493,12 12.2166493,12.063 12.1216493,12.174 C12.0266493,12.285 11.9836493,12.43 12.0056493,12.574 L15.0056493,32.574 C15.0336493,32.757 15.1596493,32.91 15.3336493,32.97 L23.8336493,35.97 C23.8876493,35.99 23.9436493,36 24.0006493,36 C24.0566493,36 24.1126493,35.99 24.1666493,35.971 L32.6666493,32.971 C32.8416493,32.91 32.9676493,32.757 32.9946493,32.575 L35.9946493,12.575 C36.0166493,12.43 35.9746493,12.284 35.8796493,12.174 L35.8796493,12.174 Z M29.7576493,16.929 L21.3056493,22 L28.5006493,22 C28.6456493,22 28.7826493,22.063 28.8786493,22.172 C28.9736493,22.281 29.0166493,22.428 28.9956493,22.57 L27.9956493,29.57 C27.9676493,29.765 27.8276493,29.926 27.6376493,29.98 L24.1376493,30.98 C24.0926493,30.994 24.0466493,31 24.0006493,31 C23.9536493,31 23.9076493,30.994 23.8626493,30.98 L20.3626493,29.98 C20.1746493,29.927 20.0356493,29.768 20.0066493,29.576 L19.5446493,26.576 C19.5026493,26.303 19.6906493,26.048 19.9626493,26.006 C20.2396493,25.962 20.4906493,26.152 20.5326493,26.424 L20.9456493,29.108 L24.0006493,29.979 L27.0516493,29.108 L27.9236493,23 L19.5006493,23 C19.2756493,23 19.0786493,22.85 19.0186493,22.633 C18.9586493,22.417 19.0506493,22.187 19.2436493,22.071 L27.6946493,17 L18.5006493,17 C18.2246493,17 18.0006493,16.776 18.0006493,16.5 C18.0006493,16.224 18.2246493,16 18.5006493,16 L29.5006493,16 C29.7256493,16 29.9226493,16.149 29.9816493,16.366 C30.0426493,16.583 29.9506493,16.813 29.7576493,16.929 L29.7576493,16.929 Z" id="Shape" fill="#FF4081" sketch:type="MSShapeGroup"></path>
                </g>
            </g>
        </g>
    </g>
</svg>