<?xml version="1.0" encoding="UTF-8" standalone="no"?>
<svg width="22px" height="15px" viewBox="0 0 22 15" version="1.1" xmlns="http://www.w3.org/2000/svg" xmlns:xlink="http://www.w3.org/1999/xlink" xmlns:sketch="http://www.bohemiancoding.com/sketch/ns">
    <!-- Generator: Sketch 3.4.2 (15855) - http://www.bohemiancoding.com/sketch -->
    <title>noteicon-social-deviantart-solid</title>
    <desc>Created with Sketch.</desc>
    <defs></defs>
    <g id="Symbols" stroke="none" stroke-width="1" fill="none" fill-rule="evenodd" sketch:type="MSPage">
        <g sketch:type="MSArtboardGroup" transform="translate(-85.000000, -185.000000)" id="Group">
            <g sketch:type="MSLayerGroup" transform="translate(24.000000, 24.000000)">
                <g id="noteicon-social-deviantart-solid" transform="translate(48.000000, 144.000000)">
                    <g id="icon-grid-copy-128"></g>
                    <path d="M34.8088467,23.4770532 C34.6268467,23.2120532 30.2508467,17.0120532 20.8618467,19.3990532 C20.4488467,19.5050532 20.0528467,19.6200532 19.6718467,19.7460532 L18.4128467,17.5090532 C18.1418467,17.0290532 17.5328467,16.8580532 17.0508467,17.1280532 C16.5698467,17.4000532 16.3988467,18.0090532 16.6698467,18.4910532 L17.8088467,20.5130532 C15.9668467,21.4440532 14.6308467,22.7190532 13.8208467,24.3220532 C12.6588467,26.6250532 12.9098467,29.0680532 13.4768467,30.4620532 C13.6338467,30.8460532 14.0058467,31.0840532 14.4028467,31.0840532 C14.4988467,31.0840532 14.5958467,31.0700532 14.6918467,31.0420532 L23.1868467,28.4740532 C23.7498467,28.3070532 24.0898467,27.5940532 23.7698467,27.0260532 L20.6738467,21.5260532 C20.8938467,21.4590532 21.1208467,21.3960532 21.3538467,21.3380532 C27.1138467,19.8730532 30.6228467,22.1040532 32.1908467,23.5460532 L26.2568467,25.3650532 L24.7728467,22.7920532 C24.4968467,22.3130532 23.8848467,22.1490532 23.4068467,22.4250532 C22.9288467,22.7010532 22.7638467,23.3130532 23.0398467,23.7920532 L24.9218467,27.0550532 C25.1548467,27.4580532 25.6368467,27.6480532 26.0808467,27.5110532 L34.2748467,24.9990532 C34.5788467,24.9060532 34.8208467,24.6730532 34.9258467,24.3730532 C35.0328467,24.0720532 34.9888467,23.7400532 34.8088467,23.4770532 L34.8088467,23.4770532 Z M15.6068467,25.2240532 C16.2278467,23.9930532 17.2948467,23.0010532 18.7918467,22.2600532 L21.4158467,26.9210532 L15.0888467,28.8340532 C14.9218467,27.8890532 14.9388467,26.5480532 15.6068467,25.2240532 L15.6068467,25.2240532 Z" id="Shape" fill="#FF4081" sketch:type="MSShapeGroup"></path>
                </g>
            </g>
        </g>
    </g>
</svg>