<?xml version="1.0" encoding="UTF-8" standalone="no"?>
<svg width="23px" height="21px" viewBox="0 0 23 21" version="1.1" xmlns="http://www.w3.org/2000/svg" xmlns:xlink="http://www.w3.org/1999/xlink" xmlns:sketch="http://www.bohemiancoding.com/sketch/ns">
    <!-- Generator: Sketch 3.4.2 (15855) - http://www.bohemiancoding.com/sketch -->
    <title>noteicon-cloud-download-solid</title>
    <desc>Created with Sketch.</desc>
    <defs></defs>
    <g id="Symbols" stroke="none" stroke-width="1" fill="none" fill-rule="evenodd" sketch:type="MSPage">
        <g sketch:type="MSArtboardGroup" transform="translate(-373.000000, -470.000000)" id="Group">
            <g sketch:type="MSLayerGroup" transform="translate(24.000000, 24.000000)">
                <g id="noteicon-cloud-download-solid" transform="translate(336.000000, 432.000000)">
                    <g id="icon-grid-copy-179"></g>
                    <path d="M30.852,18.332 C29.611,15.994 27.152,14.5 24.5,14.5 C20.882,14.5 17.852,17.193 17.377,20.727 C15.012,20.547 12.999,22.451 13,24.803 C13,28.076 15.825,28.979 17.326,29 L23,29 L23,23.695 C23,22.868 23.672,22.195 24.5,22.195 C25.326,22.195 26,22.868 26,23.695 L26,29 L31.233,29 L31.271,28.994 C31.319,28.986 36,28.205 36,23.607 C36,20.74 33.702,18.399 30.852,18.332 L30.852,18.332 L30.852,18.332 Z M27.854,30.65 C27.853,30.648 27.852,30.648 27.852,30.648 C27.66,30.46 27.34,30.46 27.149,30.648 C27.149,30.648 27.147,30.648 27.147,30.65 L25,32.797 L25,24.004 C25,23.728 24.775,23.504 24.5,23.504 C24.224,23.504 24,23.728 24,24.004 L24,32.797 L22.926,31.724 L21.854,30.65 C21.664,30.46 21.348,30.449 21.147,30.65 C20.95,30.847 20.954,31.164 21.147,31.357 L24.145,34.355 C24.336,34.546 24.66,34.55 24.853,34.357 L27.854,31.357 C28.049,31.162 28.049,30.846 27.854,30.65 L27.854,30.65 L27.854,30.65 Z" id="Shape" fill="#FF4081" sketch:type="MSShapeGroup"></path>
                </g>
            </g>
        </g>
    </g>
</svg>