<?xml version="1.0" encoding="UTF-8" standalone="no"?>
<svg width="18px" height="23px" viewBox="0 0 18 23" version="1.1" xmlns="http://www.w3.org/2000/svg" xmlns:xlink="http://www.w3.org/1999/xlink" xmlns:sketch="http://www.bohemiancoding.com/sketch/ns">
    <!-- Generator: Sketch 3.4.2 (15855) - http://www.bohemiancoding.com/sketch -->
    <title>noteicon-social-pintrest-solid</title>
    <desc>Created with Sketch.</desc>
    <defs></defs>
    <g id="Symbols" stroke="none" stroke-width="1" fill="none" fill-rule="evenodd" sketch:type="MSPage">
        <g sketch:type="MSArtboardGroup" transform="translate(-39.000000, -84.000000)" id="Group">
            <g sketch:type="MSLayerGroup" transform="translate(24.000000, 24.000000)">
                <g id="noteicon-social-pintrest-solid" transform="translate(0.000000, 48.000000)">
                    <g id="icon-grid-copy-144"></g>
                    <path d="M24.442,12 C18.165,12 15,16.5 15,20.252 C15,22.524 15.86,24.547 17.705,25.299 C18.008,25.423 18.279,25.303 18.366,24.969 C18.428,24.738 18.572,24.153 18.637,23.908 C18.725,23.577 18.692,23.462 18.447,23.172 C17.915,22.546 17.575,21.733 17.575,20.582 C17.575,17.243 20.073,14.254 24.08,14.254 C27.628,14.254 29.577,16.422 29.577,19.317 C29.577,23.126 27.89,26.341 25.388,26.341 C24.006,26.341 22.972,25.199 23.303,23.796 C23.7,22.121 24.47,20.317 24.47,19.108 C24.47,18.027 23.89,17.125 22.688,17.125 C21.275,17.125 20.14,18.586 20.14,20.545 C20.14,21.792 20.562,22.635 20.562,22.635 C20.562,22.635 19.117,28.761 18.863,29.834 C18.358,31.971 18.787,34.59 18.823,34.854 C18.844,35.011 19.047,35.049 19.137,34.932 C19.267,34.761 20.95,32.682 21.522,30.607 C21.684,30.018 22.451,26.975 22.451,26.975 C22.91,27.851 24.252,28.621 25.679,28.621 C29.926,28.621 32.807,24.75 32.807,19.568 C32.805,15.65 29.487,12 24.442,12 L24.442,12 Z" id="Shape" fill="#FF4081" sketch:type="MSShapeGroup"></path>
                </g>
            </g>
        </g>
    </g>
</svg>