<?xml version="1.0" encoding="UTF-8" standalone="no"?>
<svg width="24px" height="24px" viewBox="0 0 24 24" version="1.1" xmlns="http://www.w3.org/2000/svg" xmlns:xlink="http://www.w3.org/1999/xlink" xmlns:sketch="http://www.bohemiancoding.com/sketch/ns">
    <!-- Generator: Sketch 3.4.2 (15855) - http://www.bohemiancoding.com/sketch -->
    <title>noteicon-social-dropbox</title>
    <desc>Created with Sketch.</desc>
    <defs></defs>
    <g id="Symbols" stroke="none" stroke-width="1" fill="none" fill-rule="evenodd" sketch:type="MSPage">
        <g sketch:type="MSArtboardGroup" transform="translate(-276.000000, -132.000000)" id="Group">
            <g sketch:type="MSLayerGroup" transform="translate(24.000000, 24.000000)">
                <g id="noteicon-social-dropbox" transform="translate(240.000000, 96.000000)">
                    <g id="icon-grid-copy-138"></g>
                    <path d="M31.6226185,20.657668 L35.8126185,17.302668 C35.9386185,17.201668 36.0076185,17.047668 36.0006185,16.887668 C35.9936185,16.727668 35.9086185,16.581668 35.7736185,16.493668 L29.0076185,12.081668 C28.8246185,11.961668 28.5826185,11.974668 28.4146185,12.115668 L24.0006185,15.796668 L19.5866185,12.116668 C19.4176185,11.974668 19.1756185,11.962668 18.9936185,12.081668 L12.2276185,16.493668 C12.0936185,16.581668 12.0086185,16.727668 12.0006185,16.887668 C11.9926185,17.047668 12.0626185,17.201668 12.1876185,17.302668 L16.3776185,20.657668 L12.1876185,24.011668 C12.0636185,24.112668 11.9936185,24.266668 12.0006185,24.427668 C12.0076185,24.588668 12.0926185,24.734668 12.2276185,24.822668 L17.0006185,27.935668 L17.0006185,30.815668 C17.0006185,30.988668 17.0896185,31.148668 17.2356185,31.239668 L23.7496185,35.303668 C23.8306185,35.353668 23.9226185,35.379668 24.0146185,35.379668 C24.1066185,35.379668 24.1986185,35.354668 24.2806185,35.302668 L30.7666185,31.239668 C30.9126185,31.148668 31.0006185,30.988668 31.0006185,30.815668 L31.0006185,27.935668 L35.7736185,24.821668 C35.9086185,24.734668 35.9926185,24.587668 36.0006185,24.426668 C36.0086185,24.265668 35.9386185,24.112668 35.8136185,24.011668 L31.6226185,20.657668 L31.6226185,20.657668 Z M24.0006185,24.281668 L18.1306185,20.657668 L24.0006185,17.034668 L29.8706185,20.657668 L24.0006185,24.281668 L24.0006185,24.281668 Z M28.7716185,13.120668 L34.6486185,16.953668 L30.7846185,20.046668 L24.8536185,16.385668 L28.7716185,13.120668 L28.7716185,13.120668 Z M19.2296185,13.120668 L23.1466185,16.386668 L17.2156185,20.046668 L13.3526185,16.953668 L19.2296185,13.120668 L19.2296185,13.120668 Z M17.2156185,21.267668 L23.1466185,24.927668 L19.2296185,28.195668 L13.3526185,24.361668 L17.2156185,21.267668 L17.2156185,21.267668 Z M30.0006185,30.538668 L24.0136185,34.289668 L18.0006185,30.538668 L18.0006185,28.587668 L18.9936185,29.234668 C19.0766185,29.289668 19.1716185,29.315668 19.2666185,29.315668 C19.3806185,29.315668 19.4946185,29.276668 19.5866185,29.199668 L24.0006185,25.518668 L28.4146185,29.200668 C28.5066185,29.277668 28.6206185,29.316668 28.7346185,29.316668 C28.8296185,29.316668 28.9246185,29.290668 29.0076185,29.235668 L30.0006185,28.587668 L30.0006185,30.538668 L30.0006185,30.538668 Z M28.7716185,28.195668 L24.8546185,24.927668 L30.7856185,21.267668 L34.6496185,24.360668 L28.7716185,28.195668 L28.7716185,28.195668 Z" id="Shape" fill="#FF4081" sketch:type="MSShapeGroup"></path>
                </g>
            </g>
        </g>
    </g>
</svg>