<?xml version="1.0" encoding="UTF-8" standalone="no"?>
<svg width="24px" height="24px" viewBox="0 0 24 24" version="1.1" xmlns="http://www.w3.org/2000/svg" xmlns:xlink="http://www.w3.org/1999/xlink" xmlns:sketch="http://www.bohemiancoding.com/sketch/ns">
    <!-- Generator: Sketch 3.4.2 (15855) - http://www.bohemiancoding.com/sketch -->
    <title>noteicon-ai-solid</title>
    <desc>Created with Sketch.</desc>
    <defs></defs>
    <g id="Symbols" stroke="none" stroke-width="1" fill="none" fill-rule="evenodd" sketch:type="MSPage">
        <g sketch:type="MSArtboardGroup" transform="translate(-372.000000, -708.000000)" id="Group">
            <g sketch:type="MSLayerGroup" transform="translate(24.000000, 24.000000)">
                <g id="noteicon-ai-solid" transform="translate(336.000000, 672.000000)">
                    <g id="icon-grid-copy-69"></g>
                    <path d="M20.044,24.444 L23.111,24.444 L21.555,19.377 L20.044,24.444 Z M30.578,12 L17.422,12 C14.444,12 12,14.444 12,17.422 L12,30.578 C12,33.556 14.444,36 17.422,36 L30.578,36 C33.556,36 36,33.556 36,30.578 L36,17.422 C36,14.444 33.556,12 30.578,12 L30.578,12 Z M24.622,29.778 L23.378,25.778 L19.689,25.778 L18.533,29.778 L17.155,29.778 L20.799,17.334 L22.266,17.334 L26.044,29.778 L24.622,29.778 L24.622,29.778 Z M28.978,29.778 L27.689,29.778 L27.689,20.889 L28.978,20.889 L28.978,29.778 L28.978,29.778 Z M28.889,18.4 C28.756,18.533 28.578,18.622 28.4,18.622 C28.222,18.622 28.044,18.533 27.867,18.4 C27.734,18.267 27.645,18.089 27.645,17.911 C27.645,17.733 27.734,17.555 27.867,17.422 C28,17.289 28.178,17.2 28.4,17.2 C28.578,17.2 28.756,17.289 28.889,17.422 C29.022,17.555 29.111,17.733 29.111,17.955 C29.111,18.177 29.022,18.266 28.889,18.399 L28.889,18.4 Z" id="Shape" fill="#FF4081" sketch:type="MSShapeGroup"></path>
                </g>
            </g>
        </g>
    </g>
</svg>