<?xml version="1.0" encoding="UTF-8" standalone="no"?>
<svg width="7px" height="24px" viewBox="0 0 7 24" version="1.1" xmlns="http://www.w3.org/2000/svg" xmlns:xlink="http://www.w3.org/1999/xlink" xmlns:sketch="http://www.bohemiancoding.com/sketch/ns">
    <!-- Generator: Sketch 3.4.2 (15855) - http://www.bohemiancoding.com/sketch -->
    <title>noteicon-menu-v-solid</title>
    <desc>Created with Sketch.</desc>
    <defs></defs>
    <g id="Symbols" stroke="none" stroke-width="1" fill="none" fill-rule="evenodd" sketch:type="MSPage">
        <g sketch:type="MSArtboardGroup" transform="translate(-92.000000, -276.000000)" id="Group">
            <g sketch:type="MSLayerGroup" transform="translate(24.000000, 24.000000)">
                <g id="noteicon-menu-v-solid" transform="translate(48.000000, 240.000000)">
                    <g id="icon-grid-copy-167"></g>
                    <path d="M23.2,18.4 C24.96,18.4 26.4,16.96 26.4,15.2 C26.4,13.44 24.96,12 23.2,12 C21.44,12 20,13.44 20,15.2 C20,16.96 21.44,18.4 23.2,18.4 L23.2,18.4 Z M23.2,29.6 C21.44,29.6 20,31.04 20,32.8 C20,34.56 21.44,36 23.2,36 C24.96,36 26.4,34.56 26.4,32.8 C26.4,31.04 24.96,29.6 23.2,29.6 L23.2,29.6 Z M23.2,20.8 C21.44,20.8 20,22.24 20,24 C20,25.76 21.44,27.2 23.2,27.2 C24.96,27.2 26.4,25.76 26.4,24 C26.4,22.24 24.96,20.8 23.2,20.8 L23.2,20.8 Z" id="Shape" fill="#FF4081" sketch:type="MSShapeGroup"></path>
                </g>
            </g>
        </g>
    </g>
</svg>