<?xml version="1.0" encoding="UTF-8" standalone="no"?>
<svg width="24px" height="25px" viewBox="0 0 24 25" version="1.1" xmlns="http://www.w3.org/2000/svg" xmlns:xlink="http://www.w3.org/1999/xlink" xmlns:sketch="http://www.bohemiancoding.com/sketch/ns">
    <!-- Generator: Sketch 3.4.2 (15855) - http://www.bohemiancoding.com/sketch -->
    <title>noteicon-forum-solid</title>
    <desc>Created with Sketch.</desc>
    <defs></defs>
    <g id="Symbols" stroke="none" stroke-width="1" fill="none" fill-rule="evenodd" sketch:type="MSPage">
        <g sketch:type="MSArtboardGroup" transform="translate(-180.000000, -371.000000)" id="Group">
            <g sketch:type="MSLayerGroup" transform="translate(24.000000, 24.000000)">
                <g id="noteicon-forum-solid" transform="translate(144.000000, 336.000000)">
                    <g id="icon-grid-copy"></g>
                    <path d="M35.5,23.9675 L21.229,23.9675 L16.807,27.4065 C16.718,27.4765 16.609,27.5125 16.5,27.5125 C16.425,27.5125 16.35,27.4955 16.28,27.4615 C16.109,27.3775 16,27.2025 16,27.0125 L16,23.9675 L12.5,23.9675 C12.224,23.9675 12,24.1915 12,24.4675 L12,31.4675 C12,31.7435 12.224,31.9675 12.5,31.9675 L25.81,31.9675 L30.168,35.8415 C30.261,35.9245 30.38,35.9675 30.5,35.9675 C30.569,35.9675 30.639,35.9525 30.705,35.9235 C30.884,35.8435 31,35.6645 31,35.4675 L31,31.9675 L35.5,31.9675 C35.776,31.9675 36,31.7435 36,31.4675 L36,24.4675 C36,24.1915 35.776,23.9675 35.5,23.9675 Z M35.5,11.9675 L12.5,11.9675 C12.224,11.9675 12,12.1915 12,12.4675 L12,20.4675 C12,20.7435 12.224,20.9675 12.5,20.9675 L16.5,20.9675 L17,20.9675 L17,21.4675 L17,23.9675 L17,24.9895 L22.036,21.0725 L22.037,21.0715 L22.172,20.9675 L22.343,20.9675 L35.5,20.9675 C35.776,20.9675 36,20.7435 36,20.4675 L36,12.4675 C36,12.1915 35.776,11.9675 35.5,11.9675 Z" id="Fill-121" fill="#FF4081" sketch:type="MSShapeGroup"></path>
                </g>
            </g>
        </g>
    </g>
</svg>