<?xml version="1.0" encoding="UTF-8" standalone="no"?>
<svg width="24px" height="22px" viewBox="0 0 24 22" version="1.1" xmlns="http://www.w3.org/2000/svg" xmlns:xlink="http://www.w3.org/1999/xlink" xmlns:sketch="http://www.bohemiancoding.com/sketch/ns">
    <!-- Generator: Sketch 3.4.2 (15855) - http://www.bohemiancoding.com/sketch -->
    <title>noteicon-dialouge</title>
    <desc>Created with Sketch.</desc>
    <defs></defs>
    <g id="Symbols" stroke="none" stroke-width="1" fill="none" fill-rule="evenodd" sketch:type="MSPage">
        <g sketch:type="MSArtboardGroup" transform="translate(-36.000000, -421.000000)" id="Group">
            <g sketch:type="MSLayerGroup" transform="translate(24.000000, 24.000000)">
                <g id="noteicon-dialouge" transform="translate(0.000000, 384.000000)">
                    <g id="icon-grid-copy-108"></g>
                    <path d="M33.6,13 L14.4,13 C13.08,13 12,14.08 12,15.4 L12,28.6 C12,29.92 13.08,31 14.4,31 L20.24,31 L23.72,34.88 C23.8,34.96 23.92,35 24,35 C24.08,35 24.24,34.96 24.28,34.88 L27.76,31 L33.6,31 C34.92,31 36,29.92 36,28.6 L36,15.4 C36,14.08 34.92,13 33.6,13 L33.6,13 Z" id="Shape" fill="#FF4081" sketch:type="MSShapeGroup"></path>
                </g>
            </g>
        </g>
    </g>
</svg>