<?xml version="1.0" encoding="UTF-8" standalone="no"?>
<svg width="24px" height="22px" viewBox="0 0 24 22" version="1.1" xmlns="http://www.w3.org/2000/svg" xmlns:xlink="http://www.w3.org/1999/xlink" xmlns:sketch="http://www.bohemiancoding.com/sketch/ns">
    <!-- Generator: Sketch 3.4.2 (15855) - http://www.bohemiancoding.com/sketch -->
    <title>noteicon-social-google-plus</title>
    <desc>Created with Sketch.</desc>
    <defs></defs>
    <g id="Symbols" stroke="none" stroke-width="1" fill="none" fill-rule="evenodd" sketch:type="MSPage">
        <g sketch:type="MSArtboardGroup" transform="translate(-276.000000, -86.000000)" id="Group">
            <g sketch:type="MSLayerGroup" transform="translate(24.000000, 24.000000)">
                <g id="noteicon-social-google-plus" transform="translate(240.000000, 48.000000)">
                    <g id="icon-grid-copy-149"></g>
                    <path d="M21.071,27.471 C20.61,27.33 20.122,27.255 19.616,27.249 L19.56,27.249 C17.175,27.249 15.161,28.711 15.161,30.442 C15.161,32.282 16.941,33.724 19.214,33.724 C22.901,33.724 23.675,31.988 23.675,30.531 C23.675,30.326 23.65,30.113 23.597,29.888 C23.373,29.011 22.639,28.511 21.619,27.815 L21.211,27.536 C21.167,27.509 21.121,27.486 21.071,27.471 L21.071,27.471 Z M22.625,30.128 C22.658,30.267 22.674,30.403 22.674,30.532 C22.674,31.074 22.674,32.725 19.213,32.725 C17.501,32.725 16.16,31.723 16.16,30.443 C16.16,29.295 17.78,28.25 19.559,28.25 L19.559,27.75 L19.61,28.25 C19.989,28.254 20.358,28.307 20.707,28.407 L21.058,28.646 C21.955,29.257 22.496,29.626 22.625,30.128 L22.625,30.128 Z M25.709,14 L19.608,14 C18.887,14 18.156,14.126 17.435,14.375 C15.012,15.208 13.319,17.296 13.319,19.452 C13.319,22.281 15.393,24.502 18.228,24.823 C18.224,24.885 18.222,24.946 18.222,25.007 C18.222,25.259 18.254,25.507 18.319,25.748 C15.674,25.947 13.35,27.336 12.413,29.331 C12.139,29.914 12,30.509 12,31.098 C12,31.684 12.15,32.249 12.445,32.78 C13.099,33.949 14.469,34.848 16.302,35.31 C17.219,35.542 18.202,35.66 19.225,35.66 C20.151,35.66 21.037,35.54 21.858,35.302 C24.496,34.537 26.2,32.567 26.2,30.284 C26.2,28.153 25.486,26.817 23.654,25.52 C23.032,25.08 22.568,24.537 22.462,24.35 C22.469,24.142 22.542,24.007 23.257,23.45 C24.61,22.391 25.355,20.986 25.355,19.492 C25.355,18.526 25.138,17.621 24.734,16.866 C24.798,16.839 24.859,16.803 24.918,16.762 L26.28,15.775 C26.628,15.526 26.772,15.085 26.639,14.678 C26.509,14.272 26.134,14 25.709,14 L25.709,14 Z M24.344,15.947 L23.856,15.947 C23.662,15.947 23.485,16.059 23.403,16.235 C23.321,16.411 23.348,16.619 23.472,16.767 C24.042,17.451 24.357,18.417 24.357,19.491 C24.357,20.67 23.748,21.796 22.644,22.661 C21.684,23.409 21.463,23.739 21.463,24.448 C21.493,25.032 22.564,25.972 23.078,26.336 C24.646,27.445 25.202,28.479 25.202,30.283 C25.202,32.11 23.781,33.703 21.581,34.341 C20.026,34.791 18.127,34.739 16.548,34.34 C14.984,33.946 13.837,33.219 13.319,32.292 C13.107,31.914 13,31.511 13,31.098 C13,30.657 13.107,30.206 13.319,29.756 C14.171,27.943 16.443,26.724 19.053,26.724 C19.231,26.724 19.396,26.629 19.485,26.475 C19.575,26.321 19.575,26.131 19.487,25.976 C19.309,25.663 19.222,25.346 19.222,25.007 C19.222,24.838 19.244,24.667 19.291,24.485 C19.328,24.338 19.296,24.182 19.204,24.06 C19.112,23.938 18.97,23.866 18.817,23.862 C16.211,23.803 14.318,21.948 14.318,19.452 C14.318,17.716 15.733,16.017 17.759,15.32 C18.376,15.107 18.998,15 19.608,15 L25.696,14.963 L24.344,15.947 L24.344,15.947 Z M18.782,15.823 L18.778,15.823 C18.16,15.823 17.59,16.085 17.175,16.56 C16.577,17.242 16.321,18.293 16.473,19.443 C16.744,21.513 18.249,23.236 19.866,23.283 C20.502,23.283 21.062,23.028 21.483,22.547 C22.086,21.86 22.355,20.761 22.203,19.608 C21.932,17.535 20.457,15.873 18.836,15.824 L18.782,15.823 L18.782,15.823 Z M21.212,19.738 C21.325,20.597 21.14,21.421 20.731,21.888 C20.499,22.154 20.215,22.283 19.859,22.283 C18.786,22.252 17.668,20.863 17.464,19.313 C17.351,18.448 17.519,17.686 17.927,17.219 C18.156,16.956 18.442,16.823 18.777,16.823 L18.777,16.323 L18.817,16.823 C19.912,16.857 21.009,18.191 21.212,19.738 L21.212,19.738 Z M35.5,22 L33,22 L33,19.5 C33,19.224 32.776,19 32.5,19 L30.5,19 C30.224,19 30,19.224 30,19.5 L30,22 L27.5,22 C27.224,22 27,22.224 27,22.5 L27,24.5 C27,24.776 27.224,25 27.5,25 L30,25 L30,27.5 C30,27.776 30.224,28 30.5,28 L32.5,28 C32.776,28 33,27.776 33,27.5 L33,25 L35.5,25 C35.776,25 36,24.776 36,24.5 L36,22.5 C36,22.224 35.776,22 35.5,22 L35.5,22 Z M35,24 L32.5,24 C32.224,24 32,24.224 32,24.5 L32,27 L31,27 L31,24.5 C31,24.224 30.776,24 30.5,24 L28,24 L28,23 L30.5,23 C30.776,23 31,22.776 31,22.5 L31,20 L32,20 L32,22.5 C32,22.776 32.224,23 32.5,23 L35,23 L35,24 L35,24 Z" id="Shape" fill="#FF4081" sketch:type="MSShapeGroup"></path>
                </g>
            </g>
        </g>
    </g>
</svg>