<?xml version="1.0" encoding="UTF-8" standalone="no"?>
<svg width="24px" height="24px" viewBox="0 0 24 24" version="1.1" xmlns="http://www.w3.org/2000/svg" xmlns:xlink="http://www.w3.org/1999/xlink" xmlns:sketch="http://www.bohemiancoding.com/sketch/ns">
    <!-- Generator: Sketch 3.4.2 (15855) - http://www.bohemiancoding.com/sketch -->
    <title>noteicon-left</title>
    <desc>Created with Sketch.</desc>
    <defs></defs>
    <g id="Symbols" stroke="none" stroke-width="1" fill="none" fill-rule="evenodd" sketch:type="MSPage">
        <g sketch:type="MSArtboardGroup" transform="translate(-36.000000, -324.000000)" id="Group">
            <g sketch:type="MSLayerGroup" transform="translate(24.000000, 24.000000)">
                <g id="noteicon-left" transform="translate(0.000000, 288.000000)">
                    <g id="icon-grid-copy-118"></g>
                    <path d="M24,36 C17.378,36 12,30.622 12,24 C12,17.378 17.378,12 24,12 C30.622,12 36,17.378 36,24 C36,30.622 30.622,36 24,36 L24,36 Z M24,12.889 C17.867,12.889 12.889,17.867 12.889,24 C12.889,30.133 17.867,35.111 24,35.111 C30.133,35.111 35.111,30.133 35.111,24 C35.111,17.867 30.133,12.889 24,12.889 L24,12.889 Z M29.778,24.444 L18.222,24.444 C17.955,24.444 17.778,24.266 17.778,24 C17.778,23.734 17.956,23.556 18.222,23.556 L29.778,23.556 C30.045,23.556 30.222,23.734 30.222,24 C30.222,24.266 30.044,24.444 29.778,24.444 L29.778,24.444 Z M21.911,28.756 L17.155,24 L21.911,19.244 L22.533,19.866 L18.4,23.999 L22.533,28.132 L21.911,28.756 Z" id="Shape" fill="#FF4081" sketch:type="MSShapeGroup"></path>
                </g>
            </g>
        </g>
    </g>
</svg>