<?xml version="1.0" encoding="UTF-8" standalone="no"?>
<svg width="25px" height="22px" viewBox="0 0 25 22" version="1.1" xmlns="http://www.w3.org/2000/svg" xmlns:xlink="http://www.w3.org/1999/xlink" xmlns:sketch="http://www.bohemiancoding.com/sketch/ns">
    <!-- Generator: Sketch 3.4.2 (15855) - http://www.bohemiancoding.com/sketch -->
    <title>noteicon-sketch-solid</title>
    <desc>Created with Sketch.</desc>
    <defs></defs>
    <g id="Symbols" stroke="none" stroke-width="1" fill="none" fill-rule="evenodd" sketch:type="MSPage">
        <g sketch:type="MSArtboardGroup" transform="translate(-180.000000, -181.000000)" id="Group">
            <g sketch:type="MSLayerGroup" transform="translate(24.000000, 24.000000)">
                <g id="noteicon-sketch-solid" transform="translate(144.000000, 144.000000)">
                    <g id="icon-grid-copy-164"></g>
                    <path d="M12.133,20.111 L22.755,33.311 L17.911,20.111 L12.133,20.111 Z M18.889,20.111 L24,34.155 L29.244,20.111 L18.889,20.111 Z M25.156,33.623 L36.045,20.112 L30.178,20.112 L25.156,33.623 Z M31.911,13 L25.022,13 L29.733,18.778 L31.911,13 Z M28.933,19.223 L24.089,13.267 L19.245,19.223 L28.933,19.223 Z M23.156,13 L16.267,13 L18.4,18.822 L23.156,13 Z M15.556,13.578 L12,19.222 L17.6,19.222 L15.556,13.578 Z M36.178,19.223 L32.622,13.579 L30.533,19.223 L36.178,19.223 Z" id="Shape" fill="#FF4081" sketch:type="MSShapeGroup"></path>
                </g>
            </g>
        </g>
    </g>
</svg>