<?xml version="1.0" encoding="UTF-8" standalone="no"?>
<svg width="24px" height="21px" viewBox="0 0 24 21" version="1.1" xmlns="http://www.w3.org/2000/svg" xmlns:xlink="http://www.w3.org/1999/xlink" xmlns:sketch="http://www.bohemiancoding.com/sketch/ns">
    <!-- Generator: Sketch 3.4.2 (15855) - http://www.bohemiancoding.com/sketch -->
    <title>noteicon-code-binary-solid</title>
    <desc>Created with Sketch.</desc>
    <defs></defs>
    <g id="Symbols" stroke="none" stroke-width="1" fill="none" fill-rule="evenodd" sketch:type="MSPage">
        <g sketch:type="MSArtboardGroup" transform="translate(-276.000000, -470.000000)" id="Group">
            <g sketch:type="MSLayerGroup" transform="translate(24.000000, 24.000000)">
                <g id="noteicon-code-binary-solid" transform="translate(240.000000, 432.000000)">
                    <g id="icon-grid-copy-180"></g>
                    <path d="M12,29 L12,30.911 C12,32.062 12.897,33 14,33 L23,33 L23,34 L17,34 C16.724,34 16.5,34.224 16.5,34.5 C16.5,34.776 16.724,35 17,35 L31,35 C31.276,35 31.5,34.776 31.5,34.5 C31.5,34.224 31.276,34 31,34 L24,34 L24,33 L34,33 C35.103,33 36,32.062 36,30.911 L36,29 L12,29 L12,29 Z M24,32 C23.448,32 23,31.551 23,31 C23,30.449 23.448,30 24,30 C24.552,30 25,30.449 25,31 C25,31.551 24.552,32 24,32 L24,32 Z M27.267,22.682 C27.122,22.682 26.852,22.682 26.852,23.973 C26.852,25.263 27.122,25.263 27.267,25.263 C27.412,25.263 27.681,25.263 27.681,23.973 C27.681,22.682 27.411,22.682 27.267,22.682 L27.267,22.682 Z M20.315,22.682 C20.169,22.682 19.9,22.682 19.9,23.973 C19.9,25.263 20.169,25.263 20.315,25.263 C20.461,25.263 20.73,25.263 20.73,23.973 C20.731,22.682 20.461,22.682 20.315,22.682 L20.315,22.682 Z M16.84,17.763 C16.696,17.763 16.426,17.763 16.426,19.053 C16.426,20.344 16.696,20.344 16.84,20.344 C16.986,20.344 17.255,20.344 17.255,19.053 C17.255,17.763 16.985,17.763 16.84,17.763 L16.84,17.763 Z M34,14 L14,14 C12.897,14 12,14.937 12,16.089 L12,28 L36,28 L36,16.089 C36,14.937 35.103,14 34,14 L34,14 Z M26.712,17.337 L27.131,16.939 C27.275,16.801 27.489,16.763 27.673,16.842 C27.857,16.921 27.976,17.102 27.976,17.301 L27.976,20.805 C27.976,21.081 27.752,21.305 27.476,21.305 C27.2,21.305 26.976,21.081 26.976,20.805 L26.976,18.193 C26.872,18.175 26.773,18.126 26.695,18.044 C26.504,17.844 26.512,17.527 26.712,17.337 L26.712,17.337 Z M19.761,17.337 L20.18,16.938 C20.324,16.8 20.538,16.762 20.722,16.841 C20.906,16.92 21.025,17.101 21.025,17.3 L21.025,20.804 C21.025,21.08 20.801,21.304 20.525,21.304 C20.249,21.304 20.025,21.08 20.025,20.804 L20.025,18.193 C19.921,18.176 19.821,18.126 19.743,18.044 C19.553,17.844 19.561,17.527 19.761,17.337 L19.761,17.337 Z M17.551,25.726 C17.551,26.002 17.327,26.226 17.051,26.226 C16.775,26.226 16.551,26.002 16.551,25.726 L16.551,23.114 C16.448,23.097 16.348,23.048 16.27,22.965 C16.079,22.766 16.086,22.449 16.286,22.258 L16.706,21.858 C16.852,21.719 17.063,21.68 17.247,21.76 C17.432,21.838 17.551,22.019 17.551,22.219 L17.551,25.726 L17.551,25.726 Z M16.84,21.344 C15.426,21.344 15.426,19.68 15.426,19.053 C15.426,18.427 15.426,16.763 16.84,16.763 C18.254,16.763 18.255,18.427 18.255,19.053 C18.255,19.68 18.255,21.344 16.84,21.344 L16.84,21.344 Z M20.315,26.263 C18.9,26.263 18.9,24.6 18.9,23.973 C18.9,23.347 18.9,21.682 20.315,21.682 C21.73,21.682 21.73,23.347 21.73,23.973 C21.731,24.6 21.731,26.263 20.315,26.263 L20.315,26.263 Z M24.5,25.726 C24.5,26.002 24.276,26.226 24,26.226 C23.724,26.226 23.5,26.002 23.5,25.726 L23.5,23.114 C23.398,23.096 23.299,23.048 23.221,22.966 C23.031,22.767 23.037,22.449 23.237,22.259 L23.655,21.859 C23.799,21.719 24.012,21.682 24.197,21.759 C24.382,21.838 24.501,22.019 24.501,22.219 L24.501,25.726 L24.5,25.726 Z M23.791,21.344 C22.376,21.344 22.376,19.68 22.376,19.053 C22.376,18.427 22.376,16.763 23.791,16.763 C25.206,16.763 25.206,18.427 25.206,19.053 C25.206,19.68 25.206,21.344 23.791,21.344 L23.791,21.344 Z M27.267,26.263 C25.852,26.263 25.852,24.6 25.852,23.973 C25.852,23.347 25.852,21.682 27.267,21.682 C28.682,21.682 28.681,23.347 28.681,23.973 C28.681,24.6 28.681,26.263 27.267,26.263 L27.267,26.263 Z M31.451,25.726 C31.451,26.002 31.227,26.226 30.951,26.226 C30.675,26.226 30.451,26.002 30.451,25.726 L30.451,23.114 C30.347,23.097 30.248,23.048 30.17,22.965 C29.979,22.766 29.986,22.449 30.186,22.258 L30.606,21.858 C30.753,21.719 30.963,21.68 31.148,21.76 C31.333,21.838 31.452,22.019 31.452,22.219 L31.452,25.726 L31.451,25.726 Z M31.451,20.805 C31.451,21.081 31.227,21.305 30.951,21.305 C30.675,21.305 30.451,21.081 30.451,20.805 L30.451,18.193 C30.347,18.175 30.247,18.126 30.169,18.044 C29.979,17.844 29.986,17.527 30.188,17.336 L30.608,16.938 C30.753,16.801 30.965,16.763 31.149,16.842 C31.333,16.92 31.452,17.102 31.452,17.301 L31.452,20.805 L31.451,20.805 Z M23.791,17.763 C23.645,17.763 23.376,17.763 23.376,19.053 C23.376,20.344 23.645,20.344 23.791,20.344 C23.936,20.344 24.206,20.344 24.206,19.053 C24.206,17.763 23.936,17.763 23.791,17.763 L23.791,17.763 Z" id="Shape" fill="#FF4081" sketch:type="MSShapeGroup"></path>
                </g>
            </g>
        </g>
    </g>
</svg>