<?xml version="1.0" encoding="UTF-8" standalone="no"?>
<svg width="24px" height="24px" viewBox="0 0 24 24" version="1.1" xmlns="http://www.w3.org/2000/svg" xmlns:xlink="http://www.w3.org/1999/xlink" xmlns:sketch="http://www.bohemiancoding.com/sketch/ns">
    <!-- Generator: Sketch 3.4.2 (15855) - http://www.bohemiancoding.com/sketch -->
    <title>noteicon-circle-error</title>
    <desc>Created with Sketch.</desc>
    <defs></defs>
    <g id="Symbols" stroke="none" stroke-width="1" fill="none" fill-rule="evenodd" sketch:type="MSPage">
        <g sketch:type="MSArtboardGroup" transform="translate(-36.000000, -660.000000)" id="Group">
            <g sketch:type="MSLayerGroup" transform="translate(24.000000, 24.000000)">
                <g id="noteicon-circle-error" transform="translate(0.000000, 624.000000)">
                    <g id="icon-grid-copy-81"></g>
                    <path d="M24,12 C17.4,12 12,17.4 12,24 C12,30.6 17.4,36 24,36 C30.6,36 36,30.6 36,24 C36,17.4 30.6,12 24,12 L24,12 Z M24,35.077 C17.908,35.077 12.923,30.092 12.923,24 C12.923,17.908 17.908,12.923 24,12.923 C30.092,12.923 35.077,17.908 35.077,24 C35.077,30.092 30.092,35.077 24,35.077 L24,35.077 Z M24,16.615 C23.723,16.615 23.538,16.8 23.538,17.077 L23.538,27.231 C23.538,27.508 23.723,27.693 24,27.693 C24.277,27.693 24.462,27.508 24.462,27.231 L24.462,17.077 C24.462,16.8 24.277,16.615 24,16.615 L24,16.615 Z M24,29.077 C23.723,29.077 23.538,29.262 23.538,29.539 L23.538,30.462 C23.538,30.739 23.723,30.924 24,30.924 C24.277,30.924 24.462,30.739 24.462,30.462 L24.462,29.539 C24.462,29.262 24.277,29.077 24,29.077 L24,29.077 Z" id="Shape" fill="#FF4081" sketch:type="MSShapeGroup"></path>
                </g>
            </g>
        </g>
    </g>
</svg>