<?xml version="1.0" encoding="UTF-8" standalone="no"?>
<svg width="24px" height="24px" viewBox="0 0 24 24" version="1.1" xmlns="http://www.w3.org/2000/svg" xmlns:xlink="http://www.w3.org/1999/xlink" xmlns:sketch="http://www.bohemiancoding.com/sketch/ns">
    <!-- Generator: Sketch 3.4.2 (15855) - http://www.bohemiancoding.com/sketch -->
    <title>noteicon-social-skype</title>
    <desc>Created with Sketch.</desc>
    <defs></defs>
    <g id="Symbols" stroke="none" stroke-width="1" fill="none" fill-rule="evenodd" sketch:type="MSPage">
        <g sketch:type="MSArtboardGroup" transform="translate(-372.000000, -37.000000)" id="Group">
            <g sketch:type="MSLayerGroup" transform="translate(24.000000, 24.000000)">
                <g id="noteicon-social-skype" transform="translate(336.000000, 0.000000)">
                    <g id="icon-grid-copy-152"></g>
                    <path d="M35.05,27.379 C35.199,26.638 35.275,25.879 35.275,25.121 C35.275,18.881 30.199,13.805 23.96,13.805 C23.382,13.805 22.795,13.85 22.212,13.94 C21.173,13.325 19.988,13 18.773,13 C15.039,13 12,16.039 12,19.774 C12,20.914 12.289,22.035 12.836,23.032 C12.709,23.717 12.644,24.419 12.644,25.121 C12.644,31.36 17.721,36.436 23.96,36.436 C24.596,36.436 25.234,36.383 25.859,36.278 C26.801,36.751 27.85,37 28.905,37 C32.639,37 35.677,33.962 35.677,30.228 C35.678,29.231 35.467,28.274 35.05,27.379 L35.05,27.379 Z M28.905,36 C27.955,36 27.011,35.764 26.175,35.316 C26.102,35.277 26.021,35.257 25.939,35.257 C25.909,35.257 25.879,35.261 25.849,35.265 C25.229,35.379 24.593,35.436 23.96,35.436 C18.272,35.436 13.644,30.809 13.644,25.121 C13.644,24.422 13.714,23.724 13.852,23.046 C13.877,22.925 13.856,22.799 13.793,22.692 C13.274,21.81 13,20.799 13,19.774 C13,16.59 15.59,14 18.773,14 C19.863,14 20.924,14.307 21.842,14.887 C21.946,14.953 22.073,14.979 22.193,14.956 C22.782,14.856 23.377,14.805 23.96,14.805 C29.648,14.805 34.275,19.433 34.275,25.121 C34.275,25.866 34.195,26.611 34.037,27.336 C34.013,27.447 34.027,27.563 34.078,27.665 C34.475,28.465 34.677,29.327 34.677,30.228 C34.678,33.411 32.088,36 28.905,36 L28.905,36 Z M28.879,24.268 C28.341,23.915 27.678,23.611 26.906,23.363 C26.18,23.131 25.36,22.916 24.475,22.726 C23.794,22.569 23.297,22.447 22.998,22.364 C22.739,22.293 22.477,22.192 22.221,22.063 C22.007,21.955 21.845,21.834 21.739,21.703 C21.666,21.613 21.635,21.52 21.635,21.39 C21.635,21.238 21.686,21.03 22.082,20.77 C22.465,20.518 23.003,20.39 23.68,20.39 C24.582,20.39 24.995,20.561 25.184,20.706 C25.5,20.946 25.78,21.294 26.025,21.759 C26.282,22.202 26.526,22.524 26.774,22.744 C27.429,23.319 28.758,23.314 29.506,22.54 C29.887,22.144 30.089,21.662 30.089,21.149 C30.089,20.662 29.955,20.167 29.692,19.679 C29.439,19.207 29.041,18.757 28.507,18.34 C27.985,17.932 27.33,17.604 26.561,17.365 C25.801,17.13 24.903,17.011 23.89,17.011 C22.621,17.011 21.494,17.19 20.543,17.542 C19.543,17.911 18.762,18.456 18.22,19.164 C17.663,19.887 17.381,20.726 17.381,21.657 C17.381,22.63 17.653,23.464 18.19,24.137 C18.7,24.775 19.391,25.283 20.245,25.645 C21.037,25.981 22.021,26.276 23.171,26.52 C23.982,26.691 24.634,26.853 25.109,27.001 C25.511,27.127 25.835,27.304 26.071,27.525 C26.25,27.693 26.33,27.897 26.33,28.185 C26.33,28.437 26.264,28.771 25.748,29.123 C25.282,29.441 24.644,29.603 23.851,29.603 C23.284,29.603 22.815,29.523 22.495,29.371 C22.179,29.222 21.936,29.036 21.772,28.817 C21.577,28.561 21.389,28.226 21.213,27.824 C21.009,27.347 20.751,26.972 20.442,26.71 C20.095,26.417 19.653,26.262 19.167,26.262 C18.582,26.262 18.086,26.45 17.695,26.818 C17.297,27.193 17.087,27.672 17.087,28.202 C17.087,28.943 17.35,29.697 17.868,30.442 C18.368,31.164 19.026,31.749 19.825,32.18 C20.915,32.758 22.297,33.051 23.932,33.051 C25.293,33.051 26.495,32.838 27.503,32.417 C28.549,31.983 29.362,31.364 29.919,30.577 C30.481,29.781 30.766,28.871 30.766,27.875 C30.766,27.042 30.597,26.319 30.263,25.726 C29.93,25.139 29.464,24.648 28.879,24.268 L28.879,24.268 Z M29.1,30.002 C28.654,30.632 27.988,31.135 27.118,31.495 C26.231,31.865 25.159,32.052 23.93,32.052 C22.46,32.052 21.236,31.798 20.294,31.298 C19.638,30.945 19.098,30.465 18.688,29.873 C18.288,29.298 18.085,28.736 18.085,28.204 C18.085,27.949 18.181,27.735 18.379,27.548 C18.582,27.357 18.838,27.264 19.165,27.264 C19.42,27.264 19.626,27.333 19.794,27.475 C19.982,27.635 20.15,27.885 20.294,28.224 C20.503,28.702 20.732,29.106 20.974,29.423 C21.235,29.77 21.603,30.057 22.067,30.277 C22.526,30.495 23.127,30.605 23.851,30.605 C24.849,30.605 25.677,30.385 26.312,29.952 C26.988,29.492 27.331,28.897 27.331,28.187 C27.331,27.623 27.138,27.156 26.756,26.797 C26.408,26.472 25.956,26.22 25.408,26.047 C24.902,25.89 24.219,25.72 23.379,25.543 C22.293,25.311 21.37,25.037 20.637,24.726 C19.938,24.429 19.378,24.02 18.973,23.514 C18.581,23.023 18.383,22.399 18.383,21.658 C18.383,20.952 18.595,20.319 19.014,19.775 C19.438,19.218 20.069,18.783 20.889,18.48 C21.729,18.168 22.739,18.011 23.889,18.011 C24.802,18.011 25.601,18.115 26.264,18.32 C26.917,18.523 27.464,18.795 27.89,19.128 C28.313,19.459 28.622,19.803 28.81,20.153 C28.995,20.494 29.088,20.829 29.088,21.149 C29.088,21.406 28.988,21.635 28.785,21.847 C28.583,22.055 28.337,22.157 28.033,22.157 C27.845,22.157 27.588,22.128 27.435,21.994 C27.273,21.849 27.09,21.601 26.899,21.274 C26.595,20.697 26.222,20.238 25.789,19.909 C25.331,19.559 24.641,19.389 23.679,19.389 C22.803,19.389 22.08,19.573 21.532,19.933 C20.936,20.323 20.634,20.813 20.634,21.389 C20.634,21.748 20.745,22.066 20.963,22.333 C21.158,22.573 21.429,22.782 21.772,22.955 C22.088,23.114 22.413,23.239 22.732,23.327 C23.036,23.413 23.548,23.538 24.258,23.702 C25.118,23.887 25.906,24.093 26.601,24.315 C27.286,24.535 27.868,24.8 28.332,25.105 C28.782,25.398 29.138,25.772 29.388,26.217 C29.637,26.659 29.763,27.218 29.763,27.877 C29.764,28.662 29.54,29.377 29.1,30.002 L29.1,30.002 Z" id="Shape" fill="#FF4081" sketch:type="MSShapeGroup"></path>
                </g>
            </g>
        </g>
    </g>
</svg>