<?xml version="1.0" encoding="UTF-8" standalone="no"?>
<svg width="24px" height="21px" viewBox="0 0 24 21" version="1.1" xmlns="http://www.w3.org/2000/svg" xmlns:xlink="http://www.w3.org/1999/xlink" xmlns:sketch="http://www.bohemiancoding.com/sketch/ns">
    <!-- Generator: Sketch 3.4.2 (15855) - http://www.bohemiancoding.com/sketch -->
    <title>noteicon-code-html-solid</title>
    <desc>Created with Sketch.</desc>
    <defs></defs>
    <g id="Symbols" stroke="none" stroke-width="1" fill="none" fill-rule="evenodd" sketch:type="MSPage">
        <g sketch:type="MSArtboardGroup" transform="translate(-84.000000, -470.000000)" id="Group">
            <g sketch:type="MSLayerGroup" transform="translate(24.000000, 24.000000)">
                <g id="noteicon-code-html-solid" transform="translate(48.000000, 432.000000)">
                    <g id="icon-grid-copy-99"></g>
                    <path d="M12,29 L12,30.911 C12,32.062 12.897,33 14,33 L23,33 L23,34 L17,34 C16.724,34 16.5,34.224 16.5,34.5 C16.5,34.776 16.724,35 17,35 L31,35 C31.276,35 31.5,34.776 31.5,34.5 C31.5,34.224 31.276,34 31,34 L24,34 L24,33 L34,33 C35.103,33 36,32.062 36,30.911 L36,29 L12,29 L12,29 Z M24,32 C23.448,32 23,31.551 23,31 C23,30.449 23.448,30 24,30 C24.552,30 25,30.449 25,31 C25,31.551 24.552,32 24,32 L24,32 Z M34,14 L14,14 C12.897,14 12,14.937 12,16.089 L12,28 L36,28 L36,16.089 C36,14.937 35.103,14 34,14 L34,14 Z M18.378,23.994 C18.378,24.27 18.154,24.494 17.878,24.494 C17.602,24.494 17.378,24.27 17.378,23.994 L17.378,21.994 L15.987,21.994 L15.987,23.994 C15.987,24.27 15.763,24.494 15.487,24.494 C15.211,24.494 14.987,24.27 14.987,23.994 L14.987,18.994 C14.987,18.718 15.211,18.494 15.487,18.494 C15.763,18.494 15.987,18.718 15.987,18.994 L15.987,20.994 L17.378,20.994 L17.378,18.994 C17.378,18.718 17.602,18.494 17.878,18.494 C18.154,18.494 18.378,18.718 18.378,18.994 L18.378,23.994 L18.378,23.994 Z M22.491,19.494 L21.797,19.494 L21.797,23.994 C21.797,24.27 21.573,24.494 21.297,24.494 C21.021,24.494 20.797,24.27 20.797,23.994 L20.797,19.494 L20.1,19.494 C19.824,19.494 19.6,19.27 19.6,18.994 C19.6,18.718 19.824,18.494 20.1,18.494 L22.492,18.494 C22.768,18.494 22.992,18.718 22.992,18.994 C22.991,19.271 22.768,19.494 22.491,19.494 L22.491,19.494 Z M28.355,23.994 C28.355,24.27 28.131,24.494 27.855,24.494 C27.579,24.494 27.355,24.27 27.355,23.994 L27.355,20.71 L26.684,21.763 C26.592,21.907 26.433,21.994 26.262,21.994 C26.091,21.994 25.932,21.907 25.84,21.763 L25.17,20.711 L25.17,23.994 C25.17,24.27 24.946,24.494 24.67,24.494 C24.394,24.494 24.17,24.27 24.17,23.994 L24.17,18.994 C24.17,18.771 24.316,18.576 24.53,18.514 C24.739,18.451 24.971,18.537 25.092,18.725 L26.262,20.563 L27.433,18.725 C27.552,18.537 27.784,18.451 27.994,18.514 C28.208,18.576 28.354,18.771 28.354,18.994 L28.354,23.994 L28.355,23.994 Z M32.513,24.494 L30.122,24.494 C29.846,24.494 29.622,24.27 29.622,23.994 L29.622,18.994 C29.622,18.718 29.846,18.494 30.122,18.494 C30.398,18.494 30.622,18.718 30.622,18.994 L30.622,23.494 L32.513,23.494 C32.789,23.494 33.013,23.718 33.013,23.994 C33.013,24.271 32.789,24.494 32.513,24.494 L32.513,24.494 Z" id="Shape" fill="#FF4081" sketch:type="MSShapeGroup"></path>
                </g>
            </g>
        </g>
    </g>
</svg>