<?xml version="1.0" encoding="UTF-8" standalone="no"?>
<svg width="24px" height="24px" viewBox="0 0 24 24" version="1.1" xmlns="http://www.w3.org/2000/svg" xmlns:xlink="http://www.w3.org/1999/xlink" xmlns:sketch="http://www.bohemiancoding.com/sketch/ns">
    <!-- Generator: Sketch 3.4.2 (15855) - http://www.bohemiancoding.com/sketch -->
    <title>noteicon-circle-question</title>
    <desc>Created with Sketch.</desc>
    <defs></defs>
    <g id="Symbols" stroke="none" stroke-width="1" fill="none" fill-rule="evenodd" sketch:type="MSPage">
        <g sketch:type="MSArtboardGroup" transform="translate(-36.000000, -564.000000)" id="Group">
            <g sketch:type="MSLayerGroup" transform="translate(24.000000, 24.000000)">
                <g id="noteicon-circle-question" transform="translate(0.000000, 528.000000)">
                    <g id="icon-grid-copy-97"></g>
                    <path d="M24,12 C17.4,12 12,17.4 12,24 C12,30.6 17.4,36 24,36 C30.6,36 36,30.6 36,24 C36,17.4 30.6,12 24,12 L24,12 Z M24,35.077 C17.908,35.077 12.923,30.092 12.923,24 C12.923,17.908 17.908,12.923 24,12.923 C30.092,12.923 35.077,17.908 35.077,24 C35.077,30.092 30.092,35.077 24,35.077 L24,35.077 Z M24,29.077 C23.723,29.077 23.538,29.262 23.538,29.539 L23.538,30.462 C23.538,30.739 23.723,30.924 24,30.924 C24.277,30.924 24.462,30.739 24.462,30.462 L24.462,29.539 C24.462,29.262 24.277,29.077 24,29.077 L24,29.077 Z M24.046,16.154 L24,16.154 C23.031,16.154 22.108,16.523 21.415,17.216 C20.677,17.908 20.307,18.831 20.307,19.847 C20.307,20.124 20.492,20.309 20.769,20.309 C21.046,20.309 21.231,20.124 21.231,19.847 C21.231,19.109 21.508,18.416 22.062,17.862 C22.616,17.354 23.308,17.031 24.047,17.077 C25.524,17.077 26.77,18.369 26.77,19.8 C26.77,20.769 26.308,21.646 25.478,22.154 C24.232,22.939 23.54,24.323 23.54,25.892 L23.54,27.23 C23.54,27.507 23.725,27.692 24.002,27.692 C24.279,27.692 24.464,27.507 24.464,27.23 L24.464,25.938 C24.464,24.738 25.064,23.584 25.987,22.984 C27.049,22.292 27.695,21.092 27.695,19.846 C27.649,17.815 26.033,16.2 24.049,16.154 L24.046,16.154 Z" id="Shape" fill="#FF4081" sketch:type="MSShapeGroup"></path>
                </g>
            </g>
        </g>
    </g>
</svg>