<?xml version="1.0" encoding="UTF-8" standalone="no"?>
<svg width="24px" height="21px" viewBox="0 0 24 21" version="1.1" xmlns="http://www.w3.org/2000/svg" xmlns:xlink="http://www.w3.org/1999/xlink" xmlns:sketch="http://www.bohemiancoding.com/sketch/ns">
    <!-- Generator: Sketch 3.4.2 (15855) - http://www.bohemiancoding.com/sketch -->
    <title>noteicon-code-binary</title>
    <desc>Created with Sketch.</desc>
    <defs></defs>
    <g id="Symbols" stroke="none" stroke-width="1" fill="none" fill-rule="evenodd" sketch:type="MSPage">
        <g sketch:type="MSArtboardGroup" transform="translate(-324.000000, -470.000000)" id="Group">
            <g sketch:type="MSLayerGroup" transform="translate(24.000000, 24.000000)">
                <g id="noteicon-code-binary" transform="translate(288.000000, 432.000000)">
                    <g id="icon-grid-copy-181"></g>
                    <path d="M20.024,18.192 L20.024,20.804 C20.024,21.08 20.248,21.304 20.524,21.304 C20.8,21.304 21.024,21.08 21.024,20.804 L21.024,17.301 C21.024,17.101 20.905,16.92 20.721,16.841 C20.538,16.764 20.324,16.801 20.18,16.938 L19.761,17.337 C19.561,17.527 19.553,17.844 19.743,18.044 C19.821,18.126 19.921,18.176 20.024,18.192 L20.024,18.192 Z M17.248,21.759 C17.063,21.683 16.851,21.72 16.706,21.856 L16.286,22.256 C16.086,22.447 16.078,22.764 16.268,22.963 C16.347,23.045 16.447,23.095 16.55,23.111 L16.55,25.724 C16.55,26 16.774,26.224 17.05,26.224 C17.326,26.224 17.55,26 17.55,25.724 L17.55,22.217 C17.551,22.019 17.432,21.838 17.248,21.759 L17.248,21.759 Z M30.451,18.192 L30.451,20.804 C30.451,21.08 30.675,21.304 30.951,21.304 C31.227,21.304 31.451,21.08 31.451,20.804 L31.451,17.301 C31.451,17.101 31.332,16.92 31.148,16.842 C30.964,16.763 30.752,16.801 30.607,16.939 L30.187,17.337 C29.986,17.526 29.978,17.843 30.168,18.043 C30.247,18.126 30.347,18.176 30.451,18.192 L30.451,18.192 Z M30.451,23.112 L30.451,25.725 C30.451,26.001 30.675,26.225 30.951,26.225 C31.227,26.225 31.451,26.001 31.451,25.725 L31.451,22.218 C31.451,22.018 31.332,21.837 31.148,21.758 C30.964,21.682 30.751,21.719 30.606,21.856 L30.186,22.256 C29.986,22.447 29.978,22.764 30.168,22.963 C30.248,23.046 30.348,23.096 30.451,23.112 L30.451,23.112 Z M26.976,18.192 L26.976,20.804 C26.976,21.08 27.2,21.304 27.476,21.304 C27.752,21.304 27.976,21.08 27.976,20.804 L27.976,17.301 C27.976,17.101 27.857,16.92 27.673,16.841 C27.489,16.764 27.276,16.801 27.131,16.939 L26.712,17.337 C26.512,17.527 26.504,17.844 26.694,18.044 C26.772,18.126 26.872,18.176 26.976,18.192 L26.976,18.192 Z M24.196,21.759 C24.011,21.68 23.799,21.719 23.654,21.858 L23.236,22.258 C23.037,22.449 23.03,22.766 23.22,22.965 C23.298,23.046 23.397,23.096 23.499,23.112 L23.499,25.725 C23.499,26.001 23.723,26.225 23.999,26.225 C24.275,26.225 24.499,26.001 24.499,25.725 L24.499,22.218 C24.5,22.019 24.381,21.838 24.196,21.759 L24.196,21.759 Z M16.84,21.344 C18.255,21.344 18.255,19.68 18.255,19.053 C18.255,18.427 18.255,16.763 16.84,16.763 C15.425,16.763 15.426,18.427 15.426,19.053 C15.426,19.68 15.426,21.344 16.84,21.344 L16.84,21.344 Z M16.84,17.763 C16.986,17.763 17.255,17.763 17.255,19.053 C17.255,20.344 16.985,20.344 16.84,20.344 C16.695,20.344 16.426,20.344 16.426,19.053 C16.426,17.763 16.695,17.763 16.84,17.763 L16.84,17.763 Z M23.791,21.344 C25.206,21.344 25.206,19.68 25.206,19.053 C25.206,18.427 25.206,16.763 23.791,16.763 C22.376,16.763 22.376,18.427 22.376,19.053 C22.376,19.68 22.376,21.344 23.791,21.344 L23.791,21.344 Z M23.791,17.763 C23.937,17.763 24.206,17.763 24.206,19.053 C24.206,20.344 23.936,20.344 23.791,20.344 C23.646,20.344 23.376,20.344 23.376,19.053 C23.376,17.763 23.646,17.763 23.791,17.763 L23.791,17.763 Z M27.267,26.263 C28.681,26.263 28.681,24.599 28.681,23.973 C28.681,23.347 28.681,21.682 27.267,21.682 C25.852,21.682 25.852,23.346 25.852,23.973 C25.852,24.599 25.852,26.263 27.267,26.263 L27.267,26.263 Z M27.267,22.682 C27.412,22.682 27.681,22.682 27.681,23.973 C27.681,25.263 27.411,25.263 27.267,25.263 C27.121,25.263 26.852,25.263 26.852,23.973 C26.852,22.682 27.121,22.682 27.267,22.682 L27.267,22.682 Z M20.315,26.263 C21.73,26.263 21.73,24.599 21.73,23.973 C21.73,23.347 21.73,21.682 20.315,21.682 C18.9,21.682 18.9,23.346 18.9,23.973 C18.9,24.599 18.9,26.263 20.315,26.263 L20.315,26.263 Z M20.315,22.682 C20.461,22.682 20.73,22.682 20.73,23.973 C20.73,25.263 20.46,25.263 20.315,25.263 C20.17,25.263 19.9,25.263 19.9,23.973 C19.9,22.682 20.17,22.682 20.315,22.682 L20.315,22.682 Z M34,14 L14,14 C12.897,14 12,14.938 12,16.089 L12,30.911 C12,32.062 12.897,33 14,33 L23,33 L23,34 L17,34 C16.724,34 16.5,34.224 16.5,34.5 C16.5,34.776 16.724,35 17,35 L31,35 C31.276,35 31.5,34.776 31.5,34.5 C31.5,34.224 31.276,34 31,34 L24,34 L24,33 L34,33 C35.103,33 36,32.062 36,30.911 L36,16.089 C36,14.938 35.103,14 34,14 L34,14 Z M14,15 L34,15 C34.552,15 35,15.488 35,16.089 L35,28 L13,28 L13,16.089 C13,15.488 13.448,15 14,15 L14,15 Z M34,32 L14,32 C13.448,32 13,31.512 13,30.911 L13,29 L35,29 L35,30.911 C35,31.512 34.552,32 34,32 L34,32 Z M25,30.5 C25,31.052 24.552,31.5 24,31.5 C23.448,31.5 23,31.052 23,30.5 C23,29.948 23.448,29.5 24,29.5 C24.552,29.5 25,29.948 25,30.5 L25,30.5 Z" id="Shape" fill="#FF4081" sketch:type="MSShapeGroup"></path>
                </g>
            </g>
        </g>
    </g>
</svg>