<?xml version="1.0" encoding="UTF-8" standalone="no"?>
<svg width="24px" height="24px" viewBox="0 0 24 24" version="1.1" xmlns="http://www.w3.org/2000/svg" xmlns:xlink="http://www.w3.org/1999/xlink" xmlns:sketch="http://www.bohemiancoding.com/sketch/ns">
    <!-- Generator: Sketch 3.4.2 (15855) - http://www.bohemiancoding.com/sketch -->
    <title>noteicon-circle-free-solid</title>
    <desc>Created with Sketch.</desc>
    <defs></defs>
    <g id="Symbols" stroke="none" stroke-width="1" fill="none" fill-rule="evenodd" sketch:type="MSPage">
        <g sketch:type="MSArtboardGroup" transform="translate(-180.000000, -612.000000)" id="Group">
            <g sketch:type="MSLayerGroup" transform="translate(24.000000, 24.000000)">
                <g id="noteicon-circle-free-solid" transform="translate(144.000000, 576.000000)">
                    <g id="icon-grid-copy-161"></g>
                    <path d="M24,12 C17.383,12 12,17.383 12,24 C12,30.617 17.383,36 24,36 C30.617,36 36,30.617 36,24 C36,17.383 30.617,12 24,12 L24,12 Z M19,23.986 C19.276,23.986 19.5,24.21 19.5,24.486 C19.5,24.763 19.276,24.986 19,24.986 L17,24.986 L17,26.486 C17,26.763 16.776,26.986 16.5,26.986 C16.224,26.986 16,26.763 16,26.486 L16,22.486 C16,22.21 16.224,21.986 16.5,21.986 L19,21.986 C19.276,21.986 19.5,22.21 19.5,22.486 C19.5,22.763 19.276,22.986 19,22.986 L17,22.986 L17,23.986 L19,23.986 L19,23.986 Z M24,24.486 C24,24.763 23.776,24.986 23.5,24.986 L22.881,24.986 L23.881,26.162 C24.06,26.372 24.034,26.688 23.824,26.867 C23.729,26.947 23.615,26.986 23.5,26.986 C23.358,26.986 23.218,26.927 23.119,26.81 L21.568,24.986 L21,24.986 L21,26.486 C21,26.763 20.776,26.986 20.5,26.986 C20.224,26.986 20,26.763 20,26.486 L20,22.486 C20,22.21 20.224,21.986 20.5,21.986 L23.5,21.986 C23.776,21.986 24,22.21 24,22.486 L24,24.486 L24,24.486 Z M28,23.986 C28.276,23.986 28.5,24.21 28.5,24.486 C28.5,24.763 28.276,24.986 28,24.986 L26,24.986 L26,25.986 L28,25.986 C28.276,25.986 28.5,26.21 28.5,26.486 C28.5,26.763 28.276,26.986 28,26.986 L25.5,26.986 C25.224,26.986 25,26.763 25,26.486 L25,22.486 C25,22.21 25.224,21.986 25.5,21.986 L28,21.986 C28.276,21.986 28.5,22.21 28.5,22.486 C28.5,22.763 28.276,22.986 28,22.986 L26,22.986 L26,23.986 L28,23.986 L28,23.986 Z M32,25.986 C32.276,25.986 32.5,26.21 32.5,26.486 C32.5,26.763 32.276,26.986 32,26.986 L29.5,26.986 C29.224,26.986 29,26.763 29,26.486 L29,22.486 C29,22.21 29.224,21.986 29.5,21.986 L32,21.986 C32.276,21.986 32.5,22.21 32.5,22.486 C32.5,22.763 32.276,22.986 32,22.986 L30,22.986 L30,23.986 L32,23.986 C32.276,23.986 32.5,24.21 32.5,24.486 C32.5,24.763 32.276,24.986 32,24.986 L30,24.986 L30,25.986 L32,25.986 L32,25.986 Z M21,22.986 L23,22.986 L23,23.986 L21,23.986 L21,22.986 L21,22.986 Z" id="Shape" fill="#FF4081" sketch:type="MSShapeGroup"></path>
                </g>
            </g>
        </g>
    </g>
</svg>