<?xml version="1.0" encoding="UTF-8" standalone="no"?>
<svg width="24px" height="24px" viewBox="0 0 24 24" version="1.1" xmlns="http://www.w3.org/2000/svg" xmlns:xlink="http://www.w3.org/1999/xlink" xmlns:sketch="http://www.bohemiancoding.com/sketch/ns">
    <!-- Generator: Sketch 3.4.2 (15855) - http://www.bohemiancoding.com/sketch -->
    <title>noteicon-circle-heart</title>
    <desc>Created with Sketch.</desc>
    <defs></defs>
    <g id="Symbols" stroke="none" stroke-width="1" fill="none" fill-rule="evenodd" sketch:type="MSPage">
        <g sketch:type="MSArtboardGroup" transform="translate(-132.000000, -612.000000)" id="Group">
            <g sketch:type="MSLayerGroup" transform="translate(24.000000, 24.000000)">
                <g id="noteicon-circle-heart" transform="translate(96.000000, 576.000000)">
                    <g id="icon-grid-copy-83"></g>
                    <path d="M24,12 C17.383,12 12,17.383 12,24 C12,30.617 17.383,36 24,36 C30.617,36 36,30.617 36,24 C36,17.383 30.617,12 24,12 L24,12 Z M24,35 C17.935,35 13,30.065 13,24 C13,17.935 17.935,13 24,13 C30.065,13 35,17.935 35,24 C35,30.065 30.065,35 24,35 L24,35 Z M26.777,19.5 C25.826,19.5 24.706,19.992 24,21.285 C23.294,19.992 22.174,19.5 21.223,19.5 C19.639,19.5 18,20.823 18,23.037 C18,26.218 23.473,30.235 23.706,30.404 C23.794,30.468 23.896,30.5 24,30.5 C24.104,30.5 24.206,30.468 24.294,30.404 C24.527,30.235 30,26.218 30,23.037 C30,20.823 28.361,19.5 26.777,19.5 L26.777,19.5 Z M24,29.376 C22.37,28.13 19,25.124 19,23.037 C19,21.449 20.13,20.5 21.223,20.5 C22.31,20.5 23.166,21.365 23.514,22.813 C23.623,23.263 24.377,23.263 24.487,22.813 C24.834,21.365 25.69,20.5 26.777,20.5 C27.87,20.5 29,21.449 29,23.037 C29,25.121 25.63,28.129 24,29.376 L24,29.376 Z" id="Shape" fill="#FF4081" sketch:type="MSShapeGroup"></path>
                </g>
            </g>
        </g>
    </g>
</svg>