<?xml version="1.0" encoding="UTF-8" standalone="no"?>
<svg width="23px" height="23px" viewBox="0 0 23 23" version="1.1" xmlns="http://www.w3.org/2000/svg" xmlns:xlink="http://www.w3.org/1999/xlink" xmlns:sketch="http://www.bohemiancoding.com/sketch/ns">
    <!-- Generator: Sketch 3.4.2 (15855) - http://www.bohemiancoding.com/sketch -->
    <title>noteicon-circle-info</title>
    <desc>Created with Sketch.</desc>
    <defs></defs>
    <g id="Symbols" stroke="none" stroke-width="1" fill="none" fill-rule="evenodd" sketch:type="MSPage">
        <g sketch:type="MSArtboardGroup" transform="translate(-324.000000, -565.000000)" id="Group">
            <g sketch:type="MSLayerGroup" transform="translate(24.000000, 24.000000)">
                <g id="noteicon-circle-info" transform="translate(288.000000, 528.000000)">
                    <g id="icon-grid-copy-89"></g>
                    <path d="M23.5,13 C17.159,13 12,18.159 12,24.5 C12,30.841 17.159,36 23.5,36 C29.841,36 35,30.841 35,24.5 C35,18.159 29.841,13 23.5,13 L23.5,13 Z M23.5,35 C17.71,35 13,30.29 13,24.5 C13,18.71 17.71,14 23.5,14 C29.29,14 34,18.71 34,24.5 C34,30.29 29.29,35 23.5,35 L23.5,35 Z M26.5,31 L24,31 L24,22.5 C24,22.224 23.776,22 23.5,22 L21.5,22 C21.224,22 21,22.224 21,22.5 C21,22.776 21.224,23 21.5,23 L23,23 L23,31 L20.5,31 C20.224,31 20,31.224 20,31.5 C20,31.776 20.224,32 20.5,32 L26.5,32 C26.776,32 27,31.776 27,31.5 C27,31.224 26.776,31 26.5,31 L26.5,31 Z M24,18.5 C24,19.052 23.552,19.5 23,19.5 C22.448,19.5 22,19.052 22,18.5 C22,17.948 22.448,17.5 23,17.5 C23.552,17.5 24,17.948 24,18.5 L24,18.5 Z" id="Shape" fill="#FF4081" sketch:type="MSShapeGroup"></path>
                </g>
            </g>
        </g>
    </g>
</svg>