<?xml version="1.0" encoding="UTF-8" standalone="no"?>
<svg width="21px" height="13px" viewBox="0 0 21 13" version="1.1" xmlns="http://www.w3.org/2000/svg" xmlns:xlink="http://www.w3.org/1999/xlink" xmlns:sketch="http://www.bohemiancoding.com/sketch/ns">
    <!-- Generator: Sketch 3.4.2 (15855) - http://www.bohemiancoding.com/sketch -->
    <title>noteicon-social-deviantart</title>
    <desc>Created with Sketch.</desc>
    <defs></defs>
    <g id="Symbols" stroke="none" stroke-width="1" fill="none" fill-rule="evenodd" sketch:type="MSPage">
        <g sketch:type="MSArtboardGroup" transform="translate(-134.000000, -186.000000)" id="Group">
            <g sketch:type="MSLayerGroup" transform="translate(24.000000, 24.000000)">
                <g id="noteicon-social-deviantart" transform="translate(96.000000, 144.000000)">
                    <g id="icon-grid-copy-129"></g>
                    <path d="M34.8992887,24.005 C34.8562887,23.944 30.5422887,17.829 21.4872887,20.129 C20.9442887,20.267 20.4292887,20.424 19.9442887,20.601 L18.4792887,18 L17.6082887,18.491 L19.0092887,20.98 C17.0172887,21.88 15.5962887,23.157 14.7692887,24.794 C13.6832887,26.947 13.9142887,29.223 14.4422887,30.519 C14.5202887,30.712 14.7062887,30.831 14.9052887,30.831 C14.9532887,30.831 15.0022887,30.824 15.0502887,30.81 L23.5452887,28.243 C23.6912887,28.199 23.8082887,28.092 23.8642887,27.951 C23.9202887,27.81 23.9102887,27.651 23.8362887,27.519 L20.4412887,21.485 C20.8502887,21.342 21.2802887,21.213 21.7332887,21.098 C28.5982887,19.353 32.4012887,22.661 33.6312887,24.027 L26.5262887,26.206 L24.2152887,22.2 C24.0762887,21.961 23.7702887,21.879 23.5322887,22.017 C23.2932887,22.155 23.2112887,22.46 23.3492887,22.7 L25.8592887,27.051 C25.9762887,27.252 26.2172887,27.347 26.4392887,27.279 L34.6332887,24.766 C34.7852887,24.72 34.9062887,24.604 34.9592887,24.453 C35.0102887,24.302 34.9882887,24.137 34.8992887,24.005 L34.8992887,24.005 Z M22.6592887,27.463 L15.2232887,29.712 C14.9372887,28.694 14.8002887,26.951 15.6622887,25.244 C16.3922887,23.797 17.6802887,22.662 19.5012887,21.856 L22.6592887,27.463 L22.6592887,27.463 Z" id="Shape" fill="#FF4081" sketch:type="MSShapeGroup"></path>
                </g>
            </g>
        </g>
    </g>
</svg>