<?xml version="1.0" encoding="UTF-8" standalone="no"?>
<svg width="23px" height="18px" viewBox="0 0 23 18" version="1.1" xmlns="http://www.w3.org/2000/svg" xmlns:xlink="http://www.w3.org/1999/xlink" xmlns:sketch="http://www.bohemiancoding.com/sketch/ns">
    <!-- Generator: Sketch 3.4.2 (15855) - http://www.bohemiancoding.com/sketch -->
    <title>noteicon-social-twitter-solid</title>
    <desc>Created with Sketch.</desc>
    <defs></defs>
    <g id="Symbols" stroke="none" stroke-width="1" fill="none" fill-rule="evenodd" sketch:type="MSPage">
        <g sketch:type="MSArtboardGroup" transform="translate(-228.000000, -39.000000)" id="Group">
            <g sketch:type="MSLayerGroup" transform="translate(24.000000, 24.000000)">
                <g id="noteicon-social-twitter-solid" transform="translate(192.000000, 0.000000)">
                    <g id="icon-grid-copy-150"></g>
                    <path d="M34.444,17.334 C33.63,17.697 32.944,17.709 32.216,17.35 C33.154,16.788 33.197,16.393 33.536,15.331 C32.658,15.852 31.685,16.231 30.65,16.435 C29.823,15.553 28.642,15 27.335,15 C24.825,15 22.791,17.036 22.791,19.544 C22.791,19.9 22.831,20.247 22.908,20.58 C19.132,20.391 15.783,18.582 13.542,15.832 C13.151,16.503 12.927,17.284 12.927,18.117 C12.927,19.694 13.73,21.084 14.948,21.899 C14.203,21.875 13.503,21.671 12.891,21.331 C12.89,21.35 12.89,21.368 12.89,21.388 C12.89,23.59 14.456,25.426 16.536,25.844 C15.87,26.025 15.168,26.053 14.483,25.923 C15.062,27.727 16.74,29.041 18.728,29.078 C16.783,30.602 14.372,31.237 12,30.959 C14.012,32.248 16.399,33 18.966,33 C27.324,33 31.894,26.076 31.894,20.071 C31.894,19.873 31.891,19.678 31.882,19.483 C32.769,18.843 33.835,18.246 34.444,17.334 L34.444,17.334 Z" id="Shape" fill="#FF4081" sketch:type="MSShapeGroup"></path>
                </g>
            </g>
        </g>
    </g>
</svg>