<?xml version="1.0" encoding="UTF-8" standalone="no"?>
<svg width="24px" height="24px" viewBox="0 0 24 24" version="1.1" xmlns="http://www.w3.org/2000/svg" xmlns:xlink="http://www.w3.org/1999/xlink" xmlns:sketch="http://www.bohemiancoding.com/sketch/ns">
    <!-- Generator: Sketch 3.4.2 (15855) - http://www.bohemiancoding.com/sketch -->
    <title>noteicon-right</title>
    <desc>Created with Sketch.</desc>
    <defs></defs>
    <g id="Symbols" stroke="none" stroke-width="1" fill="none" fill-rule="evenodd" sketch:type="MSPage">
        <g sketch:type="MSArtboardGroup" transform="translate(-36.000000, -228.000000)" id="Group">
            <g sketch:type="MSLayerGroup" transform="translate(24.000000, 24.000000)">
                <g id="noteicon-right" transform="translate(0.000000, 192.000000)">
                    <g id="icon-grid-copy-133"></g>
                    <path d="M24,36 C17.378,36 12,30.622 12,24 C12,17.378 17.378,12 24,12 C30.622,12 36,17.378 36,24 C36,30.622 30.622,36 24,36 L24,36 Z M24,12.889 C17.867,12.889 12.889,17.867 12.889,24 C12.889,30.133 17.867,35.111 24,35.111 C30.133,35.111 35.111,30.133 35.111,24 C35.111,17.867 30.133,12.889 24,12.889 L24,12.889 Z M29.333,24.444 L17.777,24.444 C17.51,24.444 17.333,24.266 17.333,24 C17.333,23.734 17.511,23.556 17.777,23.556 L29.333,23.556 C29.6,23.556 29.777,23.734 29.777,24 C29.777,24.266 29.599,24.444 29.333,24.444 L29.333,24.444 Z M25.644,28.756 L25.022,28.134 L29.155,24.001 L25.022,19.868 L25.644,19.246 L30.4,24.002 L25.644,28.756 Z" id="Shape" fill="#FF4081" sketch:type="MSShapeGroup"></path>
                </g>
            </g>
        </g>
    </g>
</svg>