<?xml version="1.0" encoding="UTF-8" standalone="no"?>
<svg width="24px" height="22px" viewBox="0 0 24 22" version="1.1" xmlns="http://www.w3.org/2000/svg" xmlns:xlink="http://www.w3.org/1999/xlink" xmlns:sketch="http://www.bohemiancoding.com/sketch/ns">
    <!-- Generator: Sketch 3.4.2 (15855) - http://www.bohemiancoding.com/sketch -->
    <title>noteicon-sketch</title>
    <desc>Created with Sketch.</desc>
    <defs></defs>
    <g id="Symbols" stroke="none" stroke-width="1" fill="none" fill-rule="evenodd" sketch:type="MSPage">
        <g sketch:type="MSArtboardGroup" transform="translate(-228.000000, -181.000000)" id="Group">
            <g sketch:type="MSLayerGroup" transform="translate(24.000000, 24.000000)">
                <g id="noteicon-sketch" transform="translate(192.000000, 144.000000)">
                    <g id="icon-grid-copy-127"></g>
                    <path d="M36,19.8 C36,19.68 35.96,19.6 35.88,19.52 L31.92,13.2 C31.92,13.16 31.88,13.16 31.84,13.12 L31.72,13.04 C31.68,13 31.64,13 31.6,13 L16.4,13 C16.36,13 16.32,13 16.28,13.04 C16.24,13.04 16.2,13.08 16.16,13.12 L16.08,13.2 L12.08,19.6 L12.08,19.76 L12,19.8 L12,19.96 C12.1,11.8 12,20 12.04,20 L12.04,20.04 L23.64,34.44 C23.68,34.48 23.72,34.52 23.76,34.52 L23.8,34.52 C23.88,34.6 23.96,34.6 24,34.6 C24.04,34.6 24.08,34.6 24.12,34.56 C24.16,34.56 24.16,34.52 24.16,34.52 C24.2,34.52 24.2,34.48 24.24,34.44 L35.8,20.08 C35.96,20 36,19.92 36,19.8 L36,19.8 Z M24.84,13.8 L31.04,13.8 L29.08,19 L24.84,13.8 L24.84,13.8 Z M28.36,19.4 L19.64,19.4 L24,14.04 L28.36,19.4 L28.36,19.4 Z M18.88,19.04 L16.96,13.8 L23.16,13.8 L18.88,19.04 L18.88,19.04 Z M28.64,20.2 L23.92,32.84 L19.32,20.2 L28.64,20.2 L28.64,20.2 Z M31.68,14.32 L34.88,19.4 L29.8,19.4 L31.68,14.32 L31.68,14.32 Z M16.32,14.32 L18.16,19.4 L13.12,19.4 L16.32,14.32 L16.32,14.32 Z M18.44,20.2 L22.8,32.08 L13.24,20.2 L18.44,20.2 L18.44,20.2 Z M24.96,32.36 L29.48,20.2 L34.76,20.2 L24.96,32.36 L24.96,32.36 Z" id="Shape" fill="#FF4081" sketch:type="MSShapeGroup"></path>
                </g>
            </g>
        </g>
    </g>
</svg>