<?xml version="1.0" encoding="UTF-8" standalone="no"?>
<svg width="24px" height="21px" viewBox="0 0 24 21" version="1.1" xmlns="http://www.w3.org/2000/svg" xmlns:xlink="http://www.w3.org/1999/xlink" xmlns:sketch="http://www.bohemiancoding.com/sketch/ns">
    <!-- Generator: Sketch 3.4.2 (15855) - http://www.bohemiancoding.com/sketch -->
    <title>noteicon-comment-dots</title>
    <desc>Created with Sketch.</desc>
    <defs></defs>
    <g id="Symbols" stroke="none" stroke-width="1" fill="none" fill-rule="evenodd" sketch:type="MSPage">
        <g sketch:type="MSArtboardGroup" transform="translate(-276.000000, -422.000000)" id="Group">
            <g sketch:type="MSLayerGroup" transform="translate(24.000000, 24.000000)">
                <g id="noteicon-comment-dots" transform="translate(240.000000, 384.000000)">
                    <g id="icon-grid-copy-98"></g>
                    <path d="M35.5,14 L12.5,14 C12.224,14 12,14.224 12,14.5 L12,30.5 C12,30.776 12.224,31 12.5,31 L19,31 L19,34.5 C19,34.702 19.122,34.885 19.309,34.962 C19.371,34.988 19.436,35 19.5,35 C19.63,35 19.758,34.949 19.854,34.854 L23.707,31 L35.5,31 C35.776,31 36,30.776 36,30.5 L36,14.5 C36,14.224 35.776,14 35.5,14 L35.5,14 Z M35,30 L23.5,30 C23.367,30 23.24,30.053 23.146,30.146 L20,33.293 L20,30.5 C20,30.224 19.776,30 19.5,30 L13,30 L13,15 L35,15 L35,30 L35,30 Z M18,24 C19.103,24 20,23.103 20,22 C20,20.897 19.103,20 18,20 C16.897,20 16,20.897 16,22 C16,23.103 16.897,24 18,24 L18,24 Z M18,21 C18.551,21 19,21.449 19,22 C19,22.551 18.551,23 18,23 C17.449,23 17,22.551 17,22 C17,21.449 17.449,21 18,21 L18,21 Z M24,24 C25.103,24 26,23.103 26,22 C26,20.897 25.103,20 24,20 C22.897,20 22,20.897 22,22 C22,23.103 22.897,24 24,24 L24,24 Z M24,21 C24.551,21 25,21.449 25,22 C25,22.551 24.551,23 24,23 C23.449,23 23,22.551 23,22 C23,21.449 23.449,21 24,21 L24,21 Z M30,24 C31.103,24 32,23.103 32,22 C32,20.897 31.103,20 30,20 C28.897,20 28,20.897 28,22 C28,23.103 28.897,24 30,24 L30,24 Z M30,21 C30.551,21 31,21.449 31,22 C31,22.551 30.551,23 30,23 C29.449,23 29,22.551 29,22 C29,21.449 29.449,21 30,21 L30,21 Z" id="Shape" fill="#FF4081" sketch:type="MSShapeGroup"></path>
                </g>
            </g>
        </g>
    </g>
</svg>