<?xml version="1.0" encoding="UTF-8" standalone="no"?>
<svg width="24px" height="21px" viewBox="0 0 24 21" version="1.1" xmlns="http://www.w3.org/2000/svg" xmlns:xlink="http://www.w3.org/1999/xlink" xmlns:sketch="http://www.bohemiancoding.com/sketch/ns">
    <!-- Generator: Sketch 3.4.2 (15855) - http://www.bohemiancoding.com/sketch -->
    <title>noteicon-comment-dots-solid</title>
    <desc>Created with Sketch.</desc>
    <defs></defs>
    <g id="Symbols" stroke="none" stroke-width="1" fill="none" fill-rule="evenodd" sketch:type="MSPage">
        <g sketch:type="MSArtboardGroup" transform="translate(-228.000000, -422.000000)" id="Group">
            <g sketch:type="MSLayerGroup" transform="translate(24.000000, 24.000000)">
                <g id="noteicon-comment-dots-solid" transform="translate(192.000000, 384.000000)">
                    <g id="icon-grid-copy-177"></g>
                    <path d="M35.5,14 L12.5,14 C12.224,14 12,14.224 12,14.5 L12,30.5 C12,30.776 12.224,31 12.5,31 L19,31 L19,34.5 C19,34.702 19.122,34.885 19.309,34.962 C19.371,34.987 19.436,35 19.5,35 C19.63,35 19.758,34.949 19.854,34.854 L23.707,31 L35.5,31 C35.776,31 36,30.776 36,30.5 L36,14.5 C36,14.224 35.776,14 35.5,14 L35.5,14 Z M19,24 C17.897,24 17,23.103 17,22 C17,20.897 17.897,20 19,20 C20.103,20 21,20.897 21,22 C21,23.103 20.103,24 19,24 L19,24 Z M24,24 C22.897,24 22,23.103 22,22 C22,20.897 22.897,20 24,20 C25.103,20 26,20.897 26,22 C26,23.103 25.103,24 24,24 L24,24 Z M29,24 C27.897,24 27,23.103 27,22 C27,20.897 27.897,20 29,20 C30.103,20 31,20.897 31,22 C31,23.103 30.103,24 29,24 L29,24 Z" id="Shape" fill="#FF4081" sketch:type="MSShapeGroup"></path>
                </g>
            </g>
        </g>
    </g>
</svg>