<?xml version="1.0" encoding="UTF-8" standalone="no"?>
<svg width="24px" height="24px" viewBox="0 0 24 24" version="1.1" xmlns="http://www.w3.org/2000/svg" xmlns:xlink="http://www.w3.org/1999/xlink" xmlns:sketch="http://www.bohemiancoding.com/sketch/ns">
    <!-- Generator: Sketch 3.4.2 (15855) - http://www.bohemiancoding.com/sketch -->
    <title>noteicon-circle-add</title>
    <desc>Created with Sketch.</desc>
    <defs></defs>
    <g id="Symbols" stroke="none" stroke-width="1" fill="none" fill-rule="evenodd" sketch:type="MSPage">
        <g sketch:type="MSArtboardGroup" transform="translate(-36.000000, -708.000000)" id="Group">
            <g sketch:type="MSLayerGroup" transform="translate(24.000000, 24.000000)">
                <g id="noteicon-circle-add" transform="translate(0.000000, 672.000000)">
                    <g id="icon-grid-copy-76"></g>
                    <path d="M24,12 C17.4,12 12,17.4 12,24 C12,30.6 17.4,36 24,36 C30.6,36 36,30.6 36,24 C36,17.4 30.6,12 24,12 L24,12 Z M24,35.077 C17.908,35.077 12.923,30.092 12.923,24 C12.923,17.908 17.908,12.923 24,12.923 C30.092,12.923 35.077,17.908 35.077,24 C35.077,30.092 30.092,35.077 24,35.077 L24,35.077 Z M29.769,23.538 L24.461,23.538 L24.461,18.461 C24.461,18.184 24.276,17.999 23.999,17.999 C23.722,17.999 23.537,18.184 23.537,18.461 L23.537,23.538 L18.229,23.538 C17.952,23.538 17.767,23.723 17.767,24 C17.767,24.277 17.952,24.462 18.229,24.462 L23.537,24.462 L23.537,30 C23.537,30.277 23.722,30.462 23.999,30.462 C24.276,30.462 24.461,30.277 24.461,30 L24.461,24.462 L29.769,24.462 C30.046,24.462 30.231,24.277 30.231,24 C30.231,23.723 30.046,23.538 29.769,23.538 L29.769,23.538 Z" id="Shape" fill="#FF4081" sketch:type="MSShapeGroup"></path>
                </g>
            </g>
        </g>
    </g>
</svg>