<?xml version="1.0" encoding="UTF-8" standalone="no"?>
<svg width="23px" height="23px" viewBox="0 0 23 23" version="1.1" xmlns="http://www.w3.org/2000/svg" xmlns:xlink="http://www.w3.org/1999/xlink" xmlns:sketch="http://www.bohemiancoding.com/sketch/ns">
    <!-- Generator: Sketch 3.4.2 (15855) - http://www.bohemiancoding.com/sketch -->
    <title>noteicon-circle-info-solid</title>
    <desc>Created with Sketch.</desc>
    <defs></defs>
    <g id="Symbols" stroke="none" stroke-width="1" fill="none" fill-rule="evenodd" sketch:type="MSPage">
        <g sketch:type="MSArtboardGroup" transform="translate(-276.000000, -565.000000)" id="Group">
            <g sketch:type="MSLayerGroup" transform="translate(24.000000, 24.000000)">
                <g id="noteicon-circle-info-solid" transform="translate(240.000000, 528.000000)">
                    <g id="icon-grid-copy-88"></g>
                    <path d="M23.5,13 C17.158,13 12,18.158 12,24.5 C12,30.842 17.158,36 23.5,36 C29.841,36 35,30.842 35,24.5 C35,18.158 29.841,13 23.5,13 L23.5,13 Z M23,18 C23.551,18 24,18.448 24,19 C24,19.553 23.551,20 23,20 C22.447,20 22,19.553 22,19 C22,18.448 22.447,18 23,18 L23,18 Z M26.5,32 L20.5,32 C20.224,32 20,31.776 20,31.5 C20,31.224 20.224,31 20.5,31 L22.999,31 L22.999,23 L21.5,23 C21.224,23 21,22.776 21,22.5 C21,22.224 21.224,22 21.5,22 L23.5,22 C23.775,22 24,22.224 23.999,22.5 L23.999,31 L26.5,31 C26.775,31 27,31.224 27,31.5 C27,31.776 26.775,32 26.5,32 L26.5,32 Z" id="Shape" fill="#FF4081" sketch:type="MSShapeGroup"></path>
                </g>
            </g>
        </g>
    </g>
</svg>