<?xml version="1.0" encoding="UTF-8" standalone="no"?>
<svg width="22px" height="21px" viewBox="0 0 22 21" version="1.1" xmlns="http://www.w3.org/2000/svg" xmlns:xlink="http://www.w3.org/1999/xlink" xmlns:sketch="http://www.bohemiancoding.com/sketch/ns">
    <!-- Generator: Sketch 3.4.2 (15855) - http://www.bohemiancoding.com/sketch -->
    <title>noteicon-social-linkedin</title>
    <desc>Created with Sketch.</desc>
    <defs></defs>
    <g id="Symbols" stroke="none" stroke-width="1" fill="none" fill-rule="evenodd" sketch:type="MSPage">
        <g sketch:type="MSArtboardGroup" transform="translate(-181.000000, -86.000000)" id="Group">
            <g sketch:type="MSLayerGroup" transform="translate(24.000000, 24.000000)">
                <g id="noteicon-social-linkedin" transform="translate(144.000000, 48.000000)">
                    <g id="icon-grid-copy-146"></g>
                    <path d="M16.02,14.107 C14.283,14.107 12.973,15.359 12.973,17.019 C12.973,18.69 14.285,20 15.961,20 L15.99,20 C17.728,20 19.038,18.734 19.038,17.042 C18.999,15.341 17.73,14.107 16.02,14.107 L16.02,14.107 Z M15.99,19 L15.961,19 C14.669,19 13.973,17.979 13.973,17.019 C13.973,15.894 14.815,15.107 16.02,15.107 C17.376,15.107 18.017,16.122 18.039,17.054 C18.038,18.021 17.334,19 15.99,19 L15.99,19 Z M18.5,21 L13.5,21 C13.224,21 13,21.224 13,21.5 L13,34.5 C13,34.776 13.224,35 13.5,35 L18.5,35 C18.776,35 19,34.776 19,34.5 L19,21.5 C19,21.224 18.776,21 18.5,21 L18.5,21 Z M18,34 L14,34 L14,22 L18,22 L18,34 L18,34 Z M29.438,21.042 C27.932,21.042 26.739,21.567 26,22.011 L26,21.5 C26,21.224 25.776,21 25.5,21 L20.5,21 C20.362,21 20.231,21.057 20.136,21.157 C20.042,21.257 19.993,21.392 20.001,21.529 C20.058,22.502 20,34.378 20,34.498 C20,34.631 20.052,34.759 20.146,34.853 C20.24,34.947 20.367,35 20.5,35 L25.5,35 C25.776,35 26,34.776 26,34.5 L26,27.5 C26,26.673 26.673,26 27.5,26 C28.327,26 29,26.673 29,27.5 L29,34.5 C29,34.776 29.224,35 29.5,35 L34.5,35 C34.776,35 35,34.776 35,34.5 L35,27.846 C35,23.649 32.869,21.042 29.438,21.042 L29.438,21.042 Z M34,34 L30,34 L30,27.5 C30,26.122 28.878,25 27.5,25 C26.122,25 25,26.122 25,27.5 L25,34 L21.002,34 C21.011,31.924 21.044,24.215 21.012,22 L25,22 L25,22.985 C25,23.184 25.118,23.365 25.301,23.443 C25.483,23.522 25.695,23.486 25.841,23.35 C25.855,23.337 27.27,22.041 29.439,22.041 C32.295,22.041 34.001,24.211 34.001,27.845 L34.001,34 L34,34 Z" id="Shape" fill="#FF4081" sketch:type="MSShapeGroup"></path>
                </g>
            </g>
        </g>
    </g>
</svg>