<?xml version="1.0" encoding="UTF-8" standalone="no"?>
<svg width="25px" height="21px" viewBox="0 0 25 21" version="1.1" xmlns="http://www.w3.org/2000/svg" xmlns:xlink="http://www.w3.org/1999/xlink" xmlns:sketch="http://www.bohemiancoding.com/sketch/ns">
    <!-- Generator: Sketch 3.4.2 (15855) - http://www.bohemiancoding.com/sketch -->
    <title>noteicon-cloud-download</title>
    <desc>Created with Sketch.</desc>
    <defs></defs>
    <g id="Symbols" stroke="none" stroke-width="1" fill="none" fill-rule="evenodd" sketch:type="MSPage">
        <g sketch:type="MSArtboardGroup" transform="translate(-36.000000, -518.000000)" id="Group">
            <g sketch:type="MSLayerGroup" transform="translate(24.000000, 24.000000)">
                <g id="noteicon-cloud-download" transform="translate(0.000000, 480.000000)">
                    <g id="icon-grid-copy-178"></g>
                    <path d="M32.4,20.48 C32.16,16.88 29.2,14 25.64,14 C23.48,14 21.36,15.08 20.08,16.8 C20.04,16.8 20,16.76 20,16.76 L19.76,16.64 L19.28,16.48 C19.2,16.44 19.08,16.44 19,16.44 L18.88,16.44 C18.68,16.4 18.52,16.4 18.4,16.4 C16.4,16.4 14.8,18 14.8,20 L14.8,20.16 C13.12,21.08 12,22.96 12,24.88 C12,27.68 14.32,30 17.12,30 L19.2,30 C19.44,30 19.6,29.84 19.6,29.6 C19.6,29.36 19.44,29.2 19.2,29.2 L17.12,29.2 C14.76,29.2 12.8,27.24 12.8,24.88 C12.8,23.2 13.88,21.48 15.36,20.76 L15.6,20.64 L15.6,19.96 C15.6,18.4 16.84,17.16 18.4,17.16 C18.52,17.16 18.64,17.16 18.76,17.2 L18.84,17.2 C18.96,17.2 19.04,17.24 19.16,17.28 L19.2,17.28 C19.32,17.32 19.44,17.36 19.52,17.4 L19.6,17.44 C19.68,17.48 19.8,17.52 19.88,17.6 C20.64,18.08 21.16,18.96 21.16,19.96 C21.16,20.2 21.32,20.36 21.56,20.36 C21.8,20.36 21.96,20.2 21.96,19.96 C21.96,18.84 21.48,17.88 20.68,17.2 C21.88,15.76 23.76,14.8 25.64,14.8 C28.72,14.8 31.32,17.24 31.56,20.36 C31.16,20.32 30.52,20.32 29.92,20.4 C29.72,20.44 29.56,20.64 29.6,20.84 C29.64,21.04 29.8,21.16 30,21.16 L30.08,21.16 C30.96,21.04 31.88,21.16 31.96,21.16 C33.84,21.52 35.24,23.24 35.24,25.16 C35.24,27.36 33.44,29.16 31.24,29.16 L29.64,29.16 C29.4,29.16 29.24,29.32 29.24,29.56 C29.24,29.8 29.4,29.96 29.64,29.96 L31.24,29.96 C33.88,29.96 36.04,27.8 36.04,25.16 C36,23 34.48,21.04 32.4,20.48 L32.4,20.48 Z M27.32,30.52 L24.8,33.04 L24.8,24.8 C24.8,24.56 24.64,24.4 24.4,24.4 C24.16,24.4 24,24.56 24,24.8 L24,33.04 L21.48,30.52 C21.32,30.36 21.08,30.36 20.92,30.52 C20.76,30.68 20.76,30.92 20.92,31.08 L24.12,34.28 C24.16,34.32 24.2,34.36 24.24,34.36 C24.28,34.4 24.36,34.4 24.4,34.4 C24.44,34.4 24.52,34.4 24.56,34.36 L24.68,34.28 L27.88,31.08 C28.04,30.92 28.04,30.68 27.88,30.52 C27.72,30.36 27.48,30.36 27.32,30.52 L27.32,30.52 Z" id="Shape" fill="#FF4081" sketch:type="MSShapeGroup"></path>
                </g>
            </g>
        </g>
    </g>
</svg>