<?xml version="1.0" encoding="UTF-8" standalone="no"?>
<svg width="24px" height="24px" viewBox="0 0 24 24" version="1.1" xmlns="http://www.w3.org/2000/svg" xmlns:xlink="http://www.w3.org/1999/xlink" xmlns:sketch="http://www.bohemiancoding.com/sketch/ns">
    <!-- Generator: Sketch 3.4.2 (15855) - http://www.bohemiancoding.com/sketch -->
    <title>noteicon-search-solid</title>
    <desc>Created with Sketch.</desc>
    <defs></defs>
    <g id="Symbols" stroke="none" stroke-width="1" fill="none" fill-rule="evenodd" sketch:type="MSPage">
        <g sketch:type="MSArtboardGroup" transform="translate(-276.000000, -180.000000)" id="Group">
            <g sketch:type="MSLayerGroup" transform="translate(24.000000, 24.000000)">
                <g id="noteicon-search-solid" transform="translate(240.000000, 144.000000)">
                    <g id="icon-grid-copy-130"></g>
                    <path d="M34.82,33.853 L29.094,27.916 C30.568,26.148 31.368,23.958 31.368,21.684 C31.368,16.337 27.031,12 21.684,12 C16.337,12 12,16.337 12,21.684 C12,27.031 16.337,31.368 21.684,31.368 C23.705,31.368 25.6,30.779 27.242,29.6 L32.968,35.579 C33.221,35.832 33.515,35.958 33.894,35.958 C34.231,35.958 34.526,35.832 34.778,35.621 C35.283,35.158 35.283,34.358 34.82,33.853 L34.82,33.853 Z M21.683,14.526 C25.641,14.526 28.841,17.726 28.841,21.684 C28.841,25.642 25.641,28.842 21.683,28.842 C17.725,28.842 14.525,25.642 14.525,21.684 C14.525,17.726 17.725,14.526 21.683,14.526 L21.683,14.526 Z" id="Shape" fill="#FF4081" sketch:type="MSShapeGroup"></path>
                </g>
            </g>
        </g>
    </g>
</svg>