<?xml version="1.0" encoding="UTF-8" standalone="no"?>
<svg width="24px" height="24px" viewBox="0 0 24 24" version="1.1" xmlns="http://www.w3.org/2000/svg" xmlns:xlink="http://www.w3.org/1999/xlink" xmlns:sketch="http://www.bohemiancoding.com/sketch/ns">
    <!-- Generator: Sketch 3.4.2 (15855) - http://www.bohemiancoding.com/sketch -->
    <title>noteicon-profile</title>
    <desc>Created with Sketch.</desc>
    <defs></defs>
    <g id="Symbols" stroke="none" stroke-width="1" fill="none" fill-rule="evenodd" sketch:type="MSPage">
        <g sketch:type="MSArtboardGroup" transform="translate(-228.000000, -228.000000)" id="Group">
            <g sketch:type="MSLayerGroup" transform="translate(24.000000, 24.000000)">
                <g id="noteicon-profile" transform="translate(192.000000, 192.000000)">
                    <g id="icon-grid-copy-120"></g>
                    <path d="M36,24 C36,17.367 30.633,12 24,12 C17.367,12 12,17.367 12,24 C12,27.491 13.484,30.633 15.884,32.858 L16.277,33.207 L16.364,33.251 C16.582,33.426 16.8,33.6 17.019,33.731 L17.237,33.862 C17.455,34.037 17.717,34.167 17.935,34.298 C17.979,34.342 18.022,34.342 18.11,34.385 C18.372,34.516 18.634,34.69 18.939,34.821 C18.939,34.821 18.983,34.821 18.983,34.865 C19.899,35.301 20.859,35.607 21.907,35.781 L21.994,35.781 L22.954,35.912 L23.085,35.912 C23.347,35.999 23.652,35.999 24.001,35.999 C24.306,35.999 24.656,35.999 24.961,35.955 L25.092,35.955 L26.052,35.824 L26.139,35.824 C27.143,35.649 28.103,35.344 29.019,34.908 C29.063,34.908 29.106,34.864 29.106,34.864 L29.891,34.471 L30.066,34.34 C30.284,34.209 30.546,34.078 30.764,33.904 C30.851,33.86 30.939,33.773 30.982,33.729 C31.157,33.598 31.375,33.467 31.549,33.293 L31.68,33.206 L32.073,32.857 C34.473,30.675 36,27.49 36,23.999 L36,24 Z M12.873,24 C12.873,17.847 17.848,12.873 24,12.873 C30.152,12.873 35.127,17.848 35.127,24 C35.127,27.316 33.687,30.284 31.374,32.335 C31.243,32.248 31.112,32.16 30.981,32.117 L27.272,30.284 C26.923,30.109 26.748,29.804 26.748,29.411 L26.748,28.102 C26.835,28.015 26.923,27.884 27.01,27.753 C27.49,27.098 27.883,26.313 28.145,25.528 C28.712,25.266 29.061,24.699 29.061,24.088 L29.061,22.561 C29.061,22.168 28.93,21.819 28.668,21.514 L28.668,19.419 C28.712,19.201 28.755,17.935 27.839,16.844 C27.054,15.971 25.744,15.491 23.999,15.491 C22.254,15.491 20.944,15.971 20.115,16.887 C19.199,17.934 19.286,19.2 19.286,19.462 L19.286,21.513 C19.024,21.818 18.893,22.168 18.893,22.56 L18.893,24.087 C18.893,24.567 19.111,25.003 19.46,25.309 C19.809,26.705 20.551,27.753 20.813,28.102 L20.813,29.367 C20.813,29.716 20.638,30.065 20.289,30.24 L16.885,32.073 C16.754,32.117 16.667,32.204 16.536,32.291 C14.311,30.24 12.871,27.273 12.871,24 L12.873,24 Z M30.065,33.294 L29.847,33.425 C29.629,33.556 29.411,33.687 29.236,33.774 L29.105,33.861 C28.625,34.123 28.101,34.341 27.578,34.516 L26.705,34.778 C26.443,34.865 26.138,34.909 25.832,34.953 C25.526,34.997 25.264,35.04 24.959,35.04 L24.828,35.04 C24.566,35.04 24.304,35.084 23.999,35.084 C23.737,35.084 23.432,35.084 23.17,35.04 L23.039,35.04 L22.21,34.953 C21.599,34.866 21.031,34.735 20.464,34.517 L19.591,34.212 C19.329,34.125 19.111,33.994 18.849,33.863 L18.762,33.819 L18.107,33.426 L17.932,33.295 C17.714,33.164 17.539,33.033 17.365,32.902 L17.321,32.858 C12.1,12 17.365,32.858 17.365,32.814 L20.812,30.938 C21.423,30.633 21.772,29.978 21.772,29.323 L21.772,27.752 L21.685,27.621 C12.1,12 20.725,26.486 20.376,24.916 L20.289,24.741 L20.114,24.654 C19.896,24.523 19.765,24.305 19.765,24.043 L19.765,22.516 C19.765,22.298 19.852,22.123 20.027,21.992 L20.158,21.861 L20.158,19.374 C20.1580002,18 20.027,18.283 20.769,17.454 C21.38,16.756 22.471,16.363 23.954,16.363 C25.437,16.363 26.529,16.712 27.139,17.454 C27.881,18.283 27.75,19.374 27.75,19.374 L27.75,21.861 L27.881,21.992 C28.056,22.123 28.143,22.341 28.143,22.516 L28.143,24.043 C28.143,24.348 27.925,24.654 27.619,24.741 L27.401,24.828 L27.314,25.046 C27.052,25.831 26.703,26.573 26.223,27.228 C26.092,27.403 26.005,27.533 25.918,27.621 L25.831,27.752 L25.831,29.367 C25.831,30.065 26.224,30.72 26.835,31.025 L30.631,32.901 C30.631,32.945 30.587,32.988 30.544,32.988 C30.37,33.12 30.24,33.207 30.065,33.294 Z" id="Shape" fill="#FF4081" sketch:type="MSShapeGroup"></path>
                </g>
            </g>
        </g>
    </g>
</svg>