<?xml version="1.0" encoding="UTF-8" standalone="no"?>
<svg width="24px" height="22px" viewBox="0 0 24 22" version="1.1" xmlns="http://www.w3.org/2000/svg" xmlns:xlink="http://www.w3.org/1999/xlink" xmlns:sketch="http://www.bohemiancoding.com/sketch/ns">
    <!-- Generator: Sketch 3.4.2 (15855) - http://www.bohemiancoding.com/sketch -->
    <title>noteicon-more</title>
    <desc>Created with Sketch.</desc>
    <defs></defs>
    <g id="Symbols" stroke="none" stroke-width="1" fill="none" fill-rule="evenodd" sketch:type="MSPage">
        <g sketch:type="MSArtboardGroup" transform="translate(-324.000000, -229.000000)" id="Group">
            <g sketch:type="MSLayerGroup" transform="translate(24.000000, 24.000000)">
                <g id="noteicon-more" transform="translate(288.000000, 192.000000)">
                    <g id="icon-grid-copy-124"></g>
                    <path d="M25.58475,34.284 C25.31275,34.284 25.13175,34.103 25.13175,33.831 C25.13175,33.559 25.31275,33.378 25.58475,33.378 C25.85675,33.378 26.17375,33.378 26.44475,33.333 C26.67075,33.288 26.89775,33.514 26.94275,33.741 C26.98775,33.968 26.76175,34.194 26.53475,34.239 C26.21775,34.284 25.90075,34.284 25.58375,34.284 L25.58475,34.284 Z M28.25675,33.921 C28.07575,33.921 27.89475,33.785 27.80375,33.604 C27.75875,33.378 27.89475,33.106 28.12075,33.061 L28.93575,32.789 C29.16175,32.698 29.43375,32.834 29.52475,33.061 C29.61575,33.288 29.47975,33.559 29.25275,33.65 C28.98075,33.741 28.66375,33.876 28.34675,33.967 C28.34675,33.922 28.30175,33.922 28.25575,33.922 L28.25675,33.921 Z M30.74675,32.834 C30.61075,32.834 30.42975,32.743 30.33875,32.608 C30.20275,32.382 30.29375,32.11 30.47475,31.974 C30.70075,31.838 30.97275,31.657 31.19975,31.476 C31.38075,31.34 31.69775,31.385 31.83375,31.567 C31.96975,31.749 31.92475,32.065 31.74275,32.201 L30.97275,32.744 C30.92775,32.835 30.83675,32.835 30.74675,32.835 L30.74675,32.834 Z M32.87475,31.114 C32.78375,31.114 32.64875,31.069 32.55775,30.978 C32.37675,30.797 32.37675,30.525 32.55775,30.344 C32.73875,30.118 32.91975,29.936 33.10075,29.665 C33.23675,29.484 33.55375,29.439 33.73475,29.574 C33.91575,29.709 33.96075,30.027 33.82575,30.208 C33.64475,30.434 33.41775,30.706 33.19175,30.933 C33.10075,31.069 32.96575,31.114 32.87475,31.114 L32.87475,31.114 Z M34.41475,28.94 C34.32375,28.94 34.27875,28.94 34.18875,28.895 C33.96275,28.759 33.87175,28.487 34.00775,28.306 C34.14375,28.034 34.27975,27.808 34.36975,27.536 C34.46075,27.31 34.73175,27.174 34.95875,27.31 C35.18475,27.401 35.32075,27.672 35.18475,27.899 L34.77675,28.759 C34.73175,28.85 34.59575,28.94 34.41475,28.94 L34.41475,28.94 Z M35.32075,26.359 L35.22975,26.359 C35.00375,26.314 34.82175,26.087 34.86775,25.816 L35.00375,24.956 C35.04875,24.73 35.27575,24.548 35.50175,24.548 C35.72775,24.593 35.90975,24.82 35.90975,25.046 L35.77375,25.997 C35.72875,26.223 35.54775,26.359 35.32075,26.359 L35.32075,26.359 Z M35.54675,23.868 C35.27475,23.868 35.09375,23.687 35.09375,23.415 C35.09375,18.162 30.83675,13.906 25.58475,13.906 C20.33275,13.906 16.07575,18.163 16.07575,23.415 C16.07575,23.687 15.89475,23.868 15.62275,23.868 C15.35075,23.868 15.16975,23.687 15.16975,23.415 C15.16975,17.664 19.83375,13 25.58475,13 C31.33575,13 35.99975,17.664 35.99975,23.415 C35.99975,23.687 35.81875,23.868 35.54675,23.868 L35.54675,23.868 Z M15.62275,23.868 C15.48675,23.868 15.39675,23.823 15.30575,23.732 L12.13575,20.562 C11.95475,20.381 11.95475,20.109 12.13575,19.928 C12.31675,19.747 12.58875,19.747 12.76975,19.928 L15.93975,23.098 C16.12075,23.279 16.12075,23.551 15.93975,23.732 C15.84875,23.823 15.75875,23.868 15.62275,23.868 L15.62275,23.868 Z M15.62275,23.868 C15.48675,23.868 15.39675,23.823 15.30575,23.732 C15.12475,23.551 15.12475,23.279 15.30575,23.098 L18.47575,19.928 C18.65675,19.747 18.92875,19.747 19.10975,19.928 C19.29075,20.109 19.29075,20.381 19.10975,20.562 L15.93975,23.732 C15.84875,23.823 15.75875,23.868 15.62275,23.868 L15.62275,23.868 Z" id="Shape" fill="#FF4081" sketch:type="MSShapeGroup"></path>
                </g>
            </g>
        </g>
    </g>
</svg>