<?xml version="1.0" encoding="UTF-8" standalone="no"?>
<svg width="24px" height="24px" viewBox="0 0 24 24" version="1.1" xmlns="http://www.w3.org/2000/svg" xmlns:xlink="http://www.w3.org/1999/xlink" xmlns:sketch="http://www.bohemiancoding.com/sketch/ns">
    <!-- Generator: Sketch 3.4.2 (15855) - http://www.bohemiancoding.com/sketch -->
    <title>noteicon-circle-camera</title>
    <desc>Created with Sketch.</desc>
    <defs></defs>
    <g id="Symbols" stroke="none" stroke-width="1" fill="none" fill-rule="evenodd" sketch:type="MSPage">
        <g sketch:type="MSArtboardGroup" transform="translate(-324.000000, -660.000000)" id="Group">
            <g sketch:type="MSLayerGroup" transform="translate(24.000000, 24.000000)">
                <g id="noteicon-circle-camera" transform="translate(288.000000, 624.000000)">
                    <g id="icon-grid-copy-72"></g>
                    <path d="M24,21 C22.346,21 21,22.346 21,24 C21,25.654 22.346,27 24,27 C25.654,27 27,25.654 27,24 C27,22.346 25.654,21 24,21 L24,21 Z M24,26 C22.897,26 22,25.103 22,24 C22,22.897 22.897,22 24,22 C25.103,22 26,22.897 26,24 C26,25.103 25.103,26 24,26 L24,26 Z M30,20 L27.707,20 L25.853,18.146 C25.76,18.053 25.633,18 25.5,18 L22.5,18 C22.367,18 22.24,18.053 22.146,18.146 L20.293,20 L18,20 C16.897,20 16,20.897 16,22 L16,27 C16,28.103 16.897,29 18,29 L30,29 C31.103,29 32,28.103 32,27 L32,22 C32,20.897 31.103,20 30,20 L30,20 Z M31,27 C31,27.551 30.551,28 30,28 L18,28 C17.449,28 17,27.551 17,27 L17,22 C17,21.449 17.449,21 18,21 L20.5,21 C20.565,21 20.63,20.987 20.691,20.961 C20.753,20.936 20.808,20.899 20.854,20.853 L22.707,19 L25.293,19 L27.146,20.853 C27.192,20.899 27.248,20.936 27.309,20.961 C27.37,20.986 27.435,21 27.5,21 L30,21 C30.551,21 31,21.449 31,22 L31,27 L31,27 Z M30,22 C30,22.276 29.776,22.5 29.5,22.5 C29.224,22.5 29,22.276 29,22 C29,21.724 29.224,21.5 29.5,21.5 C29.776,21.5 30,21.724 30,22 L30,22 Z M24,12 C17.383,12 12,17.383 12,24 C12,30.617 17.383,36 24,36 C30.617,36 36,30.617 36,24 C36,17.383 30.617,12 24,12 L24,12 Z M24,35 C17.935,35 13,30.065 13,24 C13,17.935 17.935,13 24,13 C30.065,13 35,17.935 35,24 C35,30.065 30.065,35 24,35 L24,35 Z" id="Shape" fill="#FF4081" sketch:type="MSShapeGroup"></path>
                </g>
            </g>
        </g>
    </g>
</svg>