<?xml version="1.0" encoding="UTF-8" standalone="no"?>
<svg width="24px" height="24px" viewBox="0 0 24 24" version="1.1" xmlns="http://www.w3.org/2000/svg" xmlns:xlink="http://www.w3.org/1999/xlink" xmlns:sketch="http://www.bohemiancoding.com/sketch/ns">
    <!-- Generator: Sketch 3.4.2 (15855) - http://www.bohemiancoding.com/sketch -->
    <title>noteicon-up-solid</title>
    <desc>Created with Sketch.</desc>
    <defs></defs>
    <g id="Symbols" stroke="none" stroke-width="1" fill="none" fill-rule="evenodd" sketch:type="MSPage">
        <g sketch:type="MSArtboardGroup" transform="translate(-36.000000, -36.000000)" id="Group">
            <g sketch:type="MSLayerGroup" transform="translate(24.000000, 24.000000)">
                <g id="noteicon-up-solid">
                    <g id="icon-grid-copy-157"></g>
                    <path d="M24,12 C17.378,12 12,17.378 12,24 C12,30.622 17.378,36 24,36 C30.622,36 36,30.622 36,24 C36,17.378 30.622,12 24,12 L24,12 Z M28.133,22.756 L24.444,19.067 L24.444,30 C24.444,30.267 24.266,30.444 24,30.444 C23.734,30.444 23.556,30.266 23.556,30 L23.556,19.067 L19.867,22.756 L19.245,22.134 L24.001,17.378 L28.757,22.134 L28.135,22.756 L28.133,22.756 Z" id="Shape" fill="#FF4081" sketch:type="MSShapeGroup"></path>
                </g>
            </g>
        </g>
    </g>
</svg>