<?xml version="1.0" encoding="UTF-8" standalone="no"?>
<svg width="19px" height="24px" viewBox="0 0 19 24" version="1.1" xmlns="http://www.w3.org/2000/svg" xmlns:xlink="http://www.w3.org/1999/xlink" xmlns:sketch="http://www.bohemiancoding.com/sketch/ns">
    <!-- Generator: Sketch 3.4.2 (15855) - http://www.bohemiancoding.com/sketch -->
    <title>noteicon-social-pintrest</title>
    <desc>Created with Sketch.</desc>
    <defs></defs>
    <g id="Symbols" stroke="none" stroke-width="1" fill="none" fill-rule="evenodd" sketch:type="MSPage">
        <g sketch:type="MSArtboardGroup" transform="translate(-86.000000, -84.000000)" id="Group">
            <g sketch:type="MSLayerGroup" transform="translate(24.000000, 24.000000)">
                <g id="noteicon-social-pintrest" transform="translate(48.000000, 48.000000)">
                    <g id="icon-grid-copy-145"></g>
                    <path d="M23.942,12 C17.719,12 14,16.451 14,20.752 C14,23.434 15.127,25.492 17.016,26.262 C17.592,26.5 18.195,26.195 18.35,25.598 L18.621,24.536 C18.765,23.995 18.636,23.712 18.328,23.348 C17.814,22.744 17.575,22.023 17.575,21.082 C17.575,18.257 19.679,15.254 23.58,15.254 C26.663,15.254 28.577,17.002 28.577,19.817 C28.577,23.475 26.956,26.341 24.888,26.341 C24.346,26.341 23.86,26.12 23.555,25.735 C23.268,25.373 23.174,24.903 23.29,24.412 C23.432,23.816 23.621,23.204 23.805,22.609 C24.147,21.502 24.471,20.456 24.471,19.609 C24.471,18.124 23.554,17.126 22.189,17.126 C20.48,17.126 19.141,18.849 19.141,21.046 C19.141,22.069 19.403,22.851 19.538,23.183 L17.875,30.219 C17.44,32.062 17.653,34.235 17.826,35.421 C17.872,35.757 18.153,36 18.494,36 C18.706,36 18.902,35.904 19.065,35.694 C19.764,34.8 21.009,33.031 21.503,31.239 C21.607,30.865 21.954,29.498 22.194,28.55 C22.946,29.201 24.061,29.621 25.177,29.621 C29.597,29.621 32.805,25.603 32.805,20.068 C32.805,16.103 29.49,12 23.942,12 L23.942,12 Z M25.177,28.621 C23.886,28.621 22.747,27.92 22.392,27.242 C22.296,27.058 22.094,26.946 21.891,26.978 C21.685,27.003 21.515,27.151 21.465,27.353 C21.465,27.353 20.701,30.387 20.539,30.974 C20.259,31.99 19.614,33.233 18.715,34.492 C18.548,32.943 18.594,31.528 18.848,30.45 L20.548,23.251 C20.574,23.138 20.56,23.019 20.509,22.914 C20.506,22.906 20.139,22.146 20.139,21.046 C20.139,19.408 21.038,18.126 22.187,18.126 C23.344,18.126 23.469,19.163 23.469,19.609 C23.469,20.304 23.167,21.28 22.848,22.315 C22.658,22.93 22.462,23.565 22.315,24.182 C22.127,24.977 22.289,25.748 22.769,26.356 C23.265,26.983 24.037,27.341 24.887,27.341 C27.56,27.341 29.576,24.107 29.576,19.817 C29.576,16.438 27.222,14.254 23.579,14.254 C19.585,14.254 16.574,17.19 16.574,21.082 C16.574,22.258 16.898,23.211 17.564,23.994 C17.654,24.101 17.677,24.141 17.68,24.141 C17.68,24.141 17.68,24.141 17.68,24.14 C17.68,24.145 17.68,24.177 17.652,24.281 L17.393,25.336 C15.894,24.725 14.999,23.011 14.999,20.752 C15,17.533 17.774,13 23.942,13 C28.864,13 31.805,16.594 31.805,20.068 C31.805,25.104 29.079,28.621 25.177,28.621 L25.177,28.621 Z" id="Shape" fill="#FF4081" sketch:type="MSShapeGroup"></path>
                </g>
            </g>
        </g>
    </g>
</svg>