<?xml version="1.0" encoding="UTF-8" standalone="no"?>
<svg width="18px" height="18px" viewBox="0 0 18 18" version="1.1" xmlns="http://www.w3.org/2000/svg" xmlns:xlink="http://www.w3.org/1999/xlink" xmlns:sketch="http://www.bohemiancoding.com/sketch/ns">
    <!-- Generator: Sketch 3.4.2 (15855) - http://www.bohemiancoding.com/sketch -->
    <title>octicon-globe</title>
    <desc>Created with Sketch.</desc>
    <defs></defs>
    <g id="Symbols" stroke="none" stroke-width="1" fill="none" fill-rule="evenodd" sketch:type="MSPage">
        <g id="Octicons" sketch:type="MSArtboardGroup" transform="translate(-1139.000000, -868.000000)">
            <g id="icons" sketch:type="MSLayerGroup" transform="translate(788.000000, 613.000000)">
                <g id="octicon-globe" transform="translate(336.000000, 240.000000)">
                    <g id="icon-grid-copy-92"></g>
                    <path d="M24,15 C19.0294453,15 15,19.0294453 15,24 C15,28.9705547 19.0294453,33 24,33 C24.6082734,33 25.2024141,32.9394844 25.7768438,32.8244531 C25.5453047,32.7137109 25.5200391,31.882875 25.749,31.4091797 C26.0038828,30.8818359 26.8036875,29.5458984 26.0126719,29.0976562 C25.2216563,28.6494141 25.4413828,28.4472656 24.9579844,27.9287109 C24.4745859,27.4101562 24.6722812,27.3322031 24.6415781,27.1992188 C24.5361094,26.7421875 25.1073984,26.0566406 25.1337656,25.9863281 C25.1601328,25.9160156 25.1601328,25.6523438 25.1513438,25.5732422 C25.1425547,25.4941406 24.7910156,25.2832031 24.703125,25.2744141 C24.6152344,25.265625 24.5712891,25.4150391 24.4482422,25.4238281 C24.3251953,25.4326172 23.7890625,25.0986328 23.6748047,25.0107422 C23.5605469,24.9228516 23.5078125,24.7119141 23.3496094,24.5537109 C23.1914062,24.3955078 23.1738281,24.5185547 22.9277344,24.421875 C22.6816406,24.3251953 21.890625,24.0351562 21.2841797,23.7890625 C20.6777344,23.5429688 20.625,23.1979922 20.6162109,22.9541016 C20.6074219,22.7102109 20.2470703,22.3564453 20.0780625,22.1015625 C19.9091016,21.8466797 19.8779297,21.4951172 19.8164062,21.5742188 C19.7548828,21.6533203 20.1328125,22.5761719 20.0712891,22.6025391 C20.0097656,22.6289062 19.8779297,22.3476562 19.7021484,22.1191406 C19.5263672,21.890625 19.8867188,22.0136719 19.3242188,20.90625 C18.7617188,19.7988281 19.5,19.234125 19.5351562,18.65625 C19.5703125,18.078375 20.0097656,18.8671875 19.78125,18.4980469 C19.5527344,18.1289062 19.7988281,17.3554688 19.6230469,17.0742188 C19.4472656,16.7929688 18.4453125,17.390625 18.4453125,17.390625 C18.4716797,17.1181641 19.3242188,16.6523438 19.9394531,16.2216797 C20.5546875,15.7910156 20.9304141,16.125 21.4248047,16.2832031 C21.9191953,16.4414062 21.9521484,16.3886719 21.7851562,16.2304688 C21.6181641,16.0722656 21.8554688,15.9931641 22.2421875,16.0546875 C22.6289062,16.1162109 22.734375,16.5820312 23.3232422,16.5380859 C23.9121094,16.4941406 23.3847656,16.6523438 23.4638672,16.8017578 C23.5429688,16.9511719 23.3759766,16.9335938 22.9892578,17.1972656 C22.6025391,17.4609375 22.9980469,17.4609375 23.6835938,17.9619141 C24.3691406,18.4628906 24.1582031,17.6279297 24.0878906,17.2587891 C24.0175781,16.8896484 24.5888672,17.1796875 24.5888672,17.1796875 C25.0107422,17.4609375 24.9327891,17.1951563 25.2404062,17.2918359 C25.5480234,17.3885156 26.3818359,18.09375 26.3818359,18.09375 C25.3359375,18.6650391 25.9951172,18.7265625 26.1708984,18.8583984 C26.3466797,18.9902344 25.8105469,19.2451172 25.8105469,19.2451172 C25.5908203,19.0253906 25.5556641,19.2539062 25.4150391,19.3330078 C25.2744141,19.4121094 25.40625,19.6142578 25.40625,19.6142578 C24.6789609,19.7285156 24.84375,20.4931641 24.8525391,20.6777344 C24.8613281,20.8623047 24.3867188,21.1435547 24.2636719,21.4072266 C24.140625,21.6708984 24.5800781,22.2421875 24.3515625,22.2773438 C24.1230469,22.3125 23.8945312,21.4160156 22.6640625,21.75 C22.2930938,21.8507109 21.46875,22.2773438 21.9082031,23.1474609 C22.3476562,24.0175781 23.0771484,22.9013672 23.3232422,23.0244141 C23.5693359,23.1474609 23.2529297,23.7011719 23.3056641,23.7099609 C23.3583984,23.71875 24,23.734125 24.0351562,24.4833984 C24.0703125,25.2326719 25.0107422,25.1689453 25.2128906,25.1865234 C25.4150391,25.2041016 26.0917969,24.6328125 26.1884766,24.6064453 C26.2851562,24.5800781 26.671875,24.2548828 27.515625,24.7382812 C28.359375,25.2216797 28.7900391,25.1513672 29.0800781,25.3535156 C29.3701172,25.5556641 29.1679688,25.9599609 29.4404297,26.0917969 C29.7128906,26.2236328 30.8027344,26.0478516 31.0751953,26.4960938 C31.3476562,26.9443359 29.9501953,29.1943359 29.5107422,29.4404297 C29.0712891,29.6865234 28.8691406,30.2490234 28.4296875,30.609375 C27.9902344,30.9697266 27.375,31.4157656 26.7949219,31.7607422 C26.2814531,32.0660625 26.1890625,32.6130469 25.9603359,32.7857109 C29.9881875,31.8909375 33,28.2972656 33,24 C33,19.0294453 28.9705547,15 24,15 L24,15 Z M26.2916046,23.4316888 C26.1581874,23.4552105 25.8818233,23.6081019 25.2052076,23.3611235 C24.528592,23.1141452 24.0616319,23.1611887 24.0044531,23.1200256 C24.0044531,23.1200256 23.9472743,23.0200582 24.242698,23.0024169 C24.8493268,22.9661777 25.6149889,23.3493627 25.7865253,23.3552431 C25.9580617,23.3611235 26.0438298,23.2493952 26.3487834,23.3100343 C26.6537369,23.3706106 26.4250218,23.408167 26.2916046,23.4316888 L26.2916046,23.4316888 Z M23.0204911,15.9738058 C22.9496328,15.9343496 23.0791829,15.8889189 23.156409,15.8104421 C23.2009834,15.7650944 23.1679252,15.6898122 23.2237176,15.6470783 C23.3761375,15.5303899 24.1280758,15.3670262 23.9810481,15.6859744 C23.8340747,16.0049227 23.1322657,16.0360396 23.0204911,15.9738058 L23.0204911,15.9738058 Z M24.7941734,16.999558 C24.598829,16.9896205 24.1390041,16.9278228 24.2237679,16.8206838 C24.5539051,16.4033106 24.0987476,16.2840611 23.8174517,16.2542487 C23.5361559,16.2244364 23.4189493,16.0256872 23.5595972,16.0058123 C23.7002451,15.9859374 24.2628368,16.0157498 24.3566021,16.1151243 C24.4503673,16.2144989 24.9582626,16.4728728 24.9895177,16.6616845 C25.0207728,16.8504961 24.9895177,17.0094954 24.7941734,16.999558 L24.7941734,16.999558 Z M26.4589575,16.9827568 C26.2931285,17.1045267 25.4586774,16.5458259 25.298155,16.4195708 C24.6016736,15.871606 24.2285585,16.0542609 24.0822974,15.9629335 C23.9359921,15.871606 23.9881066,15.7498361 24.2119756,15.5671811 C24.4358447,15.3845262 25.0659946,15.6280661 25.4308182,15.6661192 C25.7956418,15.7041723 26.2185055,15.9629335 26.226797,16.2705244 C26.2350884,16.578095 26.6247864,16.8609868 26.4589575,16.9827568 L26.4589575,16.9827568 Z" id="Shape" fill="#000000" sketch:type="MSShapeGroup"></path>
                </g>
            </g>
        </g>
    </g>
</svg>