<?xml version="1.0" encoding="UTF-8" standalone="no"?>
<svg width="18px" height="17px" viewBox="0 0 18 17" version="1.1" xmlns="http://www.w3.org/2000/svg" xmlns:xlink="http://www.w3.org/1999/xlink" xmlns:sketch="http://www.bohemiancoding.com/sketch/ns">
    <!-- Generator: Sketch 3.4.2 (15855) - http://www.bohemiancoding.com/sketch -->
    <title>octicon-checklist</title>
    <desc>Created with Sketch.</desc>
    <defs></defs>
    <g id="Symbols" stroke="none" stroke-width="1" fill="none" fill-rule="evenodd" sketch:type="MSPage">
        <g id="Octicons" sketch:type="MSArtboardGroup" transform="translate(-1091.000000, -677.000000)">
            <g id="icons" sketch:type="MSLayerGroup" transform="translate(788.000000, 613.000000)">
                <g id="octicon-checklist" transform="translate(288.000000, 48.000000)">
                    <g id="icon-grid-copy-152"></g>
                    <path d="M20.375,28.609375 C20.3984375,28.1171875 20.609375,27.625 20.9609375,27.296875 L22.4609375,25.890625 C22.8359375,25.5390625 23.28125,25.375 23.75,25.375 C24.21875,25.375 24.7109375,25.5625 25.0859375,25.9140625 L26,26.8515625 L29,23.8515625 L29,17.5 C29,16.6796875 28.3203125,16 27.5,16 L17,16 C16.1796875,16 15.5,16.6796875 15.5,17.5 L15.5,31 C15.5,31.8203125 16.1796875,32.5 17,32.5 L23.375,32.5 L20.9140625,29.96875 C20.5625,29.59375 20.375,29.125 20.375,28.609375 L20.375,28.609375 Z M20,17.5 L27.5,17.5 L27.5,19 L20,19 L20,17.5 L20,17.5 Z M18.5,22 L17,22 L17,20.5 L18.5,20.5 L18.5,22 L18.5,22 Z M18.5,19 L17,19 L17,17.5 L18.5,17.5 L18.5,19 L18.5,19 Z M20,20.5 L27.5,20.5 L27.5,22 L20,22 L20,20.5 L20,20.5 Z M33,26.0454545 L26.25,33 L22.5,29.0397727 L24,27.5909091 L26.25,29.9090909 L31.5,24.5 L33,26.0454545 L33,26.0454545 Z" id="Shape" fill="#000000" sketch:type="MSShapeGroup"></path>
                </g>
            </g>
        </g>
    </g>
</svg>