<?xml version="1.0" encoding="UTF-8" standalone="no"?>
<svg width="18px" height="22px" viewBox="0 0 18 22" version="1.1" xmlns="http://www.w3.org/2000/svg" xmlns:xlink="http://www.w3.org/1999/xlink" xmlns:sketch="http://www.bohemiancoding.com/sketch/ns">
    <!-- Generator: Sketch 3.4.2 (15855) - http://www.bohemiancoding.com/sketch -->
    <title>octicon-database</title>
    <desc>Created with Sketch.</desc>
    <defs></defs>
    <g id="Symbols" stroke="none" stroke-width="1" fill="none" fill-rule="evenodd" sketch:type="MSPage">
        <g id="Octicons" sketch:type="MSArtboardGroup" transform="translate(-1331.000000, -722.000000)">
            <g id="icons" sketch:type="MSLayerGroup" transform="translate(788.000000, 613.000000)">
                <g id="octicon-database" transform="translate(528.000000, 96.000000)">
                    <g id="icon-grid-copy-132"></g>
                    <path d="M24,35 C19.0305234,35 15,33.6054688 15,31.8888889 L15,28.7777778 C15,28.5073785 15.1303594,28.2506389 15.3178594,28 C16.3212891,29.3398438 19.8105469,30.3333333 24,30.3333333 C28.1894531,30.3333333 31.6787109,29.3398438 32.6821406,28 C32.8696406,28.2506389 33,28.5073785 33,28.7777778 L33,31.8888889 C33,33.6054688 28.96875,35 24,35 L24,35 Z M24,29 C19.0305234,29 15,27.6054687 15,25.8888889 L15,22.7777778 C15,22.6129618 15.0600469,22.452691 15.140625,22.2939514 L15.140625,22.2939514 C15.1860469,22.1944444 15.2460938,22.0964687 15.3178594,22 C16.3212891,23.3390903 19.8105469,24.3333333 24,24.3333333 C28.1894531,24.3333333 31.6787109,23.3390903 32.6821406,22 C32.7539062,22.0964687 32.8139766,22.1944444 32.859375,22.2939514 L32.859375,22.2939514 C32.9399531,22.452691 33,22.6129618 33,22.7777778 L33,25.8888889 C33,27.6054687 28.96875,29 24,29 L24,29 Z M24,22.5 C19.0305234,22.5 15,21.156 15,19.5 L15,18 L15,16.5 C15,14.844 19.0305234,13.5 24,13.5 C28.96875,13.5 33,14.844 33,16.5 L33,18 L33,19.5 C33,21.156 28.96875,22.5 24,22.5 L24,22.5 Z M24,15 C20.6865234,15 18,15.6701719 18,16.5 C18,17.3298281 20.6865234,18 24,18 C27.3134766,18 30,17.3298281 30,16.5 C30,15.6701719 27.3134766,15 24,15 L24,15 Z" id="Shape" fill="#000000" sketch:type="MSShapeGroup"></path>
                </g>
            </g>
        </g>
    </g>
</svg>