<?xml version="1.0" encoding="UTF-8" standalone="no"?>
<svg width="18px" height="24px" viewBox="0 0 18 24" version="1.1" xmlns="http://www.w3.org/2000/svg" xmlns:xlink="http://www.w3.org/1999/xlink" xmlns:sketch="http://www.bohemiancoding.com/sketch/ns">
    <!-- Generator: Sketch 3.4.2 (15855) - http://www.bohemiancoding.com/sketch -->
    <title>octicon-repo-force-push</title>
    <desc>Created with Sketch.</desc>
    <defs></defs>
    <g id="Symbols" stroke="none" stroke-width="1" fill="none" fill-rule="evenodd" sketch:type="MSPage">
        <g id="Octicons" sketch:type="MSArtboardGroup" transform="translate(-1091.000000, -1057.000000)">
            <g id="icons" sketch:type="MSLayerGroup" transform="translate(788.000000, 613.000000)">
                <g id="octicon-repo-force-push" transform="translate(288.000000, 432.000000)">
                    <g id="icon-grid-copy-51"></g>
                    <path d="M30,25.5 L27,25.5 L27,36 L24,36 L24,25.5 L21,25.5 L24.375,21 L21,21 L25.5,15 L30,21 L26.625,21 L30,25.5 L30,25.5 Z M31.5,12 L16.5,12 C15.6796875,12 15,12.6796875 15,13.5 L15,31.5 C15,32.3203125 15.6796875,33 16.5,33 L22.5,33 L22.5,31.5 L16.5,31.5 L16.5,28.5 L22.5,28.5 L22.5,27 L18,27 L18,13.5 L31.5,13.5 L31.5,27 L28.5,27 L28.5,28.5 L31.5,28.5 L31.5,31.5 L28.5,31.5 L28.5,33 L31.5,33 C32.3203125,33 33,32.3203125 33,31.5 L33,13.5 C33,12.6796875 32.3203125,12 31.5,12 L31.5,12 Z" id="Shape" fill="#000000" sketch:type="MSShapeGroup"></path>
                </g>
            </g>
        </g>
    </g>
</svg>