<?xml version="1.0" encoding="UTF-8" standalone="no"?>
<svg width="22px" height="18px" viewBox="0 0 22 18" version="1.1" xmlns="http://www.w3.org/2000/svg" xmlns:xlink="http://www.w3.org/1999/xlink" xmlns:sketch="http://www.bohemiancoding.com/sketch/ns">
    <!-- Generator: Sketch 3.4.2 (15855) - http://www.bohemiancoding.com/sketch -->
    <title>octicon-screen-full</title>
    <desc>Created with Sketch.</desc>
    <defs></defs>
    <g id="Symbols" stroke="none" stroke-width="1" fill="none" fill-rule="evenodd" sketch:type="MSPage">
        <g id="Octicons" sketch:type="MSArtboardGroup" transform="translate(-849.000000, -1108.000000)">
            <g id="icons" sketch:type="MSLayerGroup" transform="translate(788.000000, 613.000000)">
                <g id="octicon-screen-full" transform="translate(48.000000, 480.000000)">
                    <g id="icon-grid-copy-33"></g>
                    <path d="M33,27 L34.5,27 L34.5,31.5 C34.5,32.3203125 33.8203125,33 33,33 L28.5,33 L28.5,31.5 L33,31.5 L33,27 L33,27 Z M15,27 L13.5,27 L13.5,31.5 C13.5,32.3203125 14.1796875,33 15,33 L19.5,33 L19.5,31.5 L15,31.5 L15,27 L15,27 Z M15,16.5 L19.5,16.5 L19.5,15 L15,15 C14.1796875,15 13.5,15.6796875 13.5,16.5 L13.5,21 L15,21 L15,16.5 L15,16.5 Z M16.5,18 L31.5,18 L31.5,30 L16.5,30 L16.5,18 L16.5,18 Z M19.5,27 L28.5,27 L28.5,21 L19.5,21 L19.5,27 L19.5,27 Z M33,15 L28.5,15 L28.5,16.5 L33,16.5 L33,21 L34.5,21 L34.5,16.5 C34.5,15.6796875 33.8203125,15 33,15 L33,15 Z" id="Shape" fill="#000000" sketch:type="MSShapeGroup"></path>
                </g>
            </g>
        </g>
    </g>
</svg>