<?xml version="1.0" encoding="UTF-8" standalone="no"?>
<svg width="22px" height="24px" viewBox="0 0 22 24" version="1.1" xmlns="http://www.w3.org/2000/svg" xmlns:xlink="http://www.w3.org/1999/xlink" xmlns:sketch="http://www.bohemiancoding.com/sketch/ns">
    <!-- Generator: Sketch 3.4.2 (15855) - http://www.bohemiancoding.com/sketch -->
    <title>octicon-beaker</title>
    <desc>Created with Sketch.</desc>
    <defs></defs>
    <g id="Symbols" stroke="none" stroke-width="1" fill="none" fill-rule="evenodd" sketch:type="MSPage">
        <g id="Octicons" sketch:type="MSArtboardGroup" transform="translate(-1233.000000, -625.000000)">
            <g id="icons" sketch:type="MSLayerGroup" transform="translate(788.000000, 613.000000)">
                <g id="octicon-beaker" transform="translate(432.000000, 0.000000)">
                    <g id="icon-grid-copy-162"></g>
                    <path d="M34.366117,33.890625 L29.2772959,22.5 L29.2772959,16.5 L30.7850948,16.5 L30.7850948,15 L17.2149052,15 L17.2149052,16.5 L18.7227041,16.5 L18.7227041,22.5 L13.633883,33.890625 C13.1862552,34.875 13.9165953,36 15.0003257,36 L32.9996743,36 C34.0834047,36 34.8137448,34.875 34.366117,33.890625 L34.366117,33.890625 Z M18.5,27 L20.4166667,22.5 L20.4166667,16.5 L28.0833333,16.5 L28.0833333,22.5 L30,27 L18.5,27 L18.5,27 Z M25,24 L26.5,24 L26.5,25.5 L25,25.5 L25,24 L25,24 Z M23,22.5 L21.5,22.5 L21.5,21 L23,21 L23,22.5 L23,22.5 Z M23,18 L24.5,18 L24.5,19.5 L23,19.5 L23,18 L23,18 Z M23,13.5 L21.5,13.5 L21.5,12 L23,12 L23,13.5 L23,13.5 Z" id="Shape" fill="#000000" sketch:type="MSShapeGroup"></path>
                </g>
            </g>
        </g>
    </g>
</svg>