<?xml version="1.0" encoding="UTF-8" standalone="no"?>
<svg width="22px" height="23px" viewBox="0 0 22 23" version="1.1" xmlns="http://www.w3.org/2000/svg" xmlns:xlink="http://www.w3.org/1999/xlink" xmlns:sketch="http://www.bohemiancoding.com/sketch/ns">
    <!-- Generator: Sketch 3.4.2 (15855) - http://www.bohemiancoding.com/sketch -->
    <title>octicon-mail-read</title>
    <desc>Created with Sketch.</desc>
    <defs></defs>
    <g id="Symbols" stroke="none" stroke-width="1" fill="none" fill-rule="evenodd" sketch:type="MSPage">
        <g id="Octicons" sketch:type="MSArtboardGroup" transform="translate(-993.000000, -962.000000)">
            <g id="icons" sketch:type="MSLayerGroup" transform="translate(788.000000, 613.000000)">
                <g id="octicon-mail-read" transform="translate(192.000000, 336.000000)">
                    <g id="icon-grid-copy-64"></g>
                    <path d="M22.5,20.5 L19.5,20.5 L19.5,19 L22.5,19 L22.5,20.5 L22.5,20.5 Z M27,22 L19.5,22 L19.5,23.5 L27,23.5 L27,22 L27,22 Z M34.5,21.2734375 L34.5,34 C34.5,34.8203125 33.8203125,35.5 33,35.5 L15,35.5 C14.1796875,35.5 13.5,34.8203125 13.5,34 L13.5,21.2734375 C13.5,20.78125 13.734375,20.3359375 14.1328125,20.0546875 L16.5,18.3671875 L16.5,17.5 C16.5,16.6796875 17.1796875,16 18,16 L19.8046875,16 L24,13 L28.1953125,16 L30,16 C30.8203125,16 31.5,16.6796875 31.5,17.5 L31.5,18.3671875 L33.8671875,20.0546875 C34.265625,20.3359375 34.5,20.78125 34.5,21.2734375 L34.5,21.2734375 Z M18,24.25 L24,28 L30,24.25 L30,17.5 L18,17.5 L18,24.25 L18,24.25 Z M15,33.5 L22,29 L15,24.5 L15,33.5 L15,33.5 Z M31.5,34 L24,29.5 L16.5,34 L31.5,34 L31.5,34 Z M33.5,24.5 L26.5,29 L33.5,33.5 L33.5,24.5 L33.5,24.5 Z" id="Shape" fill="#000000" sketch:type="MSShapeGroup"></path>
                </g>
            </g>
        </g>
    </g>
</svg>