<?xml version="1.0" encoding="UTF-8" standalone="no"?>
<svg width="18px" height="22px" viewBox="0 0 18 22" version="1.1" xmlns="http://www.w3.org/2000/svg" xmlns:xlink="http://www.w3.org/1999/xlink" xmlns:sketch="http://www.bohemiancoding.com/sketch/ns">
    <!-- Generator: Sketch 3.4.2 (15855) - http://www.bohemiancoding.com/sketch -->
    <title>octicon-git-merge</title>
    <desc>Created with Sketch.</desc>
    <defs></defs>
    <g id="Symbols" stroke="none" stroke-width="1" fill="none" fill-rule="evenodd" sketch:type="MSPage">
        <g id="Octicons" sketch:type="MSArtboardGroup" transform="translate(-1043.000000, -866.000000)">
            <g id="icons" sketch:type="MSLayerGroup" transform="translate(788.000000, 613.000000)">
                <g id="octicon-git-merge" transform="translate(240.000000, 240.000000)">
                    <g id="icon-grid-copy-91"></g>
                    <path d="M30,22.5 C28.8984375,22.5 27.9375,23.109375 27.3984375,24.0234375 L27.3984375,24 C25.828125,23.9765625 24,23.4609375 22.7109375,22.4765625 C21.5859375,21.609375 20.4609375,20.0625 19.875,18.8203125 C20.5546875,18.28125 21,17.4375 21,16.5 C21,14.8359375 19.6640625,13.5 18,13.5 C16.3359375,13.5 15,14.8359375 15,16.5 C15,17.6015625 15.609375,18.5625 16.5,19.078125 L16.5,28.921875 C15.609375,29.4375 15,30.3984375 15,31.5 C15,33.1640625 16.3359375,34.5 18,34.5 C19.6640625,34.5 21,33.1640625 21,31.5 C21,30.3984375 20.390625,29.4375 19.5,28.921875 L19.5,23.5078125 C20.5078125,24.5625 21.65625,25.40625 22.9453125,26.0390625 C24.234375,26.671875 25.9921875,26.9765625 27.3984375,27 L27.3984375,26.9765625 C27.9375,27.890625 28.8984375,28.5 30,28.5 C31.6640625,28.5 33,27.1640625 33,25.5 C33,23.8359375 31.6640625,22.5 30,22.5 L30,22.5 Z M19.5,31.25 C19.5,32.2045455 18.7045455,33 17.75,33 C16.7954545,33 16,32.2045455 16,31.25 C16,30.2954545 16.7954545,29.5 17.75,29.5 C18.7045455,29.5 19.5,30.2954545 19.5,31.25 L19.5,31.25 Z M17.75,18 C16.7954545,18 16,17.2045455 16,16.25 C16,15.2954545 16.7954545,14.5 17.75,14.5 C18.7045455,14.5 19.5,15.2954545 19.5,16.25 C19.5,17.2045455 18.7045455,18 17.75,18 L17.75,18 Z M29.75,27 C28.7954545,27 28,26.2045455 28,25.25 C28,24.2954545 28.7954545,23.5 29.75,23.5 C30.7045455,23.5 31.5,24.2954545 31.5,25.25 C31.5,26.2045455 30.7045455,27 29.75,27 L29.75,27 Z" id="Shape" fill="#000000" sketch:type="MSShapeGroup"></path>
                </g>
            </g>
        </g>
    </g>
</svg>