<?xml version="1.0" encoding="UTF-8" standalone="no"?>
<svg width="22px" height="24px" viewBox="0 0 22 24" version="1.1" xmlns="http://www.w3.org/2000/svg" xmlns:xlink="http://www.w3.org/1999/xlink" xmlns:sketch="http://www.bohemiancoding.com/sketch/ns">
    <!-- Generator: Sketch 3.4.2 (15855) - http://www.bohemiancoding.com/sketch -->
    <title>octicon-shield</title>
    <desc>Created with Sketch.</desc>
    <defs></defs>
    <g id="Symbols" stroke="none" stroke-width="1" fill="none" fill-rule="evenodd" sketch:type="MSPage">
        <g id="Octicons" sketch:type="MSArtboardGroup" transform="translate(-1089.000000, -1105.000000)">
            <g id="icons" sketch:type="MSLayerGroup" transform="translate(788.000000, 613.000000)">
                <g id="octicon-shield" transform="translate(288.000000, 480.000000)">
                    <g id="icon-grid-copy-36"></g>
                    <path d="M24,12 L13.5,15 L13.5,24.0234375 C13.5,31.03125 21.46875,36 24,36 C26.53125,36 34.5,31.03125 34.5,24.0234375 L34.5,15 L24,12 L24,12 Z M21,28.5 L22.7109375,24.3046875 C22.78125,23.953125 22.6171875,23.6015625 22.3359375,23.4140625 C21.4921875,22.875 21,21.984375 21,21 C21,19.359375 22.3359375,18 23.9765625,18 C25.59375,18 27,19.359375 27,21 C27,21.984375 26.5078125,22.875 25.6640625,23.4140625 C25.3828125,23.6015625 25.21875,23.953125 25.2890625,24.3046875 L27,28.5 L21,28.5 L21,28.5 Z" id="Shape" fill="#000000" sketch:type="MSShapeGroup"></path>
                </g>
            </g>
        </g>
    </g>
</svg>