<?xml version="1.0" encoding="UTF-8" standalone="no"?>
<svg width="20px" height="24px" viewBox="0 0 20 24" version="1.1" xmlns="http://www.w3.org/2000/svg" xmlns:xlink="http://www.w3.org/1999/xlink" xmlns:sketch="http://www.bohemiancoding.com/sketch/ns">
    <!-- Generator: Sketch 3.4.2 (15855) - http://www.bohemiancoding.com/sketch -->
    <title>octicon-jersey</title>
    <desc>Created with Sketch.</desc>
    <defs></defs>
    <g id="Symbols" stroke="none" stroke-width="1" fill="none" fill-rule="evenodd" sketch:type="MSPage">
        <g id="Octicons" sketch:type="MSArtboardGroup" transform="translate(-1090.000000, -913.000000)">
            <g id="icons" sketch:type="MSLayerGroup" transform="translate(788.000000, 613.000000)">
                <g id="octicon-jersey" transform="translate(288.000000, 288.000000)">
                    <g id="icon-grid-copy-78"></g>
                    <path d="M19.75,21 L19,21.75 L19,29.25 L19.75,30 L22.75,30 L23.5,29.25 L23.5,21.75 L22.75,21 L19.75,21 L19.75,21 Z M22,28.5 L20.5,28.5 L20.5,22.5 L22,22.5 L22,28.5 L22,28.5 Z M31.3984375,17.625 C31.0703125,15.5625 30.9296875,13.6875 31,12 L26.5234375,12 C26.5234375,12.3984375 26.3359375,12.7265625 25.9375,13.03125 C25.5625,13.3359375 25,13.4765625 24.25,13.4765625 C23.5,13.4765625 22.9375,13.3359375 22.5625,13.03125 C22.2109375,12.7265625 22.0234375,12.3984375 22.0234375,12 L17.5,12 C17.5703125,13.6875 17.453125,15.5625 17.125,17.625 C16.8203125,19.6875 15.9296875,20.8125 14.5,21 L14.5,34.5 C14.5234375,34.8984375 14.6640625,35.2265625 14.96875,35.53125 C15.2734375,35.8359375 15.6015625,35.9765625 16,36 L32.5,36 C32.8984375,35.9765625 33.2265625,35.8359375 33.53125,35.53125 C33.8359375,35.2265625 33.9765625,34.8984375 34,34.5 L34,21 C32.5703125,20.8125 31.703125,19.6875 31.375,17.625 L31.3984375,17.625 Z M32.5,34.5 L16,34.5 L16,22.5 C17.3359375,21.75 18.2265625,20.625 18.578125,19.125 C18.9296875,17.625 19.046875,15.75 19,13.5 L20.5,13.5 C20.4765625,14.671875 20.734375,15.703125 21.2734375,16.59375 C21.8125,17.4609375 22.796875,17.9296875 24.2734375,18 C25.75,17.9765625 26.734375,17.5078125 27.2734375,16.59375 C27.8125,15.703125 28.0234375,14.671875 28,13.5 L29.5,13.5 C29.5234375,15.6328125 29.6875,17.3203125 29.9921875,18.5625 C30.296875,19.78125 31.0234375,21.5625 32.5,22.5 L32.5,34.5 L32.5,34.5 Z M25.75,21 L25,21.75 L25,29.25 L25.75,30 L28.75,30 L29.5,29.25 L29.5,21.75 L28.75,21 L25.75,21 L25.75,21 Z M28,28.5 L26.5,28.5 L26.5,22.5 L28,22.5 L28,28.5 L28,28.5 Z" id="Shape" fill="#000000" sketch:type="MSShapeGroup"></path>
                </g>
            </g>
        </g>
    </g>
</svg>