<?xml version="1.0" encoding="UTF-8" standalone="no"?>
<svg width="12px" height="24px" viewBox="0 0 12 24" version="1.1" xmlns="http://www.w3.org/2000/svg" xmlns:xlink="http://www.w3.org/1999/xlink" xmlns:sketch="http://www.bohemiancoding.com/sketch/ns">
    <!-- Generator: Sketch 3.4.2 (15855) - http://www.bohemiancoding.com/sketch -->
    <title>octicon-person</title>
    <desc>Created with Sketch.</desc>
    <defs></defs>
    <g id="Symbols" stroke="none" stroke-width="1" fill="none" fill-rule="evenodd" sketch:type="MSPage">
        <g id="Octicons" sketch:type="MSArtboardGroup" transform="translate(-1190.000000, -1009.000000)">
            <g id="icons" sketch:type="MSLayerGroup" transform="translate(788.000000, 613.000000)">
                <g id="octicon-person" transform="translate(384.000000, 384.000000)">
                    <g id="icon-grid-copy-58"></g>
                    <path d="M28.5,21 L19.5,21 C18.6796875,21 18,21.6796875 18,22.5 L18,30 L21,30 L21,34.5 C21,35.3203125 21.6796875,36 22.5,36 L25.5,36 C26.3203125,36 27,35.3203125 27,34.5 L27,30 L30,30 L30,22.5 C30,21.6796875 29.3203125,21 28.5,21 L28.5,21 Z M28.5,28.5 L27,28.5 L27,25.5 L25.5,25.5 L25.5,34.5 L22.5,34.5 L22.5,25.5 L21,25.5 L21,28.5 L19.5,28.5 L19.5,22.5 L28.5,22.5 L28.5,28.5 L28.5,28.5 Z M28.5,16.5 C28.5,14.015625 26.484375,12 24,12 C21.515625,12 19.5,14.015625 19.5,16.5 C19.5,18.984375 21.515625,21 24,21 C26.484375,21 28.5,18.984375 28.5,16.5 L28.5,16.5 Z M24,19.5 C22.3359375,19.5 21,18.1640625 21,16.5 C21,14.8359375 22.3359375,13.5 24,13.5 C25.6640625,13.5 27,14.8359375 27,16.5 C27,18.1640625 25.6640625,19.5 24,19.5 L24,19.5 Z" id="Shape" fill="#000000" sketch:type="MSShapeGroup"></path>
                </g>
            </g>
        </g>
    </g>
</svg>