<?xml version="1.0" encoding="UTF-8" standalone="no"?>
<svg width="22px" height="24px" viewBox="0 0 22 24" version="1.1" xmlns="http://www.w3.org/2000/svg" xmlns:xlink="http://www.w3.org/1999/xlink" xmlns:sketch="http://www.bohemiancoding.com/sketch/ns">
    <!-- Generator: Sketch 3.4.2 (15855) - http://www.bohemiancoding.com/sketch -->
    <title>octicon-thumbsup</title>
    <desc>Created with Sketch.</desc>
    <defs></defs>
    <g id="Symbols" stroke="none" stroke-width="1" fill="none" fill-rule="evenodd" sketch:type="MSPage">
        <g id="Octicons" sketch:type="MSArtboardGroup" transform="translate(-1041.000000, -1153.000000)">
            <g id="icons" sketch:type="MSLayerGroup" transform="translate(788.000000, 613.000000)">
                <g id="octicon-thumbsup" transform="translate(240.000000, 528.000000)">
                    <g id="icon-grid-copy-27"></g>
                    <path d="M34.5,22.5703125 C34.5,20.8828125 33.28125,19.5 31.5,19.5 L25.5,20.53125 C26.0390625,19.9921875 27.7734375,17.765625 28.2421875,17.296875 C29.4609375,16.0546875 29.484375,14.0859375 28.2890625,12.890625 C27.7265625,12.3046875 26.953125,12 26.1328125,12 C25.2890625,12 24.4921875,12.328125 23.8828125,12.9375 C23.8828125,12.9375 20.109375,16.640625 19.828125,16.875 C18.6328125,17.8828125 15.8671875,19.453125 15,19.5 L13.5,19.5 L13.5,33 L14.9765625,33 C15.5390625,33 16.640625,33.5859375 17.625,34.1015625 C19.3125,34.9921875 21.234375,36 23.296875,36 L28.5,36 C30.1171875,36 31.5,34.8046875 31.5,33.2578125 C31.5,33.0703125 31.3125,32.8125 31.265625,32.625 C32.1796875,32.0390625 32.7890625,31.03125 32.7890625,29.859375 C32.7890625,29.53125 32.7421875,29.203125 32.6484375,28.8984375 C33.609375,28.3359375 34.265625,27.28125 34.265625,26.0859375 C34.265625,25.5703125 34.125,25.078125 33.9140625,24.6328125 C34.4296875,24.0703125 34.5,23.3671875 34.5,22.5703125 L34.5,22.5703125 Z M33,22.583612 C33,23.4732441 32.5078125,24.222408 31.5234375,24.222408 L30.890625,24.222408 C31.9453125,24.222408 32.7890625,25.0652174 32.7890625,26.0953177 C32.7890625,27.1488294 31.9453125,27.7575251 30.890625,27.7575251 L29.4140625,27.7575251 C30.46875,27.7575251 31.3125,28.8344482 31.3125,29.8645485 C31.3125,30.9180602 30.6796875,31.5033445 29.625,31.5033445 L28.5,31.5033445 C29.296875,31.5033445 30,32.4632107 30,33.2591973 C30,34.0317726 29.296875,34.5 28.5,34.5 L23.25,34.5 C20.1796875,34.5 17.0390625,31.5501672 15,31.5501672 L15,21.0150502 C16.5703125,21.0150502 19.6171875,18.9782609 21.6328125,17.3160535 L24.9140625,13.9916388 C25.265625,13.6638796 25.7109375,13.5 26.1328125,13.5 C26.5546875,13.5 26.953125,13.6404682 27.2578125,13.9448161 C27.8671875,14.5769231 27.84375,15.6070234 27.1875,16.2859532 C27.1875,16.2859532 22.3359375,22.5133779 22.5,22.5133779 L31.5,21.0150502 C32.4609375,21.0150502 33,21.6705686 33,22.583612 L33,22.583612 Z" id="Shape" fill="#000000" sketch:type="MSShapeGroup"></path>
                </g>
            </g>
        </g>
    </g>
</svg>