<?xml version="1.0" encoding="UTF-8" standalone="no"?>
<svg width="24px" height="22px" viewBox="0 0 24 22" version="1.1" xmlns="http://www.w3.org/2000/svg" xmlns:xlink="http://www.w3.org/1999/xlink" xmlns:sketch="http://www.bohemiancoding.com/sketch/ns">
    <!-- Generator: Sketch 3.4.2 (15855) - http://www.bohemiancoding.com/sketch -->
    <title>octicon-alert</title>
    <desc>Created with Sketch.</desc>
    <defs></defs>
    <g id="Symbols" stroke="none" stroke-width="1" fill="none" fill-rule="evenodd" sketch:type="MSPage">
        <g id="Octicons" sketch:type="MSArtboardGroup" transform="translate(-800.000000, -626.000000)">
            <g id="icons" sketch:type="MSLayerGroup" transform="translate(788.000000, 613.000000)">
                <g id="octicon-alert">
                    <g id="icon-grid-copy-171"></g>
                    <path d="M35.3027472,32.2532816 L25.0498993,14.2566335 C24.7833355,13.7887441 24.2872624,13.5 23.7499941,13.5 C23.2127258,13.5 22.7166527,13.7887441 22.4501123,14.2566335 L12.1972644,32.2532816 C11.9324784,32.7180737 11.9343733,33.2890626 12.2022471,33.752048 C12.470121,34.2150335 12.9634337,34.5 13.4971462,34.5 L34.002842,34.5 C34.5365311,34.5 35.0298672,34.2150335 35.2977411,33.752048 C35.5656149,33.2890626 35.5675332,32.7180737 35.3027472,32.2532816 L35.3027472,32.2532816 Z M25.5,31.5 L22.5,31.5 L22.5,28.5 L25.5,28.5 L25.5,31.5 L25.5,31.5 Z M25.5,27 L22.5,27 L22.5,21 L25.5,21 L25.5,27 L25.5,27 Z" id="Shape" fill="#000000" sketch:type="MSShapeGroup"></path>
                </g>
            </g>
        </g>
    </g>
</svg>