<?xml version="1.0" encoding="UTF-8" standalone="no"?>
<svg width="20px" height="22px" viewBox="0 0 20 22" version="1.1" xmlns="http://www.w3.org/2000/svg" xmlns:xlink="http://www.w3.org/1999/xlink" xmlns:sketch="http://www.bohemiancoding.com/sketch/ns">
    <!-- Generator: Sketch 3.4.2 (15855) - http://www.bohemiancoding.com/sketch -->
    <title>octicon-calendar</title>
    <desc>Created with Sketch.</desc>
    <defs></defs>
    <g id="Symbols" stroke="none" stroke-width="1" fill="none" fill-rule="evenodd" sketch:type="MSPage">
        <g id="Octicons" sketch:type="MSArtboardGroup" transform="translate(-994.000000, -674.000000)">
            <g id="icons" sketch:type="MSLayerGroup" transform="translate(788.000000, 613.000000)">
                <g id="octicon-calendar" transform="translate(192.000000, 48.000000)">
                    <g id="icon-grid-copy-154"></g>
                    <path d="M32.5,15 L31,15 L31,17.25 C31,17.671875 30.671875,18 30.25,18 L27.25,18 C26.828125,18 26.5,17.671875 26.5,17.25 L26.5,15 L22,15 L22,17.25 C22,17.671875 21.671875,18 21.25,18 L18.25,18 C17.828125,18 17.5,17.671875 17.5,17.25 L17.5,15 L16,15 C15.1796875,15 14.5,15.6796875 14.5,16.5 L14.5,33 C14.5,33.8203125 15.1796875,34.5 16,34.5 L32.5,34.5 C33.3203125,34.5 34,33.8203125 34,33 L34,16.5 C34,15.6796875 33.3203125,15 32.5,15 L32.5,15 Z M32.5,33 L16,33 L16,19.5 L32.5,19.5 L32.5,33 L32.5,33 Z M20.5,16.5 L19,16.5 L19,13.5 L20.5,13.5 L20.5,16.5 L20.5,16.5 Z M29.5,16.5 L28,16.5 L28,13.5 L29.5,13.5 L29.5,16.5 L29.5,16.5 Z M22,22.5 L20.5,22.5 L20.5,21 L22,21 L22,22.5 L22,22.5 Z M25,22.5 L23.5,22.5 L23.5,21 L25,21 L25,22.5 L25,22.5 Z M28,22.5 L26.5,22.5 L26.5,21 L28,21 L28,22.5 L28,22.5 Z M31,22.5 L29.5,22.5 L29.5,21 L31,21 L31,22.5 L31,22.5 Z M19,25.5 L17.5,25.5 L17.5,24 L19,24 L19,25.5 L19,25.5 Z M22,25.5 L20.5,25.5 L20.5,24 L22,24 L22,25.5 L22,25.5 Z M25,25.5 L23.5,25.5 L23.5,24 L25,24 L25,25.5 L25,25.5 Z M28,25.5 L26.5,25.5 L26.5,24 L28,24 L28,25.5 L28,25.5 Z M31,25.5 L29.5,25.5 L29.5,24 L31,24 L31,25.5 L31,25.5 Z M19,28.5 L17.5,28.5 L17.5,27 L19,27 L19,28.5 L19,28.5 Z M22,28.5 L20.5,28.5 L20.5,27 L22,27 L22,28.5 L22,28.5 Z M25,28.5 L23.5,28.5 L23.5,27 L25,27 L25,28.5 L25,28.5 Z M28,28.5 L26.5,28.5 L26.5,27 L28,27 L28,28.5 L28,28.5 Z M31,28.5 L29.5,28.5 L29.5,27 L31,27 L31,28.5 L31,28.5 Z M19,31.5 L17.5,31.5 L17.5,30 L19,30 L19,31.5 L19,31.5 Z M22,31.5 L20.5,31.5 L20.5,30 L22,30 L22,31.5 L22,31.5 Z M25,31.5 L23.5,31.5 L23.5,30 L25,30 L25,31.5 L25,31.5 Z M28,31.5 L26.5,31.5 L26.5,30 L28,30 L28,31.5 L28,31.5 Z" id="Shape" fill="#000000" sketch:type="MSShapeGroup"></path>
                </g>
            </g>
        </g>
    </g>
</svg>