<?xml version="1.0" encoding="UTF-8" standalone="no"?>
<svg width="18px" height="22px" viewBox="0 0 18 22" version="1.1" xmlns="http://www.w3.org/2000/svg" xmlns:xlink="http://www.w3.org/1999/xlink" xmlns:sketch="http://www.bohemiancoding.com/sketch/ns">
    <!-- Generator: Sketch 3.4.2 (15855) - http://www.bohemiancoding.com/sketch -->
    <title>octicon-server</title>
    <desc>Created with Sketch.</desc>
    <defs></defs>
    <g id="Symbols" stroke="none" stroke-width="1" fill="none" fill-rule="evenodd" sketch:type="MSPage">
        <g id="Octicons" sketch:type="MSArtboardGroup" transform="translate(-995.000000, -1106.000000)">
            <g id="icons" sketch:type="MSLayerGroup" transform="translate(788.000000, 613.000000)">
                <g id="octicon-server" transform="translate(192.000000, 480.000000)">
                    <g id="icon-grid-copy-37"></g>
                    <path d="M31.5,21 L16.5,21 C15.6796875,21 15,21.6796875 15,22.5 L15,25.5 C15,26.3203125 15.6796875,27 16.5,27 L31.5,27 C32.3203125,27 33,26.3203125 33,25.5 L33,22.5 C33,21.6796875 32.3203125,21 31.5,21 L31.5,21 Z M18,25.5 L16.5,25.5 L16.5,22.5 L18,22.5 L18,25.5 L18,25.5 Z M21,25.5 L19.5,25.5 L19.5,22.5 L21,22.5 L21,25.5 L21,25.5 Z M24,25.5 L22.5,25.5 L22.5,22.5 L24,22.5 L24,25.5 L24,25.5 Z M27,25.5 L25.5,25.5 L25.5,22.5 L27,22.5 L27,25.5 L27,25.5 Z M31.5,13.5 L16.5,13.5 C15.6796875,13.5 15,14.1796875 15,15 L15,18 C15,18.8203125 15.6796875,19.5 16.5,19.5 L31.5,19.5 C32.3203125,19.5 33,18.8203125 33,18 L33,15 C33,14.1796875 32.3203125,13.5 31.5,13.5 L31.5,13.5 Z M18,18 L16.5,18 L16.5,15 L18,15 L18,18 L18,18 Z M21,18 L19.5,18 L19.5,15 L21,15 L21,18 L21,18 Z M24,18 L22.5,18 L22.5,15 L24,15 L24,18 L24,18 Z M27,18 L25.5,18 L25.5,15 L27,15 L27,18 L27,18 Z M31.5,16.5 L30,16.5 L30,15 L31.5,15 L31.5,16.5 L31.5,16.5 Z M31.5,28.5 L16.5,28.5 C15.6796875,28.5 15,29.1796875 15,30 L15,33 C15,33.8203125 15.6796875,34.5 16.5,34.5 L31.5,34.5 C32.3203125,34.5 33,33.8203125 33,33 L33,30 C33,29.1796875 32.3203125,28.5 31.5,28.5 L31.5,28.5 Z M18,33 L16.5,33 L16.5,30 L18,30 L18,33 L18,33 Z M21,33 L19.5,33 L19.5,30 L21,30 L21,33 L21,33 Z M24,33 L22.5,33 L22.5,30 L24,30 L24,33 L24,33 Z M27,33 L25.5,33 L25.5,30 L27,30 L27,33 L27,33 Z" id="Shape" fill="#000000" sketch:type="MSShapeGroup"></path>
                </g>
            </g>
        </g>
    </g>
</svg>