<?xml version="1.0" encoding="UTF-8" standalone="no"?>
<svg width="18px" height="22px" viewBox="0 0 18 22" version="1.1" xmlns="http://www.w3.org/2000/svg" xmlns:xlink="http://www.w3.org/1999/xlink" xmlns:sketch="http://www.bohemiancoding.com/sketch/ns">
    <!-- Generator: Sketch 3.4.2 (15855) - http://www.bohemiancoding.com/sketch -->
    <title>octicon-file-symlink-file</title>
    <desc>Created with Sketch.</desc>
    <defs></defs>
    <g id="Symbols" stroke="none" stroke-width="1" fill="none" fill-rule="evenodd" sketch:type="MSPage">
        <g id="Octicons" sketch:type="MSArtboardGroup" transform="translate(-1091.000000, -818.000000)">
            <g id="icons" sketch:type="MSLayerGroup" transform="translate(788.000000, 613.000000)">
                <g id="octicon-file-symlink-file" transform="translate(288.000000, 192.000000)">
                    <g id="icon-grid-copy-102"></g>
                    <path d="M27.75,13.5 L16.5,13.5 C15.6796875,13.5 15,14.1796875 15,15 L15,33 C15,33.8203125 15.6796875,34.5 16.5,34.5 L31.5,34.5 C32.3203125,34.5 33,33.8203125 33,33 L33,18.75 L27.75,13.5 L27.75,13.5 Z M31.5,33 L16.5,33 L16.5,15 L27,15 L31.5,19.5 L31.5,33 L31.5,33 Z M24,19 L30,23.5 L24,28 L24,25 C22.5234375,24.9765625 21.234375,25.328125 20.1796875,26.0546875 C19.125,26.78125 18.3984375,27.9296875 18,29.5 C18.0234375,27.0390625 18.5859375,25.1875 19.6875,23.8984375 C20.7890625,22.6328125 22.21875,22 24,22 L24,19 L24,19 Z" id="Shape" fill="#000000" sketch:type="MSShapeGroup"></path>
                </g>
            </g>
        </g>
    </g>
</svg>