<?xml version="1.0" encoding="UTF-8" standalone="no"?>
<svg width="24px" height="20px" viewBox="0 0 24 20" version="1.1" xmlns="http://www.w3.org/2000/svg" xmlns:xlink="http://www.w3.org/1999/xlink" xmlns:sketch="http://www.bohemiancoding.com/sketch/ns">
    <!-- Generator: Sketch 3.4.2 (15855) - http://www.bohemiancoding.com/sketch -->
    <title>octicon-device-desktop</title>
    <desc>Created with Sketch.</desc>
    <defs></defs>
    <g id="Symbols" stroke="none" stroke-width="1" fill="none" fill-rule="evenodd" sketch:type="MSPage">
        <g id="Octicons" sketch:type="MSArtboardGroup" transform="translate(-896.000000, -771.000000)">
            <g id="icons" sketch:type="MSLayerGroup" transform="translate(788.000000, 613.000000)">
                <g id="octicon-device-desktop" transform="translate(96.000000, 144.000000)">
                    <g id="icon-grid-copy-133"></g>
                    <path d="M34.5,14.5 L13.5,14.5 C12.6796875,14.5 12,15.1796875 12,16 L12,29.5 C12,30.3203125 12.6796875,31 13.5,31 L21.515625,31 C21.140625,31.9140625 20.2265625,33.0859375 18,34 L30,34 C27.7734375,33.0859375 26.859375,31.9140625 26.484375,31 L34.5,31 C35.3203125,31 36,30.3203125 36,29.5 L36,16 C36,15.1796875 35.3203125,14.5 34.5,14.5 L34.5,14.5 Z M34.5,28 L13.5,28 L13.5,16 L34.5,16 L34.5,28 L34.5,28 Z" id="Shape" fill="#000000" sketch:type="MSShapeGroup"></path>
                </g>
            </g>
        </g>
    </g>
</svg>