<?xml version="1.0" encoding="UTF-8" standalone="no"?>
<svg width="22px" height="18px" viewBox="0 0 22 18" version="1.1" xmlns="http://www.w3.org/2000/svg" xmlns:xlink="http://www.w3.org/1999/xlink" xmlns:sketch="http://www.bohemiancoding.com/sketch/ns">
    <!-- Generator: Sketch 3.4.2 (15855) - http://www.bohemiancoding.com/sketch -->
    <title>octicon-terminal</title>
    <desc>Created with Sketch.</desc>
    <defs></defs>
    <g id="Symbols" stroke="none" stroke-width="1" fill="none" fill-rule="evenodd" sketch:type="MSPage">
        <g id="Octicons" sketch:type="MSArtboardGroup" transform="translate(-897.000000, -1156.000000)">
            <g id="icons" sketch:type="MSLayerGroup" transform="translate(788.000000, 613.000000)">
                <g id="octicon-terminal" transform="translate(96.000000, 528.000000)">
                    <g id="icon-grid-copy-30"></g>
                    <path d="M24,27 L30,27 L30,28.5 L24,28.5 L24,27 L24,27 Z M19.6,28.5 L24,24 L19.6,19.5 L18.5,20.625 L21.8,24 L18.5,27.375 L19.6,28.5 L19.6,28.5 Z M34.5,16.5 L34.5,31.5 C34.5,32.3203125 33.8203125,33 33,33 L15,33 C14.1796875,33 13.5,32.3203125 13.5,31.5 L13.5,16.5 C13.5,15.6796875 14.1796875,15 15,15 L33,15 C33.8203125,15 34.5,15.6796875 34.5,16.5 L34.5,16.5 Z M33,16.5 L15,16.5 L15,31.5 L33,31.5 L33,16.5 L33,16.5 Z" id="Shape" fill="#000000" sketch:type="MSShapeGroup"></path>
                </g>
            </g>
        </g>
    </g>
</svg>