<?xml version="1.0" encoding="UTF-8" standalone="no"?>
<svg width="20px" height="20px" viewBox="0 0 20 20" version="1.1" xmlns="http://www.w3.org/2000/svg" xmlns:xlink="http://www.w3.org/1999/xlink" xmlns:sketch="http://www.bohemiancoding.com/sketch/ns">
    <!-- Generator: Sketch 3.4.2 (15855) - http://www.bohemiancoding.com/sketch -->
    <title>octicon-gift</title>
    <desc>Created with Sketch.</desc>
    <defs></defs>
    <g id="Symbols" stroke="none" stroke-width="1" fill="none" fill-rule="evenodd" sketch:type="MSPage">
        <g id="Octicons" sketch:type="MSArtboardGroup" transform="translate(-1378.000000, -819.000000)">
            <g id="icons" sketch:type="MSLayerGroup" transform="translate(788.000000, 613.000000)">
                <g id="octicon-gift" transform="translate(576.000000, 192.000000)">
                    <g id="icon-grid-copy-110"></g>
                    <path d="M32,19 L29.9375,19 C30.21875,18.5078125 30.4296875,17.9921875 30.4765625,17.640625 C30.5703125,16.6328125 30.3125,15.8125 29.703125,15.2265625 C29.1640625,14.6640625 28.484375,14.5 27.6640625,14.5 L27.5,14.5 C26.703125,14.5234375 25.8359375,14.875 25.203125,15.3671875 C24.5703125,15.859375 24.1015625,16.4453125 23.75,17.171875 C23.3984375,16.4453125 22.9296875,15.859375 22.296875,15.3671875 C21.6640625,14.875 20.796875,14.5 20,14.5 L19.953125,14.5 C19.109375,14.5 18.359375,14.640625 17.796875,15.2265625 C17.1875,15.8125 16.9296875,16.6328125 17.0234375,17.640625 C17.0703125,17.9921875 17.28125,18.5078125 17.5625,19 L15.5,19 C14.6796875,19 14,19.6796875 14,20.5 L14,25 L15.5,25 L15.5,32.5 C15.5,33.3203125 16.1796875,34 17,34 L30.5,34 C31.3203125,34 32,33.3203125 32,32.5 L32,25 L33.5,25 L33.5,20.5 C33.5,19.6796875 32.8203125,19 32,19 L32,19 Z M24.5984691,17.6099291 C24.8516675,17.0390071 25.2199561,16.5425532 25.703335,16.1453901 C26.1406778,15.7730496 26.7621649,15.5248227 27.2455437,15.5 L27.383652,15.5 C28.0511751,15.5 28.3504097,15.6737589 28.557572,15.8971631 C28.7647344,16.1205674 29.0409509,16.5177305 28.9949148,17.4113475 C28.9258607,17.7092199 28.6266261,18.3794326 28.2583375,19 L24,19 L24.5984691,17.6099291 L24.5984691,17.6099291 Z M18.4404006,15.8971631 C18.623701,15.6985816 18.8986518,15.5 19.769329,15.5 C20.2275802,15.5 20.8233068,15.7730496 21.281558,16.1453901 C21.7627218,16.5425532 22.1293227,17.0141844 22.3813609,17.6099291 L23,19 L18.7382638,19 C18.3716629,18.3794326 18.0737996,17.7092199 18.0050619,17.4113475 C17.9592368,16.5177305 18.2341875,16.1205674 18.4404006,15.8971631 L18.4404006,15.8971631 Z M23,32.5 L17,32.5 L17,25 L23,25 L23,32.5 L23,32.5 Z M23,23.5 L15.5,23.5 L15.5,20.5 L23,20.5 L23,23.5 L23,23.5 Z M30.5,32.5 L24.5,32.5 L24.5,25 L30.5,25 L30.5,32.5 L30.5,32.5 Z M32,23.5 L24.5,23.5 L24.5,20.5 L32,20.5 L32,23.5 L32,23.5 Z" id="Shape" fill="#000000" sketch:type="MSShapeGroup"></path>
                </g>
            </g>
        </g>
    </g>
</svg>