<?xml version="1.0" encoding="UTF-8" standalone="no"?>
<svg width="20px" height="24px" viewBox="0 0 20 24" version="1.1" xmlns="http://www.w3.org/2000/svg" xmlns:xlink="http://www.w3.org/1999/xlink" xmlns:sketch="http://www.bohemiancoding.com/sketch/ns">
    <!-- Generator: Sketch 3.4.2 (15855) - http://www.bohemiancoding.com/sketch -->
    <title>octicon-diff</title>
    <desc>Created with Sketch.</desc>
    <defs></defs>
    <g id="Symbols" stroke="none" stroke-width="1" fill="none" fill-rule="evenodd" sketch:type="MSPage">
        <g id="Octicons" sketch:type="MSArtboardGroup" transform="translate(-1234.000000, -769.000000)">
            <g id="icons" sketch:type="MSLayerGroup" transform="translate(788.000000, 613.000000)">
                <g id="octicon-diff" transform="translate(432.000000, 144.000000)">
                    <g id="icon-grid-copy-117"></g>
                    <path d="M23,22.5 L26,22.5 L26,24 L23,24 L23,27 L21.5,27 L21.5,24 L18.5,24 L18.5,22.5 L21.5,22.5 L21.5,19.5 L23,19.5 L23,22.5 L23,22.5 Z M18.5,31.5 L26,31.5 L26,30 L18.5,30 L18.5,31.5 L18.5,31.5 Z M25.25,15 L30.5,20.25 L30.5,34.5 C30.5,35.3203125 29.8203125,36 29,36 L15.5,36 C14.6796875,36 14,35.3203125 14,34.5 L14,16.5 C14,15.6796875 14.6796875,15 15.5,15 L25.25,15 L25.25,15 Z M29,21 L24.5,16.5 L15.5,16.5 L15.5,34.5 L29,34.5 L29,21 L29,21 Z M26.6514692,12 L18.2810426,12 L18.2810426,13.5 L25.8905213,13.5 L31.9781043,19.5 L31.9781043,31.5 L33.5,31.5 L33.5,18.75 L26.6514692,12 L26.6514692,12 Z" id="Shape" fill="#000000" sketch:type="MSShapeGroup"></path>
                </g>
            </g>
        </g>
    </g>
</svg>