<?xml version="1.0" encoding="UTF-8" standalone="no"?>
<svg width="24px" height="22px" viewBox="0 0 24 22" version="1.1" xmlns="http://www.w3.org/2000/svg" xmlns:xlink="http://www.w3.org/1999/xlink" xmlns:sketch="http://www.bohemiancoding.com/sketch/ns">
    <!-- Generator: Sketch 3.4.2 (15855) - http://www.bohemiancoding.com/sketch -->
    <title>octicon-megaphone</title>
    <desc>Created with Sketch.</desc>
    <defs></defs>
    <g id="Symbols" stroke="none" stroke-width="1" fill="none" fill-rule="evenodd" sketch:type="MSPage">
        <g id="Octicons" sketch:type="MSArtboardGroup" transform="translate(-1232.000000, -962.000000)">
            <g id="icons" sketch:type="MSLayerGroup" transform="translate(788.000000, 613.000000)">
                <g id="octicon-megaphone" transform="translate(432.000000, 336.000000)">
                    <g id="icon-grid-copy-75"></g>
                    <path d="M27,13.5 C26.7421875,13.5 26.4609375,13.5703125 26.2265625,13.7109375 C24.0703125,15.0234375 18.75,18.8671875 16.5,19.5 C14.4375,19.5 12,20.5078125 12,23.25 C12,25.9921875 14.4375,27 16.5,27 C16.9453125,27.1171875 17.4609375,27.3515625 18,27.609375 L18,34.5 L21,34.5 L21,29.3203125 C23.015625,30.609375 25.03125,32.0625 26.2265625,32.7890625 C26.4609375,32.9296875 26.7421875,33 27,33 C27.7734375,33 28.5,32.3671875 28.5,31.5 L28.5,15 C28.5,14.1328125 27.7734375,13.5 27,13.5 L27,13.5 Z M27,31.5 C26.4375,31.1484375 25.6640625,30.6328125 24.75,30 C24.515625,29.8359375 24.2578125,29.671875 24,29.484375 L24,16.96875 C24.234375,16.8046875 24.46875,16.6640625 24.703125,16.5 C25.6171875,15.890625 26.4375,15.3515625 27,15 L27,31.5 L27,31.5 Z M30,22.5 L36,22.5 L36,24 L30,24 L30,22.5 L30,22.5 Z M30,25.5 L36,28.5 L36,30 L30,27 L30,25.5 L30,25.5 Z M36,16.5 L36,18 L30,21 L30,19.5 L36,16.5 L36,16.5 Z" id="Shape" fill="#000000" sketch:type="MSShapeGroup"></path>
                </g>
            </g>
        </g>
    </g>
</svg>