<?xml version="1.0" encoding="UTF-8" standalone="no"?>
<svg width="21px" height="18px" viewBox="0 0 21 18" version="1.1" xmlns="http://www.w3.org/2000/svg" xmlns:xlink="http://www.w3.org/1999/xlink" xmlns:sketch="http://www.bohemiancoding.com/sketch/ns">
    <!-- Generator: Sketch 3.4.2 (15855) - http://www.bohemiancoding.com/sketch -->
    <title>octicon-gist-secret</title>
    <desc>Created with Sketch.</desc>
    <defs></defs>
    <g id="Symbols" stroke="none" stroke-width="1" fill="none" fill-rule="evenodd" sketch:type="MSPage">
        <g id="Octicons" sketch:type="MSArtboardGroup" transform="translate(-802.000000, -868.000000)">
            <g id="icons" sketch:type="MSLayerGroup" transform="translate(788.000000, 613.000000)">
                <g id="octicon-gist-secret" transform="translate(0.000000, 240.000000)">
                    <g id="icon-grid-copy-106"></g>
                    <path d="M25.5,27.75 L27,33 L21,33 L22.5,27.75 L21.375,25.5 L26.625,25.5 L25.5,27.75 L25.5,27.75 Z M28.5,21 L19.5,21 L16.5,22.5 L31.5,22.5 L28.5,21 L28.5,21 Z M27,15 L24,16.5 L21,15 L19.5,19.5 L28.5,19.5 L27,15 L27,15 Z M33.4002952,26.625 L28.9636391,25.5 L30.4272783,28.5 L27.5,33 L32.2110884,33 C32.8742999,33 33.4689033,32.53125 33.6289889,31.875 L34.4522859,28.453125 C34.6581101,27.65625 34.1778535,26.8359375 33.4002952,26.625 L33.4002952,26.625 Z M19.5363609,25.5 L15.0997048,26.625 C14.3221465,26.8359375 13.8418899,27.65625 14.0477141,28.453125 L14.8710111,31.875 C15.0310967,32.53125 15.6257001,33 16.2889116,33 L21,33 L18.0727217,28.5 L19.5363609,25.5 L19.5363609,25.5 Z" id="Shape" fill="#000000" sketch:type="MSShapeGroup"></path>
                </g>
            </g>
        </g>
    </g>
</svg>