<?xml version="1.0" encoding="UTF-8" standalone="no"?>
<svg width="22px" height="18px" viewBox="0 0 22 18" version="1.1" xmlns="http://www.w3.org/2000/svg" xmlns:xlink="http://www.w3.org/1999/xlink" xmlns:sketch="http://www.bohemiancoding.com/sketch/ns">
    <!-- Generator: Sketch 3.4.2 (15855) - http://www.bohemiancoding.com/sketch -->
    <title>octicon-hubot</title>
    <desc>Created with Sketch.</desc>
    <defs></defs>
    <g id="Symbols" stroke="none" stroke-width="1" fill="none" fill-rule="evenodd" sketch:type="MSPage">
        <g id="Octicons" sketch:type="MSArtboardGroup" transform="translate(-801.000000, -916.000000)">
            <g id="icons" sketch:type="MSLayerGroup" transform="translate(788.000000, 613.000000)">
                <g id="octicon-hubot" transform="translate(0.000000, 288.000000)">
                    <g id="icon-grid-copy-104"></g>
                    <path d="M18,21 C17.1796875,21 16.5,21.6796875 16.5,22.5 L16.5,25.5 C16.5,26.3203125 17.1796875,27 18,27 L30,27 C30.8203125,27 31.5,26.3203125 31.5,25.5 L31.5,22.5 C31.5,21.6796875 30.8203125,21 30,21 L18,21 L18,21 Z M30,23.625 L28.125,25.5 L25.875,25.5 L24,23.625 L22.125,25.5 L19.875,25.5 L18,23.625 L18,22.5 L19.125,22.5 L21,24.375 L22.875,22.5 L25.125,22.5 L27,24.375 L28.875,22.5 L30,22.5 L30,23.625 L30,23.625 Z M21,28.5 L27,28.5 L27,30 L21,30 L21,28.5 L21,28.5 Z M24,15 C18.2109375,15 13.5,19.359375 13.5,24.75 L13.5,31.5 C13.5,32.3203125 14.1796875,33 15,33 L33,33 C33.8203125,33 34.5,32.3203125 34.5,31.5 L34.5,24.75 C34.5,19.359375 29.7890625,15 24,15 L24,15 Z M33,31.5 L15,31.5 L15,24.8126935 C15,20.2151703 18.9609375,16.5 24,16.5 C29.0390625,16.5 33,20.2151703 33,24.8126935 L33,31.5 L33,31.5 Z" id="Shape" fill="#000000" sketch:type="MSShapeGroup"></path>
                </g>
            </g>
        </g>
    </g>
</svg>