<?xml version="1.0" encoding="UTF-8" standalone="no"?>
<svg width="18px" height="23px" viewBox="0 0 18 23" version="1.1" xmlns="http://www.w3.org/2000/svg" xmlns:xlink="http://www.w3.org/1999/xlink" xmlns:sketch="http://www.bohemiancoding.com/sketch/ns">
    <!-- Generator: Sketch 3.4.2 (15855) - http://www.bohemiancoding.com/sketch -->
    <title>octicon-lock</title>
    <desc>Created with Sketch.</desc>
    <defs></defs>
    <g id="Symbols" stroke="none" stroke-width="1" fill="none" fill-rule="evenodd" sketch:type="MSPage">
        <g id="Octicons" sketch:type="MSArtboardGroup" transform="translate(-947.000000, -962.000000)">
            <g id="icons" sketch:type="MSLayerGroup" transform="translate(788.000000, 613.000000)">
                <g id="octicon-lock" transform="translate(144.000000, 336.000000)">
                    <g id="icon-grid-copy-88"></g>
                    <path d="M21,32.5 L19.5,32.5 L19.5,31 L21,31 L21,32.5 L21,32.5 Z M33,23.5 L33,34 C33,34.8203125 32.3203125,35.5 31.5,35.5 L16.5,35.5 C15.6796875,35.5 15,34.8203125 15,34 L15,23.5 C15,22.6796875 15.6796875,22 16.5,22 L18,22 L18,19 C18,15.6953125 20.6953125,13 24,13 C27.3046875,13 30,15.6953125 30,19 L30,22 L31.5,22 C32.3203125,22 33,22.6796875 33,23.5 L33,23.5 Z M20.5,22 L27,22 L27,18.9070632 C27,17.0223048 25.5478723,15.5 23.75,15.5 C21.9521277,15.5 20.5,17.0223048 20.5,18.9070632 L20.5,22 L20.5,22 Z M31.5,23.5 L18,23.5 L18,34 L31.5,34 L31.5,23.5 L31.5,23.5 Z M21,25 L19.5,25 L19.5,26.5 L21,26.5 L21,25 L21,25 Z M21,28 L19.5,28 L19.5,29.5 L21,29.5 L21,28 L21,28 Z" id="Shape" fill="#000000" sketch:type="MSShapeGroup"></path>
                </g>
            </g>
        </g>
    </g>
</svg>