<?xml version="1.0" encoding="UTF-8" standalone="no"?>
<svg width="18px" height="22px" viewBox="0 0 18 22" version="1.1" xmlns="http://www.w3.org/2000/svg" xmlns:xlink="http://www.w3.org/1999/xlink" xmlns:sketch="http://www.bohemiancoding.com/sketch/ns">
    <!-- Generator: Sketch 3.4.2 (15855) - http://www.bohemiancoding.com/sketch -->
    <title>octicon-file-zip</title>
    <desc>Created with Sketch.</desc>
    <defs></defs>
    <g id="Symbols" stroke="none" stroke-width="1" fill="none" fill-rule="evenodd" sketch:type="MSPage">
        <g id="Octicons" sketch:type="MSArtboardGroup" transform="translate(-1187.000000, -818.000000)">
            <g id="icons" sketch:type="MSLayerGroup" transform="translate(788.000000, 613.000000)">
                <g id="octicon-file-zip" transform="translate(384.000000, 192.000000)">
                    <g id="icon-grid-copy-101"></g>
                    <path d="M27.75,13.5 L16.5,13.5 C15.6796875,13.5 15,14.1796875 15,15 L15,33 C15,33.8203125 15.6796875,34.5 16.5,34.5 L31.5,34.5 C32.3203125,34.5 33,33.8203125 33,33 L33,18.75 L27.75,13.5 L27.75,13.5 Z M31.5,33 L16.5,33 L16.5,15 L21,15 L21,16.5 L22.5,16.5 L22.5,15 L27,15 L31.5,19.5 L31.5,33 L31.5,33 Z M22.5,18 L22.5,16.5 L24,16.5 L24,18 L22.5,18 L22.5,18 Z M21,18 L22.5,18 L22.5,19.5 L21,19.5 L21,18 L21,18 Z M22.5,21 L22.5,19.5 L24,19.5 L24,21 L22.5,21 L22.5,21 Z M21,21 L22.5,21 L22.5,22.5 L21,22.5 L21,21 L21,21 Z M22.5,24 L22.5,22.5 L24,22.5 L24,24 L22.5,24 L22.5,24 Z M21,25.921875 C20.109375,26.4375 19.5,27.3984375 19.5,28.5 L19.5,30 L25.5,30 L25.5,28.5 C25.5,26.8359375 24.1640625,25.5 22.5,25.5 L22.5,24 L21,24 L21,25.921875 L21,25.921875 Z M24,27 L24,28.5 L21,28.5 L21,27 L24,27 L24,27 Z" id="Shape" fill="#000000" sketch:type="MSShapeGroup"></path>
                </g>
            </g>
        </g>
    </g>
</svg>