<?xml version="1.0" encoding="UTF-8" standalone="no"?>
<svg width="18px" height="24px" viewBox="0 0 18 24" version="1.1" xmlns="http://www.w3.org/2000/svg" xmlns:xlink="http://www.w3.org/1999/xlink" xmlns:sketch="http://www.bohemiancoding.com/sketch/ns">
    <!-- Generator: Sketch 3.4.2 (15855) - http://www.bohemiancoding.com/sketch -->
    <title>octicon-watch</title>
    <desc>Created with Sketch.</desc>
    <defs></defs>
    <g id="Symbols" stroke="none" stroke-width="1" fill="none" fill-rule="evenodd" sketch:type="MSPage">
        <g id="Octicons" sketch:type="MSArtboardGroup" transform="translate(-899.000000, -1201.000000)">
            <g id="icons" sketch:type="MSLayerGroup" transform="translate(788.000000, 613.000000)">
                <g id="octicon-watch" transform="translate(96.000000, 576.000000)">
                    <g id="icon-grid-copy-19"></g>
                    <path d="M24,24 L27,24 L27,25.5 L22.5,25.5 L22.5,19.5 L24,19.5 L24,24 L24,24 Z M33,24 C33,27.328125 31.1953125,30.234375 28.5,31.78125 L28.5,34.5 C28.5,35.3203125 27.8203125,36 27,36 L21,36 C20.1796875,36 19.5,35.3203125 19.5,34.5 L19.5,31.78125 C16.8046875,30.234375 15,27.328125 15,24 C15,20.671875 16.8046875,17.765625 19.5,16.21875 L19.5,13.5 C19.5,12.6796875 20.1796875,12 21,12 L27,12 C27.8203125,12 28.5,12.6796875 28.5,13.5 L28.5,16.21875 C31.1953125,17.765625 33,20.671875 33,24 L33,24 Z M31.5,24 C31.5,19.8515625 28.1484375,16.5 24,16.5 C19.8515625,16.5 16.5,19.8515625 16.5,24 C16.5,28.1484375 19.8515625,31.5 24,31.5 C28.1484375,31.5 31.5,28.1484375 31.5,24 L31.5,24 Z" id="Shape" fill="#000000" sketch:type="MSShapeGroup"></path>
                </g>
            </g>
        </g>
    </g>
</svg>