<?xml version="1.0" encoding="UTF-8" standalone="no"?>
<svg width="22px" height="16px" viewBox="0 0 22 16" version="1.1" xmlns="http://www.w3.org/2000/svg" xmlns:xlink="http://www.w3.org/1999/xlink" xmlns:sketch="http://www.bohemiancoding.com/sketch/ns">
    <!-- Generator: Sketch 3.4.2 (15855) - http://www.bohemiancoding.com/sketch -->
    <title>octicon-mail</title>
    <desc>Created with Sketch.</desc>
    <defs></defs>
    <g id="Symbols" stroke="none" stroke-width="1" fill="none" fill-rule="evenodd" sketch:type="MSPage">
        <g id="Octicons" sketch:type="MSArtboardGroup" transform="translate(-1089.000000, -965.000000)">
            <g id="icons" sketch:type="MSLayerGroup" transform="translate(788.000000, 613.000000)">
                <g id="octicon-mail" transform="translate(288.000000, 336.000000)">
                    <g id="icon-grid-copy-68"></g>
                    <path d="M13.5,18 L13.5,30 C13.5,30.8203125 14.1796875,31.5 15,31.5 L33,31.5 C33.8203125,31.5 34.5,30.8203125 34.5,30 L34.5,18 C34.5,17.1796875 33.8203125,16.5 33,16.5 L15,16.5 C14.1796875,16.5 13.5,17.1796875 13.5,18 L13.5,18 Z M33,18 L24,25.5 L15,18 L33,18 L33,18 Z M15,20.5 L21,25 L15,29.5 L15,20.5 L15,20.5 Z M16.5,30 L21.75,25.5 L24,27.75 L26.25,25.5 L31.5,30 L16.5,30 L16.5,30 Z M33,29.5 L27,25 L33,20.5 L33,29.5 L33,29.5 Z" id="Shape" fill="#000000" sketch:type="MSShapeGroup"></path>
                </g>
            </g>
        </g>
    </g>
</svg>