<?xml version="1.0" encoding="UTF-8" standalone="no"?>
<svg width="23px" height="24px" viewBox="0 0 23 24" version="1.1" xmlns="http://www.w3.org/2000/svg" xmlns:xlink="http://www.w3.org/1999/xlink" xmlns:sketch="http://www.bohemiancoding.com/sketch/ns">
    <!-- Generator: Sketch 3.4.2 (15855) - http://www.bohemiancoding.com/sketch -->
    <title>octicon-mirror</title>
    <desc>Created with Sketch.</desc>
    <defs></defs>
    <g id="Symbols" stroke="none" stroke-width="1" fill="none" fill-rule="evenodd" sketch:type="MSPage">
        <g id="Octicons" sketch:type="MSArtboardGroup" transform="translate(-1376.000000, -961.000000)">
            <g id="icons" sketch:type="MSLayerGroup" transform="translate(788.000000, 613.000000)">
                <g id="octicon-mirror" transform="translate(576.000000, 336.000000)">
                    <g id="icon-grid-copy-69"></g>
                    <path d="M34.25,19.0546875 L23.75,12 L13.25,19.0546875 C12.8046875,19.3359375 12.5,19.734375 12.5,20.25 L12.5,36 L23.75,30 L35,36 L35,20.25 C35,19.734375 34.6953125,19.3359375 34.25,19.0546875 L34.25,19.0546875 Z M33.5,34 L24.5,29.125 L24.5,27.25 L23,27.25 L23,29.125 L14,34 L14,20.5 L23,14.5 L23,21.25 L24.5,21.25 L24.5,14.5 L33.5,20.5 L33.5,34 L33.5,34 Z M20,22.5 L27.5,22.5 L27.5,19.5 L32,24 L27.5,28.5 L27.5,25.5 L20,25.5 L20,28.5 L15.5,24 L20,19.5 L20,22.5 L20,22.5 Z" id="Shape" fill="#000000" sketch:type="MSShapeGroup"></path>
                </g>
            </g>
        </g>
    </g>
</svg>