<?xml version="1.0" encoding="UTF-8" standalone="no"?>
<svg width="16px" height="12px" viewBox="0 0 16 12" version="1.1" xmlns="http://www.w3.org/2000/svg" xmlns:xlink="http://www.w3.org/1999/xlink" xmlns:sketch="http://www.bohemiancoding.com/sketch/ns">
    <!-- Generator: Sketch 3.4.2 (15855) - http://www.bohemiancoding.com/sketch -->
    <title>octicon-quote</title>
    <desc>Created with Sketch.</desc>
    <defs></defs>
    <g id="Symbols" stroke="none" stroke-width="1" fill="none" fill-rule="evenodd" sketch:type="MSPage">
        <g id="Octicons" sketch:type="MSArtboardGroup" transform="translate(-948.000000, -1063.000000)">
            <g id="icons" sketch:type="MSLayerGroup" transform="translate(788.000000, 613.000000)">
                <g id="octicon-quote" transform="translate(144.000000, 432.000000)">
                    <g id="icon-grid-copy-45"></g>
                    <path d="M16.5,24 L16.5,30 L22.5,30 L22.5,24 L19.5,24 C19.5,24 19.5,21 22.5,21 L22.5,18 C22.5,18 16.5,18 16.5,24 L16.5,24 Z M31.5,21 L31.5,18 C31.5,18 25.5,18 25.5,24 L25.5,30 L31.5,30 L31.5,24 L28.5,24 C28.5,24 28.5,21 31.5,21 L31.5,21 Z" id="Shape" fill="#000000" sketch:type="MSShapeGroup"></path>
                </g>
            </g>
        </g>
    </g>
</svg>