<?xml version="1.0" encoding="UTF-8" standalone="no"?>
<svg width="22px" height="18px" viewBox="0 0 22 18" version="1.1" xmlns="http://www.w3.org/2000/svg" xmlns:xlink="http://www.w3.org/1999/xlink" xmlns:sketch="http://www.bohemiancoding.com/sketch/ns">
    <!-- Generator: Sketch 3.4.2 (15855) - http://www.bohemiancoding.com/sketch -->
    <title>octicon-browser</title>
    <desc>Created with Sketch.</desc>
    <defs></defs>
    <g id="Symbols" stroke="none" stroke-width="1" fill="none" fill-rule="evenodd" sketch:type="MSPage">
        <g id="Octicons" sketch:type="MSArtboardGroup" transform="translate(-897.000000, -676.000000)">
            <g id="icons" sketch:type="MSLayerGroup" transform="translate(788.000000, 613.000000)">
                <g id="octicon-browser" transform="translate(96.000000, 48.000000)">
                    <g id="icon-grid-copy-156"></g>
                    <path d="M21,16.5 L22.5,16.5 L22.5,18 L21,18 L21,16.5 L21,16.5 Z M18,16.5 L19.5,16.5 L19.5,18 L18,18 L18,16.5 L18,16.5 Z M15,16.5 L16.5,16.5 L16.5,18 L15,18 L15,16.5 L15,16.5 Z M33,31.5 L15,31.5 L15,19.5 L33,19.5 L33,31.5 L33,31.5 Z M33,18 L24,18 L24,16.5 L33,16.5 L33,18 L33,18 Z M34.5,16.5 C34.5,15.6714844 33.8285156,15 33,15 L15,15 C14.1714844,15 13.5,15.6714844 13.5,16.5 L13.5,31.5 C13.5,32.3285156 14.1714844,33 15,33 L33,33 C33.8285156,33 34.5,32.3285156 34.5,31.5 L34.5,16.5 L34.5,16.5 Z" id="Shape" fill="#000000" sketch:type="MSShapeGroup"></path>
                </g>
            </g>
        </g>
    </g>
</svg>