<?xml version="1.0" encoding="UTF-8" standalone="no"?>
<svg width="16px" height="22px" viewBox="0 0 16 22" version="1.1" xmlns="http://www.w3.org/2000/svg" xmlns:xlink="http://www.w3.org/1999/xlink" xmlns:sketch="http://www.bohemiancoding.com/sketch/ns">
    <!-- Generator: Sketch 3.4.2 (15855) - http://www.bohemiancoding.com/sketch -->
    <title>octicon-git-branch</title>
    <desc>Created with Sketch.</desc>
    <defs></defs>
    <g id="Symbols" stroke="none" stroke-width="1" fill="none" fill-rule="evenodd" sketch:type="MSPage">
        <g id="Octicons" sketch:type="MSArtboardGroup" transform="translate(-900.000000, -866.000000)">
            <g id="icons" sketch:type="MSLayerGroup" transform="translate(788.000000, 613.000000)">
                <g id="octicon-git-branch" transform="translate(96.000000, 240.000000)">
                    <g id="icon-grid-copy-111"></g>
                    <path d="M31.5,19.5 C31.5,17.8359375 30.1640625,16.5 28.5,16.5 C26.8359375,16.5 25.5,17.8359375 25.5,19.5 C25.5,20.6015625 26.109375,21.5625 27,22.078125 L27,22.5234375 C26.9765625,23.296875 26.6484375,24 26.0625,24.5859375 C25.4765625,25.171875 24.7734375,25.5 24,25.5234375 C22.7578125,25.546875 21.7734375,25.7578125 21,26.203125 L21,19.078125 C21.890625,18.5625 22.5,17.6015625 22.5,16.5 C22.5,14.8359375 21.1640625,13.5 19.5,13.5 C17.8359375,13.5 16.5,14.8359375 16.5,16.5 C16.5,17.6015625 17.109375,18.5625 18,19.078125 L18,28.921875 C17.109375,29.4375 16.5,30.3984375 16.5,31.5 C16.5,33.1640625 17.8359375,34.5 19.5,34.5 C21.1640625,34.5 22.5,33.1640625 22.5,31.5 C22.5,30.703125 22.1953125,30 21.703125,29.4609375 C21.84375,29.3671875 22.4296875,28.8515625 22.59375,28.7578125 C22.96875,28.59375 23.4375,28.5 24,28.5 C25.5703125,28.4296875 26.9296875,27.8203125 28.125,26.625 C29.3203125,25.4296875 29.9296875,23.6484375 30,22.1015625 L29.9765625,22.1015625 C30.890625,21.5625 31.5,20.6015625 31.5,19.5 L31.5,19.5 Z M19.25,14.5 C20.2045455,14.5 21,15.2954545 21,16.25 C21,17.2045455 20.2045455,18 19.25,18 C18.2954545,18 17.5,17.2045455 17.5,16.25 C17.5,15.2954545 18.2954545,14.5 19.25,14.5 L19.25,14.5 Z M19.25,33 C18.2954545,33 17.5,32.2045455 17.5,31.25 C17.5,30.2954545 18.2954545,29.5 19.25,29.5 C20.2045455,29.5 21,30.2954545 21,31.25 C21,32.2045455 20.2045455,33 19.25,33 L19.25,33 Z M28.25,21 C27.2954545,21 26.5,20.2045455 26.5,19.25 C26.5,18.2954545 27.2954545,17.5 28.25,17.5 C29.2045455,17.5 30,18.2954545 30,19.25 C30,20.2045455 29.2045455,21 28.25,21 L28.25,21 Z" id="Shape" fill="#000000" sketch:type="MSShapeGroup"></path>
                </g>
            </g>
        </g>
    </g>
</svg>