<?xml version="1.0" encoding="UTF-8" standalone="no"?>
<svg width="22px" height="22px" viewBox="0 0 22 22" version="1.1" xmlns="http://www.w3.org/2000/svg" xmlns:xlink="http://www.w3.org/1999/xlink" xmlns:sketch="http://www.bohemiancoding.com/sketch/ns">
    <!-- Generator: Sketch 3.4.2 (15855) - http://www.bohemiancoding.com/sketch -->
    <title>octicon-diff-renamed</title>
    <desc>Created with Sketch.</desc>
    <defs></defs>
    <g id="Symbols" stroke="none" stroke-width="1" fill="none" fill-rule="evenodd" sketch:type="MSPage">
        <g id="Octicons" sketch:type="MSArtboardGroup" transform="translate(-1185.000000, -770.000000)">
            <g id="icons" sketch:type="MSLayerGroup" transform="translate(788.000000, 613.000000)">
                <g id="octicon-diff-renamed" transform="translate(384.000000, 144.000000)">
                    <g id="icon-grid-copy-113"></g>
                    <path d="M22.5,25.5 L18,25.5 L18,22.5 L22.5,22.5 L22.5,18 L30,24 L22.5,30 L22.5,25.5 L22.5,25.5 Z M34.5,15 L34.5,33 C34.5,33.8203125 33.8203125,34.5 33,34.5 L15,34.5 C14.1796875,34.5 13.5,33.8203125 13.5,33 L13.5,15 C13.5,14.1796875 14.1796875,13.5 15,13.5 L33,13.5 C33.8203125,13.5 34.5,14.1796875 34.5,15 L34.5,15 Z M33,15 L15,15 L15,33 L33,33 L33,15 L33,15 Z" id="Shape" fill="#000000" sketch:type="MSShapeGroup"></path>
                </g>
            </g>
        </g>
    </g>
</svg>