<?xml version="1.0" encoding="UTF-8" standalone="no"?>
<svg width="24px" height="17px" viewBox="0 0 24 17" version="1.1" xmlns="http://www.w3.org/2000/svg" xmlns:xlink="http://www.w3.org/1999/xlink" xmlns:sketch="http://www.bohemiancoding.com/sketch/ns">
    <!-- Generator: Sketch 3.4.2 (15855) - http://www.bohemiancoding.com/sketch -->
    <title>octicon-credit-card</title>
    <desc>Created with Sketch.</desc>
    <defs></defs>
    <g id="Symbols" stroke="none" stroke-width="1" fill="none" fill-rule="evenodd" sketch:type="MSPage">
        <g id="Octicons" sketch:type="MSArtboardGroup" transform="translate(-1184.000000, -725.000000)">
            <g id="icons" sketch:type="MSLayerGroup" transform="translate(788.000000, 613.000000)">
                <g id="octicon-credit-card" transform="translate(384.000000, 96.000000)">
                    <g id="icon-grid-copy-137"></g>
                    <path d="M30,26.5 L15,26.5 L15,25 L30,25 L30,26.5 L30,26.5 Z M36,17.5 L36,31 C36,31.8203125 35.3203125,32.5 34.5,32.5 L13.5,32.5 C12.6796875,32.5 12,31.8203125 12,31 L12,17.5 C12,16.6796875 12.6796875,16 13.5,16 L34.5,16 C35.3203125,16 36,16.6796875 36,17.5 L36,17.5 Z M34.5,22 L13.5,22 L13.5,31 L34.5,31 L34.5,22 L34.5,22 Z M34.5,17.5 L13.5,17.5 L13.5,19 L34.5,19 L34.5,17.5 L34.5,17.5 Z M21,28 L15,28 L15,29.5 L21,29.5 L21,28 L21,28 Z" id="Shape" fill="#000000" sketch:type="MSShapeGroup"></path>
                </g>
            </g>
        </g>
    </g>
</svg>