<?xml version="1.0" encoding="UTF-8" standalone="no"?>
<svg width="24px" height="18px" viewBox="0 0 24 18" version="1.1" xmlns="http://www.w3.org/2000/svg" xmlns:xlink="http://www.w3.org/1999/xlink" xmlns:sketch="http://www.bohemiancoding.com/sketch/ns">
    <!-- Generator: Sketch 3.4.2 (15855) - http://www.bohemiancoding.com/sketch -->
    <title>octicon-mute</title>
    <desc>Created with Sketch.</desc>
    <defs></defs>
    <g id="Symbols" stroke="none" stroke-width="1" fill="none" fill-rule="evenodd" sketch:type="MSPage">
        <g id="Octicons" sketch:type="MSArtboardGroup" transform="translate(-848.000000, -1012.000000)">
            <g id="icons" sketch:type="MSLayerGroup" transform="translate(788.000000, 613.000000)">
                <g id="octicon-mute" transform="translate(48.000000, 384.000000)">
                    <g id="icon-grid-copy-72"></g>
                    <path d="M24.5,16.1386011 L24.5,31.8613989 C24.5,32.8795921 23.28125,33.3768493 22.578125,32.6664819 L17,27.0309008 L14,27.0309008 C13.1796875,27.0309008 12.5,26.3442123 12.5,25.5154504 L12.5,22.4845496 C12.5,21.6557877 13.1796875,20.9690992 14,20.9690992 L17,20.9690992 L22.578125,15.3335181 C23.28125,14.6231507 24.5,15.1204079 24.5,16.1386011 L24.5,16.1386011 Z M36,21.0773196 L34.4226804,19.5 L31.5,22.4226804 L28.5773196,19.5 L27,21.0773196 L29.9226804,24 L27,26.9226804 L28.5773196,28.5 L31.5,25.5773196 L34.4226804,28.5 L36,26.9226804 L33.0773196,24 L36,21.0773196 L36,21.0773196 Z" id="Shape" fill="#000000" sketch:type="MSShapeGroup"></path>
                </g>
            </g>
        </g>
    </g>
</svg>