<?xml version="1.0" encoding="UTF-8" standalone="no"?>
<svg width="22px" height="22px" viewBox="0 0 22 22" version="1.1" xmlns="http://www.w3.org/2000/svg" xmlns:xlink="http://www.w3.org/1999/xlink" xmlns:sketch="http://www.bohemiancoding.com/sketch/ns">
    <!-- Generator: Sketch 3.4.2 (15855) - http://www.bohemiancoding.com/sketch -->
    <title>octicon-stop</title>
    <desc>Created with Sketch.</desc>
    <defs></defs>
    <g id="Symbols" stroke="none" stroke-width="1" fill="none" fill-rule="evenodd" sketch:type="MSPage">
        <g id="Octicons" sketch:type="MSArtboardGroup" transform="translate(-1329.000000, -1106.000000)">
            <g id="icons" sketch:type="MSLayerGroup" transform="translate(788.000000, 613.000000)">
                <g id="octicon-stop" transform="translate(528.000000, 480.000000)">
                    <g id="icon-grid-copy-23"></g>
                    <path d="M28.5,13.5 L19.5,13.5 L13.5,19.5 L13.5,28.5 L19.5,34.5 L28.5,34.5 L34.5,28.5 L34.5,19.5 L28.5,13.5 L28.5,13.5 Z M33,27.75 L27.75,33 L20.25,33 L15,27.75 L15,20.25 L20.25,15 L27.75,15 L33,20.25 L33,27.75 L33,27.75 Z M22.5,18 L25.5,18 L25.5,25.5 L22.5,25.5 L22.5,18 L22.5,18 Z M22.5,27 L25.5,27 L25.5,30 L22.5,30 L22.5,27 L22.5,27 Z" id="Shape" fill="#000000" sketch:type="MSShapeGroup"></path>
                </g>
            </g>
        </g>
    </g>
</svg>