<?xml version="1.0" encoding="UTF-8" standalone="no"?>
<svg width="22px" height="23px" viewBox="0 0 22 23" version="1.1" xmlns="http://www.w3.org/2000/svg" xmlns:xlink="http://www.w3.org/1999/xlink" xmlns:sketch="http://www.bohemiancoding.com/sketch/ns">
    <!-- Generator: Sketch 3.4.2 (15855) - http://www.bohemiancoding.com/sketch -->
    <title>octicon-unfold</title>
    <desc>Created with Sketch.</desc>
    <defs></defs>
    <g id="Symbols" stroke="none" stroke-width="1" fill="none" fill-rule="evenodd" sketch:type="MSPage">
        <g id="Octicons" sketch:type="MSArtboardGroup" transform="translate(-1377.000000, -1153.000000)">
            <g id="icons" sketch:type="MSLayerGroup" transform="translate(788.000000, 613.000000)">
                <g id="octicon-unfold" transform="translate(576.000000, 528.000000)">
                    <g id="icon-grid-copy-21"></g>
                    <path d="M30.75,23.75 L34.5,27.5 C34.5,28.3203125 33.8203125,29 33,29 L27,29 L27,27.5 L32.25,27.5 L29.25,24.5 L18.75,24.5 L15.75,27.5 L21,27.5 L21,29 L15,29 C14.1796875,29 13.5,28.3203125 13.5,27.5 L17.25,23.75 L13.5,20 C13.5,19.1796875 14.1796875,18.5 15,18.5 L21,18.5 L21,20 L15.75,20 L18.75,23 L29.25,23 L32.25,20 L27,20 L27,18.5 L33,18.5 C33.8203125,18.5 34.5,19.1796875 34.5,20 L30.75,23.75 L30.75,23.75 Z M22.5,21.5 L25.5,21.5 L25.5,17 L28.5,17 L24,12.5 L19.5,17 L22.5,17 L22.5,21.5 L22.5,21.5 Z M25.5,26 L22.5,26 L22.5,30.5 L19.5,30.5 L24,35 L28.5,30.5 L25.5,30.5 L25.5,26 L25.5,26 Z" id="Shape" fill="#000000" sketch:type="MSShapeGroup"></path>
                </g>
            </g>
        </g>
    </g>
</svg>