<?xml version="1.0" encoding="UTF-8" standalone="no"?>
<svg width="18px" height="22px" viewBox="0 0 18 22" version="1.1" xmlns="http://www.w3.org/2000/svg" xmlns:xlink="http://www.w3.org/1999/xlink" xmlns:sketch="http://www.bohemiancoding.com/sketch/ns">
    <!-- Generator: Sketch 3.4.2 (15855) - http://www.bohemiancoding.com/sketch -->
    <title>octicon-file-binary</title>
    <desc>Created with Sketch.</desc>
    <defs></defs>
    <g id="Symbols" stroke="none" stroke-width="1" fill="none" fill-rule="evenodd" sketch:type="MSPage">
        <g id="Octicons" sketch:type="MSArtboardGroup" transform="translate(-1379.000000, -770.000000)">
            <g id="icons" sketch:type="MSLayerGroup" transform="translate(788.000000, 613.000000)">
                <g id="octicon-file-binary" transform="translate(576.000000, 144.000000)">
                    <g id="icon-grid-copy-115"></g>
                    <path d="M21,30 L22.5,30 L22.5,31.5 L18,31.5 L18,30 L19.5,30 L19.5,27 L18,27 L18,25.5 L21,25.5 L21,30 L21,30 Z M33,18.75 L33,33 C33,33.8203125 32.3203125,34.5 31.5,34.5 L16.5,34.5 C15.6796875,34.5 15,33.8203125 15,33 L15,15 C15,14.1796875 15.6796875,13.5 16.5,13.5 L27.75,13.5 L33,18.75 L33,18.75 Z M31.5,19.5 L27,15 L16.5,15 L16.5,33 L31.5,33 L31.5,19.5 L31.5,19.5 Z M27,18 L24,18 L24,19.5 L25.5,19.5 L25.5,22.5 L24,22.5 L24,24 L28.5,24 L28.5,22.5 L27,22.5 L27,18 L27,18 Z M18,18 L22.5,18 L22.5,24 L18,24 L18,18 L18,18 Z M19.5,22.5 L21,22.5 L21,19.5 L19.5,19.5 L19.5,22.5 L19.5,22.5 Z M24,25.5 L28.5,25.5 L28.5,31.5 L24,31.5 L24,25.5 L24,25.5 Z M25.5,30 L27,30 L27,27 L25.5,27 L25.5,30 L25.5,30 Z" id="Shape" fill="#000000" sketch:type="MSShapeGroup"></path>
                </g>
            </g>
        </g>
    </g>
</svg>