<?xml version="1.0" encoding="UTF-8" standalone="no"?>
<svg width="23px" height="18px" viewBox="0 0 23 18" version="1.1" xmlns="http://www.w3.org/2000/svg" xmlns:xlink="http://www.w3.org/1999/xlink" xmlns:sketch="http://www.bohemiancoding.com/sketch/ns">
    <!-- Generator: Sketch 3.4.2 (15855) - http://www.bohemiancoding.com/sketch -->
    <title>octicon-book</title>
    <desc>Created with Sketch.</desc>
    <defs></defs>
    <g id="Symbols" stroke="none" stroke-width="1" fill="none" fill-rule="evenodd" sketch:type="MSPage">
        <g id="Octicons" sketch:type="MSArtboardGroup" transform="translate(-1328.000000, -628.000000)">
            <g id="icons" sketch:type="MSLayerGroup" transform="translate(788.000000, 613.000000)">
                <g id="octicon-book" transform="translate(528.000000, 0.000000)">
                    <g id="icon-grid-copy-160"></g>
                    <path d="M15.5,19.5 L21.5,19.5 L21.5,21 L15.5,21 L15.5,19.5 L15.5,19.5 Z M15.5,24 L21.5,24 L21.5,22.5 L15.5,22.5 L15.5,24 L15.5,24 Z M15.5,27 L21.5,27 L21.5,25.5 L15.5,25.5 L15.5,27 L15.5,27 Z M32,19.5 L26,19.5 L26,21 L32,21 L32,19.5 L32,19.5 Z M32,22.5 L26,22.5 L26,24 L32,24 L32,22.5 L32,22.5 Z M32,25.5 L26,25.5 L26,27 L32,27 L32,25.5 L32,25.5 Z M35,16.5 L35,30 C35,30.8203125 34.3203125,31.5 33.5,31.5 L25.25,31.5 L23.75,33 L22.25,31.5 L14,31.5 C13.1796875,31.5 12.5,30.8203125 12.5,30 L12.5,16.5 C12.5,15.6796875 13.1796875,15 14,15 L22.25,15 L23.75,16.5 L25.25,15 L33.5,15 C34.3203125,15 35,15.6796875 35,16.5 L35,16.5 Z M23,17.25 L22.25,16.5 L14,16.5 L14,30 L23,30 L23,17.25 L23,17.25 Z M33.5,16.5 L25.25,16.5 L24.5,17.25 L24.5,30 L33.5,30 L33.5,16.5 L33.5,16.5 Z" id="Shape" fill="#000000" sketch:type="MSShapeGroup"></path>
                </g>
            </g>
        </g>
    </g>
</svg>