<?xml version="1.0" encoding="UTF-8" standalone="no"?>
<svg width="24px" height="24px" viewBox="0 0 24 24" version="1.1" xmlns="http://www.w3.org/2000/svg" xmlns:xlink="http://www.w3.org/1999/xlink" xmlns:sketch="http://www.bohemiancoding.com/sketch/ns">
    <!-- Generator: Sketch 3.4.2 (15855) - http://www.bohemiancoding.com/sketch -->
    <title>octicon-mark-github</title>
    <desc>Created with Sketch.</desc>
    <defs></defs>
    <g id="Symbols" stroke="none" stroke-width="1" fill="none" fill-rule="evenodd" sketch:type="MSPage">
        <g id="Octicons" sketch:type="MSArtboardGroup" transform="translate(-1136.000000, -961.000000)">
            <g id="icons" sketch:type="MSLayerGroup" transform="translate(788.000000, 613.000000)">
                <g id="octicon-mark-github" transform="translate(336.000000, 336.000000)">
                    <g id="icon-grid-copy-77"></g>
                    <path d="M24,12.5 C17.3730938,12.5 12,17.8941734 12,24.5470783 C12,29.8706398 15.438,34.385353 20.2067578,35.9779909 C20.8065937,36.0882499 21.0255937,35.7162257 21.0255937,35.3985546 C21.0255937,35.1117777 21.0146016,34.1617997 21.0087656,33.1558687 C17.9921719,33.7078695 17.2187578,32.4137263 16.9665234,31.7353252 C16.8370312,31.3868776 16.2538594,30.3176994 15.7384453,30.0350166 C15.3168516,29.8037691 14.7245391,29.2529682 15.7169531,29.2412506 C16.664625,29.2300506 17.3422969,30.1190873 17.5561172,30.482429 C18.6327891,32.3118202 20.3657109,31.7913017 21.0482812,31.4824307 C21.1573594,30.7059823 21.4678594,30.173558 21.8100234,29.8736516 C19.1461875,29.569204 16.3439297,28.5354141 16.3439297,23.9192184 C16.3439297,22.602981 16.8119297,21.529544 17.5781016,20.6861779 C17.4557578,20.3803186 17.0426953,19.1545284 17.6967656,17.4964551 C17.6967656,17.4964551 18.7031016,17.1729487 20.9970234,18.7317748 C21.9535312,18.4633979 22.9796953,18.3310447 23.9999297,18.3265976 C25.0194375,18.3310212 26.0463516,18.4648096 27.0043359,18.7331865 C29.2939219,17.1729252 30.3016641,17.4978669 30.3016641,17.4978669 C30.9579141,19.157446 30.5448281,20.3817304 30.4217578,20.6860838 C31.1907656,21.5294734 31.6551797,22.602981 31.6551797,23.9191243 C31.6551797,28.5470377 28.8485156,29.5661923 26.1751875,29.8646869 C26.6073516,30.2382404 26.9895938,30.9705945 26.9895938,32.0940552 C26.9895938,33.7043401 26.9735156,35.0029305 26.9735156,35.3999664 C26.9735156,35.7205552 27.1917656,36.0955205 27.7996875,35.9778967 C32.5649062,34.3823412 36,29.8676986 36,24.5470783 C36,17.8941734 30.6269063,12.5 24,12.5 L24,12.5 Z" id="Shape" fill="#000000" sketch:type="MSShapeGroup"></path>
                </g>
            </g>
        </g>
    </g>
</svg>