<?xml version="1.0" encoding="UTF-8" standalone="no"?>
<svg width="18px" height="24px" viewBox="0 0 18 24" version="1.1" xmlns="http://www.w3.org/2000/svg" xmlns:xlink="http://www.w3.org/1999/xlink" xmlns:sketch="http://www.bohemiancoding.com/sketch/ns">
    <!-- Generator: Sketch 3.4.2 (15855) - http://www.bohemiancoding.com/sketch -->
    <title>octicon-repo</title>
    <desc>Created with Sketch.</desc>
    <defs></defs>
    <g id="Symbols" stroke="none" stroke-width="1" fill="none" fill-rule="evenodd" sketch:type="MSPage">
        <g id="Octicons" sketch:type="MSArtboardGroup" transform="translate(-1283.000000, -1057.000000)">
            <g id="icons" sketch:type="MSLayerGroup" transform="translate(788.000000, 613.000000)">
                <g id="octicon-repo" transform="translate(480.000000, 432.000000)">
                    <g id="icon-grid-copy-31"></g>
                    <path d="M21,25.5 L19.5,25.5 L19.5,24 L21,24 L21,25.5 L21,25.5 Z M21,21 L19.5,21 L19.5,22.5 L21,22.5 L21,21 L21,21 Z M21,18 L19.5,18 L19.5,19.5 L21,19.5 L21,18 L21,18 Z M21,15 L19.5,15 L19.5,16.5 L21,16.5 L21,15 L21,15 Z M33,13.5 L33,31.5 C33,32.3203125 32.3203125,33 31.5,33 L24,33 L24,36 L21.75,33.75 L19.5,36 L19.5,33 L16.5,33 C15.6796875,33 15,32.3203125 15,31.5 L15,13.5 C15,12.6796875 15.6796875,12 16.5,12 L31.5,12 C32.3203125,12 33,12.6796875 33,13.5 L33,13.5 Z M31.5,28.5 L16.5,28.5 L16.5,31.5 L19.5,31.5 L19.5,30 L24,30 L24,31.5 L31.5,31.5 L31.5,28.5 L31.5,28.5 Z M31.5,13.5 L18,13.5 L18,27 L31.5,27 L31.5,13.5 L31.5,13.5 Z" id="Shape" fill="#000000" sketch:type="MSShapeGroup"></path>
                </g>
            </g>
        </g>
    </g>
</svg>