<?xml version="1.0" encoding="UTF-8" standalone="no"?>
<svg width="19px" height="22px" viewBox="0 0 19 22" version="1.1" xmlns="http://www.w3.org/2000/svg" xmlns:xlink="http://www.w3.org/1999/xlink" xmlns:sketch="http://www.bohemiancoding.com/sketch/ns">
    <!-- Generator: Sketch 3.4.2 (15855) - http://www.bohemiancoding.com/sketch -->
    <title>octicon-file-media</title>
    <desc>Created with Sketch.</desc>
    <defs></defs>
    <g id="Symbols" stroke="none" stroke-width="1" fill="none" fill-rule="evenodd" sketch:type="MSPage">
        <g id="Octicons" sketch:type="MSArtboardGroup" transform="translate(-900.000000, -818.000000)">
            <g id="icons" sketch:type="MSLayerGroup" transform="translate(788.000000, 613.000000)">
                <g id="octicon-file-media" transform="translate(96.000000, 192.000000)">
                    <g id="icon-grid-copy-118"></g>
                    <path d="M25.5,19.5 L28.5,19.5 L28.5,22.5 L25.5,22.5 L25.5,19.5 L25.5,19.5 Z M34.5,18.75 L34.5,33 C34.5,33.8203125 33.8203125,34.5 33,34.5 L18,34.5 C17.1796875,34.5 16.5,33.8203125 16.5,33 L16.5,15 C16.5,14.1796875 17.1796875,13.5 18,13.5 L29.25,13.5 L34.5,18.75 L34.5,18.75 Z M33,19.5 L28.5,15 L18,15 L18,31.5 L22.5,24 L25.5,30 L28.5,27 L33,31.5 L33,19.5 L33,19.5 Z" id="Shape" fill="#000000" sketch:type="MSShapeGroup"></path>
                </g>
            </g>
        </g>
    </g>
</svg>