<?xml version="1.0" encoding="UTF-8" standalone="no"?>
<svg width="18px" height="23px" viewBox="0 0 18 23" version="1.1" xmlns="http://www.w3.org/2000/svg" xmlns:xlink="http://www.w3.org/1999/xlink" xmlns:sketch="http://www.bohemiancoding.com/sketch/ns">
    <!-- Generator: Sketch 3.4.2 (15855) - http://www.bohemiancoding.com/sketch -->
    <title>octicon-git-pull-request</title>
    <desc>Created with Sketch.</desc>
    <defs></defs>
    <g id="Symbols" stroke="none" stroke-width="1" fill="none" fill-rule="evenodd" sketch:type="MSPage">
        <g id="Octicons" sketch:type="MSArtboardGroup" transform="translate(-1091.000000, -866.000000)">
            <g id="icons" sketch:type="MSLayerGroup" transform="translate(788.000000, 613.000000)">
                <g id="octicon-git-pull-request" transform="translate(288.000000, 240.000000)">
                    <g id="icon-grid-copy-90"></g>
                    <path d="M31.5,29.921875 L31.5,20.5 C31.453125,19.328125 30.984375,18.296875 30.09375,17.40625 C29.203125,16.515625 28.171875,16.046875 27,16 L25.5,16 L25.5,13 L21,17.5 L25.5,22 L25.5,19 L27,19 C27.3984375,19.0234375 27.7265625,19.1640625 28.03125,19.46875 C28.3359375,19.7734375 28.4765625,20.1015625 28.5,20.5 L28.5,29.921875 C27.609375,30.4375 27,31.3984375 27,32.5 C27,34.1640625 28.3359375,35.5 30,35.5 C31.6640625,35.5 33,34.1640625 33,32.5 C33,31.3984375 32.390625,30.4375 31.5,29.921875 L31.5,29.921875 Z M29.75,34 C28.7954545,34 28,33.2045455 28,32.25 C28,31.2954545 28.7954545,30.5 29.75,30.5 C30.7045455,30.5 31.5,31.2954545 31.5,32.25 C31.5,33.2045455 30.7045455,34 29.75,34 L29.75,34 Z M21,17.5 C21,15.8359375 19.6640625,14.5 18,14.5 C16.3359375,14.5 15,15.8359375 15,17.5 C15,18.6015625 15.609375,19.5625 16.5,20.078125 L16.5,29.921875 C15.609375,30.4375 15,31.3984375 15,32.5 C15,34.1640625 16.3359375,35.5 18,35.5 C19.6640625,35.5 21,34.1640625 21,32.5 C21,31.3984375 20.390625,30.4375 19.5,29.921875 L19.5,20.078125 C20.390625,19.5625 21,18.6015625 21,17.5 L21,17.5 Z M19.5,32.25 C19.5,33.2045455 18.7045455,34 17.75,34 C16.7954545,34 16,33.2045455 16,32.25 C16,31.2954545 16.7954545,30.5 17.75,30.5 C18.7045455,30.5 19.5,31.2954545 19.5,32.25 L19.5,32.25 Z M17.75,19 C16.7954545,19 16,18.2045455 16,17.25 C16,16.2954545 16.7954545,15.5 17.75,15.5 C18.7045455,15.5 19.5,16.2954545 19.5,17.25 C19.5,18.2045455 18.7045455,19 17.75,19 L17.75,19 Z" id="Shape" fill="#000000" sketch:type="MSShapeGroup"></path>
                </g>
            </g>
        </g>
    </g>
</svg>