<?xml version="1.0" encoding="UTF-8" standalone="no"?>
<svg width="24px" height="24px" viewBox="0 0 24 24" version="1.1" xmlns="http://www.w3.org/2000/svg" xmlns:xlink="http://www.w3.org/1999/xlink" xmlns:sketch="http://www.bohemiancoding.com/sketch/ns">
    <!-- Generator: Sketch 3.4.2 (15855) - http://www.bohemiancoding.com/sketch -->
    <title>octicon-repo-pull</title>
    <desc>Created with Sketch.</desc>
    <defs></defs>
    <g id="Symbols" stroke="none" stroke-width="1" fill="none" fill-rule="evenodd" sketch:type="MSPage">
        <g id="Octicons" sketch:type="MSArtboardGroup" transform="translate(-1184.000000, -1057.000000)">
            <g id="icons" sketch:type="MSLayerGroup" transform="translate(788.000000, 613.000000)">
                <g id="octicon-repo-pull" transform="translate(384.000000, 432.000000)">
                    <g id="icon-grid-copy-49"></g>
                    <path d="M31.5,24 L31.5,21 L22.5,21 L22.5,18 L31.5,18 L31.5,15 L36,19.5 L31.5,24 L31.5,24 Z M18,15 L16.5,15 L16.5,16.5 L18,16.5 L18,15 L18,15 Z M28.5,22.5 L30,22.5 L30,31.5 C30,32.3203125 29.3203125,33 28.5,33 L21,33 L21,36 L18.75,33.75 L16.5,36 L16.5,33 L13.5,33 C12.6796875,33 12,32.3203125 12,31.5 L12,13.5 C12,12.6796875 12.6796875,12 13.5,12 L28.5,12 C29.3203125,12 30,12.6796875 30,13.5 L30,16.5 L28.5,16.5 L28.5,13.5 L15,13.5 L15,27 L28.5,27 L28.5,22.5 L28.5,22.5 Z M28.5,28.5 L13.5,28.5 L13.5,31.5 L16.5,31.5 L16.5,30 L21,30 L21,31.5 L28.5,31.5 L28.5,28.5 L28.5,28.5 Z M18,21 L16.5,21 L16.5,22.5 L18,22.5 L18,21 L18,21 Z M18,18 L16.5,18 L16.5,19.5 L18,19.5 L18,18 L18,18 Z M16.5,25.5 L18,25.5 L18,24 L16.5,24 L16.5,25.5 L16.5,25.5 Z" id="Shape" fill="#000000" sketch:type="MSShapeGroup"></path>
                </g>
            </g>
        </g>
    </g>
</svg>