<?xml version="1.0" encoding="UTF-8" standalone="no"?>
<svg width="22px" height="22px" viewBox="0 0 22 22" version="1.1" xmlns="http://www.w3.org/2000/svg" xmlns:xlink="http://www.w3.org/1999/xlink" xmlns:sketch="http://www.bohemiancoding.com/sketch/ns">
    <!-- Generator: Sketch 3.4.2 (15855) - http://www.bohemiancoding.com/sketch -->
    <title>octicon-circuit-board</title>
    <desc>Created with Sketch.</desc>
    <defs></defs>
    <g id="Symbols" stroke="none" stroke-width="1" fill="none" fill-rule="evenodd" sketch:type="MSPage">
        <g id="Octicons" sketch:type="MSArtboardGroup" transform="translate(-1377.000000, -674.000000)">
            <g id="icons" sketch:type="MSLayerGroup" transform="translate(788.000000, 613.000000)">
                <g id="octicon-circuit-board" transform="translate(576.000000, 48.000000)">
                    <g id="icon-grid-copy-146"></g>
                    <path d="M18,19.5 C18,18.6796875 18.6796875,18 19.5,18 C20.3203125,18 21,18.6796875 21,19.5 C21,20.3203125 20.3203125,21 19.5,21 C18.6796875,21 18,20.3203125 18,19.5 L18,19.5 Z M30,19.5 C30,18.6796875 29.3203125,18 28.5,18 C27.6796875,18 27,18.6796875 27,19.5 C27,20.3203125 27.6796875,21 28.5,21 C29.3203125,21 30,20.3203125 30,19.5 L30,19.5 Z M30,28.5 C30,27.6796875 29.3203125,27 28.5,27 C27.6796875,27 27,27.6796875 27,28.5 C27,29.3203125 27.6796875,30 28.5,30 C29.3203125,30 30,29.3203125 30,28.5 L30,28.5 Z M33,13.5 L21,13.5 L21,16.7578125 C21.5390625,17.0390625 21.9609375,17.4609375 22.2421875,18 L25.7578125,18 C26.390625,16.828125 27.75,16.078125 29.2734375,16.4296875 C30.3984375,16.7109375 31.3125,17.625 31.5703125,18.75 C32.0390625,20.8125 30.4921875,22.640625 28.5,22.640625 C27.3046875,22.640625 26.2734375,21.984375 25.7578125,21 L22.2421875,21 C21.609375,22.1953125 20.25,22.921875 18.7265625,22.546875 C17.625,22.2890625 16.7109375,21.375 16.453125,20.2734375 C16.078125,18.75 16.8046875,17.390625 18,16.7578125 L18,13.5 L15,13.5 C14.1796875,13.5 13.5,14.1796875 13.5,15 L13.5,33 C13.5,33.8203125 14.1796875,34.5 15,34.5 L22.5,27 L25.7578125,27 C26.390625,25.828125 27.75,25.078125 29.2734375,25.4296875 C30.3984375,25.7109375 31.3125,26.625 31.5703125,27.75 C32.0390625,29.8125 30.4921875,31.640625 28.5,31.640625 C27.3046875,31.640625 26.2734375,30.984375 25.7578125,30 L24,30 L19.5,34.5 L33,34.5 C33.8203125,34.5 34.5,33.8203125 34.5,33 L34.5,15 C34.5,14.1796875 33.8203125,13.5 33,13.5 L33,13.5 Z" id="Shape" fill="#000000" sketch:type="MSShapeGroup"></path>
                </g>
            </g>
        </g>
    </g>
</svg>