<?xml version="1.0" encoding="UTF-8" standalone="no"?>
<svg width="24px" height="24px" viewBox="0 0 24 24" version="1.1" xmlns="http://www.w3.org/2000/svg" xmlns:xlink="http://www.w3.org/1999/xlink" xmlns:sketch="http://www.bohemiancoding.com/sketch/ns">
    <!-- Generator: Sketch 3.4.2 (15855) - http://www.bohemiancoding.com/sketch -->
    <title>octicon-tools</title>
    <desc>Created with Sketch.</desc>
    <defs></defs>
    <g id="Symbols" stroke="none" stroke-width="1" fill="none" fill-rule="evenodd" sketch:type="MSPage">
        <g id="Octicons" sketch:type="MSArtboardGroup" transform="translate(-1088.000000, -1153.000000)">
            <g id="icons" sketch:type="MSLayerGroup" transform="translate(788.000000, 613.000000)">
                <g id="octicon-tools" transform="translate(288.000000, 528.000000)">
                    <g id="icon-grid-copy-9"></g>
                    <path d="M18.594352,22.9703872 C18.9823941,23.3705074 20.4769884,25 20.4769884,25 L21.305647,24.1171985 L20.0068822,22.7309148 L22.5,19.9955225 C22.5,19.9955225 21.3747402,18.8621104 21.867171,19.3135427 C22.3380374,17.5070756 21.9089172,15.491576 20.5806398,14.07183 C19.2638818,12.6632222 17.3927648,12.2013656 15.7116946,12.6862603 L18.560508,15.7258363 L17.8110568,18.7081502 L15.0219829,19.5039639 L12.1746209,16.4636025 C11.7203424,18.2589551 12.1522964,20.2558196 13.4719573,21.6651652 C14.8564263,23.1436726 16.8499252,23.5780168 18.594352,22.9703872 L18.594352,22.9703872 Z M28.5353338,26 L25,29.3996691 L30.8305116,35.2802232 C31.3061379,35.760536 31.9328778,36 32.5581479,36 C33.1804782,36 33.8057482,35.7605591 34.284338,35.2802232 C35.238554,34.3195977 35.238554,32.7647201 34.284338,31.8041177 L28.5353338,26 L28.5353338,26 Z M36,15.792983 L32.3636333,12 L21.6446856,23.1863223 L22.9535325,24.5514671 L16.5376918,31.245383 L15.0714063,32.0363504 L13,35.4477829 L13.5274811,36 L16.7974273,33.8380285 L17.5555986,32.3073263 L23.9714625,25.6148636 L25.2810291,26.9800084 L36,15.792983 L36,15.792983 Z" id="Shape" fill="#000000" sketch:type="MSShapeGroup"></path>
                </g>
            </g>
        </g>
    </g>
</svg>