<?xml version="1.0" encoding="UTF-8" standalone="no"?>
<svg width="23px" height="24px" viewBox="0 0 23 24" version="1.1" xmlns="http://www.w3.org/2000/svg" xmlns:xlink="http://www.w3.org/1999/xlink" xmlns:sketch="http://www.bohemiancoding.com/sketch/ns">
    <!-- Generator: Sketch 3.4.2 (15855) - http://www.bohemiancoding.com/sketch -->
    <title>octicon-broadcast</title>
    <desc>Created with Sketch.</desc>
    <defs></defs>
    <g id="Symbols" stroke="none" stroke-width="1" fill="none" fill-rule="evenodd" sketch:type="MSPage">
        <g id="Octicons" sketch:type="MSArtboardGroup" transform="translate(-849.000000, -673.000000)">
            <g id="icons" sketch:type="MSLayerGroup" transform="translate(788.000000, 613.000000)">
                <g id="octicon-broadcast" transform="translate(48.000000, 48.000000)">
                    <g id="icon-grid-copy-157"></g>
                    <path d="M26.5,25.5 L25,25.5 C25.8203125,25.5 26.5,24.8203125 26.5,24 L26.5,22.5 C26.5,21.6796875 25.8203125,21 25,21 L23.5,21 C22.6796875,21 22,21.6796875 22,22.5 L22,24 C22,24.8203125 22.6796875,25.5 23.5,25.5 L22,25.5 C21.1796875,25.5 20.5,26.1796875 20.5,27 L20.5,30 L22,30 L22,34.5 C22,35.3203125 22.6796875,36 23.5,36 L25,36 C25.8203125,36 26.5,35.3203125 26.5,34.5 L26.5,30 L28,30 L28,27 C28,26.1796875 27.3203125,25.5 26.5,25.5 L26.5,25.5 Z M23.5,22.5 L25,22.5 L25,24 L23.5,24 L23.5,22.5 L23.5,22.5 Z M26.5,28.5 L25,28.5 L25,34.5 L23.5,34.5 L23.5,28.5 L22,28.5 L22,27 L26.5,27 L26.5,28.5 L26.5,28.5 Z M29.640625,23.2837259 C29.640625,20.2922912 27.2265625,17.866167 24.25,17.866167 C21.2734375,17.866167 18.859375,20.2922912 18.859375,23.2837259 C18.859375,23.7077088 18.90625,24.108137 19,24.5085653 L19,27.5 C18.0859375,26.3458244 17.5,24.885439 17.5,23.2837259 C17.5,19.5385439 20.5234375,16.5 24.25,16.5 C27.9765625,16.5 31,19.5385439 31,23.2837259 C31,24.885439 30.4140625,26.3458244 29.5,27.5 L29.5,24.5085653 C29.59375,24.108137 29.640625,23.7077088 29.640625,23.2837259 L29.640625,23.2837259 Z M35.5,23.1504425 C35.5,27.4247788 33.0625,31.1415929 29.5,33 L29.5,31.4435841 C32.2890625,29.7245575 34.140625,26.6581858 34.140625,23.1504425 C34.140625,17.7378319 29.7109375,13.3473451 24.25,13.3473451 C18.7890625,13.3473451 14.359375,17.7378319 14.359375,23.1504425 C14.359375,26.6581858 16.2109375,29.7245575 19,31.4435841 L19,33 C15.4375,31.1415929 13,27.4247788 13,23.1504425 C13,16.994469 18.0390625,12 24.25,12 C30.4609375,12 35.5,16.994469 35.5,23.1504425 L35.5,23.1504425 Z" id="Shape" fill="#000000" sketch:type="MSShapeGroup"></path>
                </g>
            </g>
        </g>
    </g>
</svg>