<?xml version="1.0" encoding="UTF-8" standalone="no"?>
<svg width="16px" height="22px" viewBox="0 0 16 22" version="1.1" xmlns="http://www.w3.org/2000/svg" xmlns:xlink="http://www.w3.org/1999/xlink" xmlns:sketch="http://www.bohemiancoding.com/sketch/ns">
    <!-- Generator: Sketch 3.4.2 (15855) - http://www.bohemiancoding.com/sketch -->
    <title>octicon-repo-forked</title>
    <desc>Created with Sketch.</desc>
    <defs></defs>
    <g id="Symbols" stroke="none" stroke-width="1" fill="none" fill-rule="evenodd" sketch:type="MSPage">
        <g id="Octicons" sketch:type="MSArtboardGroup" transform="translate(-1140.000000, -1058.000000)">
            <g id="icons" sketch:type="MSLayerGroup" transform="translate(788.000000, 613.000000)">
                <g id="octicon-repo-forked" transform="translate(336.000000, 432.000000)">
                    <g id="icon-grid-copy-52"></g>
                    <path d="M28.5,13.5 C26.8359375,13.5 25.5,14.8359375 25.5,16.5 C25.5,17.6015625 26.109375,18.5625 27,19.078125 L27,21 L24,24 L21,21 L21,19.078125 C21.890625,18.5625 22.5,17.6015625 22.5,16.5 C22.5,14.8359375 21.1640625,13.5 19.5,13.5 C17.8359375,13.5 16.5,14.8359375 16.5,16.5 C16.5,17.6015625 17.109375,18.5625 18,19.078125 L18,21.75 L22.5,26.25 L22.5,28.921875 C21.609375,29.4375 21,30.3984375 21,31.5 C21,33.1640625 22.3359375,34.5 24,34.5 C25.6640625,34.5 27,33.1640625 27,31.5 C27,30.3984375 26.390625,29.4375 25.5,28.921875 L25.5,26.25 L30,21.75 L30,19.078125 C30.890625,18.5625 31.5,17.6015625 31.5,16.5 C31.5,14.8359375 30.1640625,13.5 28.5,13.5 L28.5,13.5 Z M19.25,18 C18.2954545,18 17.5,17.2045455 17.5,16.25 C17.5,15.2954545 18.2954545,14.5 19.25,14.5 C20.2045455,14.5 21,15.2954545 21,16.25 C21,17.2045455 20.2045455,18 19.25,18 L19.25,18 Z M23.75,33 C22.7954545,33 22,32.2045455 22,31.25 C22,30.2954545 22.7954545,29.5 23.75,29.5 C24.7045455,29.5 25.5,30.2954545 25.5,31.25 C25.5,32.2045455 24.7045455,33 23.75,33 L23.75,33 Z M28.25,18 C27.2954545,18 26.5,17.2045455 26.5,16.25 C26.5,15.2954545 27.2954545,14.5 28.25,14.5 C29.2045455,14.5 30,15.2954545 30,16.25 C30,17.2045455 29.2045455,18 28.25,18 L28.25,18 Z" id="Shape" fill="#000000" sketch:type="MSShapeGroup"></path>
                </g>
            </g>
        </g>
    </g>
</svg>