<?xml version="1.0" encoding="UTF-8" standalone="no"?>
<svg width="24px" height="24px" viewBox="0 0 24 24" version="1.1" xmlns="http://www.w3.org/2000/svg" xmlns:xlink="http://www.w3.org/1999/xlink" xmlns:sketch="http://www.bohemiancoding.com/sketch/ns">
    <!-- Generator: Sketch 3.4.2 (15855) - http://www.bohemiancoding.com/sketch -->
    <title>octicon-rocket</title>
    <desc>Created with Sketch.</desc>
    <defs></defs>
    <g id="Symbols" stroke="none" stroke-width="1" fill="none" fill-rule="evenodd" sketch:type="MSPage">
        <g id="Octicons" sketch:type="MSArtboardGroup" transform="translate(-1328.000000, -1057.000000)">
            <g id="icons" sketch:type="MSLayerGroup" transform="translate(788.000000, 613.000000)">
                <g id="octicon-rocket" transform="translate(528.000000, 432.000000)">
                    <g id="icon-grid-copy-39"></g>
                    <path d="M36,12 C12.4809247,12 35.8621795,12.5546218 35.5635683,13.5714286 C35.2649571,14.6113445 34.7596151,15.9054622 34.0016022,17.5 C32.9679481,17.3844538 32.1410249,17.0147059 31.5667726,16.4369748 C30.9925204,15.8592437 30.647969,15.0504202 30.5331185,14.0105042 C32.1180548,13.2478992 33.4043798,12.7163866 34.4150638,12.4159664 C35.4487178,12.1155462 36,12 36,12 L36,12 Z M30.1766667,17.8233333 C29.78,17.4266667 29.4766667,17.0066667 29.2433333,16.5166667 C29.01,16.05 28.8466667,15.5366667 28.73,15 C27.8666667,15.49 27.0033333,16.05 26.14,16.68 C25.2766667,17.3333333 24.4366667,18.08 23.62,18.8966667 C22.57,19.9466667 21.6366667,21.6033333 20.96,22.56 L16.48,22.56 L12,27.04 L16.48,27.04 L19.4666667,24.0533333 C18.9533333,25.1966667 17.95,28.51 17.9733333,28.5333333 L19.4666667,30.0266667 C19.49,30.05 22.8033333,29.07 23.9466667,28.5333333 L20.96,31.52 L20.96,36 L25.44,31.52 L25.44,27.04 C26.3966667,26.3633333 28.0533333,25.4066667 29.1033333,24.38 C29.92,23.5633333 30.6666667,22.7 31.2966667,21.8366667 C31.95,20.9733333 32.51,20.11 33,19.27 C32.4633333,19.1533333 31.95,18.99 31.46,18.7566667 C30.9933333,18.5233333 30.5733333,18.22 30.1766667,17.8233333 L30.1766667,17.8233333 Z" id="Shape" fill="#000000" sketch:type="MSShapeGroup"></path>
                </g>
            </g>
        </g>
    </g>
</svg>