<?xml version="1.0" encoding="UTF-8" standalone="no"?>
<svg width="24px" height="18px" viewBox="0 0 24 18" version="1.1" xmlns="http://www.w3.org/2000/svg" xmlns:xlink="http://www.w3.org/1999/xlink" xmlns:sketch="http://www.bohemiancoding.com/sketch/ns">
    <!-- Generator: Sketch 3.4.2 (15855) - http://www.bohemiancoding.com/sketch -->
    <title>octicon-cloud-upload</title>
    <desc>Created with Sketch.</desc>
    <defs></defs>
    <g id="Symbols" stroke="none" stroke-width="1" fill="none" fill-rule="evenodd" sketch:type="MSPage">
        <g id="Octicons" sketch:type="MSArtboardGroup" transform="translate(-944.000000, -724.000000)">
            <g id="icons" sketch:type="MSLayerGroup" transform="translate(788.000000, 613.000000)">
                <g id="octicon-cloud-upload" transform="translate(144.000000, 96.000000)">
                    <g id="icon-grid-copy-142"></g>
                    <path d="M22.5,25.5 L19.5,25.5 L24,21 L28.5,25.5 L25.5,25.5 L25.5,33 L22.5,33 L22.5,25.5 L22.5,25.5 Z M30,19.5 C30,18.84375 28.640625,15 23.25,15 C19.6171875,15 16.5,17.8828125 16.5,21 C13.5234375,21 12,23.2734375 12,25.5 C12,27.796875 13.5,30 16.5,30 L21,30 L21,28.0546875 L16.5,28.0546875 C14.0625,28.0546875 13.9453125,25.921875 13.9453125,25.5 C13.9453125,25.2421875 14.015625,22.9453125 16.5,22.9453125 L18.4453125,22.9453125 L18.4453125,21 C18.4453125,18.9140625 20.7890625,16.9453125 23.25,16.9453125 C27.0703125,16.9453125 27.9375,19.265625 28.0546875,19.640625 L28.0546875,21.4453125 L30,21.4453125 C31.21875,21.4453125 34.0546875,21.7734375 34.0546875,24.75 C34.0546875,27.890625 30.6796875,28.0546875 30,28.0546875 L27,28.0546875 L27,30 L30,30 C33.1171875,30 36,28.265625 36,24.75 C36,21.09375 33.1171875,19.5 30,19.5 L30,19.5 Z" id="Shape" fill="#000000" sketch:type="MSShapeGroup"></path>
                </g>
            </g>
        </g>
    </g>
</svg>