<?xml version="1.0" encoding="UTF-8" standalone="no"?>
<svg width="22px" height="14px" viewBox="0 0 22 14" version="1.1" xmlns="http://www.w3.org/2000/svg" xmlns:xlink="http://www.w3.org/1999/xlink" xmlns:sketch="http://www.bohemiancoding.com/sketch/ns">
    <!-- Generator: Sketch 3.4.2 (15855) - http://www.bohemiancoding.com/sketch -->
    <title>octicon-plug</title>
    <desc>Created with Sketch.</desc>
    <defs></defs>
    <g id="Symbols" stroke="none" stroke-width="1" fill="none" fill-rule="evenodd" sketch:type="MSPage">
        <g id="Octicons" sketch:type="MSArtboardGroup" transform="translate(-1281.000000, -1014.000000)">
            <g id="icons" sketch:type="MSLayerGroup" transform="translate(788.000000, 613.000000)">
                <g id="octicon-plug" transform="translate(480.000000, 384.000000)">
                    <g id="icon-grid-copy-55"></g>
                    <path d="M34.5,22 L34.5,20.5 L28.5,20.5 L28.5,17.5 L25.5,17.5 L25.5,19 L22.5,19 C20.953125,19 19.8515625,20.21875 19.5,22 L18,23.5 C15.515625,23.5 13.5,25.515625 13.5,28 L13.5,31 L15,31 L15,28 C15,26.3359375 16.3359375,25 18,25 L19.5,26.5 C19.875,28.234375 20.9765625,29.5 22.5,29.5 L25.5,29.5 L25.5,31 L28.5,31 L28.5,28 L34.5,28 L34.5,26.5 L28.5,26.5 L28.5,22 L34.5,22 L34.5,22 Z" id="Shape" fill="#000000" sketch:type="MSShapeGroup"></path>
                </g>
            </g>
        </g>
    </g>
</svg>