<?xml version="1.0" encoding="UTF-8" standalone="no"?>
<svg width="22px" height="22px" viewBox="0 0 22 22" version="1.1" xmlns="http://www.w3.org/2000/svg" xmlns:xlink="http://www.w3.org/1999/xlink" xmlns:sketch="http://www.bohemiancoding.com/sketch/ns">
    <!-- Generator: Sketch 3.4.2 (15855) - http://www.bohemiancoding.com/sketch -->
    <title>octicon-screen-normal</title>
    <desc>Created with Sketch.</desc>
    <defs></defs>
    <g id="Symbols" stroke="none" stroke-width="1" fill="none" fill-rule="evenodd" sketch:type="MSPage">
        <g id="Octicons" sketch:type="MSArtboardGroup" transform="translate(-897.000000, -1106.000000)">
            <g id="icons" sketch:type="MSLayerGroup" transform="translate(788.000000, 613.000000)">
                <g id="octicon-screen-normal" transform="translate(96.000000, 480.000000)">
                    <g id="icon-grid-copy-35"></g>
                    <path d="M16.5,18 L13.5,18 L13.5,16.5 L16.5,16.5 L16.5,13.5 L18,13.5 L18,16.5 C18,17.3203125 17.3203125,18 16.5,18 L16.5,18 Z M16.5,30 L13.5,30 L13.5,31.5 L16.5,31.5 L16.5,34.5 L18,34.5 L18,31.5 C18,30.6796875 17.3203125,30 16.5,30 L16.5,30 Z M30,27 C30,27.8203125 29.3203125,28.5 28.5,28.5 L19.5,28.5 C18.6796875,28.5 18,27.8203125 18,27 L18,21 C18,20.1796875 18.6796875,19.5 19.5,19.5 L28.5,19.5 C29.3203125,19.5 30,20.1796875 30,21 L30,27 L30,27 Z M27,22.5 L21,22.5 L21,25.5 L27,25.5 L27,22.5 L27,22.5 Z M30,31.5 L30,34.5 L31.5,34.5 L31.5,31.5 L34.5,31.5 L34.5,30 L31.5,30 C30.6796875,30 30,30.6796875 30,31.5 L30,31.5 Z M31.5,16.5 L31.5,13.5 L30,13.5 L30,16.5 C30,17.3203125 30.6796875,18 31.5,18 L34.5,18 L34.5,16.5 L31.5,16.5 L31.5,16.5 Z" id="Shape" fill="#000000" sketch:type="MSShapeGroup"></path>
                </g>
            </g>
        </g>
    </g>
</svg>