<?xml version="1.0" encoding="UTF-8" standalone="no"?>
<svg width="22px" height="24px" viewBox="0 0 22 24" version="1.1" xmlns="http://www.w3.org/2000/svg" xmlns:xlink="http://www.w3.org/1999/xlink" xmlns:sketch="http://www.bohemiancoding.com/sketch/ns">
    <!-- Generator: Sketch 3.4.2 (15855) - http://www.bohemiancoding.com/sketch -->
    <title>octicon-thumbsdown</title>
    <desc>Created with Sketch.</desc>
    <defs></defs>
    <g id="Symbols" stroke="none" stroke-width="1" fill="none" fill-rule="evenodd" sketch:type="MSPage">
        <g id="Octicons" sketch:type="MSArtboardGroup" transform="translate(-993.000000, -1153.000000)">
            <g id="icons" sketch:type="MSLayerGroup" transform="translate(788.000000, 613.000000)">
                <g id="octicon-thumbsdown" transform="translate(192.000000, 528.000000)">
                    <g id="icon-grid-copy-29"></g>
                    <path d="M33.9140625,23.3671875 C34.125,22.921875 34.265625,22.4296875 34.265625,21.9140625 C34.265625,20.71875 33.609375,19.6640625 32.6484375,19.1015625 C32.7421875,18.796875 32.7890625,18.46875 32.7890625,18.140625 C32.7890625,16.96875 32.1796875,15.9609375 31.265625,15.375 C31.3125,15.1875 31.5,14.9296875 31.5,14.7421875 C31.5,13.1953125 30.1171875,12 28.5,12 L23.296875,12 C21.234375,12 19.3125,13.0078125 17.625,13.8984375 C16.640625,14.4140625 15.5390625,15 14.9765625,15 L13.5,15 L13.5,28.5 L15,28.5 C15.8671875,28.546875 18.6328125,30.1171875 19.828125,31.125 C20.109375,31.359375 23.8828125,35.0625 23.8828125,35.0625 C24.4921875,35.671875 25.2890625,36 26.1328125,36 C26.953125,36 27.7265625,35.6953125 28.2890625,35.109375 C29.484375,33.9140625 29.4609375,31.9453125 28.2421875,30.703125 C27.7734375,30.234375 26.0390625,28.0078125 25.5,27.46875 L31.5,28.5 C33.28125,28.5 34.5,27.1171875 34.5,25.4296875 C34.5,24.6328125 34.4296875,23.9296875 33.9140625,23.3671875 L33.9140625,23.3671875 Z M31.5,26.9849498 L22.5,25.4866221 C22.3359375,25.4866221 27.1875,31.7140468 27.1875,31.7140468 C27.84375,32.3929766 27.8671875,33.4230769 27.2578125,34.0551839 C26.953125,34.3595318 26.5546875,34.5 26.1328125,34.5 C25.7109375,34.5 25.265625,34.3361204 24.9140625,34.0083612 L21.6328125,30.6839465 C19.6171875,29.0217391 16.5703125,26.9849498 15,26.9849498 L15,16.4498328 C17.0390625,16.4498328 20.1796875,13.5 23.25,13.5 L28.5,13.5 C29.296875,13.5 30,13.9682274 30,14.7408027 C30,15.5367893 29.296875,16.4966555 28.5,16.4966555 L29.625,16.4966555 C30.6796875,16.4966555 31.3125,17.0819398 31.3125,18.1354515 C31.3125,19.1655518 30.46875,20.2424749 29.4140625,20.2424749 L30.890625,20.2424749 C31.9453125,20.2424749 32.7890625,20.8511706 32.7890625,21.9046823 C32.7890625,22.9347826 31.9453125,23.777592 30.890625,23.777592 L31.5234375,23.777592 C32.5078125,23.777592 33,24.5267559 33,25.416388 C33,26.3294314 32.4609375,26.9849498 31.5,26.9849498 L31.5,26.9849498 Z" id="Shape" fill="#000000" sketch:type="MSShapeGroup"></path>
                </g>
            </g>
        </g>
    </g>
</svg>