<?xml version="1.0" encoding="UTF-8" standalone="no"?>
<svg width="24px" height="22px" viewBox="0 0 24 22" version="1.1" xmlns="http://www.w3.org/2000/svg" xmlns:xlink="http://www.w3.org/1999/xlink" xmlns:sketch="http://www.bohemiancoding.com/sketch/ns">
    <!-- Generator: Sketch 3.4.2 (15855) - http://www.bohemiancoding.com/sketch -->
    <title>octicon-home</title>
    <desc>Created with Sketch.</desc>
    <defs></defs>
    <g id="Symbols" stroke="none" stroke-width="1" fill="none" fill-rule="evenodd" sketch:type="MSPage">
        <g id="Octicons" sketch:type="MSArtboardGroup" transform="translate(-1328.000000, -866.000000)">
            <g id="icons" sketch:type="MSLayerGroup" transform="translate(788.000000, 613.000000)">
                <g id="octicon-home" transform="translate(528.000000, 240.000000)">
                    <g id="icon-grid-copy-107"></g>
                    <path d="M36,25.5 L31.5,21 L31.5,15 L28.5,15 L28.5,18 L24,13.5 L12,25.5 L15,25.5 L16.5,33 C16.5,33.8203125 17.1796875,34.5 18,34.5 L30,34.5 C30.8203125,34.5 31.5,33.8203125 31.5,33 L33,25.5 L36,25.5 L36,25.5 Z M29.7259036,33.5 L25.2439759,33.5 L25.2439759,27.4130435 L22.2560241,27.4130435 L22.2560241,33.5 L17.7740964,33.5 L16,23.8940217 L23.75,16 L31.5,23.8940217 L29.7259036,33.5 L29.7259036,33.5 Z" id="Shape" fill="#000000" sketch:type="MSShapeGroup"></path>
                </g>
            </g>
        </g>
    </g>
</svg>