<?xml version="1.0" encoding="UTF-8" standalone="no"?>
<svg width="16px" height="16px" viewBox="0 0 16 16" version="1.1" xmlns="http://www.w3.org/2000/svg" xmlns:xlink="http://www.w3.org/1999/xlink" xmlns:sketch="http://www.bohemiancoding.com/sketch/ns">
    <!-- Generator: Sketch 3.4.2 (15855) - http://www.bohemiancoding.com/sketch -->
    <title>octicon-horizontal-rule</title>
    <desc>Created with Sketch.</desc>
    <defs></defs>
    <g id="Symbols" stroke="none" stroke-width="1" fill="none" fill-rule="evenodd" sketch:type="MSPage">
        <g id="Octicons" sketch:type="MSArtboardGroup" transform="translate(-1380.000000, -869.000000)">
            <g id="icons" sketch:type="MSLayerGroup" transform="translate(788.000000, 613.000000)">
                <g id="octicon-horizontal-rule" transform="translate(576.000000, 240.000000)">
                    <g id="icon-grid-copy-103"></g>
                    <path d="M17.9989099,22.4995155 L20.9996366,22.4995155 L20.9996366,25.5 L22.5,25.5 L22.5,16.5 L20.9996366,16.5 L20.9996366,20.9992733 L17.9989099,20.9992733 L17.9989099,16.5 L16.5,16.5 L16.5,25.5 L17.9989099,25.5 L17.9989099,22.4995155 L17.9989099,22.4995155 Z M31.5,25.5 L31.5,22.5 L30,22.5 L30,25.5 L31.5,25.5 L31.5,25.5 Z M31.5,21 L31.5,18 L30,18 L30,21 L31.5,21 L31.5,21 Z M27,20.9992733 L27,18.0002422 L30,18.0002422 L30,16.5 L25.5,16.5 L25.5,25.5 L27,25.5 L27,22.4995155 L30,22.4995155 L30,20.9992733 L27,20.9992733 L27,20.9992733 Z M16.5,31.5 L31.5,31.5 L31.5,28.4997093 L16.5,28.4997093 L16.5,31.5 L16.5,31.5 Z" id="Shape" fill="#000000" sketch:type="MSShapeGroup"></path>
                </g>
            </g>
        </g>
    </g>
</svg>