<?xml version="1.0" encoding="UTF-8" standalone="no"?>
<svg width="24px" height="22px" viewBox="0 0 24 22" version="1.1" xmlns="http://www.w3.org/2000/svg" xmlns:xlink="http://www.w3.org/1999/xlink" xmlns:sketch="http://www.bohemiancoding.com/sketch/ns">
    <!-- Generator: Sketch 3.4.2 (15855) - http://www.bohemiancoding.com/sketch -->
    <title>octicon-radio-tower</title>
    <desc>Created with Sketch.</desc>
    <defs></defs>
    <g id="Symbols" stroke="none" stroke-width="1" fill="none" fill-rule="evenodd" sketch:type="MSPage">
        <g id="Octicons" sketch:type="MSArtboardGroup" transform="translate(-992.000000, -1058.000000)">
            <g id="icons" sketch:type="MSLayerGroup" transform="translate(788.000000, 613.000000)">
                <g id="octicon-radio-tower" transform="translate(192.000000, 432.000000)">
                    <g id="icon-grid-copy-47"></g>
                    <path d="M19.2118755,21.7097302 C19.5960415,21.3227039 19.5960415,20.695501 19.2118755,20.3084747 C18.7150597,19.807282 18.470005,19.159287 18.4685039,18.5016555 C18.470005,17.8425287 18.7150355,17.1952933 19.2118755,16.6933648 C19.5960415,16.3056027 19.5960415,15.6783523 19.2118755,15.2913497 C19.0197924,15.0971007 18.7695083,15 18.5169,15 C18.2658169,15 18.0132328,15.0956292 17.8211497,15.2898781 C16.9431458,16.1751302 16.4984787,17.3413835 16.5000039,18.5016555 C16.4985029,19.6597439 16.94317,20.8259734 17.8211497,21.7097302 C18.2053158,22.0967566 18.8277094,22.0967566 19.2118755,21.7097302 L19.2118755,21.7097302 Z M15.6997334,13.2918117 C15.4971065,13.0972628 15.2336491,13 14.9686698,13 C14.7052373,13 14.440233,13.0972628 14.239178,13.2918117 C12.7482074,14.7282522 11.9984554,16.6166812 12.0000024,18.4999824 C11.9984554,20.3811062 12.7482074,22.2731878 14.2376311,23.7081766 C14.6413628,24.0972745 15.2944547,24.0972745 15.6981865,23.7081766 C16.1003463,23.3198045 16.1003463,22.6893526 15.6981865,22.3017532 C14.6078287,21.2485805 14.0653944,19.8794092 14.0653944,18.5000293 C14.0653944,17.1206493 14.6078287,15.7500498 15.6981865,14.6983053 C16.1003463,14.3084348 16.1003463,13.6779828 15.6997334,13.2918117 L15.6997334,13.2918117 Z M24,21 C25.3792133,21 26.5,19.8799534 26.5,18.499988 C26.5,17.1200225 25.3792133,16 24,16 C22.6200652,16 21.5,17.1200225 21.5,18.499988 C21.500024,19.8799534 22.6200652,21 24,21 L24,21 Z M33.7625624,13.2918626 C33.3587048,12.9027125 32.7054344,12.9027125 32.3030994,13.2918626 C31.8992418,13.6802867 31.8992418,14.3108232 32.3030994,14.698498 C33.3929981,15.75036 33.9356264,17.1211669 33.9356264,18.5007318 C33.9356264,19.8788448 33.3914008,21.2496282 32.301502,22.3015137 C31.8992418,22.6906638 31.8992418,23.3219262 32.3030494,23.7081491 C32.504192,23.9027242 32.7676816,24 33.0327685,24 C33.296283,24 33.5613449,23.9027242 33.7624625,23.7081491 C35.2531489,22.2729679 36.0031095,20.3806325 35.9999897,18.4992565 C36.0032094,16.6193557 35.2532238,14.7270204 33.7625624,13.2918626 L33.7625624,13.2918626 Z M24.0149865,22.9529783 L24.0149865,22.9529783 C23.3947112,22.9544238 22.772984,22.8022264 22.2097978,22.5 L17.5,35 L19.7294459,35 L21.0131059,33.5084986 L27.0051354,33.5084986 L28.2690789,35 L30.5,35 L25.7909516,22.5029143 C25.2350478,22.8007809 24.6264806,22.9529783 24.0149865,22.9529783 L24.0149865,22.9529783 Z M23.9911954,23.5 L25.5,29 L22.5,29 L23.9911954,23.5 L23.9911954,23.5 Z M21,32 L22.5000234,30.5 L25.4999766,30.5 L27,32 L21,32 L21,32 Z M28.7882677,15.2903308 C28.4039108,15.6774385 28.4039108,16.3047733 28.7882677,16.691881 C29.2846035,17.1931791 29.5297316,17.8435419 29.5312576,18.4990801 C29.5297558,19.1583454 29.2846035,19.8072126 28.7882677,20.3077747 C28.4039108,20.6955947 28.4039108,21.322977 28.7882677,21.7100609 C28.9789201,21.9043507 29.2301279,22 29.4843393,22 C29.7340453,22 29.9867307,21.9043507 30.1789091,21.7100609 C31.0581243,20.8261183 31.5030124,19.6581242 31.4999846,18.4990801 C31.5030124,17.3407482 31.0596019,16.1742734 30.1789091,15.2903308 C29.7960782,14.9032231 29.1726246,14.9032231 28.7882677,15.2903308 L28.7882677,15.2903308 Z" id="Shape" fill="#000000" sketch:type="MSShapeGroup"></path>
                </g>
            </g>
        </g>
    </g>
</svg>