<?xml version="1.0" encoding="UTF-8" standalone="no"?>
<svg width="20px" height="20px" viewBox="0 0 20 20" version="1.1" xmlns="http://www.w3.org/2000/svg" xmlns:xlink="http://www.w3.org/1999/xlink" xmlns:sketch="http://www.bohemiancoding.com/sketch/ns">
    <!-- Generator: Sketch 3.4.2 (15855) - http://www.bohemiancoding.com/sketch -->
    <title>octicon-bug</title>
    <desc>Created with Sketch.</desc>
    <defs></defs>
    <g id="Symbols" stroke="none" stroke-width="1" fill="none" fill-rule="evenodd" sketch:type="MSPage">
        <g id="Octicons" sketch:type="MSArtboardGroup" transform="translate(-946.000000, -675.000000)">
            <g id="icons" sketch:type="MSLayerGroup" transform="translate(788.000000, 613.000000)">
                <g id="octicon-bug" transform="translate(144.000000, 48.000000)">
                    <g id="icon-grid-copy-155"></g>
                    <path d="M29.2459016,28 L33.7423888,28 L33.7423888,26.5 L29.2459016,26.5 L29.2459016,25 L34,23.453125 L33.4847775,22.046875 L29.2459016,23.5 L29.2459016,22 C29.2459016,21.1796875 28.5667447,20.5 27.7470726,20.5 L27.7470726,19 C27.7470726,18.2734375 27.2084309,17.6875 26.5058548,17.546875 L28.0515222,16 L30.7447307,16 L30.7447307,14.5 L27.442623,14.5 L24.4449649,17.5 L23.5550351,17.5 L20.557377,14.5 L17.2552693,14.5 L17.2552693,16 L19.9484778,16 L21.4941452,17.546875 C20.7915691,17.6875 20.2529274,18.2734375 20.2529274,19 L20.2529274,20.5 C19.4332553,20.5 18.7540984,21.1796875 18.7540984,22 L18.7540984,23.5 L14.5152225,22.046875 L14,23.453125 L18.7540984,25 L18.7540984,26.5 L14.2576112,26.5 L14.2576112,28 L18.7540984,28 L18.7540984,29.5 L14,31.046875 L14.5152225,32.453125 L18.7540984,31 L18.7540984,32.5 C18.7540984,33.3203125 19.4332553,34 20.2529274,34 L21.7517564,34 L23.2505855,32.5 L23.2505855,22 L24.7494145,22 L24.7494145,32.5 L26.2482436,34 L27.7470726,34 C28.5667447,34 29.2459016,33.3203125 29.2459016,32.5 L29.2459016,31 L33.4847775,32.453125 L34,31.046875 L29.2459016,29.5 L29.2459016,28 L29.2459016,28 Z M26.5,20.5 L22,20.5 L22,19 L26.5,19 L26.5,20.5 L26.5,20.5 Z" id="Shape" fill="#000000" sketch:type="MSShapeGroup"></path>
                </g>
            </g>
        </g>
    </g>
</svg>