<?xml version="1.0" encoding="UTF-8" standalone="no"?>
<svg width="22px" height="18px" viewBox="0 0 22 18" version="1.1" xmlns="http://www.w3.org/2000/svg" xmlns:xlink="http://www.w3.org/1999/xlink" xmlns:sketch="http://www.bohemiancoding.com/sketch/ns">
    <!-- Generator: Sketch 3.4.2 (15855) - http://www.bohemiancoding.com/sketch -->
    <title>octicon-file-directory</title>
    <desc>Created with Sketch.</desc>
    <defs></defs>
    <g id="Symbols" stroke="none" stroke-width="1" fill="none" fill-rule="evenodd" sketch:type="MSPage">
        <g id="Octicons" sketch:type="MSArtboardGroup" transform="translate(-849.000000, -820.000000)">
            <g id="icons" sketch:type="MSLayerGroup" transform="translate(788.000000, 613.000000)">
                <g id="octicon-file-directory" transform="translate(48.000000, 192.000000)">
                    <g id="icon-grid-copy-123"></g>
                    <path d="M33,18 L24,18 L24,16.5 C24,15.515625 23.53125,15 22.5,15 L15,15 C14.1796875,15 13.5,15.6796875 13.5,16.5 L13.5,31.5 C13.5,32.3203125 14.1796875,33 15,33 L33,33 C33.8203125,33 34.5,32.3203125 34.5,31.5 L34.5,19.5 C34.5,18.6796875 33.8203125,18 33,18 L33,18 Z M22.5,18 L15,18 L15,16.5 L22.5,16.5 L22.5,18 L22.5,18 Z" id="Shape" fill="#000000" sketch:type="MSShapeGroup"></path>
                </g>
            </g>
        </g>
    </g>
</svg>