<?xml version="1.0" encoding="UTF-8" standalone="no"?>
<svg width="18px" height="23px" viewBox="0 0 18 23" version="1.1" xmlns="http://www.w3.org/2000/svg" xmlns:xlink="http://www.w3.org/1999/xlink" xmlns:sketch="http://www.bohemiancoding.com/sketch/ns">
    <!-- Generator: Sketch 3.4.2 (15855) - http://www.bohemiancoding.com/sketch -->
    <title>octicon-paintcan</title>
    <desc>Created with Sketch.</desc>
    <defs></defs>
    <g id="Symbols" stroke="none" stroke-width="1" fill="none" fill-rule="evenodd" sketch:type="MSPage">
        <g id="Octicons" sketch:type="MSArtboardGroup" transform="translate(-1091.000000, -1010.000000)">
            <g id="icons" sketch:type="MSLayerGroup" transform="translate(788.000000, 613.000000)">
                <g id="octicon-paintcan" transform="translate(288.000000, 384.000000)">
                    <g id="icon-grid-copy-61"></g>
                    <path d="M24,13 C19.0294453,13 15,17.0294453 15,22 L15,23.5 C15,24.3284219 15.6715781,25 16.5,25 L16.5,32.5 C16.5,34.1568438 19.8578672,35.5 24,35.5 C28.1421328,35.5 31.5,34.1568438 31.5,32.5 L31.5,25 C32.3284219,25 33,24.3284219 33,23.5 L33,22 C33,17.0294453 28.9705547,13 24,13 L24,13 Z M28.5,28.1033654 L28.5,28.8361378 C28.5,29.2408343 28.1642109,29.5689102 27.75,29.5689102 C27.3357891,29.5689102 27,29.2408343 27,28.8361378 L27,28.1033654 C27,27.6986689 26.6642109,27.3705929 26.25,27.3705929 C25.8357891,27.3705929 25.5,27.6986689 25.5,28.1033654 L25.5,31.7672276 C25.5,32.171924 25.1642109,32.5 24.75,32.5 C24.3357891,32.5 24,32.171924 24,31.7672276 L24,28.8361378 C24,28.4314413 23.6642109,28.1033654 23.25,28.1033654 C22.8357891,28.1033654 22.5,28.4314413 22.5,28.8361378 L22.5,29.5689102 C22.5,30.3783032 21.8284219,31.0344551 21,31.0344551 C20.1715781,31.0344551 19.5,30.3783032 19.5,29.5689102 L19.5,28.1033654 C18.6715781,28.1033654 18,27.4472134 18,26.6378205 L18,24 C19.3683281,24.7118197 21.5465156,25.1722756 24,25.1722756 C26.4534844,25.1722756 28.6316719,24.7118197 30,24 L30,26.6378205 C30,27.4472134 29.3284219,28.1033654 28.5,28.1033654 L28.5,28.1033654 Z M24,23.5 C21.5107363,23.5 19.379988,22.8795156 18.5,22 C19.379988,21.1204844 21.5107363,20.5 24,20.5 C26.4892637,20.5 28.620012,21.1204844 29.5,22 C28.620012,22.8795156 26.4892637,23.5 24,23.5 L24,23.5 Z M24,19 C19.8604688,19 16.5043125,20.3414688 16.5000938,21.9968828 C16.5000703,21.9968594 16.5000469,21.9968594 16.5000234,21.9968359 C16.5017578,17.8561563 19.8589219,14.5 24,14.5 C28.1421328,14.5 31.5,17.8578672 31.5,22 C31.5,20.3431562 28.1421328,19 24,19 L24,19 Z" id="Shape" fill="#000000" sketch:type="MSShapeGroup"></path>
                </g>
            </g>
        </g>
    </g>
</svg>