<?xml version="1.0" encoding="UTF-8" standalone="no"?>
<svg width="18px" height="22px" viewBox="0 0 18 22" version="1.1" xmlns="http://www.w3.org/2000/svg" xmlns:xlink="http://www.w3.org/1999/xlink" xmlns:sketch="http://www.bohemiancoding.com/sketch/ns">
    <!-- Generator: Sketch 3.4.2 (15855) - http://www.bohemiancoding.com/sketch -->
    <title>octicon-file-code</title>
    <desc>Created with Sketch.</desc>
    <defs></defs>
    <g id="Symbols" stroke="none" stroke-width="1" fill="none" fill-rule="evenodd" sketch:type="MSPage">
        <g id="Octicons" sketch:type="MSArtboardGroup" transform="translate(-803.000000, -818.000000)">
            <g id="icons" sketch:type="MSLayerGroup" transform="translate(788.000000, 613.000000)">
                <g id="octicon-file-code" transform="translate(0.000000, 192.000000)">
                    <g id="icon-grid-copy-114"></g>
                    <path d="M27.75,13.5 L16.5,13.5 C15.6796875,13.5 15,14.1796875 15,15 L15,33 C15,33.8203125 15.6796875,34.5 16.5,34.5 L31.5,34.5 C32.3203125,34.5 33,33.8203125 33,33 L33,18.75 L27.75,13.5 L27.75,13.5 Z M31.5,33 L16.5,33 L16.5,15 L27,15 L31.5,19.5 L31.5,33 L31.5,33 Z M22.5,22.4765625 L20.25,24.75 L22.5,27 L21.75,28.5 L18,24.75 L21.75,21 L22.5,22.4765625 L22.5,22.4765625 Z M26.25,21 L30,24.75 L26.25,28.5 L25.5,27.0234375 L27.75,24.75 L25.5,22.5 L26.25,21 L26.25,21 Z" id="Shape" fill="#000000" sketch:type="MSShapeGroup"></path>
                </g>
            </g>
        </g>
    </g>
</svg>