<?xml version="1.0" encoding="UTF-8" standalone="no"?>
<svg width="24px" height="23px" viewBox="0 0 24 23" version="1.1" xmlns="http://www.w3.org/2000/svg" xmlns:xlink="http://www.w3.org/1999/xlink" xmlns:sketch="http://www.bohemiancoding.com/sketch/ns">
    <!-- Generator: Sketch 3.4.2 (15855) - http://www.bohemiancoding.com/sketch -->
    <title>octicon-desktop-download</title>
    <desc>Created with Sketch.</desc>
    <defs></defs>
    <g id="Symbols" stroke="none" stroke-width="1" fill="none" fill-rule="evenodd" sketch:type="MSPage">
        <g id="Octicons" sketch:type="MSArtboardGroup" transform="translate(-1376.000000, -722.000000)">
            <g id="icons" sketch:type="MSLayerGroup" transform="translate(788.000000, 613.000000)">
                <g id="octicon-desktop-download" transform="translate(576.000000, 96.000000)">
                    <g id="icon-grid-copy-131"></g>
                    <path d="M18,22 L22.5,22 L22.5,13 L25.5,13 L25.5,22 L30,22 L24,28 L18,22 L18,22 Z M34.5,16 L28.5,16 L28.5,17.5 L34.5,17.5 L34.5,29.5 L13.5,29.5 L13.5,17.5 L19.5,17.5 L19.5,16 L13.5,16 C12.6796875,16 12,16.6796875 12,17.5 L12,31 C12,31.8203125 12.6796875,32.5 13.5,32.5 L21.515625,32.5 C21.140625,33.4140625 20.2265625,34.5859375 18,35.5 L30,35.5 C27.7734375,34.5859375 26.859375,33.4140625 26.484375,32.5 L34.5,32.5 C35.3203125,32.5 36,31.8203125 36,31 L36,17.5 C36,16.6796875 35.3203125,16 34.5,16 L34.5,16 Z" id="Shape" fill="#000000" sketch:type="MSShapeGroup"></path>
                </g>
            </g>
        </g>
    </g>
</svg>