<?xml version="1.0" encoding="UTF-8" standalone="no"?>
<svg width="22px" height="23px" viewBox="0 0 22 23" version="1.1" xmlns="http://www.w3.org/2000/svg" xmlns:xlink="http://www.w3.org/1999/xlink" xmlns:sketch="http://www.bohemiancoding.com/sketch/ns">
    <!-- Generator: Sketch 3.4.2 (15855) - http://www.bohemiancoding.com/sketch -->
    <title>octicon-clippy</title>
    <desc>Created with Sketch.</desc>
    <defs></defs>
    <g id="Symbols" stroke="none" stroke-width="1" fill="none" fill-rule="evenodd" sketch:type="MSPage">
        <g id="Octicons" sketch:type="MSArtboardGroup" transform="translate(-801.000000, -722.000000)">
            <g id="icons" sketch:type="MSLayerGroup" transform="translate(788.000000, 613.000000)">
                <g id="octicon-clippy" transform="translate(0.000000, 96.000000)">
                    <g id="icon-grid-copy-145"></g>
                    <path d="M16.5,31 L22.5,31 L22.5,32.5 L16.5,32.5 L16.5,31 L16.5,31 Z M24,22 L16.5,22 L16.5,23.5 L24,23.5 L24,22 L24,22 Z M27,26.5 L27,23.5 L22.5,28 L27,32.5 L27,29.5 L34.5,29.5 L34.5,26.5 L27,26.5 L27,26.5 Z M20.5,25 L16.5,25 L16.5,26.5 L20.5,26.5 L20.5,25 L20.5,25 Z M16.5,29.5 L20.5,29.5 L20.5,28 L16.5,28 L16.5,29.5 L16.5,29.5 Z M30,31 L31.5,31 L31.5,34 C31.4765625,34.421875 31.3359375,34.7734375 31.0546875,35.0546875 C30.7734375,35.3359375 30.421875,35.4765625 30,35.5 L15,35.5 C14.1796875,35.5 13.5,34.8203125 13.5,34 L13.5,17.5 C13.5,16.6796875 14.1796875,16 15,16 L19.5,16 C19.5,14.3359375 20.8359375,13 22.5,13 C24.1640625,13 25.5,14.3359375 25.5,16 L30,16 C30.8203125,16 31.5,16.6796875 31.5,17.5 L31.5,25 L30,25 L30,20.5 L15,20.5 L15,34 L30,34 L30,31 L30,31 Z M16.5,19 L28.5,19 C28.5,18.1796875 27.8203125,17.5 27,17.5 L25.5,17.5 C24.6796875,17.5 24,16.8203125 24,16 C24,15.1796875 23.3203125,14.5 22.5,14.5 C21.6796875,14.5 21,15.1796875 21,16 C21,16.8203125 20.3203125,17.5 19.5,17.5 L18,17.5 C17.1796875,17.5 16.5,18.1796875 16.5,19 L16.5,19 Z" id="Shape" fill="#000000" sketch:type="MSShapeGroup"></path>
                </g>
            </g>
        </g>
    </g>
</svg>