<?xml version="1.0" encoding="UTF-8" standalone="no"?>
<svg width="18px" height="18px" viewBox="0 0 18 18" version="1.1" xmlns="http://www.w3.org/2000/svg" xmlns:xlink="http://www.w3.org/1999/xlink" xmlns:sketch="http://www.bohemiancoding.com/sketch/ns">
    <!-- Generator: Sketch 3.4.2 (15855) - http://www.bohemiancoding.com/sketch -->
    <title>octicon-link-external</title>
    <desc>Created with Sketch.</desc>
    <defs></defs>
    <g id="Symbols" stroke="none" stroke-width="1" fill="none" fill-rule="evenodd" sketch:type="MSPage">
        <g id="Octicons" sketch:type="MSArtboardGroup" transform="translate(-1331.000000, -916.000000)">
            <g id="icons" sketch:type="MSLayerGroup" transform="translate(788.000000, 613.000000)">
                <g id="octicon-link-external" transform="translate(528.000000, 288.000000)">
                    <g id="icon-grid-copy-87"></g>
                    <path d="M31.5,27 L33,27 L33,31.5 C33,32.3203125 32.3203125,33 31.5,33 L16.5,33 C15.6796875,33 15,32.3203125 15,31.5 L15,16.5 C15,15.6796875 15.6796875,15 16.5,15 L21,15 L21,16.5 L16.5,16.5 L16.5,31.5 L31.5,31.5 L31.5,27 L31.5,27 Z M24,15 L27.375,18.375 L22.5,23.25 L24.75,25.5 L29.625,20.625 L33,24 L33,15 L24,15 L24,15 Z" id="Shape" fill="#000000" sketch:type="MSShapeGroup"></path>
                </g>
            </g>
        </g>
    </g>
</svg>