<?xml version="1.0" encoding="UTF-8" standalone="no"?>
<svg width="24px" height="18px" viewBox="0 0 24 18" version="1.1" xmlns="http://www.w3.org/2000/svg" xmlns:xlink="http://www.w3.org/1999/xlink" xmlns:sketch="http://www.bohemiancoding.com/sketch/ns">
    <!-- Generator: Sketch 3.4.2 (15855) - http://www.bohemiancoding.com/sketch -->
    <title>octicon-device-camera</title>
    <desc>Created with Sketch.</desc>
    <defs></defs>
    <g id="Symbols" stroke="none" stroke-width="1" fill="none" fill-rule="evenodd" sketch:type="MSPage">
        <g id="Octicons" sketch:type="MSArtboardGroup" transform="translate(-848.000000, -772.000000)">
            <g id="icons" sketch:type="MSLayerGroup" transform="translate(788.000000, 613.000000)">
                <g id="octicon-device-camera" transform="translate(48.000000, 144.000000)">
                    <g id="icon-grid-copy-128"></g>
                    <path d="M34.5,16.5 L22.5,16.5 C22.5,15.6796875 21.8203125,15 21,15 L15,15 C14.1796875,15 13.5,15.6796875 13.5,16.5 C12.6796875,16.5 12,17.1796875 12,18 L12,31.5 C12,32.3203125 12.6796875,33 13.5,33 L34.5,33 C35.3203125,33 36,32.3203125 36,31.5 L36,18 C36,17.1796875 35.3203125,16.5 34.5,16.5 L34.5,16.5 Z M21,19.5 L15,19.5 L15,18 L21,18 L21,19.5 L21,19.5 Z M27.75,30 C24.84375,30 22.5,27.65625 22.5,24.75 C22.5,21.84375 24.84375,19.5 27.75,19.5 C30.65625,19.5 33,21.84375 33,24.75 C33,27.65625 30.65625,30 27.75,30 L27.75,30 Z M31.5,24.75 C31.5,26.8125 29.8125,28.5 27.75,28.5 C25.6875,28.5 24,26.8125 24,24.75 C24,22.6875 25.6875,21 27.75,21 C29.8125,21 31.5,22.6875 31.5,24.75 L31.5,24.75 Z" id="Shape" fill="#000000" sketch:type="MSShapeGroup"></path>
                </g>
            </g>
        </g>
    </g>
</svg>