<?xml version="1.0" encoding="UTF-8" standalone="no"?>
<svg width="20px" height="24px" viewBox="0 0 20 24" version="1.1" xmlns="http://www.w3.org/2000/svg" xmlns:xlink="http://www.w3.org/1999/xlink" xmlns:sketch="http://www.bohemiancoding.com/sketch/ns">
    <!-- Generator: Sketch 3.4.2 (15855) - http://www.bohemiancoding.com/sketch -->
    <title>octicon-sign-in</title>
    <desc>Created with Sketch.</desc>
    <defs></defs>
    <g id="Symbols" stroke="none" stroke-width="1" fill="none" fill-rule="evenodd" sketch:type="MSPage">
        <g id="Octicons" sketch:type="MSArtboardGroup" transform="translate(-1138.000000, -1105.000000)">
            <g id="icons" sketch:type="MSLayerGroup" transform="translate(788.000000, 613.000000)">
                <g id="octicon-sign-in" transform="translate(336.000000, 480.000000)">
                    <g id="icon-grid-copy-44"></g>
                    <path d="M23,22.125 L23,30 L29,30 L29,24 L30.5,24 L30.5,30 C30.5,30.8203125 29.8203125,31.5 29,31.5 L23,31.5 L23,36 L14.8203125,31.921875 C14.328125,31.6640625 14,31.1484375 14,30.5625 L14,13.5 C14,12.6796875 14.6796875,12 15.5,12 L29,12 C29.8203125,12 30.5,12.6796875 30.5,13.5 L30.5,18 L29,18 L29,13.5 L17,13.5 L23,16.5 L23,19.875 L27.5,16.5 L27.5,19.5 L33.5,19.5 L33.5,22.5 L27.5,22.5 L27.5,25.5 L23,22.125 L23,22.125 Z" id="Shape" fill="#000000" sketch:type="MSShapeGroup"></path>
                </g>
            </g>
        </g>
    </g>
</svg>