<?xml version="1.0" encoding="UTF-8" standalone="no"?>
<svg width="18px" height="22px" viewBox="0 0 18 22" version="1.1" xmlns="http://www.w3.org/2000/svg" xmlns:xlink="http://www.w3.org/1999/xlink" xmlns:sketch="http://www.bohemiancoding.com/sketch/ns">
    <!-- Generator: Sketch 3.4.2 (15855) - http://www.bohemiancoding.com/sketch -->
    <title>octicon-file-pdf</title>
    <desc>Created with Sketch.</desc>
    <defs></defs>
    <g id="Symbols" stroke="none" stroke-width="1" fill="none" fill-rule="evenodd" sketch:type="MSPage">
        <g id="Octicons" sketch:type="MSArtboardGroup" transform="translate(-947.000000, -818.000000)">
            <g id="icons" sketch:type="MSLayerGroup" transform="translate(788.000000, 613.000000)">
                <g id="octicon-file-pdf" transform="translate(144.000000, 192.000000)">
                    <g id="icon-grid-copy-122"></g>
                    <path d="M27.75,13.5 L16.5,13.5 C15.6796875,13.5 15,14.1796875 15,15 L15,33 C15,33.8203125 15.6796875,34.5 16.5,34.5 L31.5,34.5 C32.3203125,34.5 33,33.8203125 33,33 L33,18.75 L27.75,13.5 L27.75,13.5 Z M16.5,15 L22.5,15 C22.3359375,15.0466667 22.1953125,15.14 22.03125,15.3033333 C21.890625,15.4433333 21.7734375,15.6766667 21.6796875,16.0033333 C21.515625,16.5866667 21.46875,17.3333333 21.5390625,18.1966667 C21.609375,19.06 21.796875,19.9466667 22.0546875,20.88 C21.703125,21.9766667 21.140625,23.2833333 20.390625,24.8466667 C19.640625,26.41 19.1953125,27.32 19.03125,27.6 C18.8203125,27.67 18.4921875,27.81 18,28.0433333 C17.5078125,28.2533333 17.015625,28.58 16.5,29 L16.5,15 L16.5,15 Z M23.299569,22 C23.987069,23.7444934 24.5797414,24.8348018 25.0775862,25.246696 C25.575431,25.6585903 26.049569,25.9493392 26.5,26.0704846 C25.5280172,26.215859 24.6271552,26.3854626 23.75,26.5792952 C22.8965517,26.7731278 21.9719828,27.0881057 21,27.5 C21.0237069,27.4757709 21.3318966,26.8215859 21.924569,25.561674 C22.5172414,24.3017621 22.9913793,23.1145374 23.299569,22 L23.299569,22 Z M31.5,33 L17.2576737,33 C17.1639742,33 17.0702746,32.977551 17,32.955102 C17.3045234,32.8653061 17.6793215,32.6632653 18.1009693,32.3265306 C18.7802908,31.7877551 19.6704362,30.6653061 20.7714055,28.9142857 C21.2399031,28.7346939 21.638126,28.577551 21.9894992,28.4653061 L22.6219709,28.2632653 C23.3012924,28.0836735 24.0274637,27.9265306 24.7770598,27.7918367 C25.5266559,27.6795918 26.276252,27.5673469 27.0024233,27.5 C27.6817447,27.8142857 28.3610662,28.0612245 29.0872375,28.2632653 C29.8134087,28.4428571 30.4458805,28.555102 30.9378029,28.6 C31.1486268,28.6 31.3360258,28.577551 31.5,28.555102 L31.5,33 L31.5,33 Z M31.5,25.5 C31.2118644,25.3391685 30.8757062,25.2013129 30.5155367,25.0864333 C30.1553672,24.9945295 29.7711864,24.9485777 29.3629944,24.9256018 C28.7627119,24.9256018 28.1384181,24.9715536 27.4661017,25.0404814 C27.1059322,24.9485777 26.6016949,24.6269147 25.9533898,24.0984683 C25.3050847,23.5700219 24.6327684,22.4212254 23.9364407,20.6750547 C24.1285311,19.4573304 24.2245763,18.4923414 24.2485876,17.7800875 C24.2725989,17.0678337 24.2725989,16.7002188 24.2485876,16.6772429 C24.3206215,16.0798687 24.200565,15.643326 23.9364407,15.3905908 C23.6723164,15.1378556 23.3601695,15 23,15 L26.8898305,15 L31.5,19.4113786 L31.5,25.5 L31.5,25.5 Z" id="Shape" fill="#000000" sketch:type="MSShapeGroup"></path>
                </g>
            </g>
        </g>
    </g>
</svg>