<?xml version="1.0" encoding="UTF-8" standalone="no"?>
<svg width="16px" height="16px" viewBox="0 0 16 16" version="1.1" xmlns="http://www.w3.org/2000/svg" xmlns:xlink="http://www.w3.org/1999/xlink" xmlns:sketch="http://www.bohemiancoding.com/sketch/ns">
    <!-- Generator: Sketch 3.4.2 (15855) - http://www.bohemiancoding.com/sketch -->
    <title>octicon-rss</title>
    <desc>Created with Sketch.</desc>
    <defs></defs>
    <g id="Symbols" stroke="none" stroke-width="1" fill="none" fill-rule="evenodd" sketch:type="MSPage">
        <g id="Octicons" sketch:type="MSArtboardGroup" transform="translate(-1380.000000, -1061.000000)">
            <g id="icons" sketch:type="MSLayerGroup" transform="translate(788.000000, 613.000000)">
                <g id="octicon-rss" transform="translate(576.000000, 432.000000)">
                    <g id="icon-grid-copy-41"></g>
                    <path d="M19.5,31.5 L16.5,31.5 L16.5,28.5 C18.1640625,28.5 19.5,29.8359375 19.5,31.5 L19.5,31.5 Z M16.5,16.5 L16.5,18 C23.953125,18 30,24.046875 30,31.5 L31.5,31.5 C31.5,23.2265625 24.7734375,16.5 16.5,16.5 L16.5,16.5 Z M16.5,22.5 L16.5,24 C20.625,24 24,27.375 24,31.5 L25.5,31.5 C25.5,26.53125 21.46875,22.5 16.5,22.5 L16.5,22.5 Z" id="Shape" fill="#000000" sketch:type="MSShapeGroup"></path>
                </g>
            </g>
        </g>
    </g>
</svg>