<?xml version="1.0" encoding="UTF-8" standalone="no"?>
<svg width="23px" height="18px" viewBox="0 0 23 18" version="1.1" xmlns="http://www.w3.org/2000/svg" xmlns:xlink="http://www.w3.org/1999/xlink" xmlns:sketch="http://www.bohemiancoding.com/sketch/ns">
    <!-- Generator: Sketch 3.4.2 (15855) - http://www.bohemiancoding.com/sketch -->
    <title>octicon-unmute</title>
    <desc>Created with Sketch.</desc>
    <defs></defs>
    <g id="Symbols" stroke="none" stroke-width="1" fill="none" fill-rule="evenodd" sketch:type="MSPage">
        <g id="Octicons" sketch:type="MSArtboardGroup" transform="translate(-801.000000, -1204.000000)">
            <g id="icons" sketch:type="MSLayerGroup" transform="translate(788.000000, 613.000000)">
                <g id="octicon-unmute" transform="translate(0.000000, 576.000000)">
                    <g id="icon-grid-copy-15"></g>
                    <path d="M29.5,23.75 C29.5,25.3936464 28.7627119,26.8964088 27.5932203,28 L26.5,26.9903315 C27.3898305,26.1450276 27.9491525,25.0179558 27.9491525,23.75 C27.9491525,22.4820442 27.3898305,21.3314917 26.5,20.5096685 L27.5932203,19.5 C28.7627119,20.5801105 29.5,22.0828729 29.5,23.75 L29.5,23.75 Z M23.078125,15.3335181 L17.5,20.9690992 L14.5,20.9690992 C13.6796875,20.9690992 13,21.6557877 13,22.4845496 L13,25.5154504 C13,26.3442123 13.6796875,27.0309008 14.5,27.0309008 L17.5,27.0309008 L23.078125,32.6664819 C23.78125,33.3768493 25,32.8795921 25,31.8613989 L25,16.1386011 C25,15.1204079 23.78125,14.6231507 23.078125,15.3335181 L23.078125,15.3335181 Z M32.0025907,15.5 L31,16.5096685 C32.9119171,18.4350829 34.0777202,21.0649171 34.0777202,24 C34.0777202,26.9116022 32.9119171,29.5649171 31,31.4903315 L32.0025907,32.5 C34.1709845,30.3162983 35.5,27.3107735 35.5,24 C35.5,20.6657459 34.1709845,17.660221 32.0025907,15.5 L32.0025907,15.5 Z M29.9871795,17.5 L29,18.5294659 C30.3237179,19.941989 31.1314103,21.8812155 31.1314103,24.0119705 C31.1314103,26.1427256 30.3237179,28.0819521 29,29.4705341 L29.9871795,30.5 C31.5352564,28.8480663 32.5,26.5497238 32.5,24.0119705 C32.5,21.4742173 31.5352564,19.1758748 29.9871795,17.5 L29.9871795,17.5 Z" id="Shape" fill="#000000" sketch:type="MSShapeGroup"></path>
                </g>
            </g>
        </g>
    </g>
</svg>