<?xml version="1.0" encoding="UTF-8" standalone="no"?>
<svg width="22px" height="24px" viewBox="0 0 22 24" version="1.1" xmlns="http://www.w3.org/2000/svg" xmlns:xlink="http://www.w3.org/1999/xlink" xmlns:sketch="http://www.bohemiancoding.com/sketch/ns">
    <!-- Generator: Sketch 3.4.2 (15855) - http://www.bohemiancoding.com/sketch -->
    <title>octicon-git-compare</title>
    <desc>Created with Sketch.</desc>
    <defs></defs>
    <g id="Symbols" stroke="none" stroke-width="1" fill="none" fill-rule="evenodd" sketch:type="MSPage">
        <g id="Octicons" sketch:type="MSArtboardGroup" transform="translate(-993.000000, -865.000000)">
            <g id="icons" sketch:type="MSLayerGroup" transform="translate(788.000000, 613.000000)">
                <g id="octicon-git-compare" transform="translate(192.000000, 240.000000)">
                    <g id="icon-grid-copy-125"></g>
                    <path d="M21,30 L19.5,30 C19.1015625,29.9765625 18.7734375,29.8359375 18.46875,29.53125 C18.1640625,29.2265625 18.0234375,28.8984375 18,28.5 L18,19.078125 C18.890625,18.5625 19.5,17.6015625 19.5,16.5 C19.5,14.8359375 18.1640625,13.5 16.5,13.5 C14.8359375,13.5 13.5,14.8359375 13.5,16.5 C13.5,17.6015625 14.109375,18.5625 15,19.078125 L15,28.5 C15.046875,29.671875 15.515625,30.703125 16.40625,31.59375 C17.296875,32.484375 18.328125,32.953125 19.5,33 L21,33 L21,36 L25.5,31.5 L21,27 L21,30 L21,30 Z M16.25,14.5 C17.2045455,14.5 18,15.2954545 18,16.25 C18,17.2045455 17.2045455,18 16.25,18 C15.2954545,18 14.5,17.2045455 14.5,16.25 C14.5,15.2954545 15.2954545,14.5 16.25,14.5 L16.25,14.5 Z M33,28.921875 L33,19.5 C32.953125,18.328125 32.484375,17.296875 31.59375,16.40625 C30.703125,15.515625 29.671875,15.046875 28.5,15 L27,15 L27,12 L22.5,16.5 L27,21 L27,18 L28.5,18 C28.8984375,18.0234375 29.2265625,18.1640625 29.53125,18.46875 C29.8359375,18.7734375 29.9765625,19.1015625 30,19.5 L30,28.921875 C29.109375,29.4375 28.5,30.3984375 28.5,31.5 C28.5,33.1640625 29.8359375,34.5 31.5,34.5 C33.1640625,34.5 34.5,33.1640625 34.5,31.5 C34.5,30.3984375 33.890625,29.4375 33,28.921875 L33,28.921875 Z M31.25,33 C30.2954545,33 29.5,32.2045455 29.5,31.25 C29.5,30.2954545 30.2954545,29.5 31.25,29.5 C32.2045455,29.5 33,30.2954545 33,31.25 C33,32.2045455 32.2045455,33 31.25,33 L31.25,33 Z" id="Shape" fill="#000000" sketch:type="MSShapeGroup"></path>
                </g>
            </g>
        </g>
    </g>
</svg>