<?xml version="1.0" encoding="UTF-8" standalone="no"?>
<svg width="18px" height="20px" viewBox="0 0 18 20" version="1.1" xmlns="http://www.w3.org/2000/svg" xmlns:xlink="http://www.w3.org/1999/xlink" xmlns:sketch="http://www.bohemiancoding.com/sketch/ns">
    <!-- Generator: Sketch 3.4.2 (15855) - http://www.bohemiancoding.com/sketch -->
    <title>octicon-gist</title>
    <desc>Created with Sketch.</desc>
    <defs></defs>
    <g id="Symbols" stroke="none" stroke-width="1" fill="none" fill-rule="evenodd" sketch:type="MSPage">
        <g id="Octicons" sketch:type="MSArtboardGroup" transform="translate(-851.000000, -867.000000)">
            <g id="icons" sketch:type="MSLayerGroup" transform="translate(788.000000, 613.000000)">
                <g id="octicon-gist" transform="translate(48.000000, 240.000000)">
                    <g id="icon-grid-copy-108"></g>
                    <path d="M26.1538462,20.5 L30,24.25 L26.1538462,28 L25,26.875 L27.6923077,24.25 L25,21.625 L26.1538462,20.5 L26.1538462,20.5 Z M21.8461538,20.5 L18,24.25 L21.8461538,28 L23,26.875 L20.3076923,24.25 L23,21.625 L21.8461538,20.5 L21.8461538,20.5 Z M15,32.5 L15,16 C15,15.1796875 15.6796875,14.5 16.5,14.5 L31.5,14.5 C32.3203125,14.5 33,15.1796875 33,16 L33,32.5 C33,33.3203125 32.3203125,34 31.5,34 L16.5,34 C15.6796875,34 15,33.3203125 15,32.5 L15,32.5 Z M16.5,32.5 L31.5,32.5 L31.5,16 L16.5,16 L16.5,32.5 L16.5,32.5 Z" id="Shape" fill="#000000" sketch:type="MSShapeGroup"></path>
                </g>
            </g>
        </g>
    </g>
</svg>