<?xml version="1.0" encoding="UTF-8" standalone="no"?>
<svg width="24px" height="22px" viewBox="0 0 24 22" version="1.1" xmlns="http://www.w3.org/2000/svg" xmlns:xlink="http://www.w3.org/1999/xlink" xmlns:sketch="http://www.bohemiancoding.com/sketch/ns">
    <!-- Generator: Sketch 3.4.2 (15855) - http://www.bohemiancoding.com/sketch -->
    <title>octicon-cloud-download</title>
    <desc>Created with Sketch.</desc>
    <defs></defs>
    <g id="Symbols" stroke="none" stroke-width="1" fill="none" fill-rule="evenodd" sketch:type="MSPage">
        <g id="Octicons" sketch:type="MSArtboardGroup" transform="translate(-896.000000, -722.000000)">
            <g id="icons" sketch:type="MSLayerGroup" transform="translate(788.000000, 613.000000)">
                <g id="octicon-cloud-download" transform="translate(96.000000, 96.000000)">
                    <g id="icon-grid-copy-143"></g>
                    <path d="M25.5,30 L28.5,30 L24,34.5 L19.5,30 L22.5,30 L22.5,22.5 L25.5,22.5 L25.5,30 L25.5,30 Z M30,18 C30,17.34375 28.640625,13.5 23.25,13.5 C19.6171875,13.5 16.5,16.3828125 16.5,19.5 C13.5234375,19.5 12,21.7734375 12,24 C12,26.296875 13.5,28.5 16.5,28.5 L21,28.5 L21,26.5546875 L16.5,26.5546875 C14.0625,26.5546875 13.9453125,24.421875 13.9453125,24 C13.9453125,23.7421875 14.015625,21.4453125 16.5,21.4453125 L18.4453125,21.4453125 L18.4453125,19.5 C18.4453125,17.4140625 20.7890625,15.4453125 23.25,15.4453125 C27.0703125,15.4453125 27.9375,17.765625 28.0546875,18.140625 L28.0546875,19.9453125 L30,19.9453125 C31.21875,19.9453125 34.0546875,20.2734375 34.0546875,23.25 C34.0546875,26.390625 30.6796875,26.5546875 30,26.5546875 L27,26.5546875 L27,28.5 L30,28.5 C33.1171875,28.5 36,26.765625 36,23.25 C36,19.59375 33.1171875,18 30,18 L30,18 Z" id="Shape" fill="#000000" sketch:type="MSShapeGroup"></path>
                </g>
            </g>
        </g>
    </g>
</svg>