<?xml version="1.0" encoding="UTF-8" standalone="no"?>
<svg width="22px" height="22px" viewBox="0 0 22 22" version="1.1" xmlns="http://www.w3.org/2000/svg" xmlns:xlink="http://www.w3.org/1999/xlink" xmlns:sketch="http://www.bohemiancoding.com/sketch/ns">
    <!-- Generator: Sketch 3.4.2 (15855) - http://www.bohemiancoding.com/sketch -->
    <title>octicon-inbox</title>
    <desc>Created with Sketch.</desc>
    <defs></defs>
    <g id="Symbols" stroke="none" stroke-width="1" fill="none" fill-rule="evenodd" sketch:type="MSPage">
        <g id="Octicons" sketch:type="MSArtboardGroup" transform="translate(-849.000000, -914.000000)">
            <g id="icons" sketch:type="MSLayerGroup" transform="translate(788.000000, 613.000000)">
                <g id="octicon-inbox" transform="translate(48.000000, 288.000000)">
                    <g id="icon-grid-copy-97"></g>
                    <path d="M34.5,25.5 L32.8125,14.7890625 C32.6953125,14.0625 32.0625,13.5 31.3125,13.5 L16.6875,13.5 C15.9375,13.5 15.3046875,14.0625 15.1875,14.7890625 L13.5,25.5 L13.5,33 C13.5,33.8203125 14.1796875,34.5 15,34.5 L33,34.5 C33.8203125,34.5 34.5,33.8203125 34.5,33 L34.5,25.5 L34.5,25.5 Z M29.578125,26.3203125 L28.921875,27.65625 C28.6640625,28.171875 28.1484375,28.5 27.5625,28.5 L20.4140625,28.5 C19.8515625,28.5 19.3359375,28.171875 19.078125,27.6796875 L18.421875,26.3203125 C18.1640625,25.828125 17.6484375,25.5 17.0859375,25.5 L15,25.5 L16.5,15 L31.5,15 L33,25.5 L30.9375,25.5 C30.3515625,25.5 29.8359375,25.828125 29.578125,26.3203125 L29.578125,26.3203125 Z" id="Shape" fill="#000000" sketch:type="MSShapeGroup"></path>
                </g>
            </g>
        </g>
    </g>
</svg>