<?xml version="1.0" encoding="UTF-8" standalone="no"?>
<svg width="22px" height="22px" viewBox="0 0 22 22" version="1.1" xmlns="http://www.w3.org/2000/svg" xmlns:xlink="http://www.w3.org/1999/xlink" xmlns:sketch="http://www.bohemiancoding.com/sketch/ns">
    <!-- Generator: Sketch 3.4.2 (15855) - http://www.bohemiancoding.com/sketch -->
    <title>octicon-gear</title>
    <desc>Created with Sketch.</desc>
    <defs></defs>
    <g id="Symbols" stroke="none" stroke-width="1" fill="none" fill-rule="evenodd" sketch:type="MSPage">
        <g id="Octicons" sketch:type="MSArtboardGroup" transform="translate(-1329.000000, -818.000000)">
            <g id="icons" sketch:type="MSLayerGroup" transform="translate(788.000000, 613.000000)">
                <g id="octicon-gear" transform="translate(528.000000, 192.000000)">
                    <g id="icon-grid-copy-112"></g>
                    <path d="M34.5,25.1484375 L34.5,22.7578125 L31.59375,21.796875 L30.9140625,20.15625 L32.2265625,17.390625 L30.5390625,15.703125 L27.8203125,17.0625 L26.1796875,16.3828125 L25.1484375,13.5 L22.7578125,13.5 L21.8203125,16.40625 L20.15625,17.0859375 L17.390625,15.7734375 L15.703125,17.4609375 L17.0625,20.1796875 L16.3828125,21.8203125 L13.5,22.8515625 L13.5,25.2421875 L16.40625,26.203125 L17.0859375,27.84375 L15.7734375,30.609375 L17.4609375,32.296875 L20.1796875,30.9375 L21.8203125,31.6171875 L22.8515625,34.5 L25.2421875,34.5 L26.1796875,31.59375 L27.84375,30.9140625 L30.609375,32.2265625 L32.296875,30.5390625 L30.9140625,27.8203125 L31.6171875,26.1796875 L34.5,25.1484375 L34.5,25.1484375 Z M24,28.5 C21.515625,28.5 19.5,26.484375 19.5,24 C19.5,21.515625 21.515625,19.5 24,19.5 C26.484375,19.5 28.5,21.515625 28.5,24 C28.5,26.484375 26.484375,28.5 24,28.5 L24,28.5 Z" id="Shape" fill="#000000" sketch:type="MSShapeGroup"></path>
                </g>
            </g>
        </g>
    </g>
</svg>