<?xml version="1.0" encoding="UTF-8" standalone="no"?>
<svg width="20px" height="20px" viewBox="0 0 20 20" version="1.1" xmlns="http://www.w3.org/2000/svg" xmlns:xlink="http://www.w3.org/1999/xlink" xmlns:sketch="http://www.bohemiancoding.com/sketch/ns">
    <!-- Generator: Sketch 3.4.2 (15855) - http://www.bohemiancoding.com/sketch -->
    <title>octicon-mention</title>
    <desc>Created with Sketch.</desc>
    <defs></defs>
    <g id="Symbols" stroke="none" stroke-width="1" fill="none" fill-rule="evenodd" sketch:type="MSPage">
        <g id="Octicons" sketch:type="MSArtboardGroup" transform="translate(-1282.000000, -963.000000)">
            <g id="icons" sketch:type="MSLayerGroup" transform="translate(788.000000, 613.000000)">
                <g id="octicon-mention" transform="translate(480.000000, 336.000000)">
                    <g id="icon-grid-copy-67"></g>
                    <path d="M24.9380821,14.0736679 C19.5940037,13.4174805 14.7298067,17.217949 14.0736698,22.5622471 C13.4174859,27.9065688 17.217798,32.7709659 22.5618764,33.4271533 C24.2358248,33.6323598 25.9626663,33.4057561 27.5611769,32.7253358 L27.560802,32.7245859 C28.1327131,32.4818582 28.3994987,31.8214054 28.1567809,31.2495411 C27.9140164,30.6776299 27.2536376,30.4108333 26.6817734,30.653561 L26.68175,30.6534673 C25.4520615,31.1770064 24.1238048,31.3518397 22.836044,31.1940678 C18.7252164,30.6893011 15.8019174,26.9474463 16.3066399,22.8364495 C16.8113859,18.7254527 20.5530633,15.80201 24.6639144,16.3067768 C28.7747186,16.8115435 31.6980645,20.5533749 31.1933419,24.6643717 C31.0923599,25.4865804 30.6885022,25.9703484 29.7497375,25.9703484 C28.7537442,25.9703484 28.2498887,24.8948892 28.2498887,24.0668214 L28.2498887,21.1255673 C28.2498887,20.5042762 27.7462677,20.0006344 27.1250022,20.0006344 C26.8977048,20.0006344 26.6862964,20.0682944 26.5093846,20.1842094 C25.9074765,19.7094174 25.1633406,19.3904287 24.2983028,19.2842162 C21.8318484,18.9813515 19.5867857,20.7354734 19.2839569,23.2020293 C18.981128,25.6686086 20.7351543,27.9137402 23.2016087,28.2165815 C24.5462934,28.3816888 25.9251466,27.8719068 26.9013372,26.9714215 C27.4862548,27.6305384 28.3043051,28.0875423 29.2476866,28.203387 C31.3031121,28.4557704 33.1739391,26.9940373 33.4263355,24.9385272 C34.0824959,19.5942524 30.2821604,14.7298787 24.9380821,14.0736679 L24.9380821,14.0736679 Z M25.983008,24.0245895 C25.8315701,25.2578675 24.7090505,26.1349401 23.4757998,25.9834961 C22.2425726,25.8320754 21.3655595,24.7095096 21.5169739,23.4762082 C21.6683883,22.2429303 22.7909314,21.3658811 24.0241586,21.5173017 C25.2573858,21.6687458 26.1344224,22.7913116 25.983008,24.0245895 L25.983008,24.0245895 Z" id="Shape" fill="#000000" sketch:type="MSShapeGroup"></path>
                </g>
            </g>
        </g>
    </g>
</svg>