<?xml version="1.0" encoding="UTF-8" standalone="no"?>
<svg width="22px" height="18px" viewBox="0 0 22 18" version="1.1" xmlns="http://www.w3.org/2000/svg" xmlns:xlink="http://www.w3.org/1999/xlink" xmlns:sketch="http://www.bohemiancoding.com/sketch/ns">
    <!-- Generator: Sketch 3.4.2 (15855) - http://www.bohemiancoding.com/sketch -->
    <title>octicon-briefcase</title>
    <desc>Created with Sketch.</desc>
    <defs></defs>
    <g id="Symbols" stroke="none" stroke-width="1" fill="none" fill-rule="evenodd" sketch:type="MSPage">
        <g id="Octicons" sketch:type="MSArtboardGroup" transform="translate(-801.000000, -676.000000)">
            <g id="icons" sketch:type="MSLayerGroup" transform="translate(788.000000, 613.000000)">
                <g id="octicon-briefcase" transform="translate(0.000000, 48.000000)">
                    <g id="icon-grid-copy-158"></g>
                    <path d="M27,18 L27,16.5 C27,15.6796875 26.3203125,15 25.5,15 L22.5,15 C21.6796875,15 21,15.6796875 21,16.5 L21,18 L15,18 C14.1796875,18 13.5,18.6796875 13.5,19.5 L13.5,31.5 C13.5,32.3203125 14.1796875,33 15,33 L33,33 C33.8203125,33 34.5,32.3203125 34.5,31.5 L34.5,19.5 C34.5,18.6796875 33.8203125,18 33,18 L27,18 L27,18 Z M22.5,16.5 L25.5,16.5 L25.5,18 L22.5,18 L22.5,16.5 L22.5,16.5 Z M33,25.5 L25.5,25.5 L25.5,27 L22.5,27 L22.5,25.5 L15,25.5 L15,19.5 L16.5,19.5 L16.5,24 L31.5,24 L31.5,19.5 L33,19.5 L33,25.5 L33,25.5 Z" id="Shape" fill="#000000" sketch:type="MSShapeGroup"></path>
                </g>
            </g>
        </g>
    </g>
</svg>