<?xml version="1.0" encoding="UTF-8" standalone="no"?>
<svg width="23px" height="23px" viewBox="0 0 23 23" version="1.1" xmlns="http://www.w3.org/2000/svg" xmlns:xlink="http://www.w3.org/1999/xlink" xmlns:sketch="http://www.bohemiancoding.com/sketch/ns">
    <!-- Generator: Sketch 3.4.2 (15855) - http://www.bohemiancoding.com/sketch -->
    <title>octicon-dashboard</title>
    <desc>Created with Sketch.</desc>
    <defs></defs>
    <g id="Symbols" stroke="none" stroke-width="1" fill="none" fill-rule="evenodd" sketch:type="MSPage">
        <g id="Octicons" sketch:type="MSArtboardGroup" transform="translate(-1280.000000, -722.000000)">
            <g id="icons" sketch:type="MSLayerGroup" transform="translate(788.000000, 613.000000)">
                <g id="octicon-dashboard" transform="translate(480.000000, 96.000000)">
                    <g id="icon-grid-copy-129"></g>
                    <path d="M24.5,19 L23,19 L23,17.5 L24.5,17.5 L24.5,19 L24.5,19 Z M30.5,23.5 L29,23.5 L29,25 L30.5,25 L30.5,23.5 L30.5,23.5 Z M20,19 L18.5,19 L18.5,20.5 L20,20.5 L20,19 L20,19 Z M18.5,23.5 L17,23.5 L17,25 L18.5,25 L18.5,23.5 L18.5,23.5 Z M35,15.25 L34.25,14.5 L24.5,22 C24.40625,21.9765625 23,22 23,22 C22.1796875,22 21.5,22.6796875 21.5,23.5 L21.5,25 C21.5,25.8203125 22.1796875,26.5 23,26.5 L24.5,26.5 C25.3203125,26.5 26,25.8203125 26,25 L26,23.6171875 L35,15.25 L35,15.25 Z M32.609375,21.390625 C32.890625,22.3046875 33.0546875,23.265625 33.0546875,24.25 C33.0546875,29.3828125 28.8828125,33.5546875 23.75,33.5546875 C18.6171875,33.5546875 14.4453125,29.3828125 14.4453125,24.25 C14.4453125,19.1171875 18.6171875,14.9453125 23.75,14.9453125 C25.5546875,14.9453125 27.21875,15.4609375 28.6484375,16.3515625 L30.0546875,14.9453125 C28.2734375,13.7265625 26.09375,13 23.75,13 C17.5390625,13 12.5,18.0390625 12.5,24.25 C12.5,30.4609375 17.5390625,35.5 23.75,35.5 C29.9609375,35.5 35,30.4609375 35,24.25 C35,22.703125 34.6953125,21.2265625 34.109375,19.890625 L32.609375,21.390625 L32.609375,21.390625 Z" id="Shape" fill="#000000" sketch:type="MSShapeGroup"></path>
                </g>
            </g>
        </g>
    </g>
</svg>