<?xml version="1.0" encoding="UTF-8" standalone="no"?>
<svg width="18px" height="16px" viewBox="0 0 18 16" version="1.1" xmlns="http://www.w3.org/2000/svg" xmlns:xlink="http://www.w3.org/1999/xlink" xmlns:sketch="http://www.bohemiancoding.com/sketch/ns">
    <!-- Generator: Sketch 3.4.2 (15855) - http://www.bohemiancoding.com/sketch -->
    <title>octicon-list-unordered</title>
    <desc>Created with Sketch.</desc>
    <defs></defs>
    <g id="Symbols" stroke="none" stroke-width="1" fill="none" fill-rule="evenodd" sketch:type="MSPage">
        <g id="Octicons" sketch:type="MSArtboardGroup" transform="translate(-851.000000, -965.000000)">
            <g id="icons" sketch:type="MSLayerGroup" transform="translate(788.000000, 613.000000)">
                <g id="octicon-list-unordered" transform="translate(48.000000, 336.000000)">
                    <g id="icon-grid-copy-86"></g>
                    <path d="M15,25.5 L18,25.5 L18,22.5 L15,22.5 L15,25.5 L15,25.5 Z M15,19.5 L18,19.5 L18,16.5 L15,16.5 L15,19.5 L15,19.5 Z M15,31.5 L18,31.5 L18,28.5 L15,28.5 L15,31.5 L15,31.5 Z M21,25.5 L33,25.5 L33,22.5 L21,22.5 L21,25.5 L21,25.5 Z M21,19.5 L33,19.5 L33,16.5 L21,16.5 L21,19.5 L21,19.5 Z M21,31.5 L33,31.5 L33,28.5 L21,28.5 L21,31.5 L21,31.5 Z" id="Shape" fill="#000000" sketch:type="MSShapeGroup"></path>
                </g>
            </g>
        </g>
    </g>
</svg>