<?xml version="1.0" encoding="UTF-8" standalone="no"?>
<svg width="23px" height="20px" viewBox="0 0 23 20" version="1.1" xmlns="http://www.w3.org/2000/svg" xmlns:xlink="http://www.w3.org/1999/xlink" xmlns:sketch="http://www.bohemiancoding.com/sketch/ns">
    <!-- Generator: Sketch 3.4.2 (15855) - http://www.bohemiancoding.com/sketch -->
    <title>octicon-comment-discussion</title>
    <desc>Created with Sketch.</desc>
    <defs></defs>
    <g id="Symbols" stroke="none" stroke-width="1" fill="none" fill-rule="evenodd" sketch:type="MSPage">
        <g id="Octicons" sketch:type="MSArtboardGroup" transform="translate(-1089.000000, -723.000000)">
            <g id="icons" sketch:type="MSLayerGroup" transform="translate(788.000000, 613.000000)">
                <g id="octicon-comment-discussion" transform="translate(288.000000, 96.000000)">
                    <g id="icon-grid-copy-139"></g>
                    <path d="M19,25 C19,25.8203125 19.6796875,26.5 20.5,26.5 L26.5,26.5 L26.5,28 C26.5,28.8203125 25.8203125,29.5 25,29.5 L20.5,29.5 L16,34 L16,29.5 L14.5,29.5 C13.6796875,29.5 13,28.8203125 13,28 L13,20.5 C13,19.6796875 13.6796875,19 14.5,19 L19,19 L19,25 L19,25 Z M34,14.5 L22,14.5 C21.1796875,14.5 20.5,15.1796875 20.5,16 L20.5,23.5 C20.5,24.3203125 21.1796875,25 22,25 L28,25 L32.5,29.5 L32.5,25 L34,25 C34.8203125,25 35.5,24.3203125 35.5,23.5 L35.5,16 C35.5,15.1796875 34.8203125,14.5 34,14.5 L34,14.5 Z" id="Shape" fill="#000000" sketch:type="MSShapeGroup"></path>
                </g>
            </g>
        </g>
    </g>
</svg>