<?xml version="1.0" encoding="UTF-8" standalone="no"?>
<svg width="24px" height="24px" viewBox="0 0 24 24" version="1.1" xmlns="http://www.w3.org/2000/svg" xmlns:xlink="http://www.w3.org/1999/xlink" xmlns:sketch="http://www.bohemiancoding.com/sketch/ns">
    <!-- Generator: Sketch 3.4.2 (15855) - http://www.bohemiancoding.com/sketch -->
    <title>octicon-repo-clone</title>
    <desc>Created with Sketch.</desc>
    <defs></defs>
    <g id="Symbols" stroke="none" stroke-width="1" fill="none" fill-rule="evenodd" sketch:type="MSPage">
        <g id="Octicons" sketch:type="MSArtboardGroup" transform="translate(-1040.000000, -1057.000000)">
            <g id="icons" sketch:type="MSLayerGroup" transform="translate(788.000000, 613.000000)">
                <g id="octicon-repo-clone" transform="translate(240.000000, 432.000000)">
                    <g id="icon-grid-copy-50"></g>
                    <path d="M34.5,12 L25.5,12 L25.5,22.5 C25.5,23.3203125 26.1796875,24 27,24 L28.5,24 L28.5,25.5 L30,25.5 L30,24 L34.5,24 C35.3203125,24 36,23.3203125 36,22.5 L36,13.5 C36,12.6796875 35.3203125,12 34.5,12 L34.5,12 Z M28.5,22.5 L27,22.5 L27,21 L28.5,21 L28.5,22.5 L28.5,22.5 Z M34.5,22.5 L30,22.5 L30,21 L34.5,21 L34.5,22.5 L34.5,22.5 Z M34.5,19.5 L28.5,19.5 L28.5,13.5 L34.5,13.5 L34.5,19.5 L34.5,19.5 Z M18,19.5 L16.5,19.5 L16.5,18 L18,18 L18,19.5 L18,19.5 Z M18,16.5 L16.5,16.5 L16.5,15 L18,15 L18,16.5 L18,16.5 Z M15,13.5 L24,13.5 L24,12 L13.5,12 C12.6796875,12 12,12.6796875 12,13.5 L12,31.5 C12,32.3203125 12.6796875,33 13.5,33 L16.5,33 L16.5,36 L18.75,33.75 L21,36 L21,33 L28.5,33 C29.3203125,33 30,32.3203125 30,31.5 L30,27 L15,27 L15,13.5 L15,13.5 Z M28.5,28.5 L28.5,31.5 L21,31.5 L21,30 L16.5,30 L16.5,31.5 L13.5,31.5 L13.5,28.5 L28.5,28.5 L28.5,28.5 Z M16.5,24 L18,24 L18,25.5 L16.5,25.5 L16.5,24 L16.5,24 Z M18,22.5 L16.5,22.5 L16.5,21 L18,21 L18,22.5 L18,22.5 Z" id="Shape" fill="#000000" sketch:type="MSShapeGroup"></path>
                </g>
            </g>
        </g>
    </g>
</svg>