<?xml version="1.0" encoding="UTF-8" standalone="no"?>
<svg width="22px" height="12px" viewBox="0 0 22 12" version="1.1" xmlns="http://www.w3.org/2000/svg" xmlns:xlink="http://www.w3.org/1999/xlink" xmlns:sketch="http://www.bohemiancoding.com/sketch/ns">
    <!-- Generator: Sketch 3.4.2 (15855) - http://www.bohemiancoding.com/sketch -->
    <title>octicon-git-commit</title>
    <desc>Created with Sketch.</desc>
    <defs></defs>
    <g id="Symbols" stroke="none" stroke-width="1" fill="none" fill-rule="evenodd" sketch:type="MSPage">
        <g id="Octicons" sketch:type="MSArtboardGroup" transform="translate(-945.000000, -871.000000)">
            <g id="icons" sketch:type="MSLayerGroup" transform="translate(788.000000, 613.000000)">
                <g id="octicon-git-commit" transform="translate(144.000000, 240.000000)">
                    <g id="icon-grid-copy-109"></g>
                    <path d="M29.7890625,22.5 C29.109375,19.921875 26.7890625,18 24,18 C21.2109375,18 18.890625,19.921875 18.2109375,22.5 L13.5,22.5 L13.5,25.5 L18.2109375,25.5 C18.890625,28.078125 21.2109375,30 24,30 C26.7890625,30 29.109375,28.078125 29.7890625,25.5 L34.5,25.5 L34.5,22.5 L29.7890625,22.5 L29.7890625,22.5 Z M23.75,27 C21.9521277,27 20.5,25.5478723 20.5,23.75 C20.5,21.9521277 21.9521277,20.5 23.75,20.5 C25.5478723,20.5 27,21.9521277 27,23.75 C27,25.5478723 25.5478723,27 23.75,27 L23.75,27 Z" id="Shape" fill="#000000" sketch:type="MSShapeGroup"></path>
                </g>
            </g>
        </g>
    </g>
</svg>