<?xml version="1.0" encoding="UTF-8" standalone="no"?>
<svg width="22px" height="24px" viewBox="0 0 22 24" version="1.1" xmlns="http://www.w3.org/2000/svg" xmlns:xlink="http://www.w3.org/1999/xlink" xmlns:sketch="http://www.bohemiancoding.com/sketch/ns">
    <!-- Generator: Sketch 3.4.2 (15855) - http://www.bohemiancoding.com/sketch -->
    <title>octicon-organization</title>
    <desc>Created with Sketch.</desc>
    <defs></defs>
    <g id="Symbols" stroke="none" stroke-width="1" fill="none" fill-rule="evenodd" sketch:type="MSPage">
        <g id="Octicons" sketch:type="MSArtboardGroup" transform="translate(-993.000000, -1009.000000)">
            <g id="icons" sketch:type="MSLayerGroup" transform="translate(788.000000, 613.000000)">
                <g id="octicon-organization" transform="translate(192.000000, 384.000000)">
                    <g id="icon-grid-copy-53"></g>
                    <path d="M20.625,19.4296875 C21.4453125,20.390625 22.640625,21 24,21 C25.359375,21 26.5546875,20.390625 27.375,19.4296875 C27.890625,20.3671875 28.875,21 30,21 C31.6640625,21 33,19.6640625 33,18 C33,16.3359375 31.6640625,15 30,15 C29.390625,15 28.8515625,15.1875 28.3828125,15.4921875 C27.9140625,13.5 26.1328125,12 24,12 C21.8671875,12 20.0859375,13.5 19.6171875,15.4921875 C19.1484375,15.1875 18.609375,15 18,15 C16.3359375,15 15,16.3359375 15,18 C15,19.6640625 16.3359375,21 18,21 C19.125,21 20.109375,20.3671875 20.625,19.4296875 L20.625,19.4296875 Z M28.2058824,16.9318182 C28.503268,16.3863636 29.0751634,16 29.7385621,16 C30.6993464,16 31.5,16.7954545 31.5,17.75 C31.5,18.7045455 30.6993464,19.5 29.7385621,19.5 C28.7777778,19.5 28.0228758,18.7272727 28,17.7954545 C28.0915033,17.5227273 28.1601307,17.2272727 28.2058824,16.9318182 L28.2058824,16.9318182 Z M24,13.5 C25.6511628,13.5 27,14.8488372 27,16.5 C27,18.1511628 25.6511628,19.5 24,19.5 C22.3488372,19.5 21,18.1511628 21,16.5 C21,14.8488372 22.3488372,13.5 24,13.5 L24,13.5 Z M17.7614379,19.5 C16.8006536,19.5 16,18.7045455 16,17.75 C16,16.7954545 16.8006536,16 17.7614379,16 C18.4248366,16 18.996732,16.3863636 19.2941176,16.9318182 C19.3398693,17.2272727 19.4084967,17.5227273 19.5,17.7954545 C19.4771242,18.7272727 18.7222222,19.5 17.7614379,19.5 L17.7614379,19.5 Z M33,21 L15,21 C14.1796875,21 13.5,21.6796875 13.5,22.5 L13.5,27 C13.5,27.8203125 14.1796875,28.5 15,28.5 L15,31.5 C15,32.3203125 15.6796875,33 16.5,33 L18,33 C18.8203125,33 19.5,32.3203125 19.5,31.5 L19.5,30 L21,30 L21,34.5 C21,35.3203125 21.6796875,36 22.5,36 L25.5,36 C26.3203125,36 27,35.3203125 27,34.5 L27,30 L28.5,30 L28.5,31.5 C28.5,32.3203125 29.1796875,33 30,33 L31.5,33 C32.3203125,33 33,32.3203125 33,31.5 L33,28.5 C33.8203125,28.5 34.5,27.8203125 34.5,27 L34.5,22.5 C34.5,21.6796875 33.8203125,21 33,21 L33,21 Z M18,31.5 L16.5,31.5 L16.5,27 L15,27 L15,22.5 L18,22.5 L18,31.5 L18,31.5 Z M28.5,28.5 L27,28.5 L27,25.5 L25.5,25.5 L25.5,34.5 L22.5,34.5 L22.5,25.5 L21,25.5 L21,28.5 L19.5,28.5 L19.5,22.5 L28.5,22.5 L28.5,28.5 L28.5,28.5 Z M33,27 L31.5,27 L31.5,31.5 L30,31.5 L30,22.5 L33,22.5 L33,27 L33,27 Z" id="Shape" fill="#000000" sketch:type="MSShapeGroup"></path>
                </g>
            </g>
        </g>
    </g>
</svg>