<?xml version="1.0" encoding="UTF-8" standalone="no"?>
<svg width="24px" height="20px" viewBox="0 0 24 20" version="1.1" xmlns="http://www.w3.org/2000/svg" xmlns:xlink="http://www.w3.org/1999/xlink" xmlns:sketch="http://www.bohemiancoding.com/sketch/ns">
    <!-- Generator: Sketch 3.4.2 (15855) - http://www.bohemiancoding.com/sketch -->
    <title>octicon-octoface</title>
    <desc>Created with Sketch.</desc>
    <defs></defs>
    <g id="Symbols" stroke="none" stroke-width="1" fill="none" fill-rule="evenodd" sketch:type="MSPage">
        <g id="Octicons" sketch:type="MSArtboardGroup" transform="translate(-944.000000, -1011.000000)">
            <g id="icons" sketch:type="MSLayerGroup" transform="translate(788.000000, 613.000000)">
                <g id="octicon-octoface" transform="translate(144.000000, 384.000000)">
                    <g id="icon-grid-copy-63"></g>
                    <path d="M34.0502812,19.0086334 C34.2436406,18.5347506 34.8793828,16.6238678 33.8496094,14.0420865 C33.8496094,14.0420865 32.2705078,13.5425865 28.6962891,15.9851959 C27.1992188,15.5735631 25.5908203,15.5120397 24,15.5120397 C22.4084531,15.5120397 20.8022344,15.5735631 19.3007812,15.986649 C15.7272891,13.5425631 14.1496641,14.0420631 14.1496641,14.0420631 C13.1205937,16.6253209 13.7563594,18.5347506 13.9497188,19.0086334 C12.7382812,20.3181803 12,21.9895787 12,24.0396334 C12,31.7556803 16.9980469,33.5003209 23.9729063,33.5003209 C30.9506719,33.5003209 36,31.7556803 36,24.0396334 C36,21.9895787 35.2617188,20.3181803 34.0502812,19.0086334 L34.0502812,19.0086334 Z M23.9988716,32 C19.0288876,32 15,31.7694462 15,26.987631 C15,25.8450645 15.5656781,24.7791003 16.5361846,23.898513 C18.1524414,22.4283616 20.8919909,23.2053806 23.9988951,23.2053806 C27.1079855,23.2053806 29.8438676,22.4283616 31.4616056,23.8970422 C32.4328173,24.7791003 33,25.8421461 33,26.9861602 C32.999953,31.7694462 28.9681268,32 23.9988716,32 L23.9988716,32 Z M20.2510701,24.5 C19.2840949,24.5 18.5,25.7290635 18.5,27.2485077 C18.5,28.7679519 19.2841177,30 20.2510701,30 C21.2159051,30 22,28.7679037 22,27.2485077 C22,25.7291116 21.2159051,24.5 20.2510701,24.5 L20.2510701,24.5 Z M27.7507164,24.5 C26.7856874,24.5 26,25.7290688 26,27.2484956 C26,28.7679224 26.7856874,30 27.7507164,30 C28.7157454,30 29.499998,28.7678983 29.499998,27.2484956 C29.5014328,25.7290688 28.7171574,24.5 27.7507164,24.5 L27.7507164,24.5 Z" id="Shape" fill="#000000" sketch:type="MSShapeGroup"></path>
                </g>
            </g>
        </g>
    </g>
</svg>