<?xml version="1.0" encoding="UTF-8" standalone="no"?>
<svg width="22px" height="22px" viewBox="0 0 22 22" version="1.1" xmlns="http://www.w3.org/2000/svg" xmlns:xlink="http://www.w3.org/1999/xlink" xmlns:sketch="http://www.bohemiancoding.com/sketch/ns">
    <!-- Generator: Sketch 3.4.2 (15855) - http://www.bohemiancoding.com/sketch -->
    <title>octicon-issue-reopened</title>
    <desc>Created with Sketch.</desc>
    <defs></defs>
    <g id="Symbols" stroke="none" stroke-width="1" fill="none" fill-rule="evenodd" sketch:type="MSPage">
        <g id="Octicons" sketch:type="MSArtboardGroup" transform="translate(-1041.000000, -914.000000)">
            <g id="icons" sketch:type="MSLayerGroup" transform="translate(788.000000, 613.000000)">
                <g id="octicon-issue-reopened" transform="translate(240.000000, 288.000000)">
                    <g id="icon-grid-copy-83"></g>
                    <path d="M25.5,25.5 L22.5,25.5 L22.5,18 L25.5,18 L25.5,25.5 L25.5,25.5 Z M22.5,30 L25.5,30 L25.5,27 L22.5,27 L22.5,30 L22.5,30 Z M31.9921875,27 L28.5,27 L30.75,29.25 C29.1796875,31.2421875 26.7421875,32.5546875 24,32.5546875 C19.2890625,32.5546875 15.4453125,28.7109375 15.4453125,24 C15.4453125,23.484375 15.4921875,22.9921875 15.5859375,22.5 L13.6171875,22.5 C13.546875,22.9921875 13.5,23.484375 13.5,24 C13.5,29.7890625 18.2109375,34.5 24,34.5 C27.28125,34.5 30.1875,32.9765625 32.109375,30.609375 L34.5,33 L34.5,27 L31.9921875,27 L31.9921875,27 Z M16.0078125,21 L19.5,21 L17.25,18.75 C18.8203125,16.7578125 21.2578125,15.4453125 24,15.4453125 C28.7109375,15.4453125 32.5546875,19.2890625 32.5546875,24 C32.5546875,24.515625 32.5078125,25.0078125 32.4140625,25.5 L34.3828125,25.5 C34.453125,25.0078125 34.5,24.515625 34.5,24 C34.5,18.2109375 29.7890625,13.5 24,13.5 C20.71875,13.5 17.8125,15.0234375 15.890625,17.390625 L13.5,15 L13.5,21 L16.0078125,21 L16.0078125,21 Z" id="Shape" fill="#000000" sketch:type="MSShapeGroup"></path>
                </g>
            </g>
        </g>
    </g>
</svg>