<?xml version="1.0" encoding="UTF-8" standalone="no"?>
<svg width="20px" height="24px" viewBox="0 0 20 24" version="1.1" xmlns="http://www.w3.org/2000/svg" xmlns:xlink="http://www.w3.org/1999/xlink" xmlns:sketch="http://www.bohemiancoding.com/sketch/ns">
    <!-- Generator: Sketch 3.4.2 (15855) - http://www.bohemiancoding.com/sketch -->
    <title>octicon-milestone</title>
    <desc>Created with Sketch.</desc>
    <defs></defs>
    <g id="Symbols" stroke="none" stroke-width="1" fill="none" fill-rule="evenodd" sketch:type="MSPage">
        <g id="Octicons" sketch:type="MSArtboardGroup" transform="translate(-1330.000000, -961.000000)">
            <g id="icons" sketch:type="MSLayerGroup" transform="translate(788.000000, 613.000000)">
                <g id="octicon-milestone" transform="translate(528.000000, 336.000000)">
                    <g id="icon-grid-copy-73"></g>
                    <path d="M24.5,15 L21.5,15 L21.5,12 L24.5,12 L24.5,15 L24.5,15 Z M30.5,22.5 L15.5,22.5 C14.6796875,22.5 14,21.8203125 14,21 L14,18 C14,17.1796875 14.6796875,16.5 15.5,16.5 L30.5,16.5 L33.5,19.5 L30.5,22.5 L30.5,22.5 Z M24.5,18 L21.5,18 L21.5,21 L24.5,21 L24.5,18 L24.5,18 Z M21.5,36 L24.5,36 L24.5,24 L21.5,24 L21.5,36 L21.5,36 Z" id="Shape" fill="#000000" sketch:type="MSShapeGroup"></path>
                </g>
            </g>
        </g>
    </g>
</svg>