<?xml version="1.0" encoding="UTF-8" standalone="no"?>
<svg width="22px" height="22px" viewBox="0 0 22 22" version="1.1" xmlns="http://www.w3.org/2000/svg" xmlns:xlink="http://www.w3.org/1999/xlink" xmlns:sketch="http://www.bohemiancoding.com/sketch/ns">
    <!-- Generator: Sketch 3.4.2 (15855) - http://www.bohemiancoding.com/sketch -->
    <title>octicon-clock</title>
    <desc>Created with Sketch.</desc>
    <defs></defs>
    <g id="Symbols" stroke="none" stroke-width="1" fill="none" fill-rule="evenodd" sketch:type="MSPage">
        <g id="Octicons" sketch:type="MSArtboardGroup" transform="translate(-849.000000, -722.000000)">
            <g id="icons" sketch:type="MSLayerGroup" transform="translate(788.000000, 613.000000)">
                <g id="octicon-clock" transform="translate(48.000000, 96.000000)">
                    <g id="icon-grid-copy-144"></g>
                    <path d="M25.5,24 L30,24 L30,27 L24,27 C23.1796875,27 22.5,26.3203125 22.5,25.5 L22.5,18 L25.5,18 L25.5,24 L25.5,24 Z M24,15.5 C28.6808219,15.5 32.5,19.3191781 32.5,24 C32.5,28.6808219 28.6808219,32.5 24,32.5 C19.3191781,32.5 15.5,28.6808219 15.5,24 C15.5,19.3191781 19.3191781,15.5 24,15.5 L24,15.5 Z M24,13.5 C18.2109375,13.5 13.5,18.2109375 13.5,24 C13.5,29.7890625 18.2109375,34.5 24,34.5 C29.7890625,34.5 34.5,29.7890625 34.5,24 C34.5,18.2109375 29.7890625,13.5 24,13.5 L24,13.5 Z" id="Shape" fill="#000000" sketch:type="MSShapeGroup"></path>
                </g>
            </g>
        </g>
    </g>
</svg>