<?xml version="1.0" encoding="UTF-8" standalone="no"?>
<svg width="16px" height="24px" viewBox="0 0 16 24" version="1.1" xmlns="http://www.w3.org/2000/svg" xmlns:xlink="http://www.w3.org/1999/xlink" xmlns:sketch="http://www.bohemiancoding.com/sketch/ns">
    <!-- Generator: Sketch 3.4.2 (15855) - http://www.bohemiancoding.com/sketch -->
    <title>octicon-device-mobile</title>
    <desc>Created with Sketch.</desc>
    <defs></defs>
    <g id="Symbols" stroke="none" stroke-width="1" fill="none" fill-rule="evenodd" sketch:type="MSPage">
        <g id="Octicons" sketch:type="MSArtboardGroup" transform="translate(-948.000000, -769.000000)">
            <g id="icons" sketch:type="MSLayerGroup" transform="translate(788.000000, 613.000000)">
                <g id="octicon-device-mobile" transform="translate(144.000000, 144.000000)">
                    <g id="icon-grid-copy-134"></g>
                    <path d="M30,12 L18,12 C17.1796875,12 16.5,12.6796875 16.5,13.5 L16.5,34.5 C16.5,35.3203125 17.1796875,36 18,36 L30,36 C30.8203125,36 31.5,35.3203125 31.5,34.5 L31.5,13.5 C31.5,12.6796875 30.8203125,12 30,12 L30,12 Z M24,35 C22.8915663,35 22,34.1084337 22,33 C22,31.8915663 22.8915663,31 24,31 C25.1084337,31 26,31.8915663 26,33 C26,34.1084337 25.1084337,35 24,35 L24,35 Z M30,30 L18,30 L18,15 L30,15 L30,30 L30,30 Z" id="Shape" fill="#000000" sketch:type="MSShapeGroup"></path>
                </g>
            </g>
        </g>
    </g>
</svg>