<?xml version="1.0" encoding="UTF-8" standalone="no"?>
<svg width="22px" height="22px" viewBox="0 0 22 22" version="1.1" xmlns="http://www.w3.org/2000/svg" xmlns:xlink="http://www.w3.org/1999/xlink" xmlns:sketch="http://www.bohemiancoding.com/sketch/ns">
    <!-- Generator: Sketch 3.4.2 (15855) - http://www.bohemiancoding.com/sketch -->
    <title>octicon-info</title>
    <desc>Created with Sketch.</desc>
    <defs></defs>
    <g id="Symbols" stroke="none" stroke-width="1" fill="none" fill-rule="evenodd" sketch:type="MSPage">
        <g id="Octicons" sketch:type="MSArtboardGroup" transform="translate(-897.000000, -914.000000)">
            <g id="icons" sketch:type="MSLayerGroup" transform="translate(788.000000, 613.000000)">
                <g id="octicon-info" transform="translate(96.000000, 288.000000)">
                    <g id="icon-grid-copy-96"></g>
                    <path d="M22.9285714,20.5511811 C22.6428571,20.2677165 22.5,19.9133858 22.5,19.488189 C22.5,19.0629921 22.6428571,18.7086614 22.9285714,18.4251969 C23.2142857,18.1417323 23.5714286,18 24,18 C24.4285714,18 24.7857143,18.1417323 25.0714286,18.4251969 C25.3571429,18.7086614 25.5,19.0629921 25.5,19.488189 C25.5,19.9133858 25.3571429,20.2677165 25.0714286,20.5511811 C24.7857143,20.8346457 24.4285714,21 24,21 C23.5714286,21 23.2142857,20.8346457 22.9285714,20.5511811 L22.9285714,20.5511811 Z M25.5,24 C25.4765625,23.625 25.3359375,23.2734375 25.03125,22.96875 C24.7265625,22.6875 24.3984375,22.5234375 24,22.5 L22.5,22.5 C22.1015625,22.5234375 21.7734375,22.6875 21.46875,22.96875 C21.1640625,23.2734375 21.0234375,23.625 21,24 L22.5,24 L22.5,28.5 C22.5234375,28.8984375 22.6640625,29.25 22.96875,29.53125 C23.2734375,29.8359375 23.6015625,30 24,30 L25.5,30 C25.8984375,30 26.2265625,29.8359375 26.53125,29.53125 C26.8359375,29.25 26.9765625,28.8984375 27,28.5 L25.5,28.5 L25.5,24 L25.5,24 Z M24,15.5 C19.3191781,15.5 15.5,19.3010974 15.5,23.9883402 C15.5,28.675583 19.3191781,32.5 24,32.5 C28.6808219,32.5 32.5,28.6989026 32.5,23.9883402 C32.5,19.2777778 28.6808219,15.5 24,15.5 L24,15.5 Z M24,13.5 C29.7890625,13.5 34.5,18.2109375 34.5,24 C34.5,29.7890625 29.7890625,34.5 24,34.5 C18.2109375,34.5 13.5,29.8125 13.5,24 C13.5,18.1875 18.2109375,13.5 24,13.5 L24,13.5 Z" id="Shape" fill="#000000" sketch:type="MSShapeGroup"></path>
                </g>
            </g>
        </g>
    </g>
</svg>