<?xml version="1.0" encoding="UTF-8" standalone="no"?>
<svg width="22px" height="16px" viewBox="0 0 22 16" version="1.1" xmlns="http://www.w3.org/2000/svg" xmlns:xlink="http://www.w3.org/1999/xlink" xmlns:sketch="http://www.bohemiancoding.com/sketch/ns">
    <!-- Generator: Sketch 3.4.2 (15855) - http://www.bohemiancoding.com/sketch -->
    <title>octicon-versions</title>
    <desc>Created with Sketch.</desc>
    <defs></defs>
    <g id="Symbols" stroke="none" stroke-width="1" fill="none" fill-rule="evenodd" sketch:type="MSPage">
        <g id="Octicons" sketch:type="MSArtboardGroup" transform="translate(-849.000000, -1205.000000)">
            <g id="icons" sketch:type="MSLayerGroup" transform="translate(788.000000, 613.000000)">
                <g id="octicon-versions" transform="translate(48.000000, 576.000000)">
                    <g id="icon-grid-copy-20"></g>
                    <path d="M33,16.5 L24,16.5 C23.1796875,16.5 22.5,17.1796875 22.5,18 L22.5,30 C22.5,30.8203125 23.1796875,31.5 24,31.5 L33,31.5 C33.8203125,31.5 34.5,30.8203125 34.5,30 L34.5,18 C34.5,17.1796875 33.8203125,16.5 33,16.5 L33,16.5 Z M31.5,28.5 L25.5,28.5 L25.5,19.5 L31.5,19.5 L31.5,28.5 L31.5,28.5 Z M19.5,18 L21,18 L21,19.5 L19.5,19.5 L19.5,28.5 L21,28.5 L21,30 L19.5,30 C18.6796875,30 18,29.3203125 18,28.5 L18,19.5 C18,18.6796875 18.6796875,18 19.5,18 L19.5,18 Z M15,19.5 L16.5,19.5 L16.5,21 L15,21 L15,27 L16.5,27 L16.5,28.5 L15,28.5 C14.1796875,28.5 13.5,27.8203125 13.5,27 L13.5,21 C13.5,20.1796875 14.1796875,19.5 15,19.5 L15,19.5 Z" id="Shape" fill="#000000" sketch:type="MSShapeGroup"></path>
                </g>
            </g>
        </g>
    </g>
</svg>