<?xml version="1.0" encoding="UTF-8" standalone="no"?>
<svg width="24px" height="22px" viewBox="0 0 24 22" version="1.1" xmlns="http://www.w3.org/2000/svg" xmlns:xlink="http://www.w3.org/1999/xlink" xmlns:sketch="http://www.bohemiancoding.com/sketch/ns">
    <!-- Generator: Sketch 3.4.2 (15855) - http://www.bohemiancoding.com/sketch -->
    <title>octicon-squirrel</title>
    <desc>Created with Sketch.</desc>
    <defs></defs>
    <g id="Symbols" stroke="none" stroke-width="1" fill="none" fill-rule="evenodd" sketch:type="MSPage">
        <g id="Octicons" sketch:type="MSArtboardGroup" transform="translate(-1232.000000, -1106.000000)">
            <g id="icons" sketch:type="MSLayerGroup" transform="translate(788.000000, 613.000000)">
                <g id="octicon-squirrel" transform="translate(432.000000, 480.000000)">
                    <g id="icon-grid-copy-40"></g>
                    <path d="M29.531746,13.5 C26.235568,13.5 23.5634921,15.4628906 23.5634921,17.8798828 C23.5634921,20.7832031 24.3095238,22.4296875 23.5634921,27 C23.5634921,20.25 19.437004,17.4894609 17.5952381,17.4894609 C17.67138,16.7354766 16.8735689,16.5 16.8735689,16.5 C16.8735689,16.5 16.5471801,16.6669687 16.4223596,17.0058516 C16.0206448,16.5358594 15.5794836,16.5947578 15.5794836,16.5947578 L15.3815288,17.4638438 C15.3815288,17.4638438 12.6528011,18.421875 12.6157326,22.2988125 C12.9325397,22.8046875 14.921437,23.2055156 16.3336751,22.9480781 C17.6662044,23.0173594 17.3359454,24.1351406 17.0375794,24.4350938 C15.7787207,25.7006719 14.6111111,24 13.1190476,24 C11.6269841,24 11.6269841,25.5 13.1190476,25.5 C14.6111111,25.5 14.6111111,27 17.5952381,27 C12.9791667,28.8046875 17.5952381,33 17.5952381,33 L16.1031746,33 C14.6111111,33 14.6111111,34.5 14.6111111,34.5 L23.5634921,34.5 C28.0396825,34.5 31.0238095,33 31.0238095,29.2926094 C31.0238095,28.0190156 30.3780491,26.6059922 29.531746,25.4903906 C27.877817,23.3101641 29.8686959,21.4789219 31.0238095,22.5 C32.1789231,23.5210781 35.5,24 35.5,19.5 C35.5,16.1862891 32.8279241,13.5 29.531746,13.5 L29.531746,13.5 Z M15.25,21 C14.8357656,21 14.5,20.6642109 14.5,20.25 C14.5,19.8357656 14.8357656,19.5 15.25,19.5 C15.6642109,19.5 16,19.8357656 16,20.25 C16,20.6642109 15.6642109,21 15.25,21 L15.25,21 Z" id="Shape" fill="#000000" sketch:type="MSShapeGroup"></path>
                </g>
            </g>
        </g>
    </g>
</svg>