<?xml version="1.0" encoding="UTF-8" standalone="no"?>
<svg width="24px" height="16px" viewBox="0 0 24 16" version="1.1" xmlns="http://www.w3.org/2000/svg" xmlns:xlink="http://www.w3.org/1999/xlink" xmlns:sketch="http://www.bohemiancoding.com/sketch/ns">
    <!-- Generator: Sketch 3.4.2 (15855) - http://www.bohemiancoding.com/sketch -->
    <title>octicon-mortar-board</title>
    <desc>Created with Sketch.</desc>
    <defs></defs>
    <g id="Symbols" stroke="none" stroke-width="1" fill="none" fill-rule="evenodd" sketch:type="MSPage">
        <g id="Octicons" sketch:type="MSArtboardGroup" transform="translate(-800.000000, -1013.000000)">
            <g id="icons" sketch:type="MSLayerGroup" transform="translate(788.000000, 613.000000)">
                <g id="octicon-mortar-board" transform="translate(0.000000, 384.000000)">
                    <g id="icon-grid-copy-71"></g>
                    <path d="M23.8128596,26.1905348 L18.135521,24.3709828 C12.2055988,12.1129485 18.135521,26.6693643 18.135521,28.2016186 C18.135521,29.7338729 20.8003942,30.5 24.0677605,30.5 C27.3351268,30.5 30,29.7338729 30,28.2016186 L30,24.3709828 L24.3226614,26.1905348 C24.1604517,26.2384177 23.9750693,26.2384177 23.7896868,26.1905348 L23.8128596,26.1905348 L23.8128596,26.1905348 Z M24.164464,16.5177752 C24.0704846,16.4940749 23.9530103,16.4940749 23.8590308,16.5177752 L12.3700441,20.1202217 C11.876652,20.2861239 11.876652,20.9734327 12.3700441,21.1393349 L14.9779736,21.9688456 L14.9779736,24.6469801 C14.5315712,24.9076835 14.226138,25.4053899 14.226138,25.9504969 C14.226138,26.2349006 14.2966226,26.495604 14.4375918,26.7089067 C14.3201175,26.9222095 14.226138,27.1829128 14.226138,27.4673165 L14.226138,31.377867 C14.226138,32.2073777 17.2334802,32.2073777 17.2334802,31.377867 L17.2334802,27.4673165 C17.2334802,27.1829128 17.1629956,26.9222095 17.0220264,26.7089067 C17.1395007,26.495604 17.2334802,26.2349006 17.2334802,25.9504969 C17.2334802,25.3816896 16.928047,24.9076835 16.4816446,24.6469801 L16.4816446,22.4428517 L23.835536,24.7654817 C23.9295154,24.789182 24.0469897,24.789182 24.1409692,24.7654817 L35.6299559,21.1630352 C36.123348,20.997133 36.123348,20.3098242 35.6299559,20.143922 L24.164464,16.5177752 L24.164464,16.5177752 Z M24,21.5 C23.1796875,21.5 22.5,21.171875 22.5,20.75 C22.5,20.328125 23.1796875,20 24,20 C24.8203125,20 25.5,20.328125 25.5,20.75 C25.5,21.171875 24.8203125,21.5 24,21.5 L24,21.5 Z" id="Shape" fill="#000000" sketch:type="MSShapeGroup"></path>
                </g>
            </g>
        </g>
    </g>
</svg>