<?xml version="1.0" encoding="UTF-8" standalone="no"?>
<svg width="24px" height="23px" viewBox="0 0 24 23" version="1.1" xmlns="http://www.w3.org/2000/svg" xmlns:xlink="http://www.w3.org/1999/xlink" xmlns:sketch="http://www.bohemiancoding.com/sketch/ns">
    <!-- Generator: Sketch 3.4.2 (15855) - http://www.bohemiancoding.com/sketch -->
    <title>octicon-graph</title>
    <desc>Created with Sketch.</desc>
    <defs></defs>
    <g id="Symbols" stroke="none" stroke-width="1" fill="none" fill-rule="evenodd" sketch:type="MSPage">
        <g id="Octicons" sketch:type="MSArtboardGroup" transform="translate(-1184.000000, -866.000000)">
            <g id="icons" sketch:type="MSLayerGroup" transform="translate(788.000000, 613.000000)">
                <g id="octicon-graph" transform="translate(384.000000, 240.000000)">
                    <g id="icon-grid-copy-93"></g>
                    <path d="M36,34 L36,35.5 L12,35.5 L12,13 L13.5,13 L13.5,34 L36,34 L36,34 Z M19.5,32.5 L16.5,32.5 L16.5,25 L19.5,25 L19.5,32.5 L19.5,32.5 Z M25.5,32.5 L22.5,32.5 L22.5,17.5 L25.5,17.5 L25.5,32.5 L25.5,32.5 Z M31.5,32.5 L28.5,32.5 L28.5,22 L31.5,22 L31.5,32.5 L31.5,32.5 Z" id="Shape" fill="#000000" sketch:type="MSShapeGroup"></path>
                </g>
            </g>
        </g>
    </g>
</svg>