<?xml version="1.0" encoding="UTF-8" standalone="no"?>
<svg width="22px" height="22px" viewBox="0 0 22 22" version="1.1" xmlns="http://www.w3.org/2000/svg" xmlns:xlink="http://www.w3.org/1999/xlink" xmlns:sketch="http://www.bohemiancoding.com/sketch/ns">
    <!-- Generator: Sketch 3.4.2 (15855) - http://www.bohemiancoding.com/sketch -->
    <title>octicon-law</title>
    <desc>Created with Sketch.</desc>
    <defs></defs>
    <g id="Symbols" stroke="none" stroke-width="1" fill="none" fill-rule="evenodd" sketch:type="MSPage">
        <g id="Octicons" sketch:type="MSArtboardGroup" transform="translate(-1233.000000, -914.000000)">
            <g id="icons" sketch:type="MSLayerGroup" transform="translate(788.000000, 613.000000)">
                <g id="octicon-law" transform="translate(432.000000, 288.000000)">
                    <g id="icon-grid-copy-80"></g>
                    <path d="M24.25,18 C23.0078125,18 22,16.9921875 22,15.75 C22,14.5078125 23.0078125,13.5 24.25,13.5 C25.4921875,13.5 26.5,14.5078125 26.5,15.75 C26.5,16.9921875 25.4921875,18 24.25,18 L24.25,18 Z M34.5,27 C34.5,28.6640625 33.1640625,30 31.5,30 L30,30 C28.3359375,30 27,28.6640625 27,27 L30,21 L28.5,21 C27.6796875,21 27,20.3203125 27,19.5 L25.5,19.5 L25.5,31.5 C26.1328125,31.5 27,32.1796875 27,33 L28.5,33 C29.1328125,33 30,33.6796875 30,34.5 L18,34.5 C18,33.6796875 18.8671875,33 19.5,33 L21,33 C21,32.1796875 21.8671875,31.5 22.5,31.5 L22.546875,31.5 L22.5,19.5 L21,19.5 C21,20.3203125 20.3203125,21 19.5,21 L18,21 L21,27 C21,28.6640625 19.6640625,30 18,30 L16.5,30 C14.8359375,30 13.5,28.6640625 13.5,27 L16.5,21 L15,21 L15,19.5 L19.5,19.5 C19.5,18.6796875 20.1796875,18 21,18 L27,18 C27.8203125,18 28.5,18.6796875 28.5,19.5 L33,19.5 L33,21 L31.5,21 L34.5,27 L34.5,27 Z M17.25,22.5 L15,27 L19.5,27 L17.25,22.5 L17.25,22.5 Z M33,27 L30.75,22.5 L28.5,27 L33,27 L33,27 Z" id="Shape" fill="#000000" sketch:type="MSShapeGroup"></path>
                </g>
            </g>
        </g>
    </g>
</svg>