<?xml version="1.0" encoding="UTF-8" standalone="no"?>
<svg width="18px" height="10px" viewBox="0 0 18 10" version="1.1" xmlns="http://www.w3.org/2000/svg" xmlns:xlink="http://www.w3.org/1999/xlink" xmlns:sketch="http://www.bohemiancoding.com/sketch/ns">
    <!-- Generator: Sketch 3.4.2 (15855) - http://www.bohemiancoding.com/sketch -->
    <title>octicon-ellipsis</title>
    <desc>Created with Sketch.</desc>
    <defs></defs>
    <g id="Symbols" stroke="none" stroke-width="1" fill="none" fill-rule="evenodd" sketch:type="MSPage">
        <g id="Octicons" sketch:type="MSArtboardGroup" transform="translate(-1283.000000, -776.000000)">
            <g id="icons" sketch:type="MSLayerGroup" transform="translate(788.000000, 613.000000)">
                <g id="octicon-ellipsis" transform="translate(480.000000, 144.000000)">
                    <g id="icon-grid-copy-120"></g>
                    <path d="M31.5,19.5 L16.5,19.5 C15.6796875,19.5 15,20.1796875 15,21 L15,27 C15,27.8203125 15.6796875,28.5 16.5,28.5 L31.5,28.5 C32.3203125,28.5 33,27.8203125 33,27 L33,21 C33,20.1796875 32.3203125,19.5 31.5,19.5 L31.5,19.5 Z M21,25.5 L18,25.5 L18,22.5 L21,22.5 L21,25.5 L21,25.5 Z M25.5,25.5 L22.5,25.5 L22.5,22.5 L25.5,22.5 L25.5,25.5 L25.5,25.5 Z M30,25.5 L27,25.5 L27,22.5 L30,22.5 L30,25.5 L30,25.5 Z" id="Shape" fill="#000000" sketch:type="MSShapeGroup"></path>
                </g>
            </g>
        </g>
    </g>
</svg>