<?xml version="1.0" encoding="utf-8"?>
<!-- Generated by IcoMoon.io -->
<!DOCTYPE svg PUBLIC "-//W3C//DTD SVG 1.1//EN" "http://www.w3.org/Graphics/SVG/1.1/DTD/svg11.dtd">
<svg version="1.1" xmlns="http://www.w3.org/2000/svg" xmlns:xlink="http://www.w3.org/1999/xlink" width="24" height="24" viewBox="0 0 24 24">
<path fill="#40c4ff" d="M21.563 21.891l-5.063-11.391v-6h1.5v-1.5h-13.5v1.5h1.5v6l-5.063 11.391c-0.445 0.984 0.281 2.109 1.359 2.109h17.906c1.078 0 1.805-1.125 1.359-2.109zM5.625 15l1.875-4.5v-6h7.5v6l1.875 4.5h-11.25zM12 12h1.5v1.5h-1.5v-1.5zM10.5 10.5h-1.5v-1.5h1.5v1.5zM10.5 6h1.5v1.5h-1.5v-1.5zM10.5 1.5h-1.5v-1.5h1.5v1.5z"></path>
</svg>
