<?xml version="1.0" encoding="utf-8"?>
<!-- Generated by IcoMoon.io -->
<!DOCTYPE svg PUBLIC "-//W3C//DTD SVG 1.1//EN" "http://www.w3.org/Graphics/SVG/1.1/DTD/svg11.dtd">
<svg version="1.1" xmlns="http://www.w3.org/2000/svg" xmlns:xlink="http://www.w3.org/1999/xlink" width="21" height="24" viewBox="0 0 21 24">
<path fill="#40c4ff" d="M21 18v1.5h-21v-1.5l1.102-0.867c1.148-1.148 1.219-3.82 1.781-6.633 1.148-5.648 6.117-7.5 6.117-7.5 0-0.82 0.68-1.5 1.5-1.5s1.5 0.68 1.5 1.5c0 0 5.086 1.852 6.234 7.5 0.563 2.813 0.633 5.484 1.781 6.633l0.984 0.867zM10.5 24c1.664 0 3-1.336 3-3h-6c0 1.664 1.336 3 3 3z"></path>
</svg>
