<?xml version="1.0" encoding="utf-8"?>
<!-- Generated by IcoMoon.io -->
<!DOCTYPE svg PUBLIC "-//W3C//DTD SVG 1.1//EN" "http://www.w3.org/Graphics/SVG/1.1/DTD/svg11.dtd">
<svg version="1.1" xmlns="http://www.w3.org/2000/svg" xmlns:xlink="http://www.w3.org/1999/xlink" width="24" height="24" viewBox="0 0 24 24">
<path fill="#40c4ff" d="M3 7.5h6v1.5h-6v-1.5zM3 12h6v-1.5h-6v1.5zM3 15h6v-1.5h-6v1.5zM19.5 7.5h-6v1.5h6v-1.5zM19.5 10.5h-6v1.5h6v-1.5zM19.5 13.5h-6v1.5h6v-1.5zM22.5 4.5v13.5c0 0.82-0.68 1.5-1.5 1.5h-8.25l-1.5 1.5-1.5-1.5h-8.25c-0.82 0-1.5-0.68-1.5-1.5v-13.5c0-0.82 0.68-1.5 1.5-1.5h8.25l1.5 1.5 1.5-1.5h8.25c0.82 0 1.5 0.68 1.5 1.5zM10.5 5.25l-0.75-0.75h-8.25v13.5h9v-12.75zM21 4.5h-8.25l-0.75 0.75v12.75h9v-13.5z"></path>
</svg>
