<?xml version="1.0" encoding="utf-8"?>
<!-- Generated by IcoMoon.io -->
<!DOCTYPE svg PUBLIC "-//W3C//DTD SVG 1.1//EN" "http://www.w3.org/Graphics/SVG/1.1/DTD/svg11.dtd">
<svg version="1.1" xmlns="http://www.w3.org/2000/svg" xmlns:xlink="http://www.w3.org/1999/xlink" width="9" height="24" viewBox="0 0 9 24">
<path fill="#40c4ff" d="M0 21l4.5-3 4.5 3v-16.5c0-0.82-0.68-1.5-1.5-1.5h-6c-0.82 0-1.5 0.68-1.5 1.5v16.5zM1.688 7.406l2.063-0.023 0.633-1.945c0.070-0.211 0.164-0.211 0.234 0l0.633 1.945 2.063 0.023c0.211 0 0.258 0.070 0.094 0.211l-1.688 1.219 0.656 1.945c0.047 0.211-0.023 0.258-0.188 0.164l-1.688-1.219-1.688 1.219c-0.164 0.094-0.234 0.047-0.188-0.164l0.656-1.945-1.688-1.219c-0.164-0.141-0.117-0.211 0.094-0.211z"></path>
</svg>
