<?xml version="1.0" encoding="utf-8"?>
<!-- Generated by IcoMoon.io -->
<!DOCTYPE svg PUBLIC "-//W3C//DTD SVG 1.1//EN" "http://www.w3.org/Graphics/SVG/1.1/DTD/svg11.dtd">
<svg version="1.1" xmlns="http://www.w3.org/2000/svg" xmlns:xlink="http://www.w3.org/1999/xlink" width="24" height="24" viewBox="0 0 24 24">
<path fill="#40c4ff" d="M13.5 13.5h-1.5c0.82 0 1.5-0.68 1.5-1.5v-1.5c0-0.82-0.68-1.5-1.5-1.5h-1.5c-0.82 0-1.5 0.68-1.5 1.5v1.5c0 0.82 0.68 1.5 1.5 1.5h-1.5c-0.82 0-1.5 0.68-1.5 1.5v3h1.5v4.5c0 0.82 0.68 1.5 1.5 1.5h1.5c0.82 0 1.5-0.68 1.5-1.5v-4.5h1.5v-3c0-0.82-0.68-1.5-1.5-1.5zM10.5 10.5h1.5v1.5h-1.5v-1.5zM13.5 16.5h-1.5v6h-1.5v-6h-1.5v-1.5h4.5v1.5zM16.641 11.25c0-2.977-2.414-5.391-5.391-5.391s-5.391 2.414-5.391 5.391c0 0.422 0.047 0.82 0.141 1.219v2.977c-0.914-1.148-1.5-2.602-1.5-4.195 0-3.727 3.023-6.75 6.75-6.75s6.75 3.023 6.75 6.75c0 1.594-0.586 3.047-1.5 4.195v-2.977c0.094-0.398 0.141-0.797 0.141-1.219zM22.5 11.25c0 4.313-2.438 8.063-6 9.938v-1.57c2.789-1.734 4.641-4.828 4.641-8.367 0-5.461-4.43-9.891-9.891-9.891s-9.891 4.43-9.891 9.891c0 3.539 1.852 6.633 4.641 8.367v1.57c-3.563-1.875-6-5.625-6-9.938 0-6.211 5.039-11.25 11.25-11.25s11.25 5.039 11.25 11.25z"></path>
</svg>
