<?xml version="1.0" encoding="utf-8"?>
<!-- Generated by IcoMoon.io -->
<!DOCTYPE svg PUBLIC "-//W3C//DTD SVG 1.1//EN" "http://www.w3.org/Graphics/SVG/1.1/DTD/svg11.dtd">
<svg version="1.1" xmlns="http://www.w3.org/2000/svg" xmlns:xlink="http://www.w3.org/1999/xlink" width="21" height="24" viewBox="0 0 21 24">
<path fill="#40c4ff" d="M7.5 4.5h1.5v1.5h-1.5v-1.5zM4.5 4.5h1.5v1.5h-1.5v-1.5zM1.5 4.5h1.5v1.5h-1.5v-1.5zM19.5 19.5h-18v-12h18v12zM19.5 6h-9v-1.5h9v1.5zM21 4.5c0-0.829-0.671-1.5-1.5-1.5h-18c-0.829 0-1.5 0.671-1.5 1.5v15c0 0.829 0.671 1.5 1.5 1.5h18c0.829 0 1.5-0.671 1.5-1.5v-15z"></path>
</svg>
