<?xml version="1.0" encoding="utf-8"?>
<!-- Generated by IcoMoon.io -->
<!DOCTYPE svg PUBLIC "-//W3C//DTD SVG 1.1//EN" "http://www.w3.org/Graphics/SVG/1.1/DTD/svg11.dtd">
<svg version="1.1" xmlns="http://www.w3.org/2000/svg" xmlns:xlink="http://www.w3.org/1999/xlink" width="24" height="24" viewBox="0 0 24 24">
<path fill="#40c4ff" d="M16.5 15h4.5v-1.5h-4.5v-1.5l4.758-1.547-0.516-1.406-4.242 1.453v-1.5c0-0.82-0.68-1.5-1.5-1.5v-1.5c0-0.727-0.539-1.313-1.242-1.453l1.547-1.547h2.695v-1.5h-3.305l-3 3h-0.891l-3-3h-3.305v1.5h2.695l1.547 1.547c-0.703 0.141-1.242 0.727-1.242 1.453v1.5c-0.82 0-1.5 0.68-1.5 1.5v1.5l-4.242-1.453-0.516 1.406 4.758 1.547v1.5h-4.5v1.5h4.5v1.5l-4.758 1.547 0.516 1.406 4.242-1.453v1.5c0 0.82 0.68 1.5 1.5 1.5h1.5l1.5-1.5v-10.5h1.5v10.5l1.5 1.5h1.5c0.82 0 1.5-0.68 1.5-1.5v-1.5l4.242 1.453 0.516-1.406-4.758-1.547v-1.5zM13.5 7.5h-4.5v-1.5h4.5v1.5z"></path>
</svg>
