<?xml version="1.0" encoding="utf-8"?>
<!-- Generated by IcoMoon.io -->
<!DOCTYPE svg PUBLIC "-//W3C//DTD SVG 1.1//EN" "http://www.w3.org/Graphics/SVG/1.1/DTD/svg11.dtd">
<svg version="1.1" xmlns="http://www.w3.org/2000/svg" xmlns:xlink="http://www.w3.org/1999/xlink" width="21" height="24" viewBox="0 0 21 24">
<path fill="#40c4ff" d="M18 3h-1.5v2.25c0 0.422-0.328 0.75-0.75 0.75h-3c-0.422 0-0.75-0.328-0.75-0.75v-2.25h-4.5v2.25c0 0.422-0.328 0.75-0.75 0.75h-3c-0.422 0-0.75-0.328-0.75-0.75v-2.25h-1.5c-0.82 0-1.5 0.68-1.5 1.5v16.5c0 0.82 0.68 1.5 1.5 1.5h16.5c0.82 0 1.5-0.68 1.5-1.5v-16.5c0-0.82-0.68-1.5-1.5-1.5zM18 21h-16.5v-13.5h16.5v13.5zM6 4.5h-1.5v-3h1.5v3zM15 4.5h-1.5v-3h1.5v3zM7.5 10.5h-1.5v-1.5h1.5v1.5zM10.5 10.5h-1.5v-1.5h1.5v1.5zM13.5 10.5h-1.5v-1.5h1.5v1.5zM16.5 10.5h-1.5v-1.5h1.5v1.5zM4.5 13.5h-1.5v-1.5h1.5v1.5zM7.5 13.5h-1.5v-1.5h1.5v1.5zM10.5 13.5h-1.5v-1.5h1.5v1.5zM13.5 13.5h-1.5v-1.5h1.5v1.5zM16.5 13.5h-1.5v-1.5h1.5v1.5zM4.5 16.5h-1.5v-1.5h1.5v1.5zM7.5 16.5h-1.5v-1.5h1.5v1.5zM10.5 16.5h-1.5v-1.5h1.5v1.5zM13.5 16.5h-1.5v-1.5h1.5v1.5zM16.5 16.5h-1.5v-1.5h1.5v1.5zM4.5 19.5h-1.5v-1.5h1.5v1.5zM7.5 19.5h-1.5v-1.5h1.5v1.5zM10.5 19.5h-1.5v-1.5h1.5v1.5zM13.5 19.5h-1.5v-1.5h1.5v1.5z"></path>
</svg>
