<?xml version="1.0" encoding="utf-8"?>
<!-- Generated by IcoMoon.io -->
<!DOCTYPE svg PUBLIC "-//W3C//DTD SVG 1.1//EN" "http://www.w3.org/Graphics/SVG/1.1/DTD/svg11.dtd">
<svg version="1.1" xmlns="http://www.w3.org/2000/svg" xmlns:xlink="http://www.w3.org/1999/xlink" width="18" height="24" viewBox="0 0 18 24">
<path fill="#40c4ff" d="M4.875 15.609c0.023-0.492 0.234-0.984 0.586-1.313l1.5-1.406c0.375-0.352 0.82-0.516 1.289-0.516s0.961 0.188 1.336 0.539l0.914 0.938 3-3v-6.352c0-0.82-0.68-1.5-1.5-1.5h-10.5c-0.82 0-1.5 0.68-1.5 1.5v13.5c0 0.82 0.68 1.5 1.5 1.5h6.375l-2.461-2.531c-0.352-0.375-0.539-0.844-0.539-1.359zM4.5 4.5h7.5v1.5h-7.5v-1.5zM3 9h-1.5v-1.5h1.5v1.5zM3 6h-1.5v-1.5h1.5v1.5zM4.5 7.5h7.5v1.5h-7.5v-1.5zM17.25 12.75l-6.75 6.75-3.75-3.844 1.5-1.406 2.25 2.25 5.25-5.25 1.5 1.5z"></path>
</svg>
