<?xml version="1.0" encoding="utf-8"?>
<!-- Generated by IcoMoon.io -->
<!DOCTYPE svg PUBLIC "-//W3C//DTD SVG 1.1//EN" "http://www.w3.org/Graphics/SVG/1.1/DTD/svg11.dtd">
<svg version="1.1" xmlns="http://www.w3.org/2000/svg" xmlns:xlink="http://www.w3.org/1999/xlink" width="21" height="24" viewBox="0 0 21 24">
<path fill="#40c4ff" d="M4.5 7.5c0-0.82 0.68-1.5 1.5-1.5s1.5 0.68 1.5 1.5-0.68 1.5-1.5 1.5-1.5-0.68-1.5-1.5zM16.5 7.5c0-0.82-0.68-1.5-1.5-1.5s-1.5 0.68-1.5 1.5 0.68 1.5 1.5 1.5 1.5-0.68 1.5-1.5zM16.5 16.5c0-0.82-0.68-1.5-1.5-1.5s-1.5 0.68-1.5 1.5 0.68 1.5 1.5 1.5 1.5-0.68 1.5-1.5zM19.5 1.5h-12v3.258c0.539 0.281 0.961 0.703 1.242 1.242h3.516c0.633-1.172 1.992-1.922 3.516-1.57 1.125 0.281 2.039 1.195 2.297 2.32 0.469 2.063-1.078 3.891-3.070 3.891-1.195 0-2.227-0.656-2.742-1.641h-3.516c-0.633 1.195-1.992 1.922-3.516 1.547-1.102-0.258-2.016-1.172-2.273-2.273-0.375-1.523 0.352-2.883 1.547-3.516v-3.258h-3c-0.82 0-1.5 0.68-1.5 1.5v18c0 0.82 0.68 1.5 1.5 1.5l7.5-7.5h3.258c0.633-1.172 1.992-1.922 3.516-1.57 1.125 0.281 2.039 1.195 2.297 2.32 0.469 2.063-1.078 3.891-3.070 3.891-1.195 0-2.227-0.656-2.742-1.641h-1.758l-4.5 4.5h13.5c0.82 0 1.5-0.68 1.5-1.5v-18c0-0.82-0.68-1.5-1.5-1.5z"></path>
</svg>
