<?xml version="1.0" encoding="utf-8"?>
<!-- Generated by IcoMoon.io -->
<!DOCTYPE svg PUBLIC "-//W3C//DTD SVG 1.1//EN" "http://www.w3.org/Graphics/SVG/1.1/DTD/svg11.dtd">
<svg version="1.1" xmlns="http://www.w3.org/2000/svg" xmlns:xlink="http://www.w3.org/1999/xlink" width="21" height="24" viewBox="0 0 21 24">
<path fill="#40c4ff" d="M10.5 1.5c-5.789 0-10.5 4.711-10.5 10.5s4.711 10.5 10.5 10.5 10.5-4.711 10.5-10.5-4.711-10.5-10.5-10.5zM10.5 3.445c1.945 0 3.75 0.656 5.203 1.758l-12 12c-1.102-1.453-1.758-3.258-1.758-5.203 0-4.711 3.844-8.555 8.555-8.555zM10.5 20.555c-1.945 0-3.75-0.656-5.203-1.758l12-12c1.102 1.453 1.758 3.258 1.758 5.203 0 4.711-3.844 8.555-8.555 8.555z"></path>
</svg>
