<?xml version="1.0" encoding="utf-8"?>
<!-- Generated by IcoMoon.io -->
<!DOCTYPE svg PUBLIC "-//W3C//DTD SVG 1.1//EN" "http://www.w3.org/Graphics/SVG/1.1/DTD/svg11.dtd">
<svg version="1.1" xmlns="http://www.w3.org/2000/svg" xmlns:xlink="http://www.w3.org/1999/xlink" width="21" height="24" viewBox="0 0 21 24">
<path fill="#40c4ff" d="M3 18h6v1.5h-6v-1.5zM10.5 9h-7.5v1.5h7.5v-1.5zM13.5 13.5v-3l-4.5 4.5 4.5 4.5v-3h7.5v-3h-7.5zM6.75 12h-3.75v1.5h3.75v-1.5zM3 16.5h3.75v-1.5h-3.75v1.5zM16.5 18h1.5v3c-0.023 0.422-0.164 0.773-0.445 1.055s-0.633 0.422-1.055 0.445h-15c-0.82 0-1.5-0.68-1.5-1.5v-16.5c0-0.82 0.68-1.5 1.5-1.5h4.5c0-1.664 1.336-3 3-3s3 1.336 3 3h4.5c0.82 0 1.5 0.68 1.5 1.5v7.5h-1.5v-4.5h-15v13.5h15v-3zM3 6h12c0-0.82-0.68-1.5-1.5-1.5h-1.5c-0.82 0-1.5-0.68-1.5-1.5s-0.68-1.5-1.5-1.5-1.5 0.68-1.5 1.5-0.68 1.5-1.5 1.5h-1.5c-0.82 0-1.5 0.68-1.5 1.5z"></path>
</svg>
