<?xml version="1.0" encoding="utf-8"?>
<!-- Generated by IcoMoon.io -->
<!DOCTYPE svg PUBLIC "-//W3C//DTD SVG 1.1//EN" "http://www.w3.org/Graphics/SVG/1.1/DTD/svg11.dtd">
<svg version="1.1" xmlns="http://www.w3.org/2000/svg" xmlns:xlink="http://www.w3.org/1999/xlink" width="24" height="24" viewBox="0 0 24 24">
<path fill="#40c4ff" d="M13.5 19.5h3l-4.5 4.5-4.5-4.5h3v-7.5h3v7.5zM18 7.5c0-0.656-1.359-4.5-6.75-4.5-3.633 0-6.75 2.883-6.75 6-2.977 0-4.5 2.273-4.5 4.5 0 2.297 1.5 4.5 4.5 4.5 0.656 0 3.984 0 4.5 0v-1.945h-4.5c-2.438 0-2.555-2.133-2.555-2.555 0-0.258 0.070-2.555 2.555-2.555h1.945v-1.945c0-2.086 2.344-4.055 4.805-4.055 3.82 0 4.688 2.32 4.805 2.695v1.805h1.945c1.219 0 4.055 0.328 4.055 3.305 0 3.141-3.375 3.305-4.055 3.305h-3v1.945c0.563 0 2.977 0 3 0 3.117 0 6-1.734 6-5.25 0-3.656-2.883-5.25-6-5.25z"></path>
</svg>
