<?xml version="1.0" encoding="utf-8"?>
<!-- Generated by IcoMoon.io -->
<!DOCTYPE svg PUBLIC "-//W3C//DTD SVG 1.1//EN" "http://www.w3.org/Graphics/SVG/1.1/DTD/svg11.dtd">
<svg version="1.1" xmlns="http://www.w3.org/2000/svg" xmlns:xlink="http://www.w3.org/1999/xlink" width="24" height="24" viewBox="0 0 24 24">
<path fill="#40c4ff" d="M6 13.5c0 0.82 0.68 1.5 1.5 1.5h6v1.5c0 0.82-0.68 1.5-1.5 1.5h-4.5l-4.5 4.5v-4.5h-1.5c-0.82 0-1.5-0.68-1.5-1.5v-7.5c0-0.82 0.68-1.5 1.5-1.5h4.5v6zM21 3h-12c-0.82 0-1.5 0.68-1.5 1.5v7.5c0 0.82 0.68 1.5 1.5 1.5h6l4.5 4.5v-4.5h1.5c0.82 0 1.5-0.68 1.5-1.5v-7.5c0-0.82-0.68-1.5-1.5-1.5z"></path>
</svg>
