<?xml version="1.0" encoding="utf-8"?>
<!-- Generated by IcoMoon.io -->
<!DOCTYPE svg PUBLIC "-//W3C//DTD SVG 1.1//EN" "http://www.w3.org/Graphics/SVG/1.1/DTD/svg11.dtd">
<svg version="1.1" xmlns="http://www.w3.org/2000/svg" xmlns:xlink="http://www.w3.org/1999/xlink" width="24" height="24" viewBox="0 0 24 24">
<path fill="#40c4ff" d="M12 7.5h-1.5v-1.5h1.5v1.5zM18 12h-1.5v1.5h1.5v-1.5zM7.5 7.5h-1.5v1.5h1.5v-1.5zM6 12h-1.5v1.5h1.5v-1.5zM22.5 3.75l-0.75-0.75-9.75 7.5c-0.094-0.023-1.5 0-1.5 0-0.82 0-1.5 0.68-1.5 1.5v1.5c0 0.82 0.68 1.5 1.5 1.5h1.5c0.82 0 1.5-0.68 1.5-1.5v-1.383l9-8.367zM20.109 9.891c0.281 0.914 0.445 1.875 0.445 2.859 0 5.133-4.172 9.305-9.305 9.305s-9.305-4.172-9.305-9.305 4.172-9.305 9.305-9.305c1.805 0 3.469 0.516 4.898 1.406l1.406-1.406c-1.781-1.219-3.961-1.945-6.305-1.945-6.211 0-11.25 5.039-11.25 11.25s5.039 11.25 11.25 11.25 11.25-5.039 11.25-11.25c0-1.547-0.305-3.023-0.891-4.359l-1.5 1.5z"></path>
</svg>
