<?xml version="1.0" encoding="utf-8"?>
<!-- Generated by IcoMoon.io -->
<!DOCTYPE svg PUBLIC "-//W3C//DTD SVG 1.1//EN" "http://www.w3.org/Graphics/SVG/1.1/DTD/svg11.dtd">
<svg version="1.1" xmlns="http://www.w3.org/2000/svg" xmlns:xlink="http://www.w3.org/1999/xlink" width="18" height="24" viewBox="0 0 18 24">
<path fill="#40c4ff" d="M9 22.5c-4.969 0-9-1.345-9-3 0-0.905 0-1.896 0-3 0-0.261 0.13-0.508 0.318-0.75 1.003 1.292 4.493 2.25 8.682 2.25s7.679-0.958 8.682-2.25c0.188 0.242 0.318 0.489 0.318 0.75 0 0.869 0 1.79 0 3 0 1.655-4.031 3-9 3zM9 16.5c-4.969 0-9-1.345-9-3 0-0.906 0-1.895 0-3 0-0.159 0.060-0.313 0.141-0.467v0c0.045-0.096 0.105-0.19 0.177-0.283 1.003 1.291 4.493 2.25 8.682 2.25s7.679-0.959 8.682-2.25c0.072 0.093 0.132 0.188 0.177 0.283v0c0.081 0.153 0.141 0.308 0.141 0.467 0 0.869 0 1.789 0 3 0 1.655-4.031 3-9 3zM9 10.5c-4.969 0-9-1.344-9-3 0-0.474 0-0.975 0-1.5 0-0.477 0-0.972 0-1.5 0-1.656 4.031-3 9-3s9 1.344 9 3c0 0.468 0 0.965 0 1.5 0 0.459 0 0.943 0 1.5 0 1.656-4.031 3-9 3zM9 3c-3.313 0-6 0.67-6 1.5s2.687 1.5 6 1.5 6-0.67 6-1.5-2.687-1.5-6-1.5z"></path>
</svg>
