<?xml version="1.0" encoding="utf-8"?>
<!-- Generated by IcoMoon.io -->
<!DOCTYPE svg PUBLIC "-//W3C//DTD SVG 1.1//EN" "http://www.w3.org/Graphics/SVG/1.1/DTD/svg11.dtd">
<svg version="1.1" xmlns="http://www.w3.org/2000/svg" xmlns:xlink="http://www.w3.org/1999/xlink" width="24" height="24" viewBox="0 0 24 24">
<path fill="#40c4ff" d="M6 9h4.5v-9h3v9h4.5l-6 6-6-6zM22.5 3h-6v1.5h6v12h-21v-12h6v-1.5h-6c-0.82 0-1.5 0.68-1.5 1.5v13.5c0 0.82 0.68 1.5 1.5 1.5h8.016c-0.375 0.914-1.289 2.086-3.516 3h12c-2.227-0.914-3.141-2.086-3.516-3h8.016c0.82 0 1.5-0.68 1.5-1.5v-13.5c0-0.82-0.68-1.5-1.5-1.5z"></path>
</svg>
