<?xml version="1.0" encoding="utf-8"?>
<!-- Generated by IcoMoon.io -->
<!DOCTYPE svg PUBLIC "-//W3C//DTD SVG 1.1//EN" "http://www.w3.org/Graphics/SVG/1.1/DTD/svg11.dtd">
<svg version="1.1" xmlns="http://www.w3.org/2000/svg" xmlns:xlink="http://www.w3.org/1999/xlink" width="21" height="24" viewBox="0 0 21 24">
<path fill="#40c4ff" d="M9 10.5h3v1.5h-3v3h-1.5v-3h-3v-1.5h3v-3h1.5v3zM4.5 19.5h7.5v-1.5h-7.5v1.5zM11.25 3l5.25 5.25v14.25c0 0.82-0.68 1.5-1.5 1.5h-13.5c-0.82 0-1.5-0.68-1.5-1.5v-18c0-0.82 0.68-1.5 1.5-1.5h9.75zM15 9l-4.5-4.5h-9v18h13.5v-13.5zM12.75 0s-8.25 0-8.25 0v1.5h7.5l6 6v12h1.5v-12.75l-6.75-6.75z"></path>
</svg>
