<?xml version="1.0" encoding="utf-8"?>
<!-- Generated by IcoMoon.io -->
<!DOCTYPE svg PUBLIC "-//W3C//DTD SVG 1.1//EN" "http://www.w3.org/Graphics/SVG/1.1/DTD/svg11.dtd">
<svg version="1.1" xmlns="http://www.w3.org/2000/svg" xmlns:xlink="http://www.w3.org/1999/xlink" width="18" height="24" viewBox="0 0 18 24">
<path fill="#40c4ff" d="M6 18h1.5v1.5h-4.5v-1.5h1.5v-3h-1.5v-1.5h3v4.5zM18 6.75v14.25c0 0.82-0.68 1.5-1.5 1.5h-15c-0.82 0-1.5-0.68-1.5-1.5v-18c0-0.82 0.68-1.5 1.5-1.5h11.25l5.25 5.25zM16.5 7.5l-4.5-4.5h-10.5v18h15v-13.5zM12 6h-3v1.5h1.5v3h-1.5v1.5h4.5v-1.5h-1.5v-4.5zM3 6h4.5v6h-4.5v-6zM4.5 10.5h1.5v-3h-1.5v3zM9 13.5h4.5v6h-4.5v-6zM10.5 18h1.5v-3h-1.5v3z"></path>
</svg>
