<?xml version="1.0" encoding="utf-8"?>
<!-- Generated by IcoMoon.io -->
<!DOCTYPE svg PUBLIC "-//W3C//DTD SVG 1.1//EN" "http://www.w3.org/Graphics/SVG/1.1/DTD/svg11.dtd">
<svg version="1.1" xmlns="http://www.w3.org/2000/svg" xmlns:xlink="http://www.w3.org/1999/xlink" width="21" height="24" viewBox="0 0 21 24">
<path fill="#40c4ff" d="M15 10.5h-9v10.5h13.5c0.82 0 1.5-0.68 1.5-1.5v-7.5h-6v-1.5zM13.5 13.5h-6v-1.5h6v1.5zM19.5 6h-9v-1.5c0-0.984-0.469-1.5-1.5-1.5h-7.5c-0.82 0-1.5 0.68-1.5 1.5v15c0 0.82 0.68 1.5 1.5 1.5h3v-10.5c0-0.82 0.68-1.5 1.5-1.5h9c0.82 0 1.5 0.68 1.5 1.5h4.5v-3c0-0.82-0.68-1.5-1.5-1.5zM9 6h-7.5v-1.5h7.5v1.5z"></path>
</svg>
