<?xml version="1.0" encoding="utf-8"?>
<!-- Generated by IcoMoon.io -->
<!DOCTYPE svg PUBLIC "-//W3C//DTD SVG 1.1//EN" "http://www.w3.org/Graphics/SVG/1.1/DTD/svg11.dtd">
<svg version="1.1" xmlns="http://www.w3.org/2000/svg" xmlns:xlink="http://www.w3.org/1999/xlink" width="18" height="24" viewBox="0 0 18 24">
<path fill="#40c4ff" d="M12.75 1.5h-11.25c-0.82 0-1.5 0.68-1.5 1.5v18c0 0.82 0.68 1.5 1.5 1.5h15c0.82 0 1.5-0.68 1.5-1.5v-14.25l-5.25-5.25zM1.5 3h6c-0.164 0.047-0.305 0.141-0.469 0.305-0.141 0.141-0.258 0.375-0.352 0.703-0.164 0.586-0.211 1.336-0.141 2.203s0.258 1.758 0.516 2.695c-0.352 1.102-0.914 2.414-1.664 3.984s-1.195 2.484-1.359 2.766c-0.211 0.070-0.539 0.211-1.031 0.445-0.492 0.211-0.984 0.539-1.5 0.961v-14.063zM8.133 10.195c0.68 1.688 1.266 2.742 1.758 3.141s0.961 0.68 1.406 0.797c-0.961 0.141-1.852 0.305-2.719 0.492-0.844 0.188-1.758 0.492-2.719 0.891 0.023-0.023 0.328-0.656 0.914-1.875s1.055-2.367 1.359-3.445zM16.5 21h-14.25c-0.094 0-0.188-0.023-0.258-0.047 0.305-0.094 0.68-0.305 1.102-0.656 0.68-0.563 1.57-1.734 2.672-3.563 0.469-0.188 0.867-0.352 1.219-0.469l0.633-0.211c0.68-0.188 1.406-0.352 2.156-0.492 0.75-0.117 1.5-0.234 2.227-0.305 0.68 0.328 1.359 0.586 2.086 0.797 0.727 0.188 1.359 0.305 1.852 0.352 0.211 0 0.398-0.023 0.563-0.047v4.641zM16.5 13.711c-0.281-0.164-0.609-0.305-0.961-0.422-0.352-0.094-0.727-0.141-1.125-0.164-0.586 0-1.195 0.047-1.852 0.117-0.352-0.094-0.844-0.422-1.477-0.961s-1.289-1.711-1.969-3.492c0.188-1.242 0.281-2.227 0.305-2.953s0.023-1.102 0-1.125c0.070-0.609-0.047-1.055-0.305-1.313s-0.563-0.398-0.914-0.398h3.797l4.5 4.5v6.211z"></path>
</svg>
