<?xml version="1.0" encoding="utf-8"?>
<!-- Generated by IcoMoon.io -->
<!DOCTYPE svg PUBLIC "-//W3C//DTD SVG 1.1//EN" "http://www.w3.org/Graphics/SVG/1.1/DTD/svg11.dtd">
<svg version="1.1" xmlns="http://www.w3.org/2000/svg" xmlns:xlink="http://www.w3.org/1999/xlink" width="18" height="24" viewBox="0 0 18 24">
<path fill="#40c4ff" d="M12.75 1.5h-11.25c-0.82 0-1.5 0.68-1.5 1.5v18c0 0.82 0.68 1.5 1.5 1.5h15c0.82 0 1.5-0.68 1.5-1.5v-14.25l-5.25-5.25zM16.5 21h-15v-18h10.5l4.5 4.5v13.5zM7.5 10.477l-2.25 2.273 2.25 2.25-0.75 1.5-3.75-3.75 3.75-3.75 0.75 1.477zM11.25 9l3.75 3.75-3.75 3.75-0.75-1.477 2.25-2.273-2.25-2.25 0.75-1.5z"></path>
</svg>
