<?xml version="1.0" encoding="utf-8"?>
<!-- Generated by IcoMoon.io -->
<!DOCTYPE svg PUBLIC "-//W3C//DTD SVG 1.1//EN" "http://www.w3.org/Graphics/SVG/1.1/DTD/svg11.dtd">
<svg version="1.1" xmlns="http://www.w3.org/2000/svg" xmlns:xlink="http://www.w3.org/1999/xlink" width="21" height="24" viewBox="0 0 21 24">
<path fill="#40c4ff" d="M19.5 6h-9v-1.5c0-0.984-0.469-1.5-1.5-1.5h-7.5c-0.82 0-1.5 0.68-1.5 1.5v15c0 0.82 0.68 1.5 1.5 1.5h18c0.82 0 1.5-0.68 1.5-1.5v-12c0-0.82-0.68-1.5-1.5-1.5zM1.5 4.5h7.5v1.5h-7.5v-1.5zM10.5 18v-3c-1.477-0.023-2.766 0.328-3.82 1.055s-1.781 1.875-2.18 3.445c0.023-2.461 0.586-4.313 1.688-5.602 1.102-1.266 2.531-1.898 4.313-1.898v-3l6 4.5-6 4.5z"></path>
</svg>
