<?xml version="1.0" encoding="utf-8"?>
<!-- Generated by IcoMoon.io -->
<!DOCTYPE svg PUBLIC "-//W3C//DTD SVG 1.1//EN" "http://www.w3.org/Graphics/SVG/1.1/DTD/svg11.dtd">
<svg version="1.1" xmlns="http://www.w3.org/2000/svg" xmlns:xlink="http://www.w3.org/1999/xlink" width="18" height="24" viewBox="0 0 18 24">
<path fill="#40c4ff" d="M9 7.5h-6v-1.5h6v1.5zM3 12h10.5v-1.5h-10.5v1.5zM3 15h10.5v-1.5h-10.5v1.5zM3 18h10.5v-1.5h-10.5v1.5zM18 6.75v14.25c0 0.82-0.68 1.5-1.5 1.5h-15c-0.82 0-1.5-0.68-1.5-1.5v-18c0-0.82 0.68-1.5 1.5-1.5h11.25l5.25 5.25zM16.5 7.5l-4.5-4.5h-10.5v18h15v-13.5z"></path>
</svg>
