<?xml version="1.0" encoding="utf-8"?>
<!-- Generated by IcoMoon.io -->
<!DOCTYPE svg PUBLIC "-//W3C//DTD SVG 1.1//EN" "http://www.w3.org/Graphics/SVG/1.1/DTD/svg11.dtd">
<svg version="1.1" xmlns="http://www.w3.org/2000/svg" xmlns:xlink="http://www.w3.org/1999/xlink" width="24" height="24" viewBox="0 0 24 24">
<path fill="#40c4ff" d="M10.148 1.055c1.172 3.141 0.563 4.852-0.75 6.211-1.43 1.5-3.656 2.625-5.227 4.828-2.086 2.93-2.438 9.375 5.086 11.063-3.164-1.664-3.844-6.492-0.422-9.516-0.891 2.93 0.75 4.805 2.789 4.125 1.992-0.68 3.305 0.75 3.258 2.391-0.023 1.125-0.469 2.086-1.617 2.625 4.898-0.867 6.867-4.922 6.867-8.016 0-4.078-3.633-4.641-1.805-8.063-2.18 0.188-2.93 1.617-2.719 3.961 0.141 1.547-1.477 2.602-2.672 1.898-0.961-0.586-0.938-1.711-0.094-2.555 1.805-1.781 2.508-5.883-2.695-8.953z"></path>
</svg>
