<?xml version="1.0" encoding="utf-8"?>
<!-- Generated by IcoMoon.io -->
<!DOCTYPE svg PUBLIC "-//W3C//DTD SVG 1.1//EN" "http://www.w3.org/Graphics/SVG/1.1/DTD/svg11.dtd">
<svg version="1.1" xmlns="http://www.w3.org/2000/svg" xmlns:xlink="http://www.w3.org/1999/xlink" width="21" height="24" viewBox="0 0 21 24">
<path fill="#40c4ff" d="M21 13.148v-2.391l-2.906-0.961-0.68-1.641 1.313-2.766-1.688-1.688-2.719 1.359-1.641-0.68-1.031-2.883h-2.391l-0.938 2.906-1.664 0.68-2.766-1.313-1.688 1.688 1.359 2.719-0.68 1.641-2.883 1.031v2.391l2.906 0.961 0.68 1.641-1.313 2.766 1.688 1.688 2.719-1.359 1.641 0.68 1.031 2.883h2.391l0.938-2.906 1.664-0.68 2.766 1.313 1.688-1.688-1.383-2.719 0.703-1.641 2.883-1.031zM10.5 16.5c-2.484 0-4.5-2.016-4.5-4.5s2.016-4.5 4.5-4.5 4.5 2.016 4.5 4.5-2.016 4.5-4.5 4.5z"></path>
</svg>
