<?xml version="1.0" encoding="utf-8"?>
<!-- Generated by IcoMoon.io -->
<!DOCTYPE svg PUBLIC "-//W3C//DTD SVG 1.1//EN" "http://www.w3.org/Graphics/SVG/1.1/DTD/svg11.dtd">
<svg version="1.1" xmlns="http://www.w3.org/2000/svg" xmlns:xlink="http://www.w3.org/1999/xlink" width="21" height="24" viewBox="0 0 21 24">
<path fill="#40c4ff" d="M19.5 6h-2.063c0.281-0.492 0.492-1.008 0.539-1.359 0.094-1.008-0.164-1.828-0.773-2.414-0.539-0.563-1.219-0.727-2.039-0.727-0.070 0-0.117 0-0.164 0-0.797 0.023-1.664 0.375-2.297 0.867s-1.102 1.078-1.453 1.805c-0.352-0.727-0.82-1.313-1.453-1.805s-1.5-0.867-2.297-0.867c-0.023 0-0.047 0-0.047 0-0.844 0-1.594 0.141-2.156 0.727-0.609 0.586-0.867 1.406-0.773 2.414 0.047 0.352 0.258 0.867 0.539 1.359h-2.063c-0.82 0-1.5 0.68-1.5 1.5v4.5h1.5v7.5c0 0.82 0.68 1.5 1.5 1.5h13.5c0.82 0 1.5-0.68 1.5-1.5v-7.5h1.5v-4.5c0-0.82-0.68-1.5-1.5-1.5zM12.328 4.688c0.258-0.539 0.633-1.008 1.125-1.383 0.445-0.352 1.078-0.586 1.57-0.609h0.141c0.68 0 0.984 0.164 1.195 0.375s0.492 0.586 0.445 1.43c-0.070 0.281-0.375 0.914-0.75 1.5h-4.336l0.609-1.313zM6.141 3.070c0.188-0.188 0.469-0.375 1.359-0.375 0.469 0 1.078 0.258 1.547 0.609 0.492 0.375 0.867 0.82 1.125 1.383l0.633 1.313h-4.359c-0.375-0.586-0.68-1.219-0.75-1.5-0.047-0.844 0.234-1.219 0.445-1.43zM10.5 19.5h-6v-7.5h6v7.5zM10.5 10.5h-7.5v-3h7.5v3zM18 19.5h-6v-7.5h6v7.5zM19.5 10.5h-7.5v-3h7.5v3z"></path>
</svg>
