<?xml version="1.0" encoding="utf-8"?>
<!-- Generated by IcoMoon.io -->
<!DOCTYPE svg PUBLIC "-//W3C//DTD SVG 1.1//EN" "http://www.w3.org/Graphics/SVG/1.1/DTD/svg11.dtd">
<svg version="1.1" xmlns="http://www.w3.org/2000/svg" xmlns:xlink="http://www.w3.org/1999/xlink" width="18" height="24" viewBox="0 0 18 24">
<path fill="#40c4ff" d="M11.25 7.5l3.75 3.75-3.75 3.75-1.125-1.125 2.625-2.625-2.625-2.625 1.125-1.125zM6.75 7.5l-3.75 3.75 3.75 3.75 1.125-1.125-2.625-2.625 2.625-2.625-1.125-1.125zM0 19.5v-16.5c0-0.82 0.68-1.5 1.5-1.5h15c0.82 0 1.5 0.68 1.5 1.5v16.5c0 0.82-0.68 1.5-1.5 1.5h-15c-0.82 0-1.5-0.68-1.5-1.5zM1.5 19.5h15v-16.5h-15v16.5z"></path>
</svg>
