<?xml version="1.0" encoding="utf-8"?>
<!-- Generated by IcoMoon.io -->
<!DOCTYPE svg PUBLIC "-//W3C//DTD SVG 1.1//EN" "http://www.w3.org/Graphics/SVG/1.1/DTD/svg11.dtd">
<svg version="1.1" xmlns="http://www.w3.org/2000/svg" xmlns:xlink="http://www.w3.org/1999/xlink" width="21" height="24" viewBox="0 0 21 24">
<path fill="#40c4ff" d="M12 15.75l1.5 5.25h-6l1.5-5.25-1.125-2.25h5.25l-1.125 2.25zM15 9h-9l-3 1.5h15l-3-1.5zM13.5 3l-3 1.5-3-1.5-1.5 4.5h9l-1.5-4.5zM19.547 14.625l-4.547-1.125 1.5 3-3 4.5h4.828c0.68 0 1.289-0.469 1.453-1.125l0.844-3.422c0.211-0.797-0.281-1.617-1.078-1.828zM6 13.5l-4.547 1.125c-0.797 0.211-1.289 1.031-1.078 1.828l0.844 3.422c0.164 0.656 0.773 1.125 1.453 1.125h4.828l-3-4.5 1.5-3z"></path>
</svg>
