<?xml version="1.0" encoding="utf-8"?>
<!-- Generated by IcoMoon.io -->
<!DOCTYPE svg PUBLIC "-//W3C//DTD SVG 1.1//EN" "http://www.w3.org/Graphics/SVG/1.1/DTD/svg11.dtd">
<svg version="1.1" xmlns="http://www.w3.org/2000/svg" xmlns:xlink="http://www.w3.org/1999/xlink" width="18" height="24" viewBox="0 0 18 24">
<path fill="#40c4ff" d="M15 10.5c-1.102 0-2.063 0.609-2.602 1.523v-0.023c-1.57-0.023-3.398-0.539-4.688-1.523-1.125-0.867-2.25-2.414-2.836-3.656 0.68-0.539 1.125-1.383 1.125-2.32 0-1.664-1.336-3-3-3s-3 1.336-3 3c0 1.102 0.609 2.063 1.5 2.578v9.844c-0.891 0.516-1.5 1.477-1.5 2.578 0 1.664 1.336 3 3 3s3-1.336 3-3c0-1.102-0.609-2.063-1.5-2.578v-5.414c1.008 1.055 2.156 1.898 3.445 2.531s3.047 0.938 4.453 0.961v-0.023c0.539 0.914 1.5 1.523 2.602 1.523 1.664 0 3-1.336 3-3s-1.336-3-3-3zM4.805 19.5c0 0.984-0.82 1.805-1.805 1.805s-1.805-0.82-1.805-1.805 0.82-1.805 1.805-1.805 1.805 0.82 1.805 1.805zM3 6.305c-0.984 0-1.805-0.82-1.805-1.805s0.82-1.805 1.805-1.805 1.805 0.82 1.805 1.805-0.82 1.805-1.805 1.805zM15 15.305c-0.984 0-1.805-0.82-1.805-1.805s0.82-1.805 1.805-1.805 1.805 0.82 1.805 1.805-0.82 1.805-1.805 1.805z"></path>
</svg>
