<?xml version="1.0" encoding="utf-8"?>
<!-- Generated by IcoMoon.io -->
<!DOCTYPE svg PUBLIC "-//W3C//DTD SVG 1.1//EN" "http://www.w3.org/Graphics/SVG/1.1/DTD/svg11.dtd">
<svg version="1.1" xmlns="http://www.w3.org/2000/svg" xmlns:xlink="http://www.w3.org/1999/xlink" width="15" height="24" viewBox="0 0 15 24">
<path fill="#40c4ff" d="M15 7.5c0-1.664-1.336-3-3-3s-3 1.336-3 3c0 1.102 0.609 2.063 1.5 2.578v0.445c-0.023 0.773-0.352 1.477-0.938 2.063s-1.289 0.914-2.063 0.938c-1.242 0.023-2.227 0.234-3 0.68v-7.125c0.891-0.516 1.5-1.477 1.5-2.578 0-1.664-1.336-3-3-3s-3 1.336-3 3c0 1.102 0.609 2.063 1.5 2.578v9.844c-0.891 0.516-1.5 1.477-1.5 2.578 0 1.664 1.336 3 3 3s3-1.336 3-3c0-0.797-0.305-1.5-0.797-2.039 0.141-0.094 0.727-0.609 0.891-0.703 0.375-0.164 0.844-0.258 1.406-0.258 1.57-0.070 2.93-0.68 4.125-1.875s1.805-2.977 1.875-4.523h-0.023c0.914-0.539 1.523-1.5 1.523-2.602zM3 2.695c0.984 0 1.805 0.82 1.805 1.805s-0.82 1.805-1.805 1.805-1.805-0.82-1.805-1.805 0.82-1.805 1.805-1.805zM3 21.305c-0.984 0-1.805-0.82-1.805-1.805s0.82-1.805 1.805-1.805 1.805 0.82 1.805 1.805-0.82 1.805-1.805 1.805zM12 9.305c-0.984 0-1.805-0.82-1.805-1.805s0.82-1.805 1.805-1.805 1.805 0.82 1.805 1.805-0.82 1.805-1.805 1.805z"></path>
</svg>
