<?xml version="1.0" encoding="utf-8"?>
<!-- Generated by IcoMoon.io -->
<!DOCTYPE svg PUBLIC "-//W3C//DTD SVG 1.1//EN" "http://www.w3.org/Graphics/SVG/1.1/DTD/svg11.dtd">
<svg version="1.1" xmlns="http://www.w3.org/2000/svg" xmlns:xlink="http://www.w3.org/1999/xlink" width="18" height="24" viewBox="0 0 18 24">
<path fill="#40c4ff" d="M16.5 16.922c0-2.602 0-9.422 0-9.422-0.047-1.172-0.516-2.203-1.406-3.094s-1.922-1.359-3.094-1.406c0 0-1.523 0-1.5 0v-3l-4.5 4.5 4.5 4.5v-3h1.5c0.398 0.023 0.727 0.164 1.031 0.469s0.445 0.633 0.469 1.031v9.422c-0.891 0.516-1.5 1.477-1.5 2.578 0 1.664 1.336 3 3 3s3-1.336 3-3c0-1.102-0.609-2.063-1.5-2.578zM15 21.305c-0.984 0-1.805-0.82-1.805-1.805s0.82-1.805 1.805-1.805 1.805 0.82 1.805 1.805-0.82 1.805-1.805 1.805zM6 4.5c0-1.664-1.336-3-3-3s-3 1.336-3 3c0 1.102 0.609 2.063 1.5 2.578 0 2.32 0 8.344 0 9.844-0.891 0.516-1.5 1.477-1.5 2.578 0 1.664 1.336 3 3 3s3-1.336 3-3c0-1.102-0.609-2.063-1.5-2.578v-9.844c0.891-0.516 1.5-1.477 1.5-2.578zM4.805 19.5c0 0.984-0.82 1.805-1.805 1.805s-1.805-0.82-1.805-1.805 0.82-1.805 1.805-1.805 1.805 0.82 1.805 1.805zM3 6.305c-0.984 0-1.805-0.82-1.805-1.805s0.82-1.805 1.805-1.805 1.805 0.82 1.805 1.805-0.82 1.805-1.805 1.805z"></path>
</svg>
