<?xml version="1.0" encoding="utf-8"?>
<!-- Generated by IcoMoon.io -->
<!DOCTYPE svg PUBLIC "-//W3C//DTD SVG 1.1//EN" "http://www.w3.org/Graphics/SVG/1.1/DTD/svg11.dtd">
<svg version="1.1" xmlns="http://www.w3.org/2000/svg" xmlns:xlink="http://www.w3.org/1999/xlink" width="24" height="24" viewBox="0 0 24 24">
<path fill="#40c4ff" d="M12 3c-4.971 0-9 4.029-9 9s4.029 9 9 9c0.608 0 1.202-0.061 1.777-0.176-0.232-0.111-0.257-0.942-0.028-1.415 0.255-0.527 1.055-1.863 0.264-2.312s-0.571-0.65-1.055-1.169-0.286-0.597-0.316-0.729c-0.105-0.457 0.466-1.143 0.492-1.213s0.026-0.334 0.018-0.413-0.36-0.29-0.448-0.299-0.132 0.141-0.255 0.149-0.659-0.325-0.773-0.413-0.167-0.299-0.325-0.457-0.176-0.035-0.422-0.132-1.037-0.387-1.644-0.633-0.659-0.591-0.668-0.835-0.369-0.598-0.538-0.853c-0.169-0.255-0.2-0.606-0.262-0.527s0.316 1.002 0.255 1.028-0.193-0.255-0.369-0.483 0.185-0.105-0.378-1.213 0.176-1.672 0.211-2.25 0.475 0.211 0.246-0.158 0.018-1.143-0.158-1.424-1.178 0.316-1.178 0.316c0.026-0.272 0.879-0.738 1.494-1.169s0.991-0.097 1.485 0.062 0.527 0.105 0.36-0.053 0.070-0.237 0.457-0.176 0.492 0.527 1.081 0.483 0.062 0.114 0.141 0.264-0.088 0.132-0.475 0.396 0.009 0.264 0.694 0.765 0.475-0.334 0.404-0.703 0.501-0.079 0.501-0.079c0.422 0.281 0.344 0.015 0.652 0.112s1.141 0.802 1.141 0.802c-1.046 0.571-0.387 0.633-0.211 0.765s-0.36 0.387-0.36 0.387c-0.22-0.22-0.255 0.009-0.396 0.088s-0.009 0.281-0.009 0.281c-0.727 0.114-0.563 0.879-0.554 1.063s-0.466 0.466-0.589 0.729 0.316 0.835 0.088 0.87-0.457-0.861-1.688-0.527c-0.371 0.101-1.195 0.527-0.756 1.397s1.169-0.246 1.415-0.123-0.070 0.677-0.018 0.686 0.694 0.024 0.729 0.773 0.976 0.686 1.178 0.703 0.879-0.554 0.976-0.58 0.483-0.352 1.327 0.132 1.274 0.413 1.564 0.615 0.088 0.606 0.36 0.738 1.362-0.044 1.635 0.404-1.125 2.698-1.564 2.944-0.642 0.809-1.081 1.169-1.055 0.806-1.635 1.151c-0.513 0.305-0.606 0.852-0.835 1.025 4.028-0.895 7.040-4.488 7.040-8.786 0-4.971-4.029-9-9-9zM14.109 11.446c-0.123 0.035-0.378 0.264-1.002-0.105s-1.055-0.299-1.107-0.36c0 0-0.053-0.149 0.22-0.176 0.559-0.054 1.266 0.519 1.424 0.527s0.237-0.158 0.519-0.068c0.281 0.091 0.070 0.147-0.053 0.182zM11.165 3.896c-0.061-0.045 0.051-0.096 0.118-0.185 0.039-0.051 0.010-0.136 0.058-0.185 0.132-0.132 0.782-0.316 0.655 0.044s-0.734 0.396-0.831 0.325zM12.738 5.039c-0.22-0.009-0.737-0.063-0.642-0.158 0.371-0.369-0.141-0.475-0.457-0.501s-0.448-0.202-0.29-0.22 0.791 0.009 0.896 0.097 0.677 0.316 0.712 0.483 0 0.308-0.22 0.299zM14.646 4.978c-0.176 0.141-1.060-0.505-1.23-0.65-0.738-0.633-1.134-0.422-1.289-0.527s-0.1-0.246 0.137-0.457 0.905 0.070 1.292 0.114 0.835 0.343 0.844 0.698c0.009 0.355 0.422 0.682 0.246 0.823z"></path>
</svg>
