<?xml version="1.0" encoding="utf-8"?>
<!-- Generated by IcoMoon.io -->
<!DOCTYPE svg PUBLIC "-//W3C//DTD SVG 1.1//EN" "http://www.w3.org/Graphics/SVG/1.1/DTD/svg11.dtd">
<svg version="1.1" xmlns="http://www.w3.org/2000/svg" xmlns:xlink="http://www.w3.org/1999/xlink" width="18" height="24" viewBox="0 0 18 24">
<path fill="#40c4ff" d="M16.805 6c-0.773-0.938-1.875-1.43-3.305-1.5-1.453 0-2.531 0.633-3.305 1.5s-1.172 1.383-1.195 1.5c-0.023-0.117-0.422-0.633-1.195-1.5s-1.758-1.5-3.305-1.5c-1.43 0.070-2.531 0.563-3.305 1.5-0.773 0.914-1.172 1.922-1.195 3 0 0.773 0.141 2.273 1.008 4.008s3.516 4.406 7.992 7.992c4.477-3.586 7.148-6.258 8.016-7.992s0.984-3.258 0.984-4.008c-0.023-1.078-0.422-2.086-1.195-3.023z"></path>
</svg>
