<?xml version="1.0" encoding="utf-8"?>
<!-- Generated by IcoMoon.io -->
<!DOCTYPE svg PUBLIC "-//W3C//DTD SVG 1.1//EN" "http://www.w3.org/Graphics/SVG/1.1/DTD/svg11.dtd">
<svg version="1.1" xmlns="http://www.w3.org/2000/svg" xmlns:xlink="http://www.w3.org/1999/xlink" width="21" height="24" viewBox="0 0 21 24">
<path fill="#40c4ff" d="M12 19.5h-3v-10.5h7.5v3h-4.5v7.5zM10.5 1.5c-3.281 0-6.188 1.523-8.109 3.891l-2.391-2.391v6h6l-2.25-2.25c1.57-1.992 4.008-3.305 6.75-3.305 4.711 0 8.555 3.844 8.555 8.555s-3.844 8.555-8.555 8.555-8.555-3.844-8.555-8.555c0-0.516 0.047-1.008 0.141-1.5h-1.969c-0.070 0.492-0.117 0.984-0.117 1.5 0 5.789 4.711 10.5 10.5 10.5s10.5-4.711 10.5-10.5-4.711-10.5-10.5-10.5z"></path>
</svg>
