<?xml version="1.0" encoding="utf-8"?>
<!-- Generated by IcoMoon.io -->
<!DOCTYPE svg PUBLIC "-//W3C//DTD SVG 1.1//EN" "http://www.w3.org/Graphics/SVG/1.1/DTD/svg11.dtd">
<svg version="1.1" xmlns="http://www.w3.org/2000/svg" xmlns:xlink="http://www.w3.org/1999/xlink" width="21" height="24" viewBox="0 0 21 24">
<path fill="#40c4ff" d="M4.5 9c-0.82 0-1.5 0.68-1.5 1.5v3c0 0.82 0.68 1.5 1.5 1.5h12c0.82 0 1.5-0.68 1.5-1.5v-3c0-0.82-0.68-1.5-1.5-1.5h-12zM16.5 11.625l-1.875 1.875h-2.25l-1.875-1.875-1.875 1.875h-2.25l-1.875-1.875v-1.125h1.125l1.875 1.875 1.875-1.875h2.25l1.875 1.875 1.875-1.875h1.125v1.125zM7.5 16.5h6v1.5h-6v-1.5zM10.5 3c-5.789 0-10.5 4.359-10.5 9.75v6.75c0 0.82 0.68 1.5 1.5 1.5h18c0.82 0 1.5-0.68 1.5-1.5v-6.75c0-5.391-4.711-9.75-10.5-9.75zM19.5 19.5h-18v-6.75c0-4.641 3.961-8.391 9-8.391s9 3.75 9 8.391v6.75z"></path>
</svg>
