<?xml version="1.0" encoding="utf-8"?>
<!-- Generated by IcoMoon.io -->
<!DOCTYPE svg PUBLIC "-//W3C//DTD SVG 1.1//EN" "http://www.w3.org/Graphics/SVG/1.1/DTD/svg11.dtd">
<svg version="1.1" xmlns="http://www.w3.org/2000/svg" xmlns:xlink="http://www.w3.org/1999/xlink" width="21" height="24" viewBox="0 0 21 24">
<path fill="#40c4ff" d="M21 13.5l-1.688-10.711c-0.117-0.727-0.75-1.289-1.5-1.289h-14.625c-0.75 0-1.383 0.563-1.5 1.289l-1.688 10.711v7.5c0 0.82 0.68 1.5 1.5 1.5h18c0.82 0 1.5-0.68 1.5-1.5v-7.5zM16.078 14.32l-0.656 1.336c-0.258 0.516-0.773 0.844-1.359 0.844h-7.148c-0.563 0-1.078-0.328-1.336-0.82l-0.656-1.359c-0.258-0.492-0.773-0.82-1.336-0.82h-2.086l1.5-10.5h15l1.5 10.5h-2.063c-0.586 0-1.102 0.328-1.359 0.82z"></path>
</svg>
