<?xml version="1.0" encoding="utf-8"?>
<!-- Generated by IcoMoon.io -->
<!DOCTYPE svg PUBLIC "-//W3C//DTD SVG 1.1//EN" "http://www.w3.org/Graphics/SVG/1.1/DTD/svg11.dtd">
<svg version="1.1" xmlns="http://www.w3.org/2000/svg" xmlns:xlink="http://www.w3.org/1999/xlink" width="21" height="24" viewBox="0 0 21 24">
<path fill="#40c4ff" d="M9.445 8.531c-0.281-0.281-0.422-0.633-0.422-1.055s0.141-0.773 0.422-1.055 0.633-0.422 1.055-0.422 0.773 0.141 1.055 0.422 0.422 0.633 0.422 1.055-0.141 0.773-0.422 1.055-0.633 0.445-1.055 0.445-0.773-0.164-1.055-0.445zM12 11.977c-0.023-0.375-0.164-0.727-0.469-1.031-0.305-0.281-0.633-0.445-1.031-0.469h-1.5c-0.398 0.023-0.727 0.188-1.031 0.469-0.305 0.305-0.445 0.656-0.469 1.031h1.5v4.5c0.023 0.398 0.164 0.75 0.469 1.031 0.305 0.305 0.633 0.469 1.031 0.469h1.5c0.398 0 0.727-0.164 1.031-0.469 0.305-0.281 0.445-0.633 0.469-1.031h-1.5v-4.5zM10.5 3.445c-4.711 0-8.555 3.82-8.555 8.531s3.844 8.555 8.555 8.555 8.555-3.82 8.555-8.555-3.844-8.531-8.555-8.531zM10.5 1.477c5.789 0 10.5 4.711 10.5 10.5s-4.711 10.5-10.5 10.5-10.5-4.688-10.5-10.5 4.711-10.5 10.5-10.5z"></path>
</svg>
