<?xml version="1.0" encoding="utf-8"?>
<!-- Generated by IcoMoon.io -->
<!DOCTYPE svg PUBLIC "-//W3C//DTD SVG 1.1//EN" "http://www.w3.org/Graphics/SVG/1.1/DTD/svg11.dtd">
<svg version="1.1" xmlns="http://www.w3.org/2000/svg" xmlns:xlink="http://www.w3.org/1999/xlink" width="24" height="24" viewBox="0 0 24 24">
<path fill="#40c4ff" d="M10.5 15h3v3h-3v-3zM13.5 6h-3v7.5h3v-7.5zM15.75 8.25l-1.5 1.5 3.75 3.75 6-6.75-1.5-1.5-4.5 5.25-2.25-2.25zM12 20.555c-4.711 0-8.555-3.844-8.555-8.555s3.844-8.555 8.555-8.555c2.742 0 5.18 1.313 6.75 3.305l1.383-1.383c-1.922-2.367-4.852-3.867-8.133-3.867-5.789 0-10.5 4.711-10.5 10.5s4.711 10.5 10.5 10.5 10.5-4.711 10.5-10.5l-2.273 2.273c-0.984 3.609-4.289 6.281-8.227 6.281z"></path>
</svg>
