<?xml version="1.0" encoding="utf-8"?>
<!-- Generated by IcoMoon.io -->
<!DOCTYPE svg PUBLIC "-//W3C//DTD SVG 1.1//EN" "http://www.w3.org/Graphics/SVG/1.1/DTD/svg11.dtd">
<svg version="1.1" xmlns="http://www.w3.org/2000/svg" xmlns:xlink="http://www.w3.org/1999/xlink" width="21" height="24" viewBox="0 0 21 24">
<path fill="#40c4ff" d="M5.25 9l-0.75 0.75v7.5l0.75 0.75h3l0.75-0.75v-7.5l-0.75-0.75h-3zM7.5 16.5h-1.5v-6h1.5v6zM16.898 5.625c-0.328-2.063-0.469-3.938-0.398-5.625h-4.477c0 0.398-0.188 0.727-0.586 1.031-0.375 0.305-0.938 0.445-1.688 0.445s-1.313-0.141-1.688-0.445c-0.352-0.305-0.539-0.633-0.539-1.031h-4.523c0.070 1.688-0.047 3.563-0.375 5.625-0.305 2.063-1.195 3.188-2.625 3.375v13.5c0.023 0.398 0.164 0.727 0.469 1.031s0.633 0.445 1.031 0.469h16.5c0.398-0.023 0.727-0.164 1.031-0.469s0.445-0.633 0.469-1.031v-13.5c-1.43-0.188-2.297-1.313-2.625-3.375zM18 22.5h-16.5v-12c1.336-0.75 2.227-1.875 2.578-3.375s0.469-3.375 0.422-5.625h1.5c-0.023 1.172 0.234 2.203 0.773 3.094 0.539 0.867 1.523 1.336 3 1.406 1.477-0.023 2.461-0.492 3-1.406 0.539-0.891 0.75-1.922 0.727-3.094h1.5c0.023 2.133 0.188 3.82 0.492 5.063 0.305 1.219 1.031 3 2.508 3.938v12zM11.25 9l-0.75 0.75v7.5l0.75 0.75h3l0.75-0.75v-7.5l-0.75-0.75h-3zM13.5 16.5h-1.5v-6h1.5v6z"></path>
</svg>
