<?xml version="1.0" encoding="utf-8"?>
<!-- Generated by IcoMoon.io -->
<!DOCTYPE svg PUBLIC "-//W3C//DTD SVG 1.1//EN" "http://www.w3.org/Graphics/SVG/1.1/DTD/svg11.dtd">
<svg version="1.1" xmlns="http://www.w3.org/2000/svg" xmlns:xlink="http://www.w3.org/1999/xlink" width="21" height="24" viewBox="0 0 21 24">
<path fill="#40c4ff" d="M19.242 3.258c-1.125-1.125-2.531-1.711-4.242-1.758-1.688 0.047-3.117 0.633-4.242 1.758s-1.688 2.531-1.734 4.242c0 0.445 0.047 0.891 0.141 1.336l-9.164 9.164v1.5l1.5 1.5h3l1.5-1.5v-1.5h1.5v-1.5h1.5v-1.5h3l1.641-1.664c0.445 0.117 0.891 0.164 1.359 0.164 1.711-0.047 3.117-0.633 4.242-1.758s1.711-2.531 1.758-4.242c-0.047-1.711-0.633-3.117-1.758-4.242zM16.5 8.063c-1.148 0-2.063-0.914-2.063-2.063s0.914-2.063 2.063-2.063 2.063 0.914 2.063 2.063-0.914 2.063-2.063 2.063z"></path>
</svg>
