<?xml version="1.0" encoding="utf-8"?>
<!-- Generated by IcoMoon.io -->
<!DOCTYPE svg PUBLIC "-//W3C//DTD SVG 1.1//EN" "http://www.w3.org/Graphics/SVG/1.1/DTD/svg11.dtd">
<svg version="1.1" xmlns="http://www.w3.org/2000/svg" xmlns:xlink="http://www.w3.org/1999/xlink" width="24" height="24" viewBox="0 0 24 24">
<path fill="#40c4ff" d="M15 7.5h-1.5v-1.5h1.5v1.5zM4.5 9h-1.5v1.5h1.5v-1.5zM12 6h-1.5v1.5h1.5v-1.5zM6 6h-3v1.5h3v-1.5zM18 16.5h3v-1.5h-3v1.5zM12 10.5h1.5v-1.5h-1.5v1.5zM6 15h-3v1.5h3v-1.5zM18 6h-1.5v1.5h1.5v-1.5zM21 6h-1.5v1.5h1.5v-1.5zM18 13.5h3v-4.5h-3v4.5zM24 4.5v13.5c0 0.82-0.68 1.5-1.5 1.5h-21c-0.82 0-1.5-0.68-1.5-1.5v-13.5c0-0.82 0.68-1.5 1.5-1.5h21c0.82 0 1.5 0.68 1.5 1.5zM22.5 4.5h-21v13.5h21v-13.5zM9 10.5h1.5v-1.5h-1.5v1.5zM9 6h-1.5v1.5h1.5v-1.5zM6 10.5h1.5v-1.5h-1.5v1.5zM7.5 16.5h9v-1.5h-9v1.5zM15 10.5h1.5v-1.5h-1.5v1.5zM4.5 12h-1.5v1.5h1.5v-1.5zM12 12v1.5h1.5v-1.5h-1.5zM9 12v1.5h1.5v-1.5h-1.5zM7.5 12h-1.5v1.5h1.5v-1.5zM15 13.5h1.5v-1.5h-1.5v1.5z"></path>
</svg>
