<?xml version="1.0" encoding="utf-8"?>
<!-- Generated by IcoMoon.io -->
<!DOCTYPE svg PUBLIC "-//W3C//DTD SVG 1.1//EN" "http://www.w3.org/Graphics/SVG/1.1/DTD/svg11.dtd">
<svg version="1.1" xmlns="http://www.w3.org/2000/svg" xmlns:xlink="http://www.w3.org/1999/xlink" width="21" height="24" viewBox="0 0 21 24">
<path fill="#40c4ff" d="M10.5 6c-1.242 0-2.25-1.008-2.25-2.25s1.008-2.25 2.25-2.25 2.25 1.008 2.25 2.25-1.008 2.25-2.25 2.25zM21 15c0 1.664-1.336 3-3 3h-1.5c-1.664 0-3-1.336-3-3l3-6h-1.5c-0.82 0-1.5-0.68-1.5-1.5h-1.5v12c0.633 0 1.5 0.68 1.5 1.5h1.5c0.633 0 1.5 0.68 1.5 1.5h-12c0-0.82 0.867-1.5 1.5-1.5h1.5c0-0.82 0.867-1.5 1.5-1.5h0.047l-0.047-12h-1.5c0 0.82-0.68 1.5-1.5 1.5h-1.5l3 6c0 1.664-1.336 3-3 3h-1.5c-1.664 0-3-1.336-3-3l3-6h-1.5v-1.5h4.5c0-0.82 0.68-1.5 1.5-1.5h6c0.82 0 1.5 0.68 1.5 1.5h4.5v1.5h-1.5l3 6zM3.75 10.5l-2.25 4.5h4.5l-2.25-4.5zM19.5 15l-2.25-4.5-2.25 4.5h4.5z"></path>
</svg>
