<?xml version="1.0" encoding="utf-8"?>
<!-- Generated by IcoMoon.io -->
<!DOCTYPE svg PUBLIC "-//W3C//DTD SVG 1.1//EN" "http://www.w3.org/Graphics/SVG/1.1/DTD/svg11.dtd">
<svg version="1.1" xmlns="http://www.w3.org/2000/svg" xmlns:xlink="http://www.w3.org/1999/xlink" width="18" height="24" viewBox="0 0 18 24">
<path fill="#40c4ff" d="M8.25 0c-4.523 0-8.25 3.281-8.25 7.5 0 1.383 0.82 3.375 1.5 4.5 2.016 3.375 2.672 4.172 3 6v1.5h7.5v-1.5c0.328-1.828 0.984-2.625 3-6 0.68-1.125 1.5-3.117 1.5-4.5 0-4.219-3.727-7.5-8.25-7.5zM13.711 11.227c-0.375 0.656-0.703 1.195-1.008 1.664-1.289 2.109-1.875 3.094-2.18 4.852-0.023 0.070-0.023 0.164-0.023 0.258h-4.5c0-0.094 0-0.188-0.023-0.258-0.305-1.758-0.891-2.742-2.18-4.852-0.305-0.469-0.633-1.008-1.008-1.664-0.633-1.055-1.289-2.742-1.289-3.727 0-3.305 3.023-6 6.75-6 1.828 0 3.539 0.633 4.828 1.781 1.242 1.125 1.922 2.625 1.922 4.219 0 0.984-0.656 2.672-1.289 3.727zM4.5 21h7.5c-0.352 1.711-1.945 3-3.75 3s-3.398-1.289-3.75-3z"></path>
</svg>
