<?xml version="1.0" encoding="utf-8"?>
<!-- Generated by IcoMoon.io -->
<!DOCTYPE svg PUBLIC "-//W3C//DTD SVG 1.1//EN" "http://www.w3.org/Graphics/SVG/1.1/DTD/svg11.dtd">
<svg version="1.1" xmlns="http://www.w3.org/2000/svg" xmlns:xlink="http://www.w3.org/1999/xlink" width="24" height="24" viewBox="0 0 24 24">
<path fill="#40c4ff" d="M6 13.5h1.5v1.5h-1.5c-2.25 0-4.5-2.531-4.5-5.25s2.32-5.25 4.5-5.25h6c2.18 0 4.5 2.531 4.5 5.25 0 2.109-1.359 4.078-3 4.875v-1.734c0.867-0.68 1.5-1.898 1.5-3.141 0-1.922-1.523-3.75-3-3.75h-6c-1.477 0-3 1.828-3 3.75s1.5 3.75 3 3.75zM19.5 9h-1.5v1.5h1.5c1.5 0 3 1.828 3 3.75s-1.523 3.75-3 3.75h-6c-1.477 0-3-1.828-3-3.75 0-1.242 0.633-2.461 1.5-3.141v-1.734c-1.641 0.797-3 2.766-3 4.875 0 2.719 2.32 5.25 4.5 5.25h6c2.18 0 4.5-2.531 4.5-5.25s-2.25-5.25-4.5-5.25z"></path>
</svg>
