<?xml version="1.0" encoding="utf-8"?>
<!-- Generated by IcoMoon.io -->
<!DOCTYPE svg PUBLIC "-//W3C//DTD SVG 1.1//EN" "http://www.w3.org/Graphics/SVG/1.1/DTD/svg11.dtd">
<svg version="1.1" xmlns="http://www.w3.org/2000/svg" xmlns:xlink="http://www.w3.org/1999/xlink" width="18" height="24" viewBox="0 0 18 24">
<path fill="#40c4ff" d="M7.5 13.5h10.5v-3h-10.5v3zM7.5 19.5h10.5v-3h-10.5v3zM7.5 4.5v3h10.5v-3h-10.5zM1.852 10.5h1.828v-6h-0.844l-1.992 0.539v1.172l1.008-0.047v4.336zM4.43 15.328c0-0.844-0.281-1.828-2.25-1.828-0.773 0-1.5 0.141-1.945 0.375l0.023 1.547c0.492-0.234 0.984-0.352 1.57-0.352s0.75 0.258 0.75 0.656c0 0.609-0.703 1.359-2.578 2.625v1.172h4.5v-1.57l-2.133 0.047c1.148-0.703 2.039-1.547 2.039-2.648l0.023-0.023z"></path>
</svg>
