<?xml version="1.0" encoding="utf-8"?>
<!-- Generated by IcoMoon.io -->
<!DOCTYPE svg PUBLIC "-//W3C//DTD SVG 1.1//EN" "http://www.w3.org/Graphics/SVG/1.1/DTD/svg11.dtd">
<svg version="1.1" xmlns="http://www.w3.org/2000/svg" xmlns:xlink="http://www.w3.org/1999/xlink" width="18" height="24" viewBox="0 0 18 24">
<path fill="#40c4ff" d="M9 0c-4.969 0-9 3.75-9 8.25 0 6.773 9 15.75 9 15.75s9-8.977 9-15.75c0-4.5-4.031-8.25-9-8.25zM9 21.82c-2.789-3.047-7.5-9.164-7.5-13.57 0-3.727 3.375-6.75 7.5-6.75 2.016 0 3.914 0.727 5.344 2.039 1.383 1.289 2.156 2.953 2.156 4.711 0 4.406-4.711 10.523-7.5 13.57zM12 8.25c0 1.664-1.336 3-3 3s-3-1.336-3-3 1.336-3 3-3 3 1.336 3 3z"></path>
</svg>
