<?xml version="1.0" encoding="utf-8"?>
<!-- Generated by IcoMoon.io -->
<!DOCTYPE svg PUBLIC "-//W3C//DTD SVG 1.1//EN" "http://www.w3.org/Graphics/SVG/1.1/DTD/svg11.dtd">
<svg version="1.1" xmlns="http://www.w3.org/2000/svg" xmlns:xlink="http://www.w3.org/1999/xlink" width="18" height="24" viewBox="0 0 18 24">
<path fill="#40c4ff" d="M6 19.5h-1.5v-1.5h1.5v1.5zM18 10.5v10.5c0 0.82-0.68 1.5-1.5 1.5h-15c-0.82 0-1.5-0.68-1.5-1.5v-10.5c0-0.82 0.68-1.5 1.5-1.5h1.5v-3c0-3.305 2.695-6 6-6s6 2.695 6 6v3h1.5c0.82 0 1.5 0.68 1.5 1.5zM5.695 9h6.609v-3c0-1.828-1.477-3.305-3.305-3.305s-3.305 1.477-3.305 3.305v3zM16.5 10.5h-13.5v10.5h13.5v-10.5zM6 12h-1.5v1.5h1.5v-1.5zM6 15h-1.5v1.5h1.5v-1.5z"></path>
</svg>
