<?xml version="1.0" encoding="utf-8"?>
<!-- Generated by IcoMoon.io -->
<!DOCTYPE svg PUBLIC "-//W3C//DTD SVG 1.1//EN" "http://www.w3.org/Graphics/SVG/1.1/DTD/svg11.dtd">
<svg version="1.1" xmlns="http://www.w3.org/2000/svg" xmlns:xlink="http://www.w3.org/1999/xlink" width="21" height="24" viewBox="0 0 21 24">
<path fill="#40c4ff" d="M9 7.5h-3v-1.5h3v1.5zM13.5 9h-7.5v1.5h7.5v-1.5zM21 8.273v12.727c0 0.82-0.68 1.5-1.5 1.5h-18c-0.82 0-1.5-0.68-1.5-1.5v-12.727c0-0.492 0.234-0.938 0.633-1.219l2.367-1.688v-0.867c0-0.82 0.68-1.5 1.5-1.5h1.805l4.195-3 4.195 3h1.805c0.82 0 1.5 0.68 1.5 1.5v0.867l2.367 1.688c0.398 0.281 0.633 0.727 0.633 1.219zM4.5 11.25l6 3.75 6-3.75v-6.75h-12v6.75zM1.5 20.25l6.75-4.5-6.75-4.5v9zM18 21l-7.5-4.5-7.5 4.5h15zM19.5 11.25l-6.75 4.5 6.75 4.5v-9z"></path>
</svg>
