<?xml version="1.0" encoding="utf-8"?>
<!-- Generated by IcoMoon.io -->
<!DOCTYPE svg PUBLIC "-//W3C//DTD SVG 1.1//EN" "http://www.w3.org/Graphics/SVG/1.1/DTD/svg11.dtd">
<svg version="1.1" xmlns="http://www.w3.org/2000/svg" xmlns:xlink="http://www.w3.org/1999/xlink" width="24" height="24" viewBox="0 0 24 24">
<path fill="#40c4ff" d="M22.269 4.5h-20.538c-0.954 0-1.731 0.776-1.731 1.731v11.538c0 0.954 0.776 1.731 1.731 1.731h20.538c0.954 0 1.731-0.776 1.731-1.731v-11.538c0-0.954-0.776-1.731-1.731-1.731zM13.5 16.497l-3 0.003v-4.5l-2.25 2.885-2.25-2.885v4.5h-3v-9h3l2.25 3 2.25-3 3-0.003v9zM17.979 17.247l-3.729-5.247h2.25v-4.5h3v4.5h2.25l-3.771 5.247z"></path>
</svg>
