<?xml version="1.0" encoding="utf-8"?>
<!-- Generated by IcoMoon.io -->
<!DOCTYPE svg PUBLIC "-//W3C//DTD SVG 1.1//EN" "http://www.w3.org/Graphics/SVG/1.1/DTD/svg11.dtd">
<svg version="1.1" xmlns="http://www.w3.org/2000/svg" xmlns:xlink="http://www.w3.org/1999/xlink" width="24" height="24" viewBox="0 0 24 24">
<path fill="#40c4ff" d="M12 0c-6.627 0-12 5.373-12 12 0 5.303 3.438 9.8 8.207 11.386 0.6 0.11 0.819-0.261 0.819-0.577 0-0.286-0.011-1.232-0.017-2.234-3.017 0.55-3.79-0.739-4.042-1.415-0.129-0.347-0.713-1.412-1.228-1.694-0.422-0.23-1.014-0.779-0.021-0.791 0.948-0.011 1.625 0.874 1.839 1.236 1.077 1.822 2.81 1.304 3.492 0.996 0.109-0.773 0.42-1.304 0.762-1.602-2.664-0.303-5.466-1.333-5.466-5.931 0-1.311 0.468-2.38 1.234-3.22-0.122-0.305-0.535-1.526 0.119-3.177 0 0 1.006-0.322 3.3 1.23 0.957-0.267 1.983-0.399 3.003-0.404 1.020 0.004 2.046 0.138 3.004 0.405 2.29-1.554 3.297-1.23 3.297-1.23 0.656 1.653 0.243 2.873 0.12 3.176 0.769 0.84 1.233 1.909 1.233 3.22 0 4.61-2.807 5.625-5.48 5.922 0.432 0.372 0.814 1.102 0.814 2.221 0 1.604-0.016 2.898-0.016 3.293 0 0.319 0.218 0.693 0.826 0.576 4.765-1.589 8.2-6.086 8.2-11.386 0-6.627-5.373-12-12-12z"></path>
</svg>
