<?xml version="1.0" encoding="utf-8"?>
<!-- Generated by IcoMoon.io -->
<!DOCTYPE svg PUBLIC "-//W3C//DTD SVG 1.1//EN" "http://www.w3.org/Graphics/SVG/1.1/DTD/svg11.dtd">
<svg version="1.1" xmlns="http://www.w3.org/2000/svg" xmlns:xlink="http://www.w3.org/1999/xlink" width="24" height="24" viewBox="0 0 24 24">
<path fill="#40c4ff" d="M15 1.5c-0.258 0-0.539 0.070-0.773 0.211-2.156 1.313-7.477 5.156-9.727 5.789-2.063 0-4.5 1.008-4.5 3.75s2.438 3.75 4.5 3.75c0.445 0.117 0.961 0.352 1.5 0.609v6.891h3v-5.18c2.016 1.289 4.031 2.742 5.227 3.469 0.234 0.141 0.516 0.211 0.773 0.211 0.773 0 1.5-0.633 1.5-1.5v-16.5c0-0.867-0.727-1.5-1.5-1.5zM15 19.5c-0.563-0.352-1.336-0.867-2.25-1.5-0.234-0.164-0.492-0.328-0.75-0.516v-12.516c0.234-0.164 0.469-0.305 0.703-0.469 0.914-0.609 1.734-1.148 2.297-1.5v16.5zM18 10.5h6v1.5h-6v-1.5zM18 13.5l6 3v1.5l-6-3v-1.5zM24 4.5v1.5l-6 3v-1.5l6-3z"></path>
</svg>
