<?xml version="1.0" encoding="utf-8"?>
<!-- Generated by IcoMoon.io -->
<!DOCTYPE svg PUBLIC "-//W3C//DTD SVG 1.1//EN" "http://www.w3.org/Graphics/SVG/1.1/DTD/svg11.dtd">
<svg version="1.1" xmlns="http://www.w3.org/2000/svg" xmlns:xlink="http://www.w3.org/1999/xlink" width="20" height="24" viewBox="0 0 20 24">
<path fill="#40c4ff" d="M10.938 2.323c-5.345-0.656-10.209 3.144-10.866 8.489s3.144 10.209 8.489 10.866c1.674 0.205 3.401-0.021 5-0.702l-0-0.001c0.572-0.243 0.839-0.903 0.596-1.475s-0.903-0.839-1.475-0.596l-0-0c-1.23 0.524-2.558 0.698-3.846 0.541-4.111-0.505-7.035-4.247-6.53-8.358s4.247-7.035 8.358-6.53c4.111 0.505 7.035 4.247 6.53 8.358-0.101 0.822-0.505 1.306-1.444 1.306-0.996 0-1.5-1.076-1.5-1.904v-2.941c0-0.621-0.504-1.125-1.125-1.125-0.227 0-0.439 0.068-0.616 0.184-0.602-0.475-1.346-0.794-2.211-0.9-2.467-0.303-4.712 1.451-5.015 3.918s1.451 4.712 3.918 5.015c1.345 0.165 2.724-0.345 3.7-1.245 0.585 0.659 1.403 1.116 2.347 1.232 2.056 0.252 3.927-1.209 4.179-3.265 0.656-5.345-3.144-10.209-8.489-10.866zM11.983 12.274c-0.151 1.233-1.274 2.11-2.507 1.959s-2.11-1.274-1.959-2.507 1.274-2.11 2.507-1.959c1.233 0.151 2.11 1.274 1.959 2.507z"></path>
</svg>
