<?xml version="1.0" encoding="utf-8"?>
<!-- Generated by IcoMoon.io -->
<!DOCTYPE svg PUBLIC "-//W3C//DTD SVG 1.1//EN" "http://www.w3.org/Graphics/SVG/1.1/DTD/svg11.dtd">
<svg version="1.1" xmlns="http://www.w3.org/2000/svg" xmlns:xlink="http://www.w3.org/1999/xlink" width="24" height="24" viewBox="0 0 24 24">
<path fill="#40c4ff" d="M23.25 7.055l-10.5-7.055-10.5 7.055c-0.445 0.281-0.75 0.68-0.75 1.195v15.75l11.25-6 11.25 6v-15.75c0-0.516-0.305-0.914-0.75-1.195zM22.5 21.75l-9-4.875v-1.875h-1.5v1.875l-9 4.875v-13.5l9-6v6.75h1.5v-6.75l9 6v13.5zM9 10.5h7.5v-3l4.5 4.5-4.5 4.5v-3h-7.5v3l-4.5-4.5 4.5-4.5v3z"></path>
</svg>
