<?xml version="1.0" encoding="utf-8"?>
<!-- Generated by IcoMoon.io -->
<!DOCTYPE svg PUBLIC "-//W3C//DTD SVG 1.1//EN" "http://www.w3.org/Graphics/SVG/1.1/DTD/svg11.dtd">
<svg version="1.1" xmlns="http://www.w3.org/2000/svg" xmlns:xlink="http://www.w3.org/1999/xlink" width="24" height="24" viewBox="0 0 24 24">
<path fill="#40c4ff" d="M11.742 13.781l-5.742-1.781s0 2.25 0 3.75 2.695 2.25 6 2.25 6-0.75 6-2.25 0-3.75 0-3.75l-5.742 1.781c-0.164 0.047-0.352 0.047-0.539 0h0.023zM12.164 4.195c-0.094-0.023-0.211-0.023-0.305 0l-11.461 3.563c-0.492 0.164-0.492 0.844 0 1.008l2.602 0.82v2.648c-0.445 0.258-0.75 0.75-0.75 1.289 0 0.281 0.070 0.539 0.211 0.75-0.117 0.211-0.211 0.469-0.211 0.75v3.867c0 0.82 3 0.82 3 0v-3.867c0-0.281-0.070-0.539-0.211-0.75 0.117-0.211 0.211-0.469 0.211-0.75 0-0.563-0.305-1.031-0.75-1.289v-2.18l7.336 2.297c0.094 0.023 0.211 0.023 0.305 0l11.461-3.563c0.492-0.164 0.492-0.844 0-1.008l-11.438-3.586zM12.023 9c-0.82 0-1.5-0.328-1.5-0.75s0.68-0.75 1.5-0.75 1.5 0.328 1.5 0.75-0.68 0.75-1.5 0.75z"></path>
</svg>
