<?xml version="1.0" encoding="utf-8"?>
<!-- Generated by IcoMoon.io -->
<!DOCTYPE svg PUBLIC "-//W3C//DTD SVG 1.1//EN" "http://www.w3.org/Graphics/SVG/1.1/DTD/svg11.dtd">
<svg version="1.1" xmlns="http://www.w3.org/2000/svg" xmlns:xlink="http://www.w3.org/1999/xlink" width="24" height="24" viewBox="0 0 24 24">
<path fill="#40c4ff" d="M12 4.219v15.563c0 1.008-1.219 1.5-1.922 0.797l-5.578-5.578h-3c-0.82 0-1.5-0.68-1.5-1.5v-3c0-0.82 0.68-1.5 1.5-1.5h3l5.578-5.578c0.703-0.703 1.922-0.211 1.922 0.797zM23.297 9.047l-1.594-1.594-2.953 2.953-2.953-2.953-1.594 1.594 2.953 2.953-2.953 2.953 1.594 1.594 2.953-2.953 2.953 2.953 1.594-1.594-2.953-2.953 2.953-2.953z"></path>
</svg>
