<?xml version="1.0" encoding="utf-8"?>
<!-- Generated by IcoMoon.io -->
<!DOCTYPE svg PUBLIC "-//W3C//DTD SVG 1.1//EN" "http://www.w3.org/Graphics/SVG/1.1/DTD/svg11.dtd">
<svg version="1.1" xmlns="http://www.w3.org/2000/svg" xmlns:xlink="http://www.w3.org/1999/xlink" width="24" height="24" viewBox="0 0 24 24">
<path fill="#40c4ff" d="M24 7.5v4.5c0 0.82-0.68 1.5-1.5 1.5h-4.5v3l-4.5-4.5 4.5-4.5v3h3v-3h3zM12 12c0 3.305-2.695 6-6 6s-6-2.695-6-6 2.695-6 6-6 6 2.695 6 6zM2.25 14.484l6.234-6.234c-0.727-0.469-1.57-0.75-2.484-0.75-2.484 0-4.5 2.016-4.5 4.5 0 0.914 0.281 1.758 0.75 2.484zM10.5 12c0-0.914-0.281-1.758-0.75-2.484l-6.234 6.234c0.727 0.469 1.57 0.75 2.484 0.75 2.484 0 4.5-2.016 4.5-4.5z"></path>
</svg>
