<?xml version="1.0" encoding="utf-8"?>
<!-- Generated by IcoMoon.io -->
<!DOCTYPE svg PUBLIC "-//W3C//DTD SVG 1.1//EN" "http://www.w3.org/Graphics/SVG/1.1/DTD/svg11.dtd">
<svg version="1.1" xmlns="http://www.w3.org/2000/svg" xmlns:xlink="http://www.w3.org/1999/xlink" width="24" height="24" viewBox="0 0 24 24">
<path fill="#40c4ff" d="M22.050 6.508c0.193-0.474 0.829-2.385-0.201-4.967 0 0-1.579-0.499-5.153 1.943-1.497-0.412-3.105-0.473-4.696-0.473s-3.198 0.062-4.699 0.475c-3.573-2.444-5.151-1.945-5.151-1.945-1.029 2.583-0.393 4.493-0.2 4.967-1.211 1.31-1.95 2.981-1.95 5.031 0 7.716 4.998 9.461 11.973 9.461 6.978 0 12.027-1.745 12.027-9.461 0-2.050-0.738-3.721-1.95-5.031zM12 19.523c-4.955 0-8.971-0.231-8.971-5.032 0-1.147 0.564-2.217 1.531-3.101 1.611-1.476 4.343-0.696 7.44-0.696 3.1 0 5.827-0.78 7.44 0.694 0.968 0.885 1.534 1.953 1.534 3.101-0 4.802-4.020 5.033-8.974 5.033zM8.23 12.010c-0.995 0-1.802 1.197-1.802 2.676s0.807 2.679 1.802 2.679c0.993 0 1.8-1.2 1.8-2.679s-0.807-2.676-1.8-2.676zM15.771 12.010c-0.993 0-1.802 1.197-1.802 2.676s0.809 2.679 1.802 2.679 1.8-1.2 1.8-2.679c0.001-1.479-0.806-2.676-1.8-2.676z"></path>
</svg>
