<?xml version="1.0" encoding="utf-8"?>
<!-- Generated by IcoMoon.io -->
<!DOCTYPE svg PUBLIC "-//W3C//DTD SVG 1.1//EN" "http://www.w3.org/Graphics/SVG/1.1/DTD/svg11.dtd">
<svg version="1.1" xmlns="http://www.w3.org/2000/svg" xmlns:xlink="http://www.w3.org/1999/xlink" width="21" height="24" viewBox="0 0 21 24">
<path fill="#40c4ff" d="M7.125 7.43c0.82 0.961 2.016 1.57 3.375 1.57s2.555-0.609 3.375-1.57c0.516 0.938 1.5 1.57 2.625 1.57 1.664 0 3-1.336 3-3s-1.336-3-3-3c-0.609 0-1.148 0.188-1.617 0.492-0.469-1.992-2.25-3.492-4.383-3.492s-3.914 1.5-4.383 3.492c-0.469-0.305-1.008-0.492-1.617-0.492-1.664 0-3 1.336-3 3s1.336 3 3 3c1.125 0 2.109-0.633 2.625-1.57zM14.93 5.156c0.305-0.563 0.891-0.961 1.57-0.961 0.984 0 1.805 0.82 1.805 1.805s-0.82 1.805-1.805 1.805-1.758-0.797-1.781-1.758c0.094-0.281 0.164-0.586 0.211-0.891zM10.5 1.477c1.664 0 3.023 1.359 3.023 3.023s-1.359 3.023-3.023 3.023-3.023-1.359-3.023-3.023 1.359-3.023 3.023-3.023zM4.5 7.805c-0.984 0-1.805-0.82-1.805-1.805s0.82-1.805 1.805-1.805c0.68 0 1.266 0.398 1.57 0.961 0.047 0.305 0.117 0.609 0.211 0.891-0.023 0.961-0.797 1.758-1.781 1.758zM19.5 9h-18c-0.82 0-1.5 0.68-1.5 1.5v4.5c0 0.82 0.68 1.5 1.5 1.5v3c0 0.82 0.68 1.5 1.5 1.5h1.5c0.82 0 1.5-0.68 1.5-1.5v-1.5h1.5v4.5c0 0.82 0.68 1.5 1.5 1.5h3c0.82 0 1.5-0.68 1.5-1.5v-4.5h1.5v1.5c0 0.82 0.68 1.5 1.5 1.5h1.5c0.82 0 1.5-0.68 1.5-1.5v-3c0.82 0 1.5-0.68 1.5-1.5v-4.5c0-0.82-0.68-1.5-1.5-1.5zM4.5 19.5h-1.5v-4.5h-1.5v-4.5h3v9zM15 16.5h-1.5v-3h-1.5v9h-3v-9h-1.5v3h-1.5v-6h9v6zM19.5 15h-1.5v4.5h-1.5v-9h3v4.5z"></path>
</svg>
