<?xml version="1.0" encoding="utf-8"?>
<!-- Generated by IcoMoon.io -->
<!DOCTYPE svg PUBLIC "-//W3C//DTD SVG 1.1//EN" "http://www.w3.org/Graphics/SVG/1.1/DTD/svg11.dtd">
<svg version="1.1" xmlns="http://www.w3.org/2000/svg" xmlns:xlink="http://www.w3.org/1999/xlink" width="24" height="24" viewBox="0 0 24 24">
<path fill="#40c4ff" d="M0 6.398v11.203c0 0.68 0.445 1.266 1.125 1.453l9.75 2.602c0.234 0.070 0.516 0.070 0.75 0l9.75-2.602c0.68-0.188 1.125-0.773 1.125-1.453v-11.203c0-0.68-0.445-1.266-1.125-1.453l-9.75-2.602c-0.234-0.047-0.516-0.047-0.75 0l-9.75 2.602c-0.68 0.188-1.125 0.773-1.125 1.453zM10.5 20.039l-9-2.391v-10.148l9 2.414v10.125zM1.5 6l3.75-1.008 9.75 2.602-3.75 1.008-9.75-2.602zM21 17.648l-9 2.391v-10.125l3-0.82v3.656l3-0.797v-3.656l3-0.797v10.148zM18 6.797l-9.75-2.602 3-0.797 9.75 2.602-3 0.797z"></path>
</svg>
