<?xml version="1.0" encoding="utf-8"?>
<!-- Generated by IcoMoon.io -->
<!DOCTYPE svg PUBLIC "-//W3C//DTD SVG 1.1//EN" "http://www.w3.org/Graphics/SVG/1.1/DTD/svg11.dtd">
<svg version="1.1" xmlns="http://www.w3.org/2000/svg" xmlns:xlink="http://www.w3.org/1999/xlink" width="18" height="24" viewBox="0 0 18 24">
<path fill="#40c4ff" d="M9 0c-4.971 0-9 4.029-9 9v1.5c0 0.828 0.672 1.5 1.5 1.5v7.5c0 1.657 3.358 3 7.5 3s7.5-1.343 7.5-3v-7.5c0.828 0 1.5-0.672 1.5-1.5v-1.5c0-4.971-4.029-9-9-9zM13.5 15v0.75c0 0.414-0.336 0.75-0.75 0.75s-0.75-0.336-0.75-0.75v-0.75c0-0.414-0.336-0.75-0.75-0.75s-0.75 0.336-0.75 0.75v3.75c0 0.414-0.336 0.75-0.75 0.75s-0.75-0.336-0.75-0.75v-3c0-0.414-0.336-0.75-0.75-0.75s-0.75 0.336-0.75 0.75v0.75c0 0.828-0.672 1.5-1.5 1.5s-1.5-0.672-1.5-1.5v-1.5c-0.828 0-1.5-0.672-1.5-1.5v-2.7c1.368 0.729 3.547 1.2 6 1.2s4.632-0.471 6-1.2v2.7c0 0.828-0.672 1.5-1.5 1.5zM9 10.5c-2.518 0-4.673-0.62-5.563-1.5 0.89-0.88 3.045-1.5 5.563-1.5s4.673 0.62 5.563 1.5c-0.89 0.88-3.045 1.5-5.563 1.5zM9 6c-4.14 0-7.496 1.341-7.5 2.997-0-0-0-0-0-0 0.002-4.141 3.359-7.497 7.5-7.497 4.142 0 7.5 3.358 7.5 7.5 0-1.657-3.358-3-7.5-3z"></path>
</svg>
