<?xml version="1.0" encoding="utf-8"?>
<!-- Generated by IcoMoon.io -->
<!DOCTYPE svg PUBLIC "-//W3C//DTD SVG 1.1//EN" "http://www.w3.org/Graphics/SVG/1.1/DTD/svg11.dtd">
<svg version="1.1" xmlns="http://www.w3.org/2000/svg" xmlns:xlink="http://www.w3.org/1999/xlink" width="12" height="24" viewBox="0 0 12 24">
<path fill="#40c4ff" d="M10.5 9h-9c-0.82 0-1.5 0.68-1.5 1.5v7.5h3v4.5c0 0.82 0.68 1.5 1.5 1.5h3c0.82 0 1.5-0.68 1.5-1.5v-4.5h3v-7.5c0-0.82-0.68-1.5-1.5-1.5zM10.5 16.5h-1.5v-3h-1.5v9h-3v-9h-1.5v3h-1.5v-6h9v6zM10.5 4.5c0-2.484-2.016-4.5-4.5-4.5s-4.5 2.016-4.5 4.5 2.016 4.5 4.5 4.5 4.5-2.016 4.5-4.5zM6 7.5c-1.664 0-3-1.336-3-3s1.336-3 3-3 3 1.336 3 3-1.336 3-3 3z"></path>
</svg>
