<?xml version="1.0" encoding="utf-8"?>
<!-- Generated by IcoMoon.io -->
<!DOCTYPE svg PUBLIC "-//W3C//DTD SVG 1.1//EN" "http://www.w3.org/Graphics/SVG/1.1/DTD/svg11.dtd">
<svg version="1.1" xmlns="http://www.w3.org/2000/svg" xmlns:xlink="http://www.w3.org/1999/xlink" width="21" height="24" viewBox="0 0 21 24">
<path fill="#40c4ff" d="M9 15h3v3h-3v-3zM15 9.75c0 3.211-3 3.75-3 3.75h-3c0-0.82 0.68-1.5 1.5-1.5h0.75c0.422 0 0.75-0.328 0.75-0.75v-1.5c0-0.422-0.328-0.75-0.75-0.75h-1.5c-0.422 0-0.75 0.328-0.75 0.75v0.75h-3c0-2.25 2.25-4.5 4.5-4.5s4.5 1.5 4.5 3.75zM10.5 3.445c4.711 0 8.555 3.844 8.555 8.555s-3.844 8.555-8.555 8.555-8.555-3.844-8.555-8.555 3.844-8.555 8.555-8.555zM10.5 1.5c-5.789 0-10.5 4.711-10.5 10.5s4.711 10.5 10.5 10.5 10.5-4.711 10.5-10.5-4.711-10.5-10.5-10.5z"></path>
</svg>
