<?xml version="1.0" encoding="utf-8"?>
<!-- Generated by IcoMoon.io -->
<!DOCTYPE svg PUBLIC "-//W3C//DTD SVG 1.1//EN" "http://www.w3.org/Graphics/SVG/1.1/DTD/svg11.dtd">
<svg version="1.1" xmlns="http://www.w3.org/2000/svg" xmlns:xlink="http://www.w3.org/1999/xlink" width="24" height="24" viewBox="0 0 24 24">
<path fill="#40c4ff" d="M7.192 9.158c0.372-0.382 0.372-1.002 0-1.384-0.481-0.495-0.718-1.135-0.72-1.784 0.001-0.651 0.239-1.29 0.72-1.786 0.372-0.383 0.372-1.002 0-1.384-0.186-0.192-0.428-0.288-0.673-0.288-0.243 0-0.488 0.094-0.674 0.286-0.85 0.874-1.28 2.026-1.279 3.171-0.001 1.144 0.429 2.295 1.279 3.168 0.372 0.382 0.974 0.382 1.346 0zM3.494 0.777c-0.19-0.195-0.438-0.292-0.687-0.292-0.247 0-0.496 0.097-0.685 0.292-1.401 1.438-2.105 3.328-2.103 5.213-0.001 1.883 0.703 3.777 2.102 5.213 0.379 0.389 0.993 0.389 1.372 0 0.378-0.389 0.378-1.020 0-1.408-1.024-1.054-1.534-2.425-1.534-3.806s0.51-2.753 1.534-3.806c0.378-0.39 0.378-1.021 0.001-1.408zM12.024 8.434c1.344 0 2.436-1.092 2.436-2.436s-1.092-2.436-2.436-2.436c-1.345 0-2.436 1.092-2.436 2.436s1.092 2.436 2.436 2.436zM21.88 0.791c-0.379-0.389-0.993-0.389-1.371 0-0.379 0.389-0.379 1.020 0 1.408 1.023 1.053 1.533 2.425 1.533 3.805 0 1.379-0.511 2.751-1.535 3.804-0.378 0.389-0.378 1.021 0.001 1.408 0.189 0.195 0.436 0.292 0.685 0.292 0.247 0 0.496-0.097 0.685-0.292 1.4-1.436 2.104-3.33 2.101-5.213 0.003-1.882-0.701-3.775-2.101-5.212zM12.030 10.38v0c-0.621 0.001-1.243-0.152-1.807-0.455l-4.714 12.566h2.231l1.285-1.499h5.997l1.265 1.499h2.233l-4.713-12.563c-0.556 0.299-1.166 0.452-1.778 0.452zM12.015 11.098l1.508 5.395h-2.999l1.491-5.395zM9.025 19.492l1.499-1.499h2.999l1.499 1.499h-5.997zM16.809 2.837c-0.372 0.382-0.372 1.002 0 1.384 0.48 0.495 0.717 1.137 0.719 1.784-0.001 0.651-0.239 1.291-0.719 1.786-0.372 0.383-0.372 1.002 0 1.384 0.184 0.192 0.428 0.286 0.674 0.286 0.242 0 0.486-0.094 0.672-0.286 0.851-0.873 1.281-2.026 1.278-3.17 0.003-1.144-0.426-2.295-1.278-3.168-0.37-0.382-0.974-0.382-1.346 0z"></path>
</svg>
