<?xml version="1.0" encoding="utf-8"?>
<!-- Generated by IcoMoon.io -->
<!DOCTYPE svg PUBLIC "-//W3C//DTD SVG 1.1//EN" "http://www.w3.org/Graphics/SVG/1.1/DTD/svg11.dtd">
<svg version="1.1" xmlns="http://www.w3.org/2000/svg" xmlns:xlink="http://www.w3.org/1999/xlink" width="24" height="24" viewBox="0 0 24 24">
<path fill="#40c4ff" d="M22.5 0h-9v10.5c0 0.82 0.68 1.5 1.5 1.5h1.5v1.5h1.5v-1.5h4.5c0.82 0 1.5-0.68 1.5-1.5v-9c0-0.82-0.68-1.5-1.5-1.5zM16.5 10.5h-1.5v-1.5h1.5v1.5zM22.5 10.5h-4.5v-1.5h4.5v1.5zM22.5 7.5h-6v-6h6v6zM6 7.5h-1.5v-1.5h1.5v1.5zM6 4.5h-1.5v-1.5h1.5v1.5zM3 1.5h9v-1.5h-10.5c-0.82 0-1.5 0.68-1.5 1.5v18c0 0.82 0.68 1.5 1.5 1.5h3v3l2.25-2.25 2.25 2.25v-3h7.5c0.82 0 1.5-0.68 1.5-1.5v-4.5h-15v-13.5zM16.5 16.5v3h-7.5v-1.5h-4.5v1.5h-3v-3h15zM4.5 12h1.5v1.5h-1.5v-1.5zM6 10.5h-1.5v-1.5h1.5v1.5z"></path>
</svg>
