<?xml version="1.0" encoding="utf-8"?>
<!-- Generated by IcoMoon.io -->
<!DOCTYPE svg PUBLIC "-//W3C//DTD SVG 1.1//EN" "http://www.w3.org/Graphics/SVG/1.1/DTD/svg11.dtd">
<svg version="1.1" xmlns="http://www.w3.org/2000/svg" xmlns:xlink="http://www.w3.org/1999/xlink" width="18" height="24" viewBox="0 0 18 24">
<path fill="#40c4ff" d="M6 4.5h-1.5v-1.5h1.5v1.5zM4.5 7.5h1.5v-1.5h-1.5v1.5zM10.5 7.5l-4.5 6h3v10.5h3v-10.5h3l-4.5-6zM16.5 0h-15c-0.82 0-1.5 0.68-1.5 1.5v18c0 0.82 0.68 1.5 1.5 1.5h6v-1.5h-6v-3h6v-1.5h-4.5v-13.5h13.523l-0.023 13.5h-3v1.5h3v3h-3v1.5h3c0.82 0 1.5-0.68 1.5-1.5v-18c0-0.82-0.68-1.5-1.5-1.5z"></path>
</svg>
