<?xml version="1.0" encoding="utf-8"?>
<!-- Generated by IcoMoon.io -->
<!DOCTYPE svg PUBLIC "-//W3C//DTD SVG 1.1//EN" "http://www.w3.org/Graphics/SVG/1.1/DTD/svg11.dtd">
<svg version="1.1" xmlns="http://www.w3.org/2000/svg" xmlns:xlink="http://www.w3.org/1999/xlink" width="15" height="24" viewBox="0 0 15 24">
<path fill="#40c4ff" d="M12 1.5c-1.664 0-3 1.336-3 3 0 1.102 0.609 2.063 1.5 2.578v1.922l-3 3-3-3v-1.922c0.891-0.516 1.5-1.477 1.5-2.578 0-1.664-1.336-3-3-3s-3 1.336-3 3c0 1.102 0.609 2.063 1.5 2.578v2.672l4.5 4.5v2.672c-0.891 0.516-1.5 1.477-1.5 2.578 0 1.664 1.336 3 3 3s3-1.336 3-3c0-1.102-0.609-2.063-1.5-2.578v-2.672l4.5-4.5v-2.672c0.891-0.516 1.5-1.477 1.5-2.578 0-1.664-1.336-3-3-3zM3 6.305c-0.984 0-1.805-0.82-1.805-1.805s0.82-1.805 1.805-1.805 1.805 0.82 1.805 1.805-0.82 1.805-1.805 1.805zM7.5 21.305c-0.984 0-1.805-0.82-1.805-1.805s0.82-1.805 1.805-1.805 1.805 0.82 1.805 1.805-0.82 1.805-1.805 1.805zM12 6.305c-0.984 0-1.805-0.82-1.805-1.805s0.82-1.805 1.805-1.805 1.805 0.82 1.805 1.805-0.82 1.805-1.805 1.805z"></path>
</svg>
