<?xml version="1.0" encoding="utf-8"?>
<!-- Generated by IcoMoon.io -->
<!DOCTYPE svg PUBLIC "-//W3C//DTD SVG 1.1//EN" "http://www.w3.org/Graphics/SVG/1.1/DTD/svg11.dtd">
<svg version="1.1" xmlns="http://www.w3.org/2000/svg" xmlns:xlink="http://www.w3.org/1999/xlink" width="18" height="24" viewBox="0 0 18 24">
<path fill="#40c4ff" d="M6 13.5h-1.5v-1.5h1.5v1.5zM6 9h-1.5v1.5h1.5v-1.5zM6 6h-1.5v1.5h1.5v-1.5zM6 3h-1.5v1.5h1.5v-1.5zM18 1.5v18c0 0.82-0.68 1.5-1.5 1.5h-7.5v3l-2.25-2.25-2.25 2.25v-3h-3c-0.82 0-1.5-0.68-1.5-1.5v-18c0-0.82 0.68-1.5 1.5-1.5h15c0.82 0 1.5 0.68 1.5 1.5zM16.5 16.5h-15v3h3v-1.5h4.5v1.5h7.5v-3zM16.5 1.5h-13.5v13.5h13.5v-13.5z"></path>
</svg>
