<?xml version="1.0" encoding="utf-8"?>
<!-- Generated by IcoMoon.io -->
<!DOCTYPE svg PUBLIC "-//W3C//DTD SVG 1.1//EN" "http://www.w3.org/Graphics/SVG/1.1/DTD/svg11.dtd">
<svg version="1.1" xmlns="http://www.w3.org/2000/svg" xmlns:xlink="http://www.w3.org/1999/xlink" width="24" height="24" viewBox="0 0 24 24">
<path fill="#40c4ff" d="M24 0s-0.141 0.563-0.445 1.594c-0.305 1.055-0.82 2.367-1.594 3.984-1.055-0.117-1.898-0.492-2.484-1.078s-0.938-1.406-1.055-2.461c1.617-0.773 2.93-1.313 3.961-1.617 1.055-0.305 1.617-0.422 1.617-0.422zM18.258 5.742c-0.398-0.398-0.703-0.82-0.938-1.313-0.234-0.469-0.398-0.984-0.516-1.523-0.867 0.492-1.734 1.055-2.602 1.688-0.867 0.656-1.711 1.406-2.531 2.227-1.055 1.055-1.992 2.719-2.672 3.68h-4.5l-4.5 4.5h4.5l3-3c-0.516 1.148-1.523 4.477-1.5 4.5l1.5 1.5c0.023 0.023 3.352-0.961 4.5-1.5l-3 3v4.5l4.5-4.5v-4.5c0.961-0.68 2.625-1.641 3.68-2.672 0.82-0.82 1.57-1.688 2.203-2.555 0.656-0.867 1.219-1.734 1.711-2.578-0.539-0.117-1.055-0.281-1.547-0.516-0.469-0.234-0.891-0.539-1.289-0.938z"></path>
</svg>
