<?xml version="1.0" encoding="utf-8"?>
<!-- Generated by IcoMoon.io -->
<!DOCTYPE svg PUBLIC "-//W3C//DTD SVG 1.1//EN" "http://www.w3.org/Graphics/SVG/1.1/DTD/svg11.dtd">
<svg version="1.1" xmlns="http://www.w3.org/2000/svg" xmlns:xlink="http://www.w3.org/1999/xlink" width="21" height="24" viewBox="0 0 21 24">
<path fill="#40c4ff" d="M19.5 15h1.5v4.5c0 0.82-0.68 1.5-1.5 1.5h-4.5v-1.5h4.5v-4.5zM1.5 15h-1.5v4.5c0 0.82 0.68 1.5 1.5 1.5h4.5v-1.5h-4.5v-4.5zM1.5 4.5h4.5v-1.5h-4.5c-0.82 0-1.5 0.68-1.5 1.5v4.5h1.5v-4.5zM3 6h15v12h-15v-12zM6 15h9v-6h-9v6zM19.5 3h-4.5v1.5h4.5v4.5h1.5v-4.5c0-0.82-0.68-1.5-1.5-1.5z"></path>
</svg>
