<?xml version="1.0" encoding="utf-8"?>
<!-- Generated by IcoMoon.io -->
<!DOCTYPE svg PUBLIC "-//W3C//DTD SVG 1.1//EN" "http://www.w3.org/Graphics/SVG/1.1/DTD/svg11.dtd">
<svg version="1.1" xmlns="http://www.w3.org/2000/svg" xmlns:xlink="http://www.w3.org/1999/xlink" width="21" height="24" viewBox="0 0 21 24">
<path fill="#40c4ff" d="M3 6h-3v-1.5h3v-3h1.5v3c0 0.82-0.68 1.5-1.5 1.5zM3 18h-3v1.5h3v3h1.5v-3c0-0.82-0.68-1.5-1.5-1.5zM16.5 15c0 0.82-0.68 1.5-1.5 1.5h-9c-0.82 0-1.5-0.68-1.5-1.5v-6c0-0.82 0.68-1.5 1.5-1.5h9c0.82 0 1.5 0.68 1.5 1.5v6zM13.5 10.5h-6v3h6v-3zM16.5 19.5v3h1.5v-3h3v-1.5h-3c-0.82 0-1.5 0.68-1.5 1.5zM18 4.5v-3h-1.5v3c0 0.82 0.68 1.5 1.5 1.5h3v-1.5h-3z"></path>
</svg>
