<?xml version="1.0" encoding="utf-8"?>
<!-- Generated by IcoMoon.io -->
<!DOCTYPE svg PUBLIC "-//W3C//DTD SVG 1.1//EN" "http://www.w3.org/Graphics/SVG/1.1/DTD/svg11.dtd">
<svg version="1.1" xmlns="http://www.w3.org/2000/svg" xmlns:xlink="http://www.w3.org/1999/xlink" width="24" height="24" viewBox="0 0 24 24">
<path fill="#40c4ff" d="M23.555 21.445l-5.719-5.742c1.055-1.477 1.664-3.258 1.664-5.203 0-4.969-4.031-9-9-9s-9 4.031-9 9 4.031 9 9 9c1.945 0 3.727-0.609 5.203-1.664l5.742 5.719c0.281 0.305 0.68 0.445 1.055 0.445s0.773-0.141 1.055-0.445c0.586-0.586 0.586-1.523 0-2.109zM10.5 17.555c-3.891 0-7.055-3.164-7.055-7.055s3.164-7.055 7.055-7.055 7.055 3.164 7.055 7.055-3.164 7.055-7.055 7.055z"></path>
</svg>
