<?xml version="1.0" encoding="utf-8"?>
<!-- Generated by IcoMoon.io -->
<!DOCTYPE svg PUBLIC "-//W3C//DTD SVG 1.1//EN" "http://www.w3.org/Graphics/SVG/1.1/DTD/svg11.dtd">
<svg version="1.1" xmlns="http://www.w3.org/2000/svg" xmlns:xlink="http://www.w3.org/1999/xlink" width="18" height="24" viewBox="0 0 18 24">
<path fill="#40c4ff" d="M16.5 9h-15c-0.82 0-1.5 0.68-1.5 1.5v3c0 0.82 0.68 1.5 1.5 1.5h15c0.82 0 1.5-0.68 1.5-1.5v-3c0-0.82-0.68-1.5-1.5-1.5zM3 13.5h-1.5v-3h1.5v3zM6 13.5h-1.5v-3h1.5v3zM9 13.5h-1.5v-3h1.5v3zM12 13.5h-1.5v-3h1.5v3zM16.5 1.5h-15c-0.82 0-1.5 0.68-1.5 1.5v3c0 0.82 0.68 1.5 1.5 1.5h15c0.82 0 1.5-0.68 1.5-1.5v-3c0-0.82-0.68-1.5-1.5-1.5zM3 6h-1.5v-3h1.5v3zM6 6h-1.5v-3h1.5v3zM9 6h-1.5v-3h1.5v3zM12 6h-1.5v-3h1.5v3zM16.5 4.5h-1.5v-1.5h1.5v1.5zM16.5 16.5h-15c-0.82 0-1.5 0.68-1.5 1.5v3c0 0.82 0.68 1.5 1.5 1.5h15c0.82 0 1.5-0.68 1.5-1.5v-3c0-0.82-0.68-1.5-1.5-1.5zM3 21h-1.5v-3h1.5v3zM6 21h-1.5v-3h1.5v3zM9 21h-1.5v-3h1.5v3zM12 21h-1.5v-3h1.5v3z"></path>
</svg>
