<?xml version="1.0" encoding="utf-8"?>
<!-- Generated by IcoMoon.io -->
<!DOCTYPE svg PUBLIC "-//W3C//DTD SVG 1.1//EN" "http://www.w3.org/Graphics/SVG/1.1/DTD/svg11.dtd">
<svg version="1.1" xmlns="http://www.w3.org/2000/svg" xmlns:xlink="http://www.w3.org/1999/xlink" width="24" height="24" viewBox="0 0 24 24">
<path fill="#40c4ff" d="M4.5 10.5h-1.5v-7.5h1.5v7.5zM3 21h1.5v-4.5h-1.5v4.5zM10.5 21h1.5v-9h-1.5v9zM18 21h1.5v-3h-1.5v3zM19.5 3h-1.5v9h1.5v-9zM12 3h-1.5v3h1.5v-3zM6 12h-4.5c-0.82 0-1.5 0.68-1.5 1.5s0.68 1.5 1.5 1.5h4.5c0.82 0 1.5-0.68 1.5-1.5s-0.68-1.5-1.5-1.5zM13.5 7.5h-4.5c-0.82 0-1.5 0.68-1.5 1.5s0.68 1.5 1.5 1.5h4.5c0.82 0 1.5-0.68 1.5-1.5s-0.68-1.5-1.5-1.5zM21 13.5h-4.5c-0.82 0-1.5 0.68-1.5 1.5s0.68 1.5 1.5 1.5h4.5c0.82 0 1.5-0.68 1.5-1.5s-0.68-1.5-1.5-1.5z"></path>
</svg>
