<?xml version="1.0" encoding="utf-8"?>
<!-- Generated by IcoMoon.io -->
<!DOCTYPE svg PUBLIC "-//W3C//DTD SVG 1.1//EN" "http://www.w3.org/Graphics/SVG/1.1/DTD/svg11.dtd">
<svg version="1.1" xmlns="http://www.w3.org/2000/svg" xmlns:xlink="http://www.w3.org/1999/xlink" width="21" height="24" viewBox="0 0 21 24">
<path fill="#40c4ff" d="M10.5 0l-10.5 3v9.023c0 7.008 7.969 11.977 10.5 11.977s10.5-4.969 10.5-11.977v-9.023l-10.5-3zM7.5 16.5l1.711-4.195c0.070-0.352-0.094-0.703-0.375-0.891-0.844-0.539-1.336-1.43-1.336-2.414 0-1.641 1.336-3 2.977-3 1.617 0 3.023 1.359 3.023 3 0 0.984-0.492 1.875-1.336 2.414-0.281 0.188-0.445 0.539-0.375 0.891l1.711 4.195h-6z"></path>
</svg>
