<?xml version="1.0" encoding="utf-8"?>
<!-- Generated by IcoMoon.io -->
<!DOCTYPE svg PUBLIC "-//W3C//DTD SVG 1.1//EN" "http://www.w3.org/Graphics/SVG/1.1/DTD/svg11.dtd">
<svg version="1.1" xmlns="http://www.w3.org/2000/svg" xmlns:xlink="http://www.w3.org/1999/xlink" width="24" height="24" viewBox="0 0 24 24">
<path fill="#40c4ff" d="M18 1.5c-3.314 0-6 1.963-6 4.38 0 2.903 0.75 4.55 0 9.12 0-6.75-4.148-9.511-6-9.511 0.077-0.754-0.726-0.989-0.726-0.989s-0.328 0.167-0.454 0.506c-0.404-0.47-0.847-0.411-0.847-0.411l-0.199 0.869c0 0-2.743 0.958-2.781 4.835 0.318 0.506 2.318 0.907 3.738 0.649 1.34 0.069 1.008 1.187 0.708 1.487-1.266 1.266-2.439-0.435-3.939-0.435s-1.5 1.5 0 1.5 1.5 1.5 4.5 1.5c-4.641 1.805 0 6 0 6h-1.5c-1.5 0-1.5 1.5-1.5 1.5s6 0 9 0c4.5 0 7.5-1.5 7.5-5.207 0-1.274-0.649-2.687-1.5-3.802-1.663-2.18 0.339-4.011 1.5-2.99s4.5 1.5 4.5-3c0-3.314-2.686-6-6-6zM3.75 9c-0.414 0-0.75-0.336-0.75-0.75s0.336-0.75 0.75-0.75c0.414 0 0.75 0.336 0.75 0.75s-0.336 0.75-0.75 0.75z"></path>
</svg>
