<?xml version="1.0" encoding="utf-8"?>
<!-- Generated by IcoMoon.io -->
<!DOCTYPE svg PUBLIC "-//W3C//DTD SVG 1.1//EN" "http://www.w3.org/Graphics/SVG/1.1/DTD/svg11.dtd">
<svg version="1.1" xmlns="http://www.w3.org/2000/svg" xmlns:xlink="http://www.w3.org/1999/xlink" width="18" height="24" viewBox="0 0 18 24">
<path fill="#40c4ff" d="M15.362 11.097c0.278 1.915-0.306 3.932-1.8 5.405-2.208 2.178-5.613 2.446-8.118 0.81l1.755-1.711-6.45-0.899 0.9 6.299 1.969-1.887c3.537 2.607 8.553 2.361 11.767-0.81 1.863-1.838 2.713-4.279 2.607-6.687l-2.631-0.519zM4.44 7.501c2.207-2.178 5.612-2.448 8.117-0.81l-1.758 1.71 6.45 0.9-0.899-6.302-1.967 1.891c-3.538-2.61-8.552-2.361-11.767 0.81-1.863 1.838-2.712 4.278-2.607 6.686l2.631 0.519c-0.278-1.916 0.308-3.931 1.802-5.404z"></path>
</svg>
