<?xml version="1.0" encoding="utf-8"?>
<!-- Generated by IcoMoon.io -->
<!DOCTYPE svg PUBLIC "-//W3C//DTD SVG 1.1//EN" "http://www.w3.org/Graphics/SVG/1.1/DTD/svg11.dtd">
<svg version="1.1" xmlns="http://www.w3.org/2000/svg" xmlns:xlink="http://www.w3.org/1999/xlink" width="21" height="24" viewBox="0 0 21 24">
<path fill="#40c4ff" d="M10.102 4.102c-0.703-0.703-1.664-1.102-2.648-1.102h-3.703c-2.063 0-3.75 1.688-3.75 3.75v3.703c0 0.984 0.398 1.945 1.102 2.648l9.094 9.094c0.586 0.586 1.523 0.586 2.109 0l6.891-6.891c0.586-0.586 0.586-1.523 0-2.109l-9.094-9.094zM2.063 12.141c-0.469-0.445-0.703-1.055-0.703-1.688v-3.703c0-1.313 1.078-2.391 2.391-2.391h3.703c0.633 0 1.242 0.234 1.688 0.703l9.211 9.188-7.102 7.102-9.188-9.211zM3 6h3v3h-3v-3z"></path>
</svg>
