<?xml version="1.0" encoding="utf-8"?>
<!-- Generated by IcoMoon.io -->
<!DOCTYPE svg PUBLIC "-//W3C//DTD SVG 1.1//EN" "http://www.w3.org/Graphics/SVG/1.1/DTD/svg11.dtd">
<svg version="1.1" xmlns="http://www.w3.org/2000/svg" xmlns:xlink="http://www.w3.org/1999/xlink" width="21" height="24" viewBox="0 0 21 24">
<path fill="#40c4ff" d="M12 13.5l4.5 9h-1.5l-3-6v7.5h-1.5v-9l-3 7.5h-1.5l3-7.5 3-1.5zM10.5 0h-1.5v1.5h1.5v-1.5zM7.5 4.5h-1.5v1.5h1.5v-1.5zM3 1.5h-1.5v1.5h1.5v-1.5zM0.938 13.5c-0.328 0.234-0.422 0.656-0.234 1.008l0.82 1.383c0.188 0.352 0.609 0.469 0.961 0.305l2.086-0.984-1.734-3-1.898 1.289zM12.773 5.414l-8.695 5.93 1.852 3.211 9.492-4.547-2.648-4.594zM19.102 7.336l-2.203-3.773c-0.211-0.375-0.703-0.492-1.078-0.258l-1.805 1.242 2.766 4.805 1.992-0.961c0.398-0.188 0.539-0.656 0.328-1.055z"></path>
</svg>
