<?xml version="1.0" encoding="utf-8"?>
<!-- Generated by IcoMoon.io -->
<!DOCTYPE svg PUBLIC "-//W3C//DTD SVG 1.1//EN" "http://www.w3.org/Graphics/SVG/1.1/DTD/svg11.dtd">
<svg version="1.1" xmlns="http://www.w3.org/2000/svg" xmlns:xlink="http://www.w3.org/1999/xlink" width="21" height="24" viewBox="0 0 21 24">
<path fill="#40c4ff" d="M21 10.57c0-1.688-1.219-3.070-3-3.070l-6 1.031c0.539-0.539 2.273-2.766 2.742-3.234 1.219-1.242 1.242-3.211 0.047-4.406-0.563-0.586-1.336-0.891-2.156-0.891-0.844 0-1.641 0.328-2.25 0.938 0 0-3.773 3.703-4.055 3.938-1.195 1.008-3.961 2.578-4.828 2.625h-1.5v13.5h1.477c0.563 0 1.664 0.586 2.648 1.102 1.688 0.891 3.609 1.898 5.672 1.898 0.234 0 5.203 0 5.203 0 1.617 0 3-1.195 3-2.742 0-0.188-0.188-0.445-0.234-0.633 0.914-0.586 1.523-1.594 1.523-2.766 0-0.328-0.047-0.656-0.141-0.961 0.961-0.563 1.617-1.617 1.617-2.813 0-0.516-0.141-1.008-0.352-1.453 0.516-0.563 0.586-1.266 0.586-2.063zM19.5 10.57c0 0.891-0.492 1.641-1.477 1.641h-0.633c1.055 0 1.898 0.844 1.898 1.875 0 1.055-0.844 1.664-1.898 1.664h-1.477c1.055 0 1.898 1.078 1.898 2.109 0 1.055-0.633 1.641-1.688 1.641h-1.125c0.797 0 1.5 0.961 1.5 1.758 0 0.773-0.703 1.242-1.5 1.242h-5.25c-3.070 0-6.211-2.953-8.25-2.953v-10.547c1.57 0 4.617-2.039 6.633-3.703l3.281-3.328c0.352-0.328 0.797-0.492 1.219-0.492s0.82 0.141 1.125 0.445c0.609 0.633 0.586 1.664-0.070 2.344 0 0-4.852 6.234-4.688 6.234l9-1.5c0.961 0 1.5 0.656 1.5 1.57z"></path>
</svg>
