<?xml version="1.0" encoding="utf-8"?>
<!-- Generated by IcoMoon.io -->
<!DOCTYPE svg PUBLIC "-//W3C//DTD SVG 1.1//EN" "http://www.w3.org/Graphics/SVG/1.1/DTD/svg11.dtd">
<svg version="1.1" xmlns="http://www.w3.org/2000/svg" xmlns:xlink="http://www.w3.org/1999/xlink" width="18" height="24" viewBox="0 0 18 24">
<path fill="#40c4ff" d="M15 3h-3c0-0.82-0.68-1.5-1.5-1.5h-4.5c-0.82 0-1.5 0.68-1.5 1.5h-3c-0.82 0-1.5 0.68-1.5 1.5v1.5c0 0.82 0.68 1.5 1.5 1.5v13.5c0 0.82 0.68 1.5 1.5 1.5h10.5c0.82 0 1.5-0.68 1.5-1.5v-13.5c0.82 0 1.5-0.68 1.5-1.5v-1.5c0-0.82-0.68-1.5-1.5-1.5zM13.5 21h-10.5v-13.5h1.5v12h1.5v-12h1.5v12h1.5v-12h1.5v12h1.5v-12h1.5v13.5zM15 6h-13.5v-1.5h13.5v1.5z"></path>
</svg>
