<?xml version="1.0" encoding="utf-8"?>
<!-- Generated by IcoMoon.io -->
<!DOCTYPE svg PUBLIC "-//W3C//DTD SVG 1.1//EN" "http://www.w3.org/Graphics/SVG/1.1/DTD/svg11.dtd">
<svg version="1.1" xmlns="http://www.w3.org/2000/svg" xmlns:xlink="http://www.w3.org/1999/xlink" width="21" height="24" viewBox="0 0 21 24">
<path fill="#40c4ff" d="M17.25 12.75l3.75 3.75c0 0.82-0.68 1.5-1.5 1.5h-6v-1.5h5.25l-3-3h-10.5l-3 3h5.25v1.5h-6c-0.82 0-1.5-0.68-1.5-1.5l3.75-3.75-3.75-3.75c0-0.82 0.68-1.5 1.5-1.5h6v1.5h-5.25l3 3h10.5l3-3h-5.25v-1.5h6c0.82 0 1.5 0.68 1.5 1.5l-3.75 3.75zM9 10.5h3v-4.5h3l-4.5-4.5-4.5 4.5h3v4.5zM12 15h-3v4.5h-3l4.5 4.5 4.5-4.5h-3v-4.5z"></path>
</svg>
