<?xml version="1.0" encoding="utf-8"?>
<!-- Generated by IcoMoon.io -->
<!DOCTYPE svg PUBLIC "-//W3C//DTD SVG 1.1//EN" "http://www.w3.org/Graphics/SVG/1.1/DTD/svg11.dtd">
<svg version="1.1" xmlns="http://www.w3.org/2000/svg" xmlns:xlink="http://www.w3.org/1999/xlink" width="24" height="24" viewBox="0 0 24 24">
<path fill="#40c4ff" d="M16.5 12.023c0 1.641-0.68 3.141-1.758 4.242l-1.008-1.008c0.82-0.844 1.336-1.969 1.336-3.234s-0.516-2.414-1.336-3.234l1.008-1.008c1.078 1.078 1.758 2.578 1.758 4.242zM10.078 3.422l-5.578 5.578h-3c-0.82 0-1.5 0.68-1.5 1.5v3c0 0.82 0.68 1.5 1.5 1.5h3l5.578 5.578c0.703 0.703 1.922 0.211 1.922-0.797v-15.563c0-1.008-1.219-1.5-1.922-0.797zM18.984 3.539l-1.008 1.008c1.922 1.922 3.094 4.547 3.094 7.477 0 2.906-1.172 5.555-3.094 7.477l1.008 1.008c2.18-2.18 3.516-5.18 3.516-8.484 0-3.328-1.336-6.328-3.516-8.484zM16.875 5.648l-1.031 1.008c1.383 1.383 2.227 3.281 2.227 5.367s-0.844 3.984-2.227 5.344l1.031 1.008c1.617-1.617 2.625-3.867 2.625-6.352s-1.008-4.734-2.625-6.375z"></path>
</svg>
