<?xml version="1.0" encoding="utf-8"?>
<!-- Generated by IcoMoon.io -->
<!DOCTYPE svg PUBLIC "-//W3C//DTD SVG 1.1//EN" "http://www.w3.org/Graphics/SVG/1.1/DTD/svg11.dtd">
<svg version="1.1" xmlns="http://www.w3.org/2000/svg" xmlns:xlink="http://www.w3.org/1999/xlink" width="21" height="24" viewBox="0 0 21 24">
<path fill="#40c4ff" d="M19.5 4.5h-9c-0.82 0-1.5 0.68-1.5 1.5v12c0 0.82 0.68 1.5 1.5 1.5h9c0.82 0 1.5-0.68 1.5-1.5v-12c0-0.82-0.68-1.5-1.5-1.5zM18 16.5h-6v-9h6v9zM6 6h1.5v1.5h-1.5v9h1.5v1.5h-1.5c-0.82 0-1.5-0.68-1.5-1.5v-9c0-0.82 0.68-1.5 1.5-1.5zM1.5 7.5h1.5v1.5h-1.5v6h1.5v1.5h-1.5c-0.82 0-1.5-0.68-1.5-1.5v-6c0-0.82 0.68-1.5 1.5-1.5z"></path>
</svg>
