<?xml version="1.0" encoding="utf-8"?>
<!-- Generated by IcoMoon.io -->
<!DOCTYPE svg PUBLIC "-//W3C//DTD SVG 1.1//EN" "http://www.w3.org/Graphics/SVG/1.1/DTD/svg11.dtd">
<svg version="1.1" xmlns="http://www.w3.org/2000/svg" xmlns:xlink="http://www.w3.org/1999/xlink" width="18" height="24" viewBox="0 0 18 24">
<path fill="#40c4ff" d="M9 12h3v1.5h-4.5v-6h1.5v4.5zM18 12c0 3.328-1.805 6.234-4.5 7.781v2.719c0 0.82-0.68 1.5-1.5 1.5h-6c-0.82 0-1.5-0.68-1.5-1.5v-2.719c-2.695-1.547-4.5-4.453-4.5-7.781s1.805-6.234 4.5-7.781v-2.719c0-0.82 0.68-1.5 1.5-1.5h6c0.82 0 1.5 0.68 1.5 1.5v2.719c2.695 1.547 4.5 4.453 4.5 7.781zM16.5 12c0-4.148-3.352-7.5-7.5-7.5s-7.5 3.352-7.5 7.5 3.352 7.5 7.5 7.5 7.5-3.352 7.5-7.5z"></path>
</svg>
